<?xml version="1.0" encoding="UTF-8"?>
<svg xmlns="http://www.w3.org/2000/svg" xmlns:xlink="http://www.w3.org/1999/xlink" width="70pt" height="70pt" viewBox="0 0 70 70" version="1.1">
<defs>
<linearGradient id="linear0" gradientUnits="userSpaceOnUse" x1="8.95" y1="12.85" x2="8.95" y2="0.72" gradientTransform="matrix(3.888889,0,0,3.888889,0,0)">
<stop offset="0" style="stop-color:rgb(0%,47.058824%,83.137255%);stop-opacity:1;"/>
<stop offset="0.82" style="stop-color:rgb(36.862745%,62.745098%,93.72549%);stop-opacity:1;"/>
</linearGradient>
</defs>
<g id="surface1">
<path style=" stroke:none;fill-rule:nonzero;fill:url(#linear0);" d="M 68.09375 35.195313 C 69.285156 39.675781 68.335938 44.453125 65.519531 48.136719 C 62.703125 51.820313 58.339844 53.992188 53.707031 54.015625 C 63.421875 54.355469 71.070313 62.417969 70.894531 72.140625 L 103.714844 72.140625 C 103.714844 81.203125 96.371094 88.550781 87.304688 88.550781 C 78.242188 88.550781 70.894531 81.203125 70.894531 72.140625 Z M 68.09375 35.195313 "/>
<path style=" stroke:none;fill-rule:nonzero;fill:rgb(31.372549%,90.196078%,100%);fill-opacity:1;" d="M 36.554688 32.121094 C 27.683594 27.191406 24.492188 16.007813 29.417969 7.136719 C 34.347656 -1.734375 45.535156 -4.929688 54.40625 0 L 36.554688 0 Z M 36.554688 32.121094 "/>
<path style=" stroke:none;fill-rule:nonzero;fill:rgb(0%,47.058824%,83.137255%);fill-opacity:1;" d="M 45.148438 57.984375 L 36.867188 66.304688 C 18.558594 66.304688 3.714844 51.460938 3.714844 33.152344 C 3.714844 14.84375 18.558594 0 36.867188 0 L 28.582031 -8.320313 C 30.882813 -10.609375 34.597656 -10.601563 36.886719 -8.304688 C 39.171875 -6.003906 39.164063 -2.289063 36.867188 0 L 41.726563 0 C 41.726563 1.34375 40.640625 2.429688 39.296875 2.429688 C 37.953125 2.429688 36.867188 1.34375 36.867188 0 L 36.867188 -10.734375 C 39.832031 -10.734375 42.234375 -8.332031 42.234375 -5.367188 C 42.234375 -2.402344 39.832031 0 36.867188 0 L 42 0 C 42 1.417969 40.851563 2.566406 39.433594 2.566406 C 38.015625 2.566406 36.867188 1.417969 36.867188 0 L 36.867188 10.734375 C 33.902344 10.734375 31.5 8.332031 31.5 5.367188 C 31.5 2.402344 33.902344 0 36.867188 0 L 41.726563 0 C 41.726563 1.34375 40.640625 2.429688 39.296875 2.429688 C 37.953125 2.429688 36.867188 1.34375 36.867188 0 Z M 45.148438 57.984375 "/>
<path style=" stroke:none;fill-rule:nonzero;fill:rgb(100%,100%,100%);fill-opacity:1;" d="M 27.960938 37.566406 L 36.554688 28.972656 L 45.148438 37.566406 C 34.777344 37.363281 26.53125 28.789063 26.734375 18.414063 C 26.941406 8.039063 35.515625 -0.203125 45.890625 0 L 41.027344 0 C 41.160156 -0.078125 41.324219 -0.078125 41.457031 0 L 41.457031 11.121094 L 33.5625 11.121094 L 33.5625 38.890625 C 22.820313 39.007813 14.019531 30.398438 13.902344 19.660156 C 13.785156 8.917969 22.394531 0.117188 33.132813 0 L 28.273438 0 C 28.273438 0.246094 28.070313 0.445313 27.824219 0.445313 C 27.578125 0.445313 27.378906 0.246094 27.378906 0 Z M 27.960938 37.566406 "/>
</g>
</svg>
