<?xml version="1.0" encoding="UTF-8"?>
<svg xmlns="http://www.w3.org/2000/svg" xmlns:xlink="http://www.w3.org/1999/xlink" width="70pt" height="70pt" viewBox="0 0 70 70" version="1.1">
<g id="surface1">
<path style=" stroke:none;fill-rule:nonzero;fill:rgb(85.882353%,45.882353%,0%);fill-opacity:1;" d="M 69.125 60.8125 L 40.6875 3.5 C 38.5 -0.875 31.9375 -0.875 29.75 3.5 L 0.875 59.9375 C -1.3125 64.3125 0.875 70 5.6875 70 L 64.75 70 C 69.125 70.875 71.3125 65.1875 69.125 60.8125 Z M 69.125 60.8125 "/>
<path style=" stroke:none;fill-rule:nonzero;fill:rgb(100%,100%,100%);fill-opacity:1;" d="M 41.125 56.875 C 41.125 60.257813 38.382813 63 35 63 C 31.617188 63 28.875 60.257813 28.875 56.875 C 28.875 53.492188 31.617188 50.75 35 50.75 C 38.382813 50.75 41.125 53.492188 41.125 56.875 Z M 41.125 56.875 "/>
<path style=" stroke:none;fill-rule:nonzero;fill:rgb(100%,100%,100%);fill-opacity:1;" d="M 28.875 17.5 L 31.0625 43.75 L 38.9375 43.75 L 41.125 17.5 Z M 28.875 17.5 "/>
</g>
</svg>
