<?xml version="1.0" encoding="UTF-8"?>
<svg xmlns="http://www.w3.org/2000/svg" xmlns:xlink="http://www.w3.org/1999/xlink" width="70pt" height="70pt" viewBox="0 0 70 70" version="1.1">
<defs>
<linearGradient id="linear0" gradientUnits="userSpaceOnUse" x1="8.9" y1="1.31" x2="8.9" y2="12.11" gradientTransform="matrix(3.888889,0,0,3.888889,0,0)">
<stop offset="0" style="stop-color:rgb(36.862745%,62.745098%,93.72549%);stop-opacity:1;"/>
<stop offset="0.18" style="stop-color:rgb(33.333333%,61.176471%,92.54902%);stop-opacity:1;"/>
<stop offset="0.47" style="stop-color:rgb(23.529412%,56.862745%,89.803922%);stop-opacity:1;"/>
<stop offset="0.84" style="stop-color:rgb(7.45098%,50.196078%,85.490196%);stop-opacity:1;"/>
<stop offset="1" style="stop-color:rgb(0%,47.058824%,83.137255%);stop-opacity:1;"/>
</linearGradient>
<linearGradient id="linear1" gradientUnits="userSpaceOnUse" x1="8.88" y1="16.72" x2="8.88" y2="13.85" gradientTransform="matrix(3.888889,0,0,3.888889,0,0)">
<stop offset="0" style="stop-color:rgb(0%,47.058824%,83.137255%);stop-opacity:1;"/>
<stop offset="0.16" style="stop-color:rgb(7.45098%,50.196078%,85.490196%);stop-opacity:1;"/>
<stop offset="0.53" style="stop-color:rgb(23.529412%,56.862745%,89.803922%);stop-opacity:1;"/>
<stop offset="0.82" style="stop-color:rgb(33.333333%,61.176471%,92.54902%);stop-opacity:1;"/>
<stop offset="1" style="stop-color:rgb(36.862745%,62.745098%,93.72549%);stop-opacity:1;"/>
</linearGradient>
</defs>
<g id="surface1">
<path style=" stroke:none;fill-rule:nonzero;fill:url(#linear0);" d="M 63.777344 33.832031 C 54.433594 37.367188 43.996094 32.65625 40.464844 23.3125 C 36.929688 13.972656 41.640625 3.53125 50.984375 0 C 54.609375 -1.265625 58.558594 -1.265625 62.183594 0 L 90.222656 0 L 50.554688 46.667969 C 37.667969 43.457031 29.824219 30.40625 33.035156 17.519531 C 36.246094 4.632813 49.296875 -3.210938 62.183594 0 Z M 63.777344 33.832031 "/>
<path style=" stroke:none;fill-rule:nonzero;fill:rgb(58.039216%,58.039216%,58.039216%);fill-opacity:1;" d="M 51.371094 49.390625 L 35.816406 49.390625 L 35.816406 29.945313 L 33.484375 29.945313 L 33.484375 49.390625 L 17.929688 49.390625 C 4.289063 49.066406 -6.503906 37.75 -6.183594 24.109375 C -5.859375 10.472656 5.457031 -0.320313 19.09375 0 L 19.09375 4.550781 C 19.078125 4.070313 19.355469 3.632813 19.796875 3.441406 C 20.234375 3.25 20.746094 3.347656 21.085938 3.6875 C 21.425781 4.023438 21.519531 4.535156 21.332031 4.976563 C 21.140625 5.414063 20.699219 5.695313 20.222656 5.679688 L 20.222656 2.253906 L 34.648438 2.253906 L 34.648438 4.628906 L 36.945313 4.628906 L 36.945313 2.253906 L 51.410156 2.253906 L 51.410156 6.496094 C 51.433594 5.859375 51.957031 5.359375 52.589844 5.367188 C 53.222656 5.375 53.738281 5.886719 53.742188 6.519531 C 53.75 7.15625 53.25 7.679688 52.617188 7.699219 L 52.617188 50.554688 C 40.78125 50.878906 30.925781 41.546875 30.605469 29.710938 C 30.285156 17.875 39.617188 8.023438 51.449219 7.699219 Z M 51.371094 49.390625 "/>
<path style=" stroke:none;fill-rule:nonzero;fill:url(#linear1);" d="M 55.339844 65.023438 L 47.25 65.023438 C 29.292969 65.417969 14.417969 51.1875 14.019531 33.230469 C 13.621094 15.273438 27.855469 0.398438 45.8125 0 L 45.8125 -8.285156 C 48.097656 -8.285156 49.953125 -6.429688 49.953125 -4.140625 C 49.953125 -1.855469 48.097656 0 45.8125 0 L 53.898438 0 C 53.898438 2.234375 52.089844 4.042969 49.855469 4.042969 C 47.621094 4.042969 45.8125 2.234375 45.8125 0 L 45.8125 8.285156 C 43.523438 7.886719 41.992188 5.710938 42.390625 3.421875 C 42.785156 1.136719 44.960938 -0.398438 47.25 0 Z M 40.015625 63.582031 L 40.015625 55.300781 C 24.746094 55.699219 12.042969 43.640625 11.648438 28.371094 C 11.25 13.097656 23.308594 0.398438 38.578125 0 L 30.488281 0 C 30.933594 -0.257813 31.484375 -0.257813 31.929688 0 L 31.929688 8.285156 C 29.640625 8.285156 27.785156 6.429688 27.785156 4.140625 C 27.785156 1.855469 29.640625 0 31.929688 0 L 40.015625 0 C 40.015625 2.234375 38.207031 4.042969 35.972656 4.042969 C 33.738281 4.042969 31.929688 2.234375 31.929688 0 Z M 23.332031 63.582031 L 23.332031 55.300781 C 8.0625 55.699219 -4.640625 43.640625 -5.035156 28.371094 C -5.433594 13.097656 6.625 0.398438 21.894531 0 L 13.6875 0 C 14.136719 -0.25 14.679688 -0.25 15.128906 0 L 15.128906 8.285156 C 12.839844 8.285156 10.984375 6.429688 10.984375 4.140625 C 10.984375 1.855469 12.839844 0 15.128906 0 L 23.253906 0 C 23.253906 2.246094 21.4375 4.0625 19.191406 4.0625 C 16.945313 4.0625 15.128906 2.246094 15.128906 0 Z M 23.332031 63.582031 "/>
<path style=" stroke:none;fill-rule:nonzero;fill:rgb(100%,100%,100%);fill-opacity:1;" d="M 46.667969 25.667969 L 46.667969 22.984375 L 46.277344 22.984375 L 43.398438 22.050781 L 42.660156 20.222656 L 44.101563 17.109375 L 42.234375 15.246094 L 41.84375 15.4375 L 38.890625 16.644531 L 37.023438 15.90625 L 35.855469 12.640625 L 33.328125 12.640625 L 33.328125 13.027344 L 32.394531 15.90625 L 30.566406 16.644531 L 27.222656 15.167969 L 25.355469 17.070313 L 25.550781 17.421875 L 27.222656 20.105469 L 26.445313 21.933594 L 23.023438 23.332031 L 23.023438 25.976563 L 23.371094 25.976563 L 26.25 26.910156 L 26.988281 28.738281 L 25.550781 31.851563 L 27.417969 33.714844 L 27.804688 33.714844 L 30.488281 32.355469 L 32.316406 33.09375 L 33.484375 36.320313 L 36.167969 36.320313 L 36.167969 35.972656 L 37.101563 33.09375 L 38.929688 32.355469 L 42.039063 33.792969 L 43.90625 31.929688 L 43.710938 31.539063 L 42.351563 28.855469 L 43.089844 27.027344 Z M 35 29.554688 C 26.839844 39.21875 12.386719 40.4375 2.722656 32.277344 C -6.941406 24.117188 -8.160156 9.664063 0 0 Z M 35 29.554688 "/>
</g>
</svg>
