<?xml version="1.0" encoding="UTF-8"?>
<svg xmlns="http://www.w3.org/2000/svg" xmlns:xlink="http://www.w3.org/1999/xlink" width="70pt" height="61pt" viewBox="0 0 70 61" version="1.1">
<g id="surface1">
<path style=" stroke:none;fill-rule:nonzero;fill:rgb(0%,0%,0%);fill-opacity:1;" d="M 51.625 0 C 51.625 14.199219 40.066406 25.707031 25.8125 25.707031 C 11.558594 25.707031 0 14.199219 0 0 L 6.125 3.921875 L 10.0625 10.019531 C 9.710938 1.589844 14.585938 -6.195313 22.34375 -9.585938 C 30.101563 -12.976563 39.15625 -11.28125 45.148438 -5.3125 C 51.136719 0.652344 52.839844 9.671875 49.4375 17.398438 C 46.03125 25.125 38.214844 29.980469 29.75 29.628906 L 48.125 29.628906 L 35 61 L 5.25 31.808594 C 13.503906 36.523438 16.777344 46.734375 12.792969 55.339844 C 8.808594 63.949219 -1.113281 68.101563 -10.074219 64.914063 C -19.035156 61.726563 -24.070313 52.253906 -21.679688 43.082031 C -19.289063 33.90625 -10.261719 28.070313 -0.875 29.628906 L 3.0625 23.527344 L 11.375 1.308594 C 6.632813 -8.578125 -5.078125 -12.992188 -15.203125 -8.71875 C -25.332031 -4.441406 -30.285156 7.011719 -26.449219 17.277344 C -22.613281 27.542969 -11.34375 32.988281 -0.875 29.628906 L 3.9375 29.628906 L 7.875 31.808594 C 11.664063 34.914063 12.785156 40.222656 10.578125 44.585938 C 8.367188 48.953125 3.414063 51.210938 -1.347656 50.023438 C -6.109375 48.839844 -9.410156 44.527344 -9.296875 39.640625 C -9.183594 34.75 -5.6875 30.59375 -0.875 29.628906 L 35 8.714844 L 38.5 5.230469 C 45.265625 16.058594 41.9375 30.296875 31.0625 37.035156 C 20.1875 43.773438 5.890625 40.457031 -0.875 29.628906 L 3.0625 27.449219 Z M 61.25 28.320313 C 67.289063 22.304688 77.085938 22.304688 83.125 28.320313 C 89.164063 34.335938 89.164063 44.089844 83.125 50.105469 C 83.285156 52.742188 83.90625 54.109375 84.578125 53.296875 C 85.25 52.480469 85.753906 49.738281 85.753906 46.910156 C 85.753906 44.085938 85.25 42.070313 84.578125 42.21875 C 83.90625 42.367188 83.285156 44.632813 83.125 47.492188 C 82.039063 43.871094 80.109375 42.644531 78.3125 44.441406 L 51.625 4.355469 L 46.375 5.230469 L 42 7.84375 L 38.5 10.894531 L 35 14.8125 L 31.5 11.328125 L 27.5625 7.84375 L 23.625 5.230469 L 18.8125 4.355469 C 23.808594 8.726563 24.390625 16.269531 20.125 21.351563 C 22.917969 29.066406 19.78125 37.671875 12.660156 41.800781 C 5.542969 45.929688 -3.519531 44.402344 -8.878906 38.175781 C -14.242188 31.945313 -14.367188 22.792969 -9.183594 16.417969 C -3.996094 10.042969 5.019531 8.269531 12.25 12.199219 C 7.902344 2.609375 11.058594 -8.703125 19.75 -14.6875 C 28.441406 -20.667969 40.183594 -19.609375 47.65625 -12.167969 C 55.125 -4.726563 56.191406 6.964844 50.183594 15.621094 C 44.175781 24.277344 32.816406 27.421875 23.1875 23.09375 L 49.4375 49.671875 Z M 61.25 28.320313 "/>
</g>
</svg>
