<?xml version="1.0" encoding="UTF-8"?>
<svg xmlns="http://www.w3.org/2000/svg" xmlns:xlink="http://www.w3.org/1999/xlink" width="70pt" height="70pt" viewBox="0 0 70 70" version="1.1">
<defs>
<linearGradient id="linear0" gradientUnits="userSpaceOnUse" x1="5.77" y1="7.11" x2="5.88" y2="17.6" gradientTransform="matrix(3.888889,0,0,3.888889,0,0)">
<stop offset="0" style="stop-color:rgb(19.607843%,83.137255%,96.078431%);stop-opacity:1;"/>
<stop offset="0.32" style="stop-color:rgb(19.215686%,81.960784%,95.294118%);stop-opacity:1;"/>
<stop offset="0.53" style="stop-color:rgb(18.039216%,78.823529%,92.156863%);stop-opacity:1;"/>
<stop offset="0.7" style="stop-color:rgb(16.078431%,72.941176%,87.058824%);stop-opacity:1;"/>
<stop offset="0.86" style="stop-color:rgb(13.333333%,64.705882%,79.607843%);stop-opacity:1;"/>
<stop offset="1" style="stop-color:rgb(9.803922%,54.117647%,70.196078%);stop-opacity:1;"/>
<stop offset="1" style="stop-color:rgb(9.803922%,54.117647%,70.196078%);stop-opacity:1;"/>
</linearGradient>
</defs>
<g id="surface1">
<path style=" stroke:none;fill-rule:nonzero;fill:rgb(94.901961%,94.901961%,94.901961%);fill-opacity:1;" d="M 58.644531 45.421875 C 46.101563 56.042969 27.324219 54.484375 16.703125 41.941406 C 6.082031 29.398438 7.640625 10.621094 20.183594 0 L 20.457031 -0.195313 C 31.421875 -7.914063 46.570313 -5.308594 54.328125 5.628906 C 62.085938 16.570313 59.53125 31.726563 48.617188 39.523438 C 37.703125 47.316406 22.542969 44.816406 14.707031 33.929688 C 6.875 23.042969 9.324219 7.871094 20.183594 0 "/>
<path style=" stroke:none;fill-rule:nonzero;fill:rgb(0%,47.058824%,83.137255%);fill-opacity:1;" d="M 63.15625 11.667969 C 60.523438 8.277344 58.832031 4.253906 58.253906 0 L 57.984375 0.195313 C 47.015625 7.914063 31.871094 5.308594 24.113281 -5.628906 C 16.351563 -16.570313 18.90625 -31.726563 29.820313 -39.523438 C 40.734375 -47.316406 55.898438 -44.816406 63.730469 -33.929688 C 71.5625 -23.042969 69.117188 -7.871094 58.253906 0 Z M 22.59375 24.617188 C 15.796875 14.769531 18.269531 1.277344 28.117188 -5.523438 C 37.964844 -12.320313 51.457031 -9.847656 58.253906 0 L 64.128906 0 C 66.871094 -0.273438 69.628906 -0.273438 72.371094 0 Z M 34.261719 16.371094 L 42.351563 16.371094 L 42.351563 24.617188 L 32.859375 24.617188 C 17.960938 22.402344 6.023438 11.132813 2.957031 -3.617188 C -0.105469 -18.363281 6.355469 -33.460938 19.140625 -41.425781 C 31.925781 -49.390625 48.320313 -48.535156 60.207031 -39.285156 C 72.097656 -30.035156 76.953125 -14.351563 72.371094 0 Z M 45.460938 16.371094 L 53.550781 16.371094 C 37.273438 22.523438 18.925781 16.128906 10 1.191406 C 1.074219 -13.746094 4.132813 -32.929688 17.261719 -44.351563 C 30.390625 -55.773438 49.816406 -56.144531 63.375 -45.234375 C 76.929688 -34.324219 80.722656 -15.269531 72.371094 0 L 63.039063 0 Z M 42.351563 27.726563 L 42.351563 36.011719 L 34.105469 36.011719 C 29.171875 51.78125 14.28125 62.289063 -2.230469 61.652344 C -18.742188 61.015625 -32.777344 49.394531 -36.484375 33.289063 C -40.1875 17.1875 -32.640625 0.597656 -18.066406 -7.191406 C -3.492188 -14.976563 14.496094 -12.03125 25.820313 0 Z M 45.460938 27.726563 L 54.792969 27.726563 C 43.652344 41.042969 24.683594 44.695313 9.394531 36.46875 C -5.898438 28.242188 -13.304688 10.40625 -8.332031 -6.230469 C -3.363281 -22.867188 12.613281 -33.722656 29.910156 -32.214844 C 47.210938 -30.703125 61.066406 -17.246094 63.078125 0 L 54.832031 0 Z M 57.945313 27.726563 L 65.023438 27.726563 C 57.261719 32.625 47.277344 32.199219 39.96875 26.652344 C 32.65625 21.105469 29.554688 11.609375 32.179688 2.816406 C 34.808594 -5.976563 42.613281 -12.21875 51.765625 -12.84375 C 60.921875 -13.46875 69.503906 -8.351563 73.304688 0 L 67.238281 0 C 46.136719 -1.628906 30.089844 -19.644531 30.90625 -40.796875 C 31.722656 -61.945313 49.105469 -78.671875 70.273438 -78.671875 C 91.4375 -78.671875 108.820313 -61.945313 109.636719 -40.796875 C 110.453125 -19.644531 94.410156 -1.628906 73.304688 0 Z M 57.945313 24.617188 C 52.457031 17.597656 49.546875 8.90625 49.699219 0 L 55.609375 0 C 66.4375 1.550781 74.226563 11.207031 73.449219 22.117188 C 72.667969 33.023438 63.59375 41.476563 52.65625 41.476563 C 41.71875 41.476563 32.640625 33.023438 31.863281 22.117188 C 31.085938 11.207031 38.875 1.550781 49.699219 0 Z M 60.707031 13.222656 L 55.6875 13.222656 C 57.164063 20.976563 54.753906 28.964844 49.234375 34.609375 Z M 52.460938 13.222656 L 45.460938 13.222656 L 45.460938 5.445313 C 53.515625 4.402344 60.890625 10.085938 61.929688 18.140625 C 62.972656 26.195313 57.289063 33.570313 49.234375 34.609375 Z M 42.351563 5.445313 L 42.351563 13.222656 L 35.195313 13.222656 C 41.101563 9.34375 49.03125 10.992188 52.910156 16.898438 C 56.785156 22.804688 55.140625 30.734375 49.234375 34.609375 Z M 30.761719 9.410156 C 32.316406 -1.164063 41.640625 -8.828125 52.316406 -8.308594 C 62.992188 -7.789063 71.527344 0.746094 72.050781 11.421875 C 72.570313 22.097656 64.902344 31.421875 54.328125 32.976563 L 26.949219 32.976563 C 21.21875 27.40625 19.433594 18.914063 22.441406 11.507813 C 25.449219 4.101563 32.644531 -0.742188 40.640625 -0.742188 C 48.632813 -0.742188 55.828125 4.101563 58.835938 11.507813 C 61.84375 18.914063 60.058594 27.40625 54.328125 32.976563 Z M 22.59375 27.726563 L 29.710938 27.726563 C 11.570313 17.503906 3.613281 -4.4375 10.984375 -23.914063 C 18.351563 -43.390625 38.839844 -54.566406 59.203125 -50.222656 C 79.570313 -45.878906 93.714844 -27.316406 92.496094 -6.527344 C 91.277344 14.257813 75.0625 31.042969 54.328125 32.976563 L 24.964844 32.976563 C 35.242188 35.101563 42.242188 44.65625 41.175781 55.089844 C 40.105469 65.527344 31.316406 73.464844 20.824219 73.464844 C 10.332031 73.464844 1.542969 65.527344 0.476563 55.089844 C -0.59375 44.65625 6.410156 35.101563 16.683594 32.976563 Z M 26.988281 39.394531 L 31.8125 39.394531 C 30.746094 29.363281 36.121094 19.753906 45.222656 15.40625 C 54.324219 11.058594 65.175781 12.921875 72.308594 20.054688 C 79.4375 27.1875 81.300781 38.039063 76.953125 47.140625 C 72.609375 56.242188 62.996094 61.613281 52.964844 60.550781 Z M 35.195313 39.394531 L 42.195313 39.394531 L 42.195313 47.171875 C 47.261719 45.21875 53.015625 46.699219 56.507813 50.859375 C 60.003906 55.019531 60.46875 60.9375 57.667969 65.59375 C 54.867188 70.25 49.417969 72.609375 44.105469 71.472656 C 38.792969 70.332031 34.789063 65.945313 34.144531 60.550781 Z M 45.304688 47.171875 L 45.304688 39.394531 L 52.304688 39.394531 C 56.375 34.921875 63.035156 33.933594 68.226563 37.035156 C 73.421875 40.132813 75.714844 46.460938 73.707031 52.167969 C 71.703125 57.875 65.957031 61.378906 59.964844 60.550781 Z M 56.738281 42.777344 C 60.773438 35.136719 69.308594 31 77.804688 32.574219 C 86.304688 34.148438 92.792969 41.0625 93.824219 49.640625 C 94.855469 58.222656 90.191406 66.476563 82.308594 70.019531 C 74.421875 73.5625 65.152344 71.570313 59.421875 65.101563 L 64.285156 65.101563 C 52.5 64.078125 43.609375 53.957031 44.121094 42.140625 C 44.632813 30.324219 54.359375 21.003906 66.1875 21.003906 C 78.015625 21.003906 87.746094 30.324219 88.257813 42.140625 C 88.769531 53.957031 79.878906 64.078125 68.09375 65.101563 Z M 56.738281 42.777344 "/>
<path style=" stroke:none;fill-rule:nonzero;fill:url(#linear0);" d="M 42.195313 68.132813 L 3.460938 68.132813 C 2.253906 68.132813 1.515625 66.148438 2.214844 65.140625 L 15.554688 45.695313 C 2.9375 32.003906 3.808594 10.671875 17.5 -1.945313 C 31.191406 -14.5625 52.519531 -13.691406 65.140625 0 L 65.140625 31.964844 C 56.3125 32.179688 48.980469 25.199219 48.765625 16.371094 C 48.550781 7.542969 55.535156 0.214844 64.359375 0 L 63.660156 0 C 64.230469 0.339844 64.503906 1.019531 64.328125 1.660156 C 64.148438 2.300781 63.566406 2.746094 62.902344 2.746094 C 62.238281 2.746094 61.65625 2.300781 61.476563 1.660156 C 61.300781 1.019531 61.574219 0.339844 62.144531 0 L 62.144531 -0.699219 C 62.320313 -1.449219 63.03125 -1.945313 63.796875 -1.855469 C 64.5625 -1.765625 65.136719 -1.121094 65.136719 -0.351563 C 65.136719 0.417969 64.5625 1.066406 63.796875 1.15625 C 63.03125 1.246094 62.320313 0.75 62.144531 0 L 79.140625 0 C 79.140625 4.691406 75.335938 8.496094 70.640625 8.496094 C 65.949219 8.496094 62.144531 4.691406 62.144531 0 L 62.144531 0.699219 C 61.46875 0.628906 60.925781 0.121094 60.808594 -0.542969 C 60.6875 -1.210938 61.027344 -1.875 61.636719 -2.171875 C 62.246094 -2.46875 62.976563 -2.324219 63.429688 -1.820313 C 63.882813 -1.316406 63.945313 -0.574219 63.582031 0 L 62.84375 0 C 63.082031 -0.148438 63.382813 -0.148438 63.621094 0 L 63.621094 12.910156 C 60.058594 12.910156 57.167969 10.019531 57.167969 6.457031 C 57.167969 2.890625 60.058594 0 63.621094 0 L 76.960938 19.445313 C 77.660156 20.457031 76.921875 22.476563 75.679688 22.476563 Z M 42.195313 68.132813 "/>
<path style=" stroke:none;fill-rule:nonzero;fill:rgb(100%,100%,100%);fill-opacity:1;" d="M 8.710938 63 L 18.316406 49 C 4.785156 54.058594 -10.285156 47.1875 -15.339844 33.660156 C -20.398438 20.128906 -13.53125 5.058594 0 0 L 0 -5.640625 C 1.558594 -5.640625 2.820313 -4.375 2.820313 -2.820313 C 2.820313 -1.261719 1.558594 0 0 0 L 5.445313 0 C 5.445313 1.503906 4.226563 2.722656 2.722656 2.722656 C 1.21875 2.722656 0 1.503906 0 0 L 0 6.027344 C -1.664063 6.027344 -3.015625 4.679688 -3.015625 3.015625 C -3.015625 1.347656 -1.664063 0 0 0 L 9.839844 14.273438 C 5.898438 13.90625 3 10.417969 3.363281 6.476563 C 3.730469 2.535156 7.21875 -0.363281 11.160156 0 L 9.410156 0 C 9.65625 0.339844 9.605469 0.808594 9.296875 1.085938 C 8.984375 1.367188 8.515625 1.367188 8.203125 1.085938 C 7.894531 0.808594 7.84375 0.339844 8.089844 0 Z M 8.710938 63 "/>
</g>
</svg>
