<?xml version="1.0" encoding="UTF-8"?>
<svg xmlns="http://www.w3.org/2000/svg" xmlns:xlink="http://www.w3.org/1999/xlink" width="70pt" height="70pt" viewBox="0 0 70 70" version="1.1">
<defs>
<linearGradient id="linear0" gradientUnits="userSpaceOnUse" x1="11.08" y1="31.2" x2="11.08" y2="15.71" gradientTransform="matrix(3.888889,0,0,3.85,0,-55.688889)">
<stop offset="0" style="stop-color:rgb(58.039216%,58.039216%,58.039216%);stop-opacity:1;"/>
<stop offset="0.33" style="stop-color:rgb(60.784314%,60.784314%,60.784314%);stop-opacity:1;"/>
<stop offset="0.82" style="stop-color:rgb(68.235294%,68.627451%,69.019608%);stop-opacity:1;"/>
<stop offset="1" style="stop-color:rgb(71.372549%,72.156863%,72.54902%);stop-opacity:1;"/>
</linearGradient>
</defs>
<g id="surface1">
<path style=" stroke:none;fill-rule:nonzero;fill:url(#linear0);" d="M 70 37.683594 L 70 30.722656 L 69.609375 30.371094 L 62.457031 27.960938 L 60.628906 23.332031 L 64.167969 16.023438 L 64.554688 15.207031 L 62.222656 12.832031 L 59.5 10.148438 L 58.566406 10.617188 L 51.566406 14.15625 L 46.859375 12.832031 L 43.828125 5.054688 L 36.867188 5.054688 L 36.515625 5.40625 L 34.105469 12.523438 L 29.207031 14.351563 L 21.117188 10.460938 L 16.140625 15.320313 L 16.605469 16.253906 L 20.339844 23.332031 C 20.257813 33.027344 14.195313 41.660156 5.101563 45.023438 C -3.988281 48.386719 -14.214844 45.78125 -20.582031 38.472656 C -26.953125 31.164063 -28.140625 20.679688 -23.566406 12.132813 C -18.996094 3.585938 -9.613281 -1.242188 0 0 C -0.109375 -5.269531 2.996094 -10.078125 7.84375 -12.144531 C 12.691406 -14.214844 18.3125 -13.125 22.039063 -9.398438 C 25.765625 -5.671875 26.851563 -0.0546875 24.785156 4.796875 C 22.714844 9.644531 17.910156 12.75 12.640625 12.640625 C 12.722656 5.722656 18.386719 0.175781 25.300781 0.234375 C 32.21875 0.289063 37.789063 5.929688 37.761719 12.84375 C 37.730469 19.761719 32.117188 25.355469 25.199219 25.355469 L 49.738281 49.894531 L 49 51.410156 L 53.976563 56.429688 L 54.988281 56.15625 L 61.988281 52.265625 L 66.8125 54.25 L 69.882813 62.648438 L 76.882813 62.648438 L 77.15625 61.679688 L 79.644531 54.25 L 84.390625 52.265625 L 92.59375 56.15625 L 97.535156 51.253906 L 97.066406 50.320313 L 93.449219 43.359375 L 94.929688 38.5 Z M 70 37.683594 "/>
<path style=" stroke:none;fill-rule:nonzero;fill:rgb(31.372549%,90.196078%,100%);fill-opacity:1;" d="M 15.554688 41.417969 C 4.117188 45.710938 -8.636719 39.921875 -12.929688 28.484375 C -17.226563 17.050781 -11.4375 4.296875 0 0 C -0.046875 -4.1875 2.445313 -7.988281 6.308594 -9.613281 C 10.167969 -11.238281 14.628906 -10.367188 17.59375 -7.402344 C 20.554688 -4.441406 21.429688 0.0195313 19.804688 3.882813 C 18.179688 7.742188 14.378906 10.234375 10.1875 10.1875 C 13.078125 9.492188 15.984375 11.265625 16.683594 14.15625 C 17.382813 17.042969 15.605469 19.953125 12.714844 20.648438 L 22.867188 30.800781 L 36.90625 30.800781 Z M 15.554688 41.417969 "/>
<path style=" stroke:none;fill-rule:nonzero;fill:rgb(31.372549%,90.196078%,100%);fill-opacity:1;" d="M 15.554688 34.300781 C 18.648438 32.492188 22.605469 33.324219 24.707031 36.226563 C 26.808594 39.128906 26.363281 43.148438 23.679688 45.523438 C 21 47.894531 16.953125 47.847656 14.328125 45.40625 C 11.707031 42.96875 11.363281 38.9375 13.535156 36.089844 L 16.800781 36.089844 C 16.847656 36.625 17.9375 37.058594 19.242188 37.0625 C 20.542969 37.066406 21.570313 36.640625 21.542969 36.105469 C 21.511719 35.570313 20.4375 35.128906 19.132813 35.117188 C 10.546875 27.496094 -2.542969 28.082031 -10.414063 36.4375 C -18.289063 44.792969 -18.09375 57.894531 -9.972656 66.011719 C -1.855469 74.128906 11.242188 74.324219 19.601563 66.453125 C 27.957031 58.582031 28.542969 45.492188 20.921875 36.90625 L 38.617188 36.90625 Z M 15.554688 34.300781 "/>
<path style=" stroke:none;fill-rule:nonzero;fill:rgb(19.607843%,74.509804%,86.666667%);fill-opacity:1;" d="M 15.554688 48.535156 C 26.449219 47.070313 36.636719 54.238281 38.933594 64.988281 C 41.230469 75.738281 34.863281 86.445313 24.320313 89.5625 C 13.78125 92.675781 2.617188 87.152344 -1.300781 76.882813 C -5.21875 66.609375 -0.566406 55.054688 9.371094 50.359375 L 11.199219 50.359375 C 7.25 42.695313 9.476563 33.296875 16.441406 28.210938 C 23.40625 23.128906 33.035156 23.875 39.132813 29.972656 C 45.230469 36.070313 45.976563 45.699219 40.894531 52.664063 C 35.808594 59.628906 26.410156 61.855469 18.746094 57.90625 L 18.746094 101.65625 C 19.367188 101.511719 20.03125 101.644531 20.53125 102.003906 C 21.03125 102.363281 21.304688 102.914063 21.273438 103.484375 L 24.5 106.710938 L 28.390625 106.710938 Z M 15.554688 48.535156 "/>
</g>
</svg>
