<?xml version="1.0" encoding="UTF-8"?>
<svg xmlns="http://www.w3.org/2000/svg" xmlns:xlink="http://www.w3.org/1999/xlink" width="70pt" height="70pt" viewBox="0 0 70 70" version="1.1">
<g id="surface1">
<path style=" stroke:none;fill-rule:nonzero;fill:rgb(0%,0%,0%);fill-opacity:1;" d="M 35 6.5625 C 43.695313 -3.703125 58.398438 -6.46875 70.230469 -0.0664063 C 82.0625 6.335938 87.789063 20.15625 83.957031 33.050781 C 80.121094 45.945313 67.773438 54.390625 54.363281 53.285156 C 40.953125 52.179688 30.15625 41.832031 28.480469 28.480469 M 28.480469 24.105469 C 23.195313 7.765625 31.402344 -9.890625 47.308594 -16.375 C 63.210938 -22.863281 81.429688 -15.988281 89.078125 -0.609375 C 96.730469 14.769531 91.226563 33.445313 76.457031 42.214844 C 61.691406 50.988281 42.65625 46.886719 32.8125 32.8125 Z M 28.480469 24.105469 "/>
<path style=" stroke:none;fill-rule:nonzero;fill:rgb(0%,0%,0%);fill-opacity:1;" d="M 39.199219 19.511719 L 36.136719 22.617188 L 46.332031 32.8125 L 15.3125 32.8125 L 15.3125 37.1875 L 46.332031 37.1875 L 36.136719 47.382813 L 39.199219 50.488281 L 54.6875 35 Z M 39.199219 19.511719 "/>
</g>
</svg>
