<?xml version="1.0" encoding="UTF-8"?>
<svg xmlns="http://www.w3.org/2000/svg" xmlns:xlink="http://www.w3.org/1999/xlink" width="70pt" height="70pt" viewBox="0 0 70 70" version="1.1">
<defs>
<radialGradient id="radial0" gradientUnits="userSpaceOnUse" cx="17242.404" cy="-5618.193" fx="17242.404" fy="-5618.193" r="56.706" gradientTransform="matrix(0.583333,0,0,-0.583333,-10023.144444,-3242.283333)">
<stop offset="0.18" style="stop-color:rgb(36.862745%,62.745098%,93.72549%);stop-opacity:1;"/>
<stop offset="1" style="stop-color:rgb(0%,47.058824%,83.137255%);stop-opacity:1;"/>
</radialGradient>
<filter id="alpha" filterUnits="objectBoundingBox" x="0%" y="0%" width="100%" height="100%">
  <feColorMatrix type="matrix" in="SourceGraphic" values="0 0 0 0 1 0 0 0 0 1 0 0 0 0 1 0 0 0 1 0"/>
</filter>
<mask id="mask0">
  <g filter="url(#alpha)">
<rect x="0" y="0" width="70" height="70" style="fill:rgb(0%,0%,0%);fill-opacity:0.6;stroke:none;"/>
  </g>
</mask>
<clipPath id="clip1">
  <rect x="0" y="0" width="70" height="70"/>
</clipPath>
<g id="surface5" clip-path="url(#clip1)">
<path style=" stroke:none;fill-rule:nonzero;fill:rgb(100%,100%,100%);fill-opacity:1;" d="M 26.054688 28 C 35.390625 19.054688 47.832031 14 60.667969 14 C 59.109375 12.054688 57.167969 10.109375 54.832031 8.554688 C 48.609375 8.945313 42.390625 10.5 36.554688 12.832031 C 30.722656 15.554688 25.277344 19.054688 20.609375 23.722656 C 22.945313 24.5 24.890625 26.054688 26.054688 28 Z M 9.722656 41.222656 C 8.554688 44.722656 7.390625 47.832031 6.609375 51.332031 L 8.945313 54.832031 C 9.722656 55.609375 10.109375 56.390625 10.890625 57.167969 C 11.667969 52.5 13.222656 47.832031 15.167969 43.554688 C 13.222656 43.945313 11.277344 42.777344 9.722656 41.222656 Z M 9.722656 41.222656 "/>
</g>
<mask id="mask1">
  <g filter="url(#alpha)">
<rect x="0" y="0" width="70" height="70" style="fill:rgb(0%,0%,0%);fill-opacity:0.54902;stroke:none;"/>
  </g>
</mask>
<clipPath id="clip2">
  <rect x="0" y="0" width="70" height="70"/>
</clipPath>
<g id="surface8" clip-path="url(#clip2)">
<path style=" stroke:none;fill-rule:nonzero;fill:rgb(94.901961%,94.901961%,94.901961%);fill-opacity:1;" d="M 13.609375 23.722656 C 12.054688 20.222656 11.277344 16.332031 10.890625 12.445313 C 9.332031 14 7.777344 15.945313 6.609375 17.890625 C 7 21 7.777344 24.109375 8.554688 27.222656 C 10.109375 25.667969 11.667969 24.5 13.609375 23.722656 Z M 13.609375 23.722656 "/>
</g>
<linearGradient id="linear0" gradientUnits="userSpaceOnUse" x1="4.401" y1="8.52" x2="4.371" y2="12.47" gradientTransform="matrix(3.888889,0,0,-3.888889,0,77.777778)">
<stop offset="0" style="stop-color:rgb(80%,80%,80%);stop-opacity:1;"/>
<stop offset="1" style="stop-color:rgb(98.823529%,98.823529%,98.823529%);stop-opacity:1;"/>
</linearGradient>
<mask id="mask2">
  <g filter="url(#alpha)">
<rect x="0" y="0" width="70" height="70" style="fill:rgb(0%,0%,0%);fill-opacity:0.54902;stroke:none;"/>
  </g>
</mask>
<clipPath id="clip3">
  <rect x="0" y="0" width="70" height="70"/>
</clipPath>
<g id="surface11" clip-path="url(#clip3)">
<path style=" stroke:none;fill-rule:nonzero;fill:rgb(94.901961%,94.901961%,94.901961%);fill-opacity:1;" d="M 32.667969 53.277344 C 32.667969 51.332031 33.445313 49.777344 34.609375 48.222656 C 31.109375 46.277344 27.609375 43.945313 24.890625 40.832031 C 23.332031 42.777344 21.390625 43.945313 19.054688 44.332031 C 21 46.277344 22.554688 47.832031 24.5 49.390625 C 26.832031 51.332031 29.554688 52.890625 32.667969 54.445313 Z M 57.167969 54.054688 C 53.667969 54.054688 49.777344 53.667969 46.277344 52.890625 L 46.277344 53.277344 C 46.277344 55.222656 45.5 56.777344 44.332031 57.945313 C 48.609375 58.722656 53.277344 59.109375 57.554688 58.722656 C 59.109375 57.167969 60.667969 55.222656 62.222656 53.667969 C 60.667969 54.054688 58.722656 54.054688 57.167969 54.054688 Z M 57.167969 54.054688 "/>
</g>
<linearGradient id="linear1" gradientUnits="userSpaceOnUse" x1="10.13" y1="4.55" x2="10.13" y2="8.1" gradientTransform="matrix(3.888889,0,0,-3.888889,0,77.777778)">
<stop offset="0" style="stop-color:rgb(80%,80%,80%);stop-opacity:1;"/>
<stop offset="1" style="stop-color:rgb(98.823529%,98.823529%,98.823529%);stop-opacity:1;"/>
</linearGradient>
<mask id="mask3">
  <g filter="url(#alpha)">
<rect x="0" y="0" width="70" height="70" style="fill:rgb(0%,0%,0%);fill-opacity:0.701961;stroke:none;"/>
  </g>
</mask>
<clipPath id="clip4">
  <rect x="0" y="0" width="70" height="70"/>
</clipPath>
<g id="surface14" clip-path="url(#clip4)">
<path style=" stroke:none;fill-rule:nonzero;fill:rgb(94.901961%,94.901961%,94.901961%);fill-opacity:1;" d="M 47.832031 34.609375 C 48.222656 33.054688 49 31.890625 50.167969 30.722656 C 43.945313 26.054688 38.109375 20.609375 32.667969 14.777344 C 29.945313 11.277344 27.222656 7.390625 25.277344 3.5 C 23.722656 3.890625 22.167969 4.277344 21 5.054688 C 23.332031 9.332031 26.054688 13.609375 29.167969 17.5 C 34.609375 23.722656 40.832031 29.554688 47.832031 34.609375 Z M 47.832031 34.609375 "/>
</g>
<linearGradient id="linear2" gradientUnits="userSpaceOnUse" x1="14.18" y1="8.85" x2="14.18" y2="12.62" gradientTransform="matrix(3.888889,0,0,-3.888889,0,77.777778)">
<stop offset="0" style="stop-color:rgb(80%,80%,80%);stop-opacity:1;"/>
<stop offset="1" style="stop-color:rgb(98.823529%,98.823529%,98.823529%);stop-opacity:1;"/>
</linearGradient>
<mask id="mask4">
  <g filter="url(#alpha)">
<rect x="0" y="0" width="70" height="70" style="fill:rgb(0%,0%,0%);fill-opacity:0.54902;stroke:none;"/>
  </g>
</mask>
<clipPath id="clip5">
  <rect x="0" y="0" width="70" height="70"/>
</clipPath>
<g id="surface17" clip-path="url(#clip5)">
<path style=" stroke:none;fill-rule:nonzero;fill:rgb(94.901961%,94.901961%,94.901961%);fill-opacity:1;" d="M 67.667969 40.832031 L 66.109375 40.445313 L 64.945313 39.667969 L 64.554688 39.667969 L 63.777344 38.890625 L 63.390625 38.890625 L 62.222656 38.109375 C 61.832031 39.667969 61.054688 40.832031 59.890625 41.609375 C 60.277344 42 61.054688 42 61.445313 42.390625 L 61.832031 42.777344 L 63.390625 43.554688 L 66.890625 45.109375 C 66.890625 43.945313 66.890625 42.390625 67.667969 40.832031 Z M 67.667969 40.832031 "/>
</g>
<linearGradient id="linear3" gradientUnits="userSpaceOnUse" x1="4.401" y1="8.52" x2="4.371" y2="12.47" gradientTransform="matrix(3.888889,0,0,-3.888889,0,77.777778)">
<stop offset="0" style="stop-color:rgb(80%,80%,80%);stop-opacity:1;"/>
<stop offset="1" style="stop-color:rgb(98.823529%,98.823529%,98.823529%);stop-opacity:1;"/>
</linearGradient>
<linearGradient id="linear4" gradientUnits="userSpaceOnUse" x1="10.13" y1="4.55" x2="10.13" y2="8.1" gradientTransform="matrix(3.888889,0,0,-3.888889,0,77.777778)">
<stop offset="0" style="stop-color:rgb(80%,80%,80%);stop-opacity:1;"/>
<stop offset="1" style="stop-color:rgb(98.823529%,98.823529%,98.823529%);stop-opacity:1;"/>
</linearGradient>
</defs>
<g id="surface1">
<path style=" stroke:none;fill-rule:nonzero;fill:url(#radial0);" d="M 55.222656 61.054688 C 40.832031 72.332031 19.832031 69.609375 8.945313 55.222656 C -1.945313 40.832031 0.390625 20.222656 14.777344 8.945313 L 15.167969 8.554688 C 29.945313 -2.332031 50.554688 0.777344 61.445313 15.167969 C 71.945313 29.554688 69.222656 50.167969 55.222656 61.054688 "/>
<use xlink:href="#surface5" mask="url(#mask0)"/>
<use xlink:href="#surface8" mask="url(#mask1)"/>
<path style=" stroke:none;fill-rule:nonzero;fill:url(#linear0);" d="M 27.609375 33.832031 C 27.609375 39.632813 22.910156 44.332031 17.109375 44.332031 C 11.3125 44.332031 6.609375 39.632813 6.609375 33.832031 C 6.609375 28.035156 11.3125 23.332031 17.109375 23.332031 C 22.910156 23.332031 27.609375 28.035156 27.609375 33.832031 Z M 27.609375 33.832031 "/>
<use xlink:href="#surface11" mask="url(#mask2)"/>
<path style=" stroke:none;fill-rule:nonzero;fill:url(#linear1);" d="M 46.277344 53.277344 C 46.277344 57.144531 43.144531 60.277344 39.277344 60.277344 C 35.410156 60.277344 32.277344 57.144531 32.277344 53.277344 C 32.277344 49.410156 35.410156 46.277344 39.277344 46.277344 C 43.144531 46.277344 46.277344 49.410156 46.277344 53.277344 Z M 46.277344 53.277344 "/>
<use xlink:href="#surface14" mask="url(#mask3)"/>
<path style=" stroke:none;fill-rule:nonzero;fill:url(#linear2);" d="M 62.609375 36.167969 C 62.609375 40.246094 59.304688 43.554688 55.222656 43.554688 C 51.140625 43.554688 47.832031 40.246094 47.832031 36.167969 C 47.832031 32.085938 51.140625 28.777344 55.222656 28.777344 C 59.304688 28.777344 62.609375 32.085938 62.609375 36.167969 Z M 62.609375 36.167969 "/>
<use xlink:href="#surface17" mask="url(#mask4)"/>
<path style=" stroke:none;fill-rule:nonzero;fill:url(#linear3);" d="M 27.609375 33.832031 C 27.609375 39.632813 22.910156 44.332031 17.109375 44.332031 C 11.3125 44.332031 6.609375 39.632813 6.609375 33.832031 C 6.609375 28.035156 11.3125 23.332031 17.109375 23.332031 C 22.910156 23.332031 27.609375 28.035156 27.609375 33.832031 Z M 27.609375 33.832031 "/>
<path style=" stroke:none;fill-rule:nonzero;fill:url(#linear4);" d="M 46.277344 53.277344 C 46.277344 57.144531 43.144531 60.277344 39.277344 60.277344 C 35.410156 60.277344 32.277344 57.144531 32.277344 53.277344 C 32.277344 49.410156 35.410156 46.277344 39.277344 46.277344 C 43.144531 46.277344 46.277344 49.410156 46.277344 53.277344 Z M 46.277344 53.277344 "/>
</g>
</svg>
