<?xml version="1.0" encoding="UTF-8"?>
<svg xmlns="http://www.w3.org/2000/svg" xmlns:xlink="http://www.w3.org/1999/xlink" width="70pt" height="70pt" viewBox="0 0 70 70" version="1.1">
<defs>
<linearGradient id="linear0" gradientUnits="userSpaceOnUse" x1="0.5" y1="9.77" x2="9" y2="9.77" gradientTransform="matrix(3.888889,0,0,3.888889,0,0)">
<stop offset="0" style="stop-color:rgb(0%,35.686275%,63.137255%);stop-opacity:1;"/>
<stop offset="0.07" style="stop-color:rgb(0%,37.647059%,66.27451%);stop-opacity:1;"/>
<stop offset="0.36" style="stop-color:rgb(0%,44.313725%,78.431373%);stop-opacity:1;"/>
<stop offset="0.52" style="stop-color:rgb(0%,47.058824%,83.137255%);stop-opacity:1;"/>
<stop offset="0.64" style="stop-color:rgb(0%,45.490196%,80.392157%);stop-opacity:1;"/>
<stop offset="0.81" style="stop-color:rgb(0%,41.568627%,73.333333%);stop-opacity:1;"/>
<stop offset="0.99" style="stop-color:rgb(0%,35.686275%,63.137255%);stop-opacity:1;"/>
</linearGradient>
</defs>
<g id="surface1">
<path style=" stroke:none;fill-rule:nonzero;fill:rgb(0%,35.686275%,63.137255%);fill-opacity:1;" d="M 51.527344 40.753906 L 51.527344 25.550781 C 44.472656 25.65625 38.664063 20.023438 38.558594 12.96875 C 38.449219 5.914063 44.082031 0.105469 51.140625 0 L 35.582031 15.554688 L 19.40625 31.734375 L 19.40625 42.894531 L 66.382813 42.894531 C 54.539063 47.105469 41.523438 40.914063 37.3125 29.070313 C 33.105469 17.222656 39.292969 4.210938 51.140625 0 L 51.140625 25.550781 C 44.082031 25.65625 38.277344 20.023438 38.167969 12.96875 C 38.0625 5.914063 43.695313 0.105469 50.75 0 Z M 51.527344 40.753906 "/>
<path style=" stroke:none;fill-rule:nonzero;fill:url(#linear0);" d="M 18.472656 13.921875 C 9.332031 13.921875 1.945313 11.238281 1.945313 7.777344 L 1.945313 65.839844 C -16.238281 64.226563 -29.667969 48.183594 -28.058594 30.003906 C -26.449219 11.820313 -10.402344 -1.609375 7.777344 0 L 35 0 L 35 7.777344 C 35 11.238281 27.609375 13.921875 18.472656 13.921875 Z M 18.472656 13.921875 "/>
<path style=" stroke:none;fill-rule:nonzero;fill:rgb(100%,100%,100%);fill-opacity:1;" d="M 51.292969 50.4375 L 57.945313 50.4375 C 58.546875 50.4375 59.035156 50.925781 59.035156 51.527344 L 59.035156 58.179688 C 59.035156 58.777344 58.546875 59.265625 57.945313 59.265625 L 51.292969 59.265625 C 50.691406 59.265625 50.207031 58.777344 50.207031 58.179688 L 50.207031 51.527344 C 50.207031 50.925781 50.691406 50.4375 51.292969 50.4375 Z M 51.292969 50.4375 "/>
<path style=" stroke:none;fill-rule:nonzero;fill:rgb(100%,100%,100%);fill-opacity:1;" d="M 35.972656 50.4375 L 42.621094 50.4375 C 43.222656 50.4375 43.710938 50.925781 43.710938 51.527344 L 43.710938 58.179688 C 43.710938 58.777344 43.222656 59.265625 42.621094 59.265625 L 35.972656 59.265625 C 35.371094 59.265625 34.882813 58.777344 34.882813 58.179688 L 34.882813 51.527344 C 34.882813 50.925781 35.371094 50.4375 35.972656 50.4375 Z M 35.972656 50.4375 "/>
<path style=" stroke:none;fill-rule:nonzero;fill:rgb(100%,100%,100%);fill-opacity:1;" d="M 20.648438 50.4375 L 27.300781 50.4375 C 27.902344 50.4375 28.390625 50.925781 28.390625 51.527344 L 28.390625 58.179688 C 28.390625 58.777344 27.902344 59.265625 27.300781 59.265625 L 20.648438 59.265625 C 20.046875 59.265625 19.5625 58.777344 19.5625 58.179688 L 19.5625 51.527344 C 19.5625 50.925781 20.046875 50.4375 20.648438 50.4375 Z M 20.648438 50.4375 "/>
<path style=" stroke:none;fill-rule:nonzero;fill:rgb(91.764706%,91.764706%,91.764706%);fill-opacity:1;" d="M 35 7.777344 C 35 11.082031 27.609375 13.765625 18.472656 13.765625 C 9.332031 13.765625 1.945313 11.238281 1.945313 7.777344 C 1.945313 4.316406 9.332031 1.945313 18.472656 1.945313 C 27.609375 1.945313 35 4.628906 35 7.777344 "/>
<path style=" stroke:none;fill-rule:nonzero;fill:rgb(31.372549%,90.196078%,100%);fill-opacity:1;" d="M 31.109375 7.429688 C 31.109375 9.566406 25.433594 11.316406 18.433594 11.316406 C 11.433594 11.316406 5.753906 9.644531 5.753906 7.429688 C 5.753906 5.210938 11.667969 3.65625 18.472656 3.65625 C 25.277344 3.65625 31.109375 5.328125 31.109375 7.429688 "/>
<path style=" stroke:none;fill-rule:nonzero;fill:rgb(9.803922%,54.117647%,70.196078%);fill-opacity:1;" d="M 18.472656 8.320313 C 23.914063 17.355469 24.453125 28.515625 19.910156 38.035156 L 49.621094 38.035156 C 68.070313 40.589844 83.027344 40.417969 83.027344 37.648438 C 83.027344 34.878906 68.070313 30.558594 49.621094 28 Z M 18.472656 8.320313 "/>
</g>
</svg>
