<?xml version="1.0" encoding="UTF-8"?>
<svg xmlns="http://www.w3.org/2000/svg" xmlns:xlink="http://www.w3.org/1999/xlink" width="70pt" height="70pt" viewBox="0 0 70 70" version="1.1">
<defs>
<linearGradient id="linear0" gradientUnits="userSpaceOnUse" x1="8.59" y1="-7.79" x2="9.12" y2="20.05" gradientTransform="matrix(3.888889,0,0,3.888889,0,0)">
<stop offset="0.22" style="stop-color:rgb(19.607843%,83.137255%,96.078431%);stop-opacity:1;"/>
<stop offset="1" style="stop-color:rgb(9.803922%,54.117647%,70.196078%);stop-opacity:1;"/>
</linearGradient>
<filter id="alpha" filterUnits="objectBoundingBox" x="0%" y="0%" width="100%" height="100%">
  <feColorMatrix type="matrix" in="SourceGraphic" values="0 0 0 0 1 0 0 0 0 1 0 0 0 0 1 0 0 0 1 0"/>
</filter>
<mask id="mask0">
  <g filter="url(#alpha)">
<rect x="0" y="0" width="70" height="70" style="fill:rgb(0%,0%,0%);fill-opacity:0.2;stroke:none;"/>
  </g>
</mask>
<clipPath id="clip1">
  <rect x="0" y="0" width="70" height="70"/>
</clipPath>
<g id="surface5" clip-path="url(#clip1)">
<path style=" stroke:none;fill-rule:nonzero;fill:rgb(100%,100%,100%);fill-opacity:1;" d="M 11.433594 33.714844 L 58.722656 33.714844 C 49.410156 49.933594 28.71875 55.53125 12.503906 46.21875 C -3.714844 36.910156 -9.3125 16.214844 0 0 L -50.789063 35 C -60.453125 35.558594 -68.742188 28.175781 -69.300781 18.511719 C -69.859375 8.847656 -62.476563 0.558594 -52.8125 0 L -52.8125 -31.109375 C -44.21875 -31.109375 -37.253906 -24.148438 -37.253906 -15.554688 C -37.253906 -6.964844 -44.21875 0 -52.8125 0 Z M 11.433594 33.714844 "/>
</g>
<linearGradient id="linear1" gradientUnits="userSpaceOnUse" x1="6.16" y1="14.55" x2="5.73" y2="12.09" gradientTransform="matrix(3.888889,0,0,3.888889,0,0)">
<stop offset="0" style="stop-color:rgb(80%,80%,80%);stop-opacity:1;"/>
<stop offset="1" style="stop-color:rgb(98.823529%,98.823529%,98.823529%);stop-opacity:1;"/>
</linearGradient>
<linearGradient id="linear2" gradientUnits="userSpaceOnUse" x1="11.73" y1="11.87" x2="11.3" y2="9.41" gradientTransform="matrix(3.888889,0,0,3.888889,0,0)">
<stop offset="0" style="stop-color:rgb(80%,80%,80%);stop-opacity:1;"/>
<stop offset="1" style="stop-color:rgb(98.823529%,98.823529%,98.823529%);stop-opacity:1;"/>
</linearGradient>
<linearGradient id="linear3" gradientUnits="userSpaceOnUse" x1="11.73" y1="17.34" x2="11.3" y2="14.88" gradientTransform="matrix(3.888889,0,0,3.888889,0,0)">
<stop offset="0" style="stop-color:rgb(80%,80%,80%);stop-opacity:1;"/>
<stop offset="1" style="stop-color:rgb(98.823529%,98.823529%,98.823529%);stop-opacity:1;"/>
</linearGradient>
</defs>
<g id="surface1">
<path style=" stroke:none;fill-rule:nonzero;fill:url(#linear0);" d="M 58.566406 33.714844 L 54.679688 33.714844 L 54.679688 21.738281 C 45.425781 18.558594 39.273438 9.78125 39.433594 0 C 46.527344 5.007813 49.21875 14.25 45.929688 22.285156 L 45.929688 34.261719 L 42.777344 34.261719 C 39.46875 33.519531 37.390625 30.238281 38.128906 26.929688 C 38.871094 23.621094 42.152344 21.542969 45.460938 22.285156 L 45.460938 53.394531 C 36.871094 53.394531 29.90625 46.429688 29.90625 37.839844 C 29.90625 29.246094 36.871094 22.285156 45.460938 22.285156 L 92.710938 22.285156 C 92.710938 35.332031 82.132813 45.910156 69.085938 45.910156 C 56.039063 45.910156 45.460938 35.332031 45.460938 22.285156 L 45.460938 -8.828125 C 54.050781 -8.085938 60.414063 -0.523438 59.675781 8.070313 C 58.933594 16.660156 51.367188 23.023438 42.777344 22.285156 Z M 45.460938 33.714844 L 23.839844 33.714844 L 23.839844 21.542969 C 19.828125 16.367188 20.554688 8.957031 25.488281 4.65625 C 30.425781 0.351563 37.863281 0.640625 42.449219 5.316406 C 47.035156 9.992188 47.179688 17.433594 42.777344 22.285156 C 42.84375 16.921875 47.21875 12.617188 52.578125 12.640625 C 57.9375 12.660156 62.277344 17 62.300781 22.363281 C 62.320313 27.722656 58.015625 32.097656 52.65625 32.160156 L 52.65625 37.292969 C 53.3125 24.515625 55.332031 14.160156 57.167969 14.160156 C 59.003906 14.160156 59.960938 24.515625 59.304688 37.292969 Z M 45.460938 33.714844 "/>
<path style=" stroke:none;fill-rule:nonzero;fill:rgb(31.372549%,90.196078%,100%);fill-opacity:1;" d="M 58.683594 33.714844 L 11.355469 33.714844 C 2.046875 33.535156 -5.355469 25.839844 -5.171875 16.527344 C -4.988281 7.21875 2.707031 -0.183594 12.015625 0 L 62.765625 35 C 53.101563 49.015625 33.90625 52.539063 19.890625 42.875 C 5.878906 33.210938 2.351563 14.015625 12.015625 0 L 12.015625 -31.109375 C 20.609375 -30.414063 27.007813 -22.882813 26.308594 -14.292969 C 25.609375 -5.699219 18.078125 0.699219 9.488281 0 Z M 58.683594 33.714844 "/>
<use xlink:href="#surface5" mask="url(#mask0)"/>
<path style=" stroke:none;fill-rule:nonzero;fill:rgb(9.803922%,54.117647%,70.196078%);fill-opacity:1;" d="M 44.410156 63.777344 L 20.222656 51.722656 L 44.410156 39.785156 L 45.5 42.039063 L 25.859375 51.722656 L 45.5 61.5625 Z M 44.410156 63.777344 "/>
<path style=" stroke:none;fill-rule:nonzero;fill:url(#linear1);" d="M 27.960938 51.800781 C 27.960938 54.484375 25.785156 56.660156 23.101563 56.660156 C 20.414063 56.660156 18.238281 54.484375 18.238281 51.800781 C 18.238281 49.117188 20.414063 46.9375 23.101563 46.9375 C 25.785156 46.9375 27.960938 49.117188 27.960938 51.800781 Z M 27.960938 51.800781 "/>
<path style=" stroke:none;fill-rule:nonzero;fill:url(#linear2);" d="M 49.621094 41.378906 C 49.621094 44.0625 47.445313 46.238281 44.761719 46.238281 C 42.078125 46.238281 39.898438 44.0625 39.898438 41.378906 C 39.898438 38.691406 42.078125 36.515625 44.761719 36.515625 C 47.445313 36.515625 49.621094 38.691406 49.621094 41.378906 Z M 49.621094 41.378906 "/>
<path style=" stroke:none;fill-rule:nonzero;fill:url(#linear3);" d="M 49.621094 62.648438 C 49.621094 65.335938 47.445313 67.511719 44.761719 67.511719 C 42.078125 67.511719 39.898438 65.335938 39.898438 62.648438 C 39.898438 59.964844 42.078125 57.789063 44.761719 57.789063 C 47.445313 57.789063 49.621094 59.964844 49.621094 62.648438 Z M 49.621094 62.648438 "/>
</g>
</svg>
