<?xml version="1.0" encoding="UTF-8"?>
<svg xmlns="http://www.w3.org/2000/svg" xmlns:xlink="http://www.w3.org/1999/xlink" width="70pt" height="70pt" viewBox="0 0 70 70" version="1.1">
<defs>
<linearGradient id="linear0" gradientUnits="userSpaceOnUse" x1="8.67" y1="8.09" x2="8.67" y2="20.18" gradientTransform="matrix(3.888889,0,0,3.888889,0,0)">
<stop offset="0.22" style="stop-color:rgb(19.607843%,83.137255%,96.078431%);stop-opacity:1;"/>
<stop offset="1" style="stop-color:rgb(9.803922%,54.117647%,70.196078%);stop-opacity:1;"/>
</linearGradient>
<filter id="alpha" filterUnits="objectBoundingBox" x="0%" y="0%" width="100%" height="100%">
  <feColorMatrix type="matrix" in="SourceGraphic" values="0 0 0 0 1 0 0 0 0 1 0 0 0 0 1 0 0 0 1 0"/>
</filter>
<mask id="mask0">
  <g filter="url(#alpha)">
<rect x="0" y="0" width="70" height="70" style="fill:rgb(0%,0%,0%);fill-opacity:0.8;stroke:none;"/>
  </g>
</mask>
<clipPath id="clip1">
  <rect x="0" y="0" width="70" height="70"/>
</clipPath>
<g id="surface5" clip-path="url(#clip1)">
<path style=" stroke:none;fill-rule:nonzero;fill:rgb(100%,100%,100%);fill-opacity:1;" d="M 33.753906 39.394531 C 22.878906 40.09375 13.492188 31.839844 12.792969 20.960938 C 12.097656 10.082031 20.347656 0.699219 31.226563 0 L 39.746094 22.246094 L 48.222656 0.15625 C 39.667969 0.0742188 32.710938 -6.753906 32.472656 -15.304688 C 32.230469 -23.851563 38.796875 -31.0625 47.328125 -31.621094 C 55.863281 -32.179688 63.3125 -25.890625 64.191406 -17.382813 C 65.070313 -8.875 59.0625 -1.195313 50.59375 0 Z M 33.753906 39.394531 "/>
</g>
<linearGradient id="linear1" gradientUnits="userSpaceOnUse" x1="8.33" y1="1.61" x2="9.21" y2="12.59" gradientTransform="matrix(3.888889,0,0,3.888889,0,0)">
<stop offset="0.22" style="stop-color:rgb(19.607843%,83.137255%,96.078431%);stop-opacity:1;"/>
<stop offset="1" style="stop-color:rgb(9.803922%,54.117647%,70.196078%);stop-opacity:1;"/>
</linearGradient>
</defs>
<g id="surface1">
<path style=" stroke:none;fill-rule:nonzero;fill:url(#linear0);" d="M 56.972656 70 C 37.640625 85.734375 9.21875 82.816406 -6.515625 63.484375 C -22.246094 44.15625 -19.328125 15.734375 0 0 L 0 -0.621094 C -1.984375 -16.449219 -11.042969 -29.320313 -28.273438 -29.320313 C -45.5 -29.320313 7.195313 46.667969 5.445313 64.398438 C -12.339844 74 -34.539063 67.367188 -44.140625 49.582031 C -53.738281 31.800781 -47.105469 9.601563 -29.320313 0 L 17.695313 0 Z M 56.972656 70 "/>
<use xlink:href="#surface5" mask="url(#mask0)"/>
<path style=" stroke:none;fill-rule:nonzero;fill:url(#linear1);" d="M 49.621094 23.527344 C 49.621094 32.289063 42.519531 39.394531 33.753906 39.394531 C 24.992188 39.394531 17.890625 32.289063 17.890625 23.527344 C 17.890625 14.765625 24.992188 7.660156 33.753906 7.660156 C 42.519531 7.660156 49.621094 14.765625 49.621094 23.527344 Z M 49.621094 23.527344 "/>
<path style=" stroke:none;fill-rule:nonzero;fill:rgb(46.27451%,46.27451%,46.27451%);fill-opacity:1;" d="M 57.554688 28.117188 C 48.226563 22.101563 44.148438 10.535156 47.640625 0 C 51.367188 -0.183594 55.082031 0.609375 58.410156 2.292969 L 60.511719 2.292969 C 77.117188 6.871094 102.960938 8.585938 118.230469 6.125 C 133.5 3.667969 132.417969 -2.035156 115.8125 -6.609375 C 116.554688 -6.859375 117.359375 -6.859375 118.105469 -6.609375 L 117.054688 -3.109375 C 115.851563 -1.976563 114.035156 -1.792969 112.628906 -2.660156 C 111.21875 -3.53125 110.570313 -5.238281 111.046875 -6.820313 C 111.523438 -8.40625 113.003906 -9.472656 114.65625 -9.425781 C 116.3125 -9.375 117.726563 -8.222656 118.105469 -6.609375 L 119.15625 -10.109375 C 119.117188 -8.238281 117.640625 -6.710938 115.773438 -6.609375 Z M 57.554688 28.117188 "/>
</g>
</svg>
