<?xml version="1.0" encoding="UTF-8"?>
<svg xmlns="http://www.w3.org/2000/svg" xmlns:xlink="http://www.w3.org/1999/xlink" width="70pt" height="70pt" viewBox="0 0 70 70" version="1.1">
<defs>
<linearGradient id="linear0" gradientUnits="userSpaceOnUse" x1="9" y1="13.5" x2="9" y2="0.74" gradientTransform="matrix(3.888889,0,0,3.888889,0,0)">
<stop offset="0" style="stop-color:rgb(0%,47.058824%,83.137255%);stop-opacity:1;"/>
<stop offset="0.16" style="stop-color:rgb(7.45098%,50.196078%,85.490196%);stop-opacity:1;"/>
<stop offset="0.53" style="stop-color:rgb(23.529412%,56.862745%,89.803922%);stop-opacity:1;"/>
<stop offset="0.82" style="stop-color:rgb(33.333333%,61.176471%,92.54902%);stop-opacity:1;"/>
<stop offset="1" style="stop-color:rgb(36.862745%,62.745098%,93.72549%);stop-opacity:1;"/>
</linearGradient>
</defs>
<g id="surface1">
<path style=" stroke:none;fill-rule:nonzero;fill:url(#linear0);" d="M 70 36.945313 C 59.796875 41.121094 48.140625 36.238281 43.964844 26.035156 C 39.785156 15.835938 44.671875 4.175781 54.871094 0 C 59.167969 -1.480469 63.835938 -1.480469 68.132813 0 L 101.773438 0 C 97.371094 4.402344 97.371094 11.542969 101.773438 15.945313 C 106.175781 20.347656 113.3125 20.347656 117.714844 15.945313 Z M 70 36.945313 "/>
<path style=" stroke:none;fill-rule:nonzero;fill:rgb(9.803922%,54.117647%,70.196078%);fill-opacity:1;" d="M 37.0625 63.621094 L 51.253906 63.621094 C 51.898438 63.621094 52.421875 64.144531 52.421875 64.789063 L 52.421875 65.957031 C 52.421875 66.601563 51.898438 67.121094 51.253906 67.121094 L 37.0625 67.121094 C 36.417969 67.121094 35.894531 66.601563 35.894531 65.957031 L 35.894531 64.789063 C 35.894531 64.144531 36.417969 63.621094 37.0625 63.621094 Z M 37.0625 63.621094 "/>
<path style=" stroke:none;fill-rule:nonzero;fill:rgb(19.607843%,74.509804%,86.666667%);fill-opacity:1;" d="M 37.0625 56.195313 L 51.253906 56.195313 C 51.898438 56.195313 52.421875 56.714844 52.421875 57.359375 L 52.421875 58.527344 C 52.421875 59.171875 51.898438 59.695313 51.253906 59.695313 L 37.0625 59.695313 C 36.417969 59.695313 35.894531 59.171875 35.894531 58.527344 L 35.894531 57.359375 C 35.894531 56.714844 36.417969 56.195313 37.0625 56.195313 Z M 37.0625 56.195313 "/>
<path style=" stroke:none;fill-rule:nonzero;fill:rgb(31.372549%,90.196078%,100%);fill-opacity:1;" d="M 37.0625 48.804688 L 51.253906 48.804688 C 51.898438 48.804688 52.421875 49.328125 52.421875 49.972656 L 52.421875 51.140625 C 52.421875 51.785156 51.898438 52.304688 51.253906 52.304688 L 37.0625 52.304688 C 36.417969 52.304688 35.894531 51.785156 35.894531 51.140625 L 35.894531 49.972656 C 35.894531 49.328125 36.417969 48.804688 37.0625 48.804688 Z M 37.0625 48.804688 "/>
<path style=" stroke:none;fill-rule:nonzero;fill:rgb(94.901961%,94.901961%,94.901961%);fill-opacity:1;" d="M 20.417969 30.332031 L 34.609375 30.332031 C 35.253906 30.332031 35.777344 30.855469 35.777344 31.5 L 35.777344 32.667969 C 35.777344 33.3125 35.253906 33.832031 34.609375 33.832031 L 20.417969 33.832031 C 19.773438 33.832031 19.25 33.3125 19.25 32.667969 L 19.25 31.5 C 19.25 30.855469 19.773438 30.332031 20.417969 30.332031 Z M 20.417969 30.332031 "/>
<path style=" stroke:none;fill-rule:nonzero;fill:rgb(94.901961%,94.901961%,94.901961%);fill-opacity:1;" d="M 20.417969 37.140625 L 34.609375 37.140625 C 35.253906 37.140625 35.777344 37.660156 35.777344 38.304688 L 35.777344 39.472656 C 35.777344 40.117188 35.253906 40.640625 34.609375 40.640625 L 20.417969 40.640625 C 19.773438 40.640625 19.25 40.117188 19.25 39.472656 L 19.25 38.304688 C 19.25 37.660156 19.773438 37.140625 20.417969 37.140625 Z M 20.417969 37.140625 "/>
<path style=" stroke:none;fill-rule:nonzero;fill:rgb(94.901961%,94.901961%,94.901961%);fill-opacity:1;" d="M 20.417969 43.984375 L 34.609375 43.984375 C 35.253906 43.984375 35.777344 44.503906 35.777344 45.148438 L 35.777344 46.316406 C 35.777344 46.960938 35.253906 47.484375 34.609375 47.484375 L 20.417969 47.484375 C 19.773438 47.484375 19.25 46.960938 19.25 46.316406 L 19.25 45.148438 C 19.25 44.503906 19.773438 43.984375 20.417969 43.984375 Z M 20.417969 43.984375 "/>
</g>
</svg>
