<?xml version="1.0" encoding="UTF-8"?>
<svg xmlns="http://www.w3.org/2000/svg" xmlns:xlink="http://www.w3.org/1999/xlink" width="70pt" height="70pt" viewBox="0 0 70 70" version="1.1">
<defs>
<linearGradient id="linear0" gradientUnits="userSpaceOnUse" x1="8.67" y1="17.54" x2="8.67" y2="-1.19" gradientTransform="matrix(3.888889,0,0,3.888889,0,0)">
<stop offset="0" style="stop-color:rgb(0%,47.058824%,83.137255%);stop-opacity:1;"/>
<stop offset="0.16" style="stop-color:rgb(7.45098%,50.196078%,85.490196%);stop-opacity:1;"/>
<stop offset="0.53" style="stop-color:rgb(23.529412%,56.862745%,89.803922%);stop-opacity:1;"/>
<stop offset="0.82" style="stop-color:rgb(33.333333%,61.176471%,92.54902%);stop-opacity:1;"/>
<stop offset="1" style="stop-color:rgb(36.862745%,62.745098%,93.72549%);stop-opacity:1;"/>
</linearGradient>
<linearGradient id="linear1" gradientUnits="userSpaceOnUse" x1="12.96" y1="10.5" x2="12.96" y2="12.92" gradientTransform="matrix(3.888889,0,0,3.888889,0,0)">
<stop offset="0" style="stop-color:rgb(20%,19.215686%,19.607843%);stop-opacity:1;"/>
<stop offset="1" style="stop-color:rgb(35.686275%,35.294118%,36.078431%);stop-opacity:1;"/>
</linearGradient>
</defs>
<g id="surface1">
<path style=" stroke:none;fill-rule:nonzero;fill:url(#linear0);" d="M 63.078125 28.933594 C 55.089844 46.351563 34.492188 53.996094 17.070313 46.003906 C -0.347656 38.015625 -7.988281 17.417969 0 0 C 0.351563 10.472656 -7.808594 19.273438 -18.277344 19.714844 L 15.011719 19.714844 C 14.492188 13.21875 18.082031 7.089844 24 4.359375 C 29.917969 1.628906 36.910156 2.875 41.515625 7.484375 C 46.125 12.089844 47.371094 19.082031 44.640625 25 C 41.910156 30.917969 35.78125 34.507813 29.285156 33.988281 "/>
<path style=" stroke:none;fill-rule:nonzero;fill:rgb(46.27451%,46.27451%,46.27451%);fill-opacity:1;" d="M 39.160156 24.1875 L 39.199219 40.832031 L 69.960938 47.367188 L 69.960938 35.777344 Z M 39.160156 24.1875 "/>
<path style=" stroke:none;fill-rule:nonzero;fill:rgb(60%,60%,60%);fill-opacity:1;" d="M 39.160156 24.1875 L 30.839844 29.246094 L 30.839844 44.722656 L 39.199219 40.832031 "/>
<path style=" stroke:none;fill-rule:nonzero;fill:rgb(63.921569%,63.921569%,63.921569%);fill-opacity:1;" d="M 53.199219 41.066406 L 56 41.84375 L 56 32.785156 L 53.199219 31.8125 Z M 50.398438 30.917969 L 47.601563 29.90625 L 47.601563 39.589844 L 50.398438 40.367188 Z M 58.800781 42.582031 L 61.523438 43.320313 L 61.601563 34.6875 L 58.800781 33.753906 Z M 42.039063 38.148438 L 44.839844 38.851563 L 44.839844 29.011719 L 42.039063 28.078125 Z M 67.160156 36.59375 L 64.359375 35.621094 L 64.359375 44.0625 L 67.160156 44.839844 Z M 67.160156 36.59375 "/>
<path style=" stroke:none;fill-rule:nonzero;fill:rgb(70.196078%,70.196078%,70.196078%);fill-opacity:1;" d="M 33.679688 40.5625 L 32.277344 41.378906 L 32.277344 30.371094 L 33.679688 29.632813 Z M 36.4375 28.039063 L 35 28.972656 L 35 39.667969 L 36.4375 38.890625 Z M 36.4375 28.039063 "/>
<path style=" stroke:none;fill-rule:nonzero;fill:url(#linear1);" d="M 69.960938 47.367188 L 61.5625 50.246094 L 30.839844 44.722656 L 39.199219 40.832031 Z M 69.960938 47.367188 "/>
<path style=" stroke:none;fill-rule:nonzero;fill:rgb(46.27451%,46.27451%,46.27451%);fill-opacity:1;" d="M 69.960938 59.226563 L 39.042969 65.101563 L 39.199219 43.359375 L 69.960938 49.078125 Z M 69.960938 59.226563 "/>
<path style=" stroke:none;fill-rule:nonzero;fill:rgb(63.921569%,63.921569%,63.921569%);fill-opacity:1;" d="M 42.039063 61.523438 L 42.039063 47.714844 L 44.839844 48.066406 L 44.839844 61.054688 Z M 50.398438 60.121094 L 47.601563 60.628906 L 47.601563 48.417969 L 50.398438 48.84375 Z M 53.199219 59.695313 L 53.199219 49.117188 L 56 49.464844 L 56 59.1875 Z M 61.5625 58.214844 L 58.800781 58.722656 L 58.800781 49.816406 L 61.5625 50.246094 Z M 67.238281 57.320313 L 64.359375 57.828125 L 64.359375 50.515625 L 67.042969 50.867188 Z M 67.238281 57.320313 "/>
<path style=" stroke:none;fill-rule:nonzero;fill:rgb(60%,60%,60%);fill-opacity:1;" d="M 30.839844 60.121094 L 30.839844 47.445313 L 39.238281 43.554688 L 39.238281 65.332031 Z M 30.839844 60.121094 "/>
<path style=" stroke:none;fill-rule:nonzero;fill:rgb(70.196078%,70.196078%,70.196078%);fill-opacity:1;" d="M 33.484375 60.082031 L 32.238281 59.460938 L 32.238281 48.726563 L 33.484375 48.144531 Z M 36.476563 46.667969 L 35 47.40625 L 35 60.9375 L 36.4375 61.679688 L 36.4375 46.667969 Z M 36.476563 46.667969 "/>
</g>
</svg>
