<?xml version="1.0" encoding="UTF-8"?>
<svg xmlns="http://www.w3.org/2000/svg" xmlns:xlink="http://www.w3.org/1999/xlink" width="70pt" height="70pt" viewBox="0 0 70 70" version="1.1">
<defs>
<linearGradient id="linear0" gradientUnits="userSpaceOnUse" x1="10.79" y1="2.17" x2="10.79" y2="16.56" gradientTransform="matrix(3.888889,0,0,3.888889,0,0)">
<stop offset="0.18" style="stop-color:rgb(36.862745%,62.745098%,93.72549%);stop-opacity:1;"/>
<stop offset="1" style="stop-color:rgb(0%,47.058824%,83.137255%);stop-opacity:1;"/>
</linearGradient>
</defs>
<g id="surface1">
<path style=" stroke:none;fill-rule:nonzero;fill:rgb(70.196078%,70.196078%,70.196078%);fill-opacity:1;" d="M 6.457031 31.851563 L 6.457031 31.304688 C 6.457031 30.1875 7.359375 29.285156 8.476563 29.285156 L 24.890625 29.285156 C 26.003906 29.285156 26.910156 30.1875 26.910156 31.304688 L 26.910156 31.851563 C 26.910156 32.96875 26.003906 33.871094 24.890625 33.871094 L 8.476563 33.871094 C 7.359375 33.871094 6.457031 32.96875 6.457031 31.851563 Z M 6.457031 31.851563 "/>
<path style=" stroke:none;fill-rule:nonzero;fill:rgb(63.921569%,63.921569%,63.921569%);fill-opacity:1;" d="M 0 41.144531 L 0 40.601563 C 0 39.484375 0.90625 38.578125 2.023438 38.578125 L 18.433594 38.578125 C 19.550781 38.578125 20.457031 39.484375 20.457031 40.601563 L 20.457031 41.144531 C 20.457031 42.261719 19.550781 43.167969 18.433594 43.167969 L 2.023438 43.167969 C 0.90625 43.167969 0 42.261719 0 41.144531 Z M 0 41.144531 "/>
<path style=" stroke:none;fill-rule:nonzero;fill:rgb(47.843137%,47.843137%,47.843137%);fill-opacity:1;" d="M 6.457031 50.4375 L 6.457031 49.894531 C 6.457031 48.777344 7.359375 47.871094 8.476563 47.871094 L 24.890625 47.871094 C 26.003906 47.871094 26.910156 48.777344 26.910156 49.894531 L 26.910156 50.4375 C 26.910156 51.554688 26.003906 52.460938 24.890625 52.460938 L 8.476563 52.460938 C 7.359375 52.460938 6.457031 51.554688 6.457031 50.4375 Z M 6.457031 50.4375 "/>
<path style=" stroke:none;fill-rule:nonzero;fill:url(#linear0);" d="M 70 42.777344 C 71.03125 46.617188 70.210938 50.714844 67.785156 53.867188 C 65.363281 57.015625 61.609375 58.851563 57.632813 58.839844 L 74.082031 75.289063 L 89.210938 75.289063 L 89.210938 91.078125 L 116.859375 91.078125 C 116.859375 98.714844 110.671875 104.902344 103.035156 104.902344 C 95.402344 104.902344 89.210938 98.714844 89.210938 91.078125 Z M 70 42.777344 "/>
</g>
</svg>
