<?xml version="1.0" encoding="UTF-8"?>
<svg xmlns="http://www.w3.org/2000/svg" xmlns:xlink="http://www.w3.org/1999/xlink" width="70pt" height="70pt" viewBox="0 0 70 70" version="1.1">
<defs>
<linearGradient id="linear0" gradientUnits="userSpaceOnUse" x1="5.77" y1="7.08" x2="5.88" y2="17.58" gradientTransform="matrix(3.888889,0,0,3.888889,0,0)">
<stop offset="0" style="stop-color:rgb(19.607843%,83.137255%,96.078431%);stop-opacity:1;"/>
<stop offset="0.32" style="stop-color:rgb(19.215686%,81.960784%,95.294118%);stop-opacity:1;"/>
<stop offset="0.53" style="stop-color:rgb(18.039216%,78.823529%,92.156863%);stop-opacity:1;"/>
<stop offset="0.7" style="stop-color:rgb(16.078431%,72.941176%,87.058824%);stop-opacity:1;"/>
<stop offset="0.86" style="stop-color:rgb(13.333333%,64.705882%,79.607843%);stop-opacity:1;"/>
<stop offset="1" style="stop-color:rgb(9.803922%,54.117647%,70.196078%);stop-opacity:1;"/>
<stop offset="1" style="stop-color:rgb(9.803922%,54.117647%,70.196078%);stop-opacity:1;"/>
</linearGradient>
</defs>
<g id="surface1">
<path style=" stroke:none;fill-rule:nonzero;fill:rgb(94.901961%,94.901961%,94.901961%);fill-opacity:1;" d="M 58.644531 45.304688 C 46.132813 55.914063 27.390625 54.375 16.78125 41.863281 C 6.171875 29.351563 7.710938 10.609375 20.222656 0 L 20.496094 -0.195313 C 31.445313 -7.902344 46.566406 -5.300781 54.3125 5.621094 C 62.058594 16.542969 59.507813 31.675781 48.613281 39.457031 C 37.714844 47.242188 22.578125 44.746094 14.753906 33.875 C 6.933594 23.007813 9.378906 7.859375 20.222656 0 "/>
<path style=" stroke:none;fill-rule:nonzero;fill:rgb(0%,47.058824%,83.137255%);fill-opacity:1;" d="M 63.15625 11.433594 C 60.601563 8.097656 58.953125 4.160156 58.371094 0 L 58.101563 0.195313 C 47.132813 7.914063 31.988281 5.308594 24.226563 -5.628906 C 16.46875 -16.570313 19.023438 -31.726563 29.9375 -39.523438 C 40.851563 -47.316406 56.015625 -44.816406 63.847656 -33.929688 C 71.679688 -23.042969 69.234375 -7.871094 58.371094 0 C 58.628906 -13.105469 69.371094 -23.570313 82.480469 -23.484375 C 95.585938 -23.398438 106.191406 -12.792969 106.277344 0.3125 C 106.363281 13.421875 95.898438 24.164063 82.792969 24.421875 Z M 22.59375 24.539063 C 22.5625 7.914063 36.011719 -5.585938 52.636719 -5.621094 C 69.261719 -5.652344 82.761719 7.796875 82.792969 24.421875 L 88.667969 24.421875 C 91.421875 24.148438 94.195313 24.148438 96.949219 24.421875 Z M 34.261719 16.253906 L 42.351563 16.253906 L 42.351563 24.539063 L 32.859375 24.539063 C 24.34375 9.160156 27.964844 -10.097656 41.484375 -21.335938 C 55.003906 -32.570313 74.601563 -32.605469 88.160156 -21.421875 C 101.71875 -10.234375 105.410156 9.015625 96.949219 24.421875 Z M 45.460938 16.253906 L 53.550781 16.253906 C 42.984375 4.613281 41.03125 -12.476563 48.707031 -26.199219 C 56.378906 -39.921875 71.960938 -47.210938 87.414063 -44.304688 C 102.867188 -41.394531 114.734375 -28.941406 116.894531 -13.371094 C 119.054688 2.203125 111.027344 17.417969 96.949219 24.421875 L 87.617188 24.421875 Z M 42.351563 27.648438 L 42.351563 35.894531 L 34.105469 35.894531 C 41.726563 52.71875 35.347656 72.582031 19.359375 81.828125 C 3.367188 91.074219 -17.027344 86.6875 -27.808594 71.6875 C -38.585938 56.691406 -36.238281 35.960938 -22.375 23.753906 C -8.515625 11.546875 12.34375 11.835938 25.859375 24.421875 Z M 45.460938 27.648438 L 54.792969 27.648438 C 36.398438 32.339844 17.527344 21.910156 11.710938 3.839844 C 5.894531 -14.230469 15.136719 -33.707031 32.816406 -40.628906 C 50.492188 -47.550781 70.503906 -39.527344 78.503906 -22.308594 C 86.503906 -5.09375 79.730469 15.375 63.039063 24.421875 L 54.792969 24.421875 Z M 57.945313 27.648438 L 65.023438 27.648438 C 53.992188 29.53125 43.332031 22.761719 40.335938 11.984375 C 37.339844 1.203125 42.984375 -10.09375 53.402344 -14.171875 C 63.820313 -18.25 75.632813 -13.789063 80.753906 -3.839844 C 85.875 6.105469 82.640625 18.316406 73.265625 24.421875 L 67.199219 24.421875 C 46.375 22.792969 30.558594 5.003906 31.375 -15.867188 C 32.1875 -36.738281 49.347656 -53.238281 70.234375 -53.238281 C 91.121094 -53.238281 108.277344 -36.738281 109.09375 -15.867188 C 109.90625 5.003906 94.089844 22.792969 73.265625 24.421875 Z M 57.945313 24.539063 C 55.1875 24.792969 52.410156 24.753906 49.660156 24.421875 L 55.570313 24.421875 C 66.507813 25.972656 74.382813 35.714844 73.601563 46.734375 C 72.824219 57.75 63.660156 66.292969 52.617188 66.292969 C 41.570313 66.292969 32.40625 57.75 31.628906 46.734375 C 30.851563 35.714844 38.726563 25.972656 49.660156 24.421875 Z M 60.707031 13.144531 L 55.6875 13.144531 C 57.230469 20.785156 54.800781 28.6875 49.234375 34.144531 Z M 52.460938 13.144531 L 45.460938 13.144531 L 45.460938 5.367188 C 53.40625 4.324219 60.695313 9.921875 61.734375 17.871094 C 62.777344 25.816406 57.179688 33.101563 49.234375 34.144531 Z M 42.351563 5.367188 L 42.351563 13.144531 L 35.195313 13.144531 C 38.921875 9.964844 44.144531 9.210938 48.617188 11.207031 C 53.09375 13.199219 56.023438 17.585938 56.15625 22.480469 C 56.289063 27.378906 53.59375 31.914063 49.234375 34.144531 Z M 30.761719 9.332031 C 32.335938 -1.335938 41.75 -9.066406 52.523438 -8.539063 C 63.292969 -8.011719 71.90625 0.601563 72.433594 11.371094 C 72.960938 22.144531 65.230469 31.558594 54.5625 33.132813 L 49.894531 33.132813 C 39.574219 31.898438 32.003906 22.839844 32.625 12.464844 C 33.242188 2.089844 41.835938 -6.003906 52.226563 -6.003906 C 62.621094 -6.003906 71.214844 2.089844 71.832031 12.464844 C 72.449219 22.839844 64.878906 31.898438 54.5625 33.132813 Z M 22.59375 27.648438 L 29.710938 27.648438 C 11.917969 17.304688 4.316406 -4.460938 11.796875 -23.636719 C 19.277344 -42.808594 39.609375 -53.675781 59.707031 -49.242188 C 79.804688 -44.804688 93.675781 -26.390625 92.394531 -5.851563 C 91.109375 14.691406 75.054688 31.234375 54.5625 33.132813 L 24.964844 33.132813 C 35.160156 35.246094 42.101563 44.726563 41.039063 55.082031 C 39.976563 65.4375 31.253906 73.308594 20.84375 73.308594 C 10.433594 73.308594 1.710938 65.4375 0.652344 55.082031 C -0.410156 44.726563 6.53125 35.246094 16.722656 33.132813 Z M 26.988281 39.082031 L 31.8125 39.082031 C 30.699219 29.132813 35.996094 19.570313 45.015625 15.230469 C 54.039063 10.890625 64.816406 12.726563 71.894531 19.804688 C 78.976563 26.882813 80.808594 37.660156 76.46875 46.683594 C 72.132813 55.703125 62.566406 61 52.617188 59.890625 Z M 35.195313 39.082031 L 42.195313 39.082031 L 42.195313 46.859375 C 42.410156 41.558594 45.894531 36.949219 50.9375 35.296875 C 55.976563 33.640625 61.515625 35.292969 64.832031 39.433594 C 68.144531 43.578125 68.539063 49.34375 65.820313 53.898438 C 63.097656 58.453125 57.835938 60.839844 52.617188 59.890625 Z M 45.304688 46.859375 L 45.304688 38.890625 L 52.304688 38.890625 C 56.285156 34.335938 62.921875 33.214844 68.175781 36.210938 C 73.429688 39.203125 75.847656 45.484375 73.960938 51.230469 C 72.074219 56.972656 66.398438 60.59375 60.394531 59.890625 Z M 56.738281 42.777344 C 60.851563 35.417969 69.242188 31.546875 77.511719 33.195313 C 85.78125 34.84375 92.046875 41.632813 93.023438 50.007813 C 94.003906 58.382813 89.472656 66.4375 81.804688 69.945313 C 74.140625 73.457031 65.082031 71.625 59.382813 65.410156 L 64.246094 65.410156 C 52.46875 64.371094 43.601563 54.246094 44.121094 42.433594 C 44.640625 30.625 54.367188 21.320313 66.1875 21.320313 C 78.011719 21.320313 87.734375 30.625 88.257813 42.433594 C 88.777344 54.246094 79.910156 64.371094 68.132813 65.410156 Z M 56.738281 42.777344 "/>
<path style=" stroke:none;fill-rule:nonzero;fill:url(#linear0);" d="M 42.195313 68.054688 L 3.460938 68.054688 C 2.253906 68.054688 1.515625 66.070313 2.214844 65.0625 L 15.554688 45.617188 C 2.957031 31.945313 3.828125 10.652344 17.5 -1.945313 C 31.171875 -14.542969 52.464844 -13.671875 65.0625 0 L 65.0625 31.890625 C 56.253906 32.105469 48.941406 25.140625 48.726563 16.332031 C 48.511719 7.527344 55.476563 0.214844 64.285156 0 L 63.582031 0 C 64.179688 0.34375 64.46875 1.042969 64.289063 1.707031 C 64.113281 2.367188 63.511719 2.832031 62.824219 2.832031 C 62.136719 2.832031 61.539063 2.367188 61.359375 1.707031 C 61.183594 1.042969 61.472656 0.34375 62.066406 0 L 62.066406 -0.699219 C 62.246094 -1.449219 62.953125 -1.945313 63.71875 -1.855469 C 64.484375 -1.765625 65.058594 -1.121094 65.058594 -0.351563 C 65.058594 0.417969 64.484375 1.066406 63.71875 1.15625 C 62.953125 1.246094 62.246094 0.75 62.066406 0 L 79.0625 0 C 79.0625 4.691406 75.257813 8.496094 70.5625 8.496094 C 65.871094 8.496094 62.066406 4.691406 62.066406 0 L 62.066406 0.699219 C 61.402344 0.5625 60.902344 0.0078125 60.832031 -0.667969 C 60.765625 -1.34375 61.144531 -1.984375 61.769531 -2.253906 C 62.390625 -2.519531 63.117188 -2.351563 63.5625 -1.835938 C 64.003906 -1.320313 64.058594 -0.578125 63.699219 0 L 62.960938 0 C 63.199219 -0.148438 63.5 -0.148438 63.738281 0 L 63.738281 12.871094 C 60.183594 12.871094 57.304688 9.992188 57.304688 6.4375 C 57.304688 2.882813 60.183594 0 63.738281 0 L 77.078125 19.445313 C 77.777344 20.496094 77.039063 22.4375 75.792969 22.4375 Z M 42.195313 68.054688 "/>
<path style=" stroke:none;fill-rule:nonzero;fill:rgb(100%,100%,100%);fill-opacity:1;" d="M 8.710938 62.921875 L 18.316406 48.921875 C 4.808594 53.980469 -10.246094 47.128906 -15.304688 33.621094 C -20.359375 20.109375 -13.507813 5.058594 0 0 L 0 -5.640625 C 1.558594 -5.640625 2.820313 -4.375 2.820313 -2.820313 C 2.820313 -1.261719 1.558594 0 0 0 L 5.445313 0 C 5.445313 1.503906 4.226563 2.722656 2.722656 2.722656 C 1.21875 2.722656 0 1.503906 0 0 L 0 6.027344 C -1.664063 6.027344 -3.015625 4.679688 -3.015625 3.015625 C -3.015625 1.347656 -1.664063 0 0 0 L 9.839844 14.273438 C 5.898438 13.90625 3 10.417969 3.363281 6.476563 C 3.730469 2.535156 7.21875 -0.363281 11.160156 0 L 9.410156 0 C 9.699219 0.347656 9.664063 0.859375 9.335938 1.167969 C 9.007813 1.476563 8.492188 1.476563 8.164063 1.167969 C 7.835938 0.859375 7.800781 0.347656 8.089844 0 Z M 8.710938 62.921875 "/>
</g>
</svg>
