<?xml version="1.0" encoding="UTF-8"?>
<svg xmlns="http://www.w3.org/2000/svg" xmlns:xlink="http://www.w3.org/1999/xlink" width="70pt" height="70pt" viewBox="0 0 70 70" version="1.1">
<defs>
<linearGradient id="linear0" gradientUnits="userSpaceOnUse" x1="7.981" y1="16.737" x2="7.981" y2="0.724" gradientTransform="matrix(3.888889,0,0,3.888889,0,0)">
<stop offset="0" style="stop-color:rgb(0%,47.058824%,83.137255%);stop-opacity:1;"/>
<stop offset="1" style="stop-color:rgb(36.862745%,62.745098%,93.72549%);stop-opacity:1;"/>
</linearGradient>
</defs>
<g id="surface1">
<path style=" stroke:none;fill-rule:nonzero;fill:rgb(0%,47.058824%,83.137255%);fill-opacity:1;" d="M 58.820313 31.707031 C 58.820313 49.984375 36.753906 64.664063 31.949219 67.644531 C 13.273438 67.644531 -1.871094 52.5 -1.871094 33.820313 C -1.871094 15.140625 13.273438 0 31.949219 0 C 25.324219 64.664063 3.253906 49.964844 3.253906 31.707031 L 3.253906 9.722656 C 0.570313 1.867188 4.761719 -6.679688 12.621094 -9.363281 C 20.476563 -12.050781 29.019531 -7.855469 31.707031 0 C 22.128906 7.53125 18.175781 0 31.039063 0 C 43.898438 0 39.949219 7.53125 57.117188 8 C 54.90625 23.773438 40.332031 34.765625 24.558594 32.558594 C 8.785156 30.347656 -2.210938 15.773438 0 0 Z M 58.820313 31.707031 "/>
<path style=" stroke:none;fill-rule:nonzero;fill:url(#linear0);" d="M 56.515625 31.890625 C 56.515625 48.632813 36.296875 62.113281 31.878906 64.847656 C 13.96875 64.847656 -0.546875 50.332031 -0.546875 32.421875 C -0.546875 14.515625 13.96875 0 31.878906 0 C 25.800781 62.117188 5.5625 48.636719 5.5625 31.890625 L 5.5625 11.75 C 2.316406 4.476563 5.582031 -4.046875 12.851563 -7.289063 C 20.121094 -10.535156 28.644531 -7.269531 31.890625 0 C 22.867188 9.722656 19.242188 2.816406 31.039063 2.816406 C 42.832031 2.816406 39.203125 9.726563 54.953125 10.152344 C 52.148438 24.550781 38.207031 33.949219 23.808594 31.144531 C 9.410156 28.34375 0.0117188 14.398438 2.816406 0 Z M 56.515625 31.890625 "/>
<path style=" stroke:none;fill-rule:nonzero;fill:rgb(46.27451%,73.72549%,17.647059%);fill-opacity:1;" d="M 66.746094 49.710938 C 66.746094 60.917969 57.660156 70 46.457031 70 C 35.25 70 26.167969 60.917969 26.167969 49.710938 C 26.167969 38.507813 35.25 29.421875 46.457031 29.421875 C 57.660156 29.421875 66.746094 38.507813 66.746094 49.710938 Z M 66.746094 49.710938 "/>
<path style=" stroke:none;fill-rule:nonzero;fill:rgb(100%,100%,100%);fill-opacity:1;" d="M 31.964844 47.804688 C 18.765625 47.875 8.007813 37.230469 7.9375 24.03125 C 7.867188 10.828125 18.511719 0.0703125 31.714844 0 L 30.855469 -1.445313 C 31.253906 -1.683594 31.769531 -1.550781 32.007813 -1.152344 C 32.246094 -0.753906 32.113281 -0.238281 31.714844 0 L 38.523438 -4.039063 C 39.640625 -2.160156 39.019531 0.269531 37.140625 1.382813 C 35.257813 2.5 32.828125 1.878906 31.714844 0 L 35.753906 6.808594 C 33.875 6.539063 32.570313 4.792969 32.839844 2.914063 C 33.113281 1.03125 34.859375 -0.273438 36.738281 0 L 35.292969 0.859375 C 35.175781 1.144531 34.894531 1.324219 34.589844 1.308594 C 34.285156 1.292969 34.019531 1.085938 33.933594 0.792969 C 33.847656 0.5 33.957031 0.183594 34.207031 0.00390625 C 34.453125 -0.175781 34.789063 -0.175781 35.039063 0 L 33.839844 -2.023438 C 36.386719 -0.015625 37.683594 3.183594 37.25 6.398438 L 45.523438 6.398438 C 44.734375 6.75 44.296875 7.8125 44.53125 8.808594 C 44.765625 9.800781 45.585938 10.371094 46.398438 10.105469 C 47.207031 9.835938 47.714844 8.820313 47.550781 7.804688 C 47.683594 2.929688 51.695313 -0.9375 56.570313 -0.894531 C 61.449219 -0.851563 65.390625 3.09375 65.433594 7.96875 C 65.480469 12.84375 61.609375 16.855469 56.734375 16.992188 L 56.734375 21.578125 L 57.0625 25.078125 C 60.144531 20.265625 66.050781 18.078125 71.523438 19.726563 C 77 21.375 80.71875 26.453125 80.636719 32.171875 C 80.550781 37.886719 76.683594 42.855469 71.164063 44.339844 C 65.640625 45.828125 59.804688 43.46875 56.863281 38.566406 L 69.894531 51.597656 L 82.847656 51.597656 C 83.769531 50.085938 85.550781 49.386719 87.21875 49.882813 C 88.886719 50.378906 90.035156 51.953125 90.035156 53.738281 C 90.035156 55.523438 88.886719 57.09375 87.21875 57.582031 C 85.550781 58.070313 83.769531 57.363281 82.847656 55.847656 Z M 48.519531 41.195313 C 48.636719 36.261719 52.6875 32.339844 57.621094 32.378906 C 62.554688 32.417969 66.542969 36.40625 66.582031 41.339844 C 66.621094 46.273438 62.695313 50.324219 57.765625 50.441406 L 57.765625 57.023438 C 57.824219 58.160156 57.761719 59.316406 57.578125 60.433594 L 56.382813 58.410156 C 56.941406 58.480469 57.335938 58.988281 57.265625 59.546875 C 57.195313 60.105469 56.6875 60.503906 56.128906 60.433594 L 54.683594 61.292969 C 54.597656 61.023438 54.683594 60.730469 54.894531 60.542969 C 55.109375 60.359375 55.410156 60.316406 55.664063 60.433594 L 59.707031 67.246094 C 57.824219 68.363281 55.394531 67.742188 54.277344 65.859375 C 53.164063 63.980469 53.785156 61.550781 55.664063 60.433594 L 62.476563 56.394531 C 63.589844 58.273438 62.972656 60.703125 61.089844 61.816406 C 59.210938 62.933594 56.78125 62.3125 55.664063 60.433594 L 54.804688 58.988281 C 55.207031 59.054688 55.472656 59.433594 55.40625 59.835938 C 55.335938 60.234375 54.957031 60.503906 54.558594 60.433594 L 52.199219 61.828125 C 52.175781 56.554688 55.335938 51.789063 60.203125 49.757813 C 65.074219 47.726563 70.683594 48.835938 74.414063 52.566406 C 78.144531 56.296875 79.253906 61.90625 77.222656 66.777344 C 75.191406 71.644531 70.425781 74.804688 65.152344 74.78125 L 78.289063 74.78125 C 80.621094 74.898438 82.515625 74.335938 82.515625 73.527344 C 82.515625 72.714844 80.621094 71.960938 78.289063 71.84375 C 78.214844 71.3125 78.003906 71.054688 77.820313 71.269531 C 77.636719 71.484375 77.546875 72.089844 77.617188 72.621094 L 77.875 75.382813 C 80.128906 73.128906 83.785156 73.128906 86.042969 75.382813 C 88.296875 77.636719 88.296875 81.292969 86.042969 83.550781 Z M 48.519531 41.195313 "/>
</g>
</svg>
