<?xml version="1.0" encoding="UTF-8"?>
<svg xmlns="http://www.w3.org/2000/svg" xmlns:xlink="http://www.w3.org/1999/xlink" width="70pt" height="70pt" viewBox="0 0 70 70" version="1.1">
<defs>
<linearGradient id="linear0" gradientUnits="userSpaceOnUse" x1="-6784.85" y1="1118.78" x2="-6784.85" y2="1089.98" gradientTransform="matrix(1.944444,0,0,-1.944444,13223.816667,2177.738889)">
<stop offset="0" style="stop-color:rgb(36.862745%,62.745098%,93.72549%);stop-opacity:1;"/>
<stop offset="0.18" style="stop-color:rgb(34.509804%,61.960784%,92.941176%);stop-opacity:1;"/>
<stop offset="0.41" style="stop-color:rgb(28.235294%,59.215686%,91.372549%);stop-opacity:1;"/>
<stop offset="0.66" style="stop-color:rgb(18.039216%,54.901961%,88.235294%);stop-opacity:1;"/>
<stop offset="0.94" style="stop-color:rgb(3.921569%,48.627451%,84.313725%);stop-opacity:1;"/>
<stop offset="1" style="stop-color:rgb(0%,47.058824%,83.137255%);stop-opacity:1;"/>
</linearGradient>
<filter id="alpha" filterUnits="objectBoundingBox" x="0%" y="0%" width="100%" height="100%">
  <feColorMatrix type="matrix" in="SourceGraphic" values="0 0 0 0 1 0 0 0 0 1 0 0 0 0 1 0 0 0 1 0"/>
</filter>
<mask id="mask0">
  <g filter="url(#alpha)">
<rect x="0" y="0" width="70" height="70" style="fill:rgb(0%,0%,0%);fill-opacity:0.94902;stroke:none;"/>
  </g>
</mask>
<linearGradient id="linear1" gradientUnits="userSpaceOnUse" x1="-1.47" y1="14.91" x2="17.16" y2="14.8" gradientTransform="matrix(3.888889,0,0,3.888889,0,0)">
<stop offset="0" style="stop-color:rgb(26.666667%,61.176471%,86.666667%);stop-opacity:0.14902;"/>
<stop offset="0.16" style="stop-color:rgb(15.686275%,43.921569%,67.058824%);stop-opacity:0;"/>
<stop offset="0.18" style="stop-color:rgb(14.117647%,41.176471%,63.921569%);stop-opacity:0.0588235;"/>
<stop offset="0.23" style="stop-color:rgb(10.196078%,34.901961%,56.862745%);stop-opacity:0.188235;"/>
<stop offset="0.28" style="stop-color:rgb(7.843137%,30.980392%,52.54902%);stop-opacity:0.270588;"/>
<stop offset="0.34" style="stop-color:rgb(7.058824%,29.803922%,50.980392%);stop-opacity:0.301961;"/>
<stop offset="0.76" style="stop-color:rgb(0%,15.686275%,31.764706%);stop-opacity:0.34902;"/>
<stop offset="0.9" style="stop-color:rgb(18.431373%,47.843137%,71.372549%);stop-opacity:0;"/>
<stop offset="1" style="stop-color:rgb(26.666667%,61.176471%,86.666667%);stop-opacity:0;"/>
</linearGradient>
<clipPath id="clip1">
  <rect x="0" y="0" width="70" height="70"/>
</clipPath>
<g id="surface5" clip-path="url(#clip1)">
<path style=" stroke:none;fill-rule:nonzero;fill:url(#linear1);" d="M 41.457031 58.332031 L 57.59375 58.332031 C 41.484375 58.644531 28.175781 45.839844 27.863281 29.730469 C 27.550781 13.621094 40.359375 0.3125 56.464844 0 L 40.910156 0 Z M 41.457031 58.332031 "/>
</g>
<clipPath id="clip2">
  <path d="M 35 35 L 68 35 L 68 55 L 35 55 Z M 35 35 "/>
</clipPath>
<clipPath id="clip3">
  <path d="M 67.746094 51.605469 C 67.746094 60.539063 60.5 67.785156 51.566406 67.785156 C 42.632813 67.785156 35.390625 60.539063 35.390625 51.605469 C 35.390625 42.671875 42.632813 35.429688 51.566406 35.429688 C 60.5 35.429688 67.746094 42.671875 67.746094 51.605469 Z M 67.746094 51.605469 "/>
</clipPath>
<clipPath id="clip4">
  <path d="M 43 35 L 64 35 L 64 40 L 43 40 Z M 43 35 "/>
</clipPath>
<clipPath id="clip5">
  <path d="M 67.746094 51.605469 C 67.746094 60.539063 60.5 67.785156 51.566406 67.785156 C 42.632813 67.785156 35.390625 60.539063 35.390625 51.605469 C 35.390625 42.671875 42.632813 35.429688 51.566406 35.429688 C 60.5 35.429688 67.746094 42.671875 67.746094 51.605469 Z M 67.746094 51.605469 "/>
</clipPath>
<clipPath id="clip6">
  <path d="M 57 35 L 64 35 L 64 40 L 57 40 Z M 57 35 "/>
</clipPath>
<clipPath id="clip7">
  <path d="M 67.746094 51.605469 C 67.746094 60.539063 60.5 67.785156 51.566406 67.785156 C 42.632813 67.785156 35.390625 60.539063 35.390625 51.605469 C 35.390625 42.671875 42.632813 35.429688 51.566406 35.429688 C 60.5 35.429688 67.746094 42.671875 67.746094 51.605469 Z M 67.746094 51.605469 "/>
</clipPath>
</defs>
<g id="surface1">
<path style=" stroke:none;fill-rule:nonzero;fill:url(#linear0);" d="M 21.816406 41.417969 L 38.65625 41.417969 L 38.65625 58.332031 L 21.816406 58.332031 Z M 2.371094 19.015625 L 19.015625 19.015625 L 19.015625 2.214844 L 4.550781 2.214844 C 4.613281 0.972656 5.640625 0 6.882813 0 Z M 4.550781 58.332031 L 19.015625 58.332031 L 19.015625 41.417969 L 2.214844 41.417969 L 2.214844 55.882813 C -13.214844 54.59375 -24.679688 41.039063 -23.390625 25.609375 C -22.101563 10.175781 -8.546875 -1.289063 6.882813 0 Z M 2.214844 38.890625 L 19.015625 38.890625 L 19.015625 21.816406 L 2.214844 21.816406 Z M 41.457031 58.332031 L 55.921875 58.332031 C 39.8125 71.875 15.777344 69.792969 2.234375 53.6875 C -11.304688 37.578125 -9.226563 13.542969 6.882813 0 L 6.882813 -14.582031 L -9.917969 -14.582031 Z M 22.011719 38.890625 L 38.65625 38.890625 L 38.65625 21.816406 L 21.816406 21.816406 Z M 41.648438 38.890625 L 58.332031 38.890625 L 58.332031 21.816406 L 41.457031 21.816406 Z M 41.648438 2.488281 L 41.648438 19.015625 L 58.332031 19.015625 L 58.332031 4.550781 C 57.078125 5.195313 55.535156 4.699219 54.890625 3.441406 C 54.246094 2.183594 54.742188 0.644531 56 0 Z M 22.207031 19.289063 L 38.65625 19.289063 L 38.65625 2.214844 L 21.816406 2.214844 Z M 22.207031 19.289063 "/>
<use xlink:href="#surface5" mask="url(#mask0)"/>
<path style=" stroke:none;fill-rule:nonzero;fill:rgb(19.607843%,74.509804%,86.666667%);fill-opacity:1;" d="M 67.746094 51.605469 C 67.746094 60.539063 60.5 67.785156 51.566406 67.785156 C 42.632813 67.785156 35.390625 60.539063 35.390625 51.605469 C 35.390625 42.671875 42.632813 35.429688 51.566406 35.429688 C 60.5 35.429688 67.746094 42.671875 67.746094 51.605469 Z M 67.746094 51.605469 "/>
<g clip-path="url(#clip2)" clip-rule="nonzero">
<g clip-path="url(#clip3)" clip-rule="nonzero">
<path style=" stroke:none;fill-rule:nonzero;fill:rgb(70.588235%,92.54902%,21.176471%);fill-opacity:1;" d="M 66.34375 53.9375 C 65.527344 54.367188 64.359375 54.132813 63.816406 54.5625 C 48.75 53.851563 37.109375 41.0625 37.820313 25.996094 C 38.527344 10.929688 51.316406 -0.707031 66.382813 0 C 66.382813 0.234375 66.382813 0.582031 66.109375 0.699219 C 65.023438 1.4375 63.933594 2.214844 64.945313 3.851563 C 63.777344 3.851563 64.167969 2.800781 63.621094 2.488281 C 64.480469 2.605469 65.246094 3.085938 65.722656 3.8125 L 66.734375 3.8125 C 66.9375 4.261719 68.199219 4.578125 69.554688 4.511719 C 70.90625 4.449219 71.839844 4.03125 71.632813 3.578125 C 71.632813 4.199219 70.542969 5.328125 72.332031 5.367188 C 72.800781 5.367188 72.683594 5.910156 72.566406 6.261719 C 72.449219 6.609375 72.800781 7.195313 73.304688 7.429688 C 73.8125 7.660156 73.304688 7.429688 73.304688 7.621094 C 71.867188 7.621094 71.554688 5.871094 70.15625 5.679688 C 71.839844 14.5 66.21875 23.066406 57.457031 25.035156 C 48.691406 27.003906 39.949219 21.667969 37.695313 12.972656 C 35.441406 4.28125 40.488281 -4.636719 49.105469 -7.171875 C 57.722656 -9.707031 66.796875 -4.949219 69.609375 3.578125 C 68.5625 3.226563 67.355469 3.035156 67.121094 1.476563 C 66.878906 2.453125 66.164063 3.242188 65.214844 3.578125 C 64.75 3.265625 64.476563 2.683594 64.011719 2.332031 C 64.238281 3.714844 63.703125 5.109375 62.609375 5.988281 L 71.632813 15.011719 C 71.246094 13.765625 71.167969 12.484375 69.765625 11.667969 C 68.367188 10.851563 68.601563 12.132813 68.054688 11.859375 C 67.511719 11.589844 67.199219 12.367188 67.042969 12.445313 C 65.917969 12.753906 64.945313 13.726563 63.503906 13.570313 C 64.050781 13.300781 64.476563 13.144531 64.867188 12.910156 C 65.253906 12.679688 65.996094 12.367188 65.140625 11.433594 C 64.285156 10.5 64.59375 9.140625 66.890625 8.207031 C 66.695313 7.660156 65.292969 7.777344 65.917969 6.765625 C 66.539063 5.753906 67.003906 6.261719 67.589844 6.765625 C 67.976563 6.027344 67.121094 5.09375 67.785156 4.667969 C 63.804688 0.164063 64.125 -6.683594 68.5 -10.800781 C 72.878906 -14.917969 79.734375 -14.808594 83.984375 -10.5625 C 88.234375 -6.3125 88.339844 0.542969 84.222656 4.921875 C 80.109375 9.300781 73.257813 9.617188 68.753906 5.640625 C 69.457031 6.726563 70.855469 6.921875 71.554688 8.011719 C 71.75 8.359375 72.140625 8.011719 72.410156 8.011719 C 74.003906 7.464844 75.054688 8.476563 76.300781 9.292969 C 77.542969 10.109375 77.351563 10.617188 78.359375 10.5 C 79.703125 -8.570313 65.332031 -25.121094 46.257813 -26.464844 C 27.1875 -27.804688 10.636719 -13.433594 9.292969 5.640625 C 9.917969 5.910156 10.5 6.066406 10.964844 5.40625 C 11.03125 6.941406 9.839844 8.238281 8.304688 8.304688 C 6.765625 8.367188 5.46875 7.175781 5.40625 5.640625 C 5.640625 5.289063 5.753906 4.785156 6.339844 5.015625 C 8.578125 4.382813 10.929688 5.574219 11.746094 7.753906 C 12.5625 9.933594 11.566406 12.375 9.460938 13.367188 C 7.355469 14.359375 4.839844 13.566406 3.679688 11.550781 C 2.519531 9.53125 3.101563 6.960938 5.015625 5.640625 C 5.523438 5.25 6.027344 5.015625 5.445313 4.121094 C 6.023438 3.542969 6.964844 3.542969 7.542969 4.121094 C 8.125 4.703125 8.125 5.640625 7.542969 6.222656 C 8.285156 7.542969 8.515625 9.0625 9.371094 10.109375 C 9.644531 10.460938 9.371094 10.617188 9.371094 10.890625 C 9.371094 11.160156 8.671875 10.890625 8.285156 10.65625 L 8.554688 12.328125 C 6.871094 12.597656 5.285156 11.445313 5.015625 9.761719 C 4.75 8.074219 5.898438 6.492188 7.582031 6.222656 C 7.582031 5.753906 7.582031 5.5625 8.050781 5.328125 C 8.515625 5.09375 8.789063 4.898438 8.789063 4.394531 C 9.292969 4.609375 9.527344 5.191406 9.3125 5.695313 C 9.097656 6.203125 8.515625 6.4375 8.011719 6.222656 C 7.699219 6.222656 7.503906 6.222656 7.429688 6.570313 C 7.351563 6.921875 6.144531 7.542969 6.339844 8.632813 C 6.535156 9.722656 5.601563 9.488281 5.054688 9.179688 C 3.773438 8.515625 3.304688 9.683594 2.761719 10.304688 C 2.214844 10.929688 2.761719 11.628906 3.382813 12.09375 C 4.003906 12.5625 4.589844 12.910156 4.820313 13.648438 C 2.769531 12.136719 2.335938 9.246094 3.851563 7.195313 C 5.363281 5.144531 8.253906 4.707031 10.304688 6.222656 C 10.304688 5.523438 10.578125 4.550781 11.550781 4.433594 C 12.042969 6.398438 10.851563 8.390625 8.886719 8.886719 C 6.921875 9.378906 4.925781 8.1875 4.433594 6.222656 C 4.628906 6.648438 4.9375 6.6875 5.328125 6.726563 C -12.425781 12.707031 -31.683594 3.277344 -37.855469 -14.410156 C -44.027344 -32.097656 -34.808594 -51.457031 -17.191406 -57.820313 C 0.429688 -64.183594 19.890625 -55.179688 26.441406 -37.628906 C 32.996094 -20.078125 24.207031 -0.523438 6.726563 6.222656 L 5.289063 6.027344 C 5.289063 4.898438 4.316406 5.40625 3.773438 5.171875 C 3.617188 5.871094 4.511719 6.066406 4.472656 6.765625 Z M 66.34375 53.9375 "/>
</g>
</g>
<g clip-path="url(#clip4)" clip-rule="nonzero">
<g clip-path="url(#clip5)" clip-rule="nonzero">
<path style=" stroke:none;fill-rule:nonzero;fill:rgb(70.588235%,92.54902%,21.176471%);fill-opacity:1;" d="M 60.746094 39.9375 C 60.238281 39.472656 59.695313 39.042969 60.511719 38.382813 C 61.328125 37.722656 61.289063 37.253906 61.679688 38.382813 C 51.078125 37.953125 42.835938 29.011719 43.265625 18.414063 C 43.695313 7.816406 52.632813 -0.429688 63.234375 0 Z M 60.746094 39.9375 "/>
</g>
</g>
<g clip-path="url(#clip6)" clip-rule="nonzero">
<g clip-path="url(#clip7)" clip-rule="nonzero">
<path style=" stroke:none;fill-rule:nonzero;fill:rgb(70.588235%,92.54902%,21.176471%);fill-opacity:1;" d="M 61.949219 38.382813 C 62.378906 37.957031 62.921875 37.996094 63 38.382813 C 63.078125 38.773438 62.496094 39.121094 61.988281 39.277344 C 61.484375 39.433594 61.640625 38.890625 61.949219 38.382813 Z M 58.957031 34.765625 L 57.59375 35 C 57.59375 34.027344 58.566406 33.949219 59.226563 34.105469 C 59.890625 34.261719 59.148438 34.570313 58.957031 34.765625 Z M 58.957031 34.765625 "/>
</g>
</g>
</g>
</svg>
