<?xml version="1.0" encoding="UTF-8"?>
<svg xmlns="http://www.w3.org/2000/svg" xmlns:xlink="http://www.w3.org/1999/xlink" width="70pt" height="70pt" viewBox="0 0 70 70" version="1.1">
<g id="surface1">
<path style=" stroke:none;fill-rule:nonzero;fill:rgb(0%,0%,0%);fill-opacity:1;" d="M 61.25 52.5 L 61.25 56.875 L 43.75 56.875 C 28.042969 55.910156 16.097656 42.394531 17.0625 26.6875 C 18.027344 10.980469 31.542969 -0.964844 47.25 0 L 45.5 2.625 L 42.875 4.375 L 39.375 5.25 L 35.875 4.375 L 33.25 2.625 L 31.5 0 C 27.777344 -4.222656 28.046875 -10.628906 32.105469 -14.523438 C 36.167969 -18.417969 42.582031 -18.417969 46.644531 -14.523438 C 50.703125 -10.628906 50.972656 -4.222656 47.25 0 L 8.75 0 L 8.75 -4.375 L 13.125 -4.375 L 13.125 26.25 C 13.609375 12.234375 25.195313 1.167969 39.21875 1.328125 C 53.242188 1.492188 64.570313 12.820313 64.734375 26.84375 C 64.894531 40.867188 53.828125 52.453125 39.8125 52.9375 L 39.8125 60.8125 C 38.578125 62.699219 37.308594 62.699219 36.3125 60.8125 L 41.5625 58.625 L 35 4.375 L 40.6875 5.25 L 45.9375 7.4375 C 45.9375 -1.984375 53.578125 -9.625 63 -9.625 C 72.421875 -9.625 80.0625 -1.984375 80.0625 7.4375 C 80.0625 16.859375 72.421875 24.5 63 24.5 L 63 57.3125 Z M 52.5 52.5 L 52.5 26.25 C 51.660156 30.898438 49.175781 35.09375 45.5 38.0625 L 57.3125 49.875 L 76.5625 49.875 C 77.75 51.445313 80.171875 52.246094 82.464844 51.832031 C 84.757813 51.417969 86.355469 49.890625 86.355469 48.109375 C 86.355469 46.324219 84.757813 44.730469 82.464844 44.222656 C 80.171875 43.714844 77.75 44.417969 76.5625 45.9375 L 76.5625 72.1875 Z M 35 61.25 L 36.75 61.25 L 38.0625 60.375 L 38.9375 59.0625 C 35.3125 48.671875 40.796875 37.3125 51.1875 33.6875 C 61.578125 30.0625 72.9375 35.546875 76.5625 45.9375 L 30.625 45.9375 C 30.625 33.253906 40.910156 22.96875 53.59375 22.96875 C 66.277344 22.96875 76.5625 33.253906 76.5625 45.9375 L 77.4375 47.25 L 78.75 48.125 Z M 35 61.25 "/>
</g>
</svg>
