<?xml version="1.0" encoding="UTF-8"?>
<svg xmlns="http://www.w3.org/2000/svg" xmlns:xlink="http://www.w3.org/1999/xlink" width="70pt" height="70pt" viewBox="0 0 70 70" version="1.1">
<defs>
<linearGradient id="linear0" gradientUnits="userSpaceOnUse" x1="9.24" y1="0.96" x2="8.85" y2="16.52" gradientTransform="matrix(3.888889,0,0,3.888889,0,0)">
<stop offset="0" style="stop-color:rgb(19.607843%,83.137255%,96.078431%);stop-opacity:1;"/>
<stop offset="0.23" style="stop-color:rgb(19.215686%,81.568627%,94.509804%);stop-opacity:1;"/>
<stop offset="0.46" style="stop-color:rgb(17.254902%,76.470588%,90.196078%);stop-opacity:1;"/>
<stop offset="0.7" style="stop-color:rgb(14.509804%,68.627451%,83.137255%);stop-opacity:1;"/>
<stop offset="0.94" style="stop-color:rgb(10.980392%,57.254902%,72.941176%);stop-opacity:1;"/>
<stop offset="1" style="stop-color:rgb(9.803922%,54.117647%,70.196078%);stop-opacity:1;"/>
</linearGradient>
</defs>
<g id="surface1">
<path style=" stroke:none;fill-rule:nonzero;fill:rgb(0%,35.686275%,63.137255%);fill-opacity:1;" d="M 66.5 14 L 37.683594 14 C 33.816406 14.074219 30.621094 11.003906 30.546875 7.136719 C 30.472656 3.269531 33.546875 0.0742188 37.410156 0 L 28.582031 8.246094 C 26.308594 8.308594 24.410156 6.515625 24.34375 4.238281 C 24.28125 1.960938 26.074219 0.0625 28.351563 0 L 3.5 0 C 3.972656 -0.261719 4.546875 -0.261719 5.015625 0 L 5.015625 50.945313 C -9.050781 50.945313 -20.457031 39.539063 -20.457031 25.472656 C -20.457031 11.40625 -9.050781 0 5.015625 0 L 68.015625 0 C 68.015625 17.398438 53.914063 31.5 36.515625 31.5 C 19.121094 31.5 5.015625 17.398438 5.015625 0 L 5.015625 15.554688 C 0.722656 15.984375 -3.109375 12.851563 -3.539063 8.554688 C -3.96875 4.261719 -0.835938 0.429688 3.460938 0 Z M 66.5 14 "/>
<path style=" stroke:none;fill-rule:nonzero;fill:rgb(100%,100%,100%);fill-opacity:1;" d="M 8.59375 10.964844 L 22.359375 10.964844 C 22.703125 10.964844 22.984375 11.246094 22.984375 11.589844 L 22.984375 13.339844 C 22.984375 13.683594 22.703125 13.960938 22.359375 13.960938 L 8.59375 13.960938 C 8.25 13.960938 7.972656 13.683594 7.972656 13.339844 L 7.972656 11.589844 C 7.972656 11.246094 8.25 10.964844 8.59375 10.964844 Z M 8.59375 10.964844 "/>
<path style=" stroke:none;fill-rule:nonzero;fill:rgb(10.196078%,76.470588%,94.901961%);fill-opacity:1;" d="M 8.398438 10.964844 L 10.539063 10.964844 C 10.773438 10.964844 10.964844 11.15625 10.964844 11.394531 L 10.964844 13.535156 C 10.964844 13.769531 10.773438 13.960938 10.539063 13.960938 L 8.398438 13.960938 C 8.164063 13.960938 7.972656 13.769531 7.972656 13.535156 L 7.972656 11.394531 C 7.972656 11.15625 8.164063 10.964844 8.398438 10.964844 Z M 8.398438 10.964844 "/>
<path style=" stroke:none;fill-rule:nonzero;fill:url(#linear0);" d="M 66.5 13.921875 L 35 13.921875 C 31.15625 13.792969 28.144531 10.574219 28.273438 6.726563 C 28.402344 2.882813 31.621094 -0.128906 35.464844 0 L 28.660156 19.445313 C 23.292969 19.328125 19.035156 14.878906 19.152344 9.507813 C 19.269531 4.140625 23.71875 -0.117188 29.089844 0 L 3.5 0 C 3.980469 -0.277344 4.574219 -0.277344 5.054688 0 L 5.054688 38.890625 C -5.683594 38.890625 -14.390625 30.183594 -14.390625 19.445313 C -14.390625 8.707031 -5.683594 0 5.054688 0 L 68.054688 0 C 68.054688 17.398438 53.953125 31.5 36.554688 31.5 C 19.160156 31.5 5.054688 17.398438 5.054688 0 L 5.054688 15.554688 C 0.761719 16.007813 -3.085938 12.890625 -3.539063 8.59375 C -3.988281 4.300781 -0.875 0.449219 3.421875 0 Z M 66.5 13.921875 "/>
<path style=" stroke:none;fill-rule:nonzero;fill:rgb(100%,100%,100%);fill-opacity:1;" d="M 39.589844 22.167969 C 33.46875 22.167969 28.503906 17.203125 28.503906 11.082031 C 28.503906 4.960938 33.46875 0 39.589844 0 C 39.589844 0 39.238281 0 39.082031 0.273438 L 26.792969 18.121094 C 27 18.078125 27.214844 18.140625 27.363281 18.289063 C 27.515625 18.441406 27.578125 18.65625 27.535156 18.859375 L 34.804688 18.859375 L 31.109375 52.109375 C 31.0625 51.890625 31.167969 51.667969 31.363281 51.5625 C 31.5625 51.453125 31.804688 51.488281 31.964844 51.648438 C 32.121094 51.804688 32.15625 52.050781 32.050781 52.246094 C 31.941406 52.445313 31.71875 52.546875 31.5 52.5 C 31.734375 52.5 31.851563 52.5 32.003906 52.226563 L 44.683594 34.105469 L 44.683594 33.714844 C 49.871094 33.886719 53.9375 38.234375 53.765625 43.417969 C 53.59375 48.605469 49.246094 52.671875 44.0625 52.5 L 36.285156 52.5 L 39.433594 41.882813 C 42.363281 40.605469 45.777344 41.945313 47.054688 44.878906 C 48.332031 47.808594 46.992188 51.222656 44.0625 52.5 Z M 39.589844 22.167969 "/>
</g>
</svg>
