<?xml version="1.0" encoding="UTF-8"?>
<svg xmlns="http://www.w3.org/2000/svg" xmlns:xlink="http://www.w3.org/1999/xlink" width="70pt" height="43pt" viewBox="0 0 70 43" version="1.1">
<g id="surface1">
<path style=" stroke:none;fill-rule:nonzero;fill:rgb(0%,0%,0%);fill-opacity:1;" d="M 30.625 30.101563 L 30.625 25.800781 L 35.4375 25.800781 L 39.8125 23.648438 C 45.007813 18.542969 53.429688 18.542969 58.625 23.648438 C 63.820313 28.757813 63.820313 37.035156 58.625 42.140625 C 58.746094 43.976563 59.171875 44.699219 59.625 43.828125 C 60.082031 42.957031 60.421875 40.761719 60.421875 38.695313 C 60.421875 36.632813 60.082031 35.332031 59.625 35.660156 C 59.171875 35.988281 58.746094 37.839844 58.625 39.988281 L 55.125 37.839844 L 50.75 36.980469 L 33.25 36.980469 L 28.875 37.839844 L 25.375 39.988281 C 29.4375 44.078125 30.792969 50.074219 28.875 55.46875 L 47.6875 73.960938 L 50.75 76.96875 L 55.125 79.121094 L 17.5 79.121094 L 17.5 30.101563 L 15.3125 30.101563 C 27.636719 30.457031 37.332031 40.5625 36.96875 52.675781 C 36.605469 64.785156 26.324219 74.316406 14 73.960938 C 23.351563 75.203125 30.125 83.359375 29.492188 92.617188 C 28.855469 101.871094 21.03125 109.0625 11.59375 109.0625 C 2.15625 109.0625 -5.667969 101.871094 -6.304688 92.617188 C -6.9375 83.359375 -0.164063 75.203125 9.1875 73.960938 C -6.640625 71.585938 -17.511719 57.050781 -15.09375 41.496094 C -12.675781 25.941406 2.109375 15.253906 17.9375 17.628906 L 0 58.050781 L 17.5 58.050781 C 22.992188 61.808594 25.363281 68.632813 23.359375 74.90625 C 21.355469 81.179688 15.441406 85.449219 8.75 85.449219 C 2.058594 85.449219 -3.855469 81.179688 -5.859375 74.90625 C -7.863281 68.632813 -5.492188 61.808594 0 58.050781 C -1.054688 50.546875 2.882813 43.222656 9.78125 39.847656 C 16.683594 36.476563 25.003906 37.8125 30.453125 43.167969 C 35.902344 48.523438 37.261719 56.703125 33.832031 63.484375 C 30.398438 70.265625 22.945313 74.136719 15.3125 73.101563 L 15.3125 77.398438 C 17.40625 69.441406 24.816406 63.960938 33.175781 64.1875 C 41.539063 64.417969 48.628906 70.292969 50.269531 78.355469 C 51.910156 86.414063 47.664063 94.519531 40.035156 97.890625 C 32.40625 101.261719 23.421875 99.003906 18.375 92.449219 Z M 52.5 12.898438 L 52.5 17.199219 L 57.3125 17.199219 L 61.6875 19.351563 C 66.882813 14.242188 75.304688 14.242188 80.5 19.351563 C 85.695313 24.457031 85.695313 32.734375 80.5 37.839844 L 80.5 42.140625 C 80.277344 47.882813 81.078125 52.054688 82.285156 51.460938 C 83.492188 50.867188 84.652344 45.730469 84.875 39.988281 L 81.375 42.140625 L 77 43 L 59.5 43 L 55.125 42.140625 L 51.625 39.988281 C 56.40625 35.179688 63.851563 34.070313 69.867188 37.269531 C 75.886719 40.46875 79.011719 47.207031 77.527344 53.769531 C 76.042969 60.335938 70.308594 65.132813 63.480469 65.527344 C 56.648438 65.925781 50.382813 61.816406 48.125 55.46875 L 66.9375 73.960938 L 66.9375 81.269531 L 71.3125 79.121094 L 39.375 79.121094 L 39.375 12.898438 L 37.1875 12.898438 C 56.398438 12.542969 72.261719 27.558594 72.625 46.441406 C 72.988281 65.320313 57.710938 80.914063 38.5 81.269531 C 42.292969 85.164063 44.066406 90.550781 43.3125 95.890625 C 42.257813 88.386719 46.195313 81.0625 53.09375 77.6875 C 59.996094 74.316406 68.316406 75.65625 73.765625 81.007813 C 79.214844 86.363281 80.574219 94.542969 77.144531 101.324219 C 73.710938 108.105469 66.257813 111.976563 58.625 110.941406 L 76.125 110.941406 C 81.617188 114.699219 83.988281 121.523438 81.984375 127.796875 C 79.980469 134.070313 74.066406 138.339844 67.375 138.339844 C 60.683594 138.339844 54.769531 134.070313 52.765625 127.796875 C 50.761719 121.523438 53.132813 114.699219 58.625 110.941406 C 57.394531 103.394531 61.253906 95.925781 68.179688 92.449219 C 75.105469 88.972656 83.523438 90.28125 89.019531 95.6875 C 94.519531 101.089844 95.847656 109.363281 92.3125 116.167969 C 88.777344 122.976563 81.179688 126.769531 73.5 125.558594 C 74.871094 130.773438 73.742188 136.316406 70.4375 140.609375 Z M 52.5 12.898438 "/>
</g>
</svg>
