<?xml version="1.0" encoding="UTF-8"?>
<svg xmlns="http://www.w3.org/2000/svg" xmlns:xlink="http://www.w3.org/1999/xlink" width="70pt" height="70pt" viewBox="0 0 70 70" version="1.1">
<defs>
<linearGradient id="linear0" gradientUnits="userSpaceOnUse" x1="9" y1="19.85" x2="9" y2="-1.02" gradientTransform="matrix(3.888889,0,0,3.888889,0,0)">
<stop offset="0" style="stop-color:rgb(36.862745%,58.823529%,14.117647%);stop-opacity:1;"/>
<stop offset="0.02" style="stop-color:rgb(37.254902%,59.215686%,14.117647%);stop-opacity:1;"/>
<stop offset="1" style="stop-color:rgb(46.27451%,73.72549%,17.647059%);stop-opacity:1;"/>
</linearGradient>
</defs>
<g id="surface1">
<path style=" stroke:none;fill-rule:nonzero;fill:url(#linear0);" d="M 0.699219 33.328125 L 33.328125 0.699219 C 33.519531 -8.503906 26.21875 -16.121094 17.015625 -16.3125 C 7.8125 -16.507813 0.191406 -9.203125 0 0 L 32.628906 32.628906 C 23.617188 41.636719 9.011719 41.636719 0 32.628906 C -9.011719 23.617188 -9.011719 9.011719 0 0 L -32.667969 32.667969 C -41.6875 32.667969 -49 25.355469 -49 16.332031 C -49 7.3125 -41.6875 0 -32.667969 0 L -65.332031 -32.667969 C -56.3125 -41.6875 -41.6875 -41.6875 -32.667969 -32.667969 C -23.644531 -23.644531 -23.644531 -9.019531 -32.667969 0 Z M 0.699219 33.328125 "/>
<path style=" stroke:none;fill-rule:nonzero;fill:rgb(70.588235%,92.54902%,21.176471%);fill-opacity:1;" d="M 43.554688 15.554688 L 35.3125 7.351563 C 33.28125 7.351563 31.636719 5.703125 31.636719 3.675781 C 31.636719 1.644531 33.28125 0 35.3125 0 L 26.445313 15.554688 C 22.148438 13.105469 20.652344 7.640625 23.101563 3.34375 C 25.546875 -0.949219 31.015625 -2.449219 35.3125 0 L 40.132813 0 C 40.132813 1.332031 39.054688 2.410156 37.722656 2.410156 C 36.390625 2.410156 35.3125 1.332031 35.3125 0 L 35.3125 7.777344 C 33.164063 7.777344 31.421875 6.035156 31.421875 3.890625 C 31.421875 1.742188 33.164063 0 35.3125 0 L 40.445313 0 C 40.445313 1.417969 39.296875 2.566406 37.878906 2.566406 C 36.460938 2.566406 35.3125 1.417969 35.3125 0 L 35.3125 -7.777344 C 37.457031 -7.777344 39.199219 -6.035156 39.199219 -3.890625 C 39.199219 -1.742188 37.457031 0 35.3125 0 L 40.132813 0 C 40.132813 1.332031 39.054688 2.410156 37.722656 2.410156 C 36.390625 2.410156 35.3125 1.332031 35.3125 0 Z M 15.554688 25.707031 L 7.390625 33.988281 C -1.996094 26.277344 -3.355469 12.417969 4.355469 3.035156 C 12.066406 -6.351563 25.925781 -7.710938 35.3125 0 L 15.554688 42.777344 C 3.742188 37.324219 -1.410156 23.324219 4.042969 11.511719 C 9.5 -0.300781 23.5 -5.457031 35.3125 0 L 35.3125 37.683594 C 24.90625 37.683594 16.46875 29.246094 16.46875 18.839844 C 16.46875 8.4375 24.90625 0 35.3125 0 L 43.089844 0 C 43.089844 2.148438 41.347656 3.890625 39.199219 3.890625 C 37.050781 3.890625 35.3125 2.148438 35.3125 0 L 35.3125 31.695313 C 26.558594 31.695313 19.464844 24.597656 19.464844 15.847656 C 19.464844 7.09375 26.558594 0 35.3125 0 L 27.535156 0 C 27.6875 0.0898438 27.761719 0.265625 27.714844 0.4375 C 27.667969 0.609375 27.515625 0.726563 27.339844 0.726563 C 27.164063 0.726563 27.007813 0.609375 26.964844 0.4375 C 26.917969 0.265625 26.992188 0.0898438 27.144531 0 L 27.144531 26.015625 C 19.960938 26.015625 14.136719 20.191406 14.136719 13.007813 C 14.136719 5.824219 19.960938 0 27.144531 0 Z M 54.753906 42.777344 L 63.039063 34.535156 C 53.503906 44.445313 37.738281 44.75 27.824219 35.214844 C 17.914063 25.679688 17.609375 9.910156 27.144531 0 L 18.859375 -8.246094 C 21.136719 -8.332031 23.054688 -6.554688 23.140625 -4.277344 C 23.226563 -2 21.449219 -0.0859375 19.171875 0 L 19.171875 4.859375 C 17.828125 4.753906 16.828125 3.578125 16.9375 2.234375 C 17.042969 0.894531 18.21875 -0.105469 19.5625 0 L 11.785156 0 C 11.914063 -0.0859375 12.082031 -0.0859375 12.210938 0 L 12.210938 5.132813 C 10.792969 5.132813 9.644531 3.984375 9.644531 2.566406 C 9.644531 1.148438 10.792969 0 12.210938 0 L 19.988281 0 C 19.988281 2.148438 18.246094 3.890625 16.101563 3.890625 C 13.953125 3.890625 12.210938 2.148438 12.210938 0 L 12.210938 4.820313 C 10.878906 4.820313 9.800781 3.742188 9.800781 2.410156 C 9.800781 1.078125 10.878906 0 12.210938 0 Z M 54.753906 42.777344 "/>
<path style=" stroke:none;fill-rule:nonzero;fill:rgb(100%,100%,100%);fill-opacity:1;" d="M 45.851563 35 C 36.183594 32.132813 30.675781 21.972656 33.542969 12.308594 C 36.410156 2.644531 46.566406 -2.867188 56.234375 0 L 56.234375 3.695313 C 57.152344 6.875 60.273438 8.894531 63.554688 8.429688 C 66.835938 7.96875 69.273438 5.160156 69.273438 1.847656 C 69.273438 -1.464844 66.835938 -4.273438 63.554688 -4.738281 C 60.273438 -5.203125 57.152344 -3.183594 56.234375 0 L 56.234375 -3.890625 C 57.238281 -9.367188 62.257813 -13.175781 67.804688 -12.671875 C 73.351563 -12.167969 77.601563 -7.515625 77.601563 -1.945313 C 77.601563 3.625 73.351563 8.277344 67.804688 8.785156 C 62.257813 9.289063 57.238281 5.480469 56.234375 0 Z M 45.851563 35 "/>
<path style=" stroke:none;fill-rule:nonzero;fill:rgb(36.862745%,62.745098%,93.72549%);fill-opacity:1;" d="M 41.339844 34.960938 C 41.339844 38.441406 38.519531 41.261719 35.039063 41.261719 C 31.558594 41.261719 28.738281 38.441406 28.738281 34.960938 C 28.738281 31.480469 31.558594 28.660156 35.039063 28.660156 C 38.519531 28.660156 41.339844 31.480469 41.339844 34.960938 Z M 41.339844 34.960938 "/>
</g>
</svg>
