<?xml version="1.0" encoding="UTF-8"?>
<svg xmlns="http://www.w3.org/2000/svg" xmlns:xlink="http://www.w3.org/1999/xlink" width="70pt" height="70pt" viewBox="0 0 70 70" version="1.1">
<defs>
<linearGradient id="linear0" gradientUnits="userSpaceOnUse" x1="0.5" y1="9.96" x2="12.43" y2="9.96" gradientTransform="matrix(3.888889,0,0,3.888889,0,0)">
<stop offset="0" style="stop-color:rgb(0%,35.686275%,63.137255%);stop-opacity:1;"/>
<stop offset="0.07" style="stop-color:rgb(0%,37.647059%,66.27451%);stop-opacity:1;"/>
<stop offset="0.36" style="stop-color:rgb(0%,44.313725%,78.431373%);stop-opacity:1;"/>
<stop offset="0.52" style="stop-color:rgb(0%,47.058824%,83.137255%);stop-opacity:1;"/>
<stop offset="0.64" style="stop-color:rgb(0%,45.490196%,80.392157%);stop-opacity:1;"/>
<stop offset="0.82" style="stop-color:rgb(0%,41.568627%,73.333333%);stop-opacity:1;"/>
<stop offset="1" style="stop-color:rgb(0%,35.686275%,63.137255%);stop-opacity:1;"/>
</linearGradient>
<linearGradient id="linear1" gradientUnits="userSpaceOnUse" x1="11.77" y1="17.03" x2="11.77" y2="8.9" gradientTransform="matrix(3.888889,0,0,3.888889,0,0)">
<stop offset="0" style="stop-color:rgb(9.803922%,54.117647%,70.196078%);stop-opacity:1;"/>
<stop offset="0" style="stop-color:rgb(9.803922%,54.117647%,70.196078%);stop-opacity:1;"/>
<stop offset="0.11" style="stop-color:rgb(13.333333%,64.705882%,79.607843%);stop-opacity:1;"/>
<stop offset="0.23" style="stop-color:rgb(16.078431%,72.941176%,87.058824%);stop-opacity:1;"/>
<stop offset="0.37" style="stop-color:rgb(18.039216%,78.823529%,92.156863%);stop-opacity:1;"/>
<stop offset="0.53" style="stop-color:rgb(19.215686%,81.960784%,95.294118%);stop-opacity:1;"/>
<stop offset="0.78" style="stop-color:rgb(19.607843%,83.137255%,96.078431%);stop-opacity:1;"/>
</linearGradient>
</defs>
<g id="surface1">
<path style=" stroke:none;fill-rule:nonzero;fill:url(#linear0);" d="M 25.160156 20.609375 C 12.328125 20.609375 1.828125 16.722656 1.828125 12.210938 L 1.828125 56.894531 C 1.828125 61.484375 12.054688 65.253906 24.695313 65.292969 L 25.042969 65.292969 C 37.839844 65.292969 48.378906 61.40625 48.378906 56.894531 L 48.378906 12.210938 C 48.339844 16.839844 37.957031 20.609375 25.160156 20.609375 Z M 25.160156 20.609375 "/>
<path style=" stroke:none;fill-rule:nonzero;fill:rgb(91.764706%,91.764706%,91.764706%);fill-opacity:1;" d="M 48.339844 12.210938 C 48.339844 16.839844 37.957031 20.609375 25.003906 20.609375 C 12.054688 20.609375 1.671875 16.722656 1.671875 12.210938 C 1.671875 7.699219 12.328125 3.890625 25.160156 3.890625 C 37.996094 3.890625 48.496094 7.777344 48.496094 12.328125 "/>
<path style=" stroke:none;fill-rule:nonzero;fill:rgb(31.372549%,90.196078%,100%);fill-opacity:1;" d="M 42.777344 11.667969 C 42.777344 14.621094 35 16.996094 25.003906 16.996094 C 15.011719 16.996094 7.351563 14.464844 7.351563 11.667969 C 7.351563 8.867188 15.320313 6.183594 25.160156 6.183594 C 35 6.183594 42.777344 8.554688 42.777344 11.667969 "/>
<path style=" stroke:none;fill-rule:nonzero;fill:rgb(9.803922%,54.117647%,70.196078%);fill-opacity:1;" d="M 25.160156 12.753906 C 33.277344 25.523438 34.042969 41.625 27.183594 55.105469 L 69.417969 55.105469 C 95.023438 59.972656 115.78125 60.765625 115.78125 56.878906 C 115.78125 52.992188 95.023438 45.894531 69.417969 41.027344 Z M 25.160156 12.753906 "/>
<path style=" stroke:none;fill-rule:nonzero;fill:url(#linear1);" d="M 65.140625 49.542969 C 66.933594 53.929688 65.78125 58.972656 62.261719 62.144531 L 75.289063 75.171875 L 97.261719 75.171875 C 97.027344 70.96875 99.410156 67.058594 103.25 65.339844 C 107.09375 63.621094 111.597656 64.453125 114.574219 67.425781 C 117.546875 70.402344 118.378906 74.90625 116.660156 78.75 C 114.941406 82.589844 111.03125 84.972656 106.828125 84.738281 "/>
<path style=" stroke:none;fill-rule:nonzero;fill:rgb(100%,100%,100%);fill-opacity:1;" d="M 55.609375 61.445313 L 51.957031 61.445313 L 51.957031 48.105469 C 51.957031 49.078125 51.566406 49.816406 51.449219 50.285156 L 47.5625 61.445313 L 44.527344 61.445313 L 40.640625 50.359375 C 26.730469 50.984375 14.953125 40.214844 14.332031 26.308594 C 13.707031 12.402344 24.476563 0.621094 38.382813 0 L 38.382813 13.339844 L 35.117188 13.339844 L 35.117188 -3.109375 L 40.5625 -3.109375 L 43.90625 6.648438 C 46.027344 12.496094 43.640625 19.023438 38.246094 22.117188 C 32.851563 25.210938 26.011719 23.976563 22.035156 19.191406 C 18.0625 14.40625 18.105469 7.457031 22.140625 2.722656 C 26.171875 -2.011719 33.027344 -3.160156 38.382813 0 C 38.578125 -0.894531 38.8125 -1.710938 39.003906 -2.371094 L 42.390625 -12.09375 L 47.753906 -12.09375 Z M 55.609375 61.445313 "/>
</g>
</svg>
