<?xml version="1.0" encoding="UTF-8"?>
<svg xmlns="http://www.w3.org/2000/svg" xmlns:xlink="http://www.w3.org/1999/xlink" width="52pt" height="70pt" viewBox="0 0 52 70" version="1.1">
<g id="surface1">
<path style=" stroke:none;fill-rule:nonzero;fill:rgb(0%,0%,0%);fill-opacity:1;" d="M 52 8.75 L 52 70 L 0 70 L 0 8.75 L 17.332031 8.75 C 16.90625 13.429688 13.453125 17.25 8.878906 18.109375 C 4.304688 18.96875 -0.277344 16.65625 -2.34375 12.445313 C -4.40625 8.234375 -3.449219 3.152344 0 0 L 1.734375 -2.625 L 4.332031 -4.375 L 26 0 L 29.464844 0.875 L 32.066406 2.625 L 33.800781 5.25 C 32.363281 14.671875 23.632813 21.136719 14.300781 19.6875 C 4.964844 18.238281 -1.4375 9.421875 0 0 Z M 47.667969 13.125 L 43.332031 13.125 L 43.332031 21.875 L 8.667969 21.875 L 8.667969 13.125 L 4.332031 13.125 L 4.332031 65.625 L 47.667969 65.625 Z M 8.667969 30.625 L 13 30.625 L 13 35 L 8.667969 35 Z M 8.667969 43.75 L 13 43.75 L 13 48.125 L 8.667969 48.125 Z M 8.667969 56.875 L 13 56.875 L 13 61.25 L 8.667969 61.25 Z M 13 17.5 L 39 17.5 L 39 13.125 L 30.332031 13.125 L 30.332031 8.75 C 27.941406 9.234375 25.613281 7.667969 25.132813 5.25 C 24.65625 2.832031 26.207031 0.484375 28.601563 0 C 28.601563 -0.4375 28.167969 -0.875 27.734375 -1.3125 L 26.433594 -2.1875 L 22.964844 -2.1875 L 21.667969 -1.3125 C 21.234375 -0.875 20.800781 -0.4375 20.800781 0 C 20.800781 5.800781 16.144531 10.5 10.398438 10.5 C 4.65625 10.5 0 5.800781 0 0 L 0 4.375 L 13 4.375 Z M 17.332031 30.625 L 43.332031 30.625 L 43.332031 35 L 17.332031 35 Z M 17.332031 43.75 L 43.332031 43.75 L 43.332031 48.125 L 17.332031 48.125 Z M 17.332031 56.875 L 43.332031 56.875 L 43.332031 61.25 L 17.332031 61.25 Z M 17.332031 56.875 "/>
</g>
</svg>
