<?xml version="1.0" encoding="UTF-8"?>
<svg xmlns="http://www.w3.org/2000/svg" xmlns:xlink="http://www.w3.org/1999/xlink" width="70pt" height="70pt" viewBox="0 0 70 70" version="1.1">
<defs>
<linearGradient id="linear0" gradientUnits="userSpaceOnUse" x1="8.15" y1="17.5" x2="8.15" y2="2.09" gradientTransform="matrix(3.888889,0,0,3.888889,0,0)">
<stop offset="0" style="stop-color:rgb(9.803922%,53.333333%,85.098039%);stop-opacity:1;"/>
<stop offset="0.9" style="stop-color:rgb(32.941176%,68.235294%,94.117647%);stop-opacity:1;"/>
</linearGradient>
</defs>
<g id="surface1">
<path style=" stroke:none;fill-rule:nonzero;fill:rgb(0%,35.686275%,63.137255%);fill-opacity:1;" d="M 7.503906 8.207031 L 12.210938 2.722656 C 11.460938 6.09375 8.117188 8.21875 4.746094 7.464844 C 1.371094 6.714844 -0.75 3.371094 0 0 L 59.109375 0 C 59.109375 16.324219 45.878906 29.554688 29.554688 29.554688 C 13.234375 29.554688 0 16.324219 0 0 L 0 56.390625 C -15.570313 55.925781 -27.820313 42.929688 -27.359375 27.359375 C -26.898438 11.785156 -13.898438 -0.460938 1.671875 0 L -3.382813 4.628906 L 10.578125 4.628906 L 7.429688 3.34375 Z M 7.503906 8.207031 "/>
<path style=" stroke:none;fill-rule:nonzero;fill:rgb(100%,100%,100%);fill-opacity:1;" d="M 11.316406 8.167969 L 14.195313 4.898438 C 12.839844 8.820313 8.566406 10.898438 4.648438 9.546875 C 0.726563 8.195313 -1.351563 3.917969 0 0 L 42.351563 0 C 42.351563 11.695313 32.871094 21.175781 21.175781 21.175781 C 9.480469 21.175781 0 11.695313 0 0 L 0 53.589844 C -14.796875 53.171875 -26.453125 40.835938 -26.035156 26.035156 C -25.617188 11.238281 -13.28125 -0.417969 1.515625 0 L -2.996094 4.082031 Z M 11.316406 8.167969 "/>
<path style=" stroke:none;fill-rule:nonzero;fill:url(#linear0);" d="M 54.445313 8.128906 L 7.777344 8.128906 C 5.535156 8.0625 3.765625 6.191406 3.832031 3.945313 C 3.894531 1.703125 5.765625 -0.0625 8.011719 0 L 8.011719 58.332031 C -8.097656 58.332031 -21.15625 45.273438 -21.15625 29.167969 C -21.15625 13.058594 -8.097656 0 8.011719 0 L 54.445313 0 C 54.445313 12.820313 44.050781 23.214844 31.226563 23.214844 C 18.40625 23.214844 8.011719 12.820313 8.011719 0 L 8.011719 9.644531 C 5.347656 10.0625 2.847656 8.242188 2.429688 5.582031 C 2.011719 2.917969 3.832031 0.417969 6.496094 0 Z M 54.445313 8.128906 "/>
<path style=" stroke:none;fill-rule:nonzero;fill:rgb(100%,100%,100%);fill-opacity:1;" d="M 19.445313 24.109375 L 42.855469 24.109375 C 43.457031 24.109375 43.945313 24.597656 43.945313 25.199219 L 43.945313 32.277344 C 43.945313 32.878906 43.457031 33.367188 42.855469 33.367188 L 19.445313 33.367188 C 18.84375 33.367188 18.355469 32.878906 18.355469 32.277344 L 18.355469 25.199219 C 18.355469 24.597656 18.84375 24.109375 19.445313 24.109375 Z M 19.445313 24.109375 "/>
</g>
</svg>
