<?xml version="1.0" encoding="UTF-8"?>
<svg xmlns="http://www.w3.org/2000/svg" xmlns:xlink="http://www.w3.org/1999/xlink" width="70pt" height="70pt" viewBox="0 0 70 70" version="1.1">
<defs>
<linearGradient id="linear0" gradientUnits="userSpaceOnUse" x1="7.05" y1="8.98" x2="7.05" y2="0.34" gradientTransform="matrix(3.888889,0,0,3.888889,0,0)">
<stop offset="0" style="stop-color:rgb(0%,47.058824%,83.137255%);stop-opacity:1;"/>
<stop offset="1" style="stop-color:rgb(36.862745%,62.745098%,93.72549%);stop-opacity:1;"/>
</linearGradient>
<linearGradient id="linear1" gradientUnits="userSpaceOnUse" x1="7.05" y1="3.78" x2="7.05" y2="2.4" gradientTransform="matrix(3.888889,0,0,3.888889,0,0)">
<stop offset="0" style="stop-color:rgb(9.803922%,30.980392%,60.784314%);stop-opacity:0;"/>
<stop offset="0.26" style="stop-color:rgb(9.803922%,30.980392%,61.176471%);stop-opacity:0.0117647;"/>
<stop offset="0.41" style="stop-color:rgb(9.411765%,31.764706%,61.960784%);stop-opacity:0.0509804;"/>
<stop offset="0.52" style="stop-color:rgb(8.627451%,32.941176%,63.529412%);stop-opacity:0.109804;"/>
<stop offset="0.62" style="stop-color:rgb(7.843137%,34.117647%,65.490196%);stop-opacity:0.211765;"/>
<stop offset="0.71" style="stop-color:rgb(6.666667%,36.078431%,68.235294%);stop-opacity:0.329412;"/>
<stop offset="0.8" style="stop-color:rgb(5.098039%,38.431373%,71.372549%);stop-opacity:0.470588;"/>
<stop offset="0.88" style="stop-color:rgb(3.529412%,41.568627%,75.294118%);stop-opacity:0.65098;"/>
<stop offset="0.95" style="stop-color:rgb(1.568627%,44.705882%,79.607843%);stop-opacity:0.85098;"/>
<stop offset="1" style="stop-color:rgb(0%,47.058824%,83.137255%);stop-opacity:1;"/>
</linearGradient>
</defs>
<g id="surface1">
<path style=" stroke:none;fill-rule:nonzero;fill:rgb(58.039216%,58.039216%,58.039216%);fill-opacity:1;" d="M 61.367188 34.570313 L 68.640625 27.222656 C 69.222656 26.601563 69.027344 26.09375 68.132813 26.09375 L 64.515625 26.09375 C 57.3125 26.351563 51.261719 20.71875 51.003906 13.515625 C 50.746094 6.308594 56.378906 0.257813 63.582031 0 C 63.582031 -4.589844 62.417969 -17.382813 44.917969 -17.8125 C 49.835938 -18.058594 54.023438 -14.269531 54.269531 -9.351563 C 54.515625 -4.433594 50.730469 -0.246094 45.8125 0 L 45.8125 4.433594 C 48.765625 1.480469 53.550781 1.480469 56.503906 4.433594 C 59.457031 7.386719 59.457031 12.175781 56.503906 15.128906 L 56.503906 19.015625 L 53.121094 19.015625 C 52.226563 19.015625 52.035156 19.523438 52.617188 20.183594 L 59.382813 27.570313 C 57.019531 38.398438 46.332031 45.257813 35.503906 42.894531 C 24.679688 40.53125 17.820313 29.839844 20.183594 19.015625 Z M 61.367188 34.570313 "/>
<path style=" stroke:none;fill-rule:nonzero;fill:url(#linear0);" d="M 5.40625 1.320313 L 49.429688 1.320313 C 50.652344 1.320313 51.644531 2.316406 51.644531 3.539063 L 51.644531 32.707031 C 51.644531 33.929688 50.652344 34.921875 49.429688 34.921875 L 5.40625 34.921875 C 4.179688 34.921875 3.1875 33.929688 3.1875 32.707031 L 3.1875 3.539063 C 3.1875 2.316406 4.179688 1.320313 5.40625 1.320313 Z M 5.40625 1.320313 "/>
<path style=" stroke:none;fill-rule:nonzero;fill:rgb(51.372549%,72.54902%,97.647059%);fill-opacity:1;" d="M 5.367188 1.320313 L 50.050781 1.320313 C 49.683594 15.144531 38.183594 26.050781 24.363281 25.6875 C 10.542969 25.320313 -0.363281 13.820313 0 0 L 0 9.332031 L 3.1875 9.332031 L 3.1875 3.539063 C 2.210938 4.417969 0.707031 4.339844 -0.175781 3.363281 C -1.054688 2.386719 -0.976563 0.878906 0 0 Z M 5.367188 1.320313 "/>
<path style=" stroke:none;fill-rule:nonzero;fill:url(#linear1);" d="M 3.1875 9.332031 L 51.644531 9.332031 L 51.644531 14.699219 L 3.1875 14.699219 Z M 3.1875 9.332031 "/>
<path style=" stroke:none;fill-rule:nonzero;fill:rgb(0%,35.686275%,63.137255%);fill-opacity:1;" d="M 39.898438 42.582031 L 67.898438 42.582031 C 68.671875 42.582031 69.300781 43.210938 69.300781 43.984375 L 69.300781 62.535156 C 69.300781 63.304688 68.671875 63.933594 67.898438 63.933594 L 39.898438 63.933594 C 39.125 63.933594 38.5 63.304688 38.5 62.535156 L 38.5 43.984375 C 38.5 43.210938 39.125 42.582031 39.898438 42.582031 Z M 39.898438 42.582031 "/>
<path style=" stroke:none;fill-rule:nonzero;fill:rgb(100%,100%,100%);fill-opacity:1;" d="M 10.148438 12.40625 L 44.644531 12.40625 C 41.21875 24.734375 28.449219 31.949219 16.121094 28.523438 C 3.792969 25.097656 -3.425781 12.328125 0 0 L 0 3.617188 C -1 3.433594 -1.660156 2.476563 -1.476563 1.476563 C -1.296875 0.480469 -0.335938 -0.183594 0.660156 0 L 10.148438 0 C 10.433594 0.152344 10.578125 0.476563 10.5 0.789063 C 10.421875 1.097656 10.140625 1.316406 9.820313 1.316406 C 9.5 1.316406 9.21875 1.097656 9.140625 0.789063 C 9.0625 0.476563 9.207031 0.152344 9.488281 0 L 9.488281 -3.617188 C 10.488281 -3.617188 11.296875 -2.808594 11.296875 -1.808594 C 11.296875 -0.808594 10.488281 0 9.488281 0 Z M 10.148438 19.445313 L 44.683594 19.445313 C 39.3125 29.164063 27.082031 32.6875 17.363281 27.320313 C 7.644531 21.949219 4.121094 9.71875 9.488281 0 L 9.488281 3.617188 C 8.488281 3.421875 7.835938 2.457031 8.03125 1.457031 C 8.222656 0.460938 9.191406 -0.191406 10.1875 0 L 10.148438 0 C 10.425781 0.160156 10.558594 0.480469 10.476563 0.789063 C 10.394531 1.09375 10.117188 1.304688 9.800781 1.304688 C 9.484375 1.304688 9.207031 1.09375 9.125 0.789063 C 9.042969 0.480469 9.175781 0.160156 9.449219 0 L 9.449219 -3.460938 C 10.40625 -3.460938 11.179688 -2.6875 11.179688 -1.730469 C 11.179688 -0.773438 10.40625 0 9.449219 0 Z M 10.148438 26.792969 L 44.683594 26.792969 C 37.285156 36.523438 23.398438 38.414063 13.667969 31.015625 C 3.941406 23.613281 2.050781 9.730469 9.449219 0 L 9.449219 31.109375 C 0.859375 30.929688 -5.957031 23.816406 -5.773438 15.226563 C -5.59375 6.632813 1.519531 -0.183594 10.109375 0 L 10.148438 0 C 10.53125 0.0117188 10.835938 0.328125 10.832031 0.710938 C 10.824219 1.09375 10.511719 1.398438 10.128906 1.398438 C 9.746094 1.398438 9.4375 1.09375 9.429688 0.710938 C 9.425781 0.328125 9.726563 0.0117188 10.109375 0 L 10.109375 -3.617188 C 11.109375 -3.617188 11.917969 -2.808594 11.917969 -1.808594 C 11.917969 -0.808594 11.109375 0 10.109375 0 Z M 10.148438 26.792969 "/>
<path style=" stroke:none;fill-rule:nonzero;fill:rgb(0%,47.058824%,83.137255%);fill-opacity:1;" d="M 34.804688 37.996094 L 62.804688 37.996094 C 63.578125 37.996094 64.207031 38.621094 64.207031 39.394531 L 64.207031 57.945313 C 64.207031 58.71875 63.578125 59.34375 62.804688 59.34375 L 34.804688 59.34375 C 34.03125 59.34375 33.40625 58.71875 33.40625 57.945313 L 33.40625 39.394531 C 33.40625 38.621094 34.03125 37.996094 34.804688 37.996094 Z M 34.804688 37.996094 "/>
<path style=" stroke:none;fill-rule:nonzero;fill:rgb(51.372549%,72.54902%,97.647059%);fill-opacity:1;" d="M 35 37.996094 L 63.390625 37.996094 C 52.898438 55.5 30.203125 61.183594 12.695313 50.691406 C -4.808594 40.199219 -10.492188 17.503906 0 0 L 0 3.890625 L 33.40625 3.890625 L 33.40625 0.195313 C 33.351563 9.417969 25.832031 16.855469 16.605469 16.800781 C 7.382813 16.746094 -0.0546875 9.226563 0 0 Z M 35 37.996094 "/>
<path style=" stroke:none;fill-rule:nonzero;fill:rgb(100%,100%,100%);fill-opacity:1;" d="M 37.839844 45.070313 L 59.773438 45.070313 C 47.324219 61.578125 23.855469 64.867188 7.351563 52.421875 C -9.15625 39.976563 -12.445313 16.503906 0 0 L 0 2.292969 C -0.632813 2.175781 -1.050781 1.566406 -0.933594 0.933594 C -0.816406 0.300781 -0.207031 -0.117188 0.429688 0 L 37.839844 0 C 38.007813 0.0976563 38.089844 0.292969 38.039063 0.480469 C 37.988281 0.667969 37.820313 0.796875 37.625 0.796875 C 37.429688 0.796875 37.261719 0.667969 37.210938 0.480469 C 37.160156 0.292969 37.242188 0.0976563 37.410156 0 L 37.410156 -2.292969 C 38.042969 -2.292969 38.558594 -1.78125 38.558594 -1.148438 C 38.558594 -0.511719 38.042969 0 37.410156 0 Z M 37.839844 49.621094 L 59.773438 49.621094 C 46.070313 55.796875 29.957031 49.695313 23.78125 35.992188 C 17.605469 22.289063 23.707031 6.175781 37.410156 0 L 37.410156 2.292969 C 36.777344 2.175781 36.359375 1.566406 36.476563 0.933594 C 36.597656 0.300781 37.207031 -0.117188 37.839844 0 C 38.03125 0.0976563 38.128906 0.316406 38.078125 0.523438 C 38.027344 0.734375 37.839844 0.882813 37.625 0.882813 C 37.410156 0.882813 37.222656 0.734375 37.171875 0.523438 C 37.121094 0.316406 37.21875 0.0976563 37.410156 0 L 37.410156 -2.292969 C 38.042969 -2.292969 38.558594 -1.78125 38.558594 -1.148438 C 38.558594 -0.511719 38.042969 0 37.410156 0 Z M 37.839844 54.210938 L 59.773438 54.210938 C 44.800781 60.386719 27.660156 53.257813 21.484375 38.285156 C 15.3125 23.316406 22.441406 6.175781 37.410156 0 L 37.410156 2.292969 C 36.777344 2.175781 36.359375 1.566406 36.476563 0.933594 C 36.597656 0.300781 37.207031 -0.117188 37.839844 0 C 38.03125 0.0976563 38.128906 0.316406 38.078125 0.523438 C 38.027344 0.734375 37.839844 0.882813 37.625 0.882813 C 37.410156 0.882813 37.222656 0.734375 37.171875 0.523438 C 37.121094 0.316406 37.21875 0.0976563 37.410156 0 L 37.410156 -2.292969 C 38.042969 -2.292969 38.558594 -1.78125 38.558594 -1.148438 C 38.558594 -0.511719 38.042969 0 37.410156 0 Z M 37.839844 54.210938 "/>
</g>
</svg>
