<?xml version="1.0" encoding="UTF-8"?>
<svg xmlns="http://www.w3.org/2000/svg" xmlns:xlink="http://www.w3.org/1999/xlink" width="70pt" height="70pt" viewBox="0 0 70 70" version="1.1">
<defs>
<linearGradient id="linear0" gradientUnits="userSpaceOnUse" x1="9" y1="0.5" x2="9" y2="17.5" gradientTransform="matrix(3.888889,0,0,3.888889,0,0)">
<stop offset="0" style="stop-color:rgb(36.862745%,62.745098%,93.72549%);stop-opacity:1;"/>
<stop offset="0.18" style="stop-color:rgb(33.333333%,61.176471%,92.54902%);stop-opacity:1;"/>
<stop offset="0.47" style="stop-color:rgb(23.529412%,56.862745%,89.803922%);stop-opacity:1;"/>
<stop offset="0.84" style="stop-color:rgb(7.45098%,50.196078%,85.490196%);stop-opacity:1;"/>
<stop offset="1" style="stop-color:rgb(0%,47.058824%,83.137255%);stop-opacity:1;"/>
</linearGradient>
</defs>
<g id="surface1">
<path style=" stroke:none;fill-rule:nonzero;fill:url(#linear0);" d="M 54.445313 4.160156 L 54.445313 65.839844 C 36.261719 65.226563 22.019531 49.992188 22.632813 31.8125 C 23.246094 13.628906 38.480469 -0.613281 56.660156 0 L 17.773438 0 C 18.617188 0.5 19.023438 1.503906 18.765625 2.449219 C 18.503906 3.394531 17.644531 4.050781 16.664063 4.050781 C 15.683594 4.050781 14.820313 3.394531 14.5625 2.449219 C 14.304688 1.503906 14.710938 0.5 15.554688 0 L 15.554688 4.160156 C 14.660156 4.4375 13.691406 4.113281 13.144531 3.351563 C 12.597656 2.59375 12.597656 1.570313 13.144531 0.808594 C 13.691406 0.0507813 14.660156 -0.277344 15.554688 0 L 50.011719 0 C 50.011719 9.515625 42.296875 17.226563 32.785156 17.226563 C 23.269531 17.226563 15.554688 9.515625 15.554688 0 Z M 54.445313 4.160156 "/>
<path style=" stroke:none;fill-rule:nonzero;fill:rgb(94.901961%,94.901961%,94.901961%);fill-opacity:1;" d="M 20.726563 8.828125 L 27.222656 8.828125 C 24.785156 16.34375 16.714844 20.460938 9.195313 18.023438 C 1.679688 15.585938 -2.4375 7.515625 0 0 L 0 8.167969 C -2.253906 8.015625 -3.960938 6.066406 -3.8125 3.8125 C -3.660156 1.554688 -1.710938 -0.148438 0.542969 0 L 20.726563 0 C 20.964844 0.125 21.085938 0.394531 21.023438 0.65625 C 20.957031 0.917969 20.722656 1.097656 20.457031 1.097656 C 20.1875 1.097656 19.953125 0.917969 19.890625 0.65625 C 19.824219 0.394531 19.945313 0.125 20.183594 0 L 20.183594 -8.167969 C 22.4375 -8.167969 24.265625 -6.339844 24.265625 -4.082031 C 24.265625 -1.828125 22.4375 0 20.183594 0 Z M 31.851563 8.828125 L 38.148438 8.828125 C 35.710938 13.789063 29.714844 15.835938 24.753906 13.398438 C 19.792969 10.960938 17.746094 4.960938 20.183594 0 L 20.183594 8.167969 C 17.929688 8.015625 16.222656 6.066406 16.371094 3.8125 C 16.523438 1.554688 18.472656 -0.148438 20.726563 0 L 31.851563 0 C 32.0625 0.125 32.167969 0.375 32.105469 0.613281 C 32.039063 0.851563 31.824219 1.015625 31.578125 1.015625 C 31.332031 1.015625 31.117188 0.851563 31.050781 0.613281 C 30.988281 0.375 31.09375 0.125 31.304688 0 L 31.304688 -8.167969 C 33.5625 -8.167969 35.390625 -6.339844 35.390625 -4.082031 C 35.390625 -1.828125 33.5625 0 31.304688 0 Z M 42.972656 8.828125 L 49.273438 8.828125 C 46.835938 13.789063 40.835938 15.835938 35.875 13.398438 C 30.914063 10.960938 28.867188 4.960938 31.304688 0 L 31.304688 8.167969 C 29.050781 8.015625 27.34375 6.066406 27.496094 3.8125 C 27.644531 1.554688 29.59375 -0.148438 31.851563 0 L 25.550781 0 C 25.761719 0.125 25.867188 0.375 25.804688 0.613281 C 25.738281 0.851563 25.523438 1.015625 25.277344 1.015625 C 25.03125 1.015625 24.816406 0.851563 24.75 0.613281 C 24.6875 0.375 24.792969 0.125 25.003906 0 L 25.003906 -8.167969 C 27.261719 -8.167969 29.089844 -6.339844 29.089844 -4.082031 C 29.089844 -1.828125 27.261719 0 25.003906 0 Z M 20.726563 23.644531 L 27.222656 23.644531 C 20.691406 24.257813 14.902344 19.460938 14.292969 12.929688 C 13.679688 6.402344 18.476563 0.613281 25.003906 0 L 25.003906 8.167969 C 22.75 8.003906 21.054688 6.046875 21.214844 3.792969 C 21.375 1.535156 23.332031 -0.160156 25.589844 0 L 20.726563 0 C 20.957031 0.132813 21.066406 0.402344 21 0.65625 C 20.929688 0.910156 20.699219 1.089844 20.4375 1.089844 C 20.171875 1.089844 19.941406 0.910156 19.871094 0.65625 C 19.804688 0.402344 19.914063 0.132813 20.144531 0 L 20.144531 -8.167969 C 22.398438 -8.167969 24.226563 -6.339844 24.226563 -4.082031 C 24.226563 -1.828125 22.398438 0 20.144531 0 Z M 31.851563 23.644531 L 38.148438 23.644531 C 31.621094 28.617188 22.296875 27.355469 17.324219 20.824219 C 12.351563 14.296875 13.613281 4.972656 20.144531 0 L 20.144531 8.167969 C 17.890625 8.003906 16.191406 6.046875 16.351563 3.792969 C 16.515625 1.535156 18.472656 -0.160156 20.726563 0 L 31.851563 0 C 32.078125 0.132813 32.191406 0.402344 32.121094 0.65625 C 32.054688 0.910156 31.824219 1.089844 31.558594 1.089844 C 31.292969 1.089844 31.0625 0.910156 30.996094 0.65625 C 30.925781 0.402344 31.039063 0.132813 31.265625 0 L 31.265625 -8.167969 C 33.523438 -8.167969 35.351563 -6.339844 35.351563 -4.082031 C 35.351563 -1.828125 33.523438 0 31.265625 0 Z M 42.972656 23.644531 L 49.273438 23.644531 C 42.742188 28.617188 33.417969 27.355469 28.445313 20.824219 C 23.476563 14.296875 24.738281 4.972656 31.265625 0 L 31.265625 8.167969 C 29.011719 8.003906 27.3125 6.046875 27.476563 3.792969 C 27.636719 1.535156 29.59375 -0.160156 31.851563 0 L 25.550781 0 C 25.777344 0.132813 25.890625 0.402344 25.820313 0.65625 C 25.753906 0.910156 25.523438 1.089844 25.257813 1.089844 C 24.996094 1.089844 24.761719 0.910156 24.695313 0.65625 C 24.625 0.402344 24.738281 0.132813 24.964844 0 L 24.964844 -8.167969 C 27.222656 -8.167969 29.050781 -6.339844 29.050781 -4.082031 C 29.050781 -1.828125 27.222656 0 24.964844 0 Z M 20.726563 38.5 L 27.222656 38.5 C 16.589844 39.121094 7.46875 31.007813 6.84375 20.378906 C 6.222656 9.746094 14.335938 0.621094 24.964844 0 L 24.964844 8.167969 C 22.710938 8.015625 21.003906 6.066406 21.15625 3.8125 C 21.304688 1.554688 23.257813 -0.148438 25.511719 0 L 20.726563 0 C 20.964844 0.125 21.085938 0.394531 21.023438 0.65625 C 20.957031 0.917969 20.722656 1.097656 20.457031 1.097656 C 20.1875 1.097656 19.953125 0.917969 19.890625 0.65625 C 19.824219 0.394531 19.945313 0.125 20.183594 0 L 20.183594 38.890625 C 9.445313 38.890625 0.738281 30.183594 0.738281 19.445313 C 0.738281 8.707031 9.445313 0 20.183594 0 Z M 31.851563 38.5 L 38.148438 38.5 C 27.519531 43.460938 14.878906 38.863281 9.917969 28.234375 C 4.957031 17.601563 9.550781 4.960938 20.183594 0 L 20.183594 8.167969 C 17.929688 8.015625 16.222656 6.066406 16.371094 3.8125 C 16.523438 1.554688 18.472656 -0.148438 20.726563 0 L 31.851563 0 C 32.0625 0.125 32.167969 0.375 32.105469 0.613281 C 32.039063 0.851563 31.824219 1.015625 31.578125 1.015625 C 31.332031 1.015625 31.117188 0.851563 31.050781 0.613281 C 30.988281 0.375 31.09375 0.125 31.304688 0 L 31.304688 38.890625 C 20.566406 38.890625 11.859375 30.183594 11.859375 19.445313 C 11.859375 8.707031 20.566406 0 31.304688 0 Z M 31.851563 53.316406 L 38.148438 53.316406 C 23.425781 55.207031 9.960938 44.804688 8.070313 30.082031 C 6.179688 15.359375 16.582031 1.890625 31.304688 0 L 31.304688 66.109375 C 13.050781 65.960938 -1.628906 51.039063 -1.476563 32.785156 C -1.328125 14.527344 13.59375 -0.148438 31.851563 0 C 32.0625 0.125 32.167969 0.375 32.105469 0.613281 C 32.039063 0.851563 31.824219 1.015625 31.578125 1.015625 C 31.332031 1.015625 31.117188 0.851563 31.050781 0.613281 C 30.988281 0.375 31.09375 0.125 31.304688 0 L 31.304688 -12.25 C 34.6875 -12.25 37.429688 -9.507813 37.429688 -6.125 C 37.429688 -2.742188 34.6875 0 31.304688 0 Z M 42.972656 38.5 L 49.273438 38.5 C 38.640625 43.460938 26 38.863281 21.039063 28.234375 C 16.078125 17.601563 20.675781 4.960938 31.304688 0 L 31.304688 8.167969 C 29.050781 8.015625 27.34375 6.066406 27.496094 3.8125 C 27.644531 1.554688 29.59375 -0.148438 31.851563 0 L 25.550781 0 C 25.761719 0.125 25.867188 0.375 25.804688 0.613281 C 25.738281 0.851563 25.523438 1.015625 25.277344 1.015625 C 25.03125 1.015625 24.816406 0.851563 24.75 0.613281 C 24.6875 0.375 24.792969 0.125 25.003906 0 L 25.003906 38.890625 C 14.265625 38.890625 5.5625 30.183594 5.5625 19.445313 C 5.5625 8.707031 14.265625 0 25.003906 0 Z M 42.972656 38.5 "/>
</g>
</svg>
