<?xml version="1.0" encoding="UTF-8"?>
<svg xmlns="http://www.w3.org/2000/svg" xmlns:xlink="http://www.w3.org/1999/xlink" width="70pt" height="70pt" viewBox="0 0 70 70" version="1.1">
<defs>
<linearGradient id="linear0" gradientUnits="userSpaceOnUse" x1="8.992" y1="16.975" x2="8.992" y2="0.242" gradientTransform="matrix(3.888889,0,0,3.888889,0,0)">
<stop offset="0" style="stop-color:rgb(70.196078%,69.803922%,70.196078%);stop-opacity:1;"/>
<stop offset="0.31" style="stop-color:rgb(61.960784%,61.960784%,61.960784%);stop-opacity:1;"/>
<stop offset="0.54" style="stop-color:rgb(58.039216%,58.039216%,58.039216%);stop-opacity:1;"/>
</linearGradient>
</defs>
<g id="surface1">
<path style=" stroke:none;fill-rule:nonzero;fill:rgb(100%,100%,100%);fill-opacity:1;" d="M 44.839844 31.304688 C 44.839844 34.375 42.347656 36.867188 39.277344 36.867188 C 36.207031 36.867188 33.714844 34.375 33.714844 31.304688 C 33.714844 28.234375 36.207031 25.746094 39.277344 25.746094 C 42.347656 25.746094 44.839844 28.234375 44.839844 31.304688 Z M 44.839844 31.304688 "/>
<path style=" stroke:none;fill-rule:nonzero;fill:rgb(100%,100%,100%);fill-opacity:1;" d="M 52.964844 47.871094 C 52.964844 50.277344 51.015625 52.226563 48.609375 52.226563 C 46.207031 52.226563 44.253906 50.277344 44.253906 47.871094 C 44.253906 45.464844 46.207031 43.515625 48.609375 43.515625 C 51.015625 43.515625 52.964844 45.464844 52.964844 47.871094 Z M 52.964844 47.871094 "/>
<path style=" stroke:none;fill-rule:nonzero;fill:rgb(100%,100%,100%);fill-opacity:1;" d="M 35.039063 44.878906 C 35.039063 46.960938 33.351563 48.648438 31.265625 48.648438 C 29.183594 48.648438 27.496094 46.960938 27.496094 44.878906 C 27.496094 42.792969 29.183594 41.105469 31.265625 41.105469 C 33.351563 41.105469 35.039063 42.792969 35.039063 44.878906 Z M 35.039063 44.878906 "/>
<path style=" stroke:none;fill-rule:nonzero;fill:rgb(100%,100%,100%);fill-opacity:1;" d="M 33.25 16.253906 C 33.25 18.832031 31.160156 20.921875 28.582031 20.921875 C 26.007813 20.921875 23.917969 18.832031 23.917969 16.253906 C 23.917969 13.679688 26.007813 11.589844 28.582031 11.589844 C 31.160156 11.589844 33.25 13.679688 33.25 16.253906 Z M 33.25 16.253906 "/>
<path style=" stroke:none;fill-rule:nonzero;fill:rgb(100%,100%,100%);fill-opacity:1;" d="M 19.832031 33.40625 C 19.832031 35.488281 18.144531 37.179688 16.0625 37.179688 C 13.976563 37.179688 12.289063 35.488281 12.289063 33.40625 C 12.289063 31.320313 13.976563 29.632813 16.0625 29.632813 C 18.144531 29.632813 19.832031 31.320313 19.832031 33.40625 Z M 19.832031 33.40625 "/>
<path style=" stroke:none;fill-rule:nonzero;fill:rgb(59.607843%,59.607843%,59.607843%);fill-opacity:1;" d="M 49.621094 46.976563 L 40.210938 30.527344 L 39.277344 31.035156 L 40.054688 30.488281 L 29.398438 15.320313 L 27.457031 16.722656 L 36.90625 30.140625 L 15.984375 31.890625 L 16.179688 34.300781 L 36.90625 32.550781 L 30.023438 43.984375 L 32.082031 45.226563 L 39.160156 33.484375 L 47.5625 48.144531 L 49.660156 46.976563 Z M 49.621094 46.976563 "/>
<path style=" stroke:none;fill-rule:nonzero;fill:rgb(19.607843%,74.509804%,86.666667%);fill-opacity:1;" d="M 44.761719 31.34375 C 44.761719 34.394531 42.289063 36.867188 39.238281 36.867188 C 36.1875 36.867188 33.714844 34.394531 33.714844 31.34375 C 33.714844 28.292969 36.1875 25.820313 39.238281 25.820313 C 42.289063 25.820313 44.761719 28.292969 44.761719 31.34375 Z M 44.761719 31.34375 "/>
<path style=" stroke:none;fill-rule:nonzero;fill:rgb(19.607843%,74.509804%,86.666667%);fill-opacity:1;" d="M 33.25 16.253906 C 33.25 18.832031 31.160156 20.921875 28.582031 20.921875 C 26.007813 20.921875 23.917969 18.832031 23.917969 16.253906 C 23.917969 13.679688 26.007813 11.589844 28.582031 11.589844 C 31.160156 11.589844 33.25 13.679688 33.25 16.253906 Z M 33.25 16.253906 "/>
<path style=" stroke:none;fill-rule:nonzero;fill:rgb(19.607843%,74.509804%,86.666667%);fill-opacity:1;" d="M 19.832031 33.40625 C 19.832031 35.488281 18.144531 37.179688 16.0625 37.179688 C 13.976563 37.179688 12.289063 35.488281 12.289063 33.40625 C 12.289063 31.320313 13.976563 29.632813 16.0625 29.632813 C 18.144531 29.632813 19.832031 31.320313 19.832031 33.40625 Z M 19.832031 33.40625 "/>
<path style=" stroke:none;fill-rule:nonzero;fill:rgb(19.607843%,74.509804%,86.666667%);fill-opacity:1;" d="M 35.039063 44.878906 C 35.039063 46.960938 33.351563 48.648438 31.265625 48.648438 C 29.183594 48.648438 27.496094 46.960938 27.496094 44.878906 C 27.496094 42.792969 29.183594 41.105469 31.265625 41.105469 C 33.351563 41.105469 35.039063 42.792969 35.039063 44.878906 Z M 35.039063 44.878906 "/>
<path style=" stroke:none;fill-rule:nonzero;fill:rgb(19.607843%,74.509804%,86.666667%);fill-opacity:1;" d="M 52.964844 47.871094 C 52.964844 50.277344 51.015625 52.226563 48.609375 52.226563 C 46.207031 52.226563 44.253906 50.277344 44.253906 47.871094 C 44.253906 45.464844 46.207031 43.515625 48.609375 43.515625 C 51.015625 43.515625 52.964844 45.464844 52.964844 47.871094 Z M 52.964844 47.871094 "/>
<path style=" stroke:none;fill-rule:nonzero;fill:rgb(9.803922%,54.117647%,70.196078%);fill-opacity:1;" d="M 64.050781 14.972656 C 64.050781 18.023438 61.578125 20.496094 58.527344 20.496094 C 55.476563 20.496094 53.003906 18.023438 53.003906 14.972656 C 53.003906 11.921875 55.476563 9.449219 58.527344 9.449219 C 61.578125 9.449219 64.050781 11.921875 64.050781 14.972656 Z M 64.050781 14.972656 "/>
<path style=" stroke:none;fill-rule:nonzero;fill:rgb(9.803922%,54.117647%,70.196078%);fill-opacity:1;" d="M 17.851563 14.972656 C 17.851563 18.023438 15.378906 20.496094 12.328125 20.496094 C 9.277344 20.496094 6.804688 18.023438 6.804688 14.972656 C 6.804688 11.921875 9.277344 9.449219 12.328125 9.449219 C 15.378906 9.449219 17.851563 11.921875 17.851563 14.972656 Z M 17.851563 14.972656 "/>
<path style=" stroke:none;fill-rule:nonzero;fill:rgb(9.803922%,54.117647%,70.196078%);fill-opacity:1;" d="M 40.5625 63.503906 C 40.5625 66.554688 38.089844 69.027344 35.039063 69.027344 C 31.988281 69.027344 29.515625 66.554688 29.515625 63.503906 C 29.515625 60.457031 31.988281 57.984375 35.039063 57.984375 C 38.089844 57.984375 40.5625 60.457031 40.5625 63.503906 Z M 40.5625 63.503906 "/>
<path style=" stroke:none;fill-rule:nonzero;fill:url(#linear0);" d="M 19.210938 12.132813 C 11.59375 0.683594 13.898438 -14.675781 24.535156 -23.390625 C 35.175781 -32.105469 50.6875 -31.335938 60.414063 -21.609375 C 70.136719 -11.886719 70.90625 3.628906 62.195313 14.265625 C 53.480469 24.90625 38.121094 27.210938 26.671875 19.59375 Z M 64.554688 19.445313 C 71.902344 18.628906 78.519531 23.921875 79.335938 31.269531 C 80.152344 38.617188 74.859375 45.234375 67.511719 46.050781 L 94.421875 46.050781 C 94.75 36.246094 96.847656 25.007813 99.222656 20.320313 C 101.597656 15.636719 103.441406 19.101563 103.441406 28.253906 C 103.441406 37.410156 101.597656 49.128906 99.222656 55.085938 C 96.847656 61.042969 94.75 59.203125 94.421875 50.875 C 94.339844 51.765625 94.167969 52.625 93.917969 53.402344 Z M 27.609375 63.464844 C 35.03125 56.046875 47.058594 56.046875 54.480469 63.464844 C 61.898438 70.886719 61.898438 82.914063 54.480469 90.335938 L 62.257813 90.335938 C 63.136719 88.8125 64.929688 88.066406 66.632813 88.523438 C 68.332031 88.980469 69.515625 90.519531 69.515625 92.28125 C 69.515625 94.039063 68.332031 95.582031 66.632813 96.035156 C 64.929688 96.492188 63.136719 95.75 62.257813 94.222656 C 66.074219 94.910156 68.738281 98.394531 68.394531 102.261719 C 68.050781 106.125 64.8125 109.085938 60.933594 109.085938 C 57.054688 109.085938 53.816406 106.125 53.472656 102.261719 C 53.128906 98.394531 55.792969 94.910156 59.613281 94.222656 Z M 27.609375 63.464844 "/>
</g>
</svg>
