<?xml version="1.0" encoding="UTF-8"?>
<svg xmlns="http://www.w3.org/2000/svg" xmlns:xlink="http://www.w3.org/1999/xlink" width="70pt" height="70pt" viewBox="0 0 70 70" version="1.1">
<defs>
<linearGradient id="linear0" gradientUnits="userSpaceOnUse" x1="9" y1="13.14" x2="9" y2="0.39" gradientTransform="matrix(3.888889,0,0,3.888889,0,0)">
<stop offset="0" style="stop-color:rgb(0%,47.058824%,83.137255%);stop-opacity:1;"/>
<stop offset="0.82" style="stop-color:rgb(36.862745%,62.745098%,93.72549%);stop-opacity:1;"/>
</linearGradient>
</defs>
<g id="surface1">
<path style=" stroke:none;fill-rule:nonzero;fill:url(#linear0);" d="M 70 35.582031 C 60.175781 39.761719 48.820313 35.179688 44.644531 25.355469 C 40.46875 15.53125 45.046875 4.175781 54.871094 0 C 59.15625 -1.472656 63.808594 -1.472656 68.09375 0 C 65.425781 -8.359375 68.820313 -17.460938 76.3125 -22.027344 C 83.804688 -26.59375 93.449219 -25.4375 99.65625 -19.234375 C 105.859375 -13.027344 107.015625 -3.382813 102.449219 4.109375 C 97.882813 11.601563 88.78125 15 80.421875 12.328125 L 112.351563 12.328125 C 112.351563 3.511719 105.203125 -3.636719 96.386719 -3.636719 C 87.570313 -3.636719 80.421875 3.511719 80.421875 12.328125 Z M 70 35.582031 "/>
<path style=" stroke:none;fill-rule:nonzero;fill:rgb(31.372549%,90.196078%,100%);fill-opacity:1;" d="M 36.828125 32.355469 C 27.894531 27.179688 24.847656 15.742188 30.023438 6.804688 C 35.199219 -2.128906 46.636719 -5.175781 55.570313 0 L 73.964844 0 L 73.964844 32.355469 Z M 36.828125 32.355469 "/>
<path style=" stroke:none;fill-rule:nonzero;fill:rgb(0%,47.058824%,83.137255%);fill-opacity:1;" d="M 45.890625 59.65625 L 37.140625 68.367188 C 18.261719 68.367188 2.957031 53.0625 2.957031 34.183594 C 2.957031 15.304688 18.261719 0 37.140625 0 L 28.429688 -8.710938 C 30.832031 -11.117188 34.734375 -11.117188 37.140625 -8.710938 C 39.542969 -6.304688 39.542969 -2.40625 37.140625 0 L 42.273438 0 C 42.273438 1.417969 41.125 2.566406 39.707031 2.566406 C 38.289063 2.566406 37.140625 1.417969 37.140625 0 L 37.140625 -11.277344 C 40.253906 -11.277344 42.777344 -8.753906 42.777344 -5.640625 C 42.777344 -2.523438 40.253906 0 37.140625 0 L 42.542969 0 C 42.542969 1.492188 41.335938 2.703125 39.839844 2.703125 C 38.347656 2.703125 37.140625 1.492188 37.140625 0 L 37.140625 58.332031 C 21.03125 58.332031 7.972656 45.273438 7.972656 29.167969 C 7.972656 13.058594 21.03125 0 37.140625 0 L 42.273438 0 C 42.273438 1.417969 41.125 2.566406 39.707031 2.566406 C 38.289063 2.566406 37.140625 1.417969 37.140625 0 Z M 45.890625 59.65625 "/>
<path style=" stroke:none;fill-rule:nonzero;fill:rgb(100%,100%,100%);fill-opacity:1;" d="M 27.804688 38.1875 L 36.398438 29.59375 C 44.574219 19.542969 43.046875 4.769531 32.996094 -3.402344 C 22.945313 -11.574219 8.171875 -10.050781 0 0 L 8.59375 8.59375 C 6.222656 8.390625 4.460938 6.300781 4.667969 3.929688 C 4.871094 1.554688 6.960938 -0.203125 9.332031 0 L 40.445313 0 C 40.589844 -0.0820313 40.765625 -0.0820313 40.910156 0 L 40.910156 11.667969 L 33.679688 11.667969 L 33.679688 0 C 33.523438 0.0976563 33.324219 0.0976563 33.171875 0 L 28.117188 0 C 28.242188 0.175781 28.214844 0.421875 28.050781 0.566406 C 27.890625 0.710938 27.644531 0.710938 27.480469 0.566406 C 27.320313 0.421875 27.292969 0.175781 27.417969 0 Z M 27.804688 38.1875 "/>
</g>
</svg>
