<?xml version="1.0" encoding="UTF-8"?>
<svg xmlns="http://www.w3.org/2000/svg" xmlns:xlink="http://www.w3.org/1999/xlink" width="70pt" height="70pt" viewBox="0 0 70 70" version="1.1">
<g id="surface1">
<path style=" stroke:none;fill-rule:nonzero;fill:rgb(0%,0%,0%);fill-opacity:1;" d="M 35 0 L 40.25 0.875 L 45.0625 2.625 L 49 5.6875 L 52.0625 9.625 C 55.625 4.375 61.988281 1.773438 68.207031 3.023438 C 74.425781 4.277344 79.285156 9.136719 80.539063 15.355469 C 81.789063 21.574219 79.1875 27.9375 73.9375 31.5 L 73.9375 35.875 C 73.519531 42.878906 74.15625 48.167969 75.367188 47.683594 C 76.574219 47.199219 77.894531 41.128906 78.3125 34.125 L 75.25 37.625 C 71.09375 40.585938 65.375 39.964844 61.953125 36.179688 C 58.527344 32.394531 58.480469 26.644531 61.839844 22.800781 C 65.203125 18.960938 70.90625 18.246094 75.113281 21.136719 C 79.320313 24.027344 80.695313 29.609375 78.3125 34.125 L 72.1875 40.25 C 76.3125 44.367188 77.828125 50.425781 76.125 56 L 76.125 56.875 L 71.75 56.875 L 71.75 50.3125 C 70.34375 40.972656 75.09375 31.785156 83.523438 27.527344 C 91.957031 23.269531 102.171875 24.910156 108.847656 31.589844 C 115.527344 38.265625 117.167969 48.480469 112.910156 56.914063 C 108.652344 65.34375 99.464844 70.09375 90.125 68.6875 L 93.1875 65.1875 L 99.3125 59.0625 C 103.660156 54.714844 110.714844 54.714844 115.0625 59.0625 C 119.410156 63.410156 119.410156 70.464844 115.0625 74.8125 L 115.0625 75.6875 C 114.847656 73.183594 114.390625 71.054688 113.75 69.5625 C 115.605469 75.972656 113.753906 82.882813 108.9375 87.5 C 113.664063 92.371094 114.21875 99.929688 110.25 105.4375 L 128.1875 123.375 L 142.1875 123.375 L 137.8125 123.375 C 135.363281 113.828125 139.601563 103.820313 148.164063 98.933594 C 156.726563 94.050781 167.5 95.5 174.46875 102.46875 C 181.4375 109.4375 182.886719 120.210938 178.003906 128.773438 C 173.117188 137.335938 163.109375 141.574219 153.5625 139.125 L 156.625 135.1875 L 160.5625 132.125 L 29.75 0.875 Z M 32.8125 65.625 L 37.1875 65.625 L 37.1875 70 L 32.8125 70 Z M 32.8125 65.625 "/>
</g>
</svg>
