<?xml version="1.0" encoding="UTF-8"?>
<svg xmlns="http://www.w3.org/2000/svg" xmlns:xlink="http://www.w3.org/1999/xlink" width="70pt" height="70pt" viewBox="0 0 70 70" version="1.1">
<defs>
<linearGradient id="linear0" gradientUnits="userSpaceOnUse" x1="-1267.23" y1="3.07" x2="-1267.52" y2="14.64" gradientTransform="matrix(-3.888889,0,0,3.888889,-4884.95,0)">
<stop offset="0" style="stop-color:rgb(19.607843%,83.137255%,96.078431%);stop-opacity:1;"/>
<stop offset="0.23" style="stop-color:rgb(19.215686%,81.568627%,94.509804%);stop-opacity:1;"/>
<stop offset="0.46" style="stop-color:rgb(17.254902%,76.470588%,90.196078%);stop-opacity:1;"/>
<stop offset="0.7" style="stop-color:rgb(14.509804%,68.627451%,83.137255%);stop-opacity:1;"/>
<stop offset="0.94" style="stop-color:rgb(10.980392%,57.254902%,72.941176%);stop-opacity:1;"/>
<stop offset="1" style="stop-color:rgb(9.803922%,54.117647%,70.196078%);stop-opacity:1;"/>
</linearGradient>
</defs>
<g id="surface1">
<path style=" stroke:none;fill-rule:nonzero;fill:rgb(0%,35.686275%,63.137255%);fill-opacity:1;" d="M 67.199219 15.167969 L 63.660156 15.167969 C 63.734375 16.046875 63.734375 16.929688 63.660156 17.8125 L 65.179688 15.089844 C 64.996094 16.066406 64.613281 16.992188 64.050781 17.8125 L 60.433594 24.265625 C 58.652344 23.890625 57.511719 22.140625 57.886719 20.359375 C 58.261719 18.574219 60.011719 17.433594 61.792969 17.8125 L 58.566406 17.8125 C 58.671875 17.804688 58.773438 17.804688 58.878906 17.8125 L 52.773438 21.699219 C 51.699219 21.699219 50.828125 20.828125 50.828125 19.753906 C 50.828125 18.683594 51.699219 17.8125 52.773438 17.8125 L 20.496094 17.8125 C 20.871094 17.5625 21.363281 17.5625 21.738281 17.8125 L 21.738281 36.554688 L 14.933594 38.65625 L 15.4375 40.832031 L 19.445313 42.777344 L 19.445313 54.054688 C 9.4375 53.421875 1.835938 44.792969 2.46875 34.785156 C 3.101563 24.777344 11.730469 17.175781 21.738281 17.8125 L 58.179688 17.8125 L 62.648438 23.605469 L 64.554688 22.398438 L 61.910156 17.8125 L 68.445313 17.8125 C 68.445313 30.707031 57.988281 41.164063 45.089844 41.164063 C 32.195313 41.164063 21.738281 30.707031 21.738281 17.8125 L 21.738281 16.332031 C 21.839844 16.691406 21.761719 17.074219 21.53125 17.367188 C 21.300781 17.660156 20.945313 17.824219 20.570313 17.8125 Z M 67.199219 15.167969 "/>
<path style=" stroke:none;fill-rule:nonzero;fill:rgb(31.372549%,89.803922%,100%);fill-opacity:1;" d="M 65.996094 4.199219 C 65.996094 6.542969 64.097656 8.4375 61.753906 8.4375 C 59.414063 8.4375 57.515625 6.542969 57.515625 4.199219 C 57.515625 1.859375 59.414063 -0.0390625 61.753906 -0.0390625 C 64.097656 -0.0390625 65.996094 1.859375 65.996094 4.199219 Z M 65.996094 4.199219 "/>
<path style=" stroke:none;fill-rule:nonzero;fill:rgb(31.372549%,89.803922%,100%);fill-opacity:1;" d="M 70 64.515625 C 70 67.566406 67.527344 70.039063 64.476563 70.039063 C 61.429688 70.039063 58.957031 67.566406 58.957031 64.515625 C 58.957031 61.46875 61.429688 58.996094 64.476563 58.996094 C 67.527344 58.996094 70 61.46875 70 64.515625 Z M 70 64.515625 "/>
<path style=" stroke:none;fill-rule:nonzero;fill:rgb(31.372549%,89.803922%,100%);fill-opacity:1;" d="M 13.765625 44.488281 C 13.765625 48.289063 10.683594 51.371094 6.882813 51.371094 C 3.082031 51.371094 0 48.289063 0 44.488281 C 0 40.6875 3.082031 37.605469 6.882813 37.605469 C 10.683594 37.605469 13.765625 40.6875 13.765625 44.488281 Z M 13.765625 44.488281 "/>
<path style=" stroke:none;fill-rule:nonzero;fill:rgb(0%,47.058824%,83.137255%);fill-opacity:1;" d="M 58.996094 18.472656 L 32.121094 14.582031 L 31.578125 14.582031 C 27.550781 13.648438 25.042969 9.628906 25.976563 5.601563 C 26.910156 1.574219 30.933594 -0.933594 34.960938 0 L 33.949219 6.570313 L 62.222656 6.570313 L 62.222656 22.945313 C 55.886719 24.179688 49.75 20.042969 48.515625 13.707031 C 47.277344 7.371094 51.414063 1.234375 57.75 0 Z M 58.996094 18.472656 "/>
<path style=" stroke:none;fill-rule:nonzero;fill:rgb(100%,100%,100%);fill-opacity:1;" d="M 58.722656 20.144531 L 31.890625 16.253906 L 31.539063 16.253906 C 27.050781 15.71875 23.847656 11.644531 24.382813 7.15625 C 24.921875 2.667969 28.996094 -0.535156 33.484375 0 L 28.390625 24.539063 L 60.355469 24.539063 L 60.628906 22.710938 C 54.355469 23.417969 48.699219 18.910156 47.988281 12.640625 C 47.28125 6.367188 51.789063 0.707031 58.0625 0 Z M 58.722656 20.144531 "/>
<path style=" stroke:none;fill-rule:nonzero;fill:url(#linear0);" d="M 20.457031 19.445313 L 43.984375 19.445313 C 38.613281 31.589844 24.414063 37.082031 12.269531 31.714844 C 0.125 26.34375 -5.371094 12.144531 0 0 L 3.890625 3.890625 C 2.816406 4.960938 1.074219 4.960938 0 3.890625 C -1.074219 2.816406 -1.074219 1.074219 0 0 L 17.890625 0 C 17.890625 4.941406 13.882813 8.945313 8.945313 8.945313 C 4.003906 8.945313 0 4.941406 0 0 L 0 28.894531 C -7.980469 28.582031 -14.195313 21.863281 -13.882813 13.882813 C -13.570313 5.90625 -6.851563 -0.3125 1.128906 0 L -45.539063 0 C -45.539063 -12.886719 -35.09375 -23.332031 -22.207031 -23.332031 C -9.320313 -23.332031 1.128906 -12.886719 1.128906 0 L 1.128906 20.6875 C -4.585938 20.6875 -9.214844 16.058594 -9.214844 10.34375 C -9.214844 4.632813 -4.585938 0 1.128906 0 Z M 20.457031 19.445313 "/>
</g>
</svg>
