<?xml version="1.0" encoding="UTF-8"?>
<svg xmlns="http://www.w3.org/2000/svg" xmlns:xlink="http://www.w3.org/1999/xlink" width="70pt" height="70pt" viewBox="0 0 70 70" version="1.1">
<defs>
<linearGradient id="linear0" gradientUnits="userSpaceOnUse" x1="6.21" y1="7.1" x2="6.32" y2="17.48" gradientTransform="matrix(3.888889,0,0,3.888889,0,0)">
<stop offset="0" style="stop-color:rgb(19.607843%,83.137255%,96.078431%);stop-opacity:1;"/>
<stop offset="0.32" style="stop-color:rgb(19.215686%,81.960784%,95.294118%);stop-opacity:1;"/>
<stop offset="0.53" style="stop-color:rgb(18.039216%,78.823529%,92.156863%);stop-opacity:1;"/>
<stop offset="0.7" style="stop-color:rgb(16.078431%,72.941176%,87.058824%);stop-opacity:1;"/>
<stop offset="0.86" style="stop-color:rgb(13.333333%,64.705882%,79.607843%);stop-opacity:1;"/>
<stop offset="1" style="stop-color:rgb(9.803922%,54.117647%,70.196078%);stop-opacity:1;"/>
<stop offset="1" style="stop-color:rgb(9.803922%,54.117647%,70.196078%);stop-opacity:1;"/>
</linearGradient>
</defs>
<g id="surface1">
<path style=" stroke:none;fill-rule:nonzero;fill:rgb(90.196078%,90.196078%,90.196078%);fill-opacity:1;" d="M 25.121094 2.332031 L 68.523438 2.332031 C 67.878906 21.253906 52.015625 36.070313 33.09375 35.429688 C 14.171875 34.785156 -0.644531 18.921875 0 0 L 0 33.40625 C -9.226563 33.039063 -16.40625 25.265625 -16.042969 16.042969 C -15.675781 6.816406 -7.902344 -0.363281 1.320313 0 L 25.121094 0 C 25.6875 0.304688 25.976563 0.953125 25.820313 1.574219 C 25.664063 2.199219 25.101563 2.632813 24.460938 2.632813 C 23.820313 2.632813 23.257813 2.199219 23.101563 1.574219 C 22.945313 0.953125 23.234375 0.304688 23.800781 0 L 23.800781 3.65625 C 22.789063 3.65625 21.972656 2.835938 21.972656 1.828125 C 21.972656 0.816406 22.789063 0 23.800781 0 Z M 25.121094 2.332031 "/>
<path style=" stroke:none;fill-rule:nonzero;fill:rgb(36.862745%,62.745098%,93.72549%);fill-opacity:1;" d="M 25.042969 2.332031 L 68.601563 2.332031 C 67.957031 21.277344 52.078125 36.109375 33.132813 35.464844 C 14.191406 34.824219 -0.644531 18.945313 0 0 L 0 5.054688 L 23.644531 5.054688 L 23.644531 3.578125 C 22.65625 10.105469 16.5625 14.597656 10.035156 13.609375 C 3.503906 12.625 -0.988281 6.527344 0 0 Z M 25.042969 2.332031 "/>
<path style=" stroke:none;fill-rule:nonzero;fill:rgb(51.372549%,72.54902%,97.647059%);fill-opacity:1;" d="M 23.644531 8.632813 L 39.121094 8.632813 L 39.121094 23.527344 L 23.644531 23.527344 Z M 23.644531 8.632813 "/>
<path style=" stroke:none;fill-rule:nonzero;fill:rgb(0%,47.058824%,83.137255%);fill-opacity:1;" d="M 39.042969 8.632813 L 54.523438 8.632813 L 54.523438 23.527344 L 39.042969 23.527344 Z M 39.042969 8.632813 "/>
<path style=" stroke:none;fill-rule:nonzero;fill:rgb(51.372549%,72.54902%,97.647059%);fill-opacity:1;" d="M 54.523438 8.632813 L 70 8.632813 L 70 23.527344 L 54.523438 23.527344 Z M 54.523438 8.632813 "/>
<path style=" stroke:none;fill-rule:nonzero;fill:rgb(0%,47.058824%,83.137255%);fill-opacity:1;" d="M 67.785156 38.539063 L 54.523438 38.539063 L 54.523438 23.488281 L 70.078125 23.488281 L 70.078125 36.167969 C 60.089844 35.511719 52.527344 26.882813 53.179688 16.898438 C 53.835938 6.910156 62.460938 -0.65625 72.449219 0 Z M 67.785156 38.539063 "/>
<path style=" stroke:none;fill-rule:nonzero;fill:rgb(51.372549%,72.54902%,97.647059%);fill-opacity:1;" d="M 54.640625 38.382813 L 39.160156 38.382813 L 39.160156 23.488281 L 54.640625 23.488281 Z M 54.640625 38.382813 "/>
<path style=" stroke:none;fill-rule:nonzero;fill:rgb(0%,47.058824%,83.137255%);fill-opacity:1;" d="M 39.160156 38.382813 L 23.683594 38.382813 L 23.683594 23.488281 L 39.160156 23.488281 Z M 39.160156 38.382813 "/>
<path style=" stroke:none;fill-rule:nonzero;fill:url(#linear0);" d="M 43.671875 67.667969 L 5.40625 67.667969 C 4.199219 67.667969 3.460938 65.722656 4.160156 64.710938 L 17.34375 45.265625 C 4.84375 32.1875 5.316406 11.449219 18.394531 -1.050781 C 31.472656 -13.550781 52.210938 -13.078125 64.710938 0 L 64.710938 31.890625 C 55.90625 32.105469 48.59375 25.140625 48.378906 16.332031 C 48.164063 7.527344 55.128906 0.214844 63.933594 0 L 63.195313 0 C 63.789063 0.34375 64.078125 1.042969 63.902344 1.707031 C 63.722656 2.367188 63.121094 2.832031 62.4375 2.832031 C 61.75 2.832031 61.148438 2.367188 60.972656 1.707031 C 60.792969 1.042969 61.082031 0.34375 61.679688 0 L 61.679688 -0.660156 C 61.847656 -1.414063 62.554688 -1.921875 63.324219 -1.839844 C 64.09375 -1.753906 64.675781 -1.105469 64.675781 -0.332031 C 64.675781 0.441406 64.09375 1.09375 63.324219 1.175781 C 62.554688 1.261719 61.847656 0.753906 61.679688 0 L 78.476563 0 C 78.476563 4.640625 74.71875 8.398438 70.078125 8.398438 C 65.4375 8.398438 61.679688 4.640625 61.679688 0 L 61.679688 0.699219 C 61.03125 0.605469 60.523438 0.101563 60.429688 -0.542969 C 60.332031 -1.1875 60.667969 -1.820313 61.257813 -2.097656 C 61.847656 -2.378906 62.546875 -2.238281 62.984375 -1.753906 C 63.421875 -1.269531 63.492188 -0.558594 63.15625 0 L 62.457031 0 C 62.6875 -0.125 62.964844 -0.125 63.195313 0 L 63.195313 12.753906 C 59.671875 12.753906 56.816406 9.898438 56.816406 6.378906 C 56.816406 2.855469 59.671875 0 63.195313 0 L 76.417969 19.210938 C 77.078125 20.261719 76.378906 22.207031 75.132813 22.207031 Z M 43.671875 67.667969 "/>
<path style=" stroke:none;fill-rule:nonzero;fill:rgb(100%,100%,100%);fill-opacity:1;" d="M 10.460938 62.222656 L 20.027344 48.261719 C 6.699219 53.792969 -8.585938 47.472656 -14.117188 34.144531 C -19.648438 20.816406 -13.328125 5.53125 0 0 L 0 -5.832031 C 1.609375 -5.832031 2.917969 -4.527344 2.917969 -2.917969 C 2.917969 -1.304688 1.609375 0 0 0 L 27.222656 0 C 27.222656 7.515625 21.128906 13.609375 13.609375 13.609375 C 6.09375 13.609375 0 7.515625 0 0 L 0 46.667969 C -12.886719 46.667969 -23.332031 36.21875 -23.332031 23.332031 C -23.332031 10.445313 -12.886719 0 0 0 L 38.539063 62.222656 C 21.355469 61.855469 7.722656 47.632813 8.089844 30.449219 C 8.453125 13.269531 22.679688 -0.363281 39.859375 0 L 11.121094 0 C 11.367188 0.339844 11.316406 0.808594 11.007813 1.085938 C 10.695313 1.367188 10.226563 1.367188 9.914063 1.085938 C 9.605469 0.808594 9.554688 0.339844 9.800781 0 Z M 10.460938 62.222656 "/>
</g>
</svg>
