<?xml version="1.0" encoding="UTF-8"?>
<svg xmlns="http://www.w3.org/2000/svg" xmlns:xlink="http://www.w3.org/1999/xlink" width="70pt" height="70pt" viewBox="0 0 70 70" version="1.1">
<defs>
<linearGradient id="linear0" gradientUnits="userSpaceOnUse" x1="6.01" y1="17.69" x2="6.01" y2="0.26" gradientTransform="matrix(3.888889,0,0,3.888889,0,0)">
<stop offset="0" style="stop-color:rgb(58.039216%,58.039216%,58.039216%);stop-opacity:1;"/>
<stop offset="0.53" style="stop-color:rgb(63.529412%,63.529412%,63.529412%);stop-opacity:1;"/>
<stop offset="1" style="stop-color:rgb(70.196078%,70.196078%,70.196078%);stop-opacity:1;"/>
</linearGradient>
<linearGradient id="linear1" gradientUnits="userSpaceOnUse" x1="10.55" y1="853.33" x2="15" y2="858.17" gradientTransform="matrix(3.888889,0,0,6.183333,0,-5255.677778)">
<stop offset="0" style="stop-color:rgb(0%,47.058824%,83.137255%);stop-opacity:1;"/>
<stop offset="0.02" style="stop-color:rgb(5.098039%,49.411765%,84.705882%);stop-opacity:1;"/>
<stop offset="0.08" style="stop-color:rgb(16.862745%,54.117647%,87.843137%);stop-opacity:1;"/>
<stop offset="0.15" style="stop-color:rgb(25.490196%,58.039216%,90.588235%);stop-opacity:1;"/>
<stop offset="0.22" style="stop-color:rgb(31.764706%,60.784314%,92.156863%);stop-opacity:1;"/>
<stop offset="0.29" style="stop-color:rgb(35.686275%,62.352941%,93.333333%);stop-opacity:1;"/>
<stop offset="0.4" style="stop-color:rgb(36.862745%,62.745098%,93.72549%);stop-opacity:1;"/>
<stop offset="0.55" style="stop-color:rgb(35.686275%,62.352941%,93.333333%);stop-opacity:1;"/>
<stop offset="0.68" style="stop-color:rgb(31.372549%,60.392157%,92.156863%);stop-opacity:1;"/>
<stop offset="0.8" style="stop-color:rgb(24.705882%,57.254902%,90.196078%);stop-opacity:1;"/>
<stop offset="0.91" style="stop-color:rgb(14.901961%,53.333333%,87.45098%);stop-opacity:1;"/>
<stop offset="0.99" style="stop-color:rgb(7.058824%,49.803922%,85.098039%);stop-opacity:1;"/>
</linearGradient>
</defs>
<g id="surface1">
<path style=" stroke:none;fill-rule:nonzero;fill:url(#linear0);" d="M 43.285156 66.5 C 24.917969 65.867188 10.546875 50.464844 11.179688 32.101563 C 11.8125 13.738281 27.214844 -0.632813 45.578125 0 L 5.753906 0 C 6.65625 0.519531 7.09375 1.578125 6.824219 2.582031 C 6.554688 3.585938 5.648438 4.28125 4.609375 4.28125 C 3.570313 4.28125 2.660156 3.585938 2.390625 2.582031 C 2.125 1.578125 2.5625 0.519531 3.460938 0 L 3.460938 3.304688 C 2.5625 4.136719 1.167969 4.105469 0.3125 3.226563 C -0.542969 2.351563 -0.542969 0.953125 0.3125 0.078125 C 1.167969 -0.796875 2.5625 -0.832031 3.460938 0 L 38.695313 0 C 38.695313 9.730469 30.808594 17.617188 21.078125 17.617188 C 11.347656 17.617188 3.460938 9.730469 3.460938 0 Z M 43.285156 66.5 "/>
<path style=" stroke:none;fill-rule:nonzero;fill:rgb(0%,18.823529%,40.392157%);fill-opacity:1;" d="M 9.292969 24.773438 C 2.453125 27.339844 -5.171875 23.875 -7.738281 17.035156 C -10.304688 10.191406 -6.839844 2.566406 0 0 L 33.445313 0 C 33.445313 9.234375 25.957031 16.722656 16.722656 16.722656 C 7.488281 16.722656 0 9.234375 0 0 L 13.648438 0 C 15.355469 0.984375 16.191406 2.996094 15.679688 4.898438 C 15.167969 6.804688 13.445313 8.128906 11.472656 8.128906 C 9.5 8.128906 7.773438 6.804688 7.265625 4.898438 C 6.753906 2.996094 7.585938 0.984375 9.292969 0 Z M 9.292969 11.9375 C 5.996094 11.9375 3.324219 9.265625 3.324219 5.96875 C 3.324219 2.671875 5.996094 0 9.292969 0 L 33.445313 0 C 33.445313 6.667969 28.039063 12.074219 21.371094 12.074219 C 14.699219 12.074219 9.292969 6.667969 9.292969 0 L 13.648438 0 C 15.367188 0.980469 16.207031 2.988281 15.703125 4.898438 C 15.195313 6.808594 13.46875 8.140625 11.492188 8.140625 C 9.515625 8.140625 7.789063 6.808594 7.28125 4.898438 C 6.773438 2.988281 7.617188 0.980469 9.332031 0 Z M 9.292969 11.9375 "/>
<path style=" stroke:none;fill-rule:nonzero;fill:rgb(31.372549%,90.196078%,100%);fill-opacity:1;" d="M 16.722656 11.9375 C 16.722656 13.550781 15.417969 14.855469 13.804688 14.855469 C 12.195313 14.855469 10.890625 13.550781 10.890625 11.9375 C 10.890625 10.328125 12.195313 9.023438 13.804688 9.023438 C 15.417969 9.023438 16.722656 10.328125 16.722656 11.9375 Z M 16.722656 11.9375 "/>
<path style=" stroke:none;fill-rule:nonzero;fill:rgb(31.372549%,90.196078%,100%);fill-opacity:1;" d="M 16.722656 24.773438 C 16.722656 26.382813 15.417969 27.6875 13.804688 27.6875 C 12.195313 27.6875 10.890625 26.382813 10.890625 24.773438 C 10.890625 23.160156 12.195313 21.855469 13.804688 21.855469 C 15.417969 21.855469 16.722656 23.160156 16.722656 24.773438 Z M 16.722656 24.773438 "/>
<path style=" stroke:none;fill-rule:nonzero;fill:rgb(46.27451%,73.72549%,17.647059%);fill-opacity:1;" d="M 66.539063 57.984375 C 66.539063 54.03125 58.722656 50.828125 49.078125 50.828125 C 39.433594 50.828125 31.617188 54.03125 31.617188 57.984375 C 31.617188 61.933594 39.433594 65.140625 49.078125 65.140625 C 58.722656 65.140625 66.539063 61.933594 66.539063 57.984375 Z M 66.539063 57.984375 "/>
<path style=" stroke:none;fill-rule:nonzero;fill:rgb(36.862745%,58.823529%,14.117647%);fill-opacity:1;" d="M 55.300781 57.90625 C 55.300781 57.023438 52.707031 56.3125 49.503906 56.3125 C 46.304688 56.3125 43.710938 57.023438 43.710938 57.90625 C 43.710938 58.785156 46.304688 59.5 49.503906 59.5 C 52.707031 59.5 55.300781 58.785156 55.300781 57.90625 Z M 55.300781 57.90625 "/>
<path style=" stroke:none;fill-rule:nonzero;fill:url(#linear1);" d="M 66.539063 42.078125 C 66.539063 38.125 58.722656 34.921875 49.078125 34.921875 C 39.433594 34.921875 31.617188 38.125 31.617188 42.078125 C 31.617188 46.03125 39.433594 49.234375 49.078125 49.234375 C 58.722656 49.234375 66.539063 46.03125 66.539063 42.078125 Z M 66.539063 42.078125 "/>
<path style=" stroke:none;fill-rule:nonzero;fill:rgb(0%,35.686275%,63.137255%);fill-opacity:1;" d="M 55.300781 42 C 55.300781 41.121094 52.707031 40.40625 49.503906 40.40625 C 46.304688 40.40625 43.710938 41.121094 43.710938 42 C 43.710938 42.878906 46.304688 43.59375 49.503906 43.59375 C 52.707031 43.59375 55.300781 42.878906 55.300781 42 Z M 55.300781 42 "/>
<path style=" stroke:none;fill-rule:nonzero;fill:rgb(36.862745%,58.823529%,14.117647%);fill-opacity:1;" d="M 49.078125 65.023438 C 58.722656 65.023438 66.539063 61.792969 66.539063 57.828125 L 66.539063 62.222656 C 66.1875 66.109375 58.527344 69.144531 49.078125 69.144531 C 39.628906 69.144531 31.617188 65.957031 31.617188 61.988281 L 31.617188 58.101563 C 31.617188 61.792969 39.433594 65.023438 49.078125 65.023438 Z M 49.078125 65.023438 "/>
<path style=" stroke:none;fill-rule:nonzero;fill:rgb(0%,47.058824%,83.137255%);fill-opacity:1;" d="M 49.078125 49.078125 C 58.722656 49.078125 66.539063 45.890625 66.539063 41.921875 L 66.539063 46.160156 C 66.1875 50.050781 58.527344 53.082031 49.078125 53.082031 C 39.628906 53.082031 31.617188 49.855469 31.617188 45.890625 L 31.617188 42 C 31.617188 45.890625 39.433594 49.078125 49.078125 49.078125 Z M 49.078125 49.078125 "/>
</g>
</svg>
