<?xml version="1.0" encoding="UTF-8"?>
<svg xmlns="http://www.w3.org/2000/svg" xmlns:xlink="http://www.w3.org/1999/xlink" width="70pt" height="70pt" viewBox="0 0 70 70" version="1.1">
<g id="surface1">
<path style=" stroke:none;fill-rule:nonzero;fill:rgb(47.843137%,47.843137%,47.843137%);fill-opacity:1;" d="M 35 67.375 C 17.148438 67.375 2.625 52.855469 2.625 35 C 2.625 17.148438 17.148438 2.625 35 2.625 C 52.855469 2.625 67.375 17.148438 67.375 35 C 67.375 52.855469 52.855469 67.375 35 67.375 Z M 35 67.375 "/>
<path style=" stroke:none;fill-rule:nonzero;fill:rgb(100%,100%,100%);fill-opacity:1;" d="M 35 4.433594 C 44.824219 13.421875 47.699219 27.738281 42.105469 39.824219 C 36.511719 51.910156 23.734375 58.980469 10.523438 57.308594 C -2.6875 55.636719 -13.296875 45.601563 -15.703125 32.503906 C -18.105469 19.40625 -11.753906 6.257813 0 0 M 35 0 C 15.703125 0 0 15.703125 0 35 C 0 54.296875 15.703125 70 35 70 C 54.296875 70 70 54.296875 70 35 C 70 15.703125 54.296875 0 35 0 Z M 35 0 "/>
<path style=" stroke:none;fill-rule:nonzero;fill:rgb(100%,100%,100%);fill-opacity:1;" d="M 45.1875 25.964844 C 45.1875 29.023438 43.558594 31.875 40.503906 34.523438 C 39.277344 35.542969 38.257813 36.359375 37.851563 37.175781 C 37.445313 37.785156 37.238281 38.804688 37.238281 39.824219 L 37.238281 41.046875 L 31.535156 41.046875 L 31.535156 39.214844 C 31.535156 36.5625 32.554688 34.320313 34.792969 32.488281 C 36.21875 31.46875 37.039063 30.449219 37.445313 29.835938 C 37.851563 29.226563 38.257813 28.207031 38.257813 27.1875 C 38.257813 26.167969 37.851563 25.558594 37.238281 24.945313 C 30.351563 25.285156 24.492188 19.972656 24.15625 13.085938 C 23.816406 6.195313 29.125 0.339844 36.015625 0 C 33.570313 0 31.328125 1.019531 29.085938 2.851563 L 29.085938 -3.667969 C 31.324219 -5.09375 33.976563 -5.703125 36.828125 -5.703125 C 39.886719 -5.703125 42.535156 -4.890625 44.164063 -3.464844 C 46.003906 -2.238281 46.816406 -0.203125 46.816406 2.246094 Z M 38.394531 48.859375 C 38.394531 49.878906 37.988281 50.898438 37.175781 51.511719 C 36.359375 52.125 35.339844 52.53125 34.320313 52.53125 C 33.101563 52.53125 32.28125 52.125 31.46875 51.511719 C 30.65625 50.898438 30.25 49.878906 30.25 48.859375 C 30.25 47.839844 30.65625 46.820313 31.46875 46.207031 C 18.710938 40.675781 12.851563 25.84375 18.386719 13.082031 C 23.921875 0.324219 38.75 -5.535156 51.511719 0 C 52.734375 0 53.75 0.40625 54.363281 1.019531 C 54.082031 15.75 41.914063 27.464844 27.183594 27.183594 C 12.453125 26.898438 0.738281 14.730469 1.019531 0 Z M 38.394531 48.859375 "/>
</g>
</svg>
