<?xml version="1.0" encoding="UTF-8"?>
<svg xmlns="http://www.w3.org/2000/svg" xmlns:xlink="http://www.w3.org/1999/xlink" width="70pt" height="70pt" viewBox="0 0 70 70" version="1.1">
<g id="surface1">
<path style=" stroke:none;fill-rule:nonzero;fill:rgb(0%,0%,0%);fill-opacity:1;" d="M 32.507813 10.851563 C 32.507813 14.304688 29.707031 17.105469 26.25 17.105469 C 22.792969 17.105469 19.992188 14.304688 19.992188 10.851563 C 19.992188 7.394531 22.792969 4.59375 26.25 4.59375 C 29.707031 4.59375 32.507813 7.394531 32.507813 10.851563 Z M 32.507813 10.851563 "/>
<path style=" stroke:none;fill-rule:nonzero;fill:rgb(0%,0%,0%);fill-opacity:1;" d="M 67.679688 7.699219 C 67.679688 11.15625 64.878906 13.957031 61.425781 13.957031 C 57.96875 13.957031 55.167969 11.15625 55.167969 7.699219 C 55.167969 4.246094 57.96875 1.445313 61.425781 1.445313 C 64.878906 1.445313 67.679688 4.246094 67.679688 7.699219 Z M 67.679688 7.699219 "/>
<path style=" stroke:none;fill-rule:nonzero;fill:rgb(0%,0%,0%);fill-opacity:1;" d="M 12.863281 30.582031 C 12.863281 34.035156 10.0625 36.835938 6.605469 36.835938 C 3.152344 36.835938 0.351563 34.035156 0.351563 30.582031 C 0.351563 27.125 3.152344 24.324219 6.605469 24.324219 C 10.0625 24.324219 12.863281 27.125 12.863281 30.582031 Z M 12.863281 30.582031 "/>
<path style=" stroke:none;fill-rule:nonzero;fill:rgb(0%,0%,0%);fill-opacity:1;" d="M 48.519531 27.125 C 48.519531 30.582031 45.71875 33.382813 42.261719 33.382813 C 38.808594 33.382813 36.007813 30.582031 36.007813 27.125 C 36.007813 23.667969 38.808594 20.867188 42.261719 20.867188 C 45.71875 20.867188 48.519531 23.667969 48.519531 27.125 Z M 48.519531 27.125 "/>
<path style=" stroke:none;fill-rule:nonzero;fill:rgb(0%,0%,0%);fill-opacity:1;" d="M 7.351563 31.367188 L 5.820313 29.792969 L 26.25 9.273438 L 42.261719 25.550781 L 60.636719 6.914063 L 62.167969 8.488281 L 42.261719 28.699219 L 26.25 12.425781 Z M 7.351563 31.367188 "/>
<path style=" stroke:none;fill-rule:nonzero;fill:rgb(0%,0%,0%);fill-opacity:1;" d="M 34.519531 42.570313 C 34.519531 46.023438 31.71875 48.824219 28.261719 48.824219 C 24.808594 48.824219 22.007813 46.023438 22.007813 42.570313 C 22.007813 39.113281 24.808594 36.3125 28.261719 36.3125 C 31.71875 36.3125 34.519531 39.113281 34.519531 42.570313 Z M 34.519531 42.570313 "/>
<path style=" stroke:none;fill-rule:nonzero;fill:rgb(0%,0%,0%);fill-opacity:1;" d="M 69.648438 39.417969 C 69.648438 42.875 66.847656 45.675781 63.394531 45.675781 C 59.9375 45.675781 57.136719 42.875 57.136719 39.417969 C 57.136719 35.964844 59.9375 33.164063 63.394531 33.164063 C 66.847656 33.164063 69.648438 35.964844 69.648438 39.417969 Z M 69.648438 39.417969 "/>
<path style=" stroke:none;fill-rule:nonzero;fill:rgb(0%,0%,0%);fill-opacity:1;" d="M 14.832031 62.300781 C 14.832031 65.753906 12.03125 68.554688 8.574219 68.554688 C 5.121094 68.554688 2.320313 65.753906 2.320313 62.300781 C 2.320313 58.84375 5.121094 56.042969 8.574219 56.042969 C 12.03125 56.042969 14.832031 58.84375 14.832031 62.300781 Z M 14.832031 62.300781 "/>
<path style=" stroke:none;fill-rule:nonzero;fill:rgb(0%,0%,0%);fill-opacity:1;" d="M 50.53125 58.84375 C 50.53125 62.300781 47.730469 65.101563 44.273438 65.101563 C 40.820313 65.101563 38.019531 62.300781 38.019531 58.84375 C 38.019531 55.386719 40.820313 52.585938 44.273438 52.585938 C 47.730469 52.585938 50.53125 55.386719 50.53125 58.84375 Z M 50.53125 58.84375 "/>
<path style=" stroke:none;fill-rule:nonzero;fill:rgb(0%,0%,0%);fill-opacity:1;" d="M 9.363281 63.085938 L 7.789063 61.511719 L 28.261719 40.992188 L 44.273438 57.269531 L 62.605469 38.632813 L 64.226563 40.207031 L 44.273438 60.417969 L 28.261719 44.144531 Z M 9.363281 63.085938 "/>
</g>
</svg>
