<?xml version="1.0" encoding="UTF-8"?>
<svg xmlns="http://www.w3.org/2000/svg" xmlns:xlink="http://www.w3.org/1999/xlink" width="70pt" height="70pt" viewBox="0 0 70 70" version="1.1">
<defs>
<linearGradient id="linear0" gradientUnits="userSpaceOnUse" x1="9" y1="-7205.66" x2="9" y2="-7219.44" gradientTransform="matrix(3.888889,0,0,-3.888889,0,-28025.472222)">
<stop offset="0.13" style="stop-color:rgb(46.666667%,22.745098%,86.27451%);stop-opacity:1;"/>
<stop offset="0.23" style="stop-color:rgb(50.980392%,28.627451%,88.627451%);stop-opacity:1;"/>
<stop offset="0.43" style="stop-color:rgb(58.823529%,39.215686%,92.54902%);stop-opacity:1;"/>
<stop offset="0.6" style="stop-color:rgb(63.529412%,45.490196%,94.901961%);stop-opacity:1;"/>
<stop offset="0.74" style="stop-color:rgb(65.098039%,47.843137%,95.686275%);stop-opacity:1;"/>
</linearGradient>
</defs>
<g id="surface1">
<path style=" stroke:none;fill-rule:nonzero;fill:rgb(46.666667%,22.745098%,86.27451%);fill-opacity:1;" d="M 56.195313 34.222656 L 14.3125 34.222656 L 14.3125 53.082031 C 14.3125 57.984375 23.683594 61.988281 35.464844 61.988281 C 47.25 61.988281 56.621094 58.101563 56.621094 53.082031 Z M 56.195313 34.222656 "/>
<path style=" stroke:none;fill-rule:nonzero;fill:url(#linear0);" d="M 32.628906 8.398438 L 1.515625 24.304688 C 2.328125 24.027344 3.222656 24.136719 3.9375 24.609375 C 4.65625 25.082031 5.109375 25.859375 5.171875 26.714844 L 36.285156 40.25 C 40.019531 31.660156 36.085938 21.664063 27.496094 17.929688 C 18.902344 14.191406 8.910156 18.125 5.171875 26.714844 L 38.148438 13.105469 C 38.007813 11.921875 38.632813 10.777344 39.707031 10.257813 C 40.78125 9.734375 42.066406 9.953125 42.910156 10.796875 C 43.753906 11.640625 43.96875 12.925781 43.449219 13.996094 C 42.929688 15.070313 41.785156 15.695313 40.601563 15.554688 L 35.542969 8.320313 C 37.542969 8.300781 39.179688 9.902344 39.199219 11.898438 C 39.222656 13.898438 37.621094 15.535156 35.621094 15.554688 Z M 32.628906 8.398438 "/>
<path style=" stroke:none;fill-rule:nonzero;fill:rgb(31.372549%,90.196078%,100%);fill-opacity:1;" d="M 61.601563 39.667969 C 67.171875 40.226563 71.238281 45.195313 70.679688 50.769531 C 70.121094 56.34375 65.152344 60.410156 59.578125 59.851563 L 37.371094 23.332031 L 33.054688 26.40625 L 46.667969 32.199219 C 55.128906 23.738281 68.847656 23.738281 77.3125 32.199219 C 85.773438 40.664063 85.773438 54.382813 77.3125 62.84375 M 77.933594 62.84375 L 79.566406 59.617188 L 81.628906 62.261719 L 82.015625 62.261719 C 79.15625 63.132813 76.136719 63.332031 73.1875 62.84375 Z M 77.933594 62.84375 "/>
<path style=" stroke:none;fill-rule:nonzero;fill:rgb(33.333333%,18.431373%,60%);fill-opacity:1;" d="M 39.976563 25.121094 C 39.976563 23.660156 37.644531 22.476563 34.765625 22.476563 C 31.886719 22.476563 29.554688 23.660156 29.554688 25.121094 C 29.554688 26.582031 31.886719 27.765625 34.765625 27.765625 C 37.644531 27.765625 39.976563 26.582031 39.976563 25.121094 Z M 39.976563 25.121094 "/>
</g>
</svg>
