<?xml version="1.0" encoding="UTF-8"?>
<svg xmlns="http://www.w3.org/2000/svg" xmlns:xlink="http://www.w3.org/1999/xlink" width="70pt" height="70pt" viewBox="0 0 70 70" version="1.1">
<defs>
<linearGradient id="linear0" gradientUnits="userSpaceOnUse" x1="8.991" y1="14.11" x2="8.991" y2="1.365" gradientTransform="matrix(3.888889,0,0,3.888889,0,0)">
<stop offset="0" style="stop-color:rgb(46.666667%,22.745098%,86.27451%);stop-opacity:1;"/>
<stop offset="0.817" style="stop-color:rgb(65.098039%,47.843137%,95.686275%);stop-opacity:1;"/>
</linearGradient>
<linearGradient id="linear1" gradientUnits="userSpaceOnUse" x1="12.253" y1="4.246" x2="12.253" y2="9.797" gradientTransform="matrix(3.888889,0,0,3.888889,0,0)">
<stop offset="0" style="stop-color:rgb(76.470588%,94.509804%,100%);stop-opacity:1;"/>
<stop offset="0.999" style="stop-color:rgb(61.176471%,92.156863%,100%);stop-opacity:1;"/>
</linearGradient>
<linearGradient id="linear2" gradientUnits="userSpaceOnUse" x1="12.253" y1="16.635" x2="12.253" y2="12.512" gradientTransform="matrix(3.888889,0,0,3.888889,0,0)">
<stop offset="0" style="stop-color:rgb(76.470588%,94.509804%,100%);stop-opacity:1;"/>
<stop offset="0.999" style="stop-color:rgb(61.176471%,92.156863%,100%);stop-opacity:1;"/>
</linearGradient>
</defs>
<g id="surface1">
<path style=" stroke:none;fill-rule:nonzero;fill:url(#linear0);" d="M 69.929688 39.347656 C 69.929688 36.167969 65.289063 35.121094 63.503906 32.671875 C 61.046875 29.300781 60.785156 24.980469 56.292969 24.246094 C 56.585938 35.054688 48.15625 44.101563 37.351563 44.566406 C 37.941406 44.566406 38.519531 44.539063 39.085938 44.492188 L 70.976563 44.492188 C 75.367188 40.101563 82.488281 40.101563 86.878906 44.492188 C 91.269531 48.882813 91.269531 56.003906 86.878906 60.394531 Z M 69.929688 39.347656 "/>
<path style=" stroke:none;fill-rule:nonzero;fill:rgb(0%,35.686275%,63.137255%);fill-opacity:1;" d="M 30.972656 25.484375 L 64.328125 25.484375 C 64.972656 25.484375 65.496094 26.007813 65.496094 26.652344 L 65.496094 38.625 C 65.496094 39.269531 64.972656 39.792969 64.328125 39.792969 L 30.972656 39.792969 C 30.328125 39.792969 29.804688 39.269531 29.804688 38.625 L 29.804688 26.652344 C 29.804688 26.007813 30.328125 25.484375 30.972656 25.484375 Z M 30.972656 25.484375 "/>
<path style=" stroke:none;fill-rule:nonzero;fill:url(#linear1);" d="M 34.496094 16.511719 L 60.8125 16.511719 C 61.453125 16.511719 61.976563 17.035156 61.976563 17.679688 L 61.976563 36.929688 C 61.976563 37.574219 61.453125 38.09375 60.8125 38.09375 L 34.496094 38.09375 C 33.851563 38.09375 33.328125 37.574219 33.328125 36.929688 L 33.328125 17.679688 C 33.328125 17.035156 33.851563 16.511719 34.496094 16.511719 Z M 34.496094 16.511719 "/>
<path style=" stroke:none;fill-rule:nonzero;fill:rgb(36.862745%,62.745098%,93.72549%);fill-opacity:1;" d="M 27.632813 31.8125 L 67.667969 31.8125 C 58.882813 50.496094 36.613281 58.523438 17.929688 49.738281 C -0.757813 40.953125 -8.785156 18.6875 0 0 L 0 23.722656 L 25.304688 23.722656 L 25.304688 0 C 25.304688 6.988281 19.640625 12.652344 12.652344 12.652344 C 5.664063 12.652344 0 6.988281 0 0 Z M 27.632813 31.8125 "/>
<path style=" stroke:none;fill-rule:nonzero;fill:rgb(0%,47.058824%,83.137255%);fill-opacity:1;" d="M 25.304688 54.804688 L 70 54.804688 L 70 58.773438 L 25.304688 58.773438 Z M 25.304688 54.804688 "/>
<path style=" stroke:none;fill-rule:nonzero;fill:rgb(51.372549%,72.54902%,97.647059%);fill-opacity:1;" d="M 32.265625 47.851563 L 63.023438 47.851563 C 63.667969 47.851563 64.191406 48.375 64.191406 49.019531 L 64.191406 51.320313 C 64.191406 51.964844 63.667969 52.488281 63.023438 52.488281 L 32.265625 52.488281 C 31.621094 52.488281 31.097656 51.964844 31.097656 51.320313 L 31.097656 49.019531 C 31.097656 48.375 31.621094 47.851563 32.265625 47.851563 Z M 32.265625 47.851563 "/>
<path style=" stroke:none;fill-rule:nonzero;fill:rgb(76.470588%,94.509804%,100%);fill-opacity:1;" d="M 63.503906 39.207031 C 63.503906 39.820313 63.007813 40.316406 62.398438 40.316406 C 61.785156 40.316406 61.289063 39.820313 61.289063 39.207031 C 61.289063 38.59375 61.785156 38.097656 62.398438 38.097656 C 63.007813 38.097656 63.503906 38.59375 63.503906 39.207031 Z M 63.503906 39.207031 "/>
<path style=" stroke:none;fill-rule:nonzero;fill:url(#linear2);" d="M 33.328125 48.65625 L 61.976563 48.65625 L 61.976563 63.523438 C 44.433594 63.203125 30.476563 48.722656 30.796875 31.179688 C 31.121094 13.636719 45.601563 -0.320313 63.144531 0 L 34.492188 0 C 34.949219 0.265625 35.171875 0.800781 35.035156 1.3125 C 34.898438 1.824219 34.433594 2.175781 33.90625 2.175781 C 33.378906 2.175781 32.917969 1.824219 32.78125 1.3125 C 32.644531 0.800781 32.867188 0.265625 33.324219 0 L 33.324219 -14.867188 L 33.328125 -14.867188 Z M 33.328125 48.65625 "/>
</g>
</svg>
