<?xml version="1.0" encoding="UTF-8"?>
<svg xmlns="http://www.w3.org/2000/svg" xmlns:xlink="http://www.w3.org/1999/xlink" width="70pt" height="70pt" viewBox="0 0 70 70" version="1.1">
<g id="surface1">
<path style=" stroke:none;fill-rule:nonzero;fill:rgb(0%,0%,0%);fill-opacity:1;" d="M 61.195313 33.898438 L 61.195313 35.21875 L 70 40.945313 L 64.71875 54.152344 L 54.152344 52.832031 L 52.832031 54.152344 L 55.03125 64.71875 L 41.824219 70 L 36.101563 61.195313 L 33.898438 61.195313 L 28.175781 70 L 14.96875 64.71875 L 17.609375 54.152344 L 15.847656 52.832031 L 5.28125 55.03125 L 0 41.824219 L 8.804688 36.101563 L 8.804688 34.339844 L 0 28.175781 L 5.28125 14.96875 L 15.847656 17.609375 C 10.984375 21.988281 3.496094 21.59375 -0.878906 16.730469 C -5.257813 11.867188 -4.863281 4.375 0 0 L -2.640625 -10.566406 L 10.566406 -15.847656 L 16.289063 -7.042969 L 18.492188 -7.042969 L 24.214844 -15.847656 L 37.421875 -10.566406 L 35.21875 0 L 36.539063 1.761719 L 47.105469 -0.878906 L 52.390625 12.328125 Z M 57.234375 38.300781 L 57.234375 31.699219 L 65.15625 26.855469 L 62.074219 19.371094 L 52.832031 21.574219 C 53.195313 23.613281 52.335938 25.679688 50.628906 26.855469 L 52.832031 17.609375 L 45.347656 14.527344 L 40.503906 22.453125 L 31.699219 22.453125 L 26.855469 4.84375 L 19.371094 7.925781 L 21.574219 17.167969 C 23.277344 18.347656 24.140625 20.414063 23.773438 22.453125 L 14.527344 20.25 L 11.445313 27.734375 L 19.371094 32.578125 L 19.371094 39.183594 L 4.84375 43.144531 L 7.925781 50.628906 L 17.167969 48.425781 L 21.574219 52.832031 L 19.371094 62.074219 L 26.855469 65.15625 L 31.699219 57.234375 L 38.300781 57.234375 L 43.144531 65.15625 L 50.628906 62.074219 L 48.425781 52.832031 L 52.832031 48.425781 L 62.074219 50.628906 L 65.15625 43.144531 Z M 35.21875 22.011719 L 40.0625 22.894531 C 42.417969 20.097656 46.152344 18.867188 49.710938 19.710938 C 53.269531 20.558594 56.046875 23.335938 56.890625 26.894531 C 57.738281 30.453125 56.507813 34.183594 53.710938 36.539063 L 53.710938 41.824219 C 53.476563 43.519531 53.179688 45.148438 52.832031 46.667969 C 53.609375 42.4375 57.082031 39.230469 61.359375 38.789063 C 65.636719 38.347656 69.691406 40.777344 71.320313 44.757813 C 72.949219 48.734375 71.757813 53.3125 68.398438 55.992188 C 65.039063 58.675781 60.3125 58.820313 56.792969 56.351563 L 51.949219 57.234375 L 46.667969 56.351563 C 50.828125 51.308594 57.980469 49.921875 63.726563 53.050781 C 69.46875 56.179688 72.183594 62.941406 70.203125 69.171875 C 68.21875 75.40625 62.09375 79.355469 55.597656 78.589844 C 49.105469 77.824219 44.066406 72.558594 43.585938 66.039063 C 41.472656 57.777344 45.144531 49.121094 52.550781 44.898438 C 59.960938 40.675781 69.28125 41.929688 75.3125 47.960938 C 81.339844 53.988281 82.59375 63.308594 78.371094 70.71875 C 74.152344 78.128906 65.496094 81.800781 57.234375 79.683594 L 57.234375 88.050781 Z M 35.21875 44.023438 L 38.742188 44.023438 L 41.382813 41.824219 L 43.585938 39.183594 C 57.078125 35.414063 71.074219 43.296875 74.84375 56.792969 C 78.613281 70.285156 70.726563 84.28125 57.234375 88.050781 C 55.921875 88.265625 54.582031 88.265625 53.269531 88.050781 L 51.070313 85.410156 L 48.425781 83.648438 C 49.578125 85.8125 49.222656 88.464844 47.546875 90.25 L 44.90625 92.011719 L 43.144531 94.652344 C 45.445313 95.65625 46.980469 97.871094 47.105469 100.378906 L 48.867188 103.019531 L 51.507813 105.21875 Z M 35.21875 44.023438 "/>
</g>
</svg>
