<?xml version="1.0" encoding="UTF-8"?>
<svg xmlns="http://www.w3.org/2000/svg" xmlns:xlink="http://www.w3.org/1999/xlink" width="70pt" height="70pt" viewBox="0 0 70 70" version="1.1">
<defs>
<linearGradient id="linear0" gradientUnits="userSpaceOnUse" x1="9" y1="15.342" x2="9" y2="2.658" gradientTransform="matrix(3.888889,0,0,3.888889,0,0)">
<stop offset="0" style="stop-color:rgb(0%,47.058824%,83.137255%);stop-opacity:1;"/>
<stop offset="0.817" style="stop-color:rgb(36.862745%,62.745098%,93.72549%);stop-opacity:1;"/>
</linearGradient>
<filter id="alpha" filterUnits="objectBoundingBox" x="0%" y="0%" width="100%" height="100%">
  <feColorMatrix type="matrix" in="SourceGraphic" values="0 0 0 0 1 0 0 0 0 1 0 0 0 0 1 0 0 0 1 0"/>
</filter>
<mask id="mask0">
  <g filter="url(#alpha)">
<rect x="0" y="0" width="70" height="70" style="fill:rgb(0%,0%,0%);fill-opacity:0.74902;stroke:none;"/>
  </g>
</mask>
<clipPath id="clip1">
  <rect x="0" y="0" width="70" height="70"/>
</clipPath>
<g id="surface5" clip-path="url(#clip1)">
<path style=" stroke:none;fill-rule:nonzero;fill:rgb(100%,100%,100%);fill-opacity:1;" d="M 5.152344 45.683594 L 12.082031 51.410156 C -2.113281 54.746094 -16.328125 45.945313 -19.664063 31.746094 C -23 17.550781 -14.195313 3.335938 0 0 L 0 -2.492188 L 16.539063 -2.492188 L 16.539063 -6.382813 L -7.570313 -6.382813 C -5.808594 -6.703125 -4.121094 -5.53125 -3.800781 -3.769531 C -3.480469 -2.007813 -4.652344 -0.320313 -6.414063 0 Z M 5.152344 45.683594 "/>
</g>
</defs>
<g id="surface1">
<path style=" stroke:none;fill-rule:nonzero;fill:url(#linear0);" d="M 69.792969 44.210938 C 71.0625 48.898438 70.078125 53.90625 67.136719 57.769531 C 64.191406 61.628906 59.621094 63.902344 54.765625 63.921875 C 64.902344 64.308594 72.871094 72.714844 72.71875 82.855469 C 73.300781 82.855469 73.886719 82.824219 74.445313 82.777344 L 53.277344 82.777344 C 57.644531 78.410156 64.730469 78.410156 69.097656 82.777344 C 73.464844 87.148438 73.464844 94.230469 69.097656 98.597656 Z M 69.792969 44.210938 "/>
<path style=" stroke:none;fill-rule:nonzero;fill:rgb(31.372549%,90.196078%,100%);fill-opacity:1;" d="M 36.820313 41.007813 C 25.496094 35.855469 20.496094 22.496094 25.648438 11.171875 C 30.804688 -0.152344 44.164063 -5.15625 55.488281 0 L 36.828125 0 L 36.828125 -18.667969 Z M 36.820313 41.007813 "/>
<use xlink:href="#surface5" mask="url(#mask0)"/>
<path style=" stroke:none;fill-rule:nonzero;fill:rgb(100%,100%,100%);fill-opacity:1;" d="M 30.957031 39.878906 L 23.878906 34.136719 C 14.453125 33.996094 6.921875 26.242188 7.0625 16.816406 C 7.203125 7.390625 14.957031 -0.140625 24.382813 0 L 24.382813 2.511719 L 7.816406 2.511719 L 7.816406 6.402344 L 30.539063 6.402344 C 28.773438 8.101563 25.960938 8.046875 24.261719 6.277344 C 22.5625 4.511719 22.617188 1.699219 24.382813 0 Z M 30.957031 39.878906 "/>
</g>
</svg>
