<?xml version="1.0" encoding="UTF-8"?>
<svg xmlns="http://www.w3.org/2000/svg" xmlns:xlink="http://www.w3.org/1999/xlink" width="70pt" height="70pt" viewBox="0 0 70 70" version="1.1">
<defs>
<linearGradient id="linear0" gradientUnits="userSpaceOnUse" x1="9" y1="12.85" x2="9" y2="0.09" gradientTransform="matrix(3.888889,0,0,3.888889,0,0)">
<stop offset="0" style="stop-color:rgb(9.803922%,54.117647%,70.196078%);stop-opacity:1;"/>
<stop offset="0.44" style="stop-color:rgb(15.686275%,71.764706%,85.882353%);stop-opacity:1;"/>
<stop offset="0.78" style="stop-color:rgb(19.607843%,83.137255%,96.078431%);stop-opacity:1;"/>
</linearGradient>
</defs>
<g id="surface1">
<path style=" stroke:none;fill-rule:nonzero;fill:url(#linear0);" d="M 70 34.417969 C 65.972656 48.269531 51.476563 56.234375 37.625 52.207031 C 23.773438 48.179688 15.804688 33.6875 19.832031 19.832031 C 24.128906 18.351563 28.796875 18.351563 33.09375 19.832031 L 66.734375 19.832031 C 62.339844 24.226563 62.339844 31.347656 66.734375 35.738281 C 71.125 40.132813 78.246094 40.132813 82.640625 35.738281 Z M 70 34.417969 "/>
<path style=" stroke:none;fill-rule:nonzero;fill:rgb(70.196078%,70.196078%,70.196078%);fill-opacity:1;" d="M 33.367188 32.898438 L 36.398438 32.898438 L 36.398438 56.972656 L 33.367188 56.972656 Z M 33.367188 32.898438 "/>
<path style=" stroke:none;fill-rule:nonzero;fill:rgb(94.901961%,94.901961%,94.901961%);fill-opacity:1;" d="M 42.972656 25.628906 C 42.972656 30.09375 39.351563 33.714844 34.882813 33.714844 C 30.414063 33.714844 26.792969 30.09375 26.792969 25.628906 C 26.792969 21.160156 30.414063 17.539063 34.882813 17.539063 C 39.351563 17.539063 42.972656 21.160156 42.972656 25.628906 Z M 42.972656 25.628906 "/>
</g>
</svg>
