<?xml version="1.0" encoding="UTF-8"?>
<svg xmlns="http://www.w3.org/2000/svg" xmlns:xlink="http://www.w3.org/1999/xlink" width="70pt" height="70pt" viewBox="0 0 70 70" version="1.1">
<defs>
<linearGradient id="linear0" gradientUnits="userSpaceOnUse" x1="13.41" y1="14.43" x2="7" y2="3.72" gradientTransform="matrix(3.888889,0,0,3.888889,0,0)">
<stop offset="0" style="stop-color:rgb(0%,47.058824%,83.137255%);stop-opacity:1;"/>
<stop offset="0.16" style="stop-color:rgb(7.45098%,50.196078%,85.490196%);stop-opacity:1;"/>
<stop offset="0.53" style="stop-color:rgb(23.529412%,56.862745%,89.803922%);stop-opacity:1;"/>
<stop offset="0.82" style="stop-color:rgb(33.333333%,61.176471%,92.54902%);stop-opacity:1;"/>
<stop offset="1" style="stop-color:rgb(36.862745%,62.745098%,93.72549%);stop-opacity:1;"/>
</linearGradient>
</defs>
<g id="surface1">
<path style=" stroke:none;fill-rule:nonzero;fill:url(#linear0);" d="M 67.394531 12.015625 L 58.332031 3.148438 C 57.324219 2.433594 57.039063 1.0625 57.671875 0 L 40.289063 3.109375 C 39.429688 -1.6875 42.625 -6.277344 47.425781 -7.136719 C 52.226563 -7.996094 56.8125 -4.800781 57.671875 0 L 2.605469 39.746094 C -8.371094 24.539063 -4.941406 3.3125 10.265625 -7.660156 C 25.472656 -18.636719 46.695313 -15.207031 57.671875 0 L 81.785156 23.996094 C 88.410156 17.335938 88.382813 6.566406 81.726563 -0.0585938 C 75.066406 -6.683594 64.296875 -6.65625 57.671875 0 L 66.109375 30.800781 C 57.605469 33.128906 48.820313 28.125 46.492188 19.621094 C 44.160156 11.113281 49.167969 2.332031 57.671875 0 L 58.996094 -15.554688 C 63.289063 -15.039063 66.355469 -11.140625 65.839844 -6.84375 C 65.324219 -2.550781 61.421875 0.515625 57.128906 0 Z M 56.621094 17.890625 C 56.621094 15.742188 58.363281 14 60.511719 14 C 62.660156 14 64.398438 15.742188 64.398438 17.890625 C 64.398438 20.035156 62.660156 21.777344 60.511719 21.777344 Z M 56.621094 17.890625 "/>
<path style=" stroke:none;fill-rule:nonzero;fill:rgb(0%,35.686275%,63.137255%);fill-opacity:1;" d="M 56.621094 6.6875 C 56.621094 2.714844 59.84375 -0.503906 63.816406 -0.503906 C 67.789063 -0.503906 71.011719 2.714844 71.011719 6.6875 C 71.011719 10.664063 67.789063 13.882813 63.816406 13.882813 Z M 60.511719 14.660156 C 61.914063 13.65625 63.816406 13.695313 65.175781 14.761719 C 66.535156 15.828125 67.027344 17.664063 66.386719 19.265625 C 65.746094 20.871094 64.121094 21.859375 62.402344 21.695313 C 60.683594 21.527344 59.277344 20.246094 58.957031 18.550781 L 62.84375 18.550781 Z M 60.511719 14.660156 "/>
<path style=" stroke:none;fill-rule:nonzero;fill:rgb(100%,100%,100%);fill-opacity:1;" d="M 37.878906 20.261719 L 36.398438 18.785156 L 35 20.261719 L 33.09375 18.355469 L 36.359375 14.972656 L 39.746094 18.355469 Z M 19.949219 35.195313 L 18.042969 33.289063 L 22.246094 29.089844 L 23.332031 30.0625 L 22.359375 29.089844 L 24.148438 31.109375 Z M 29.75 21.660156 L 31.65625 23.605469 L 27.535156 27.726563 L 25.628906 25.820313 Z M 14.777344 43.359375 L 11.394531 39.976563 L 14.777344 36.710938 L 16.683594 38.617188 L 15.207031 39.976563 L 16.683594 41.457031 Z M 20.222656 44.996094 L 24.734375 49.542969 L 22.789063 51.449219 L 18.277344 46.9375 Z M 29.710938 58.332031 L 26.328125 54.949219 L 28.390625 53.042969 L 29.710938 54.40625 L 31.109375 53.160156 L 33.015625 55.066406 Z M 38.890625 45.617188 L 40.832031 47.523438 L 36.515625 51.644531 L 34.609375 49.738281 Z M 44.140625 44.179688 L 42.117188 42.273438 L 46.316406 38.070313 L 48.222656 39.976563 L 44.332031 44.179688 L 43.398438 43.246094 Z M 51.644531 36.710938 L 49.582031 35 Z M 51.644531 36.710938 L 49.582031 35 L 50.945313 33.484375 L 49.582031 32.160156 L 51.488281 30.101563 L 54.871094 33.484375 Z M 43.398438 21.972656 L 47.910156 26.484375 L 45.964844 28.429688 L 41.457031 23.917969 Z M 43.398438 21.972656 "/>
</g>
</svg>
