<?xml version="1.0" encoding="UTF-8"?>
<svg xmlns="http://www.w3.org/2000/svg" xmlns:xlink="http://www.w3.org/1999/xlink" width="70pt" height="70pt" viewBox="0 0 70 70" version="1.1">
<defs>
<linearGradient id="linear0" gradientUnits="userSpaceOnUse" x1="10.7" y1="11.32" x2="10.7" y2="9" gradientTransform="matrix(3.888885,-0.00542991,0.00542991,3.888885,7.894444,-4.472224)">
<stop offset="0" style="stop-color:rgb(0%,47.058824%,83.137255%);stop-opacity:1;"/>
<stop offset="0.82" style="stop-color:rgb(36.862745%,62.745098%,93.72549%);stop-opacity:1;"/>
</linearGradient>
<linearGradient id="linear1" gradientUnits="userSpaceOnUse" x1="6.99" y1="11.32" x2="7" y2="9" gradientTransform="matrix(3.888889,0,0,3.888889,0,0)">
<stop offset="0" style="stop-color:rgb(0%,47.058824%,83.137255%);stop-opacity:1;"/>
<stop offset="0.82" style="stop-color:rgb(36.862745%,62.745098%,93.72549%);stop-opacity:1;"/>
</linearGradient>
<linearGradient id="linear2" gradientUnits="userSpaceOnUse" x1="3.29" y1="11.32" x2="3.3" y2="9" gradientTransform="matrix(3.888889,0,0,3.888889,0,0)">
<stop offset="0" style="stop-color:rgb(0%,47.058824%,83.137255%);stop-opacity:1;"/>
<stop offset="0.82" style="stop-color:rgb(36.862745%,62.745098%,93.72549%);stop-opacity:1;"/>
</linearGradient>
</defs>
<g id="surface1">
<path style=" stroke:none;fill-rule:nonzero;fill:url(#linear0);" d="M 54.054688 34.960938 C 54.054688 37.453125 52.035156 39.472656 49.542969 39.472656 C 47.054688 39.472656 45.035156 37.453125 45.035156 34.960938 C 45.035156 32.46875 47.054688 30.449219 49.542969 30.449219 C 52.035156 30.449219 54.054688 32.46875 54.054688 34.960938 Z M 54.054688 34.960938 "/>
<path style=" stroke:none;fill-rule:nonzero;fill:url(#linear1);" d="M 39.667969 35 C 39.667969 37.492188 37.648438 39.511719 35.15625 39.511719 C 32.664063 39.511719 30.644531 37.492188 30.644531 35 C 30.644531 32.507813 32.664063 30.488281 35.15625 30.488281 C 37.648438 30.488281 39.667969 32.507813 39.667969 35 Z M 39.667969 35 "/>
<path style=" stroke:none;fill-rule:nonzero;fill:url(#linear2);" d="M 25.277344 35 C 25.277344 37.492188 23.257813 39.511719 20.765625 39.511719 C 18.273438 39.511719 16.253906 37.492188 16.253906 35 C 16.253906 32.507813 18.273438 30.488281 20.765625 30.488281 C 23.257813 30.488281 25.277344 32.507813 25.277344 35 Z M 25.277344 35 "/>
<path style=" stroke:none;fill-rule:nonzero;fill:rgb(31.372549%,90.196078%,100%);fill-opacity:1;" d="M 24.042969 53.035156 L 21.457031 55.621094 C 6.097656 55.621094 -6.351563 43.171875 -6.351563 27.8125 C -6.351563 12.453125 6.097656 0 21.457031 0 L 0.699219 36.570313 C -9.398438 37.480469 -18.324219 30.035156 -19.234375 19.933594 C -20.144531 9.835938 -12.695313 0.910156 -2.597656 0 L -0.0195313 -2.589844 L 20.746094 18.113281 C 15.746094 24.5625 6.464844 25.730469 0.015625 20.730469 C -6.429688 15.726563 -7.601563 6.445313 -2.597656 0 Z M 24.042969 53.035156 "/>
<path style=" stroke:none;fill-rule:nonzero;fill:rgb(7.843137%,56.470588%,87.45098%);fill-opacity:1;" d="M 21.070313 14.421875 L 23.660156 17.003906 C 18.964844 23.535156 9.863281 25.027344 3.328125 20.332031 C -3.203125 15.636719 -4.695313 6.535156 0 0 L 3.257813 39.109375 L 0.667969 36.53125 C -9.417969 37.445313 -18.335938 30.003906 -19.25 19.917969 C -20.160156 9.828125 -12.722656 0.910156 -2.632813 0 L 19.421875 14.429688 C 23.40625 8.335938 21.699219 0.171875 15.609375 -3.8125 C 9.519531 -7.796875 1.351563 -6.089844 -2.632813 0 Z M 21.070313 14.421875 "/>
<path style=" stroke:none;fill-rule:nonzero;fill:rgb(31.372549%,90.196078%,100%);fill-opacity:1;" d="M 66.722656 30.644531 L 69.300781 33.234375 C 60.121094 52.371094 37.167969 60.445313 18.03125 51.265625 C -1.105469 42.089844 -9.175781 19.136719 0 0 L -19.113281 19.054688 C -24.375 19.054688 -28.640625 14.789063 -28.640625 9.527344 C -28.640625 4.265625 -24.375 0 -19.113281 0 L -21.695313 -2.589844 C -20.980469 -3.304688 -19.824219 -3.300781 -19.109375 -2.585938 C -18.398438 -1.871094 -18.398438 -0.714844 -19.113281 0 L 1.652344 -20.703125 Z M 66.722656 30.644531 "/>
<path style=" stroke:none;fill-rule:nonzero;fill:rgb(7.843137%,56.470588%,87.45098%);fill-opacity:1;" d="M 69.292969 36.503906 L 66.707031 39.085938 L 46.300781 18.628906 C 41.15625 31.414063 26.621094 37.609375 13.835938 32.464844 C 1.050781 27.320313 -5.144531 12.785156 0 0 L 2.621094 -2.605469 C 1.902344 -3.328125 0.730469 -3.332031 0.0078125 -2.613281 C -0.714844 -1.894531 -0.71875 -0.722656 0 0 L 18.757813 18.808594 C 13.5625 17.894531 10.09375 12.945313 11.003906 7.753906 C 11.914063 2.558594 16.863281 -0.910156 22.058594 0 Z M 69.292969 36.503906 "/>
</g>
</svg>
