<?xml version="1.0" encoding="UTF-8"?>
<svg xmlns="http://www.w3.org/2000/svg" xmlns:xlink="http://www.w3.org/1999/xlink" width="70pt" height="70pt" viewBox="0 0 70 70" version="1.1">
<defs>
<linearGradient id="linear0" gradientUnits="userSpaceOnUse" x1="6.73" y1="9.59" x2="6.73" y2="0.95" gradientTransform="matrix(3.888889,0,0,3.888889,0,0)">
<stop offset="0" style="stop-color:rgb(0%,47.058824%,83.137255%);stop-opacity:1;"/>
<stop offset="1" style="stop-color:rgb(36.862745%,62.745098%,93.72549%);stop-opacity:1;"/>
</linearGradient>
</defs>
<g id="surface1">
<path style=" stroke:none;fill-rule:nonzero;fill:rgb(58.039216%,58.039216%,58.039216%);fill-opacity:1;" d="M 60.121094 36.90625 L 67.394531 29.515625 C 67.976563 28.894531 67.785156 28.390625 66.929688 28.390625 L 63.273438 28.390625 C 55.433594 28.648438 48.867188 22.5 48.609375 14.660156 C 48.351563 6.820313 54.5 0.257813 62.339844 0 C 62.339844 -4.589844 61.171875 -17.382813 43.671875 -17.851563 C 48.601563 -18.097656 52.796875 -14.300781 53.042969 -9.371094 C 53.292969 -4.441406 49.496094 -0.246094 44.566406 0 L 44.566406 4.550781 C 47.519531 1.597656 52.308594 1.597656 55.261719 4.550781 C 58.214844 7.503906 58.214844 12.292969 55.261719 15.246094 L 55.261719 19.132813 L 51.878906 19.132813 C 51.023438 19.132813 50.789063 19.640625 51.371094 20.261719 L 58.140625 27.648438 C 55.785156 38.109375 45.402344 44.683594 34.941406 42.332031 C 24.480469 39.980469 17.910156 29.59375 20.261719 19.132813 Z M 60.121094 36.90625 "/>
<path style=" stroke:none;fill-rule:nonzero;fill:url(#linear0);" d="M 4.160156 3.695313 L 48.183594 3.695313 C 49.40625 3.695313 50.398438 4.6875 50.398438 5.910156 L 50.398438 35.078125 C 50.398438 36.300781 49.40625 37.292969 48.183594 37.292969 L 4.160156 37.292969 C 2.9375 37.292969 1.945313 36.300781 1.945313 35.078125 L 1.945313 5.910156 C 1.945313 4.6875 2.9375 3.695313 4.160156 3.695313 Z M 4.160156 3.695313 "/>
<path style=" stroke:none;fill-rule:nonzero;fill:rgb(51.372549%,72.54902%,97.647059%);fill-opacity:1;" d="M 4.160156 3.695313 L 48.804688 3.695313 C 47.785156 17.171875 36.03125 27.269531 22.554688 26.25 C 9.078125 25.230469 -1.019531 13.476563 0 0 L 0 11.667969 L 1.945313 11.667969 L 1.945313 5.871094 C 0.324219 6.410156 -1.425781 5.53125 -1.964844 3.910156 C -2.5 2.285156 -1.621094 0.535156 0 0 Z M 4.160156 3.695313 "/>
<path style=" stroke:none;fill-rule:nonzero;fill:rgb(0%,35.686275%,63.137255%);fill-opacity:1;" d="M 38.65625 44.957031 L 66.65625 44.957031 C 67.429688 44.957031 68.054688 45.582031 68.054688 46.355469 L 68.054688 64.90625 C 68.054688 65.679688 67.429688 66.304688 66.65625 66.304688 L 38.65625 66.304688 C 37.882813 66.304688 37.253906 65.679688 37.253906 64.90625 L 37.253906 46.355469 C 37.253906 45.582031 37.882813 44.957031 38.65625 44.957031 Z M 38.65625 44.957031 "/>
<path style=" stroke:none;fill-rule:nonzero;fill:rgb(100%,100%,100%);fill-opacity:1;" d="M 8.90625 14.777344 L 43.398438 14.777344 C 39.320313 26.761719 26.296875 33.167969 14.3125 29.089844 C 2.328125 25.007813 -4.082031 11.984375 0 0 L 0 3.578125 C -0.988281 3.382813 -1.632813 2.425781 -1.4375 1.4375 C -1.246094 0.449219 -0.289063 -0.191406 0.699219 0 L 8.90625 0 C 9.203125 0.160156 9.355469 0.503906 9.273438 0.832031 C 9.1875 1.160156 8.894531 1.390625 8.554688 1.390625 C 8.21875 1.390625 7.921875 1.160156 7.839844 0.832031 C 7.757813 0.503906 7.90625 0.160156 8.207031 0 L 8.207031 15.554688 C 3.910156 15.554688 0.429688 12.074219 0.429688 7.777344 C 0.429688 3.480469 3.910156 0 8.207031 0 Z M 8.945313 21.933594 L 43.4375 21.933594 C 37.382813 31.664063 24.585938 34.640625 14.855469 28.582031 C 5.125 22.527344 2.148438 9.730469 8.207031 0 L 8.207031 3.617188 C 7.207031 3.433594 6.546875 2.476563 6.726563 1.476563 C 6.910156 0.480469 7.867188 -0.183594 8.867188 0 L 8.945313 0 C 9.226563 0.152344 9.371094 0.476563 9.292969 0.789063 C 9.214844 1.097656 8.933594 1.316406 8.613281 1.316406 C 8.292969 1.316406 8.011719 1.097656 7.933594 0.789063 C 7.855469 0.476563 8 0.152344 8.285156 0 L 8.285156 -3.617188 C 9.28125 -3.617188 10.089844 -2.808594 10.089844 -1.808594 C 10.089844 -0.808594 9.28125 0 8.285156 0 Z M 8.945313 29.167969 L 43.4375 29.167969 C 35.382813 38.875 20.984375 40.214844 11.277344 32.160156 C 1.570313 24.105469 0.230469 9.707031 8.285156 0 L 8.285156 3.578125 C 7.296875 3.382813 6.652344 2.425781 6.84375 1.4375 C 7.039063 0.449219 7.996094 -0.191406 8.984375 0 L 8.945313 0 C 9.21875 0.160156 9.351563 0.480469 9.269531 0.789063 C 9.1875 1.09375 8.910156 1.304688 8.59375 1.304688 C 8.277344 1.304688 8 1.09375 7.917969 0.789063 C 7.835938 0.480469 7.96875 0.160156 8.246094 0 L 8.246094 -3.578125 C 9.230469 -3.578125 10.035156 -2.777344 10.035156 -1.789063 C 10.035156 -0.800781 9.230469 0 8.246094 0 Z M 8.945313 29.167969 "/>
<path style=" stroke:none;fill-rule:nonzero;fill:rgb(0%,47.058824%,83.137255%);fill-opacity:1;" d="M 33.5625 40.367188 L 61.5625 40.367188 C 62.335938 40.367188 62.960938 40.992188 62.960938 41.765625 L 62.960938 60.316406 C 62.960938 61.089844 62.335938 61.714844 61.5625 61.714844 L 33.5625 61.714844 C 32.789063 61.714844 32.160156 61.089844 32.160156 60.316406 L 32.160156 41.765625 C 32.160156 40.992188 32.789063 40.367188 33.5625 40.367188 Z M 33.5625 40.367188 "/>
<path style=" stroke:none;fill-rule:nonzero;fill:rgb(51.372549%,72.54902%,97.647059%);fill-opacity:1;" d="M 33.5625 40.367188 L 61.949219 40.367188 C 50.804688 57.472656 27.898438 62.304688 10.792969 51.160156 C -6.316406 40.011719 -11.148438 17.105469 0 0 L 0 3.890625 L 32.160156 3.890625 L 32.160156 0.195313 C 32.105469 9.074219 24.863281 16.230469 15.984375 16.179688 C 7.101563 16.125 -0.0546875 8.882813 0 0 Z M 33.5625 40.367188 "/>
<path style=" stroke:none;fill-rule:nonzero;fill:rgb(100%,100%,100%);fill-opacity:1;" d="M 36.59375 47.40625 L 58.527344 47.40625 C 45.4375 63.566406 21.722656 66.058594 5.5625 52.964844 C -10.601563 39.875 -13.089844 16.160156 0 0 L 0 2.292969 C -0.632813 2.164063 -1.042969 1.546875 -0.914063 0.914063 C -0.785156 0.28125 -0.167969 -0.128906 0.464844 0 L 36.59375 0 C 36.777344 0.105469 36.867188 0.320313 36.8125 0.523438 C 36.757813 0.730469 36.574219 0.871094 36.359375 0.871094 C 36.148438 0.871094 35.964844 0.730469 35.910156 0.523438 C 35.855469 0.320313 35.945313 0.105469 36.128906 0 L 36.128906 -2.292969 C 36.761719 -2.292969 37.273438 -1.78125 37.273438 -1.148438 C 37.273438 -0.511719 36.761719 0 36.128906 0 Z M 36.59375 51.957031 L 58.527344 51.957031 C 44.179688 58.140625 27.535156 51.523438 21.351563 37.179688 C 15.164063 22.832031 21.78125 6.1875 36.128906 0 L 36.128906 2.292969 C 35.496094 2.175781 35.078125 1.566406 35.195313 0.933594 C 35.3125 0.300781 35.921875 -0.117188 36.554688 0 L 36.59375 0 C 36.785156 0.0976563 36.886719 0.316406 36.835938 0.523438 C 36.785156 0.734375 36.597656 0.882813 36.378906 0.882813 C 36.164063 0.882813 35.976563 0.734375 35.925781 0.523438 C 35.875 0.316406 35.976563 0.0976563 36.167969 0 L 36.167969 -2.292969 C 36.800781 -2.292969 37.3125 -1.78125 37.3125 -1.148438 C 37.3125 -0.511719 36.800781 0 36.167969 0 Z M 36.59375 56.542969 L 58.527344 56.542969 C 42.914063 62.71875 25.25 55.066406 19.074219 39.453125 C 12.898438 23.839844 20.550781 6.175781 36.167969 0 L 36.167969 2.292969 C 35.53125 2.175781 35.113281 1.566406 35.234375 0.933594 C 35.351563 0.300781 35.960938 -0.117188 36.59375 0 C 36.785156 0.0976563 36.886719 0.316406 36.835938 0.523438 C 36.785156 0.734375 36.597656 0.882813 36.378906 0.882813 C 36.164063 0.882813 35.976563 0.734375 35.925781 0.523438 C 35.875 0.316406 35.976563 0.0976563 36.167969 0 L 36.167969 -2.292969 C 36.800781 -2.292969 37.3125 -1.78125 37.3125 -1.148438 C 37.3125 -0.511719 36.800781 0 36.167969 0 Z M 36.59375 56.542969 "/>
</g>
</svg>
