<?xml version="1.0" encoding="UTF-8"?>
<svg xmlns="http://www.w3.org/2000/svg" xmlns:xlink="http://www.w3.org/1999/xlink" width="70pt" height="70pt" viewBox="0 0 70 70" version="1.1">
<defs>
<clipPath id="clip1">
  <path d="M 2 13 L 35 13 L 35 57 L 2 57 Z M 2 13 "/>
</clipPath>
<clipPath id="clip2">
  <path d="M 4.355469 13.339844 L 65.644531 13.339844 C 66.847656 13.339844 67.820313 14.3125 67.820313 15.515625 L 67.820313 54.445313 C 67.820313 55.648438 66.847656 56.621094 65.644531 56.621094 L 4.355469 56.621094 C 3.152344 56.621094 2.179688 55.648438 2.179688 54.445313 L 2.179688 15.515625 C 2.179688 14.3125 3.152344 13.339844 4.355469 13.339844 Z M 4.355469 13.339844 "/>
</clipPath>
<clipPath id="clip3">
  <path d="M 35 13 L 68 13 L 68 57 L 35 57 Z M 35 13 "/>
</clipPath>
<clipPath id="clip4">
  <path d="M 4.355469 13.339844 L 65.644531 13.339844 C 66.847656 13.339844 67.820313 14.3125 67.820313 15.515625 L 67.820313 54.445313 C 67.820313 55.648438 66.847656 56.621094 65.644531 56.621094 L 4.355469 56.621094 C 3.152344 56.621094 2.179688 55.648438 2.179688 54.445313 L 2.179688 15.515625 C 2.179688 14.3125 3.152344 13.339844 4.355469 13.339844 Z M 4.355469 13.339844 "/>
</clipPath>
<clipPath id="clip5">
  <path d="M 2 35 L 68 35 L 68 57 L 2 57 Z M 2 35 "/>
</clipPath>
<clipPath id="clip6">
  <path d="M 4.355469 13.339844 L 65.644531 13.339844 C 66.847656 13.339844 67.820313 14.3125 67.820313 15.515625 L 67.820313 54.445313 C 67.820313 55.648438 66.847656 56.621094 65.644531 56.621094 L 4.355469 56.621094 C 3.152344 56.621094 2.179688 55.648438 2.179688 54.445313 L 2.179688 15.515625 C 2.179688 14.3125 3.152344 13.339844 4.355469 13.339844 Z M 4.355469 13.339844 "/>
</clipPath>
<linearGradient id="linear0" gradientUnits="userSpaceOnUse" x1="9" y1="9.05" x2="9" y2="14.65" gradientTransform="matrix(3.888889,0,0,3.888889,0,0)">
<stop offset="0" style="stop-color:rgb(0%,35.686275%,63.137255%);stop-opacity:1;"/>
<stop offset="0.26" style="stop-color:rgb(0%,34.509804%,61.568627%);stop-opacity:1;"/>
<stop offset="0.53" style="stop-color:rgb(0%,30.980392%,56.470588%);stop-opacity:1;"/>
<stop offset="0.8" style="stop-color:rgb(0%,24.705882%,48.627451%);stop-opacity:1;"/>
<stop offset="1" style="stop-color:rgb(0%,18.823529%,40.392157%);stop-opacity:1;"/>
</linearGradient>
<clipPath id="clip7">
  <path d="M 2 13 L 68 13 L 68 39 L 2 39 Z M 2 13 "/>
</clipPath>
<clipPath id="clip8">
  <path d="M 4.355469 13.339844 L 65.644531 13.339844 C 66.847656 13.339844 67.820313 14.3125 67.820313 15.515625 L 67.820313 54.445313 C 67.820313 55.648438 66.847656 56.621094 65.644531 56.621094 L 4.355469 56.621094 C 3.152344 56.621094 2.179688 55.648438 2.179688 54.445313 L 2.179688 15.515625 C 2.179688 14.3125 3.152344 13.339844 4.355469 13.339844 Z M 4.355469 13.339844 "/>
</clipPath>
</defs>
<g id="surface1">
<g clip-path="url(#clip1)" clip-rule="nonzero">
<g clip-path="url(#clip2)" clip-rule="nonzero">
<path style=" stroke:none;fill-rule:nonzero;fill:rgb(19.607843%,74.509804%,86.666667%);fill-opacity:1;" d="M 2.179688 13.378906 L 2.179688 56.972656 L 35 35.195313 Z M 2.179688 13.378906 "/>
</g>
</g>
<g clip-path="url(#clip3)" clip-rule="nonzero">
<g clip-path="url(#clip4)" clip-rule="nonzero">
<path style=" stroke:none;fill-rule:nonzero;fill:rgb(9.803922%,54.117647%,70.196078%);fill-opacity:1;" d="M 67.820313 13.378906 L 35 35.195313 L 67.859375 56.933594 C 67.785156 56.078125 67.820313 12.601563 67.820313 13.378906 Z M 67.820313 13.378906 "/>
</g>
</g>
<g clip-path="url(#clip5)" clip-rule="nonzero">
<g clip-path="url(#clip6)" clip-rule="nonzero">
<path style=" stroke:none;fill-rule:nonzero;fill:url(#linear0);" d="M 34.882813 35.195313 L 2.179688 56.933594 L 67.785156 56.933594 L 67.785156 56.894531 Z M 34.882813 35.195313 "/>
</g>
</g>
<g clip-path="url(#clip7)" clip-rule="nonzero">
<g clip-path="url(#clip8)" clip-rule="nonzero">
<path style=" stroke:none;fill-rule:nonzero;fill:rgb(31.372549%,90.196078%,100%);fill-opacity:1;" d="M 2.179688 13.378906 L 67.820313 13.378906 L 35.351563 38.890625 C 24.609375 38.890625 15.90625 30.183594 15.90625 19.445313 C 15.90625 8.707031 24.609375 0 35.351563 0 Z M 2.179688 13.378906 "/>
</g>
</g>
</g>
</svg>
