<?xml version="1.0" encoding="UTF-8"?>
<svg xmlns="http://www.w3.org/2000/svg" xmlns:xlink="http://www.w3.org/1999/xlink" width="70pt" height="70pt" viewBox="0 0 70 70" version="1.1">
<defs>
<linearGradient id="linear0" gradientUnits="userSpaceOnUse" x1="9" y1="19.45" x2="9" y2="-0.65" gradientTransform="matrix(3.888889,-0.000000000000000009,0.000000000000000009,3.888889,-0.0155556,-0.00644332)">
<stop offset="0" style="stop-color:rgb(36.862745%,58.823529%,14.117647%);stop-opacity:1;"/>
<stop offset="0.14" style="stop-color:rgb(38.431373%,61.176471%,14.509804%);stop-opacity:1;"/>
<stop offset="1" style="stop-color:rgb(46.27451%,73.72549%,17.647059%);stop-opacity:1;"/>
</linearGradient>
<linearGradient id="linear1" gradientUnits="userSpaceOnUse" x1="7.51" y1="6.39" x2="7.5" y2="5.11" gradientTransform="matrix(3.888889,0,0,3.888889,0,0)">
<stop offset="0" style="stop-color:rgb(80%,80%,80%);stop-opacity:1;"/>
<stop offset="0.12" style="stop-color:rgb(84.313725%,84.313725%,84.313725%);stop-opacity:1;"/>
<stop offset="0.42" style="stop-color:rgb(92.156863%,92.156863%,92.156863%);stop-opacity:1;"/>
<stop offset="0.72" style="stop-color:rgb(97.254902%,97.254902%,97.254902%);stop-opacity:1;"/>
<stop offset="1" style="stop-color:rgb(98.823529%,98.823529%,98.823529%);stop-opacity:1;"/>
</linearGradient>
<filter id="alpha" filterUnits="objectBoundingBox" x="0%" y="0%" width="100%" height="100%">
  <feColorMatrix type="matrix" in="SourceGraphic" values="0 0 0 0 1 0 0 0 0 1 0 0 0 0 1 0 0 0 1 0"/>
</filter>
<mask id="mask0">
  <g filter="url(#alpha)">
<rect x="0" y="0" width="70" height="70" style="fill:rgb(0%,0%,0%);fill-opacity:0.54902;stroke:none;"/>
  </g>
</mask>
<clipPath id="clip1">
  <rect x="0" y="0" width="70" height="70"/>
</clipPath>
<g id="surface5" clip-path="url(#clip1)">
<path style=" stroke:none;fill-rule:nonzero;fill:rgb(94.901961%,94.901961%,94.901961%);fill-opacity:1;" d="M 25.746094 27.222656 C 18.226563 34.332031 6.371094 34 -0.738281 26.484375 C -7.847656 18.964844 -7.515625 7.109375 0 0 C 0.234375 0.3125 0.464844 0.542969 0.699219 0.816406 C -7.410156 -9.054688 -6.34375 -23.554688 3.121094 -32.136719 C 12.582031 -40.714844 27.117188 -40.363281 36.148438 -31.328125 C 45.183594 -22.292969 45.539063 -7.761719 36.957031 1.703125 C 28.375 11.167969 13.878906 12.230469 4.003906 4.121094 L 25.859375 4.121094 Z M 28.039063 18.082031 C 33.109375 12.246094 41.570313 10.75 48.335938 14.496094 C 55.097656 18.242188 58.320313 26.210938 56.058594 33.605469 C 53.796875 41 46.671875 45.804688 38.96875 45.125 C 31.265625 44.449219 25.085938 38.476563 24.148438 30.800781 L 41.84375 48.496094 L 41.84375 53.9375 Z M 31.695313 23.644531 C 35.140625 23.355469 38.171875 25.914063 38.460938 29.359375 C 38.75 32.808594 36.191406 35.835938 32.746094 36.128906 L 46.707031 36.128906 L 46.707031 35.816406 C 50.421875 32.101563 56.445313 32.101563 60.160156 35.816406 C 63.875 39.53125 63.875 45.554688 60.160156 49.273438 Z M 42.117188 27.84375 C 44.070313 20.277344 51.660156 15.605469 59.296875 17.273438 C 66.9375 18.9375 71.890625 26.34375 70.515625 34.039063 C 69.140625 41.734375 61.929688 46.96875 54.1875 45.886719 C 46.445313 44.808594 40.941406 37.800781 41.726563 30.023438 L 57.285156 45.578125 L 57.285156 47.015625 Z M 42.117188 27.84375 "/>
</g>
<mask id="mask1">
  <g filter="url(#alpha)">
<rect x="0" y="0" width="70" height="70" style="fill:rgb(0%,0%,0%);fill-opacity:0.54902;stroke:none;"/>
  </g>
</mask>
<clipPath id="clip2">
  <rect x="0" y="0" width="70" height="70"/>
</clipPath>
<g id="surface8" clip-path="url(#clip2)">
<path style=" stroke:none;fill-rule:nonzero;fill:rgb(94.901961%,94.901961%,94.901961%);fill-opacity:1;" d="M 35.855469 16.800781 C 33.632813 9.246094 36.816406 1.144531 43.589844 -2.875 C 50.359375 -6.894531 58.996094 -5.8125 64.566406 -0.242188 C 70.132813 5.324219 71.21875 13.960938 67.199219 20.734375 C 63.175781 27.503906 55.078125 30.6875 47.523438 28.464844 L 66.578125 28.464844 C 73.128906 28.316406 78.5625 33.503906 78.710938 40.054688 C 78.863281 46.605469 73.671875 52.039063 67.121094 52.1875 L 82.871094 52.1875 L 82.871094 57.75 C 83.921875 56.179688 84.347656 63.832031 83.820313 74.835938 C 83.292969 85.84375 82.015625 96.039063 80.964844 97.609375 L 83.183594 97.609375 C 87.84375 98.496094 92.492188 98.296875 93.566406 97.171875 C 94.636719 96.042969 91.730469 94.410156 87.070313 93.527344 Z M 45.109375 23.332031 L 44.410156 23.332031 L 43.984375 23.101563 C 63.429688 22.777344 79.457031 38.28125 79.78125 57.730469 C 80.101563 77.179688 64.597656 93.207031 45.148438 93.527344 L 45.617188 93.800781 C 46.25 94.332031 46.371094 95.261719 45.894531 95.9375 C 45.417969 96.617188 44.503906 96.816406 43.789063 96.398438 C 43.074219 95.980469 42.796875 95.085938 43.152344 94.335938 C 43.507813 93.589844 44.375 93.238281 45.148438 93.527344 L 46.238281 94.109375 C 50.453125 96.746094 51.816406 102.246094 49.324219 106.546875 C 46.832031 110.847656 41.378906 112.398438 37 110.050781 C 32.617188 107.703125 30.886719 102.304688 33.085938 97.847656 C 35.285156 93.390625 40.621094 91.480469 45.148438 93.527344 Z M 45.109375 23.332031 "/>
</g>
</defs>
<g id="surface1">
<path style=" stroke:none;fill-rule:nonzero;fill:url(#linear0);" d="M 1.9375 33.40625 L 33.394531 1.949219 C 34.277344 1.066406 35.703125 1.066406 36.585938 1.949219 L 68.042969 33.40625 C 68.925781 34.285156 68.925781 35.714844 68.042969 36.59375 L 36.585938 68.054688 C 35.703125 68.933594 34.277344 68.933594 33.394531 68.054688 L 1.9375 36.59375 C 1.054688 35.714844 1.054688 34.285156 1.9375 33.40625 Z M 1.9375 33.40625 "/>
<path style=" stroke:none;fill-rule:nonzero;fill:rgb(100%,100%,100%);fill-opacity:1;" d="M 42.503906 40.988281 L 53.746094 40.988281 C 42.425781 55.828125 21.21875 58.683594 6.378906 47.367188 C -8.464844 36.046875 -11.320313 14.839844 0 0 L 0 29.320313 C -8.097656 29.398438 -14.722656 22.894531 -14.796875 14.796875 C -14.871094 6.699219 -8.371094 0.0742188 -0.273438 0 L -3.382813 3.070313 L -3.382813 3.304688 C -4.296875 3.304688 -5.035156 2.566406 -5.035156 1.652344 C -5.035156 0.738281 -4.296875 0 -3.382813 0 L 36.050781 18.785156 C 30.863281 18.785156 26.660156 14.578125 26.660156 9.390625 C 26.660156 4.203125 30.863281 0 36.050781 0 L 32.550781 3.5 C 31.582031 2.535156 31.582031 0.964844 32.550781 0 C 33.515625 -0.964844 35.082031 -0.964844 36.050781 0 L 49.621094 13.535156 C 45.886719 17.28125 39.816406 17.289063 36.070313 13.554688 C 32.320313 9.816406 32.3125 3.746094 36.050781 0 L 35.816406 0.195313 L 32.746094 3.304688 C 31.832031 2.394531 31.832031 0.914063 32.746094 0 C 33.65625 -0.914063 35.136719 -0.914063 36.050781 0 Z M 42.503906 40.988281 "/>
<path style=" stroke:none;fill-rule:nonzero;fill:rgb(100%,100%,100%);fill-opacity:1;" d="M 26.714844 40.988281 L 15.554688 40.988281 C 4.238281 41.105469 -5.035156 32.027344 -5.152344 20.707031 C -5.269531 9.390625 3.808594 0.117188 15.128906 0 L 15.128906 29.320313 C 7.03125 29.320313 0.464844 22.757813 0.464844 14.660156 C 0.464844 6.5625 7.03125 0 15.128906 0 L 18.433594 3.304688 C 19.347656 2.394531 19.347656 0.914063 18.433594 0 C 17.519531 -0.914063 16.039063 -0.914063 15.128906 0 L 28.621094 -13.570313 C 24.875 -17.296875 18.816406 -17.28125 15.089844 -13.535156 C 11.363281 -9.785156 11.378906 -3.726563 15.128906 0 L 18.589844 3.5 C 17.621094 4.457031 16.0625 4.445313 15.109375 3.480469 C 14.152344 2.515625 14.160156 0.957031 15.128906 0 L 23.722656 36.398438 C 13.671875 38.773438 3.597656 32.546875 1.226563 22.496094 C -1.148438 12.445313 5.078125 2.375 15.128906 0 L 15.320313 0.195313 L 18.433594 3.304688 C 17.519531 3.113281 16.9375 2.214844 17.128906 1.304688 C 17.324219 0.390625 18.21875 -0.191406 19.132813 0 Z M 26.714844 40.988281 "/>
<path style=" stroke:none;fill-rule:nonzero;fill:rgb(100%,100%,100%);fill-opacity:1;" d="M 26.367188 51.179688 L 34.144531 58.957031 C 50.425781 49.527344 55.980469 28.6875 46.550781 12.40625 C 37.121094 -3.875 16.28125 -9.429688 0 0 L 7.777344 -7.777344 C 9.925781 -7.585938 11.511719 -5.6875 11.316406 -3.539063 C 11.125 -1.390625 9.226563 0.191406 7.078125 0 L 37.878906 0 C 38.054688 0.0898438 38.144531 0.289063 38.097656 0.480469 C 38.054688 0.671875 37.882813 0.808594 37.683594 0.808594 C 37.484375 0.808594 37.3125 0.671875 37.265625 0.480469 C 37.222656 0.289063 37.3125 0.0898438 37.488281 0 L 37.488281 31.109375 C 28.898438 31.230469 21.835938 24.359375 21.71875 15.769531 C 21.601563 7.179688 28.46875 0.117188 37.0625 0 L 32.121094 0 C 32.253906 -0.0859375 32.421875 -0.0859375 32.550781 0 L 32.550781 19.171875 C 27.253906 19.066406 23.050781 14.6875 23.160156 9.390625 C 23.265625 4.097656 27.644531 -0.105469 32.9375 0 L 28.273438 0 C 28.417969 -0.125 28.632813 -0.125 28.777344 0 Z M 26.367188 51.179688 "/>
<path style=" stroke:none;fill-rule:nonzero;fill:rgb(0%,47.058824%,83.137255%);fill-opacity:1;" d="M 41.535156 30.140625 C 33.210938 41.609375 17.167969 44.160156 5.695313 35.835938 C -5.773438 27.511719 -8.324219 11.46875 0 0 "/>
<path style=" stroke:none;fill-rule:nonzero;fill:url(#linear1);" d="M 32.589844 21.3125 C 32.589844 23.199219 31.058594 24.734375 29.167969 24.734375 C 27.277344 24.734375 25.746094 23.199219 25.746094 21.3125 C 25.746094 19.421875 27.277344 17.890625 29.167969 17.890625 C 31.058594 17.890625 32.589844 19.421875 32.589844 21.3125 Z M 32.589844 21.3125 "/>
<use xlink:href="#surface5" mask="url(#mask0)"/>
<path style=" stroke:none;fill-rule:nonzero;fill:rgb(94.901961%,94.901961%,94.901961%);fill-opacity:1;" d="M 43.90625 22.050781 C 43.90625 23.359375 42.84375 24.421875 41.535156 24.421875 C 40.222656 24.421875 39.160156 23.359375 39.160156 22.050781 C 39.160156 20.738281 40.222656 19.679688 41.535156 19.679688 C 42.84375 19.679688 43.90625 20.738281 43.90625 22.050781 Z M 43.90625 22.050781 "/>
<use xlink:href="#surface8" mask="url(#mask1)"/>
<path style=" stroke:none;fill-rule:nonzero;fill:rgb(94.901961%,94.901961%,94.901961%);fill-opacity:1;" d="M 32.589844 21.3125 C 32.589844 23.199219 31.058594 24.734375 29.167969 24.734375 C 27.277344 24.734375 25.746094 23.199219 25.746094 21.3125 C 25.746094 19.421875 27.277344 17.890625 29.167969 17.890625 C 31.058594 17.890625 32.589844 19.421875 32.589844 21.3125 Z M 32.589844 21.3125 "/>
<path style=" stroke:none;fill-rule:nonzero;fill:rgb(94.901961%,94.901961%,94.901961%);fill-opacity:1;" d="M 38.65625 27.570313 C 38.65625 28.796875 37.664063 29.789063 36.4375 29.789063 C 35.214844 29.789063 34.222656 28.796875 34.222656 27.570313 C 34.222656 26.347656 35.214844 25.355469 36.4375 25.355469 C 37.664063 25.355469 38.65625 26.347656 38.65625 27.570313 Z M 38.65625 27.570313 "/>
</g>
</svg>
