<?xml version="1.0" encoding="UTF-8"?>
<svg xmlns="http://www.w3.org/2000/svg" xmlns:xlink="http://www.w3.org/1999/xlink" width="70pt" height="70pt" viewBox="0 0 70 70" version="1.1">
<defs>
<linearGradient id="linear0" gradientUnits="userSpaceOnUse" x1="2.59" y1="10.16" x2="15.41" y2="10.16" gradientTransform="matrix(3.888889,0,0,3.888889,0,0)">
<stop offset="0" style="stop-color:rgb(0%,35.686275%,63.137255%);stop-opacity:1;"/>
<stop offset="0.07" style="stop-color:rgb(0%,37.647059%,66.27451%);stop-opacity:1;"/>
<stop offset="0.36" style="stop-color:rgb(0%,44.313725%,78.431373%);stop-opacity:1;"/>
<stop offset="0.52" style="stop-color:rgb(0%,47.058824%,83.137255%);stop-opacity:1;"/>
<stop offset="0.64" style="stop-color:rgb(0%,45.490196%,80.392157%);stop-opacity:1;"/>
<stop offset="0.82" style="stop-color:rgb(0%,41.568627%,73.333333%);stop-opacity:1;"/>
<stop offset="1" style="stop-color:rgb(0%,35.686275%,63.137255%);stop-opacity:1;"/>
</linearGradient>
</defs>
<g id="surface1">
<path style=" stroke:none;fill-rule:nonzero;fill:url(#linear0);" d="M 35 19.988281 C 21.234375 19.988281 10.070313 16.101563 10.070313 10.964844 L 10.070313 59.035156 C 10.070313 63.972656 21.039063 67.976563 34.648438 68.054688 L 35 68.054688 C 48.765625 68.054688 59.929688 64.167969 59.929688 59.035156 L 59.929688 10.964844 C 59.929688 15.984375 48.765625 19.988281 35 19.988281 Z M 35 19.988281 "/>
<path style=" stroke:none;fill-rule:nonzero;fill:rgb(90.980392%,90.980392%,90.980392%);fill-opacity:1;" d="M 59.929688 10.964844 C 59.929688 15.984375 48.765625 19.988281 35 19.988281 C 21.234375 19.988281 10.070313 16.101563 10.070313 10.964844 C 10.070313 5.832031 21.234375 1.945313 35 1.945313 C 48.765625 1.945313 59.929688 5.832031 59.929688 10.964844 "/>
<path style=" stroke:none;fill-rule:nonzero;fill:rgb(31.372549%,90.196078%,100%);fill-opacity:1;" d="M 54.132813 10.226563 C 54.132813 13.417969 45.539063 15.984375 35 15.984375 C 24.460938 15.984375 15.867188 13.417969 15.867188 10.226563 C 15.867188 7.039063 24.460938 4.511719 35 4.511719 C 45.539063 4.511719 54.132813 7.078125 54.132813 10.226563 "/>
<path style=" stroke:none;fill-rule:nonzero;fill:rgb(9.803922%,54.117647%,70.196078%);fill-opacity:1;" d="M 35 11.667969 C 35.21875 7.695313 35.964844 3.773438 37.214844 0 Z M 35 11.667969 "/>
<path style=" stroke:none;fill-rule:nonzero;fill:rgb(94.901961%,94.901961%,94.901961%);fill-opacity:1;" d="M 55.417969 24.578125 C 54.132813 24.578125 55.648438 25.550781 51.101563 25.746094 C 46.550781 25.9375 44.957031 30.605469 42 34.535156 C 42.394531 25.457031 49.101563 17.90625 58.066406 16.441406 C 67.03125 14.980469 75.792969 20.007813 79.050781 28.488281 C 82.308594 36.96875 79.167969 46.570313 71.53125 51.484375 C 63.890625 56.402344 53.851563 55.28125 47.484375 48.804688 L 51.0625 52.382813 C 50.011719 52.382813 47.714844 52.695313 47.714844 52.695313 C 48.023438 52.578125 48.335938 52.476563 48.648438 52.382813 C 48.960938 53.667969 51.527344 53.121094 51.527344 53.121094 C 52.621094 42.980469 61.03125 35.203125 71.226563 34.90625 C 81.421875 34.605469 90.273438 41.875 91.960938 51.933594 C 93.648438 61.992188 87.65625 71.753906 77.921875 74.796875 C 68.1875 77.84375 57.699219 73.238281 53.355469 64.011719 C 55.027344 64.011719 56.3125 62.417969 59.382813 60.746094 C 62.457031 59.070313 69.535156 60.746094 70.660156 60.746094 C 71.789063 60.746094 73.460938 57.789063 73.851563 56.855469 C 74.160156 58.957031 70.660156 64.632813 70.660156 64.632813 C 74.152344 66.457031 75.855469 70.5 74.722656 74.269531 C 73.589844 78.039063 69.9375 80.472656 66.023438 80.070313 C 62.105469 79.664063 59.027344 76.535156 58.6875 72.613281 C 58.351563 68.691406 60.84375 65.082031 64.632813 64.011719 C 64.945313 63.621094 65.917969 61.601563 66.035156 61.792969 C 66.148438 61.988281 66.65625 62.535156 66.851563 62.457031 C 74.988281 54.316406 88.1875 54.316406 96.328125 62.457031 C 104.46875 70.59375 104.46875 83.792969 96.328125 91.933594 C 50.554688 35 50.554688 31.617188 52.890625 30.214844 C 55.222656 28.816406 55.535156 27.535156 55.535156 27.417969 L 55.535156 27.222656 C 58.832031 26.582031 62.058594 28.628906 62.886719 31.886719 C 63.710938 35.148438 61.847656 38.484375 58.640625 39.492188 C 55.433594 40.5 51.996094 38.828125 50.8125 35.683594 C 49.625 32.539063 51.097656 29.011719 54.171875 27.648438 L 57.167969 27.648438 C 57.167969 27.648438 57.984375 25.316406 56.699219 25.316406 Z M 50.554688 28.699219 L 50.320313 28.699219 C 50.777344 28.34375 51.402344 28.304688 51.898438 28.597656 C 52.394531 28.894531 52.660156 29.464844 52.566406 30.03125 C 52.46875 30.601563 52.035156 31.054688 51.472656 31.171875 C 50.90625 31.292969 50.324219 31.050781 50.011719 30.566406 L 51.179688 30.566406 Z M 52.734375 28.699219 C 53.402344 23.035156 58.3125 18.839844 64.011719 19.0625 C 69.714844 19.285156 74.28125 23.855469 74.503906 29.554688 C 74.726563 35.253906 70.53125 40.164063 64.867188 40.832031 Z M 54.132813 26.714844 C 55.890625 28.414063 56.640625 30.902344 56.117188 33.289063 L 61.5625 33.289063 L 61.5625 38.035156 Z M 47.484375 44.800781 C 47.484375 44.800781 45.578125 46.589844 45.5 47.210938 C 45.421875 47.832031 47.601563 48.804688 48.960938 48.457031 C 51.214844 63.492188 41.664063 77.777344 26.90625 81.4375 C 12.148438 85.097656 -2.972656 76.933594 -8.007813 62.585938 C -13.039063 48.234375 -6.332031 32.414063 7.480469 26.054688 C 21.289063 19.691406 37.675781 24.882813 45.304688 38.035156 Z M 47.484375 44.800781 "/>
</g>
</svg>
