<?xml version="1.0" encoding="UTF-8"?>
<svg xmlns="http://www.w3.org/2000/svg" xmlns:xlink="http://www.w3.org/1999/xlink" width="70pt" height="70pt" viewBox="0 0 70 70" version="1.1">
<defs>
<linearGradient id="linear0" gradientUnits="userSpaceOnUse" x1="10.21" y1="16.75" x2="10.21" y2="1.03" gradientTransform="matrix(3.888889,0,0,3.888889,0,0)">
<stop offset="0" style="stop-color:rgb(0%,47.058824%,83.137255%);stop-opacity:1;"/>
<stop offset="0.82" style="stop-color:rgb(36.862745%,62.745098%,93.72549%);stop-opacity:1;"/>
</linearGradient>
</defs>
<g id="surface1">
<path style=" stroke:none;fill-rule:nonzero;fill:url(#linear0);" d="M 68.054688 40.753906 C 69.082031 44.574219 68.277344 48.652344 65.878906 51.796875 C 63.480469 54.941406 59.757813 56.796875 55.804688 56.816406 L 72.371094 73.382813 C 56.402344 89.074219 30.738281 88.847656 15.050781 72.878906 C -0.640625 56.910156 -0.414063 31.246094 15.554688 15.554688 L 42.777344 15.554688 C 39.222656 19.109375 39.222656 24.875 42.777344 28.429688 C 46.332031 31.980469 52.09375 31.980469 55.648438 28.429688 Z M 68.054688 40.753906 "/>
<path style=" stroke:none;fill-rule:evenodd;fill:rgb(31.372549%,90.196078%,100%);fill-opacity:1;" d="M 1.945313 43.59375 C -10.09375 44.132813 -20.289063 34.808594 -20.824219 22.769531 C -21.363281 10.730469 -12.039063 0.535156 0 0 L 0 13.261719 L 15.207031 13.261719 C 15.058594 20.214844 9.519531 25.847656 2.566406 26.117188 C -4.382813 26.382813 -10.335938 21.191406 -11.015625 14.269531 C -11.699219 7.347656 -6.867188 1.09375 0 0 Z M 1.945313 43.59375 "/>
<path style=" stroke:none;fill-rule:nonzero;fill:rgb(100%,100%,100%);fill-opacity:1;" d="M 23.332031 44.488281 L 23.332031 42.542969 L 21.351563 41.882813 L 20.84375 40.523438 L 21.816406 38.5 L 21.816406 38.265625 L 21.195313 37.644531 L 20.457031 36.867188 L 20.183594 36.867188 L 18.238281 37.839844 L 16.878906 37.488281 L 16.0625 35.3125 L 14.117188 35.3125 L 13.457031 37.292969 L 12.09375 37.800781 L 9.839844 36.710938 L 8.4375 38.109375 L 8.4375 38.34375 L 9.410156 40.289063 L 8.867188 41.648438 L 6.535156 42.503906 L 6.535156 44.449219 L 6.804688 44.449219 L 8.867188 45.148438 L 9.449219 46.472656 L 8.359375 48.726563 L 9.761719 50.128906 L 9.996094 50.128906 L 11.9375 49.117188 L 13.300781 49.660156 L 14.15625 52.035156 L 16.101563 52.035156 L 16.101563 51.761719 L 16.800781 49.660156 L 18.121094 49.117188 L 20.417969 50.167969 L 21.777344 48.804688 L 21.777344 48.535156 L 20.921875 46.667969 L 21.3125 45.304688 Z M 15.128906 46.277344 C 15.113281 45.152344 15.777344 44.132813 16.8125 43.695313 C 17.847656 43.257813 19.046875 43.492188 19.839844 44.285156 C 20.636719 45.082031 20.871094 46.277344 20.433594 47.3125 C 19.996094 48.347656 18.972656 49.015625 17.851563 49 Z M 15.128906 46.277344 "/>
</g>
</svg>
