<?xml version="1.0" encoding="UTF-8"?>
<svg xmlns="http://www.w3.org/2000/svg" xmlns:xlink="http://www.w3.org/1999/xlink" width="70pt" height="70pt" viewBox="0 0 70 70" version="1.1">
<defs>
<linearGradient id="linear0" gradientUnits="userSpaceOnUse" x1="0.5" y1="10.04" x2="13.18" y2="10.04" gradientTransform="matrix(3.888889,0,0,3.888889,0,0)">
<stop offset="0" style="stop-color:rgb(0%,35.686275%,63.137255%);stop-opacity:1;"/>
<stop offset="0.07" style="stop-color:rgb(0%,37.647059%,66.27451%);stop-opacity:1;"/>
<stop offset="0.36" style="stop-color:rgb(0%,44.313725%,78.431373%);stop-opacity:1;"/>
<stop offset="0.52" style="stop-color:rgb(0%,47.058824%,83.137255%);stop-opacity:1;"/>
<stop offset="0.64" style="stop-color:rgb(0%,45.490196%,80.392157%);stop-opacity:1;"/>
<stop offset="0.82" style="stop-color:rgb(0%,41.568627%,73.333333%);stop-opacity:1;"/>
<stop offset="1" style="stop-color:rgb(0%,35.686275%,63.137255%);stop-opacity:1;"/>
</linearGradient>
</defs>
<g id="surface1">
<path style=" stroke:none;fill-rule:nonzero;fill:url(#linear0);" d="M 26.601563 19.792969 C 12.988281 19.792969 1.945313 15.90625 1.945313 10.851563 L 1.945313 58.332031 C 1.945313 63.234375 12.792969 67.199219 26.25 67.277344 L 26.601563 67.277344 C 40.210938 67.277344 51.253906 63.390625 51.253906 58.332031 L 51.253906 10.851563 C 51.253906 15.789063 40.210938 19.792969 26.601563 19.792969 Z M 26.601563 19.792969 "/>
<path style=" stroke:none;fill-rule:nonzero;fill:rgb(90.980392%,90.980392%,90.980392%);fill-opacity:1;" d="M 51.253906 10.851563 C 51.253906 15.789063 40.210938 19.792969 26.601563 19.792969 C 12.988281 19.792969 1.945313 15.789063 1.945313 10.851563 C 1.945313 5.910156 12.988281 1.90625 26.601563 1.90625 C 40.210938 1.90625 51.253906 5.792969 51.253906 10.851563 "/>
<path style=" stroke:none;fill-rule:nonzero;fill:rgb(31.372549%,90.196078%,100%);fill-opacity:1;" d="M 45.5 10.109375 C 45.5 13.261719 37.023438 15.789063 26.601563 15.789063 C 16.179688 15.789063 7.777344 13.261719 7.777344 10.109375 C 7.777344 6.960938 16.179688 4.433594 26.601563 4.433594 C 37.023438 4.433594 45.5 7 45.5 10.109375 "/>
<path style=" stroke:none;fill-rule:nonzero;fill:rgb(9.803922%,54.117647%,70.196078%);fill-opacity:1;" d="M 26.601563 11.433594 C 43.828125 26.585938 47.488281 52.015625 35.226563 71.410156 C 22.96875 90.804688 -1.566406 98.410156 -22.648438 89.347656 C -43.726563 80.289063 -55.09375 57.25 -49.457031 35.007813 C -43.816406 12.769531 -22.851563 -2.074219 0 0 C 0 -24.164063 19.585938 -43.75 43.75 -43.75 C 67.914063 -43.75 87.5 -24.164063 87.5 0 C 87.5 24.164063 67.914063 43.75 43.75 43.75 Z M 26.601563 11.433594 "/>
<path style=" stroke:none;fill-rule:nonzero;fill:rgb(94.901961%,94.901961%,94.901961%);fill-opacity:1;" d="M 41.765625 43.167969 L 41.765625 30.023438 L 38.148438 30.023438 L 38.148438 46.121094 L 47.714844 46.121094 L 47.714844 43.167969 Z M 13.960938 36.671875 C 3.835938 37.003906 -4.644531 29.066406 -4.976563 18.9375 C -5.3125 8.8125 2.628906 0.332031 12.753906 0 C 13.527344 -0.773438 14.78125 -0.773438 15.554688 0 C 16.328125 0.773438 16.328125 2.027344 15.554688 2.800781 L 15.554688 45.578125 L 15.554688 42.234375 C 16.113281 44.496094 15.894531 46.878906 14.933594 49 L 19.328125 53.394531 C 19.328125 55.378906 20.570313 56.933594 23.214844 58.101563 C 19.398438 53.453125 19.898438 46.625 24.355469 42.585938 C 28.8125 38.546875 35.652344 38.714844 39.90625 42.964844 C 44.160156 47.21875 44.324219 54.0625 40.285156 58.515625 C 36.246094 62.972656 29.417969 63.472656 24.773438 59.65625 L 24.773438 63.542969 C 25 65.617188 26.058594 66.902344 27.132813 66.421875 C 28.207031 65.9375 28.890625 63.867188 28.660156 61.792969 L 28.660156 65.410156 C 28.207031 61.640625 30.195313 58 33.609375 56.339844 C 37.023438 54.679688 41.113281 55.363281 43.800781 58.050781 C 46.484375 60.734375 47.171875 64.828125 45.511719 68.242188 C 43.851563 71.65625 40.207031 73.640625 36.4375 73.1875 L 36.4375 74.859375 C 36.453125 73.851563 36.105469 72.875 35.464844 72.140625 C 34.742188 72.222656 34.011719 72.222656 33.289063 72.140625 Z M 34.183594 42.777344 C 34.058594 38.949219 36.285156 35.433594 39.800781 33.910156 C 43.3125 32.382813 47.402344 33.164063 50.109375 35.871094 C 52.820313 38.582031 53.597656 42.667969 52.074219 46.183594 C 50.550781 49.699219 47.035156 51.925781 43.207031 51.800781 L 50.246094 51.800781 C 54.742188 51.960938 58.386719 51.140625 58.386719 49.96875 C 58.386719 48.800781 54.742188 47.71875 50.246094 47.5625 C 50.292969 42.320313 49.695313 38.742188 48.910156 39.570313 C 48.128906 40.394531 47.453125 45.316406 47.40625 50.554688 C 50.441406 52.402344 52.171875 55.804688 51.878906 59.34375 L 58.996094 59.34375 C 57.835938 60.230469 57.503906 61.957031 58.234375 63.273438 C 58.96875 64.589844 60.511719 65.039063 61.75 64.292969 C 62.984375 63.546875 63.484375 61.867188 62.882813 60.472656 L 66.1875 64.359375 L 70.816406 64.359375 L 66.148438 60.042969 C 69.695313 60.421875 72.402344 63.390625 72.445313 66.957031 C 72.488281 70.523438 69.855469 73.558594 66.320313 74.023438 C 62.78125 74.484375 59.457031 72.230469 58.582031 68.773438 C 57.707031 65.316406 59.554688 61.75 62.882813 60.472656 Z M 30.566406 41.765625 C 32.136719 40.40625 34.496094 40.515625 35.929688 42.019531 C 37.363281 43.519531 37.363281 45.886719 35.929688 47.386719 C 34.496094 48.890625 32.136719 49 30.566406 47.640625 L 36.320313 53.394531 L 36.320313 60.316406 C 37.058594 59.308594 37.976563 59.898438 38.375 61.640625 C 38.773438 63.378906 38.496094 65.605469 37.761719 66.617188 L 43.4375 66.617188 Z M 30.566406 41.765625 "/>
<path style=" stroke:none;fill-rule:nonzero;fill:rgb(58.039216%,58.039216%,58.039216%);fill-opacity:1;" d="M 57.59375 68.015625 L 58.527344 64.945313 L 60.355469 63.894531 L 63.503906 65.292969 L 65.527344 63.234375 L 65.527344 63 L 64.089844 60.238281 L 64.945313 58.292969 L 68.09375 57.167969 L 68.445313 57.167969 L 68.445313 54.328125 L 68.054688 54.328125 L 64.945313 53.394531 L 63.933594 51.605469 L 65.292969 48.417969 L 63.234375 46.433594 L 63 46.433594 L 60.238281 47.832031 L 58.332031 46.667969 L 57.089844 43.207031 L 54.210938 43.207031 L 54.210938 43.632813 L 53.277344 46.707031 L 51.292969 47.5625 L 47.910156 46.003906 L 45.929688 48.066406 L 46.121094 48.457031 L 47.601563 51.332031 L 46.820313 53.316406 L 43.167969 54.445313 L 43.167969 57.320313 L 43.59375 57.320313 L 46.667969 58.253906 L 47.523438 60.238281 L 46.003906 63.582031 L 48.066406 65.605469 L 48.417969 65.410156 L 51.292969 63.933594 L 53.277344 64.710938 L 54.601563 68.171875 L 57.4375 68.171875 Z M 52.929688 58.839844 C 52.929688 56.5625 54.773438 54.714844 57.050781 54.714844 C 59.328125 54.714844 61.171875 56.5625 61.171875 58.839844 C 61.171875 61.117188 59.328125 62.960938 57.050781 62.960938 Z M 52.929688 58.839844 "/>
</g>
</svg>
