<?xml version="1.0" encoding="UTF-8"?>
<svg xmlns="http://www.w3.org/2000/svg" xmlns:xlink="http://www.w3.org/1999/xlink" width="70pt" height="70pt" viewBox="0 0 70 70" version="1.1">
<g id="surface1">
<path style=" stroke:none;fill-rule:nonzero;fill:rgb(0.392157%,36.078431%,85.490196%);fill-opacity:1;" d="M 65.625 35 C 65.625 51.914063 51.914063 65.625 35 65.625 C 18.085938 65.625 4.375 51.914063 4.375 35 C 4.375 18.085938 18.085938 4.375 35 4.375 C 51.914063 4.375 65.625 18.085938 65.625 35 Z M 65.625 35 "/>
<path style=" stroke:none;fill-rule:nonzero;fill:rgb(100%,100%,100%);fill-opacity:1;" d="M 35 4.375 C 44.875 13.359375 47.796875 27.703125 42.214844 39.832031 C 36.636719 51.960938 23.84375 59.074219 10.597656 57.417969 C -2.652344 55.765625 -13.300781 45.71875 -15.722656 32.589844 C -18.144531 19.460938 -11.785156 6.273438 0 0 M 0 -4.375 C 15.703125 0 0 15.703125 0 35 C 0 54.296875 15.703125 70 35 70 C 54.296875 70 70 54.296875 70 35 C 70 15.703125 54.296875 0 35 0 Z M 0 -4.375 "/>
<path style=" stroke:none;fill-rule:nonzero;fill:rgb(100%,100%,100%);fill-opacity:1;" d="M 35 12.03125 L 19.6875 31.171875 L 30.40625 31.171875 L 30.40625 57.96875 L 39.59375 57.96875 L 39.59375 31.171875 L 50.3125 31.171875 Z M 35 12.03125 "/>
</g>
</svg>
