<?xml version="1.0" encoding="UTF-8"?>
<svg xmlns="http://www.w3.org/2000/svg" xmlns:xlink="http://www.w3.org/1999/xlink" width="70pt" height="70pt" viewBox="0 0 70 70" version="1.1">
<defs>
<linearGradient id="linear0" gradientUnits="userSpaceOnUse" x1="-175.993" y1="-343.723" x2="-175.993" y2="-359.232" gradientTransform="matrix(4.495556,0,0,4.001667,826.672778,1441.02)">
<stop offset="0" style="stop-color:rgb(99.607843%,63.137255%,10.588235%);stop-opacity:1;"/>
<stop offset="0.284" style="stop-color:rgb(99.607843%,64.705882%,10.196078%);stop-opacity:1;"/>
<stop offset="0.547" style="stop-color:rgb(99.607843%,69.019608%,9.411765%);stop-opacity:1;"/>
<stop offset="0.8" style="stop-color:rgb(100%,76.470588%,7.843137%);stop-opacity:1;"/>
<stop offset="1" style="stop-color:rgb(100%,84.313725%,5.882353%);stop-opacity:1;"/>
</linearGradient>
</defs>
<g id="surface1">
<path style=" stroke:none;fill-rule:nonzero;fill:rgb(31.372549%,90.196078%,100%);fill-opacity:1;" d="M 21.542969 50.964844 L 19.265625 53.25 C 4.5625 53.25 -7.359375 41.328125 -7.359375 26.625 C -7.359375 11.921875 4.5625 0 19.265625 0 L 0.867188 36.371094 C -9.175781 31.292969 -13.199219 19.03125 -8.121094 8.988281 C -3.039063 -1.058594 9.222656 -5.082031 19.265625 0 L 21.550781 -2.292969 L 39.953125 16.054688 C 35.519531 21.765625 27.296875 22.804688 21.582031 18.371094 C 15.871094 13.9375 14.832031 5.714844 19.265625 0 Z M 21.542969 50.964844 "/>
<path style=" stroke:none;fill-rule:nonzero;fill:rgb(7.843137%,56.470588%,87.45098%);fill-opacity:1;" d="M 18.910156 16.742188 L 21.207031 19.027344 C 15.953125 24.882813 6.945313 25.371094 1.089844 20.117188 C -4.765625 14.863281 -5.253906 5.855469 0 0 L 3.132813 38.625 L 0.839844 36.332031 C -9.191406 37.144531 -17.984375 29.667969 -18.792969 19.632813 C -19.601563 9.601563 -12.125 0.808594 -2.09375 0 L 14.523438 -16.664063 C 9.921875 -21.253906 2.472656 -21.242188 -2.117188 -16.640625 C -6.703125 -12.039063 -6.695313 -4.589844 -2.09375 0 Z M 18.910156 16.742188 "/>
<path style=" stroke:none;fill-rule:nonzero;fill:rgb(31.372549%,90.196078%,100%);fill-opacity:1;" d="M 66.851563 31.15625 L 69.136719 33.453125 C 59.898438 32.640625 53.066406 24.496094 53.875 15.261719 C 54.6875 6.023438 62.832031 -0.808594 72.070313 0 L 55.136719 16.878906 C 50.476563 16.878906 46.699219 13.097656 46.699219 8.4375 C 46.699219 3.777344 50.476563 0 55.136719 0 L 52.859375 -2.28125 C 53.488281 -2.910156 54.507813 -2.910156 55.136719 -2.28125 C 55.769531 -1.652344 55.765625 -0.628906 55.136719 0 L 73.539063 -18.347656 Z M 66.851563 31.15625 "/>
<path style=" stroke:none;fill-rule:nonzero;fill:rgb(7.843137%,56.470588%,87.45098%);fill-opacity:1;" d="M 69.152344 36.320313 L 66.859375 38.613281 L 48.78125 20.484375 C 43.125 33.953125 27.621094 40.289063 14.148438 34.632813 C 0.679688 28.976563 -5.65625 13.472656 0 0 L 2.292969 -2.285156 C 1.664063 -2.921875 0.636719 -2.921875 0.00390625 -2.289063 C -0.628906 -1.660156 -0.632813 -0.632813 0 0 L 16.617188 16.667969 C 12.015625 21.257813 4.5625 21.246094 -0.0234375 16.640625 C -4.613281 12.039063 -4.601563 4.589844 0 0 Z M 69.152344 36.320313 "/>
<path style=" stroke:none;fill-rule:nonzero;fill:url(#linear0);" d="M 32.894531 38.5 L 18.9375 38.5 C 19.253906 38.484375 19.546875 38.667969 19.671875 38.960938 C 19.792969 39.25 19.71875 39.589844 19.484375 39.800781 C 19.253906 40.015625 18.910156 40.0625 18.628906 39.914063 C 18.347656 39.765625 18.191406 39.460938 18.234375 39.144531 L 34.964844 4.394531 C 44.5625 9.015625 48.59375 20.539063 43.976563 30.136719 C 39.355469 39.730469 27.832031 43.765625 18.234375 39.144531 L 34.742188 39.144531 C 34.699219 38.828125 34.863281 38.515625 35.152344 38.371094 C 35.441406 38.226563 35.789063 38.285156 36.019531 38.511719 C 36.246094 38.742188 36.300781 39.089844 36.160156 39.378906 C 36.015625 39.667969 35.703125 39.832031 35.386719 39.789063 L 33.1875 30.980469 L 52.351563 30.980469 C 52.324219 30.664063 52.496094 30.367188 52.785156 30.234375 C 53.070313 30.101563 53.40625 30.160156 53.628906 30.382813 C 53.855469 30.609375 53.914063 30.945313 53.78125 31.230469 C 53.648438 31.515625 53.351563 31.691406 53.035156 31.664063 L 21.191406 64.792969 C 20.890625 64.972656 18.765625 66.738281 19.804688 64.058594 Z M 32.894531 38.5 "/>
</g>
</svg>
