<?xml version="1.0" encoding="UTF-8"?>
<svg xmlns="http://www.w3.org/2000/svg" xmlns:xlink="http://www.w3.org/1999/xlink" width="70pt" height="70pt" viewBox="0 0 70 70" version="1.1">
<defs>
<linearGradient id="linear0" gradientUnits="userSpaceOnUse" x1="9.286" y1="7.103" x2="8.876" y2="19.415" gradientTransform="matrix(3.888889,0,0,3.888889,0,0)">
<stop offset="0" style="stop-color:rgb(90.196078%,90.196078%,90.196078%);stop-opacity:1;"/>
<stop offset="1" style="stop-color:rgb(70.196078%,70.196078%,70.196078%);stop-opacity:1;"/>
</linearGradient>
</defs>
<g id="surface1">
<path style=" stroke:none;fill-rule:nonzero;fill:url(#linear0);" d="M 63.070313 25.625 L 43.917969 25.625 C 36.839844 25.347656 31.332031 19.382813 31.609375 12.308594 C 31.886719 5.234375 37.847656 -0.277344 44.925781 0 L 44.925781 11.59375 C 41.722656 11.316406 39.355469 8.492188 39.632813 5.292969 C 39.910156 2.089844 42.730469 -0.277344 45.933594 0 L 24.914063 0 C 25.222656 -0.179688 25.601563 -0.179688 25.910156 0 L 25.910156 11.832031 C 22.644531 11.554688 20.21875 8.679688 20.5 5.414063 C 20.777344 2.144531 23.652344 -0.277344 26.917969 0 L 5.914063 0 C 6.222656 -0.179688 6.605469 -0.179688 6.914063 0 L 6.914063 13.925781 C 3.070313 13.925781 -0.046875 10.808594 -0.046875 6.964844 C -0.046875 3.117188 3.070313 0 6.914063 0 L 45.085938 0 C 45.085938 10.542969 36.542969 19.085938 26 19.085938 C 15.460938 19.085938 6.914063 10.542969 6.914063 0 L 24.691406 0 C 24.691406 4.910156 20.710938 8.886719 15.800781 8.886719 C 10.894531 8.886719 6.914063 4.910156 6.914063 0 L 6.914063 27.636719 C -0.71875 28.195313 -7.355469 22.457031 -7.910156 14.828125 C -8.46875 7.195313 -2.730469 0.554688 4.898438 0 Z M 63.070313 25.625 "/>
<path style=" stroke:none;fill-rule:nonzero;fill:rgb(0%,35.686275%,63.137255%);fill-opacity:1;" d="M 47.09375 56.371094 L 60.898438 56.371094 C 61.457031 56.371094 61.90625 56.820313 61.90625 57.375 L 61.90625 65.90625 C 61.90625 66.460938 61.457031 66.914063 60.898438 66.914063 L 47.09375 66.914063 C 46.539063 66.914063 46.085938 66.460938 46.085938 65.90625 L 46.085938 57.375 C 46.085938 56.820313 46.539063 56.371094 47.09375 56.371094 Z M 47.09375 56.371094 "/>
<path style=" stroke:none;fill-rule:nonzero;fill:rgb(36.862745%,62.745098%,93.72549%);fill-opacity:1;" d="M 47.09375 42.527344 L 60.898438 42.527344 C 61.457031 42.527344 61.90625 42.980469 61.90625 43.535156 L 61.90625 52.0625 C 61.90625 52.621094 61.457031 53.070313 60.898438 53.070313 L 47.09375 53.070313 C 46.539063 53.070313 46.085938 52.621094 46.085938 52.0625 L 46.085938 43.535156 C 46.085938 42.980469 46.539063 42.527344 47.09375 42.527344 Z M 47.09375 42.527344 "/>
<path style=" stroke:none;fill-rule:nonzero;fill:rgb(100%,100%,100%);fill-opacity:1;" d="M 47.09375 28.6875 L 60.898438 28.6875 C 61.457031 28.6875 61.90625 29.140625 61.90625 29.695313 L 61.90625 38.222656 C 61.90625 38.78125 61.457031 39.230469 60.898438 39.230469 L 47.09375 39.230469 C 46.539063 39.230469 46.085938 38.78125 46.085938 38.222656 L 46.085938 29.695313 C 46.085938 29.140625 46.539063 28.6875 47.09375 28.6875 Z M 47.09375 28.6875 "/>
<path style=" stroke:none;fill-rule:nonzero;fill:rgb(0%,35.686275%,63.137255%);fill-opacity:1;" d="M 28.097656 56.390625 L 41.902344 56.390625 C 42.460938 56.390625 42.910156 56.839844 42.910156 57.394531 L 42.910156 65.925781 C 42.910156 66.480469 42.460938 66.933594 41.902344 66.933594 L 28.097656 66.933594 C 27.539063 66.933594 27.089844 66.480469 27.089844 65.925781 L 27.089844 57.394531 C 27.089844 56.839844 27.539063 56.390625 28.097656 56.390625 Z M 28.097656 56.390625 "/>
<path style=" stroke:none;fill-rule:nonzero;fill:rgb(100%,100%,100%);fill-opacity:1;" d="M 28.097656 42.550781 L 41.902344 42.550781 C 42.460938 42.550781 42.910156 43.003906 42.910156 43.558594 L 42.910156 52.085938 C 42.910156 52.644531 42.460938 53.09375 41.902344 53.09375 L 28.097656 53.09375 C 27.539063 53.09375 27.089844 52.644531 27.089844 52.085938 L 27.089844 43.558594 C 27.089844 43.003906 27.539063 42.550781 28.097656 42.550781 Z M 28.097656 42.550781 "/>
<path style=" stroke:none;fill-rule:nonzero;fill:rgb(0%,35.686275%,63.137255%);fill-opacity:1;" d="M 9.101563 56.390625 L 22.90625 56.390625 C 23.460938 56.390625 23.914063 56.839844 23.914063 57.394531 L 23.914063 65.925781 C 23.914063 66.480469 23.460938 66.933594 22.90625 66.933594 L 9.101563 66.933594 C 8.542969 66.933594 8.09375 66.480469 8.09375 65.925781 L 8.09375 57.394531 C 8.09375 56.839844 8.542969 56.390625 9.101563 56.390625 Z M 9.101563 56.390625 "/>
<path style=" stroke:none;fill-rule:nonzero;fill:rgb(36.862745%,62.745098%,93.72549%);fill-opacity:1;" d="M 24.910156 13.207031 L 41.3125 13.207031 C 41.972656 13.207031 42.507813 13.742188 42.507813 14.40625 L 42.507813 24.535156 C 42.507813 25.195313 41.972656 25.734375 41.3125 25.734375 L 24.910156 25.734375 C 24.246094 25.734375 23.710938 25.195313 23.710938 24.535156 L 23.710938 14.40625 C 23.710938 13.742188 24.246094 13.207031 24.910156 13.207031 Z M 24.910156 13.207031 "/>
<path style=" stroke:none;fill-rule:nonzero;fill:rgb(0%,47.058824%,83.137255%);fill-opacity:1;" d="M 6.109375 26.289063 L 22.511719 26.289063 C 23.175781 26.289063 23.710938 26.824219 23.710938 27.488281 L 23.710938 37.617188 C 23.710938 38.277344 23.175781 38.816406 22.511719 38.816406 L 6.109375 38.816406 C 5.449219 38.816406 4.910156 38.277344 4.910156 37.617188 L 4.910156 27.488281 C 4.910156 26.824219 5.449219 26.289063 6.109375 26.289063 Z M 6.109375 26.289063 "/>
<path style=" stroke:none;fill-rule:nonzero;fill:rgb(51.372549%,72.54902%,97.647059%);fill-opacity:1;" d="M 6.109375 0 L 22.511719 0 C 23.175781 0 23.710938 0.535156 23.710938 1.199219 L 23.710938 11.328125 C 23.710938 11.988281 23.175781 12.527344 22.511719 12.527344 L 6.109375 12.527344 C 5.449219 12.527344 4.910156 11.988281 4.910156 11.328125 L 4.910156 1.199219 C 4.910156 0.535156 5.449219 0 6.109375 0 Z M 6.109375 0 "/>
</g>
</svg>
