<?xml version="1.0" encoding="UTF-8"?>
<svg xmlns="http://www.w3.org/2000/svg" xmlns:xlink="http://www.w3.org/1999/xlink" width="70pt" height="70pt" viewBox="0 0 70 70" version="1.1">
<defs>
<linearGradient id="linear0" gradientUnits="userSpaceOnUse" x1="13.308" y1="8.911" x2="13.308" y2="17.61" gradientTransform="matrix(3.888889,0,0,3.888889,0,0)">
<stop offset="0" style="stop-color:rgb(19.607843%,83.137255%,96.078431%);stop-opacity:1;"/>
<stop offset="1" style="stop-color:rgb(9.803922%,54.117647%,70.196078%);stop-opacity:1;"/>
</linearGradient>
</defs>
<g id="surface1">
<path style=" stroke:none;fill-rule:nonzero;fill:rgb(46.666667%,22.745098%,86.27451%);fill-opacity:1;" d="M 55.25 17.140625 L 55.25 48.316406 L 28.457031 63.980469 L 28.457031 32.761719 Z M 55.25 17.140625 "/>
<path style=" stroke:none;fill-rule:nonzero;fill:rgb(71.764706%,58.823529%,97.647059%);fill-opacity:1;" d="M 55.25 17.140625 L 28.460938 32.804688 L 1.671875 17.136719 L 28.460938 1.472656 Z M 55.25 17.140625 "/>
<path style=" stroke:none;fill-rule:nonzero;fill:rgb(65.098039%,47.843137%,95.686275%);fill-opacity:1;" d="M 28.457031 32.804688 L 28.457031 63.980469 L 1.671875 48.316406 L 1.671875 17.136719 Z M 28.457031 32.804688 "/>
<path style=" stroke:none;fill-rule:nonzero;fill:rgb(9.803922%,54.117647%,70.196078%);fill-opacity:1;" d="M 63.285156 41.179688 L 63.445313 41.34375 C 74.863281 23.824219 69.914063 0.363281 52.394531 -11.050781 C 34.875 -22.46875 11.417969 -17.519531 0 0 L 1.554688 -1.316406 L 4.421875 -6.027344 C 6.085938 -5.925781 7.355469 -4.496094 7.253906 -2.832031 C 7.152344 -1.167969 5.71875 0.101563 4.054688 0 L 3.609375 -0.445313 C 3.667969 -0.386719 3.699219 -0.300781 3.691406 -0.214844 C 3.683594 -0.128906 3.640625 -0.0507813 3.574219 0 L -0.921875 2.996094 L -2.1875 4.640625 C -3.464844 3.050781 -3.214844 0.722656 -1.625 -0.558594 C -0.0351563 -1.839844 2.292969 -1.589844 3.574219 0 L 3.746094 0.171875 L -5.589844 9.78125 L -7.511719 7.785156 L -9.644531 9.996094 C -9.808594 8.351563 -8.898438 6.792969 -7.390625 6.121094 C -5.882813 5.453125 -4.117188 5.828125 -3.007813 7.050781 C -1.898438 8.273438 -1.699219 10.066406 -2.515625 11.5 C -3.328125 12.9375 -4.96875 13.6875 -6.585938 13.367188 L 35.503906 62.898438 C 21.828125 74.523438 1.316406 72.855469 -10.308594 59.179688 C -21.929688 45.5 -20.265625 24.988281 -6.585938 13.367188 L -2.148438 17.984375 C -0.871094 16.757813 -0.832031 14.730469 -2.058594 13.457031 C -3.285156 12.179688 -5.3125 12.140625 -6.585938 13.367188 L 2.355469 4.0625 C 2.246094 2.542969 3.09375 1.109375 4.484375 0.476563 C 5.871094 -0.15625 7.507813 0.136719 8.585938 1.214844 C 9.667969 2.296875 9.960938 3.933594 9.328125 5.320313 C 8.691406 6.710938 7.261719 7.558594 5.738281 7.445313 L 7.875 5.242188 L 5.953125 3.25 Z M 63.285156 41.179688 "/>
<path style=" stroke:none;fill-rule:nonzero;fill:url(#linear0);" d="M 66.960938 62.292969 L 64.738281 60.007813 L 50.585938 45.394531 L 49.882813 44.644531 C 49.585938 48.734375 46.203125 51.914063 42.105469 51.964844 L 42.402344 52.257813 L 46.101563 56.027344 C 45.0625 57.050781 43.390625 57.035156 42.367188 55.996094 C 41.34375 54.953125 41.359375 53.28125 42.402344 52.257813 L 41.417969 56.128906 C 40.347656 56.070313 39.53125 55.15625 39.589844 54.085938 C 39.648438 53.019531 40.5625 52.199219 41.628906 52.257813 L 37.839844 53.304688 C 37.550781 53.328125 37.296875 53.113281 37.273438 52.824219 C 37.253906 52.535156 37.46875 52.28125 37.757813 52.257813 L 34.140625 48.519531 C 35.171875 48.476563 36.046875 49.277344 36.089844 50.3125 C 36.132813 51.34375 35.328125 52.214844 34.296875 52.257813 L 34.441406 52.398438 L 35.21875 53.222656 L 51.429688 70.191406 C 46.480469 74.921875 38.628906 74.742188 33.898438 69.792969 C 29.164063 64.839844 29.34375 56.992188 34.296875 52.257813 C 34.351563 52.210938 34.40625 52.15625 34.460938 52.09375 C 34.644531 50.242188 36.230469 48.847656 38.09375 48.910156 C 39.953125 48.972656 41.449219 50.464844 41.511719 52.328125 C 41.570313 54.1875 40.179688 55.777344 38.324219 55.960938 Z M 66.960938 62.292969 "/>
</g>
</svg>
