<?xml version="1.0" encoding="UTF-8"?>
<svg xmlns="http://www.w3.org/2000/svg" xmlns:xlink="http://www.w3.org/1999/xlink" width="70pt" height="61pt" viewBox="0 0 70 61" version="1.1">
<g id="surface1">
<path style=" stroke:none;fill-rule:nonzero;fill:rgb(0%,0%,0%);fill-opacity:1;" d="M 0 0 L 70 0 L 70 7.40625 L 43.75 33.550781 L 43.75 61 L 26.25 61 L 26.25 33.550781 L 0 7.40625 Z M 65.625 5.664063 L 65.625 4.355469 L 4.375 4.355469 L 4.375 5.664063 L 30.625 31.808594 L 30.625 56.644531 L 39.375 56.644531 L 39.375 31.808594 Z M 66.9375 39.214844 L 70 42.265625 L 62.125 50.105469 L 70 57.949219 L 66.9375 61 L 59.0625 53.15625 L 51.1875 61 L 48.125 57.949219 L 56 50.105469 L 48.125 42.265625 L 51.1875 39.214844 L 59.0625 47.058594 Z M 66.9375 39.214844 "/>
</g>
</svg>
