<?xml version="1.0" encoding="UTF-8"?>
<svg xmlns="http://www.w3.org/2000/svg" xmlns:xlink="http://www.w3.org/1999/xlink" width="70pt" height="70pt" viewBox="0 0 70 70" version="1.1">
<g id="surface1">
<path style=" stroke:none;fill-rule:nonzero;fill:rgb(36.470588%,70.196078%,0%);fill-opacity:1;" d="M 65.625 35 C 65.625 51.914063 51.914063 65.625 35 65.625 C 18.085938 65.625 4.375 51.914063 4.375 35 C 4.375 18.085938 18.085938 4.375 35 4.375 C 51.914063 4.375 65.625 18.085938 65.625 35 Z M 65.625 35 "/>
<path style=" stroke:none;fill-rule:nonzero;fill:rgb(100%,100%,100%);fill-opacity:1;" d="M 35 4.433594 C 44.824219 13.421875 47.699219 27.738281 42.105469 39.824219 C 36.511719 51.910156 23.734375 58.980469 10.523438 57.308594 C -2.6875 55.636719 -13.296875 45.601563 -15.703125 32.503906 C -18.105469 19.40625 -11.753906 6.257813 0 0 M 35 0 C 15.703125 0 0 15.703125 0 35 C 0 54.296875 15.703125 70 35 70 C 54.296875 70 70 54.296875 70 35 C 70 15.703125 54.296875 0 35 0 Z M 35 0 "/>
<path style=" stroke:none;fill-rule:nonzero;fill:rgb(100%,100%,100%);fill-opacity:1;" d="M 18.007813 36.109375 C 8.035156 41.082031 -4.078125 37.03125 -9.050781 27.058594 C -14.023438 17.085938 -9.972656 4.972656 0 0 L 3.195313 -2.953125 C 4.007813 -2.070313 3.957031 -0.695313 3.074219 0.121094 C 2.191406 0.9375 0.816406 0.882813 0 0 L 31.632813 39.804688 L 46.179688 21.175781 C 40.332031 33.925781 25.253906 39.523438 12.5 33.675781 C -0.25 27.828125 -5.847656 12.75 0 0 L 3.460938 2.671875 C 4.121094 3.164063 4.265625 4.117188 3.765625 4.789063 L -14.835938 28.609375 C -22.734375 28.574219 -29.109375 22.140625 -29.078125 14.242188 C -29.042969 6.339844 -22.609375 -0.0351563 -14.707031 0 Z M 18.007813 36.109375 "/>
</g>
</svg>
