<?xml version="1.0" encoding="UTF-8"?>
<svg xmlns="http://www.w3.org/2000/svg" xmlns:xlink="http://www.w3.org/1999/xlink" width="70pt" height="70pt" viewBox="0 0 70 70" version="1.1">
<defs>
<linearGradient id="linear0" gradientUnits="userSpaceOnUse" x1="9" y1="1.99" x2="9" y2="14.03" gradientTransform="matrix(3.888889,0,0,3.888889,0,0)">
<stop offset="0" style="stop-color:rgb(36.862745%,62.745098%,93.72549%);stop-opacity:1;"/>
<stop offset="0.18" style="stop-color:rgb(33.333333%,61.176471%,92.54902%);stop-opacity:1;"/>
<stop offset="0.47" style="stop-color:rgb(23.529412%,56.862745%,89.803922%);stop-opacity:1;"/>
<stop offset="0.84" style="stop-color:rgb(7.45098%,50.196078%,85.490196%);stop-opacity:1;"/>
<stop offset="1" style="stop-color:rgb(0%,47.058824%,83.137255%);stop-opacity:1;"/>
</linearGradient>
<linearGradient id="linear1" gradientUnits="userSpaceOnUse" x1="9.06" y1="6.39" x2="9.06" y2="16.01" gradientTransform="matrix(3.888889,0,0,3.888889,0,0)">
<stop offset="0" style="stop-color:rgb(70.196078%,70.196078%,70.196078%);stop-opacity:1;"/>
<stop offset="0.12" style="stop-color:rgb(67.843137%,67.843137%,67.843137%);stop-opacity:1;"/>
<stop offset="0.64" style="stop-color:rgb(60.784314%,60.784314%,60.784314%);stop-opacity:1;"/>
<stop offset="1" style="stop-color:rgb(58.039216%,58.039216%,58.039216%);stop-opacity:1;"/>
</linearGradient>
</defs>
<g id="surface1">
<path style=" stroke:none;fill-rule:nonzero;fill:url(#linear0);" d="M 68.054688 39.898438 C 57.039063 43.839844 44.910156 38.105469 40.96875 27.085938 C 37.027344 16.066406 42.765625 3.941406 53.785156 0 C 61.1875 2.785156 66.125 9.824219 66.226563 17.734375 L 98 17.734375 C 93.84375 21.890625 93.84375 28.628906 98 32.785156 C 102.15625 36.9375 108.894531 36.9375 113.050781 32.785156 Z M 68.054688 39.898438 "/>
<path style=" stroke:none;fill-rule:nonzero;fill:url(#linear1);" d="M 46.199219 60.394531 C 29.523438 59.878906 16.421875 45.941406 16.9375 29.265625 C 17.453125 12.585938 31.390625 -0.515625 48.066406 0 L 26.132813 0 C 26.863281 0.421875 27.222656 1.285156 27.003906 2.101563 C 26.785156 2.914063 26.042969 3.484375 25.199219 3.484375 C 24.355469 3.484375 23.617188 2.914063 23.398438 2.101563 C 23.179688 1.285156 23.535156 0.421875 24.265625 0 L 24.265625 26.714844 C 16.890625 26.714844 10.910156 20.734375 10.910156 13.359375 C 10.910156 5.980469 16.890625 0 24.265625 0 L 42.429688 0 C 42.429688 5.015625 38.363281 9.082031 33.347656 9.082031 C 28.332031 9.082031 24.265625 5.015625 24.265625 0 Z M 46.199219 60.394531 "/>
<path style=" stroke:none;fill-rule:nonzero;fill:rgb(100%,100%,100%);fill-opacity:1;" d="M 26.832031 28.738281 L 31.109375 28.738281 L 31.109375 33.988281 L 26.832031 33.988281 Z M 33.132813 28.738281 L 37.332031 28.738281 L 37.332031 33.988281 L 33.132813 33.988281 Z M 39.433594 28.738281 L 43.632813 28.738281 L 43.632813 33.988281 L 39.433594 33.988281 Z M 26.832031 37.140625 L 31.109375 37.140625 L 31.109375 42.390625 L 26.832031 42.390625 Z M 33.132813 37.140625 L 37.332031 37.140625 L 37.332031 42.390625 L 33.132813 42.390625 Z M 39.433594 37.140625 L 43.632813 37.140625 L 43.632813 42.390625 L 39.433594 42.390625 Z M 26.832031 45.539063 L 31.109375 45.539063 L 31.109375 50.789063 L 26.832031 50.789063 Z M 33.132813 45.539063 L 37.332031 45.539063 L 37.332031 50.789063 L 33.132813 50.789063 Z M 33.132813 53.9375 L 37.332031 53.9375 L 37.332031 60.238281 L 33.132813 60.238281 Z M 39.433594 45.539063 L 43.632813 45.539063 L 43.632813 50.789063 L 39.433594 50.789063 Z M 39.433594 45.539063 "/>
</g>
</svg>
