<?xml version="1.0" encoding="UTF-8"?>
<svg xmlns="http://www.w3.org/2000/svg" xmlns:xlink="http://www.w3.org/1999/xlink" width="70pt" height="70pt" viewBox="0 0 70 70" version="1.1">
<defs>
<radialGradient id="radial0" gradientUnits="userSpaceOnUse" cx="-7.55" cy="17.42" fx="-7.55" fy="17.42" r="9" gradientTransform="matrix(3.655556,0,0,3.655556,62.3,-28.661111)">
<stop offset="0.18" style="stop-color:rgb(36.862745%,62.745098%,93.72549%);stop-opacity:1;"/>
<stop offset="0.56" style="stop-color:rgb(36.078431%,62.352941%,93.333333%);stop-opacity:1;"/>
<stop offset="0.69" style="stop-color:rgb(33.333333%,61.176471%,92.941176%);stop-opacity:1;"/>
<stop offset="0.78" style="stop-color:rgb(29.019608%,59.215686%,91.372549%);stop-opacity:1;"/>
<stop offset="0.86" style="stop-color:rgb(22.352941%,56.470588%,89.411765%);stop-opacity:1;"/>
<stop offset="0.93" style="stop-color:rgb(13.72549%,52.941176%,87.058824%);stop-opacity:1;"/>
<stop offset="0.99" style="stop-color:rgb(3.137255%,48.235294%,83.921569%);stop-opacity:1;"/>
<stop offset="1" style="stop-color:rgb(0%,47.058824%,83.137255%);stop-opacity:1;"/>
</radialGradient>
<radialGradient id="radial1" gradientUnits="userSpaceOnUse" cx="-7.17" cy="18.5" fx="-7.17" fy="18.5" r="1.26" gradientTransform="matrix(3.655556,0,0,3.655556,60.977778,-32.433333)">
<stop offset="0" style="stop-color:rgb(49.803922%,49.803922%,49.803922%);stop-opacity:1;"/>
<stop offset="1" style="stop-color:rgb(36.862745%,36.862745%,36.862745%);stop-opacity:1;"/>
</radialGradient>
</defs>
<g id="surface1">
<path style=" stroke:none;fill-rule:nonzero;fill:url(#radial0);" d="M 67.589844 35.351563 C 67.589844 53.605469 52.789063 68.40625 34.535156 68.40625 C 16.277344 68.40625 1.476563 53.605469 1.476563 35.351563 C 1.476563 17.09375 16.277344 2.292969 34.535156 2.292969 C 52.789063 2.292969 67.589844 17.09375 67.589844 35.351563 Z M 67.589844 35.351563 "/>
<path style=" stroke:none;fill-rule:nonzero;fill:rgb(100%,100%,100%);fill-opacity:1;" d="M 63.464844 35.351563 C 63.464844 51.242188 50.582031 64.128906 34.6875 64.128906 C 18.796875 64.128906 5.910156 51.242188 5.910156 35.351563 C 5.910156 19.457031 18.796875 6.570313 34.6875 6.570313 C 50.582031 6.570313 63.464844 19.457031 63.464844 35.351563 Z M 63.464844 35.351563 "/>
<path style=" stroke:none;fill-rule:nonzero;fill:rgb(47.843137%,47.843137%,47.843137%);fill-opacity:1;" d="M 48.015625 20.796875 L 51.507813 17.304688 L 52.636719 18.433594 L 49.144531 21.925781 Z M 54.171875 34.535156 L 59.109375 34.535156 L 59.109375 36.128906 L 54.171875 36.128906 Z M 47.785156 49.605469 L 48.914063 48.480469 L 52.40625 51.972656 L 51.277344 53.097656 Z M 33.871094 54.753906 L 35.464844 54.753906 L 35.464844 59.695313 L 33.871094 59.695313 Z M 16.53125 18.277344 L 17.660156 17.148438 L 21.152344 20.636719 L 20.023438 21.765625 Z M 16.777344 52.089844 L 20.269531 48.597656 L 21.398438 49.726563 L 17.90625 53.21875 Z M 9.917969 34.535156 L 14.855469 34.535156 L 14.855469 36.128906 L 9.917969 36.128906 Z M 9.917969 34.535156 "/>
<path style=" stroke:none;fill-rule:nonzero;fill:rgb(47.843137%,47.843137%,47.843137%);fill-opacity:1;" d="M 34.6875 11.003906 L 35.078125 11.003906 C 36.195313 11.003906 37.101563 11.910156 37.101563 13.027344 L 37.101563 34.339844 C 37.101563 35.457031 36.195313 36.359375 35.078125 36.359375 L 34.6875 36.359375 C 33.570313 36.359375 32.667969 35.457031 32.667969 34.339844 L 32.667969 13.027344 C 32.667969 11.910156 33.570313 11.003906 34.6875 11.003906 Z M 34.6875 11.003906 "/>
<path style=" stroke:none;fill-rule:nonzero;fill:rgb(47.843137%,47.843137%,47.843137%);fill-opacity:1;" d="M 46.554688 47 L 46.28125 47.273438 C 45.488281 48.066406 44.210938 48.066406 43.417969 47.273438 L 35.058594 38.914063 C 34.269531 38.125 34.269531 36.84375 35.058594 36.054688 L 35.335938 35.78125 C 36.125 34.992188 37.40625 34.992188 38.195313 35.78125 L 46.554688 44.140625 C 47.34375 44.929688 47.34375 46.210938 46.554688 47 Z M 46.554688 47 "/>
<path style=" stroke:none;fill-rule:nonzero;fill:url(#radial1);" d="M 39.355469 35.3125 C 39.355469 37.886719 37.265625 39.976563 34.6875 39.976563 C 32.113281 39.976563 30.023438 37.886719 30.023438 35.3125 C 30.023438 32.734375 32.113281 30.644531 34.6875 30.644531 C 37.265625 30.644531 39.355469 32.734375 39.355469 35.3125 Z M 39.355469 35.3125 "/>
</g>
</svg>
