<?xml version="1.0" encoding="UTF-8"?>
<svg xmlns="http://www.w3.org/2000/svg" xmlns:xlink="http://www.w3.org/1999/xlink" width="70pt" height="70pt" viewBox="0 0 70 70" version="1.1">
<g id="surface1">
<path style=" stroke:none;fill-rule:nonzero;fill:rgb(54.117647%,17.647059%,64.705882%);fill-opacity:1;" d="M 70 35 C 70 54.328125 54.328125 70 35 70 C 15.671875 70 0 54.328125 0 35 C 0 15.671875 15.671875 0 35 0 C 54.328125 0 70 15.671875 70 35 Z M 70 35 "/>
<path style=" stroke:none;fill-rule:nonzero;fill:rgb(100%,100%,100%);fill-opacity:1;" d="M 55.265625 14.742188 C 55.265625 14.742188 47.660156 14.386719 42.441406 19.605469 L 31.148438 30.894531 C 31.148438 30.894531 22.664063 28.777344 18.511719 32.925781 L 8.917969 42.539063 L 23.796875 38.339844 L 16.902344 47.796875 L 22.203125 53.097656 L 31.691406 46.253906 L 27.464844 61.074219 L 37.078125 51.480469 C 41.28125 47.277344 39.128906 38.824219 39.128906 38.824219 L 50.394531 27.558594 C 55.613281 22.339844 55.265625 14.742188 55.265625 14.742188 Z M 55.265625 14.742188 "/>
<path style=" stroke:none;fill-rule:nonzero;fill:rgb(54.117647%,17.647059%,64.705882%);fill-opacity:1;" d="M 49.21875 24.0625 C 49.21875 25.875 47.75 27.34375 45.9375 27.34375 C 44.125 27.34375 42.65625 25.875 42.65625 24.0625 C 42.65625 22.25 44.125 20.78125 45.9375 20.78125 C 47.75 20.78125 49.21875 22.25 49.21875 24.0625 Z M 49.21875 24.0625 "/>
</g>
</svg>
