<?xml version="1.0" encoding="UTF-8"?>
<svg xmlns="http://www.w3.org/2000/svg" xmlns:xlink="http://www.w3.org/1999/xlink" width="70pt" height="70pt" viewBox="0 0 70 70" version="1.1">
<defs>
<linearGradient id="linear0" gradientUnits="userSpaceOnUse" x1="9" y1="17.37" x2="9" y2="0.63" gradientTransform="matrix(3.888889,0,0,3.888889,0,0)">
<stop offset="0" style="stop-color:rgb(46.666667%,22.745098%,86.27451%);stop-opacity:1;"/>
<stop offset="0.82" style="stop-color:rgb(65.098039%,47.843137%,95.686275%);stop-opacity:1;"/>
</linearGradient>
</defs>
<g id="surface1">
<path style=" stroke:none;fill-rule:nonzero;fill:url(#linear0);" d="M 67.550781 35 C 67.550781 52.976563 52.976563 67.550781 35 67.550781 C 17.023438 67.550781 2.449219 52.976563 2.449219 35 C 2.449219 17.023438 17.023438 2.449219 35 2.449219 C 52.976563 2.449219 67.550781 17.023438 67.550781 35 Z M 67.550781 35 "/>
<path style=" stroke:none;fill-rule:nonzero;fill:rgb(76.470588%,94.509804%,100%);fill-opacity:1;" d="M 12.753906 36.320313 L 34.882813 50.671875 L 57.398438 36.285156 L 60.238281 39.550781 L 34.882813 55.882813 L 9.917969 39.589844 Z M 12.753906 36.320313 "/>
<path style=" stroke:none;fill-rule:nonzero;fill:rgb(100%,100%,100%);fill-opacity:1;" d="M 14.429688 34.496094 L 34.882813 10.109375 L 55.765625 34.535156 L 34.882813 47.714844 Z M 14.429688 34.496094 "/>
<path style=" stroke:none;fill-rule:nonzero;fill:rgb(76.470588%,94.509804%,100%);fill-opacity:1;" d="M 34.882813 10.109375 L 34.882813 47.714844 L 14.429688 34.496094 Z M 34.882813 10.109375 "/>
<path style=" stroke:none;fill-rule:nonzero;fill:rgb(31.372549%,90.196078%,100%);fill-opacity:1;" d="M 34.882813 10.109375 L 34.882813 47.714844 L 55.765625 34.535156 Z M 34.882813 10.109375 "/>
<path style=" stroke:none;fill-rule:nonzero;fill:rgb(19.607843%,74.509804%,86.666667%);fill-opacity:1;" d="M 34.882813 29.515625 L 55.765625 34.535156 L 34.882813 47.714844 Z M 34.882813 29.515625 "/>
<path style=" stroke:none;fill-rule:nonzero;fill:rgb(61.176471%,92.156863%,100%);fill-opacity:1;" d="M 34.882813 47.714844 L 14.429688 34.496094 L 34.882813 29.515625 Z M 34.882813 47.714844 "/>
<path style=" stroke:none;fill-rule:nonzero;fill:rgb(19.607843%,74.509804%,86.666667%);fill-opacity:1;" d="M 34.882813 55.882813 L 60.238281 39.550781 L 57.398438 36.285156 L 34.882813 50.671875 Z M 34.882813 55.882813 "/>
</g>
</svg>
