<?xml version="1.0" encoding="UTF-8"?>
<svg xmlns="http://www.w3.org/2000/svg" xmlns:xlink="http://www.w3.org/1999/xlink" width="70pt" height="70pt" viewBox="0 0 70 70" version="1.1">
<defs>
<linearGradient id="linear0" gradientUnits="userSpaceOnUse" x1="-6941.93" y1="-2082.96" x2="-6941.93" y2="-2101.68" gradientTransform="matrix(1.944444,0,0,-1.944444,13519.333333,-4018.972222)">
<stop offset="0" style="stop-color:rgb(36.862745%,62.745098%,93.72549%);stop-opacity:1;"/>
<stop offset="0.18" style="stop-color:rgb(34.509804%,61.960784%,92.941176%);stop-opacity:1;"/>
<stop offset="0.41" style="stop-color:rgb(28.235294%,59.215686%,91.372549%);stop-opacity:1;"/>
<stop offset="0.66" style="stop-color:rgb(18.039216%,54.901961%,88.235294%);stop-opacity:1;"/>
<stop offset="0.94" style="stop-color:rgb(3.921569%,48.627451%,84.313725%);stop-opacity:1;"/>
<stop offset="1" style="stop-color:rgb(0%,47.058824%,83.137255%);stop-opacity:1;"/>
</linearGradient>
<linearGradient id="linear1" gradientUnits="userSpaceOnUse" x1="11.5" y1="12.45" x2="11.5" y2="0.55" gradientTransform="matrix(3.888889,0,0,3.888889,0,0)">
<stop offset="0" style="stop-color:rgb(9.803922%,54.117647%,70.196078%);stop-opacity:1;"/>
<stop offset="0.24" style="stop-color:rgb(13.333333%,64.705882%,79.607843%);stop-opacity:1;"/>
<stop offset="0.53" style="stop-color:rgb(16.862745%,74.901961%,88.627451%);stop-opacity:1;"/>
<stop offset="0.79" style="stop-color:rgb(18.823529%,81.176471%,94.117647%);stop-opacity:1;"/>
<stop offset="1" style="stop-color:rgb(19.607843%,83.137255%,96.078431%);stop-opacity:1;"/>
</linearGradient>
</defs>
<g id="surface1">
<path style=" stroke:none;fill-rule:nonzero;fill:url(#linear0);" d="M 21.738281 51.0625 L 38.539063 51.0625 L 38.539063 66.109375 C 20.28125 65.574219 5.917969 50.339844 6.457031 32.082031 C 6.992188 13.828125 22.226563 -0.535156 40.484375 0 L 21.738281 0 Z M 4.472656 67.859375 L 18.9375 67.859375 L 18.9375 51.0625 L 2.140625 51.0625 L 2.140625 65.527344 C -15.957031 54.9375 -22.042969 31.6875 -11.453125 13.589844 C -0.863281 -4.503906 22.386719 -10.589844 40.484375 0 Z M 2.140625 48.417969 L 18.9375 48.417969 L 18.9375 31.460938 L 4.082031 31.460938 C -4.605469 30.925781 -11.210938 23.445313 -10.675781 14.757813 C -10.136719 6.070313 -2.660156 -0.535156 6.027344 0 Z M 2.140625 48.417969 "/>
<path style=" stroke:none;fill-rule:evenodd;fill:url(#linear1);" d="M 44.722656 2.140625 C 44.722656 -10.511719 54.976563 -20.765625 67.628906 -20.765625 C 80.277344 -20.765625 90.535156 -10.511719 90.535156 2.140625 C 90.535156 14.789063 80.277344 25.042969 67.628906 25.042969 L 21.582031 25.042969 L 21.582031 1.710938 C 28.027344 -11.003906 43.558594 -16.085938 56.273438 -9.644531 C 68.988281 -3.199219 74.070313 12.328125 67.628906 25.042969 Z M 44.722656 2.140625 "/>
<path style=" stroke:none;fill-rule:nonzero;fill:rgb(100%,100%,100%);fill-opacity:1;" d="M 58.957031 12.601563 C 61.101563 12.601563 62.84375 14.339844 62.84375 16.488281 L 56.351563 28.117188 L 55.84375 28.117188 C 52.632813 27.945313 50.167969 25.203125 50.339844 21.992188 C 50.511719 18.78125 53.253906 16.316406 56.464844 16.488281 L 51.449219 11.355469 C 51.449219 9.207031 53.191406 7.464844 55.339844 7.464844 C 57.488281 7.464844 59.226563 9.207031 59.226563 11.355469 C 59.226563 13.503906 57.488281 15.246094 55.339844 15.246094 L 59.226563 15.246094 L 30.140625 32.355469 C 30.675781 33.597656 30.675781 35.003906 30.140625 36.246094 L 34.027344 36.246094 L 37.214844 28.390625 C 35.125 28.496094 33.492188 30.242188 33.527344 32.339844 C 33.5625 34.433594 35.253906 36.125 37.351563 36.160156 C 39.445313 36.195313 41.191406 34.566406 41.300781 32.472656 L 46.785156 38.226563 C 48.851563 38.410156 50.492188 40.046875 50.671875 42.117188 L 57.167969 30.449219 L 57.554688 30.449219 C 57.554688 28.300781 59.296875 26.5625 61.445313 26.5625 C 63.59375 26.5625 65.332031 28.300781 65.332031 30.449219 C 65.332031 32.597656 63.59375 34.339844 61.445313 34.339844 Z M 58.957031 12.601563 "/>
</g>
</svg>
