<?xml version="1.0" encoding="UTF-8"?>
<svg xmlns="http://www.w3.org/2000/svg" xmlns:xlink="http://www.w3.org/1999/xlink" width="70pt" height="70pt" viewBox="0 0 70 70" version="1.1">
<g id="surface1">
<path style=" stroke:none;fill-rule:nonzero;fill:rgb(0%,0%,0%);fill-opacity:1;" d="M 38.804688 22.53125 C 38.804688 25.308594 36.554688 27.5625 33.773438 27.5625 C 30.996094 27.5625 28.742188 25.308594 28.742188 22.53125 C 28.742188 19.753906 30.996094 17.5 33.773438 17.5 C 36.554688 17.5 38.804688 19.753906 38.804688 22.53125 Z M 38.804688 22.53125 "/>
<path style=" stroke:none;fill-rule:nonzero;fill:rgb(0%,0%,0%);fill-opacity:1;" d="M 67.070313 19.992188 C 67.070313 22.773438 64.816406 25.023438 62.039063 25.023438 C 59.257813 25.023438 57.007813 22.773438 57.007813 19.992188 C 57.007813 17.214844 59.257813 14.960938 62.039063 14.960938 C 64.816406 14.960938 67.070313 17.214844 67.070313 19.992188 Z M 67.070313 19.992188 "/>
<path style=" stroke:none;fill-rule:nonzero;fill:rgb(0%,0%,0%);fill-opacity:1;" d="M 23.011719 38.367188 C 23.011719 41.148438 20.761719 43.398438 17.980469 43.398438 C 15.203125 43.398438 12.949219 41.148438 12.949219 38.367188 C 12.949219 35.589844 15.203125 33.335938 17.980469 33.335938 C 20.761719 33.335938 23.011719 35.589844 23.011719 38.367188 Z M 23.011719 38.367188 "/>
<path style=" stroke:none;fill-rule:nonzero;fill:rgb(0%,0%,0%);fill-opacity:1;" d="M 51.667969 35.613281 C 51.667969 38.390625 49.417969 40.644531 46.636719 40.644531 C 43.859375 40.644531 41.605469 38.390625 41.605469 35.613281 C 41.605469 32.832031 43.859375 30.582031 46.636719 30.582031 C 49.417969 30.582031 51.667969 32.832031 51.667969 35.613281 Z M 51.667969 35.613281 "/>
<path style=" stroke:none;fill-rule:nonzero;fill:rgb(0%,0%,0%);fill-opacity:1;" d="M 18.59375 39.023438 L 17.324219 37.757813 L 33.773438 21.261719 L 46.636719 34.34375 L 61.425781 19.382813 L 62.648438 20.605469 L 46.636719 36.882813 L 33.773438 23.800781 Z M 18.59375 39.023438 "/>
<path style=" stroke:none;fill-rule:nonzero;fill:rgb(0%,0%,0%);fill-opacity:1;" d="M 40.425781 48.039063 C 40.425781 50.816406 38.171875 53.070313 35.394531 53.070313 C 32.613281 53.070313 30.363281 50.816406 30.363281 48.039063 C 30.363281 45.257813 32.613281 43.007813 35.394531 43.007813 C 38.171875 43.007813 40.425781 45.257813 40.425781 48.039063 Z M 40.425781 48.039063 "/>
<path style=" stroke:none;fill-rule:nonzero;fill:rgb(0%,0%,0%);fill-opacity:1;" d="M 68.6875 45.5 C 68.6875 48.277344 66.433594 50.53125 63.65625 50.53125 C 60.878906 50.53125 58.625 48.277344 58.625 45.5 C 58.625 42.722656 60.878906 40.46875 63.65625 40.46875 C 66.433594 40.46875 68.6875 42.722656 68.6875 45.5 Z M 68.6875 45.5 "/>
<path style=" stroke:none;fill-rule:nonzero;fill:rgb(0%,0%,0%);fill-opacity:1;" d="M 24.585938 63.875 C 24.585938 66.652344 22.335938 68.90625 19.554688 68.90625 C 16.777344 68.90625 14.523438 66.652344 14.523438 63.875 C 14.523438 61.097656 16.777344 58.84375 19.554688 58.84375 C 22.335938 58.84375 24.585938 61.097656 24.585938 63.875 Z M 24.585938 63.875 "/>
<path style=" stroke:none;fill-rule:nonzero;fill:rgb(0%,0%,0%);fill-opacity:1;" d="M 53.289063 61.117188 C 53.289063 63.898438 51.035156 66.148438 48.257813 66.148438 C 45.476563 66.148438 43.226563 63.898438 43.226563 61.117188 C 43.226563 58.339844 45.476563 56.085938 48.257813 56.085938 C 51.035156 56.085938 53.289063 58.339844 53.289063 61.117188 Z M 53.289063 61.117188 "/>
<path style=" stroke:none;fill-rule:nonzero;fill:rgb(0%,0%,0%);fill-opacity:1;" d="M 20.210938 64.53125 L 18.945313 63.261719 L 35.394531 46.769531 L 48.257813 59.851563 L 63 44.886719 L 64.269531 46.113281 L 48.257813 62.386719 L 35.394531 49.304688 Z M 26.949219 10.71875 L 17.324219 10.71875 L 17.324219 1.09375 L 10.9375 1.09375 L 10.9375 10.71875 L 1.3125 10.71875 L 1.3125 17.0625 L 10.9375 17.0625 L 10.9375 26.730469 L 17.324219 26.730469 L 17.324219 17.0625 L 26.949219 17.0625 Z M 26.949219 10.71875 "/>
</g>
</svg>
