<?xml version="1.0" encoding="UTF-8"?>
<svg xmlns="http://www.w3.org/2000/svg" xmlns:xlink="http://www.w3.org/1999/xlink" width="70pt" height="70pt" viewBox="0 0 70 70" version="1.1">
<defs>
<linearGradient id="linear0" gradientUnits="userSpaceOnUse" x1="5.71" y1="7.1" x2="5.82" y2="17.48" gradientTransform="matrix(3.888889,0,0,3.888889,0,0)">
<stop offset="0" style="stop-color:rgb(19.607843%,83.137255%,96.078431%);stop-opacity:1;"/>
<stop offset="0.32" style="stop-color:rgb(19.215686%,81.960784%,95.294118%);stop-opacity:1;"/>
<stop offset="0.53" style="stop-color:rgb(18.039216%,78.823529%,92.156863%);stop-opacity:1;"/>
<stop offset="0.7" style="stop-color:rgb(16.078431%,72.941176%,87.058824%);stop-opacity:1;"/>
<stop offset="0.86" style="stop-color:rgb(13.333333%,64.705882%,79.607843%);stop-opacity:1;"/>
<stop offset="1" style="stop-color:rgb(9.803922%,54.117647%,70.196078%);stop-opacity:1;"/>
<stop offset="1" style="stop-color:rgb(9.803922%,54.117647%,70.196078%);stop-opacity:1;"/>
</linearGradient>
</defs>
<g id="surface1">
<path style=" stroke:none;fill-rule:nonzero;fill:rgb(90.196078%,90.196078%,90.196078%);fill-opacity:1;" d="M 23.332031 2.332031 L 66.578125 2.332031 C 65.933594 20.71875 50.507813 35.101563 32.121094 34.457031 C 13.738281 33.8125 -0.644531 18.386719 0 0 L 0 33.40625 C -9.226563 33.039063 -16.40625 25.265625 -16.042969 16.042969 C -15.675781 6.816406 -7.902344 -0.363281 1.320313 0 L 23.332031 0 C 23.898438 0.304688 24.1875 0.953125 24.03125 1.574219 C 23.875 2.199219 23.3125 2.632813 22.671875 2.632813 C 22.03125 2.632813 21.46875 2.199219 21.3125 1.574219 C 21.15625 0.953125 21.445313 0.304688 22.011719 0 L 22.011719 3.65625 C 21 3.65625 20.183594 2.835938 20.183594 1.828125 C 20.183594 0.816406 21 0 22.011719 0 Z M 23.332031 2.332031 "/>
<path style=" stroke:none;fill-rule:nonzero;fill:rgb(36.862745%,62.745098%,93.72549%);fill-opacity:1;" d="M 23.101563 2.332031 L 66.65625 2.332031 C 66.011719 20.738281 50.566406 35.140625 32.160156 34.496094 C 13.753906 33.851563 -0.644531 18.40625 0 0 L 0 5.054688 L 21.699219 5.054688 L 21.699219 3.578125 C 20.710938 9.570313 15.054688 13.625 9.0625 12.640625 C 3.070313 11.652344 -0.988281 5.992188 0 0 Z M 23.101563 2.332031 "/>
<path style=" stroke:none;fill-rule:nonzero;fill:rgb(51.372549%,72.54902%,97.647059%);fill-opacity:1;" d="M 21.699219 8.632813 L 37.179688 8.632813 L 37.179688 23.527344 L 21.699219 23.527344 Z M 21.699219 8.632813 "/>
<path style=" stroke:none;fill-rule:nonzero;fill:rgb(0%,47.058824%,83.137255%);fill-opacity:1;" d="M 37.101563 8.632813 L 52.578125 8.632813 L 52.578125 23.527344 L 37.101563 23.527344 Z M 37.101563 8.632813 "/>
<path style=" stroke:none;fill-rule:nonzero;fill:rgb(51.372549%,72.54902%,97.647059%);fill-opacity:1;" d="M 52.578125 8.632813 L 68.054688 8.632813 L 68.054688 23.527344 L 52.578125 23.527344 Z M 52.578125 8.632813 "/>
<path style=" stroke:none;fill-rule:nonzero;fill:rgb(0%,47.058824%,83.137255%);fill-opacity:1;" d="M 65.839844 38.539063 L 52.578125 38.539063 L 52.578125 23.488281 L 68.132813 23.488281 L 68.132813 36.167969 C 58.144531 35.511719 50.582031 26.882813 51.234375 16.898438 C 51.890625 6.910156 60.519531 -0.65625 70.503906 0 Z M 65.839844 38.539063 "/>
<path style=" stroke:none;fill-rule:nonzero;fill:rgb(51.372549%,72.54902%,97.647059%);fill-opacity:1;" d="M 52.695313 38.382813 L 37.214844 38.382813 L 37.214844 23.488281 L 52.695313 23.488281 Z M 52.695313 38.382813 "/>
<path style=" stroke:none;fill-rule:nonzero;fill:rgb(0%,47.058824%,83.137255%);fill-opacity:1;" d="M 37.214844 38.382813 L 21.738281 38.382813 L 21.738281 23.488281 L 37.214844 23.488281 Z M 37.214844 38.382813 "/>
<path style=" stroke:none;fill-rule:nonzero;fill:url(#linear0);" d="M 41.726563 67.667969 L 3.460938 67.667969 C 2.253906 67.667969 1.515625 65.722656 2.214844 64.710938 L 15.398438 45.265625 C 2.898438 31.648438 3.804688 10.476563 17.421875 -2.023438 C 31.039063 -14.523438 52.210938 -13.617188 64.710938 0 L 64.710938 31.890625 C 55.90625 32.105469 48.59375 25.140625 48.378906 16.332031 C 48.164063 7.527344 55.128906 0.214844 63.933594 0 L 63.195313 0 C 63.789063 0.34375 64.078125 1.042969 63.902344 1.707031 C 63.722656 2.367188 63.121094 2.832031 62.4375 2.832031 C 61.75 2.832031 61.148438 2.367188 60.972656 1.707031 C 60.792969 1.042969 61.082031 0.34375 61.679688 0 L 61.679688 -0.660156 C 61.847656 -1.414063 62.554688 -1.921875 63.324219 -1.839844 C 64.09375 -1.753906 64.675781 -1.105469 64.675781 -0.332031 C 64.675781 0.441406 64.09375 1.09375 63.324219 1.175781 C 62.554688 1.261719 61.847656 0.753906 61.679688 0 L 31.109375 0 C 31.109375 -8.441406 37.953125 -15.285156 46.394531 -15.285156 C 54.835938 -15.285156 61.679688 -8.441406 61.679688 0 L 61.679688 0.699219 C 61.5 1.425781 60.808594 1.90625 60.066406 1.816406 C 59.324219 1.726563 58.765625 1.097656 58.765625 0.351563 C 58.765625 -0.398438 59.324219 -1.027344 60.066406 -1.117188 C 60.808594 -1.207031 61.5 -0.726563 61.679688 0 L 60.859375 0 C 61.089844 -0.125 61.371094 -0.125 61.601563 0 L 61.601563 12.753906 C 58.078125 12.753906 55.222656 9.898438 55.222656 6.378906 C 55.222656 2.855469 58.078125 0 61.601563 0 L 74.820313 19.210938 C 75.484375 20.261719 74.785156 22.207031 73.539063 22.207031 Z M 41.726563 67.667969 "/>
<path style=" stroke:none;fill-rule:nonzero;fill:rgb(100%,100%,100%);fill-opacity:1;" d="M 8.515625 62.222656 L 18.082031 48.261719 C 4.757813 53.253906 -10.09375 46.5 -15.089844 33.171875 C -20.082031 19.84375 -13.328125 4.992188 0 0 L 0 -5.832031 C 1.609375 -5.832031 2.917969 -4.527344 2.917969 -2.917969 C 2.917969 -1.304688 1.609375 0 0 0 L 5.445313 0 C 5.445313 1.503906 4.226563 2.722656 2.722656 2.722656 C 1.21875 2.722656 0 1.503906 0 0 L 0 46.667969 C -12.886719 46.667969 -23.332031 36.21875 -23.332031 23.332031 C -23.332031 10.445313 -12.886719 0 0 0 L 36.59375 62.222656 C 19.414063 61.855469 5.78125 47.632813 6.144531 30.449219 C 6.507813 13.269531 20.734375 -0.363281 37.917969 0 L 9.179688 0 C 9.421875 0.339844 9.375 0.808594 9.0625 1.085938 C 8.753906 1.367188 8.28125 1.367188 7.96875 1.085938 C 7.660156 0.808594 7.609375 0.339844 7.855469 0 Z M 8.515625 62.222656 "/>
</g>
</svg>
