<?xml version="1.0" encoding="UTF-8"?>
<svg xmlns="http://www.w3.org/2000/svg" xmlns:xlink="http://www.w3.org/1999/xlink" width="70pt" height="70pt" viewBox="0 0 70 70" version="1.1">
<defs>
<linearGradient id="linear0" gradientUnits="userSpaceOnUse" x1="8.14" y1="6.52" x2="8.14" y2="18.39" gradientTransform="matrix(3.888889,0,0,3.888889,0,0)">
<stop offset="0.22" style="stop-color:rgb(19.607843%,83.137255%,96.078431%);stop-opacity:1;"/>
<stop offset="1" style="stop-color:rgb(9.803922%,54.117647%,70.196078%);stop-opacity:1;"/>
</linearGradient>
<filter id="alpha" filterUnits="objectBoundingBox" x="0%" y="0%" width="100%" height="100%">
  <feColorMatrix type="matrix" in="SourceGraphic" values="0 0 0 0 1 0 0 0 0 1 0 0 0 0 1 0 0 0 1 0"/>
</filter>
<mask id="mask0">
  <g filter="url(#alpha)">
<rect x="0" y="0" width="70" height="70" style="fill:rgb(0%,0%,0%);fill-opacity:0.8;stroke:none;"/>
  </g>
</mask>
<clipPath id="clip1">
  <rect x="0" y="0" width="70" height="70"/>
</clipPath>
<g id="surface5" clip-path="url(#clip1)">
<path style=" stroke:none;fill-rule:nonzero;fill:rgb(100%,100%,100%);fill-opacity:1;" d="M 31.695313 33.132813 C 22.546875 41.886719 8.03125 41.5625 -0.71875 32.414063 C -9.472656 23.265625 -9.148438 8.753906 0 0 L 8.285156 21.855469 L 16.566406 0.15625 C 8.203125 0.0820313 1.394531 -6.589844 1.152344 -14.949219 C 0.910156 -23.308594 7.320313 -30.363281 15.667969 -30.921875 C 24.011719 -31.476563 31.304688 -25.335938 32.171875 -17.015625 C 33.042969 -8.699219 27.179688 -1.183594 18.898438 0 Z M 31.695313 33.132813 "/>
</g>
<linearGradient id="linear1" gradientUnits="userSpaceOnUse" x1="7.8" y1="0.15" x2="8.67" y2="10.93" gradientTransform="matrix(3.888889,0,0,3.888889,0,0)">
<stop offset="0.22" style="stop-color:rgb(19.607843%,83.137255%,96.078431%);stop-opacity:1;"/>
<stop offset="1" style="stop-color:rgb(9.803922%,54.117647%,70.196078%);stop-opacity:1;"/>
</linearGradient>
</defs>
<g id="surface1">
<path style=" stroke:none;fill-rule:nonzero;fill:url(#linear0);" d="M 54.445313 63.195313 C 36.992188 78.230469 10.660156 76.269531 -4.375 58.820313 C -19.410156 41.367188 -17.449219 15.035156 0 0 C -1.945313 -15.554688 -10.8125 -28.195313 -27.726563 -28.195313 C -44.644531 -28.195313 5.601563 40.171875 3.890625 57.710938 C -12.046875 66.570313 -32.148438 60.832031 -41.007813 44.898438 C -49.867188 28.960938 -44.132813 8.859375 -28.195313 0 L 54.445313 0 Z M 54.445313 63.195313 "/>
<use xlink:href="#surface5" mask="url(#mask0)"/>
<path style=" stroke:none;fill-rule:nonzero;fill:url(#linear1);" d="M 47.289063 17.539063 C 47.289063 26.152344 40.308594 33.132813 31.695313 33.132813 C 23.082031 33.132813 16.101563 26.152344 16.101563 17.539063 C 16.101563 8.925781 23.082031 1.945313 31.695313 1.945313 C 40.308594 1.945313 47.289063 8.925781 47.289063 17.539063 Z M 47.289063 17.539063 "/>
<path style=" stroke:none;fill-rule:nonzero;fill:rgb(70.196078%,10.588235%,10.588235%);fill-opacity:1;" d="M 59.539063 42.078125 C 47.917969 58.519531 25.171875 62.429688 8.730469 50.808594 C -7.710938 39.1875 -11.621094 16.441406 0 0 C -1.484375 0.527344 -3.105469 0.527344 -4.589844 0 C 39.082031 42.777344 38.890625 48.882813 38.890625 51.292969 C 38.890625 53.003906 39.277344 58.449219 52.421875 67.898438 C 65.761719 58.332031 66.109375 53.003906 66.109375 51.292969 C 66.109375 48.882813 66.109375 42.777344 59.539063 42.078125 Z M 59.539063 42.078125 "/>
<path style=" stroke:none;fill-rule:nonzero;fill:rgb(94.901961%,94.901961%,94.901961%);fill-opacity:1;" d="M 66.109375 50.554688 L 59.890625 50.554688 C 45.929688 50.492188 34.664063 39.121094 34.726563 25.160156 C 34.792969 11.199219 46.160156 -0.0625 60.121094 0 L 58.179688 3.226563 C 57.285156 3.226563 56.5625 2.503906 56.5625 1.613281 C 56.5625 0.722656 57.285156 0 58.179688 0 L 54.445313 48.535156 C 41.042969 48.535156 30.179688 37.667969 30.179688 24.265625 C 30.179688 10.863281 41.042969 0 54.445313 0 L 51.800781 7.777344 C 49.652344 7.777344 47.910156 6.035156 47.910156 3.890625 C 47.910156 1.742188 49.652344 0 51.800781 0 L 49.503906 -5.289063 C 50.964844 -5.289063 52.148438 -4.105469 52.148438 -2.644531 C 52.148438 -1.183594 50.964844 0 49.503906 0 L 46.472656 5.523438 C 44.949219 5.457031 43.761719 4.167969 43.828125 2.644531 C 43.890625 1.121094 45.179688 -0.0625 46.707031 0 L 43.90625 0 C 34.328125 -0.75 27.054688 -8.933594 27.429688 -18.535156 C 27.804688 -28.132813 35.699219 -35.722656 45.304688 -35.722656 C 54.914063 -35.722656 62.804688 -28.132813 63.179688 -18.535156 C 63.558594 -8.933594 56.285156 -0.75 46.707031 0 L 49.234375 0 C 49.234375 0.699219 48.667969 1.265625 47.96875 1.265625 C 47.269531 1.265625 46.707031 0.699219 46.707031 0 L 48.84375 -3.890625 L 51.722656 2.761719 C 52.484375 1.375 51.980469 -0.367188 50.59375 -1.128906 C 49.210938 -1.890625 47.46875 -1.386719 46.707031 0 L 49.699219 -8.867188 L 52.304688 -3.890625 C 51.230469 -5.433594 49.109375 -5.816406 47.5625 -4.746094 C 46.015625 -3.671875 45.632813 -1.546875 46.707031 0 L 49.582031 -4.898438 C 50.9375 -4.105469 51.390625 -2.363281 50.59375 -1.011719 C 49.800781 0.34375 48.058594 0.792969 46.707031 0 L 66.109375 0 "/>
</g>
</svg>
