<?xml version="1.0" encoding="UTF-8"?>
<svg xmlns="http://www.w3.org/2000/svg" xmlns:xlink="http://www.w3.org/1999/xlink" width="70pt" height="70pt" viewBox="0 0 70 70" version="1.1">
<g id="surface1">
<path style=" stroke:none;fill-rule:nonzero;fill:rgb(46.666667%,22.745098%,86.27451%);fill-opacity:1;" d="M 53.550781 17.8125 L 53.550781 41.726563 L 33.015625 53.785156 L 33.015625 29.789063 Z M 53.550781 17.8125 "/>
<path style=" stroke:none;fill-rule:nonzero;fill:rgb(71.764706%,58.823529%,97.647059%);fill-opacity:1;" d="M 53.550781 17.8125 L 33.015625 29.828125 L 12.445313 17.8125 L 33.015625 5.792969 Z M 53.550781 17.8125 "/>
<path style=" stroke:none;fill-rule:nonzero;fill:rgb(65.098039%,47.843137%,95.686275%);fill-opacity:1;" d="M 33.015625 29.828125 L 33.015625 53.785156 L 12.445313 41.726563 L 12.445313 17.8125 Z M 33.015625 29.828125 "/>
<path style=" stroke:none;fill-rule:nonzero;fill:rgb(33.333333%,18.431373%,60%);fill-opacity:1;" d="M 43.359375 29.90625 C 46.082031 28.351563 48.261719 29.59375 48.261719 32.707031 C 39.230469 30.375 33.796875 21.164063 36.128906 12.132813 C 38.457031 3.101563 47.667969 -2.332031 56.699219 0 C 53.976563 1.554688 51.800781 0.3125 51.800781 -2.800781 C 52.574219 12.277344 40.976563 25.125 25.898438 25.898438 C 10.824219 26.671875 -2.027344 15.078125 -2.800781 0 Z M 43.359375 29.90625 "/>
<path style=" stroke:none;fill-rule:nonzero;fill:rgb(31.372549%,90.196078%,100%);fill-opacity:1;" d="M 57.011719 38.226563 L 44.761719 38.226563 C 34.203125 50.589844 15.628906 52.050781 3.265625 41.496094 C -9.09375 30.9375 -10.554688 12.359375 0 0 L 12.25 0 C 12.25 -4.425781 15.835938 -8.011719 20.261719 -8.011719 C 24.683594 -8.011719 28.273438 -4.425781 28.273438 0 C 28.273438 4.425781 24.683594 8.011719 20.261719 8.011719 L 22.710938 8.011719 C 0.21875 8.527344 -6.503906 11.902344 7.691406 15.554688 C 21.890625 19.207031 51.632813 21.746094 74.121094 21.234375 C 69.148438 18.265625 66.765625 12.34375 68.304688 6.757813 C 69.84375 1.171875 74.921875 -2.695313 80.714844 -2.695313 C 86.507813 -2.695313 91.585938 1.171875 93.125 6.757813 C 94.664063 12.34375 92.28125 18.265625 87.304688 21.234375 Z M 57.011719 38.226563 "/>
<path style=" stroke:none;fill-rule:nonzero;fill:rgb(19.607843%,74.509804%,86.666667%);fill-opacity:1;" d="M 46.433594 53.9375 L 36.984375 44.488281 C 24.699219 44.488281 14.738281 34.53125 14.738281 22.246094 C 14.738281 9.960938 24.699219 0 36.984375 0 L 36.984375 7.273438 L 13.648438 7.273438 C 13.949219 10.535156 12.230469 13.648438 9.316406 15.140625 C 6.398438 16.628906 2.867188 16.191406 0.402344 14.035156 C -2.066406 11.878906 -2.972656 8.441406 -1.886719 5.351563 C -0.800781 2.261719 2.054688 0.140625 5.328125 0 L 5.328125 30.332031 C 8.796875 30.269531 12.144531 31.601563 14.621094 34.027344 C 17.101563 36.457031 18.5 39.777344 18.511719 43.246094 L 41.84375 43.246094 L 41.84375 50.476563 C 43.84375 44.035156 40.238281 37.191406 33.792969 35.195313 C 27.351563 33.195313 20.507813 36.800781 18.511719 43.246094 L 27.84375 33.714844 C 30.476563 36.292969 30.519531 40.515625 27.941406 43.148438 C 25.363281 45.777344 21.140625 45.820313 18.511719 43.246094 Z M 46.433594 53.9375 "/>
</g>
</svg>
