<?xml version="1.0" encoding="UTF-8"?>
<svg xmlns="http://www.w3.org/2000/svg" xmlns:xlink="http://www.w3.org/1999/xlink" width="70pt" height="70pt" viewBox="0 0 70 70" version="1.1">
<defs>
<filter id="alpha" filterUnits="objectBoundingBox" x="0%" y="0%" width="100%" height="100%">
  <feColorMatrix type="matrix" in="SourceGraphic" values="0 0 0 0 1 0 0 0 0 1 0 0 0 0 1 0 0 0 1 0"/>
</filter>
<mask id="mask0">
  <g filter="url(#alpha)">
<rect x="0" y="0" width="70" height="70" style="fill:rgb(0%,0%,0%);fill-opacity:0.501961;stroke:none;"/>
  </g>
</mask>
<clipPath id="clip1">
  <rect x="0" y="0" width="70" height="70"/>
</clipPath>
<g id="surface5" clip-path="url(#clip1)">
<path style=" stroke:none;fill-rule:nonzero;fill:rgb(60%,60%,60%);fill-opacity:1;" d="M 4.160156 5.5625 L 9.179688 5.5625 L 9.179688 19.445313 C 3.808594 19.132813 -0.292969 14.527344 0.0195313 9.160156 C 0.332031 3.789063 4.9375 -0.3125 10.304688 0 L 3.070313 0 C 3.070313 -1.996094 4.691406 -3.617188 6.6875 -3.617188 C 8.6875 -3.617188 10.304688 -1.996094 10.304688 0 L 10.304688 7.777344 C 8.15625 7.777344 6.417969 6.035156 6.417969 3.890625 C 6.417969 1.742188 8.15625 0 10.304688 0 Z M 4.160156 5.5625 "/>
</g>
<mask id="mask1">
  <g filter="url(#alpha)">
<rect x="0" y="0" width="70" height="70" style="fill:rgb(0%,0%,0%);fill-opacity:0.501961;stroke:none;"/>
  </g>
</mask>
<clipPath id="clip2">
  <rect x="0" y="0" width="70" height="70"/>
</clipPath>
<g id="surface8" clip-path="url(#clip2)">
<path style=" stroke:none;fill-rule:nonzero;fill:rgb(60%,60%,60%);fill-opacity:1;" d="M 60.820313 5.5625 L 65.839844 5.5625 C 64.304688 23.742188 48.320313 37.234375 30.140625 35.699219 C 11.957031 34.164063 -1.535156 18.179688 0 0 L 0 11.667969 C -3.222656 11.355469 -5.582031 8.492188 -5.269531 5.269531 C -4.957031 2.046875 -2.09375 -0.3125 1.128906 0 L -3.890625 0 C -3.445313 0.253906 -3.230469 0.777344 -3.363281 1.269531 C -3.496094 1.761719 -3.941406 2.105469 -4.453125 2.105469 C -4.964844 2.105469 -5.410156 1.761719 -5.542969 1.269531 C -5.675781 0.777344 -5.457031 0.253906 -5.015625 0 L -5.015625 5.5625 Z M 60.820313 5.5625 "/>
</g>
<mask id="mask2">
  <g filter="url(#alpha)">
<rect x="0" y="0" width="70" height="70" style="fill:rgb(0%,0%,0%);fill-opacity:0.501961;stroke:none;"/>
  </g>
</mask>
<clipPath id="clip3">
  <rect x="0" y="0" width="70" height="70"/>
</clipPath>
<g id="surface11" clip-path="url(#clip3)">
<path style=" stroke:none;fill-rule:nonzero;fill:rgb(60%,60%,60%);fill-opacity:1;" d="M 3.070313 49.3125 L 8.089844 49.3125 C -5.527344 51.542969 -18.378906 42.316406 -20.609375 28.699219 C -22.84375 15.082031 -13.617188 2.234375 0 0 L 0 14 L -5.054688 14 C -8.921875 12.605469 -10.925781 8.339844 -9.527344 4.472656 C -8.132813 0.605469 -3.867188 -1.394531 0 0 L 0 -11.667969 C 3.222656 -11.667969 5.832031 -9.054688 5.832031 -5.832031 C 5.832031 -2.613281 3.222656 0 0 0 Z M 3.070313 49.3125 "/>
</g>
<mask id="mask3">
  <g filter="url(#alpha)">
<rect x="0" y="0" width="70" height="70" style="fill:rgb(0%,0%,0%);fill-opacity:0.501961;stroke:none;"/>
  </g>
</mask>
<clipPath id="clip4">
  <rect x="0" y="0" width="70" height="70"/>
</clipPath>
<g id="surface14" clip-path="url(#clip4)">
<path style=" stroke:none;fill-rule:nonzero;fill:rgb(60%,60%,60%);fill-opacity:1;" d="M 61.910156 49.3125 L 66.929688 49.3125 C 53.3125 67.792969 27.289063 71.738281 8.808594 58.121094 C -9.671875 44.503906 -13.617188 18.480469 0 0 L 0 11.667969 C -3.222656 11.054688 -5.335938 7.945313 -4.726563 4.726563 C -4.113281 1.503906 -1.003906 -0.613281 2.214844 0 L -2.800781 0 L -2.800781 50.554688 C -16.761719 49.171875 -26.953125 36.730469 -25.570313 22.769531 C -24.183594 8.808594 -11.742188 -1.386719 2.214844 0 Z M 61.910156 49.3125 "/>
</g>
</defs>
<g id="surface1">
<path style=" stroke:none;fill-rule:nonzero;fill:rgb(46.27451%,73.72549%,17.647059%);fill-opacity:1;" d="M 42.117188 32.472656 C 33.148438 32.191406 26.105469 24.699219 26.386719 15.730469 C 26.664063 6.761719 34.160156 -0.277344 43.128906 0 L 33.054688 0 C 33.476563 0.207031 33.699219 0.679688 33.59375 1.136719 C 33.484375 1.59375 33.078125 1.917969 32.609375 1.917969 C 32.136719 1.917969 31.730469 1.59375 31.625 1.136719 C 31.515625 0.679688 31.738281 0.207031 32.160156 0 L 32.160156 26.484375 C 24.847656 26.484375 18.917969 20.554688 18.917969 13.242188 C 18.917969 5.929688 24.847656 0 32.160156 0 L 40.289063 0 C 40.289063 2.246094 38.46875 4.0625 36.226563 4.0625 C 33.980469 4.0625 32.160156 2.246094 32.160156 0 L 32.160156 6.105469 Z M 56.542969 38.617188 C 45.878906 38.328125 37.472656 29.445313 37.761719 18.785156 C 38.050781 8.121094 46.929688 -0.289063 57.59375 0 L 49.464844 0 C 49.878906 0.214844 50.09375 0.683594 49.980469 1.136719 C 49.871094 1.589844 49.464844 1.90625 49 1.90625 C 48.535156 1.90625 48.128906 1.589844 48.019531 1.136719 C 47.90625 0.683594 48.121094 0.214844 48.535156 0 L 48.535156 32.667969 C 39.511719 32.667969 32.199219 25.355469 32.199219 16.332031 C 32.199219 7.3125 39.511719 0 48.535156 0 L 56.660156 0 C 56.660156 2.246094 54.839844 4.0625 52.597656 4.0625 C 50.351563 4.0625 48.535156 2.246094 48.535156 0 L 48.535156 6.066406 Z M 42.117188 44.800781 C 29.746094 44.511719 19.953125 34.246094 20.242188 21.875 C 20.53125 9.503906 30.796875 -0.289063 43.167969 0 L 33.054688 0 C 33.46875 0.214844 33.683594 0.683594 33.570313 1.136719 C 33.460938 1.589844 33.054688 1.90625 32.589844 1.90625 C 32.121094 1.90625 31.71875 1.589844 31.605469 1.136719 C 31.496094 0.683594 31.707031 0.214844 32.121094 0 L 32.121094 38.890625 C 21.382813 38.890625 12.679688 30.183594 12.679688 19.445313 C 12.679688 8.707031 21.382813 0 32.121094 0 L 40.25 0 C 40.25 2.246094 38.429688 4.0625 36.1875 4.0625 C 33.941406 4.0625 32.121094 2.246094 32.121094 0 L 32.121094 6.066406 Z M 42.117188 44.800781 "/>
<path style=" stroke:none;fill-rule:nonzero;fill:rgb(52.54902%,83.921569%,20%);fill-opacity:1;" d="M 27.6875 26.289063 C 20.429688 26.03125 14.753906 19.9375 15.011719 12.679688 C 15.269531 5.417969 21.363281 -0.257813 28.621094 0 L 18.433594 0 C 18.832031 0.207031 19.035156 0.65625 18.929688 1.09375 C 18.824219 1.527344 18.433594 1.835938 17.984375 1.835938 C 17.539063 1.835938 17.148438 1.527344 17.042969 1.09375 C 16.933594 0.65625 17.140625 0.207031 17.539063 0 L 17.539063 -6.222656 C 19.257813 -6.222656 20.648438 -4.828125 20.648438 -3.109375 C 20.648438 -1.394531 19.257813 0 17.539063 0 L 26.445313 0 C 27.300781 0 27.6875 0.429688 27.6875 1.050781 Z M 27.6875 26.289063 "/>
<path style=" stroke:none;fill-rule:nonzero;fill:rgb(46.27451%,73.72549%,17.647059%);fill-opacity:1;" d="M 27.6875 38.617188 C 17.023438 38.328125 8.617188 29.445313 8.90625 18.785156 C 9.195313 8.121094 18.074219 -0.289063 28.738281 0 L 18.433594 0 C 18.878906 0.183594 19.128906 0.660156 19.035156 1.132813 C 18.941406 1.605469 18.527344 1.945313 18.042969 1.945313 C 17.5625 1.945313 17.148438 1.605469 17.054688 1.132813 C 16.957031 0.660156 17.210938 0.183594 17.65625 0 L 17.65625 32.472656 C 8.6875 32.472656 1.417969 25.203125 1.417969 16.234375 C 1.417969 7.269531 8.6875 0 17.65625 0 L 26.445313 0 C 27.300781 0 27.6875 0.429688 27.6875 1.050781 Z M 27.6875 50.984375 C 13.609375 50.695313 2.433594 39.046875 2.722656 24.964844 C 3.011719 10.886719 14.660156 -0.289063 28.738281 0 L 18.433594 0 C 18.847656 0.214844 19.058594 0.683594 18.949219 1.136719 C 18.839844 1.589844 18.433594 1.90625 17.964844 1.90625 C 17.5 1.90625 17.09375 1.589844 16.984375 1.136719 C 16.875 0.683594 17.085938 0.214844 17.5 0 L 17.5 -6.300781 C 19.238281 -6.300781 20.648438 -4.890625 20.648438 -3.148438 C 20.648438 -1.410156 19.238281 0 17.5 0 L 26.445313 0 C 27.300781 0 27.6875 0.390625 27.6875 1.011719 Z M 27.6875 50.984375 "/>
<path style=" stroke:none;fill-rule:nonzero;fill:rgb(60%,60%,60%);fill-opacity:1;" d="M 4.160156 5.5625 L 9.179688 5.5625 L 9.179688 19.445313 C 3.808594 19.132813 -0.292969 14.527344 0.0195313 9.160156 C 0.332031 3.789063 4.9375 -0.3125 10.304688 0 L 3.070313 0 C 3.070313 -1.996094 4.691406 -3.617188 6.6875 -3.617188 C 8.6875 -3.617188 10.304688 -1.996094 10.304688 0 L 10.304688 7.777344 C 8.15625 7.777344 6.417969 6.035156 6.417969 3.890625 C 6.417969 1.742188 8.15625 0 10.304688 0 Z M 4.160156 5.5625 "/>
<use xlink:href="#surface5" mask="url(#mask0)"/>
<path style=" stroke:none;fill-rule:nonzero;fill:rgb(60%,60%,60%);fill-opacity:1;" d="M 60.820313 5.5625 L 65.839844 5.5625 C 64.304688 23.742188 48.320313 37.234375 30.140625 35.699219 C 11.957031 34.164063 -1.535156 18.179688 0 0 L 0 11.667969 C -3.222656 11.355469 -5.582031 8.492188 -5.269531 5.269531 C -4.957031 2.046875 -2.09375 -0.3125 1.128906 0 L -3.890625 0 C -3.445313 0.253906 -3.230469 0.777344 -3.363281 1.269531 C -3.496094 1.761719 -3.941406 2.105469 -4.453125 2.105469 C -4.964844 2.105469 -5.410156 1.761719 -5.542969 1.269531 C -5.675781 0.777344 -5.457031 0.253906 -5.015625 0 L -5.015625 5.5625 Z M 60.820313 5.5625 "/>
<use xlink:href="#surface8" mask="url(#mask1)"/>
<path style=" stroke:none;fill-rule:nonzero;fill:rgb(58.039216%,58.039216%,58.039216%);fill-opacity:1;" d="M 68.054688 7.777344 L 68.054688 12.640625 L 1.945313 12.640625 L 1.945313 7.777344 C -0.203125 8.316406 -2.378906 7.007813 -2.917969 4.859375 C -3.453125 2.714844 -2.148438 0.535156 0 0 L 61.714844 0 C 61.714844 17.042969 47.902344 30.859375 30.859375 30.859375 C 13.816406 30.859375 0 17.042969 0 0 Z M 68.054688 7.777344 "/>
<path style=" stroke:none;fill-rule:nonzero;fill:rgb(60%,60%,60%);fill-opacity:1;" d="M 3.070313 49.3125 L 8.089844 49.3125 C -5.527344 51.542969 -18.378906 42.316406 -20.609375 28.699219 C -22.84375 15.082031 -13.617188 2.234375 0 0 L 0 14 L -5.054688 14 C -8.921875 12.605469 -10.925781 8.339844 -9.527344 4.472656 C -8.132813 0.605469 -3.867188 -1.394531 0 0 L 0 -11.667969 C 3.222656 -11.667969 5.832031 -9.054688 5.832031 -5.832031 C 5.832031 -2.613281 3.222656 0 0 0 Z M 3.070313 49.3125 "/>
<use xlink:href="#surface11" mask="url(#mask2)"/>
<path style=" stroke:none;fill-rule:nonzero;fill:rgb(60%,60%,60%);fill-opacity:1;" d="M 61.910156 49.3125 L 66.929688 49.3125 C 53.3125 67.792969 27.289063 71.738281 8.808594 58.121094 C -9.671875 44.503906 -13.617188 18.480469 0 0 L 0 11.667969 C -3.222656 11.054688 -5.335938 7.945313 -4.726563 4.726563 C -4.113281 1.503906 -1.003906 -0.613281 2.214844 0 L -2.800781 0 L -2.800781 50.554688 C -16.761719 49.171875 -26.953125 36.730469 -25.570313 22.769531 C -24.183594 8.808594 -11.742188 -1.386719 2.214844 0 Z M 61.910156 49.3125 "/>
<use xlink:href="#surface14" mask="url(#mask3)"/>
<path style=" stroke:none;fill-rule:nonzero;fill:rgb(58.039216%,58.039216%,58.039216%);fill-opacity:1;" d="M 1.945313 62.222656 L 1.945313 57.359375 L 68.054688 57.359375 L 68.054688 62.222656 C 50.875 61.609375 37.441406 47.183594 38.054688 30.003906 C 38.664063 12.820313 53.089844 -0.613281 70.273438 0 L 4.160156 0 C 4.160156 -18.257813 18.960938 -33.054688 37.214844 -33.054688 C 55.472656 -33.054688 70.273438 -18.257813 70.273438 0 Z M 1.945313 62.222656 "/>
</g>
</svg>
