<?xml version="1.0" encoding="UTF-8"?>
<svg xmlns="http://www.w3.org/2000/svg" xmlns:xlink="http://www.w3.org/1999/xlink" width="70pt" height="70pt" viewBox="0 0 70 70" version="1.1">
<defs>
<linearGradient id="linear0" gradientUnits="userSpaceOnUse" x1="0.5" y1="9.99" x2="11.43" y2="9.99" gradientTransform="matrix(3.888889,0,0,3.888889,0,0)">
<stop offset="0" style="stop-color:rgb(0%,35.686275%,63.137255%);stop-opacity:1;"/>
<stop offset="0.07" style="stop-color:rgb(0%,37.647059%,66.27451%);stop-opacity:1;"/>
<stop offset="0.36" style="stop-color:rgb(0%,44.313725%,78.431373%);stop-opacity:1;"/>
<stop offset="0.52" style="stop-color:rgb(0%,47.058824%,83.137255%);stop-opacity:1;"/>
<stop offset="0.64" style="stop-color:rgb(0%,45.490196%,80.392157%);stop-opacity:1;"/>
<stop offset="0.82" style="stop-color:rgb(0%,41.568627%,73.333333%);stop-opacity:1;"/>
<stop offset="1" style="stop-color:rgb(0%,35.686275%,63.137255%);stop-opacity:1;"/>
</linearGradient>
</defs>
<g id="surface1">
<path style=" stroke:none;fill-rule:nonzero;fill:rgb(58.039216%,58.039216%,58.039216%);fill-opacity:1;" d="M 62.222656 18.628906 L 59.382813 17.226563 L 50.789063 34.882813 L 43.4375 34.882813 L 43.4375 37.996094 L 50.867188 37.996094 L 59.382813 55.496094 L 62.222656 54.09375 L 53.589844 36.359375 Z M 62.222656 18.628906 "/>
<path style=" stroke:none;fill-rule:nonzero;fill:rgb(100%,100%,100%);fill-opacity:1;" d="M 60.785156 23.878906 C 62.417969 21.941406 65.148438 21.332031 67.449219 22.394531 C 69.753906 23.453125 71.066406 25.921875 70.65625 28.425781 C 70.25 30.925781 68.21875 32.847656 65.699219 33.121094 C 63.179688 33.394531 60.785156 31.953125 59.851563 29.59375 L 65.800781 35.542969 L 65.800781 42.621094 C 66.242188 35.460938 67.476563 30.984375 68.546875 32.628906 C 69.621094 34.273438 70.132813 41.410156 69.6875 48.570313 Z M 60.785156 23.878906 "/>
<path style=" stroke:none;fill-rule:nonzero;fill:rgb(19.607843%,74.509804%,86.666667%);fill-opacity:1;" d="M 60.785156 13.300781 C 60.734375 11.390625 61.855469 9.648438 63.609375 8.894531 C 65.363281 8.144531 67.398438 8.535156 68.75 9.886719 C 70.097656 11.234375 70.488281 13.269531 69.738281 15.023438 C 68.984375 16.777344 67.242188 17.898438 65.332031 17.851563 L 65.332031 21.738281 C 65.382813 28.046875 66.292969 32.289063 67.367188 31.214844 C 68.441406 30.144531 69.273438 24.160156 69.222656 17.851563 C 68.390625 18.808594 67.386719 18.523438 66.734375 17.148438 C 68.609375 16.398438 70.753906 16.9375 72.050781 18.484375 C 73.347656 20.035156 73.5 22.242188 72.429688 23.953125 C 71.359375 25.667969 69.308594 26.496094 67.347656 26.011719 C 65.386719 25.523438 63.960938 23.832031 63.816406 21.816406 M 63.816406 19.171875 C 63.785156 16.21875 65.546875 13.535156 68.269531 12.390625 C 70.996094 11.246094 74.140625 11.863281 76.230469 13.953125 C 78.320313 16.042969 78.9375 19.1875 77.792969 21.914063 C 76.648438 24.636719 73.964844 26.398438 71.011719 26.367188 Z M 63.816406 19.171875 "/>
<path style=" stroke:none;fill-rule:nonzero;fill:rgb(100%,100%,100%);fill-opacity:1;" d="M 60.785156 60.746094 C 62.429688 58.839844 65.140625 58.257813 67.425781 59.320313 C 69.710938 60.382813 71.011719 62.828125 70.617188 65.316406 C 70.222656 67.804688 68.226563 69.730469 65.722656 70.03125 C 63.222656 70.332031 60.824219 68.9375 59.851563 66.617188 L 65.761719 72.527344 L 65.761719 76.417969 Z M 60.785156 60.746094 "/>
<path style=" stroke:none;fill-rule:nonzero;fill:rgb(19.607843%,74.509804%,86.666667%);fill-opacity:1;" d="M 60.785156 50.167969 C 60.734375 48.257813 61.855469 46.515625 63.609375 45.761719 C 65.363281 45.011719 67.398438 45.402344 68.75 46.75 C 70.097656 48.101563 70.488281 50.136719 69.738281 51.890625 C 68.984375 53.644531 67.242188 54.765625 65.332031 54.714844 L 65.332031 58.605469 C 65.382813 64.914063 66.292969 69.15625 67.367188 68.082031 C 68.441406 67.007813 69.273438 61.023438 69.222656 54.714844 C 68.390625 55.671875 67.386719 55.390625 66.734375 54.015625 C 68.609375 53.265625 70.753906 53.804688 72.050781 55.351563 C 73.347656 56.902344 73.5 59.109375 72.429688 60.820313 C 71.359375 62.535156 69.308594 63.363281 67.347656 62.875 C 65.386719 62.390625 63.960938 60.699219 63.816406 58.683594 M 63.816406 56.039063 C 63.785156 53.082031 65.546875 50.402344 68.269531 49.257813 C 70.996094 48.113281 74.140625 48.730469 76.230469 50.820313 C 78.320313 52.910156 78.9375 56.054688 77.792969 58.78125 C 76.648438 61.503906 73.964844 63.265625 71.011719 63.234375 Z M 63.816406 56.039063 "/>
<path style=" stroke:none;fill-rule:nonzero;fill:url(#linear0);" d="M 23.332031 22.246094 C 11.667969 22.246094 1.945313 18.785156 1.945313 14.542969 L 1.945313 55.457031 C 1.945313 59.695313 11.316406 63.234375 22.90625 63.234375 L 23.332031 63.234375 C 35 63.234375 44.605469 59.8125 44.605469 55.457031 L 44.605469 14.542969 C 44.449219 18.785156 35 22.246094 23.332031 22.246094 Z M 23.332031 22.246094 "/>
<path style=" stroke:none;fill-rule:nonzero;fill:rgb(90.980392%,90.980392%,90.980392%);fill-opacity:1;" d="M 44.449219 14.542969 C 44.449219 18.785156 34.921875 22.320313 23.179688 22.320313 C 11.433594 22.320313 1.945313 18.785156 1.945313 14.542969 C 1.945313 10.304688 11.667969 6.84375 23.332031 6.84375 C 35 6.84375 44.605469 10.265625 44.605469 14.621094 "/>
<path style=" stroke:none;fill-rule:nonzero;fill:rgb(31.372549%,90.196078%,100%);fill-opacity:1;" d="M 39.472656 13.921875 C 39.472656 16.605469 32.199219 18.785156 23.179688 18.785156 C 14.15625 18.785156 6.882813 16.605469 6.882813 13.921875 C 6.882813 11.238281 14.195313 9.023438 23.332031 9.023438 C 32.472656 9.023438 39.628906 11.199219 39.628906 13.921875 "/>
<path style=" stroke:none;fill-rule:nonzero;fill:rgb(9.803922%,54.117647%,70.196078%);fill-opacity:1;" d="M 23.332031 15.050781 C 22.960938 9.960938 23.582031 4.851563 25.160156 0 Z M 23.332031 15.050781 "/>
</g>
</svg>
