<?xml version="1.0" encoding="UTF-8"?>
<svg xmlns="http://www.w3.org/2000/svg" xmlns:xlink="http://www.w3.org/1999/xlink" width="70pt" height="70pt" viewBox="0 0 70 70" version="1.1">
<defs>
<linearGradient id="linear0" gradientUnits="userSpaceOnUse" x1="13.31" y1="0.23" x2="6.51" y2="15" gradientTransform="matrix(3.888889,0,0,3.888889,0,0)">
<stop offset="0" style="stop-color:rgb(33.333333%,18.431373%,60%);stop-opacity:1;"/>
<stop offset="0.07" style="stop-color:rgb(39.215686%,23.921569%,66.666667%);stop-opacity:1;"/>
<stop offset="0.2" style="stop-color:rgb(48.627451%,32.54902%,77.254902%);stop-opacity:1;"/>
<stop offset="0.35" style="stop-color:rgb(56.078431%,39.215686%,85.490196%);stop-opacity:1;"/>
<stop offset="0.51" style="stop-color:rgb(61.176471%,44.313725%,91.372549%);stop-opacity:1;"/>
<stop offset="0.7" style="stop-color:rgb(64.313725%,47.058824%,94.509804%);stop-opacity:1;"/>
<stop offset="1" style="stop-color:rgb(65.098039%,47.843137%,95.686275%);stop-opacity:1;"/>
</linearGradient>
</defs>
<g id="surface1">
<path style=" stroke:none;fill-rule:nonzero;fill:rgb(9.803922%,54.117647%,70.196078%);fill-opacity:1;" d="M 36.632813 45.34375 L 45.964844 40.171875 C 34.875 52.867188 15.589844 54.164063 2.898438 43.070313 C -9.796875 31.976563 -11.09375 12.691406 0 0 L 0 29.554688 C -8.160156 29.554688 -14.777344 22.9375 -14.777344 14.777344 C -14.777344 6.617188 -8.160156 0 0 0 L -0.273438 0 L 36.476563 34.496094 C 26.953125 44.566406 11.066406 45.011719 0.992188 35.484375 C -9.082031 25.960938 -9.523438 10.074219 0 0 L 0 10.382813 C -2.867188 10.382813 -5.191406 8.058594 -5.191406 5.191406 C -5.191406 2.324219 -2.867188 0 0 0 M 0 12.988281 L 9.332031 7.816406 C 7.175781 10.394531 3.335938 10.734375 0.757813 8.574219 C -1.820313 6.417969 -2.160156 2.578125 0 0 L 0 -10.34375 C 0.101563 -10.382813 0.210938 -10.355469 0.289063 -10.28125 C 0.363281 -10.207031 0.386719 -10.09375 0.351563 -9.996094 L -8.984375 -4.820313 L -8.984375 5.5625 C -13.277344 2.984375 -14.671875 -2.585938 -12.09375 -6.882813 C -9.515625 -11.179688 -3.945313 -12.570313 0.351563 -9.996094 M 12.40625 -29.4375 L 58.332031 33.640625 C 46.285156 49.652344 23.535156 52.863281 7.523438 40.8125 C -8.488281 28.765625 -11.699219 6.015625 0.351563 -9.996094 L 0.351563 23.0625 C -8.777344 23.0625 -16.179688 15.660156 -16.179688 6.535156 C -16.179688 -2.59375 -8.777344 -9.996094 0.351563 -9.996094 L 0.0390625 -9.996094 L 48.570313 28 L 48.570313 38.578125 C 35.160156 51.894531 13.492188 51.816406 0.175781 38.402344 C -13.140625 24.988281 -13.0625 3.320313 0.351563 -9.996094 M 0.351563 2.996094 L 58.332031 46.667969 C 42.6875 62.679688 17.023438 62.972656 1.011719 47.328125 C -15 31.679688 -15.296875 6.015625 0.351563 -9.996094 L 0.351563 36.050781 C 0.46875 35.933594 0.660156 35.933594 0.777344 36.050781 C 0.894531 36.167969 0.894531 36.359375 0.777344 36.476563 L -8.515625 41.648438 C -9.945313 39.082031 -9.023438 35.84375 -6.457031 34.417969 C -3.890625 32.988281 -0.652344 33.910156 0.777344 36.476563 L 0.777344 46.859375 C -2.089844 46.859375 -4.414063 44.535156 -4.414063 41.667969 C -4.414063 38.800781 -2.089844 36.476563 0.777344 36.476563 "/>
<path style=" stroke:none;fill-rule:nonzero;fill:rgb(19.607843%,74.509804%,86.666667%);fill-opacity:1;" d="M 33.328125 45.34375 L 23.878906 40.132813 C 12.796875 46.726563 -1.535156 43.089844 -8.128906 32.003906 C -14.722656 20.921875 -11.082031 6.59375 0 0 L 0 29.554688 C -8.160156 29.554688 -14.777344 22.9375 -14.777344 14.777344 C -14.777344 6.617188 -8.160156 0 0 0 L 0.273438 0 L 9.605469 5.171875 C 8.175781 7.824219 4.871094 8.816406 2.214844 7.390625 C -0.4375 5.960938 -1.429688 2.652344 0 0 L 0 10.34375 C -2.855469 10.34375 -5.171875 8.027344 -5.171875 5.171875 C -5.171875 2.316406 -2.855469 0 0 0 M 33.328125 58.332031 L 23.878906 53.121094 C 9.207031 59.714844 -8.027344 53.167969 -14.621094 38.5 C -21.214844 23.832031 -14.667969 6.59375 0 0 L 0 -10.34375 C 0.0976563 -10.441406 0.253906 -10.441406 0.351563 -10.34375 C 0.445313 -10.246094 0.445313 -10.089844 0.351563 -9.996094 L 9.683594 -4.820313 C 8.253906 -2.246094 5.007813 -1.3125 2.429688 -2.742188 C -0.148438 -4.171875 -1.078125 -7.417969 0.351563 -9.996094 L 0.351563 0.351563 C -2.507813 0.351563 -4.820313 -1.964844 -4.820313 -4.820313 C -4.820313 -7.679688 -2.507813 -9.996094 0.351563 -9.996094 M 21.234375 38.890625 L 11.667969 33.640625 C -0.382813 36.765625 -12.683594 29.53125 -15.808594 17.480469 C -18.933594 5.429688 -11.699219 -6.871094 0.351563 -9.996094 L 0.351563 23.0625 C -8.777344 23.0625 -16.179688 15.660156 -16.179688 6.535156 C -16.179688 -2.59375 -8.777344 -9.996094 0.351563 -9.996094 L 0.660156 -9.996094 L 21.390625 28 C 10.898438 33.808594 -2.316406 30.015625 -8.128906 19.523438 C -13.9375 9.03125 -10.140625 -4.183594 0.351563 -9.996094 L 0.351563 0.351563 C -2.507813 0.351563 -4.820313 -1.964844 -4.820313 -4.820313 C -4.820313 -7.679688 -2.507813 -9.996094 0.351563 -9.996094 M 0.195313 3.035156 L 11.667969 46.667969 C -3.980469 49.792969 -19.195313 39.640625 -22.320313 23.996094 C -25.445313 8.347656 -15.296875 -6.871094 0.351563 -9.996094 L 0.351563 36.050781 C 0.46875 35.933594 0.660156 35.933594 0.777344 36.050781 C 0.894531 36.167969 0.894531 36.359375 0.777344 36.476563 L 10.1875 41.648438 C 8.761719 44.25 5.496094 45.199219 2.898438 43.769531 C 0.296875 42.339844 -0.652344 39.078125 0.777344 36.476563 L 0.777344 46.820313 C -2.078125 46.820313 -4.394531 44.507813 -4.394531 41.648438 C -4.394531 38.792969 -2.078125 36.476563 0.777344 36.476563 "/>
<path style=" stroke:none;fill-rule:nonzero;fill:rgb(31.372549%,90.196078%,100%);fill-opacity:1;" d="M 25.042969 26.484375 L 35 21.15625 C 40.84375 11.492188 37.742188 -1.082031 28.078125 -6.921875 C 18.414063 -12.765625 5.84375 -9.664063 0 0 L 9.527344 5.210938 C 9.550781 5.09375 9.652344 5.015625 9.773438 5.019531 C 9.890625 5.027344 9.984375 5.121094 9.988281 5.238281 C 9.996094 5.355469 9.914063 5.460938 9.800781 5.484375 L 35 32.042969 L 34.726563 32.042969 L 25.160156 26.871094 C 19.253906 31.113281 11.027344 29.765625 6.785156 23.859375 C 2.542969 17.953125 3.894531 9.726563 9.800781 5.484375 M 12.484375 19.640625 L 22.128906 14.273438 L 22.398438 14.273438 L 31.851563 19.445313 C 31.871094 19.328125 31.976563 19.246094 32.09375 19.253906 C 32.210938 19.261719 32.304688 19.355469 32.3125 19.472656 C 32.320313 19.589844 32.238281 19.695313 32.121094 19.714844 L 22.320313 25.199219 L 22.011719 25.199219 L 12.5625 19.988281 C 12.484375 14.585938 16.804688 10.148438 22.207031 10.070313 C 27.605469 9.996094 32.046875 14.316406 32.121094 19.714844 M 57.476563 19.714844 L 67.121094 14.351563 C 65.640625 4.683594 56.605469 -1.949219 46.9375 -0.464844 C 37.273438 1.015625 30.640625 10.050781 32.121094 19.714844 L 57.285156 19.445313 C 57.269531 19.3125 57.335938 19.1875 57.457031 19.128906 C 57.574219 19.070313 57.71875 19.09375 57.8125 19.1875 C 57.90625 19.28125 57.929688 19.425781 57.871094 19.542969 C 57.8125 19.664063 57.6875 19.730469 57.554688 19.714844 L 48.027344 25.121094 L 47.714844 25.121094 L 37.996094 20.105469 C 37.886719 14.703125 42.179688 10.238281 47.582031 10.128906 C 52.980469 10.023438 57.449219 14.316406 57.554688 19.714844 M 25.082031 12.988281 L 35 7.777344 L 44.722656 12.832031 C 44.691406 12.714844 44.742188 12.589844 44.851563 12.527344 C 44.957031 12.46875 45.089844 12.484375 45.179688 12.570313 C 45.265625 12.660156 45.28125 12.792969 45.222656 12.898438 C 45.160156 13.007813 45.035156 13.058594 44.917969 13.027344 L 35 18.472656 L 34.765625 18.472656 L 25.199219 13.339844 C 25.113281 7.894531 29.457031 3.410156 34.902344 3.324219 C 40.347656 3.238281 44.832031 7.582031 44.917969 13.027344 "/>
<path style=" stroke:none;fill-rule:nonzero;fill:url(#linear0);" d="M 68.328125 17.421875 C 65.761719 13.183594 59.773438 11.511719 51.410156 12.753906 L 50.398438 12.753906 L 57.828125 16.644531 C 53.230469 29.089844 39.414063 35.453125 26.96875 30.859375 C 14.523438 26.261719 8.160156 12.445313 12.753906 0 C 14.3125 2.605469 12.988281 7.039063 9.140625 12.210938 C 18.082031 -17 45.445313 -36.636719 75.984375 -35.753906 C 106.523438 -34.875 132.707031 -13.695313 139.953125 15.984375 C 147.195313 45.667969 133.714844 76.527344 107.015625 91.378906 C 80.316406 106.234375 46.984375 101.414063 25.589844 79.605469 C 19.210938 80.578125 14.660156 79.605469 13.105469 77.039063 C 11.550781 74.472656 12.753906 70.464844 16.101563 65.683594 L 16.101563 36.515625 C 15.050781 37.722656 14.15625 38.890625 13.183594 40.171875 C 8.167969 46.898438 6.765625 52.964844 9.292969 57.246094 C 18.875 47.664063 34.402344 47.664063 43.984375 57.246094 C 53.5625 66.824219 53.5625 82.355469 43.984375 91.933594 L 43.984375 117.210938 C 35.390625 137.578125 27.960938 149.992188 24.367188 149.992188 C 20.773438 149.992188 21.53125 137.578125 26.367188 117.210938 C 31.578125 110.484375 32.976563 104.417969 30.410156 100.140625 Z M 68.328125 17.421875 "/>
</g>
</svg>
