<?xml version="1.0" encoding="UTF-8"?>
<svg xmlns="http://www.w3.org/2000/svg" xmlns:xlink="http://www.w3.org/1999/xlink" width="70pt" height="70pt" viewBox="0 0 70 70" version="1.1">
<defs>
<linearGradient id="linear0" gradientUnits="userSpaceOnUse" x1="9" y1="13.07" x2="9" y2="0.31" gradientTransform="matrix(3.888889,0,0,3.888889,0,0)">
<stop offset="0" style="stop-color:rgb(0%,47.058824%,83.137255%);stop-opacity:1;"/>
<stop offset="0.82" style="stop-color:rgb(36.862745%,62.745098%,93.72549%);stop-opacity:1;"/>
</linearGradient>
<linearGradient id="linear1" gradientUnits="userSpaceOnUse" x1="9" y1="17.69" x2="9" y2="7.94" gradientTransform="matrix(3.888889,0,0,3.888889,0,0)">
<stop offset="0" style="stop-color:rgb(43.529412%,29.411765%,69.803922%);stop-opacity:1;"/>
<stop offset="0.19" style="stop-color:rgb(47.058824%,32.941176%,72.156863%);stop-opacity:1;"/>
<stop offset="0.51" style="stop-color:rgb(57.254902%,41.960784%,78.823529%);stop-opacity:1;"/>
<stop offset="0.91" style="stop-color:rgb(73.333333%,56.470588%,89.411765%);stop-opacity:1;"/>
<stop offset="1" style="stop-color:rgb(77.647059%,60.392157%,92.156863%);stop-opacity:1;"/>
</linearGradient>
</defs>
<g id="surface1">
<path style=" stroke:none;fill-rule:nonzero;fill:url(#linear0);" d="M 70 35.273438 C 60.261719 39.449219 48.976563 34.941406 44.800781 25.199219 C 40.621094 15.460938 45.132813 4.175781 54.871094 0 C 59.167969 -1.480469 63.835938 -1.480469 68.132813 0 L 101.773438 0 C 97.378906 4.390625 97.378906 11.511719 101.773438 15.90625 C 106.164063 20.296875 113.285156 20.296875 117.679688 15.90625 Z M 70 35.273438 "/>
<path style=" stroke:none;fill-rule:nonzero;fill:rgb(100%,100%,100%);fill-opacity:1;" d="M 35 67.976563 C 16.226563 77.644531 -6.824219 70.261719 -16.488281 51.488281 C -26.152344 32.71875 -18.773438 9.664063 0 0 Z M 35 67.976563 "/>
<path style=" stroke:none;fill-rule:nonzero;fill:url(#linear1);" d="M 35 30.878906 C 26.472656 21.351563 27.28125 6.71875 36.808594 -1.808594 C 46.332031 -10.335938 60.96875 -9.523438 69.496094 0 Z M 52.265625 49.855469 C 55.871094 45.742188 61.464844 43.976563 66.777344 45.277344 C 72.089844 46.574219 76.238281 50.722656 77.535156 56.035156 C 78.835938 61.347656 77.070313 66.941406 72.957031 70.542969 L 76.535156 70.542969 C 76.863281 74.738281 81.292969 77.992188 86.539063 77.894531 C 91.789063 77.796875 95.957031 74.382813 95.957031 70.179688 C 95.957031 65.980469 91.789063 62.511719 86.539063 62.347656 C 81.292969 62.183594 76.863281 65.382813 76.535156 69.570313 C 76.113281 78.417969 74.90625 88.304688 73.703125 92.691406 C 72.503906 97.082031 71.683594 94.609375 71.789063 86.917969 Z M 45.304688 63.699219 C 48.296875 56.839844 55.425781 52.742188 62.859375 53.613281 C 70.292969 54.484375 76.285156 60.117188 77.609375 67.484375 C 78.933594 74.851563 75.285156 82.21875 68.621094 85.625 C 61.953125 89.03125 53.84375 87.675781 48.648438 82.289063 L 52.070313 85.710938 C 39.25 234.640625 39.988281 354.5 53.722656 353.429688 C 67.457031 352.355469 88.988281 230.753906 101.8125 81.820313 C 102.113281 80.023438 103.71875 78.742188 105.539063 78.84375 C 107.359375 78.945313 108.808594 80.398438 108.910156 82.21875 C 109.011719 84.035156 107.730469 85.640625 105.933594 85.945313 L 105.933594 89.988281 Z M 29.476563 44.253906 C 42.105469 23.144531 69.460938 16.265625 90.570313 28.894531 C 111.683594 41.523438 118.5625 68.875 105.933594 89.988281 C 106.21875 89.960938 106.503906 89.960938 106.789063 89.988281 L 106.246094 89.714844 C 111.441406 89.78125 115.601563 94.046875 115.539063 99.246094 C 115.472656 104.441406 111.207031 108.601563 106.011719 108.539063 Z M 26.523438 60.898438 L 26.832031 60.898438 C 21.3125 66.417969 21.3125 75.367188 26.832031 80.890625 C 32.351563 86.410156 41.300781 86.410156 46.820313 80.890625 L 46.820313 84.777344 C 47.492188 86.128906 50.261719 87.347656 53.765625 87.835938 C 57.269531 88.324219 60.765625 87.976563 62.527344 86.960938 C 64.289063 85.949219 63.945313 84.488281 61.664063 83.296875 C 59.382813 82.109375 55.648438 81.441406 52.304688 81.628906 Z M 35 32.550781 C 35.582031 22.324219 44.144531 14.386719 54.386719 14.578125 C 64.628906 14.773438 72.882813 23.027344 73.078125 33.269531 C 73.269531 43.511719 65.332031 52.074219 55.105469 52.65625 L 58.683594 52.65625 L 57.671875 52.65625 C 57.957031 52.648438 58.242188 52.648438 58.527344 52.65625 Z M 17.734375 49.855469 C 18.875 41.027344 26.585938 34.542969 35.476563 34.925781 C 44.371094 35.308594 51.492188 42.429688 51.875 51.324219 C 52.257813 60.214844 45.773438 67.921875 36.945313 69.066406 L 36.945313 69.921875 C 38.320313 70.59375 39.117188 72.0625 38.929688 73.578125 L 60.394531 73.578125 L 60.394531 77.464844 Z M 47.367188 61.910156 L 47.367188 59.421875 C 45.882813 60.796875 44.203125 61.949219 42.390625 62.84375 L 62.804688 62.84375 C 69.699219 63.554688 76.160156 63.144531 77.234375 61.933594 C 78.308594 60.71875 73.589844 59.160156 66.695313 58.449219 Z M 47.367188 61.910156 "/>
</g>
</svg>
