<?xml version="1.0" encoding="UTF-8"?>
<svg xmlns="http://www.w3.org/2000/svg" xmlns:xlink="http://www.w3.org/1999/xlink" width="70pt" height="70pt" viewBox="0 0 70 70" version="1.1">
<defs>
<linearGradient id="linear0" gradientUnits="userSpaceOnUse" x1="9" y1="0.5" x2="9" y2="17.5" gradientTransform="matrix(3.888889,0,0,3.888889,0,0)">
<stop offset="0" style="stop-color:rgb(98.039216%,63.529412%,11.372549%);stop-opacity:1;"/>
<stop offset="0.28" style="stop-color:rgb(97.647059%,61.960784%,10.588235%);stop-opacity:1;"/>
<stop offset="0.57" style="stop-color:rgb(96.470588%,56.862745%,7.45098%);stop-opacity:1;"/>
<stop offset="0.87" style="stop-color:rgb(94.901961%,49.019608%,2.745098%);stop-opacity:1;"/>
<stop offset="1" style="stop-color:rgb(93.72549%,44.313725%,0%);stop-opacity:1;"/>
</linearGradient>
<filter id="alpha" filterUnits="objectBoundingBox" x="0%" y="0%" width="100%" height="100%">
  <feColorMatrix type="matrix" in="SourceGraphic" values="0 0 0 0 1 0 0 0 0 1 0 0 0 0 1 0 0 0 1 0"/>
</filter>
<mask id="mask0">
  <g filter="url(#alpha)">
<rect x="0" y="0" width="70" height="70" style="fill:rgb(0%,0%,0%);fill-opacity:0.301961;stroke:none;"/>
  </g>
</mask>
<linearGradient id="linear1" gradientUnits="userSpaceOnUse" x1="9.95" y1="5.55" x2="10.08" y2="5.82" gradientTransform="matrix(3.888889,0,0,3.888889,0,0)">
<stop offset="0" style="stop-color:rgb(0%,23.529412%,56.470588%);stop-opacity:1;"/>
<stop offset="0.15" style="stop-color:rgb(9.803922%,30.980392%,60.784314%);stop-opacity:0.901961;"/>
<stop offset="1" style="stop-color:rgb(9.803922%,30.980392%,60.784314%);stop-opacity:0;"/>
</linearGradient>
<clipPath id="clip1">
  <rect x="0" y="0" width="70" height="70"/>
</clipPath>
<g id="surface5" clip-path="url(#clip1)">
<path style=" stroke:none;fill-rule:nonzero;fill:url(#linear1);" d="M 41.496094 20.027344 C 36.28125 28.425781 26.015625 32.191406 16.609375 29.152344 C 7.203125 26.109375 1.078125 17.050781 1.769531 7.1875 C 2.457031 -2.671875 9.78125 -10.792969 19.519531 -12.496094 C 29.257813 -14.199219 38.902344 -9.042969 42.894531 0 C 41.535156 0.464844 39.277344 1.476563 39.277344 1.476563 L 40.949219 2.371094 L 44.140625 1.089844 C 43.839844 12.871094 34.042969 22.175781 22.265625 21.875 C 10.484375 21.574219 1.175781 11.78125 1.476563 0 Z M 41.496094 20.027344 "/>
</g>
</defs>
<g id="surface1">
<path style=" stroke:none;fill-rule:nonzero;fill:url(#linear0);" d="M 38.890625 47.5625 L 37.917969 47.132813 C 36.867188 46.707031 35.933594 46.316406 35.078125 45.890625 C 34.222656 46.316406 33.289063 46.707031 32.238281 47.132813 L 31.109375 47.5625 L 28.464844 48.726563 C 28.464844 25.960938 46.921875 7.503906 69.6875 7.503906 C 92.457031 7.503906 110.910156 25.960938 110.910156 48.726563 C 110.910156 71.496094 92.457031 89.949219 69.6875 89.949219 Z M 38.890625 47.5625 "/>
<use xlink:href="#surface5" mask="url(#mask0)"/>
<path style=" stroke:none;fill-rule:nonzero;fill:rgb(0%,47.058824%,83.137255%);fill-opacity:1;" d="M 25.511719 58.332031 C 9.402344 57.355469 -2.863281 43.503906 -1.886719 27.398438 C -0.910156 11.289063 12.941406 -0.976563 29.050781 0 L 53.355469 0 L 53.355469 1.945313 L 23.527344 1.945313 L 23.527344 3.421875 C 23.527344 1.839844 24.808594 0.550781 26.394531 0.542969 C 27.976563 0.539063 29.269531 1.8125 29.285156 3.398438 C 29.296875 4.980469 28.027344 6.277344 26.445313 6.300781 L 43.789063 23.644531 L 43.789063 30.140625 L 43.207031 30.410156 L 42.117188 30.878906 C 43.226563 30.550781 44.355469 30.300781 45.5 30.140625 L 66.304688 30.140625 L 66.304688 58.332031 Z M 38.890625 47.5625 L 37.917969 47.132813 C 36.867188 46.707031 35.933594 46.316406 35.078125 45.890625 C 34.222656 46.316406 33.289063 46.707031 32.238281 47.132813 L 31.109375 47.5625 L 28.464844 48.726563 C 28.464844 25.960938 46.921875 7.503906 69.6875 7.503906 C 92.457031 7.503906 110.910156 25.960938 110.910156 48.726563 C 110.910156 71.496094 92.457031 89.949219 69.6875 89.949219 Z M 49.621094 6.183594 L 23.605469 6.183594 C 21.988281 3.15625 22.828125 -0.597656 25.585938 -2.640625 C 28.339844 -4.683594 32.179688 -4.402344 34.605469 -1.976563 C 37.03125 0.449219 37.3125 4.289063 35.269531 7.042969 C 33.222656 9.796875 29.46875 10.640625 26.445313 9.023438 C 26.445313 9.371094 25.707031 18.042969 37.140625 24.578125 C 44.847656 42.097656 38.390625 62.621094 22.042969 72.574219 C 5.691406 82.527344 -15.503906 78.839844 -27.527344 63.949219 C -39.554688 49.054688 -38.695313 27.558594 -25.523438 13.671875 C -12.347656 -0.214844 9.074219 -2.203125 24.578125 9.023438 L 32.550781 15.554688 C 34.117188 26.265625 27.210938 36.386719 16.667969 38.835938 C 6.128906 41.28125 -4.53125 35.238281 -7.84375 24.933594 C -11.15625 14.632813 -6.015625 3.507813 3.980469 -0.644531 C 13.972656 -4.796875 25.484375 -0.59375 30.449219 9.023438 L 46.003906 9.023438 L 46.003906 11.667969 L 26.753906 11.667969 C 31.0625 16.34375 31.089844 23.539063 26.816406 28.25 C 22.542969 32.960938 15.382813 33.632813 10.308594 29.796875 C 5.234375 25.960938 3.921875 18.890625 7.289063 13.492188 C 10.652344 8.09375 17.578125 6.15625 23.253906 9.023438 L 48.609375 9.023438 Z M 41.496094 20.027344 L 39.820313 20.921875 L 39.394531 20.921875 C 49.714844 34.710938 48.371094 53.980469 36.238281 66.199219 C 24.101563 78.421875 4.84375 79.90625 -9.015625 69.683594 C -22.878906 59.464844 -27.15625 40.628906 -19.066406 25.421875 C -10.976563 10.21875 7.035156 3.238281 23.253906 9.023438 L 20.921875 9.023438 L 20.921875 10.964844 L 43.90625 10.964844 C 43.367188 16.667969 38.3125 20.855469 32.609375 20.320313 C 26.90625 19.78125 22.71875 14.722656 23.253906 9.023438 L 20.921875 9.023438 L 20.921875 11.003906 L 45.421875 11.003906 C 42.035156 11.753906 38.609375 9.902344 37.375 6.660156 C 36.140625 3.417969 37.46875 -0.242188 40.492188 -1.9375 C 43.519531 -3.632813 47.335938 -2.855469 49.457031 -0.109375 C 51.578125 2.636719 51.367188 6.519531 48.960938 9.023438 L 20.921875 9.023438 L 20.921875 11.003906 L 42.195313 11.003906 C 27.042969 13.503906 12.5625 3.777344 9.144531 -11.195313 C 5.730469 -26.167969 14.558594 -41.214844 29.296875 -45.535156 C 44.035156 -49.855469 59.589844 -41.957031 64.796875 -27.507813 C 70.003906 -13.058594 63.066406 2.945313 48.960938 9.023438 C 49.816406 9.449219 50.75 9.839844 51.800781 10.265625 L 52.773438 10.695313 L 55.417969 11.859375 C 63.933594 6.570313 65.023438 1.011719 65.023438 -1.4375 C 62.089844 4.480469 56.28125 8.445313 49.699219 9.023438 Z M 41.496094 20.027344 "/>
<path style=" stroke:none;fill-rule:nonzero;fill:rgb(19.607843%,74.509804%,86.666667%);fill-opacity:1;" d="M 31.109375 47.5625 L 28.464844 48.726563 C 19.910156 43.4375 18.820313 37.878906 18.820313 35.429688 C 9.039063 30.84375 4.824219 19.195313 9.410156 9.410156 C 13.996094 -0.371094 25.644531 -4.585938 35.429688 0 L 37.101563 0.894531 L 37.527344 0.894531 C 54.714844 8.890625 62.3125 29.195313 54.597656 46.511719 C 46.886719 63.828125 26.710938 71.757813 9.269531 64.332031 C -8.171875 56.902344 -16.433594 36.859375 -9.292969 19.296875 C -2.152344 1.738281 17.753906 -6.851563 35.429688 0 C 31.070313 2.179688 24.964844 6.300781 24.964844 12.523438 C 24.964844 13.457031 25.511719 18.160156 35.429688 22.90625 C 34.570313 23.332031 33.640625 23.722656 32.589844 24.148438 Z M 52.1875 4.550781 C 52.136719 5.992188 51.023438 7.175781 49.582031 7.3125 C 49.582031 7.3125 50.867188 12.484375 41.535156 17.382813 L 35 16.605469 C 16.695313 23.058594 -3.535156 14.761719 -12.035156 -2.6875 C -20.53125 -20.136719 -14.589844 -41.183594 1.773438 -51.613281 C 18.140625 -62.042969 39.726563 -58.542969 51.957031 -43.46875 C 64.183594 -28.398438 63.164063 -6.554688 49.582031 7.3125 C 61.015625 0.855469 60.316406 -7.816406 60.277344 -8.167969 Z M 41.570313 48.726563 C 30.921875 64.003906 11.355469 70.242188 -6.171875 63.953125 C -23.699219 57.660156 -34.832031 40.398438 -33.332031 21.835938 C -31.832031 3.273438 -18.078125 -11.976563 0.234375 -15.375 C 18.542969 -18.773438 36.855469 -9.476563 44.917969 7.3125 L 45.5 7.582031 L 46.589844 8.050781 C 51.410156 10.148438 56.582031 12.949219 56.429688 20.378906 C 56.429688 18.789063 57.714844 17.5 59.304688 17.5 C 60.894531 17.5 62.183594 18.789063 62.183594 20.378906 C 62.183594 21.96875 60.894531 23.253906 59.304688 23.253906 Z M 40.601563 20.496094 L 41.496094 20.027344 C 23.835938 12.171875 14.828125 -7.640625 20.519531 -26.109375 C 26.210938 -44.582031 44.808594 -55.886719 63.824219 -52.441406 C 82.84375 -48.996094 96.289063 -31.882813 95.136719 -12.589844 C 93.984375 6.707031 78.597656 22.097656 59.304688 23.253906 C 60.445313 23.203125 61.585938 23.203125 62.726563 23.253906 L 64.398438 24.148438 L 64.828125 24.148438 C 82.015625 32.148438 89.613281 52.449219 81.898438 69.769531 C 74.183594 87.085938 54.007813 95.015625 36.566406 87.585938 C 19.128906 80.15625 10.867188 60.113281 18.007813 42.554688 C 25.148438 24.992188 45.050781 16.402344 62.726563 23.253906 C 65.023438 22.359375 66.421875 21.777344 67.277344 21.390625 L 67.550781 21.390625 C 68.066406 34.136719 58.148438 44.886719 45.402344 45.402344 C 32.65625 45.917969 21.90625 36.003906 21.390625 23.253906 Z M 40.601563 20.496094 "/>
</g>
</svg>
