<?xml version="1.0" encoding="UTF-8"?>
<svg xmlns="http://www.w3.org/2000/svg" xmlns:xlink="http://www.w3.org/1999/xlink" width="70pt" height="52pt" viewBox="0 0 70 52" version="1.1">
<g id="surface1">
<path style=" stroke:none;fill-rule:nonzero;fill:rgb(0%,0%,0%);fill-opacity:1;" d="M 21.875 17.332031 C 18.566406 9.121094 21.542969 -0.265625 28.996094 -5.132813 C 36.453125 -10 46.335938 -9.003906 52.648438 -2.75 C 58.964844 3.503906 59.96875 13.292969 55.058594 20.679688 C 50.144531 28.0625 40.667969 31.011719 32.375 27.734375 L 32.375 31.199219 L 37.1875 32.5 L 39.8125 32.5 L 35 34.667969 L 24.9375 33.367188 L 15.75 29.898438 L 7.4375 24.265625 C -17.632813 10.535156 -28.335938 -19.621094 -17.460938 -45.875 C -6.582031 -72.125 22.421875 -86.140625 50.003906 -78.46875 C 77.585938 -70.800781 94.992188 -43.882813 90.488281 -15.859375 C 85.984375 12.160156 60.996094 32.394531 32.375 31.199219 L 40.6875 25.566406 L 24.9375 1.300781 C 13.589844 -13.710938 -6.855469 -18.730469 -23.964844 -10.707031 C -41.078125 -2.683594 -50.117188 16.164063 -45.589844 34.367188 C -41.058594 52.574219 -24.214844 65.101563 -5.300781 64.335938 C 13.613281 63.566406 29.367188 49.710938 32.375 31.199219 C 29.042969 15.261719 36.667969 -0.953125 51.132813 -8.683594 C 65.59375 -16.414063 83.464844 -13.824219 95.085938 -2.3125 C 106.707031 9.195313 109.320313 26.898438 101.519531 41.222656 C 93.714844 55.546875 77.34375 63.101563 61.25 59.800781 L 61.25 111.800781 L 58.1875 114.832031 L 57.75 114.832031 C 39.464844 129.019531 13.101563 126.210938 -1.710938 108.492188 C -16.527344 90.773438 -14.40625 64.59375 3.074219 49.445313 C 20.554688 34.296875 47.035156 35.6875 62.796875 52.582031 C 78.558594 69.480469 77.875 95.734375 61.25 111.800781 C 60.148438 116.976563 58.230469 121.949219 55.5625 126.535156 L 51.1875 127.832031 L 51.1875 17.332031 C 81.632813 18.769531 105.136719 44.378906 103.6875 74.535156 C 102.238281 104.6875 76.382813 127.96875 45.9375 126.535156 L 42.875 122.632813 L 38.9375 119.601563 L 35 4.332031 L 29.75 5.199219 L 25.8125 8.234375 L 22.75 12.132813 C 54.644531 5.792969 85.691406 26.257813 92.09375 57.851563 C 98.496094 89.441406 77.832031 120.191406 45.9375 126.535156 Z M 20.5625 27.300781 C 48.226563 28.617188 69.578125 51.898438 68.25 79.300781 C 66.921875 106.703125 43.414063 127.851563 15.75 126.535156 C 16.71875 115.074219 26.554688 106.363281 38.15625 106.683594 C 49.761719 107.003906 59.089844 116.246094 59.414063 127.738281 C 59.738281 139.230469 50.941406 148.972656 39.375 149.933594 L 31.5 154.265625 L 6.125 17.332031 L 12.6875 22.964844 Z M 35 13 L 36.75 13 L 38.0625 13.867188 C 38.5 14.300781 38.9375 14.734375 38.9375 15.167969 C 76.511719 21.628906 101.679688 57.035156 95.15625 94.25 C 88.632813 131.464844 52.886719 156.394531 15.3125 149.933594 C 14.105469 149.511719 13.382813 148.289063 13.601563 147.042969 C 13.816406 145.792969 14.910156 144.882813 16.1875 144.882813 C 17.464844 144.882813 18.558594 145.792969 18.773438 147.042969 C 18.992188 148.289063 18.269531 149.511719 17.0625 149.933594 L 16.1875 151.234375 L 14.875 152.101563 L 11.375 152.101563 L 10.0625 151.234375 L 9.1875 149.933594 C 9.1875 147.78125 10.949219 146.035156 13.125 146.035156 C 15.300781 146.035156 17.0625 147.78125 17.0625 149.933594 C 17.0625 149.5 17.5 149.066406 17.9375 148.632813 L 19.25 147.765625 Z M 54.6875 21.667969 C 90.449219 -4.417969 140.789063 3.148438 167.125 38.566406 C 193.460938 73.988281 185.824219 123.847656 150.0625 149.933594 C 148.832031 142.328125 152.691406 134.804688 159.617188 131.300781 C 166.542969 127.796875 174.960938 129.113281 180.457031 134.5625 C 185.957031 140.007813 187.285156 148.34375 183.75 155.203125 C 180.214844 162.0625 172.617188 165.886719 164.9375 164.667969 C 166.886719 156.566406 174.257813 150.894531 182.664063 151.023438 C 191.070313 151.152344 198.257813 157.046875 199.953125 165.203125 C 201.648438 173.363281 197.398438 181.589844 189.726563 185 C 182.054688 188.40625 173.023438 186.078125 168 179.398438 C 173.785156 173.417969 182.972656 172.1875 190.152344 176.433594 C 197.332031 180.683594 200.59375 189.277344 198.019531 197.15625 C 195.445313 205.039063 187.71875 210.109375 179.386719 209.386719 C 171.058594 208.664063 164.339844 202.335938 163.1875 194.132813 C 162.132813 186.574219 166.070313 179.191406 172.96875 175.792969 C 179.871094 172.394531 188.191406 173.742188 193.640625 179.136719 C 199.089844 184.535156 200.449219 192.777344 197.019531 199.609375 C 193.585938 206.445313 186.132813 210.34375 178.5 209.300781 Z M 43.75 36.832031 C 43.574219 30.449219 47.34375 24.601563 53.269531 22.078125 C 59.191406 19.550781 66.070313 20.859375 70.632813 25.375 C 75.191406 29.890625 76.511719 36.707031 73.960938 42.574219 C 71.410156 48.441406 65.507813 52.175781 59.0625 52 L 62.5625 54.167969 L 66.9375 55.035156 L 70 55.035156 L 73.0625 53.734375 L 57.75 38.132813 L 56.4375 41.167969 C 58.425781 42.066406 59.917969 43.792969 60.507813 45.878906 C 61.097656 47.96875 60.726563 50.207031 59.5 52 Z M 63.875 42.898438 L 65.1875 39.867188 C 69.535156 35.558594 76.589844 35.558594 80.9375 39.867188 C 85.285156 44.175781 85.285156 51.160156 80.9375 55.464844 L 96.25 55.464844 L 92.75 53.300781 L 88.375 52.433594 L 85.3125 52.433594 L 82.25 53.734375 Z M 63.875 42.898438 "/>
</g>
</svg>
