<?xml version="1.0" encoding="UTF-8"?>
<svg xmlns="http://www.w3.org/2000/svg" xmlns:xlink="http://www.w3.org/1999/xlink" width="70pt" height="70pt" viewBox="0 0 70 70" version="1.1">
<defs>
<radialGradient id="radial0" gradientUnits="userSpaceOnUse" cx="9.044" cy="8.913" fx="9.044" fy="8.913" r="10.514" gradientTransform="matrix(3.888889,0,0,3.888889,0,0)">
<stop offset="0.183" style="stop-color:rgb(36.862745%,62.745098%,93.72549%);stop-opacity:1;"/>
<stop offset="1" style="stop-color:rgb(0%,47.058824%,83.137255%);stop-opacity:1;"/>
</radialGradient>
<linearGradient id="linear0" gradientUnits="userSpaceOnUse" x1="5.344" y1="10.72" x2="5.344" y2="13.464" gradientTransform="matrix(3.888889,0,0,3.888889,0,0)">
<stop offset="0.001" style="stop-color:rgb(46.27451%,73.72549%,17.647059%);stop-opacity:1;"/>
<stop offset="1" style="stop-color:rgb(36.862745%,58.823529%,14.117647%);stop-opacity:1;"/>
</linearGradient>
<linearGradient id="linear1" gradientUnits="userSpaceOnUse" x1="12.646" y1="10.72" x2="12.646" y2="13.464" gradientTransform="matrix(3.888889,0,0,3.888889,0,0)">
<stop offset="0.001" style="stop-color:rgb(46.27451%,73.72549%,17.647059%);stop-opacity:1;"/>
<stop offset="1" style="stop-color:rgb(36.862745%,58.823529%,14.117647%);stop-opacity:1;"/>
</linearGradient>
</defs>
<g id="surface1">
<path style=" stroke:none;fill-rule:nonzero;fill:url(#radial0);" d="M 69.46875 35 C 69.46875 54.035156 54.035156 69.46875 35 69.46875 C 15.964844 69.46875 0.53125 54.035156 0.53125 35 C 0.53125 15.964844 15.964844 0.53125 35 0.53125 C 54.035156 0.53125 69.46875 15.964844 69.46875 35 Z M 69.46875 35 "/>
<path style=" stroke:none;fill-rule:nonzero;fill:rgb(100%,100%,100%);fill-opacity:1;" d="M 63.722656 35 C 63.722656 50.863281 50.863281 63.722656 35 63.722656 C 19.136719 63.722656 6.277344 50.863281 6.277344 35 C 6.277344 19.136719 19.136719 6.277344 35 6.277344 C 50.863281 6.277344 63.722656 19.136719 63.722656 35 Z M 63.722656 35 "/>
<path style=" stroke:none;fill-rule:nonzero;fill:rgb(0%,47.058824%,83.137255%);fill-opacity:1;" d="M 36.679688 33.695313 L 36.679688 29.070313 L 33.421875 29.070313 L 33.421875 33.695313 C 24.117188 33.515625 16.71875 25.828125 16.898438 16.523438 C 17.078125 7.214844 24.769531 -0.179688 34.074219 0 L 20.503906 0 C 20.90625 -0.234375 21.402344 -0.234375 21.804688 0 L 21.804688 6.007813 L 25.0625 6.007813 L 25.0625 2.679688 C 24.324219 3.578125 22.996094 3.710938 22.09375 2.96875 C 21.195313 2.230469 21.066406 0.898438 21.804688 0 L 45.546875 0 C 45.546875 6.554688 40.230469 11.871094 33.675781 11.871094 C 27.121094 11.871094 21.804688 6.554688 21.804688 0 L 21.804688 3.398438 L 25.0625 3.398438 L 25.0625 35.652344 C 15.21875 36.011719 6.945313 28.324219 6.585938 18.476563 C 6.226563 8.632813 13.914063 0.359375 23.761719 0 L 37.332031 0 C 37.589844 0.148438 37.714844 0.449219 37.636719 0.734375 C 37.5625 1.019531 37.300781 1.21875 37.007813 1.21875 C 36.710938 1.21875 36.453125 1.019531 36.375 0.734375 C 36.300781 0.449219 36.425781 0.148438 36.679688 0 Z M 36.679688 33.695313 "/>
<path style=" stroke:none;fill-rule:nonzero;fill:rgb(100%,100%,100%);fill-opacity:1;" d="M 41.03125 15.019531 L 28.816406 15.019531 C 24.667969 14.644531 21.609375 10.980469 21.980469 6.835938 C 22.355469 2.6875 26.019531 -0.371094 30.167969 0 L 30.167969 28.582031 C 22.273438 28.582031 15.875 22.183594 15.875 14.292969 C 15.875 6.398438 22.273438 0 30.167969 0 L 42.382813 0 C 42.382813 3.375 39.648438 6.109375 36.273438 6.109375 C 32.902344 6.109375 30.167969 3.375 30.167969 0 L 30.167969 16.367188 C 25.644531 16.742188 21.679688 13.378906 21.308594 8.859375 C 20.933594 4.339844 24.296875 0.371094 28.816406 0 Z M 41.03125 15.019531 "/>
<path style=" stroke:none;fill-rule:nonzero;fill:rgb(65.098039%,47.843137%,95.686275%);fill-opacity:1;" d="M 41.03125 15.019531 L 28.816406 15.019531 C 24.667969 14.644531 21.609375 10.980469 21.980469 6.835938 C 22.355469 2.6875 26.019531 -0.371094 30.167969 0 L 30.167969 28.582031 C 22.273438 28.582031 15.875 22.183594 15.875 14.292969 C 15.875 6.398438 22.273438 0 30.167969 0 L 42.382813 0 C 42.382813 3.375 39.648438 6.109375 36.273438 6.109375 C 32.902344 6.109375 30.167969 3.375 30.167969 0 L 30.167969 16.367188 C 25.644531 16.742188 21.679688 13.378906 21.308594 8.859375 C 20.933594 4.339844 24.296875 0.371094 28.816406 0 Z M 39.863281 26.53125 C 32.539063 26.28125 26.800781 20.144531 27.046875 12.816406 C 27.292969 5.492188 33.433594 -0.246094 40.757813 0 L 30.871094 0 C 31.21875 0.203125 31.390625 0.613281 31.285156 1.007813 C 31.183594 1.398438 30.828125 1.667969 30.421875 1.667969 C 30.019531 1.667969 29.664063 1.398438 29.558594 1.007813 C 29.453125 0.613281 29.625 0.203125 29.976563 0 L 29.976563 18.421875 C 24.886719 18.421875 20.765625 14.296875 20.765625 9.210938 C 20.765625 4.125 24.886719 0 29.976563 0 L 38.082031 0 C 38.082031 2.238281 36.269531 4.054688 34.03125 4.054688 C 31.789063 4.054688 29.976563 2.238281 29.976563 0 Z M 39.863281 26.53125 "/>
<path style=" stroke:none;fill-rule:nonzero;fill:url(#linear0);" d="M 26.113281 51.273438 L 26.113281 42.777344 C 14.300781 43.078125 4.480469 33.746094 4.183594 21.929688 C 3.882813 10.117188 13.214844 0.300781 25.027344 0 L 16.53125 0 C 16.867188 -0.195313 17.28125 -0.195313 17.617188 0 L 17.617188 8.5 C 15.269531 8.5 13.367188 6.597656 13.367188 4.25 C 13.367188 1.902344 15.269531 0 17.617188 0 L 26.113281 0 C 26.113281 2.347656 24.210938 4.25 21.867188 4.25 C 19.519531 4.25 17.617188 2.347656 17.617188 0 Z M 26.113281 51.273438 "/>
<path style=" stroke:none;fill-rule:nonzero;fill:url(#linear1);" d="M 54.515625 51.273438 L 54.515625 42.777344 C 42.703125 43.078125 32.882813 33.746094 32.582031 21.929688 C 32.285156 10.117188 41.617188 0.300781 53.429688 0 L 44.929688 0 C 45.265625 -0.195313 45.675781 -0.195313 46.011719 0 L 46.011719 8.5 C 43.664063 8.5 41.761719 6.597656 41.761719 4.25 C 41.761719 1.902344 43.664063 0 46.011719 0 L 54.515625 0 C 54.515625 2.347656 52.613281 4.25 50.265625 4.25 C 47.917969 4.25 46.011719 2.347656 46.011719 0 Z M 54.515625 51.273438 "/>
</g>
</svg>
