<?xml version="1.0" encoding="UTF-8"?>
<svg xmlns="http://www.w3.org/2000/svg" xmlns:xlink="http://www.w3.org/1999/xlink" width="70pt" height="70pt" viewBox="0 0 70 70" version="1.1">
<defs>
<linearGradient id="linear0" gradientUnits="userSpaceOnUse" x1="6.11" y1="12.5" x2="6.11" y2="9.42" gradientTransform="matrix(3.888889,0,0,3.888889,0,0)">
<stop offset="0" style="stop-color:rgb(43.529412%,29.411765%,69.803922%);stop-opacity:1;"/>
<stop offset="1" style="stop-color:rgb(77.647059%,60.392157%,92.156863%);stop-opacity:1;"/>
</linearGradient>
<linearGradient id="linear1" gradientUnits="userSpaceOnUse" x1="12.06" y1="12.5" x2="12.06" y2="9.42" gradientTransform="matrix(3.888889,0,0,3.888889,0,0)">
<stop offset="0" style="stop-color:rgb(43.529412%,29.411765%,69.803922%);stop-opacity:1;"/>
<stop offset="1" style="stop-color:rgb(77.647059%,60.392157%,92.156863%);stop-opacity:1;"/>
</linearGradient>
<filter id="alpha" filterUnits="objectBoundingBox" x="0%" y="0%" width="100%" height="100%">
  <feColorMatrix type="matrix" in="SourceGraphic" values="0 0 0 0 1 0 0 0 0 1 0 0 0 0 1 0 0 0 1 0"/>
</filter>
<mask id="mask0">
  <g filter="url(#alpha)">
<rect x="0" y="0" width="70" height="70" style="fill:rgb(0%,0%,0%);fill-opacity:0.501961;stroke:none;"/>
  </g>
</mask>
<clipPath id="clip1">
  <rect x="0" y="0" width="70" height="70"/>
</clipPath>
<g id="surface5" clip-path="url(#clip1)">
<path style=" stroke:none;fill-rule:nonzero;fill:rgb(60%,60%,60%);fill-opacity:1;" d="M 4.472656 4.9375 L 9.488281 4.9375 L 9.488281 18.9375 C 4.257813 18.628906 0.273438 14.136719 0.582031 8.90625 C 0.894531 3.675781 5.386719 -0.3125 10.617188 0 L 3.382813 0 C 3.824219 0.253906 4.039063 0.777344 3.910156 1.269531 C 3.777344 1.761719 3.328125 2.105469 2.820313 2.105469 C 2.308594 2.105469 1.863281 1.761719 1.730469 1.269531 C 1.597656 0.777344 1.8125 0.253906 2.253906 0 L 2.253906 -11.667969 C 5.476563 -11.667969 8.089844 -9.054688 8.089844 -5.832031 C 8.089844 -2.613281 5.476563 0 2.253906 0 Z M 4.472656 4.9375 "/>
</g>
<mask id="mask1">
  <g filter="url(#alpha)">
<rect x="0" y="0" width="70" height="70" style="fill:rgb(0%,0%,0%);fill-opacity:0.501961;stroke:none;"/>
  </g>
</mask>
<clipPath id="clip2">
  <rect x="0" y="0" width="70" height="70"/>
</clipPath>
<g id="surface8" clip-path="url(#clip2)">
<path style=" stroke:none;fill-rule:nonzero;fill:rgb(60%,60%,60%);fill-opacity:1;" d="M 61.132813 4.9375 L 66.109375 4.9375 C 64.746094 23.195313 48.84375 36.890625 30.585938 35.523438 C 12.328125 34.160156 -1.363281 18.257813 0 0 L 0 11.667969 C -3.222656 11.355469 -5.582031 8.492188 -5.269531 5.269531 C -4.957031 2.046875 -2.09375 -0.3125 1.128906 0 L 62.222656 0 C 62.664063 0.253906 62.878906 0.777344 62.746094 1.269531 C 62.617188 1.761719 62.167969 2.105469 61.660156 2.105469 C 61.148438 2.105469 60.699219 1.761719 60.570313 1.269531 C 60.4375 0.777344 60.652344 0.253906 61.09375 0 L 61.09375 4.9375 Z M 61.132813 4.9375 "/>
</g>
<mask id="mask2">
  <g filter="url(#alpha)">
<rect x="0" y="0" width="70" height="70" style="fill:rgb(0%,0%,0%);fill-opacity:0.501961;stroke:none;"/>
  </g>
</mask>
<clipPath id="clip3">
  <rect x="0" y="0" width="70" height="70"/>
</clipPath>
<g id="surface11" clip-path="url(#clip3)">
<path style=" stroke:none;fill-rule:nonzero;fill:rgb(60%,60%,60%);fill-opacity:1;" d="M 3.382813 48.6875 L 8.398438 48.6875 C -5.046875 51.007813 -17.824219 41.988281 -20.144531 28.542969 C -22.464844 15.097656 -13.445313 2.320313 0 0 L 0 14 L -5.054688 14 C -8.921875 14.613281 -12.550781 11.972656 -13.164063 8.109375 C -13.777344 4.242188 -11.136719 0.613281 -7.273438 0 L -7.273438 -11.667969 C -4.050781 -11.667969 -1.4375 -9.054688 -1.4375 -5.832031 C -1.4375 -2.613281 -4.050781 0 -7.273438 0 Z M 3.382813 48.6875 "/>
</g>
<mask id="mask3">
  <g filter="url(#alpha)">
<rect x="0" y="0" width="70" height="70" style="fill:rgb(0%,0%,0%);fill-opacity:0.501961;stroke:none;"/>
  </g>
</mask>
<clipPath id="clip4">
  <rect x="0" y="0" width="70" height="70"/>
</clipPath>
<g id="surface14" clip-path="url(#clip4)">
<path style=" stroke:none;fill-rule:nonzero;fill:rgb(60%,60%,60%);fill-opacity:1;" d="M 62.222656 48.6875 L 67.277344 48.6875 C 53.832031 67.265625 27.871094 71.429688 9.292969 57.984375 C -9.285156 44.539063 -13.445313 18.578125 0 0 L 0 11.667969 C -3.222656 11.054688 -5.335938 7.945313 -4.726563 4.726563 C -4.113281 1.503906 -1.003906 -0.613281 2.214844 0 L -2.839844 0 L -2.839844 -14 C 1.027344 -15.394531 5.292969 -13.394531 6.6875 -9.527344 C 8.085938 -5.660156 6.082031 -1.394531 2.214844 0 Z M 62.222656 48.6875 "/>
</g>
</defs>
<g id="surface1">
<path style=" stroke:none;fill-rule:nonzero;fill:rgb(58.039216%,58.039216%,58.039216%);fill-opacity:1;" d="M 48.144531 41.960938 L 36.554688 23.371094 L 35.503906 24.035156 L 34.496094 23.371094 L 22.867188 41.960938 L 25.238281 43.398438 L 35.503906 26.949219 L 45.8125 43.4375 Z M 48.144531 41.960938 "/>
<path style=" stroke:none;fill-rule:nonzero;fill:rgb(52.54902%,83.921569%,20%);fill-opacity:1;" d="M 41.300781 24.148438 C 41.300781 27.457031 38.617188 30.140625 35.3125 30.140625 C 32.003906 30.140625 29.320313 27.457031 29.320313 24.148438 C 29.320313 20.84375 32.003906 18.160156 35.3125 18.160156 C 38.617188 18.160156 41.300781 20.84375 41.300781 24.148438 Z M 41.300781 24.148438 "/>
<path style=" stroke:none;fill-rule:nonzero;fill:url(#linear0);" d="M 29.75 42.621094 C 29.75 45.929688 27.070313 48.609375 23.761719 48.609375 C 20.453125 48.609375 17.773438 45.929688 17.773438 42.621094 C 17.773438 39.316406 20.453125 36.632813 23.761719 36.632813 C 27.070313 36.632813 29.75 39.316406 29.75 42.621094 Z M 29.75 42.621094 "/>
<path style=" stroke:none;fill-rule:nonzero;fill:url(#linear1);" d="M 52.890625 42.621094 C 52.890625 45.929688 50.207031 48.609375 46.898438 48.609375 C 43.59375 48.609375 40.910156 45.929688 40.910156 42.621094 C 40.910156 39.316406 43.59375 36.632813 46.898438 36.632813 C 50.207031 36.632813 52.890625 39.316406 52.890625 42.621094 Z M 52.890625 42.621094 "/>
<path style=" stroke:none;fill-rule:nonzero;fill:rgb(60%,60%,60%);fill-opacity:1;" d="M 4.472656 4.9375 L 9.488281 4.9375 L 9.488281 18.9375 C 4.257813 18.628906 0.273438 14.136719 0.582031 8.90625 C 0.894531 3.675781 5.386719 -0.3125 10.617188 0 L 3.382813 0 C 3.824219 0.253906 4.039063 0.777344 3.910156 1.269531 C 3.777344 1.761719 3.328125 2.105469 2.820313 2.105469 C 2.308594 2.105469 1.863281 1.761719 1.730469 1.269531 C 1.597656 0.777344 1.8125 0.253906 2.253906 0 L 2.253906 -11.667969 C 5.476563 -11.667969 8.089844 -9.054688 8.089844 -5.832031 C 8.089844 -2.613281 5.476563 0 2.253906 0 Z M 4.472656 4.9375 "/>
<use xlink:href="#surface5" mask="url(#mask0)"/>
<path style=" stroke:none;fill-rule:nonzero;fill:rgb(60%,60%,60%);fill-opacity:1;" d="M 61.132813 4.9375 L 66.109375 4.9375 C 64.746094 23.195313 48.84375 36.890625 30.585938 35.523438 C 12.328125 34.160156 -1.363281 18.257813 0 0 L 0 11.667969 C -3.222656 11.355469 -5.582031 8.492188 -5.269531 5.269531 C -4.957031 2.046875 -2.09375 -0.3125 1.128906 0 L 62.222656 0 C 62.664063 0.253906 62.878906 0.777344 62.746094 1.269531 C 62.617188 1.761719 62.167969 2.105469 61.660156 2.105469 C 61.148438 2.105469 60.699219 1.761719 60.570313 1.269531 C 60.4375 0.777344 60.652344 0.253906 61.09375 0 L 61.09375 4.9375 Z M 61.132813 4.9375 "/>
<use xlink:href="#surface8" mask="url(#mask1)"/>
<path style=" stroke:none;fill-rule:nonzero;fill:rgb(58.039216%,58.039216%,58.039216%);fill-opacity:1;" d="M 68.367188 7.15625 L 68.367188 12.054688 L 2.253906 12.054688 L 2.253906 7.15625 C 0.28125 7.777344 -1.828125 6.679688 -2.449219 4.707031 C -3.074219 2.730469 -1.976563 0.621094 0 0 L 61.679688 0 C 61.679688 17.03125 47.871094 30.839844 30.839844 30.839844 C 13.808594 30.839844 0 17.03125 0 0 Z M 68.367188 7.15625 "/>
<path style=" stroke:none;fill-rule:nonzero;fill:rgb(60%,60%,60%);fill-opacity:1;" d="M 3.382813 48.6875 L 8.398438 48.6875 C -5.046875 51.007813 -17.824219 41.988281 -20.144531 28.542969 C -22.464844 15.097656 -13.445313 2.320313 0 0 L 0 14 L -5.054688 14 C -8.921875 14.613281 -12.550781 11.972656 -13.164063 8.109375 C -13.777344 4.242188 -11.136719 0.613281 -7.273438 0 L -7.273438 -11.667969 C -4.050781 -11.667969 -1.4375 -9.054688 -1.4375 -5.832031 C -1.4375 -2.613281 -4.050781 0 -7.273438 0 Z M 3.382813 48.6875 "/>
<use xlink:href="#surface11" mask="url(#mask2)"/>
<path style=" stroke:none;fill-rule:nonzero;fill:rgb(60%,60%,60%);fill-opacity:1;" d="M 62.222656 48.6875 L 67.277344 48.6875 C 53.832031 67.265625 27.871094 71.429688 9.292969 57.984375 C -9.285156 44.539063 -13.445313 18.578125 0 0 L 0 11.667969 C -3.222656 11.054688 -5.335938 7.945313 -4.726563 4.726563 C -4.113281 1.503906 -1.003906 -0.613281 2.214844 0 L -2.839844 0 L -2.839844 -14 C 1.027344 -15.394531 5.292969 -13.394531 6.6875 -9.527344 C 8.085938 -5.660156 6.082031 -1.394531 2.214844 0 Z M 62.222656 48.6875 "/>
<use xlink:href="#surface14" mask="url(#mask3)"/>
<path style=" stroke:none;fill-rule:nonzero;fill:rgb(58.039216%,58.039216%,58.039216%);fill-opacity:1;" d="M 2.253906 61.640625 L 2.253906 56.738281 L 68.367188 56.738281 L 68.367188 61.640625 C 51.34375 61.027344 38.042969 46.730469 38.65625 29.710938 C 39.269531 12.691406 53.5625 -0.613281 70.582031 0 L 4.472656 0 C 5.339844 0.5 5.765625 1.523438 5.503906 2.492188 C 5.246094 3.460938 4.367188 4.136719 3.363281 4.136719 C 2.359375 4.136719 1.480469 3.460938 1.222656 2.492188 C 0.964844 1.523438 1.386719 0.5 2.253906 0 Z M 2.253906 61.640625 "/>
</g>
</svg>
