<?xml version="1.0" encoding="UTF-8"?>
<svg xmlns="http://www.w3.org/2000/svg" xmlns:xlink="http://www.w3.org/1999/xlink" width="70pt" height="70pt" viewBox="0 0 70 70" version="1.1">
<defs>
<linearGradient id="linear0" gradientUnits="userSpaceOnUse" x1="0.4" y1="10.06" x2="12.11" y2="10.06" gradientTransform="matrix(3.888889,0,0,3.888889,0,0)">
<stop offset="0" style="stop-color:rgb(0%,35.686275%,63.137255%);stop-opacity:1;"/>
<stop offset="0.07" style="stop-color:rgb(0%,37.647059%,66.27451%);stop-opacity:1;"/>
<stop offset="0.36" style="stop-color:rgb(0%,44.313725%,78.431373%);stop-opacity:1;"/>
<stop offset="0.52" style="stop-color:rgb(0%,47.058824%,83.137255%);stop-opacity:1;"/>
<stop offset="0.64" style="stop-color:rgb(0%,45.490196%,80.392157%);stop-opacity:1;"/>
<stop offset="0.82" style="stop-color:rgb(0%,41.568627%,73.333333%);stop-opacity:1;"/>
<stop offset="1" style="stop-color:rgb(0%,35.686275%,63.137255%);stop-opacity:1;"/>
</linearGradient>
<radialGradient id="radial0" gradientUnits="userSpaceOnUse" cx="6.58" cy="10.43" fx="6.58" fy="10.43" r="6.46" gradientTransform="matrix(3.888889,0,0,3.888889,0,0)">
<stop offset="0" style="stop-color:rgb(94.901961%,94.901961%,94.901961%);stop-opacity:1;"/>
<stop offset="0.58" style="stop-color:rgb(93.333333%,93.333333%,93.333333%);stop-opacity:1;"/>
<stop offset="1" style="stop-color:rgb(90.196078%,90.196078%,90.196078%);stop-opacity:1;"/>
</radialGradient>
</defs>
<g id="surface1">
<path style=" stroke:none;fill-rule:nonzero;fill:url(#linear0);" d="M 24.34375 21.3125 C 11.667969 21.3125 1.554688 17.617188 1.554688 13.066406 L 1.554688 56.933594 C 1.554688 61.445313 11.667969 65.140625 24.035156 65.179688 L 24.34375 65.179688 C 36.90625 65.179688 47.09375 61.289063 47.09375 56.933594 L 47.09375 13.066406 C 47.09375 17.617188 36.90625 21.3125 24.34375 21.3125 Z M 24.34375 21.3125 "/>
<path style=" stroke:none;fill-rule:nonzero;fill:rgb(90.980392%,90.980392%,90.980392%);fill-opacity:1;" d="M 47.09375 13.066406 C 47.09375 17.617188 36.90625 21.3125 24.34375 21.3125 C 11.785156 21.3125 1.554688 17.617188 1.554688 13.066406 C 1.554688 8.515625 11.667969 4.820313 24.34375 4.820313 C 37.023438 4.820313 47.09375 8.710938 47.09375 13.066406 "/>
<path style=" stroke:none;fill-rule:nonzero;fill:rgb(31.372549%,90.196078%,100%);fill-opacity:1;" d="M 41.804688 12.40625 C 41.804688 15.285156 34.027344 17.65625 24.34375 17.65625 C 14.660156 17.65625 6.882813 15.285156 6.882813 12.40625 C 6.882813 9.527344 14.660156 7.15625 24.34375 7.15625 C 34.027344 7.15625 41.804688 9.488281 41.804688 12.40625 "/>
<path style=" stroke:none;fill-rule:nonzero;fill:rgb(9.803922%,54.117647%,70.196078%);fill-opacity:1;" d="M 24.34375 13.609375 C 38.128906 29.117188 38.707031 52.308594 25.710938 68.480469 C 12.714844 84.648438 -10.058594 89.078125 -28.164063 78.953125 C -46.273438 68.828125 -54.429688 47.109375 -47.457031 27.570313 C -40.484375 8.03125 -20.425781 -3.621094 0 0 C -0.648438 0.015625 -1.296875 0.015625 -1.945313 0 Z M 24.34375 13.609375 "/>
<path style=" stroke:none;fill-rule:nonzero;fill:url(#radial0);" d="M 38.1875 43.515625 L 38.1875 31.539063 L 35 31.539063 L 35 46.199219 L 43.710938 46.199219 L 43.710938 43.515625 Z M 12.832031 37.605469 C 15.769531 33.992188 21.015625 33.296875 24.792969 36.019531 C 28.570313 38.742188 29.570313 43.9375 27.070313 47.867188 C 24.570313 51.796875 19.4375 53.09375 15.371094 50.824219 C 11.304688 48.554688 9.714844 43.507813 11.746094 39.316406 L 13.105469 40.679688 L 13.105469 46.082031 C 13.238281 41.230469 13.597656 37.292969 13.90625 37.292969 C 14.21875 37.292969 14.363281 41.230469 14.234375 46.082031 L 14.234375 42.933594 C 15.054688 38.023438 19.5 34.5625 24.460938 34.972656 C 29.417969 35.386719 33.234375 39.53125 33.234375 44.507813 C 33.234375 49.484375 29.417969 53.632813 24.460938 54.042969 C 19.5 54.453125 15.054688 50.992188 14.234375 46.082031 C 15.089844 47.191406 15.515625 48.574219 15.4375 49.972656 L 20.261719 54.792969 L 20.261719 60.859375 C 20.820313 60.882813 21.296875 61.394531 21.429688 62.105469 L 23.996094 64.671875 L 29.75 64.671875 L 29.75 67.9375 C 29.3125 64.632813 31.027344 61.417969 34.015625 59.941406 C 37.007813 58.46875 40.601563 59.0625 42.960938 61.417969 C 45.316406 63.773438 45.910156 67.371094 44.433594 70.359375 C 42.960938 73.347656 39.742188 75.066406 36.4375 74.628906 L 36.4375 76.144531 C 36.453125 75.222656 36.148438 74.332031 35.582031 73.65625 C 34.976563 73.71875 34.363281 73.71875 33.753906 73.65625 Z M 31.109375 43.246094 C 39.507813 42.515625 46.910156 48.730469 47.640625 57.128906 C 48.367188 65.527344 42.152344 72.925781 33.753906 73.65625 C 33.59375 76.316406 32.140625 78.726563 29.867188 80.109375 C 31.152344 81.988281 31.511719 84.351563 30.839844 86.527344 L 40.09375 95.785156 L 40.09375 98.234375 C 40.511719 97.941406 40.9375 97.941406 41.339844 98.234375 L 44.371094 101.617188 L 48.648438 101.617188 L 44.410156 97.726563 C 47.554688 98.003906 50 100.578125 50.117188 103.730469 C 50.234375 106.882813 47.988281 109.628906 44.875 110.144531 C 41.761719 110.65625 38.757813 108.769531 37.859375 105.746094 C 36.960938 102.722656 38.453125 99.503906 41.339844 98.234375 Z M 27.804688 42.351563 C 28.074219 40.894531 29.277344 39.796875 30.75 39.660156 C 32.222656 39.523438 33.609375 40.382813 34.140625 41.761719 C 34.671875 43.140625 34.222656 44.707031 33.039063 45.59375 C 31.855469 46.484375 30.226563 46.476563 29.050781 45.578125 L 34.496094 51.023438 L 39.820313 51.023438 C 38.839844 52.242188 39.019531 53.769531 40.273438 54.878906 C 41.527344 55.988281 43.605469 56.460938 45.53125 56.074219 C 47.457031 55.6875 48.847656 54.523438 49.046875 53.121094 C 49.242188 51.722656 48.210938 50.371094 46.433594 49.699219 C 47.980469 48.152344 50.488281 48.152344 52.035156 49.699219 C 53.578125 51.246094 53.578125 53.753906 52.035156 55.300781 L 52.035156 59.1875 Z M 27.804688 42.351563 "/>
<path style=" stroke:none;fill-rule:nonzero;fill:rgb(100%,100%,100%);fill-opacity:1;" d="M 56.699219 5.210938 L 42.503906 5.210938 C 41.066406 4.898438 40.152344 3.480469 40.464844 2.042969 C 40.773438 0.601563 42.195313 -0.3125 43.632813 0 L 43.632813 36.945313 C 33.429688 36.945313 25.160156 28.675781 25.160156 18.472656 C 25.160156 8.269531 33.429688 0 43.632813 0 L 68.25 0 C 68.25 6.796875 62.738281 12.308594 55.941406 12.308594 C 49.144531 12.308594 43.632813 6.796875 43.632813 0 L 43.632813 16.683594 C 39.027344 16.996094 35.039063 13.511719 34.726563 8.90625 C 34.417969 4.296875 37.898438 0.3125 42.503906 0 L 34.339844 0 C 34.78125 0.253906 34.996094 0.777344 34.863281 1.269531 C 34.730469 1.761719 34.285156 2.105469 33.773438 2.105469 C 33.265625 2.105469 32.816406 1.761719 32.6875 1.269531 C 32.554688 0.777344 32.769531 0.253906 33.210938 0 L 33.210938 6.339844 C 31.460938 6.648438 29.789063 5.484375 29.476563 3.734375 C 29.167969 1.984375 30.332031 0.3125 32.082031 0 Z M 56.699219 5.210938 "/>
<path style=" stroke:none;fill-rule:nonzero;fill:rgb(31.372549%,90.196078%,100%);fill-opacity:1;" d="M 56.195313 6.648438 L 56.195313 14.429688 C 52.210938 29.945313 36.402344 39.296875 20.882813 35.3125 C 5.367188 31.328125 -3.984375 15.519531 0 0 L 7.777344 0 L 7.777344 19.445313 L 42.777344 19.445313 L 42.777344 6.648438 L 56.078125 6.648438 M 56.621094 4.976563 L 42.234375 4.976563 C 40.859375 4.667969 39.996094 3.300781 40.308594 1.925781 C 40.621094 0.550781 41.988281 -0.3125 43.359375 0 L 43.359375 31.109375 C 34.769531 31.109375 27.804688 24.148438 27.804688 15.554688 C 27.804688 6.964844 34.769531 0 43.359375 0 L 68.328125 0 C 68.328125 6.894531 62.738281 12.484375 55.84375 12.484375 C 48.949219 12.484375 43.359375 6.894531 43.359375 0 L 43.359375 -20.609375 C 49.050781 -20.320313 53.429688 -15.472656 53.140625 -9.78125 C 52.851563 -4.089844 48.003906 0.289063 42.3125 0 L 33.988281 0 C 34.429688 0.253906 34.644531 0.777344 34.515625 1.269531 C 34.382813 1.761719 33.933594 2.105469 33.425781 2.105469 C 32.914063 2.105469 32.46875 1.761719 32.335938 1.269531 C 32.203125 0.777344 32.417969 0.253906 32.859375 0 L 32.859375 6.105469 C 31.175781 6.417969 29.554688 5.300781 29.246094 3.617188 C 28.933594 1.929688 30.046875 0.3125 31.734375 0 Z M 56.621094 4.976563 "/>
<path style=" stroke:none;fill-rule:nonzero;fill:rgb(19.607843%,74.509804%,86.666667%);fill-opacity:1;" d="M 68.015625 15.554688 L 57.476563 5.054688 L 57.476563 13.609375 C 53.71875 29.484375 37.804688 39.304688 21.933594 35.542969 C 6.0625 31.785156 -3.757813 15.871094 0 0 Z M 68.015625 15.554688 "/>
<path style=" stroke:none;fill-rule:nonzero;fill:rgb(19.607843%,74.509804%,86.666667%);fill-opacity:1;" d="M 47.910156 22.867188 L 61.679688 22.867188 C 62.257813 22.867188 62.726563 23.335938 62.726563 23.917969 C 62.726563 24.496094 62.257813 24.964844 61.679688 24.964844 L 47.910156 24.964844 C 47.332031 24.964844 46.859375 24.496094 46.859375 23.917969 C 46.859375 23.335938 47.332031 22.867188 47.910156 22.867188 Z M 47.910156 22.867188 "/>
<path style=" stroke:none;fill-rule:nonzero;fill:rgb(19.607843%,74.509804%,86.666667%);fill-opacity:1;" d="M 47.910156 26.40625 L 61.679688 26.40625 C 62.257813 26.40625 62.726563 26.875 62.726563 27.457031 C 62.726563 28.035156 62.257813 28.503906 61.679688 28.503906 L 47.910156 28.503906 C 47.332031 28.503906 46.859375 28.035156 46.859375 27.457031 C 46.859375 26.875 47.332031 26.40625 47.910156 26.40625 Z M 47.910156 26.40625 "/>
<path style=" stroke:none;fill-rule:nonzero;fill:rgb(19.607843%,74.509804%,86.666667%);fill-opacity:1;" d="M 47.832031 30.023438 L 54.40625 30.023438 C 54.941406 30.023438 55.378906 30.457031 55.378906 30.996094 C 55.378906 31.53125 54.941406 31.964844 54.40625 31.964844 L 47.832031 31.964844 C 47.296875 31.964844 46.859375 31.53125 46.859375 30.996094 C 46.859375 30.457031 47.296875 30.023438 47.832031 30.023438 Z M 47.832031 30.023438 "/>
</g>
</svg>
