<?xml version="1.0" encoding="UTF-8"?>
<svg xmlns="http://www.w3.org/2000/svg" xmlns:xlink="http://www.w3.org/1999/xlink" width="70pt" height="70pt" viewBox="0 0 70 70" version="1.1">
<defs>
<linearGradient id="linear0" gradientUnits="userSpaceOnUse" x1="9" y1="17.2" x2="9" y2="-3.28" gradientTransform="matrix(3.888889,0,0,3.888889,0,0)">
<stop offset="0" style="stop-color:rgb(36.862745%,58.823529%,14.117647%);stop-opacity:1;"/>
<stop offset="0.18" style="stop-color:rgb(38.431373%,61.176471%,14.509804%);stop-opacity:1;"/>
<stop offset="0.44" style="stop-color:rgb(42.745098%,68.235294%,16.470588%);stop-opacity:1;"/>
<stop offset="0.73" style="stop-color:rgb(49.803922%,79.607843%,18.823529%);stop-opacity:1;"/>
<stop offset="0.82" style="stop-color:rgb(52.54902%,83.921569%,20%);stop-opacity:1;"/>
</linearGradient>
</defs>
<g id="surface1">
<path style=" stroke:none;fill-rule:nonzero;fill:url(#linear0);" d="M 68.054688 9.722656 L 68.054688 51.839844 C 53.742188 51.214844 42.640625 39.105469 43.265625 24.792969 C 43.886719 10.476563 55.996094 -0.621094 70.3125 0 L 48.222656 0 C 48.390625 -0.0898438 48.597656 -0.0898438 48.765625 0 L 48.765625 6.804688 C 46.886719 6.558594 45.5625 4.835938 45.8125 2.957031 C 46.058594 1.078125 47.78125 -0.246094 49.660156 0 L 39.082031 -8.128906 L 7.972656 -8.128906 C 10.214844 -7.503906 11.53125 -5.179688 10.910156 -2.9375 C 10.285156 -0.691406 7.960938 0.621094 5.714844 0 L 5.714844 9.722656 C 3.03125 9.722656 0.855469 7.546875 0.855469 4.859375 C 0.855469 2.175781 3.03125 0 5.714844 0 L 67.316406 0 C 67.316406 17.011719 53.527344 30.800781 36.515625 30.800781 C 19.507813 30.800781 5.714844 17.011719 5.714844 0 Z M 68.054688 9.722656 "/>
<path style=" stroke:none;fill-rule:nonzero;fill:rgb(100%,100%,100%);fill-opacity:1;" d="M 37.101563 37.449219 L 32.589844 37.449219 C 22.246094 46.449219 6.570313 45.359375 -2.429688 35.019531 C -11.429688 24.679688 -10.339844 9 0 0 L -0.777344 -22.789063 C 5.515625 -23.003906 10.789063 -18.078125 11.003906 -11.785156 C 11.21875 -5.492188 6.292969 -0.214844 0 0 L 6.609375 0 C 6.609375 1.824219 5.132813 3.304688 3.304688 3.304688 C 1.480469 3.304688 0 1.824219 0 0 L 38.460938 36.167969 C 28.472656 35.8125 20.664063 27.429688 21.019531 17.441406 C 21.375 7.453125 29.757813 -0.355469 39.746094 0 Z M 37.101563 37.449219 "/>
<path style=" stroke:none;fill-rule:nonzero;fill:rgb(100%,100%,100%);fill-opacity:1;" d="M 33.988281 41.300781 L 35.816406 41.300781 C 37.125 41.300781 38.1875 42.363281 38.1875 43.671875 L 38.1875 45.5 C 38.1875 46.808594 37.125 47.871094 35.816406 47.871094 L 33.988281 47.871094 C 32.679688 47.871094 31.617188 46.808594 31.617188 45.5 L 31.617188 43.671875 C 31.617188 42.363281 32.679688 41.300781 33.988281 41.300781 Z M 33.988281 41.300781 "/>
</g>
</svg>
