<?xml version="1.0" encoding="UTF-8"?>
<svg xmlns="http://www.w3.org/2000/svg" xmlns:xlink="http://www.w3.org/1999/xlink" width="70pt" height="70pt" viewBox="0 0 70 70" version="1.1">
<defs>
<linearGradient id="linear0" gradientUnits="userSpaceOnUse" x1="11.08" y1="13.63" x2="3.17" y2="-0.04" gradientTransform="matrix(3.888889,0,0,3.888889,0,0)">
<stop offset="0" style="stop-color:rgb(36.862745%,58.823529%,14.117647%);stop-opacity:1;"/>
<stop offset="0.26" style="stop-color:rgb(43.921569%,65.882353%,15.686275%);stop-opacity:1;"/>
<stop offset="0.79" style="stop-color:rgb(62.352941%,84.313725%,19.607843%);stop-opacity:1;"/>
<stop offset="1" style="stop-color:rgb(70.588235%,92.54902%,21.176471%);stop-opacity:1;"/>
</linearGradient>
</defs>
<g id="surface1">
<path style=" stroke:none;fill-rule:nonzero;fill:rgb(52.54902%,83.921569%,20%);fill-opacity:1;" d="M 48.144531 27.6875 C 48.144531 42.503906 29.867188 54.445313 25.898438 56.855469 C 10.199219 56.855469 -2.527344 44.128906 -2.527344 28.429688 C -2.527344 12.726563 10.199219 0 25.898438 0 C 20.417969 54.445313 2.179688 42.503906 2.179688 27.6875 L 2.179688 9.839844 C -0.539063 2.792969 2.96875 -5.121094 10.015625 -7.835938 C 17.058594 -10.554688 24.972656 -7.042969 27.6875 0 C 17.773438 8.050781 14.503906 1.945313 25.160156 1.945313 C 35.816406 1.945313 32.511719 8.050781 46.667969 8.4375 C 44.335938 20.789063 32.4375 28.910156 20.085938 26.582031 C 7.738281 24.25 -0.386719 12.351563 1.945313 0 Z M 48.144531 27.6875 "/>
<path style=" stroke:none;fill-rule:nonzero;fill:url(#linear0);" d="M 46.238281 27.84375 C 46.238281 41.457031 29.476563 52.382813 25.859375 54.601563 C 10.785156 54.601563 -1.4375 42.378906 -1.4375 27.300781 C -1.4375 12.222656 10.785156 0 25.859375 0 C 22.207031 -2.214844 5.484375 -13.144531 5.484375 -26.753906 L 5.484375 11.667969 C 2.261719 20.570313 -7.566406 25.175781 -16.46875 21.953125 C -25.371094 18.730469 -29.976563 8.902344 -26.753906 0 C 18.394531 9.839844 15.554688 4.238281 25.160156 4.238281 C 34.765625 4.238281 31.929688 9.839844 44.917969 10.1875 C 42.101563 21.421875 30.714844 28.246094 19.484375 25.433594 C 8.25 22.621094 1.425781 11.234375 4.238281 0 Z M 46.238281 27.84375 "/>
<path style=" stroke:none;fill-rule:nonzero;fill:rgb(61.176471%,92.156863%,100%);fill-opacity:1;" d="M 24.460938 33.640625 L 66.382813 33.640625 C 57.09375 51.96875 34.703125 59.300781 16.371094 50.011719 C -1.960938 40.722656 -9.289063 18.332031 0 0 L 0 31.851563 C -8.796875 31.496094 -15.636719 24.078125 -15.285156 15.285156 C -14.929688 6.488281 -7.511719 -0.355469 1.285156 0 L 24.460938 0 C 25.035156 0.296875 25.332031 0.945313 25.179688 1.574219 C 25.027344 2.203125 24.464844 2.644531 23.820313 2.644531 C 23.171875 2.644531 22.609375 2.203125 22.457031 1.574219 C 22.304688 0.945313 22.605469 0.296875 23.179688 0 L 23.179688 35 C 13.511719 35 5.679688 27.164063 5.679688 17.5 C 5.679688 7.835938 13.511719 0 23.179688 0 Z M 24.460938 33.640625 "/>
<path style=" stroke:none;fill-rule:nonzero;fill:rgb(0%,47.058824%,83.137255%);fill-opacity:1;" d="M 24.382813 33.640625 L 66.460938 33.640625 C 57.171875 51.992188 34.765625 59.339844 16.410156 50.050781 C -1.941406 40.761719 -9.289063 18.351563 0 0 L 0 4.820313 L 23.023438 4.820313 L 23.023438 35 C 13.355469 41.355469 0.367188 38.675781 -5.988281 29.011719 C -12.347656 19.347656 -9.664063 6.355469 0 0 Z M 61.714844 52.148438 L 34.066406 52.148438 C 33.445313 52.148438 32.976563 52.460938 32.976563 52.773438 L 32.976563 54.445313 C 32.976563 54.792969 33.445313 55.066406 34.066406 55.066406 L 61.714844 55.066406 C 62.339844 55.066406 62.84375 54.792969 62.84375 54.445313 L 62.84375 52.890625 C 62.84375 52.460938 62.222656 52.148438 61.714844 52.148438 Z M 61.714844 45.148438 L 34.066406 45.148438 C 33.445313 45.148438 32.976563 45.421875 32.976563 45.773438 L 32.976563 47.289063 C 32.976563 47.640625 33.445313 47.910156 34.066406 47.910156 L 61.714844 47.910156 C 62.339844 47.910156 62.84375 47.640625 62.84375 47.289063 L 62.84375 45.773438 C 62.84375 45.421875 62.222656 45.148438 61.714844 45.148438 Z M 61.714844 60.042969 L 34.066406 60.042969 C 33.445313 60.042969 32.976563 60.316406 32.976563 60.667969 L 32.976563 62.222656 C 32.976563 62.570313 33.445313 62.84375 34.066406 62.84375 L 61.714844 62.84375 C 62.339844 62.84375 62.84375 62.570313 62.84375 62.222656 L 62.84375 60.667969 C 62.84375 60.316406 62.222656 60.042969 61.714844 60.042969 Z M 61.714844 60.042969 "/>
<path style=" stroke:none;fill-rule:nonzero;fill:rgb(0%,47.058824%,83.137255%);fill-opacity:1;" d="M 30.214844 46.511719 C 30.214844 47.519531 29.398438 48.339844 28.390625 48.339844 C 27.378906 48.339844 26.5625 47.519531 26.5625 46.511719 C 26.5625 45.5 27.378906 44.683594 28.390625 44.683594 C 29.398438 44.683594 30.214844 45.5 30.214844 46.511719 Z M 30.214844 46.511719 "/>
<path style=" stroke:none;fill-rule:nonzero;fill:rgb(0%,47.058824%,83.137255%);fill-opacity:1;" d="M 30.214844 53.550781 C 30.214844 54.558594 29.398438 55.378906 28.390625 55.378906 C 27.378906 55.378906 26.5625 54.558594 26.5625 53.550781 C 26.5625 52.539063 27.378906 51.722656 28.390625 51.722656 C 29.398438 51.722656 30.214844 52.539063 30.214844 53.550781 Z M 30.214844 53.550781 "/>
<path style=" stroke:none;fill-rule:nonzero;fill:rgb(0%,47.058824%,83.137255%);fill-opacity:1;" d="M 30.214844 61.445313 C 30.214844 62.453125 29.398438 63.273438 28.390625 63.273438 C 27.378906 63.273438 26.5625 62.453125 26.5625 61.445313 C 26.5625 60.433594 27.378906 59.617188 28.390625 59.617188 C 29.398438 59.617188 30.214844 60.433594 30.214844 61.445313 Z M 30.214844 61.445313 "/>
</g>
</svg>
