<?xml version="1.0" encoding="UTF-8"?>
<svg xmlns="http://www.w3.org/2000/svg" xmlns:xlink="http://www.w3.org/1999/xlink" width="70pt" height="70pt" viewBox="0 0 70 70" version="1.1">
<defs>
<linearGradient id="linear0" gradientUnits="userSpaceOnUse" x1="5.35" y1="7.02" x2="5.35" y2="17.19" gradientTransform="matrix(3.888889,0,0,3.888889,0,0)">
<stop offset="0" style="stop-color:rgb(70.196078%,69.803922%,70.196078%);stop-opacity:1;"/>
<stop offset="0.38" style="stop-color:rgb(68.627451%,68.235294%,68.627451%);stop-opacity:1;"/>
<stop offset="0.76" style="stop-color:rgb(63.529412%,63.529412%,63.529412%);stop-opacity:1;"/>
<stop offset="1" style="stop-color:rgb(59.215686%,59.215686%,59.215686%);stop-opacity:1;"/>
</linearGradient>
<linearGradient id="linear1" gradientUnits="userSpaceOnUse" x1="11.33" y1="15.74" x2="11.33" y2="6.99" gradientTransform="matrix(3.888889,0,0,3.888889,0,0)">
<stop offset="0" style="stop-color:rgb(0%,47.058824%,83.137255%);stop-opacity:1;"/>
<stop offset="0.16" style="stop-color:rgb(7.45098%,50.196078%,85.490196%);stop-opacity:1;"/>
<stop offset="0.53" style="stop-color:rgb(23.529412%,56.862745%,89.803922%);stop-opacity:1;"/>
<stop offset="0.82" style="stop-color:rgb(33.333333%,61.176471%,92.54902%);stop-opacity:1;"/>
<stop offset="1" style="stop-color:rgb(36.862745%,62.745098%,93.72549%);stop-opacity:1;"/>
</linearGradient>
</defs>
<g id="surface1">
<path style=" stroke:none;fill-rule:nonzero;fill:rgb(58.039216%,58.039216%,58.039216%);fill-opacity:1;" d="M 30.214844 41.535156 C 18.746094 41.167969 9.746094 31.574219 10.109375 20.105469 C 10.476563 8.636719 20.070313 -0.363281 31.539063 0 L 3.578125 0 C 4.214844 0.308594 4.554688 1.015625 4.394531 1.703125 C 4.238281 2.394531 3.625 2.882813 2.917969 2.882813 C 2.210938 2.882813 1.597656 2.394531 1.4375 1.703125 C 1.28125 1.015625 1.621094 0.308594 2.253906 0 L 2.253906 4.667969 C 0.96875 4.667969 -0.078125 3.621094 -0.078125 2.332031 C -0.078125 1.042969 0.96875 0 2.253906 0 L 27.261719 0 C 27.261719 6.90625 21.664063 12.503906 14.757813 12.503906 C 7.851563 12.503906 2.253906 6.90625 2.253906 0 Z M 30.214844 41.535156 "/>
<path style=" stroke:none;fill-rule:nonzero;fill:rgb(0%,18.823529%,40.392157%);fill-opacity:1;" d="M 6.105469 20.222656 C 0.519531 21.910156 -5.371094 18.75 -7.058594 13.164063 C -8.746094 7.578125 -5.585938 1.6875 0 0 L 23.332031 0 C 23.332031 6.441406 18.109375 11.667969 11.667969 11.667969 C 5.222656 11.667969 0 6.441406 0 0 L 9.179688 0 C 10.382813 0.695313 10.96875 2.113281 10.609375 3.457031 C 10.25 4.800781 9.03125 5.734375 7.640625 5.734375 C 6.25 5.734375 5.035156 4.800781 4.675781 3.457031 C 4.3125 2.113281 4.902344 0.695313 6.105469 0 Z M 6.105469 11.121094 C 3.035156 11.121094 0.542969 8.632813 0.542969 5.5625 C 0.542969 2.488281 3.035156 0 6.105469 0 L 23.332031 0 C 23.332031 -1.695313 24.707031 -3.070313 26.40625 -3.070313 C 28.101563 -3.070313 29.476563 -1.695313 29.476563 0 C 29.476563 1.695313 28.101563 3.070313 26.40625 3.070313 L 9.179688 3.070313 C 10.382813 3.765625 10.96875 5.183594 10.609375 6.527344 C 10.25 7.871094 9.03125 8.804688 7.640625 8.804688 C 6.25 8.804688 5.035156 7.871094 4.675781 6.527344 C 4.3125 5.183594 4.902344 3.765625 6.105469 3.070313 Z M 6.105469 11.121094 "/>
<path style=" stroke:none;fill-rule:nonzero;fill:rgb(31.372549%,90.196078%,100%);fill-opacity:1;" d="M 11.355469 11.121094 C 11.355469 12.261719 10.433594 13.183594 9.292969 13.183594 C 8.15625 13.183594 7.234375 12.261719 7.234375 11.121094 C 7.234375 9.984375 8.15625 9.0625 9.292969 9.0625 C 10.433594 9.0625 11.355469 9.984375 11.355469 11.121094 Z M 11.355469 11.121094 "/>
<path style=" stroke:none;fill-rule:nonzero;fill:rgb(31.372549%,90.196078%,100%);fill-opacity:1;" d="M 11.355469 20.222656 C 11.355469 21.359375 10.433594 22.285156 9.292969 22.285156 C 8.15625 22.285156 7.234375 21.359375 7.234375 20.222656 C 7.234375 19.082031 8.15625 18.160156 9.292969 18.160156 C 10.433594 18.160156 11.355469 19.082031 11.355469 20.222656 Z M 11.355469 20.222656 "/>
<path style=" stroke:none;fill-rule:nonzero;fill:rgb(58.039216%,58.039216%,58.039216%);fill-opacity:1;" d="M 61.40625 41.339844 C 49.988281 40.964844 41.039063 31.40625 41.417969 19.988281 C 41.792969 8.574219 51.351563 -0.375 62.765625 0 L 34.765625 0 C 35.394531 0.316406 35.722656 1.019531 35.5625 1.707031 C 35.398438 2.390625 34.789063 2.871094 34.085938 2.871094 C 33.382813 2.871094 32.773438 2.390625 32.609375 1.707031 C 32.449219 1.019531 32.777344 0.316406 33.40625 0 L 33.40625 4.511719 C 32.160156 4.511719 31.148438 3.5 31.148438 2.253906 C 31.148438 1.011719 32.160156 0 33.40625 0 L 58.410156 0 C 58.410156 6.90625 52.8125 12.503906 45.910156 12.503906 C 39.003906 12.503906 33.40625 6.90625 33.40625 0 Z M 61.40625 41.339844 "/>
<path style=" stroke:none;fill-rule:nonzero;fill:rgb(0%,18.823529%,40.392157%);fill-opacity:1;" d="M 37.292969 20.066406 C 31.753906 30.367188 18.914063 34.222656 8.613281 28.679688 C -1.683594 23.140625 -5.542969 10.296875 0 0 L 54.445313 0 C 54.445313 15.035156 42.257813 27.222656 27.222656 27.222656 C 12.1875 27.222656 0 15.035156 0 0 L -14.078125 0 C -12.875 0.695313 -12.285156 2.113281 -12.644531 3.457031 C -13.007813 4.800781 -14.222656 5.734375 -15.613281 5.734375 C -17.003906 5.734375 -18.222656 4.800781 -18.582031 3.457031 C -18.941406 2.113281 -18.355469 0.695313 -17.148438 0 Z M 37.292969 10.929688 C 34.277344 25.960938 19.644531 35.703125 4.609375 32.6875 C -10.425781 29.667969 -20.167969 15.035156 -17.148438 0 L 54.445313 0 C 54.429688 -1.265625 55.179688 -2.414063 56.347656 -2.90625 C 57.511719 -3.398438 58.859375 -3.132813 59.753906 -2.238281 C 60.648438 -1.34375 60.914063 0.00390625 60.421875 1.167969 C 59.929688 2.335938 58.78125 3.089844 57.515625 3.070313 L 43.4375 3.070313 C 44.644531 3.765625 45.230469 5.183594 44.871094 6.527344 C 44.511719 7.871094 43.292969 8.804688 41.902344 8.804688 C 40.511719 8.804688 39.296875 7.871094 38.933594 6.527344 C 38.574219 5.183594 39.164063 3.765625 40.367188 3.070313 Z M 37.292969 10.929688 "/>
<path style=" stroke:none;fill-rule:nonzero;fill:rgb(31.372549%,90.196078%,100%);fill-opacity:1;" d="M 42.542969 10.929688 C 42.542969 12.066406 41.621094 12.988281 40.484375 12.988281 C 39.34375 12.988281 38.421875 12.066406 38.421875 10.929688 C 38.421875 9.789063 39.34375 8.867188 40.484375 8.867188 C 41.621094 8.867188 42.542969 9.789063 42.542969 10.929688 Z M 42.542969 10.929688 "/>
<path style=" stroke:none;fill-rule:nonzero;fill:rgb(31.372549%,90.196078%,100%);fill-opacity:1;" d="M 42.542969 20.066406 C 42.542969 21.203125 41.621094 22.128906 40.484375 22.128906 C 39.34375 22.128906 38.421875 21.203125 38.421875 20.066406 C 38.421875 18.929688 39.34375 18.003906 40.484375 18.003906 C 41.621094 18.003906 42.542969 18.929688 42.542969 20.066406 Z M 42.542969 20.066406 "/>
<path style=" stroke:none;fill-rule:nonzero;fill:url(#linear0);" d="M 35 65.488281 C 16.914063 65.113281 2.558594 50.148438 2.9375 32.0625 C 3.3125 13.980469 18.277344 -0.375 36.359375 0 L 8.320313 0 C 8.949219 0.316406 9.28125 1.019531 9.117188 1.707031 C 8.957031 2.390625 8.34375 2.871094 7.640625 2.871094 C 6.9375 2.871094 6.328125 2.390625 6.164063 1.707031 C 6.003906 1.019531 6.332031 0.316406 6.960938 0 L 6.960938 28.660156 C -0.953125 28.660156 -7.371094 22.246094 -7.371094 14.332031 C -7.371094 6.414063 -0.953125 0 6.960938 0 L 31.964844 0 C 31.964844 6.90625 26.367188 12.503906 19.464844 12.503906 C 12.558594 12.503906 6.960938 6.90625 6.960938 0 Z M 35 65.488281 "/>
<path style=" stroke:none;fill-rule:nonzero;fill:rgb(0%,18.823529%,40.392157%);fill-opacity:1;" d="M 10.851563 44.214844 C -1.359375 47.210938 -13.6875 39.742188 -16.683594 27.535156 C -19.679688 15.324219 -12.210938 2.996094 0 0 L 28 0 C 28 7.730469 21.730469 14 14 14 C 6.269531 14 0 7.730469 0 0 L 31.109375 0 C 29.882813 -0.699219 29.277344 -2.132813 29.640625 -3.5 C 30 -4.867188 31.234375 -5.816406 32.648438 -5.816406 C 34.058594 -5.816406 35.292969 -4.867188 35.65625 -3.5 C 36.015625 -2.132813 35.410156 -0.699219 34.183594 0 L 13.921875 0 C 15.125 0.695313 15.714844 2.113281 15.355469 3.457031 C 14.992188 4.800781 13.777344 5.734375 12.386719 5.734375 C 10.996094 5.734375 9.777344 4.800781 9.417969 3.457031 C 9.058594 2.113281 9.644531 0.695313 10.851563 0 Z M 10.851563 35 C 1.183594 35 -6.648438 27.164063 -6.648438 17.5 C -6.648438 7.835938 1.183594 0 10.851563 0 L 28 0 C 28 4.734375 24.160156 8.574219 19.425781 8.574219 C 14.6875 8.574219 10.851563 4.734375 10.851563 0 C 9.621094 -0.699219 9.015625 -2.132813 9.378906 -3.5 C 9.738281 -4.867188 10.972656 -5.816406 12.386719 -5.816406 C 13.796875 -5.816406 15.035156 -4.867188 15.394531 -3.5 C 15.753906 -2.132813 15.148438 -0.699219 13.921875 0 Z M 10.851563 35 "/>
<path style=" stroke:none;fill-rule:nonzero;fill:rgb(31.372549%,90.196078%,100%);fill-opacity:1;" d="M 16.101563 35.078125 C 16.101563 36.214844 15.175781 37.140625 14.039063 37.140625 C 12.902344 37.140625 11.976563 36.214844 11.976563 35.078125 C 11.976563 33.941406 12.902344 33.015625 14.039063 33.015625 C 15.175781 33.015625 16.101563 33.941406 16.101563 35.078125 Z M 16.101563 35.078125 "/>
<path style=" stroke:none;fill-rule:nonzero;fill:rgb(31.372549%,90.196078%,100%);fill-opacity:1;" d="M 16.101563 44.214844 C 16.101563 45.355469 15.175781 46.277344 14.039063 46.277344 C 12.902344 46.277344 11.976563 45.355469 11.976563 44.214844 C 11.976563 43.078125 12.902344 42.15625 14.039063 42.15625 C 15.175781 42.15625 16.101563 43.078125 16.101563 44.214844 Z M 16.101563 44.214844 "/>
<path style=" stroke:none;fill-rule:nonzero;fill:url(#linear1);" d="M 68.054688 50.554688 C 54.09375 53.410156 40.460938 44.410156 37.605469 30.449219 C 34.75 16.488281 43.75 2.855469 57.710938 0 C 63.101563 2.007813 66.699219 7.121094 66.773438 12.871094 L 79.878906 25.976563 L 102.9375 25.976563 C 102.9375 19.609375 97.777344 14.445313 91.410156 14.445313 C 85.039063 14.445313 79.878906 19.609375 79.878906 25.976563 Z M 68.054688 50.554688 "/>
</g>
</svg>
