<?xml version="1.0" encoding="UTF-8"?>
<svg xmlns="http://www.w3.org/2000/svg" xmlns:xlink="http://www.w3.org/1999/xlink" width="70pt" height="70pt" viewBox="0 0 70 70" version="1.1">
<defs>
<linearGradient id="linear0" gradientUnits="userSpaceOnUse" x1="9.23" y1="0" x2="9.23" y2="18" gradientTransform="matrix(3.888889,0,0,3.888889,0,0)">
<stop offset="0" style="stop-color:rgb(65.098039%,47.843137%,95.686275%);stop-opacity:1;"/>
<stop offset="0.999" style="stop-color:rgb(46.666667%,22.745098%,86.27451%);stop-opacity:1;"/>
</linearGradient>
</defs>
<g id="surface1">
<path style=" stroke:none;fill-rule:nonzero;fill:url(#linear0);" d="M 58.621094 67.628906 C 39.945313 66.972656 25.339844 51.300781 25.992188 32.628906 C 26.648438 13.953125 42.320313 -0.65625 60.992188 0 L 15.796875 0 C 16.808594 0.542969 17.324219 1.707031 17.042969 2.820313 C 16.761719 3.9375 15.761719 4.71875 14.609375 4.71875 C 13.460938 4.71875 12.457031 3.9375 12.179688 2.820313 C 11.898438 1.707031 12.410156 0.542969 13.425781 0 L 13.425781 2.371094 C 13.96875 3.386719 15.132813 3.898438 16.246094 3.617188 C 17.359375 3.339844 18.144531 2.335938 18.144531 1.1875 C 18.144531 0.0351563 17.359375 -0.964844 16.246094 -1.246094 C 15.132813 -1.527344 13.96875 -1.011719 13.425781 0 L 56 0 C 56 11.757813 46.46875 21.289063 34.710938 21.289063 C 22.957031 21.289063 13.425781 11.757813 13.425781 0 Z M 58.621094 67.628906 "/>
<path style=" stroke:none;fill-rule:nonzero;fill:rgb(33.333333%,18.431373%,60%);fill-opacity:1;" d="M 52.347656 29.945313 C 44.078125 31.449219 36.15625 25.964844 34.652344 17.695313 C 33.152344 9.425781 38.636719 1.503906 46.902344 0 L 24.792969 0 C 26.214844 -0.0625 27.601563 0.457031 28.628906 1.441406 C 29.65625 2.425781 30.238281 3.789063 30.234375 5.210938 L 52.855469 5.210938 C 52.855469 11.457031 47.789063 16.519531 41.546875 16.519531 C 35.300781 16.519531 30.234375 11.457031 30.234375 5.210938 Z M 52.347656 13.753906 C 50.070313 14.535156 47.554688 13.65625 46.261719 11.625 C 44.96875 9.597656 45.234375 6.945313 46.902344 5.210938 L 24.792969 5.210938 C 26.214844 5.148438 27.601563 5.667969 28.628906 6.652344 C 29.65625 7.636719 30.238281 9 30.234375 10.421875 L 52.855469 10.421875 C 52.855469 16.667969 47.789063 21.730469 41.546875 21.730469 C 35.300781 21.730469 30.234375 16.667969 30.234375 10.421875 Z M 52.347656 13.753906 "/>
<path style=" stroke:none;fill-rule:nonzero;fill:rgb(31.372549%,90.196078%,100%);fill-opacity:1;" d="M 49.640625 13.753906 C 49.640625 15.773438 48.007813 17.40625 45.988281 17.40625 C 43.972656 17.40625 42.339844 15.773438 42.339844 13.753906 C 42.339844 11.738281 43.972656 10.101563 45.988281 10.101563 C 48.007813 10.101563 49.640625 11.738281 49.640625 13.753906 Z M 49.640625 13.753906 "/>
<path style=" stroke:none;fill-rule:nonzero;fill:rgb(31.372549%,90.196078%,100%);fill-opacity:1;" d="M 49.640625 29.925781 C 49.640625 31.941406 48.007813 33.578125 45.988281 33.578125 C 43.972656 33.578125 42.339844 31.941406 42.339844 29.925781 C 42.339844 27.910156 43.972656 26.273438 45.988281 26.273438 C 48.007813 26.273438 49.640625 27.910156 49.640625 29.925781 Z M 49.640625 29.925781 "/>
</g>
</svg>
