<?xml version="1.0" encoding="UTF-8"?>
<svg xmlns="http://www.w3.org/2000/svg" xmlns:xlink="http://www.w3.org/1999/xlink" width="70pt" height="70pt" viewBox="0 0 70 70" version="1.1">
<defs>
<linearGradient id="linear0" gradientUnits="userSpaceOnUse" x1="8.98" y1="15.81" x2="8.98" y2="2.19" gradientTransform="matrix(3.888889,0,0,3.888889,0,0)">
<stop offset="0" style="stop-color:rgb(9.803922%,53.333333%,85.098039%);stop-opacity:1;"/>
<stop offset="0.9" style="stop-color:rgb(32.941176%,68.235294%,94.117647%);stop-opacity:1;"/>
</linearGradient>
</defs>
<g id="surface1">
<path style=" stroke:none;fill-rule:nonzero;fill:rgb(31.372549%,90.196078%,100%);fill-opacity:1;" d="M 43.089844 67.550781 L 5.328125 50.554688 C -8.632813 52.648438 -21.648438 43.03125 -23.742188 29.070313 C -25.835938 15.109375 -16.214844 2.09375 -2.253906 0 L 19.445313 5.328125 C 17.972656 11.320313 11.921875 14.984375 5.929688 13.515625 C -0.0625 12.042969 -3.726563 5.992188 -2.253906 0 L 64.671875 19.445313 C 59.304688 37.925781 39.96875 48.554688 21.484375 43.1875 C 3.003906 37.816406 -7.625 18.480469 -2.253906 0 L 50.554688 64.671875 C 32.695313 63.878906 18.863281 48.757813 19.660156 30.898438 C 20.453125 13.039063 35.574219 -0.792969 53.433594 0 Z M 43.089844 67.550781 "/>
<path style=" stroke:none;fill-rule:nonzero;fill:url(#linear0);" d="M 55.609375 61.484375 L 14.195313 61.484375 C -2.785156 63.074219 -17.835938 50.597656 -19.425781 33.621094 C -21.015625 16.640625 -8.539063 1.589844 8.4375 0 L 8.4375 14.273438 C 4.496094 14.273438 1.304688 11.078125 1.304688 7.136719 C 1.304688 3.195313 4.496094 0 8.4375 0 L 55.609375 0 C 55.609375 13.027344 45.050781 23.585938 32.023438 23.585938 C 19 23.585938 8.4375 13.027344 8.4375 0 L 8.4375 41.457031 C -3.007813 39.867188 -11 29.296875 -9.410156 17.851563 C -7.820313 6.402344 2.746094 -1.589844 14.195313 0 Z M 55.609375 61.484375 "/>
<path style=" stroke:none;fill-rule:nonzero;fill:rgb(94.901961%,94.901961%,94.901961%);fill-opacity:1;" d="M 33.949219 38.5 L 27.6875 38.5 C 17.058594 46.144531 2.242188 43.726563 -5.40625 33.09375 C -13.050781 22.464844 -10.632813 7.644531 0 0 L 7.777344 -16.761719 C 3.148438 -18.910156 -2.34375 -16.898438 -4.492188 -12.269531 C -6.640625 -7.640625 -4.628906 -2.148438 0 0 L 7.351563 0 C 7.351563 2.03125 5.703125 3.675781 3.675781 3.675781 C 1.644531 3.675781 0 2.03125 0 0 L 34.066406 34.726563 L 42.777344 34.726563 C 42.929688 34.578125 43.171875 34.578125 43.320313 34.726563 C 43.472656 34.878906 43.472656 35.121094 43.320313 35.273438 L 28.855469 51.917969 C 28.855469 51.917969 27.765625 52.890625 28.234375 51.527344 Z M 33.949219 38.5 "/>
</g>
</svg>
