<?xml version="1.0" encoding="UTF-8"?>
<svg xmlns="http://www.w3.org/2000/svg" xmlns:xlink="http://www.w3.org/1999/xlink" width="70pt" height="70pt" viewBox="0 0 70 70" version="1.1">
<defs>
<linearGradient id="linear0" gradientUnits="userSpaceOnUse" x1="9" y1="3.72" x2="9" y2="15.02" gradientTransform="matrix(3.888889,0,0,3.888889,0,0)">
<stop offset="0.18" style="stop-color:rgb(36.862745%,62.745098%,93.72549%);stop-opacity:1;"/>
<stop offset="1" style="stop-color:rgb(0%,47.058824%,83.137255%);stop-opacity:1;"/>
</linearGradient>
</defs>
<g id="surface1">
<path style=" stroke:none;fill-rule:nonzero;fill:rgb(58.039216%,58.039216%,58.039216%);fill-opacity:1;" d="M 33.328125 33.792969 L 3.890625 33.792969 L 3.890625 8.476563 C 1.546875 9.550781 -1.21875 8.523438 -2.292969 6.183594 C -3.367188 3.84375 -2.339844 1.074219 0 0 L 25.199219 0 Z M 7.542969 30.140625 L 29.671875 30.140625 L 29.671875 7.777344 L 8.128906 7.777344 C 5.980469 7.617188 4.371094 5.746094 4.53125 3.597656 C 4.691406 1.449219 6.5625 -0.160156 8.710938 0 Z M 66.109375 33.792969 L 36.671875 33.792969 L 36.671875 4.199219 L 61.871094 4.199219 C 60.710938 18.878906 47.871094 29.839844 33.191406 28.679688 C 18.511719 27.519531 7.550781 14.679688 8.710938 0 Z M 40.328125 30.140625 L 62.457031 30.140625 L 62.457031 8.476563 C 60.113281 8.671875 58.058594 6.929688 57.867188 4.589844 C 57.671875 2.246094 59.414063 0.191406 61.753906 0 L 40.210938 0 Z M 33.328125 66.421875 L 8.128906 66.421875 C -10.214844 51.613281 -13.078125 24.738281 1.730469 6.398438 C 16.539063 -11.945313 43.414063 -14.808594 61.753906 0 L 61.753906 36.867188 L 91.195313 36.867188 Z M 7.542969 40.523438 L 7.542969 62.222656 C -9.636719 47.253906 -11.429688 21.1875 3.539063 4.003906 C 18.507813 -13.175781 44.574219 -14.96875 61.753906 0 L 83.300781 0 L 83.300781 -22.285156 Z M 61.871094 66.421875 L 36.671875 66.421875 L 36.671875 36.867188 L 66.109375 36.867188 L 66.109375 62.222656 C 48.929688 61.0625 35.941406 46.191406 37.101563 29.011719 C 38.261719 11.828125 53.128906 -1.160156 70.3125 0 Z M 40.328125 62.765625 L 61.871094 62.765625 C 44.539063 60.4375 32.378906 44.496094 34.707031 27.164063 C 37.039063 9.832031 52.980469 -2.332031 70.3125 0 L 70.3125 -21.660156 L 48.183594 -21.660156 Z M 40.328125 62.765625 "/>
<path style=" stroke:none;fill-rule:nonzero;fill:url(#linear0);" d="M 57.050781 41.300781 C 45.644531 43.984375 34.222656 36.914063 31.539063 25.511719 C 28.855469 14.105469 35.921875 2.683594 47.328125 0 C 50.894531 9.503906 46.078125 20.097656 36.574219 23.664063 C 27.070313 27.230469 16.476563 22.414063 12.910156 12.910156 C 19.449219 13.082031 24.644531 18.464844 24.578125 25.003906 L 46.394531 25.003906 C 46.394531 31.03125 41.511719 35.914063 35.484375 35.914063 C 29.460938 35.914063 24.578125 31.03125 24.578125 25.003906 Z M 57.050781 41.300781 "/>
</g>
</svg>
