<?xml version="1.0" encoding="UTF-8"?>
<svg xmlns="http://www.w3.org/2000/svg" xmlns:xlink="http://www.w3.org/1999/xlink" width="70pt" height="70pt" viewBox="0 0 70 70" version="1.1">
<g id="surface1">
<path style=" stroke:none;fill-rule:nonzero;fill:rgb(46.666667%,22.745098%,86.27451%);fill-opacity:1;" d="M 51.628906 14.03125 L 51.628906 41.222656 L 28.257813 54.886719 L 28.257813 27.648438 L 51.628906 14.027344 Z M 51.628906 14.03125 "/>
<path style=" stroke:none;fill-rule:nonzero;fill:rgb(71.764706%,58.823529%,97.647059%);fill-opacity:1;" d="M 51.628906 14.03125 L 28.265625 27.6875 L 4.929688 14.023438 L 28.265625 0.359375 L 51.628906 14.027344 Z M 51.628906 14.03125 "/>
<path style=" stroke:none;fill-rule:nonzero;fill:rgb(65.098039%,47.843137%,95.686275%);fill-opacity:1;" d="M 28.261719 27.6875 L 28.261719 54.886719 L 4.890625 41.222656 L 4.890625 14.027344 L 28.265625 27.691406 Z M 28.261719 27.6875 "/>
<path style=" stroke:none;fill-rule:nonzero;fill:rgb(19.607843%,74.509804%,86.666667%);fill-opacity:1;" d="M 45.34375 50.945313 C 45.34375 51.074219 45.320313 51.199219 45.296875 51.332031 C 45.273438 51.464844 45.246094 51.542969 45.21875 51.644531 L 45.113281 52.015625 C 45.074219 52.136719 45.039063 52.207031 44.992188 52.308594 L 44.808594 52.699219 C 30.253906 52.554688 18.574219 40.640625 18.71875 26.089844 C 18.863281 11.535156 30.777344 -0.144531 45.328125 0 L 45.265625 0.078125 C 42.046875 0.4375 39.132813 -1.84375 38.703125 -5.054688 C 38.277344 -8.261719 40.492188 -11.226563 43.695313 -11.722656 C 46.894531 -12.21875 49.90625 -10.066406 50.46875 -6.875 C 51.035156 -3.6875 48.945313 -0.632813 45.769531 0 L 45.691406 0.0976563 L 45.171875 0.601563 C 44.03125 2.417969 41.660156 3.011719 39.796875 1.949219 C 37.933594 0.886719 37.238281 -1.460938 38.222656 -3.367188 C 39.207031 -5.273438 41.519531 -6.066406 43.46875 -5.164063 C 45.414063 -4.261719 46.304688 -1.984375 45.484375 0 L 45.132813 0.273438 L 44.695313 0.566406 L 44.226563 0.867188 C 40.050781 6.527344 32.117188 7.804688 26.375 3.746094 C 20.632813 -0.316406 19.191406 -8.222656 23.136719 -14.046875 C 27.078125 -19.871094 34.957031 -21.46875 40.859375 -17.644531 C 46.761719 -13.820313 48.519531 -5.976563 44.816406 0 L 44.425781 0.148438 L 43.453125 0.511719 L 43.066406 0.628906 L 42.433594 0.8125 L 41.949219 0.941406 L 41.269531 1.089844 L 40.800781 1.183594 L 39.402344 1.375 C 39.257813 1.375 39.109375 1.398438 38.960938 1.414063 L 38.136719 1.472656 L 32.277344 1.472656 L 31.65625 1.441406 L 30.503906 1.3125 L 29.953125 1.234375 L 29.304688 1.117188 L 28.796875 1.011719 L 28.019531 0.824219 L 27.597656 0.707031 L 26.277344 0.265625 L 25.65625 0 L 25.34375 -0.136719 L 24.441406 -0.601563 C 27.203125 0.273438 28.976563 2.957031 28.703125 5.839844 C 28.429688 8.722656 26.179688 11.027344 23.304688 11.367188 C 20.429688 11.710938 17.703125 10.003906 16.761719 7.265625 C 15.816406 4.527344 16.910156 1.503906 19.386719 0 L 19.386719 5.46875 C 18.117188 8.027344 15.253906 9.375 12.46875 8.722656 C 9.6875 8.070313 7.722656 5.589844 7.722656 2.734375 C 7.722656 -0.121094 9.6875 -2.605469 12.46875 -3.257813 C 15.253906 -3.90625 18.117188 -2.558594 19.386719 0 L 20.289063 0.464844 C 20.390625 0.515625 20.5 0.558594 20.605469 0.605469 L 21.152344 0.847656 L 21.222656 0.871094 L 22.644531 1.347656 C 22.746094 1.378906 22.855469 1.398438 22.957031 1.425781 L 23.734375 1.613281 L 23.9375 1.664063 L 24.246094 1.71875 L 24.898438 1.835938 L 25.15625 1.875 C 25.253906 1.875 25.351563 1.898438 25.449219 1.914063 L 26.058594 1.980469 C 26.160156 1.980469 26.253906 2.007813 26.351563 2.019531 L 26.632813 2.019531 L 27.253906 2.050781 L 29.023438 2.050781 C 29.300781 2.035156 29.578125 2.015625 29.851563 1.992188 L 30.285156 1.992188 L 31.6875 1.796875 L 31.753906 1.796875 L 32.140625 1.71875 L 32.824219 1.570313 L 33.304688 1.441406 L 33.941406 1.261719 L 34.074219 1.222656 C 34.152344 1.199219 34.21875 1.167969 34.292969 1.144531 L 35.265625 0.777344 L 35.652344 0.628906 L 36.820313 0.046875 L 36.976563 -0.0429688 C 37.09375 -0.109375 37.183594 -0.183594 37.285156 -0.253906 L 37.730469 -0.546875 L 38.070313 -0.820313 L 38.539063 -1.195313 C 38.695313 -1.335938 38.84375 -1.488281 38.980469 -1.636719 L 39.058594 -1.734375 L 39.292969 -2.007813 C 39.847656 9.296875 31.132813 18.90625 19.832031 19.460938 C 8.527344 20.015625 -1.082031 11.300781 -1.636719 0 L -1.574219 -0.078125 L -1.304688 -0.503906 L -1.265625 -0.597656 C 0.0820313 -2.402344 2.609375 -2.820313 4.464844 -1.550781 C 6.320313 -0.28125 6.847656 2.222656 5.660156 4.132813 C 4.46875 6.039063 1.988281 6.671875 0.03125 5.5625 C -1.925781 4.457031 -2.664063 2 -1.636719 0 L -1.53125 -0.226563 L -1.507813 -0.304688 C -0.59375 -2.234375 1.695313 -3.082031 3.648438 -2.207031 C 5.597656 -1.332031 6.492188 0.941406 5.660156 2.90625 C 4.824219 4.875 2.570313 5.816406 0.585938 5.027344 C -1.398438 4.234375 -2.386719 2 -1.636719 0 L -1.566406 -0.25 L -1.566406 -0.316406 C -0.980469 -2.550781 1.285156 -3.902344 3.53125 -3.359375 C 5.777344 -2.816406 7.171875 -0.574219 6.671875 1.679688 C 6.167969 3.9375 3.957031 5.375 1.691406 4.917969 C -0.570313 4.457031 -2.050781 2.273438 -1.636719 0 C -1.625 -0.132813 -1.609375 -0.171875 -1.609375 -0.253906 L -1.609375 50.554688 L -1.660156 50.945313 Z M 45.34375 50.945313 "/>
<path style=" stroke:none;fill-rule:nonzero;fill:rgb(31.372549%,90.196078%,100%);fill-opacity:1;" d="M 41.746094 45.5 C 46.5625 48.277344 46.585938 52.785156 41.804688 55.5625 C 26.464844 55.5625 14.023438 43.121094 14.023438 27.78125 C 14.023438 12.4375 26.464844 0 41.804688 0 C 36.992188 -2.78125 36.972656 -7.289063 41.753906 -10.0625 C 44.535156 4.246094 35.1875 18.097656 20.878906 20.878906 C 6.566406 23.65625 -7.285156 14.308594 -10.0625 0 Z M 41.746094 45.5 "/>
<path style=" stroke:none;fill-rule:nonzero;fill:rgb(19.607843%,74.509804%,86.666667%);fill-opacity:1;" d="M 65.078125 57.453125 C 65.078125 57.582031 65.058594 57.710938 65.039063 57.84375 C 65.019531 57.976563 64.984375 58.054688 64.960938 58.15625 L 64.855469 58.523438 C 64.816406 58.640625 64.777344 58.71875 64.730469 58.824219 L 64.550781 59.210938 C 64.484375 59.34375 64.355469 59.601563 64.242188 59.734375 L 64.183594 59.8125 L 63.792969 60.316406 L 63.714844 60.410156 L 63.199219 60.914063 C 46.378906 60.828125 32.808594 47.125 32.894531 30.300781 C 32.980469 13.480469 46.6875 -0.0859375 63.507813 0 L 63.167969 0.273438 C 63.050781 0.363281 62.875 0.464844 62.722656 0.5625 L 62.257813 0.863281 C 58.363281 6.082031 51.015625 7.230469 45.714844 3.453125 C 40.414063 -0.324219 39.105469 -7.644531 42.765625 -13.027344 C 46.425781 -18.40625 53.714844 -19.878906 59.175781 -16.335938 C 64.636719 -12.792969 66.265625 -5.535156 62.84375 0 L 62.457031 0.15625 L 61.492188 0.519531 L 61.140625 0.636719 L 60.507813 0.816406 L 60.023438 0.949219 L 59.34375 1.09375 L 58.878906 1.1875 L 57.476563 1.378906 L 57.039063 1.417969 L 56.210938 1.472656 L 54.441406 1.472656 C 54.230469 1.472656 54.023438 1.472656 53.816406 1.433594 C 53.613281 1.394531 53.429688 1.40625 53.25 1.386719 L 52.636719 1.316406 L 52.089844 1.242188 L 51.4375 1.125 L 50.933594 1.023438 L 50.15625 0.835938 L 49.734375 0.71875 L 48.414063 0.273438 L 47.789063 0.0078125 L 47.480469 -0.128906 L 46.578125 -0.59375 C 49.332031 0.285156 51.101563 2.972656 50.824219 5.851563 C 50.546875 8.730469 48.296875 11.027344 45.421875 11.367188 C 42.546875 11.707031 39.828125 9.992188 38.886719 7.257813 C 37.949219 4.519531 39.046875 1.496094 41.523438 0 L 41.523438 5.464844 C 40.253906 8.023438 37.386719 9.375 34.605469 8.722656 C 31.824219 8.070313 29.855469 5.589844 29.855469 2.730469 C 29.855469 -0.125 31.824219 -2.605469 34.605469 -3.257813 C 37.386719 -3.910156 40.253906 -2.558594 41.523438 0 L 42.425781 0.464844 L 42.734375 0.601563 L 43.292969 0.84375 L 43.355469 0.867188 C 43.785156 1.03125 44.226563 1.179688 44.679688 1.3125 L 44.785156 1.347656 L 45.09375 1.425781 L 45.875 1.621094 C 45.941406 1.621094 46.007813 1.660156 46.074219 1.667969 L 46.386719 1.722656 L 47.039063 1.839844 C 47.125 1.839844 47.210938 1.878906 47.296875 1.886719 L 47.589844 1.917969 L 48.203125 1.988281 L 48.496094 2.019531 L 48.765625 2.019531 C 48.972656 2.019531 49.179688 2.042969 49.390625 2.050781 L 51.160156 2.050781 C 51.429688 2.050781 51.710938 2.011719 51.988281 1.996094 C 52.09375 1.996094 52.207031 1.996094 52.320313 1.972656 L 52.425781 1.972656 L 53.824219 1.777344 L 53.890625 1.777344 L 54.28125 1.691406 L 54.957031 1.546875 L 55.441406 1.414063 L 56.074219 1.238281 L 56.210938 1.199219 L 56.429688 1.121094 L 57.390625 0.75 L 57.78125 0.601563 C 57.613281 16.015625 44.988281 28.371094 29.574219 28.207031 C 14.164063 28.039063 1.804688 15.410156 1.972656 0 L 2.128906 -0.0898438 C 2.242188 -0.15625 2.335938 -0.230469 2.4375 -0.300781 L 2.882813 -0.59375 L 3.222656 -0.867188 L 3.613281 -1.179688 L 3.691406 -1.246094 C 6.566406 -1.082031 8.914063 1.113281 9.269531 3.972656 C 9.625 6.832031 7.878906 9.535156 5.128906 10.390625 C 2.378906 11.25 -0.589844 10.015625 -1.921875 7.464844 C -3.257813 4.910156 -2.574219 1.769531 -0.300781 0 L -0.222656 -0.0976563 L 0.0117188 -0.371094 L 0.179688 -0.59375 L 0.238281 -0.671875 L 0.507813 -1.0625 L 0.554688 -1.15625 C 0.621094 -1.28125 0.671875 -1.40625 0.734375 -1.542969 L 0.839844 -1.769531 L 0.839844 -1.847656 C 0.878906 -1.972656 0.917969 -2.09375 0.945313 -2.214844 L 1.023438 -2.460938 L 1.023438 -2.53125 C 1.046875 -2.660156 1.054688 -2.789063 1.0625 -2.921875 C 1.070313 -3.054688 1.089844 -3.085938 1.089844 -3.171875 L 1.089844 -8.726563 C 1.117188 -8.625 1.097656 -8.503906 1.085938 -8.382813 Z M 65.078125 57.453125 "/>
<path style=" stroke:none;fill-rule:nonzero;fill:rgb(31.372549%,90.196078%,100%);fill-opacity:1;" d="M 61.445313 52.035156 C 66.730469 46.75 75.296875 46.75 80.582031 52.035156 C 85.867188 57.316406 85.867188 65.886719 80.582031 71.171875 C 75.769531 68.390625 75.746094 63.882813 80.53125 61.105469 C 88.824219 62.191406 95.449219 68.535156 96.898438 76.773438 C 98.34375 85.011719 94.277344 93.234375 86.851563 97.082031 C 79.425781 100.929688 70.359375 99.507813 64.464844 93.578125 C 58.570313 87.644531 57.210938 78.570313 61.105469 71.171875 Z M 61.445313 52.035156 "/>
<path style=" stroke:none;fill-rule:nonzero;fill:rgb(19.607843%,74.509804%,86.666667%);fill-opacity:1;" d="M 65.109375 45.1875 C 65.109375 45.304688 65.089844 45.429688 65.078125 45.546875 L 65.039063 45.9375 C 65.015625 46.0625 64.984375 46.144531 64.960938 46.246094 L 64.855469 46.613281 C 64.816406 46.730469 64.777344 46.808594 64.730469 46.910156 L 64.550781 47.300781 C 64.484375 47.433594 64.355469 47.6875 64.242188 47.820313 L 64.183594 47.898438 L 63.792969 48.40625 L 63.714844 48.5 C 64.761719 44.777344 68.316406 42.335938 72.167969 42.691406 C 76.015625 43.046875 79.0625 46.101563 79.40625 49.953125 C 79.75 53.800781 77.296875 57.351563 73.574219 58.386719 C 69.851563 59.421875 65.917969 57.652344 64.226563 54.175781 L 63.875 54.449219 L 63.4375 54.738281 L 62.96875 55.042969 C 58.96875 60.480469 51.351563 61.722656 45.832031 57.839844 C 40.308594 53.953125 38.90625 46.367188 42.675781 40.765625 C 46.445313 35.160156 54 33.601563 59.679688 37.25 C 65.359375 40.898438 67.082031 48.421875 63.550781 54.175781 L 63.164063 54.332031 L 62.191406 54.695313 L 61.800781 54.8125 L 61.167969 54.996094 L 60.6875 55.125 L 60.003906 55.269531 L 59.539063 55.363281 L 58.140625 55.558594 L 57.699219 55.59375 L 56.871094 55.648438 L 55.105469 55.648438 C 54.894531 55.648438 54.6875 55.648438 54.484375 55.609375 C 54.277344 55.570313 54.09375 55.582031 53.914063 55.5625 L 53.300781 55.496094 L 52.757813 55.417969 L 52.101563 55.300781 L 51.597656 55.199219 L 50.820313 55.003906 L 50.398438 54.886719 C 49.949219 54.757813 49.507813 54.609375 49.078125 54.445313 L 48.457031 54.179688 L 48.136719 54.042969 L 47.234375 53.578125 C 49.996094 54.457031 51.769531 57.144531 51.496094 60.027344 C 51.21875 62.914063 48.96875 65.214844 46.089844 65.554688 C 43.210938 65.898438 40.484375 64.183594 39.542969 61.445313 C 38.601563 58.703125 39.699219 55.675781 42.179688 54.175781 L 42.179688 59.644531 C 40.910156 62.207031 38.042969 63.554688 35.257813 62.902344 C 32.476563 62.25 30.507813 59.769531 30.507813 56.910156 C 30.507813 54.050781 32.476563 51.566406 35.257813 50.917969 C 38.042969 50.265625 40.910156 51.613281 42.179688 54.175781 L 43.082031 54.644531 L 43.390625 54.777344 L 43.949219 55.019531 L 44.015625 55.042969 L 45.335938 55.488281 L 45.441406 55.527344 L 45.753906 55.601563 L 46.53125 55.789063 C 46.601563 55.789063 46.667969 55.828125 46.738281 55.839844 L 47.039063 55.894531 L 47.691406 56.011719 C 47.777344 56.011719 47.863281 56.050781 47.953125 56.058594 L 48.242188 56.089844 L 48.855469 56.160156 L 49.148438 56.191406 L 49.421875 56.191406 C 49.625 56.191406 49.832031 56.214844 50.042969 56.222656 L 51.808594 56.222656 C 52.085938 56.222656 52.363281 56.191406 52.640625 56.167969 C 52.75 56.167969 52.863281 56.167969 52.972656 56.144531 L 53.074219 56.144531 L 54.476563 55.949219 L 54.546875 55.949219 L 54.933594 55.863281 L 55.613281 55.71875 L 56.09375 55.585938 L 56.730469 55.410156 L 56.867188 55.371094 C 56.945313 55.347656 57.007813 55.3125 57.082031 55.292969 L 58.054688 54.925781 L 58.441406 54.769531 C 64.679688 56.808594 68.261719 63.339844 66.628906 69.695313 C 65 76.050781 58.714844 80.046875 52.265625 78.828125 C 45.820313 77.609375 41.425781 71.597656 42.226563 65.085938 C 43.023438 58.570313 48.742188 53.800781 55.292969 54.175781 L 55.441406 54.089844 L 55.757813 53.875 L 56.199219 53.585938 L 56.546875 53.3125 L 57.015625 52.9375 C 60.1875 51.335938 64.054688 52.441406 65.898438 55.476563 C 67.742188 58.515625 66.941406 62.457031 64.058594 64.535156 C 61.175781 66.609375 57.183594 66.117188 54.886719 63.40625 C 52.59375 60.695313 52.769531 56.675781 55.292969 54.175781 L 55.371094 54.082031 L 55.601563 53.804688 L 55.769531 53.578125 L 55.828125 53.5 C 57.527344 51.730469 60.3125 51.609375 62.15625 53.21875 C 64.003906 54.832031 64.257813 57.609375 62.734375 59.527344 C 61.210938 61.449219 58.449219 61.832031 56.460938 60.402344 C 54.472656 58.972656 53.957031 56.230469 55.292969 54.175781 L 55.339844 54.082031 C 55.40625 53.957031 55.457031 53.828125 55.519531 53.695313 L 55.621094 53.472656 L 55.621094 53.394531 C 57.617188 53.148438 59.484375 54.421875 59.988281 56.363281 C 60.492188 58.308594 59.476563 60.328125 57.617188 61.082031 C 55.753906 61.835938 53.621094 61.09375 52.628906 59.347656 C 51.636719 57.601563 52.089844 55.386719 53.695313 54.175781 L 53.773438 53.929688 L 53.773438 53.863281 C 53.796875 53.738281 53.804688 53.605469 53.8125 53.476563 C 53.816406 53.347656 53.835938 53.308594 53.835938 53.226563 L 53.835938 53.117188 Z M 65.109375 45.1875 "/>
<path style=" stroke:none;fill-rule:nonzero;fill:rgb(31.372549%,90.196078%,100%);fill-opacity:1;" d="M 52.84375 38.035156 C 46.058594 38.015625 40.550781 41.183594 40.539063 45.117188 C 40.527344 49.046875 46.019531 52.246094 52.800781 52.265625 C 59.585938 52.285156 65.097656 49.113281 65.109375 45.183594 C 65.117188 41.253906 59.628906 38.050781 52.84375 38.035156 Z M 52.84375 38.035156 "/>
</g>
</svg>
