<?xml version="1.0" encoding="UTF-8"?>
<svg xmlns="http://www.w3.org/2000/svg" xmlns:xlink="http://www.w3.org/1999/xlink" width="70pt" height="70pt" viewBox="0 0 70 70" version="1.1">
<g id="surface1">
<path style=" stroke:none;fill-rule:nonzero;fill:rgb(0%,0%,0%);fill-opacity:1;" d="M 65.96875 7.519531 C 66.558594 8.546875 67.09375 9.523438 67.574219 10.460938 C 68.050781 11.394531 68.484375 12.339844 68.871094 13.296875 C 69.257813 14.253906 69.53125 15.242188 69.691406 16.269531 C 69.851563 17.296875 69.953125 18.433594 70 19.6875 C 70 21.488281 69.773438 23.21875 69.316406 24.882813 C 68.859375 26.546875 68.199219 28.117188 67.335938 29.601563 C 66.46875 31.082031 65.429688 32.414063 64.222656 33.597656 C 63.015625 34.785156 61.683594 35.808594 60.226563 36.675781 C 58.765625 37.539063 57.207031 38.203125 55.542969 38.65625 C 53.878906 39.113281 52.136719 39.351563 50.3125 39.375 C 49.789063 39.375 49.265625 39.351563 48.742188 39.304688 C 48.214844 39.261719 47.679688 39.191406 47.132813 39.101563 L 19.585938 66.648438 C 18.492188 67.742188 17.25 68.574219 15.859375 69.144531 C 14.46875 69.714844 13 70 11.449219 70 C 9.878906 70 8.398438 69.703125 7.007813 69.109375 C 5.617188 68.519531 4.410156 67.699219 3.382813 66.648438 C 2.359375 65.601563 1.539063 64.382813 0.921875 62.992188 C 0.308594 61.601563 0 60.121094 0 58.550781 C 0 57.023438 0.285156 55.566406 0.855469 54.175781 C 1.425781 52.785156 2.257813 51.53125 3.351563 50.414063 L 30.898438 22.867188 C 30.808594 22.34375 30.738281 21.816406 30.695313 21.292969 C 30.648438 20.769531 30.625 20.234375 30.625 19.6875 C 30.625 17.886719 30.851563 16.15625 31.308594 14.492188 C 31.765625 12.828125 32.425781 11.257813 33.289063 9.773438 C 34.15625 8.292969 35.195313 6.960938 36.402344 5.777344 C 37.609375 4.589844 38.941406 3.566406 40.398438 2.699219 C 41.859375 1.835938 43.417969 1.171875 45.082031 0.71875 C 46.746094 0.261719 48.488281 0.0234375 50.3125 0 C 51.542969 0 52.671875 0.0898438 53.695313 0.273438 C 54.722656 0.457031 55.722656 0.742188 56.703125 1.128906 C 57.683594 1.515625 58.628906 1.9375 59.539063 2.390625 C 60.453125 2.847656 61.433594 3.394531 62.480469 4.03125 L 49.015625 17.5 L 52.5 20.984375 Z M 50.3125 35 C 52.429688 35 54.414063 34.601563 56.257813 33.804688 C 58.105469 33.007813 59.722656 31.914063 61.113281 30.523438 C 62.503906 29.132813 63.597656 27.515625 64.394531 25.667969 C 65.191406 23.824219 65.601563 21.828125 65.625 19.6875 C 65.625 18.023438 65.351563 16.417969 64.804688 14.867188 L 52.5 27.140625 L 42.859375 17.5 L 55.132813 5.195313 C 53.582031 4.648438 51.976563 4.375 50.3125 4.375 C 48.195313 4.375 46.210938 4.773438 44.367188 5.570313 C 42.519531 6.367188 40.902344 7.460938 39.511719 8.851563 C 38.121094 10.242188 37.027344 11.859375 36.230469 13.707031 C 35.433594 15.550781 35.023438 17.546875 35 19.6875 C 35 20.484375 35.070313 21.257813 35.203125 22.011719 C 35.34375 22.765625 35.5 23.515625 35.683594 24.265625 L 6.460938 53.523438 C 5.800781 54.1875 5.285156 54.949219 4.921875 55.816406 C 4.558594 56.679688 4.375 57.59375 4.375 58.550781 C 4.375 59.507813 4.558594 60.417969 4.921875 61.285156 C 5.285156 62.148438 5.800781 62.902344 6.460938 63.539063 C 7.121094 64.179688 7.871094 64.679688 8.714844 65.042969 C 9.558594 65.410156 10.46875 65.601563 11.449219 65.625 C 12.40625 65.625 13.320313 65.441406 14.183594 65.078125 C 15.050781 64.714844 15.8125 64.199219 16.476563 63.539063 L 45.734375 34.316406 C 46.484375 34.5 47.234375 34.65625 47.988281 34.796875 C 48.742188 34.929688 49.515625 35 50.3125 35 Z M 50.3125 35 "/>
</g>
</svg>
