<?xml version="1.0" encoding="UTF-8"?>
<svg xmlns="http://www.w3.org/2000/svg" xmlns:xlink="http://www.w3.org/1999/xlink" width="70pt" height="70pt" viewBox="0 0 70 70" version="1.1">
<defs>
<linearGradient id="linear0" gradientUnits="userSpaceOnUse" x1="10.56" y1="7.77" x2="10.56" y2="19.24" gradientTransform="matrix(3.888889,0,0,3.888889,0,0)">
<stop offset="0.22" style="stop-color:rgb(19.607843%,83.137255%,96.078431%);stop-opacity:1;"/>
<stop offset="1" style="stop-color:rgb(9.803922%,54.117647%,70.196078%);stop-opacity:1;"/>
</linearGradient>
<filter id="alpha" filterUnits="objectBoundingBox" x="0%" y="0%" width="100%" height="100%">
  <feColorMatrix type="matrix" in="SourceGraphic" values="0 0 0 0 1 0 0 0 0 1 0 0 0 0 1 0 0 0 1 0"/>
</filter>
<mask id="mask0">
  <g filter="url(#alpha)">
<rect x="0" y="0" width="70" height="70" style="fill:rgb(0%,0%,0%);fill-opacity:0.8;stroke:none;"/>
  </g>
</mask>
<clipPath id="clip1">
  <rect x="0" y="0" width="70" height="70"/>
</clipPath>
<g id="surface5" clip-path="url(#clip1)">
<path style=" stroke:none;fill-rule:nonzero;fill:rgb(100%,100%,100%);fill-opacity:1;" d="M 41.105469 37.761719 C 30.679688 38.417969 21.695313 30.492188 21.039063 20.066406 C 20.382813 9.640625 28.304688 0.65625 38.734375 0 L 46.820313 21.078125 L 54.832031 0.117188 C 46.828125 -0.078125 40.410156 -6.5625 40.300781 -14.570313 C 40.191406 -22.574219 46.429688 -29.234375 54.425781 -29.648438 C 62.421875 -30.0625 69.3125 -24.082031 70.027344 -16.105469 C 70.746094 -8.132813 65.03125 -1.019531 57.089844 0 Z M 41.105469 37.761719 "/>
</g>
<linearGradient id="linear1" gradientUnits="userSpaceOnUse" x1="10.23" y1="1.63" x2="11.07" y2="12.04" gradientTransform="matrix(3.888889,0,0,3.888889,0,0)">
<stop offset="0.22" style="stop-color:rgb(19.607843%,83.137255%,96.078431%);stop-opacity:1;"/>
<stop offset="1" style="stop-color:rgb(9.803922%,54.117647%,70.196078%);stop-opacity:1;"/>
</linearGradient>
</defs>
<g id="surface1">
<path style=" stroke:none;fill-rule:nonzero;fill:url(#linear0);" d="M 63.117188 66.773438 C 44.679688 84.203125 15.601563 83.382813 -1.828125 64.945313 C -19.257813 46.503906 -18.4375 17.429688 0 0 L 0 -0.777344 C -1.90625 -15.789063 -10.460938 -28 -26.792969 -28 C -43.128906 -28 -51.996094 -17.65625 -53.667969 -0.777344 C -53.453125 -7.867188 -47.53125 -13.4375 -40.445313 -13.222656 C -33.355469 -13.007813 -27.785156 -7.085938 -28 0 L 16.605469 0 Z M 63.117188 66.773438 "/>
<use xlink:href="#surface5" mask="url(#mask0)"/>
<path style=" stroke:none;fill-rule:nonzero;fill:url(#linear1);" d="M 56.15625 22.710938 C 56.15625 31.023438 49.417969 37.761719 41.105469 37.761719 C 32.792969 37.761719 26.054688 31.023438 26.054688 22.710938 C 26.054688 14.398438 32.792969 7.660156 41.105469 7.660156 C 49.417969 7.660156 56.15625 14.398438 56.15625 22.710938 Z M 56.15625 22.710938 "/>
<path style=" stroke:none;fill-rule:nonzero;fill:rgb(0%,47.058824%,83.137255%);fill-opacity:1;" d="M 23.332031 22.867188 L 23.332031 3.890625 C 22.257813 4.070313 21.242188 3.347656 21.058594 2.273438 C 20.875 1.199219 21.597656 0.183594 22.671875 0 L 17.773438 0 C 17.976563 -0.117188 18.230469 -0.117188 18.433594 0 L 18.433594 18.316406 C 13.375 18.132813 9.421875 13.886719 9.605469 8.828125 C 9.789063 3.769531 14.035156 -0.183594 19.09375 0 L 12.054688 0 C 12.238281 0.105469 12.328125 0.320313 12.273438 0.523438 C 12.21875 0.730469 12.035156 0.871094 11.820313 0.871094 C 11.609375 0.871094 11.425781 0.730469 11.371094 0.523438 C 11.316406 0.320313 11.40625 0.105469 11.589844 0 L 11.589844 17.304688 C 6.808594 17.390625 2.867188 13.585938 2.78125 8.808594 C 2.695313 4.03125 6.5 0.0859375 11.277344 0 L 2.292969 25.550781 C -4.761719 23.070313 -8.46875 15.339844 -5.988281 8.285156 C -3.507813 1.226563 4.222656 -2.480469 11.277344 0 L 10.851563 35 C 1.183594 34.882813 -6.554688 26.949219 -6.4375 17.285156 C -6.316406 7.621094 1.613281 -0.117188 11.277344 0 L 11.277344 29.59375 C 3.105469 29.59375 -3.519531 22.96875 -3.519531 14.796875 C -3.519531 6.625 3.105469 0 11.277344 0 L 21.933594 0 C 21.933594 2.941406 19.546875 5.328125 16.605469 5.328125 C 13.664063 5.328125 11.277344 2.941406 11.277344 0 L 11.277344 22.867188 Z M 23.332031 22.867188 "/>
</g>
</svg>
