<?xml version="1.0" encoding="UTF-8"?>
<svg xmlns="http://www.w3.org/2000/svg" xmlns:xlink="http://www.w3.org/1999/xlink" width="70pt" height="70pt" viewBox="0 0 70 70" version="1.1">
<g id="surface1">
<path style=" stroke:none;fill-rule:nonzero;fill:rgb(0%,0%,0%);fill-opacity:1;" d="M 70 56.875 L 70 61.25 L 61.25 61.25 L 61.25 70 L 56.875 70 L 56.875 61.25 L 48.125 61.25 L 48.125 56.875 L 56.875 56.875 L 56.875 48.125 L 61.25 48.125 L 61.25 56.875 Z M 46.375 48.125 L 50.75 48.125 C 50.75 47.25 50.3125 46.8125 50.3125 45.9375 C 41.28125 42.453125 34.898438 34.28125 33.710938 24.671875 C 32.519531 15.066406 36.714844 5.582031 44.625 0 L 41.5625 35.4375 L 35.4375 32.375 C 26.496094 29.839844 21.308594 20.535156 23.84375 11.59375 C 26.378906 2.652344 35.683594 -2.535156 44.625 0 L 47.25 -3.5 C 46.898438 -10.015625 50.597656 -16.074219 56.558594 -18.734375 C 62.515625 -21.394531 69.5 -20.101563 74.113281 -15.488281 C 78.726563 -10.875 80.019531 -3.890625 77.359375 2.066406 C 74.699219 8.027344 68.640625 11.726563 62.125 11.375 C 62.324219 14.238281 62.96875 15.257813 63.644531 13.765625 C 64.316406 12.277344 64.8125 8.730469 64.8125 5.421875 C 64.8125 2.117188 64.316406 0.0429688 63.644531 0.546875 C 62.96875 1.050781 62.324219 3.980469 62.125 7.4375 C 65.023438 19.640625 57.484375 31.882813 45.28125 34.78125 C 33.078125 37.679688 20.835938 30.140625 17.9375 17.9375 C 20.515625 22.46875 20.996094 27.898438 19.25 32.8125 L 34.125 47.6875 C 34.609375 38.753906 42.078125 31.804688 51.027344 31.964844 C 59.972656 32.125 67.1875 39.339844 67.347656 48.285156 C 67.507813 57.234375 60.558594 64.703125 51.625 65.1875 C 53.550781 66.523438 56.617188 67.125 59.324219 66.703125 C 62.03125 66.277344 63.824219 64.914063 63.824219 63.277344 C 63.824219 61.636719 62.03125 60.066406 59.324219 59.324219 C 56.617188 58.582031 53.550781 58.828125 51.625 59.9375 C 50.375 61.070313 49.148438 63.519531 48.125 66.9375 L 52.5 66.9375 C 49.355469 57.128906 53.335938 46.445313 62.128906 41.078125 C 70.921875 35.714844 82.242188 37.066406 89.523438 44.351563 C 96.808594 51.632813 98.160156 62.953125 92.796875 71.746094 C 87.429688 80.539063 76.746094 84.519531 66.9375 81.375 L 66.9375 89.25 C 66.433594 95.546875 65.085938 101.105469 63.4375 103.6875 L 26.25 35 C 45.21875 24.730469 68.917969 31.78125 79.1875 50.75 C 89.457031 69.71875 82.40625 93.417969 63.4375 103.6875 L 70 107.1875 C 83.039063 116.371094 86.6875 134.109375 78.328125 147.691406 C 69.96875 161.277344 52.488281 166.011719 38.414063 158.507813 C 24.34375 151 18.535156 133.84375 25.160156 119.335938 C 31.78125 104.828125 48.546875 97.972656 63.4375 103.6875 Z M 31.5 29.75 L 26.25 30.625 L 21 29.75 L 17.0625 26.6875 L 14 22.75 C 36.351563 9.097656 65.535156 16.148438 79.1875 38.5 C 92.839844 60.851563 85.789063 90.035156 63.4375 103.6875 L 66.5 99.75 L 70.4375 96.6875 L 26.25 4.375 L 31.5 5.25 L 35.4375 8.3125 L 38.5 12.25 C 63.75 5.363281 89.800781 20.25 96.6875 45.5 C 103.574219 70.75 88.6875 96.800781 63.4375 103.6875 C 51.949219 102.300781 43.53125 92.207031 44.226563 80.65625 C 44.921875 69.105469 54.492188 60.09375 66.0625 60.09375 C 77.632813 60.09375 87.203125 69.105469 87.898438 80.65625 C 88.59375 92.207031 80.175781 102.300781 68.6875 103.6875 L 65.625 107.625 Z M 31.5 29.75 "/>
</g>
</svg>
