<?xml version="1.0" encoding="UTF-8"?>
<svg xmlns="http://www.w3.org/2000/svg" xmlns:xlink="http://www.w3.org/1999/xlink" width="70pt" height="70pt" viewBox="0 0 70 70" version="1.1">
<g id="surface1">
<path style=" stroke:none;fill-rule:nonzero;fill:rgb(0%,0%,0%);fill-opacity:1;" d="M 70 0 L 70 70 L 0 70 L 0 0 Z M 5 5 L 5 45 L 11 45 L 15 40.5 L 18.5 40.5 L 25.5 47.5 L 35 10.5 C 32.101563 20.164063 21.914063 25.648438 12.25 22.75 C 2.585938 19.851563 -2.898438 9.664063 0 0 L 3 0 C 3 0.828125 2.328125 1.5 1.5 1.5 C 0.671875 1.5 0 0.828125 0 0 L 4 16.5 L 11.5 16.5 L 12.5 18 L 55 40 L 65 40 L 65 5 Z M 65 65 L 65 45 L 51.5 45 L 51.5 43 L 48 32 L 40.5 32 L 39.5 30 L 37.5 21.5 L 29.5 53 L 28.5 54.5 L 25 54.5 L 17 46 L 13.5 49.5 L 5 49.5 L 5 64.5 Z M 65 65 "/>
</g>
</svg>
