<?xml version="1.0" encoding="UTF-8"?>
<svg xmlns="http://www.w3.org/2000/svg" xmlns:xlink="http://www.w3.org/1999/xlink" width="70pt" height="70pt" viewBox="0 0 70 70" version="1.1">
<defs>
<linearGradient id="linear0" gradientUnits="userSpaceOnUse" x1="9" y1="17.99" x2="9" y2="-1.42" gradientTransform="matrix(3.888889,0,0,3.888889,0,0)">
<stop offset="0" style="stop-color:rgb(0%,47.058824%,83.137255%);stop-opacity:1;"/>
<stop offset="0.14" style="stop-color:rgb(2.745098%,48.235294%,83.921569%);stop-opacity:1;"/>
<stop offset="0.34" style="stop-color:rgb(10.196078%,51.372549%,85.882353%);stop-opacity:1;"/>
<stop offset="0.59" style="stop-color:rgb(22.352941%,56.470588%,89.411765%);stop-opacity:1;"/>
<stop offset="0.82" style="stop-color:rgb(36.862745%,62.745098%,93.72549%);stop-opacity:1;"/>
</linearGradient>
<linearGradient id="linear1" gradientUnits="userSpaceOnUse" x1="7.97" y1="16.51" x2="7.97" y2="4.84" gradientTransform="matrix(3.888889,0,0,3.888889,0,0)">
<stop offset="0" style="stop-color:rgb(58.039216%,58.039216%,58.039216%);stop-opacity:1;"/>
<stop offset="0.31" style="stop-color:rgb(72.54902%,72.54902%,72.54902%);stop-opacity:1;"/>
<stop offset="0.77" style="stop-color:rgb(92.54902%,92.54902%,92.54902%);stop-opacity:1;"/>
<stop offset="1" style="stop-color:rgb(100%,100%,100%);stop-opacity:1;"/>
</linearGradient>
</defs>
<g id="surface1">
<path style=" stroke:none;fill-rule:nonzero;fill:url(#linear0);" d="M 70 39.859375 C 71.25 44.574219 70.25 49.601563 67.292969 53.480469 C 64.332031 57.359375 59.75 59.652344 54.871094 59.695313 L 75.289063 80.109375 L 108.929688 80.109375 C 104.523438 84.515625 104.523438 91.652344 108.929688 96.054688 C 113.332031 100.457031 120.46875 100.457031 124.871094 96.054688 Z M 70 39.859375 "/>
<path style=" stroke:none;fill-rule:nonzero;fill:url(#linear1);" d="M 47.171875 24.109375 L 21.621094 24.109375 C 14.964844 24.21875 9.480469 18.90625 9.371094 12.25 C 9.265625 5.59375 14.574219 0.105469 21.234375 0 L 21.234375 19.210938 C 15.929688 19.285156 11.566406 15.046875 11.492188 9.742188 C 11.417969 4.4375 15.65625 0.0742188 20.960938 0 L 13.183594 7.777344 C 11.035156 5.628906 11.035156 2.148438 13.183594 0 C 15.332031 -2.148438 18.8125 -2.148438 20.960938 0 L 28.738281 7.777344 C 26.589844 9.925781 23.109375 9.925781 20.960938 7.777344 C 18.8125 5.628906 18.8125 2.148438 20.960938 0 L 20.960938 -4.667969 C 22.25 -4.667969 23.292969 -3.621094 23.292969 -2.332031 C 23.292969 -1.042969 22.25 0 20.960938 0 L 24.851563 0 L 24.851563 62.222656 C 7.667969 63.296875 -7.132813 50.238281 -8.207031 33.054688 C -9.28125 15.875 3.777344 1.074219 20.960938 0 L 40.40625 0 C 40.40625 5.371094 36.054688 9.722656 30.683594 9.722656 C 25.3125 9.722656 20.960938 5.371094 20.960938 0 L 20.960938 26.132813 C 13.746094 26.691406 7.441406 21.292969 6.882813 14.078125 C 6.324219 6.859375 11.722656 0.558594 18.9375 0 Z M 47.171875 24.109375 "/>
<path style=" stroke:none;fill-rule:nonzero;fill:rgb(0%,18.823529%,40.392157%);fill-opacity:1;" d="M 29.128906 38.1875 C 18.582031 46.230469 3.511719 44.203125 -4.53125 33.660156 C -12.574219 23.113281 -10.546875 8.042969 0 0 L 11.667969 0 C 11.667969 -1.417969 12.816406 -2.566406 14.234375 -2.566406 C 15.652344 -2.566406 16.800781 -1.417969 16.800781 0 C 16.800781 1.417969 15.652344 2.566406 14.234375 2.566406 L 2.566406 2.566406 C 3.558594 3.140625 4.039063 4.304688 3.746094 5.410156 C 3.449219 6.515625 2.445313 7.285156 1.304688 7.285156 C 0.160156 7.285156 -0.84375 6.515625 -1.140625 5.410156 C -1.433594 4.304688 -0.953125 3.140625 0.0390625 2.566406 Z M 29.128906 30.566406 C 21.394531 38.597656 8.617188 38.84375 0.582031 31.109375 C -7.449219 23.378906 -7.691406 10.597656 0.0390625 2.566406 L 11.707031 2.566406 C 11.707031 1.128906 12.871094 -0.0390625 14.3125 -0.0390625 C 15.75 -0.0390625 16.917969 1.128906 16.917969 2.566406 C 16.917969 4.003906 15.75 5.171875 14.3125 5.171875 L 2.644531 5.171875 C 3.652344 5.753906 4.140625 6.9375 3.839844 8.058594 C 3.539063 9.179688 2.523438 9.960938 1.359375 9.960938 C 0.199219 9.960938 -0.816406 9.179688 -1.117188 8.058594 C -1.417969 6.9375 -0.929688 5.753906 0.078125 5.171875 Z M 29.128906 30.566406 "/>
<path style=" stroke:none;fill-rule:nonzero;fill:rgb(31.372549%,90.196078%,100%);fill-opacity:1;" d="M 33.484375 30.566406 C 33.484375 31.511719 32.71875 32.277344 31.773438 32.277344 C 30.828125 32.277344 30.0625 31.511719 30.0625 30.566406 C 30.0625 29.621094 30.828125 28.855469 31.773438 28.855469 C 32.71875 28.855469 33.484375 29.621094 33.484375 30.566406 Z M 33.484375 30.566406 "/>
<path style=" stroke:none;fill-rule:nonzero;fill:rgb(31.372549%,90.196078%,100%);fill-opacity:1;" d="M 33.484375 38.1875 C 33.484375 39.132813 32.71875 39.898438 31.773438 39.898438 C 30.828125 39.898438 30.0625 39.132813 30.0625 38.1875 C 30.0625 37.242188 30.828125 36.476563 31.773438 36.476563 C 32.71875 36.476563 33.484375 37.242188 33.484375 38.1875 Z M 33.484375 38.1875 "/>
<path style=" stroke:none;fill-rule:nonzero;fill:rgb(0%,47.058824%,83.137255%);fill-opacity:1;" d="M 38.421875 52.851563 L 30.644531 60.628906 C 13.902344 60.714844 0.261719 47.210938 0.175781 30.46875 C 0.0898438 13.726563 13.589844 0.0859375 30.332031 0 L 30.332031 -4.589844 C 31.601563 -4.480469 32.539063 -3.367188 32.433594 -2.101563 C 32.324219 -0.832031 31.210938 0.105469 29.945313 0 L 25.511719 0 L 25.511719 49.777344 L 29.671875 49.777344 C 15.925781 49.703125 4.84375 38.5 4.917969 24.753906 C 4.996094 11.007813 16.199219 -0.0742188 29.945313 0 L 29.945313 -4.511719 C 31.191406 -4.511719 32.199219 -3.5 32.199219 -2.253906 C 32.199219 -1.011719 31.191406 0 29.945313 0 L 37.722656 7.777344 C 35.574219 7.648438 33.9375 5.804688 34.066406 3.65625 C 34.195313 1.507813 36.042969 -0.128906 38.1875 0 Z M 38.421875 52.851563 "/>
</g>
</svg>
