<?xml version="1.0" encoding="UTF-8"?>
<svg xmlns="http://www.w3.org/2000/svg" xmlns:xlink="http://www.w3.org/1999/xlink" width="70pt" height="70pt" viewBox="0 0 70 70" version="1.1">
<g id="surface1">
<path style=" stroke:none;fill-rule:nonzero;fill:rgb(0%,0%,0%);fill-opacity:1;" d="M 0 0 L 35 0 L 35 17.5 L 52.5 17.5 L 52.5 35 L 70 35 L 70 70 L 35 70 L 35 52.5 L 17.5 52.5 L 17.5 35 L 0 35 Z M 39.375 65.625 L 65.625 65.625 L 65.625 39.375 L 39.375 39.375 Z M 21.875 48.125 L 35 48.125 L 35 35 L 48.125 35 L 48.125 21.875 L 21.875 21.875 Z M 4.375 30.625 L 17.5 30.625 L 17.5 17.5 L 30.625 17.5 L 30.625 4.375 L 4.375 4.375 Z M 4.375 30.625 "/>
</g>
</svg>
