<?xml version="1.0" encoding="UTF-8"?>
<svg xmlns="http://www.w3.org/2000/svg" xmlns:xlink="http://www.w3.org/1999/xlink" width="70pt" height="70pt" viewBox="0 0 70 70" version="1.1">
<defs>
<linearGradient id="linear0" gradientUnits="userSpaceOnUse" x1="9.59" y1="17.96" x2="9.59" y2="-0.17" gradientTransform="matrix(3.888889,0,0,3.888889,0,0)">
<stop offset="0" style="stop-color:rgb(0%,47.058824%,83.137255%);stop-opacity:1;"/>
<stop offset="0.82" style="stop-color:rgb(36.862745%,62.745098%,93.72549%);stop-opacity:1;"/>
</linearGradient>
</defs>
<g id="surface1">
<path style=" stroke:none;fill-rule:nonzero;fill:url(#linear0);" d="M 70 41.726563 C 71.183594 46.125 70.257813 50.824219 67.492188 54.441406 C 64.726563 58.058594 60.4375 60.1875 55.882813 60.199219 L 74.898438 79.214844 L 92.320313 79.214844 L 92.320313 97.609375 L 124.5625 97.609375 C 124.5625 106.511719 117.34375 113.730469 108.441406 113.730469 C 99.539063 113.730469 92.320313 106.511719 92.320313 97.609375 Z M 70 41.726563 "/>
<path style=" stroke:none;fill-rule:evenodd;fill:rgb(31.372549%,90.196078%,100%);fill-opacity:1;" d="M 0 45.34375 C 0.0195313 37.277344 6.570313 30.753906 14.636719 30.761719 C 22.699219 30.769531 29.238281 37.304688 29.246094 45.371094 C 29.25 53.4375 22.726563 59.984375 14.660156 60.003906 L 14.660156 74.746094 L 14.777344 74.746094 C 11.492188 80.476563 4.773438 83.292969 -1.613281 81.621094 C -8.003906 79.945313 -12.480469 74.195313 -12.53125 67.589844 C -12.582031 60.984375 -8.199219 55.164063 -1.839844 53.390625 C 4.523438 51.617188 11.285156 54.328125 14.660156 60.003906 Z M 0 45.34375 "/>
<path style=" stroke:none;fill-rule:nonzero;fill:rgb(100%,100%,100%);fill-opacity:1;" d="M 23.996094 46.316406 L 23.996094 44.140625 L 21.777344 43.359375 L 21.234375 41.882813 L 22.320313 39.589844 L 22.320313 39.355469 L 21.621094 38.65625 L 20.804688 37.722656 L 20.496094 37.722656 L 18.316406 38.890625 L 16.839844 38.460938 L 15.867188 36.011719 L 13.726563 36.011719 L 12.988281 38.226563 L 11.355469 38.890625 L 8.828125 37.683594 L 7.3125 39.199219 L 7.3125 39.472656 L 8.4375 41.648438 L 7.777344 43.285156 L 5.171875 44.253906 L 5.171875 46.433594 L 5.484375 46.433594 L 7.777344 47.210938 L 8.398438 48.6875 L 7.234375 51.214844 L 8.75 52.773438 L 9.0625 52.773438 L 11.199219 51.683594 L 12.714844 52.304688 L 13.648438 54.910156 L 15.828125 54.910156 L 15.828125 54.601563 L 16.566406 52.265625 L 18.042969 51.644531 L 20.609375 52.851563 L 22.128906 51.332031 L 22.128906 51.023438 L 21.039063 48.84375 L 21.464844 47.328125 Z M 14.855469 48.339844 C 14.839844 47.089844 15.582031 45.953125 16.734375 45.46875 C 17.886719 44.984375 19.214844 45.246094 20.101563 46.128906 C 20.984375 47.011719 21.242188 48.34375 20.757813 49.492188 C 20.273438 50.644531 19.136719 51.386719 17.890625 51.371094 L 17.890625 55.261719 Z M 14.855469 48.339844 "/>
</g>
</svg>
