<?xml version="1.0" encoding="UTF-8"?>
<svg xmlns="http://www.w3.org/2000/svg" xmlns:xlink="http://www.w3.org/1999/xlink" width="70pt" height="70pt" viewBox="0 0 70 70" version="1.1">
<defs>
<linearGradient id="linear0" gradientUnits="userSpaceOnUse" x1="9" y1="2.95" x2="9" y2="6.34" gradientTransform="matrix(3.888889,0,0,3.888889,0,0)">
<stop offset="0" style="stop-color:rgb(77.647059%,60.392157%,92.156863%);stop-opacity:1;"/>
<stop offset="1" style="stop-color:rgb(43.529412%,29.411765%,69.803922%);stop-opacity:1;"/>
</linearGradient>
<linearGradient id="linear1" gradientUnits="userSpaceOnUse" x1="8.99" y1="6.76" x2="8.99" y2="9.22" gradientTransform="matrix(3.888889,0,0,3.888889,0,0)">
<stop offset="0" style="stop-color:rgb(32.941176%,68.235294%,94.117647%);stop-opacity:1;"/>
<stop offset="1" style="stop-color:rgb(9.803922%,53.333333%,85.098039%);stop-opacity:1;"/>
</linearGradient>
</defs>
<g id="surface1">
<path style=" stroke:none;fill-rule:nonzero;fill:rgb(58.039216%,58.039216%,58.039216%);fill-opacity:1;" d="M 53.238281 43.632813 L 47.40625 30.800781 L 35 16.332031 L 22.515625 30.761719 L 16.644531 43.554688 L 18.707031 44.527344 L 23.488281 34.105469 L 28.195313 44.527344 L 30.292969 43.59375 L 24.851563 31.578125 L 35 19.832031 L 45.109375 31.617188 L 39.589844 43.59375 L 41.648438 44.566406 L 46.433594 34.183594 L 51.140625 44.605469 Z M 53.238281 43.632813 "/>
<path style=" stroke:none;fill-rule:nonzero;fill:url(#linear0);" d="M 41.570313 18.082031 C 41.570313 21.714844 38.628906 24.65625 35 24.65625 C 31.371094 24.65625 28.429688 21.714844 28.429688 18.082031 C 28.429688 14.453125 31.371094 11.511719 35 11.511719 C 38.628906 11.511719 41.570313 14.453125 41.570313 18.082031 Z M 41.570313 18.082031 "/>
<path style=" stroke:none;fill-rule:nonzero;fill:url(#linear1);" d="M 23.332031 26.289063 C 17.394531 31.410156 8.429688 30.75 3.304688 24.8125 C -1.816406 18.871094 -1.15625 9.90625 4.785156 4.785156 Z M 41.6875 31.109375 C 34.417969 41.300781 20.261719 43.671875 10.070313 36.398438 C -0.117188 29.128906 -2.488281 14.972656 4.785156 4.785156 Z M 41.6875 31.109375 "/>
<path style=" stroke:none;fill-rule:nonzero;fill:rgb(21.568627%,76.078431%,69.411765%);fill-opacity:1;" d="M 21.429688 44.023438 C 21.429688 46.105469 19.738281 47.792969 17.65625 47.792969 C 15.570313 47.792969 13.882813 46.105469 13.882813 44.023438 C 13.882813 41.9375 15.570313 40.25 17.65625 40.25 C 19.738281 40.25 21.429688 41.9375 21.429688 44.023438 Z M 21.429688 44.023438 "/>
<path style=" stroke:none;fill-rule:nonzero;fill:rgb(21.568627%,76.078431%,69.411765%);fill-opacity:1;" d="M 33.015625 44.0625 C 33.015625 46.144531 31.328125 47.832031 29.246094 47.832031 C 27.160156 47.832031 25.472656 46.144531 25.472656 44.0625 C 25.472656 41.976563 27.160156 40.289063 29.246094 40.289063 C 31.328125 40.289063 33.015625 41.976563 33.015625 44.0625 Z M 33.015625 44.0625 "/>
<path style=" stroke:none;fill-rule:nonzero;fill:rgb(21.568627%,76.078431%,69.411765%);fill-opacity:1;" d="M 44.371094 44.101563 C 44.371094 46.183594 42.683594 47.871094 40.601563 47.871094 C 38.515625 47.871094 36.828125 46.183594 36.828125 44.101563 C 36.828125 42.015625 38.515625 40.328125 40.601563 40.328125 C 42.683594 40.328125 44.371094 42.015625 44.371094 44.101563 Z M 44.371094 44.101563 "/>
<path style=" stroke:none;fill-rule:nonzero;fill:rgb(21.568627%,76.078431%,69.411765%);fill-opacity:1;" d="M 55.960938 44.140625 C 55.960938 46.222656 54.273438 47.910156 52.1875 47.910156 C 50.105469 47.910156 48.417969 46.222656 48.417969 44.140625 C 48.417969 42.054688 50.105469 40.367188 52.1875 40.367188 C 54.273438 40.367188 55.960938 42.054688 55.960938 44.140625 Z M 55.960938 44.140625 "/>
<path style=" stroke:none;fill-rule:nonzero;fill:rgb(58.039216%,58.039216%,58.039216%);fill-opacity:1;" d="M 1.945313 59.1875 C -14.398438 59.726563 -28.085938 46.910156 -28.621094 30.566406 C -29.160156 14.222656 -16.34375 0.535156 0 0 L 4.472656 2.488281 L 12.25 6.921875 C 10.339844 10.304688 6.046875 11.496094 2.664063 9.585938 C -0.71875 7.675781 -1.910156 3.382813 0 0 L 17.773438 62.222656 C 0.589844 62.457031 -13.53125 48.722656 -13.765625 31.539063 C -14.003906 14.355469 -0.265625 0.234375 16.917969 0 L 8.011719 -5.328125 C 9.480469 -5.175781 10.554688 -3.863281 10.402344 -2.390625 C 10.253906 -0.921875 8.9375 0.148438 7.464844 0 L 7.464844 14.503906 C 3.460938 14.503906 0.214844 11.257813 0.214844 7.253906 C 0.214844 3.246094 3.460938 0 7.464844 0 L 16.371094 -5.171875 C 17.800781 -2.714844 16.964844 0.4375 14.503906 1.867188 C 12.046875 3.296875 8.894531 2.460938 7.464844 0 L 15.246094 3.460938 C 14.289063 3.527344 13.460938 2.804688 13.398438 1.847656 C 13.332031 0.890625 14.054688 0.0625 15.011719 0 L 6.882813 7.542969 L 2.253906 10.265625 C -0.578125 10.117188 -2.757813 7.695313 -2.605469 4.859375 C -2.457031 2.027344 -0.0351563 -0.148438 2.800781 0 L 2.800781 48.378906 Z M 1.945313 59.1875 "/>
<path style=" stroke:none;fill-rule:nonzero;fill:rgb(63.921569%,63.921569%,63.921569%);fill-opacity:1;" d="M 17.773438 7.777344 L 15.246094 3.460938 C 14.289063 3.546875 13.445313 2.84375 13.359375 1.886719 C 13.273438 0.929688 13.976563 0.0859375 14.933594 0 L 14.621094 0 L 6.804688 7.542969 L 2.179688 10.265625 C 2.433594 10.265625 2.644531 10.476563 2.644531 10.734375 C 2.644531 10.992188 2.433594 11.199219 2.179688 11.199219 L 8.554688 15.089844 C 7.480469 16.851563 5.183594 17.40625 3.421875 16.332031 C 1.660156 15.257813 1.105469 12.960938 2.179688 11.199219 L 11.082031 6.066406 C 12.5 8.527344 11.65625 11.667969 9.195313 13.085938 C 6.738281 14.503906 3.59375 13.660156 2.179688 11.199219 Z M 17.773438 62.222656 L 15.246094 66.695313 C 15.1875 66.367188 15.367188 66.046875 15.671875 65.921875 C 15.980469 65.800781 16.332031 65.90625 16.515625 66.183594 C 16.699219 66.460938 16.664063 66.828125 16.433594 67.0625 C 16.199219 67.300781 15.835938 67.339844 15.554688 67.160156 L 8.089844 62.609375 L 3.460938 59.890625 C 3.71875 59.890625 3.929688 60.097656 3.929688 60.355469 C 3.929688 60.613281 3.71875 60.820313 3.460938 60.820313 L 9.839844 56.933594 C 10.914063 58.695313 10.355469 60.992188 8.59375 62.066406 C 6.832031 63.140625 4.535156 62.582031 3.460938 60.820313 L 12.367188 65.996094 C 10.9375 68.453125 7.785156 69.289063 5.328125 67.859375 C 2.867188 66.433594 2.03125 63.28125 3.460938 60.820313 Z M 17.773438 62.222656 "/>
<path style=" stroke:none;fill-rule:nonzero;fill:rgb(58.039216%,58.039216%,58.039216%);fill-opacity:1;" d="M 68.054688 10.8125 C 65.070313 10.960938 62.527344 8.664063 62.378906 5.679688 C 62.226563 2.691406 64.527344 0.148438 67.511719 0 L 63.273438 7.777344 L 55.496094 3.34375 C 54.570313 3.28125 53.875 2.480469 53.9375 1.554688 C 54.003906 0.632813 54.804688 -0.0625 55.726563 0 L 52.226563 7.777344 C 50.078125 6.8125 49.121094 4.285156 50.089844 2.140625 C 51.054688 -0.0078125 53.578125 -0.964844 55.726563 0 L 64.632813 5.171875 C 63.203125 7.632813 60.054688 8.46875 57.59375 7.039063 C 55.136719 5.609375 54.300781 2.460938 55.726563 0 L 55.726563 41.144531 C 44.367188 40.992188 35.277344 31.660156 35.429688 20.300781 C 35.578125 8.9375 44.910156 -0.148438 56.273438 0 L 47.367188 5.171875 C 45.9375 4.9375 44.972656 3.585938 45.207031 2.160156 C 45.445313 0.730469 46.792969 -0.234375 48.222656 0 L 50.75 4.472656 C 49.515625 5.171875 47.949219 4.734375 47.25 3.5 C 46.550781 2.265625 46.988281 0.699219 48.222656 0 L 55.6875 -4.316406 L 60.316406 -7.039063 C 62.261719 -3.699219 61.128906 0.585938 57.789063 2.527344 C 54.449219 4.472656 50.164063 3.339844 48.222656 0 L 48.222656 10.8125 Z M 68.054688 10.8125 "/>
<path style=" stroke:none;fill-rule:nonzero;fill:rgb(63.921569%,63.921569%,63.921569%);fill-opacity:1;" d="M 52.226563 62.222656 L 54.753906 66.695313 C 36.339844 81.816406 9.152344 79.140625 -5.96875 60.726563 C -21.089844 42.308594 -18.417969 15.121094 0 0 L 0.3125 0 L 7.777344 -4.316406 L 12.40625 -7.039063 C 12.148438 -6.78125 12.148438 -6.363281 12.40625 -6.105469 C 12.664063 -5.847656 13.082031 -5.847656 13.339844 -6.105469 L 6.960938 -9.996094 C 8.035156 -10.144531 9.027344 -9.394531 9.179688 -8.320313 C 9.328125 -7.25 8.578125 -6.257813 7.503906 -6.105469 L -1.398438 -0.933594 C -2.828125 -1.136719 -3.820313 -2.460938 -3.617188 -3.890625 C -3.414063 -5.316406 -2.089844 -6.308594 -0.660156 -6.105469 Z M 52.226563 7.777344 L 54.753906 3.460938 C 54.664063 3.152344 54.789063 2.824219 55.066406 2.65625 C 55.339844 2.492188 55.691406 2.535156 55.921875 2.761719 C 56.148438 2.988281 56.191406 3.34375 56.027344 3.617188 C 55.859375 3.894531 55.53125 4.019531 55.222656 3.929688 L 62.6875 8.246094 L 67.316406 10.964844 C 67.058594 11.222656 67.058594 11.640625 67.316406 11.898438 C 67.574219 12.15625 67.992188 12.15625 68.25 11.898438 L 61.871094 15.789063 C 60.796875 15.9375 59.804688 15.191406 59.65625 14.117188 C 59.503906 13.042969 60.253906 12.050781 61.328125 11.898438 L 52.421875 6.84375 C 53.816406 7.125 54.722656 8.480469 54.445313 9.878906 C 54.164063 11.273438 52.808594 12.179688 51.410156 11.898438 Z M 52.226563 7.777344 "/>
</g>
</svg>
