<?xml version="1.0" encoding="UTF-8"?>
<svg xmlns="http://www.w3.org/2000/svg" xmlns:xlink="http://www.w3.org/1999/xlink" width="70pt" height="70pt" viewBox="0 0 70 70" version="1.1">
<g id="surface1">
<path style=" stroke:none;fill-rule:nonzero;fill:rgb(0%,0%,0%);fill-opacity:1;" d="M 30.386719 65.625 C 31.660156 67.289063 33.097656 68.746094 34.691406 70 L 4.375 70 L 4.375 0 L 42.484375 0 L 61.25 18.765625 L 61.25 27.6875 C 60.542969 27.367188 59.824219 27.070313 59.097656 26.796875 C 58.367188 26.523438 57.625 26.273438 56.875 26.046875 L 56.875 21.875 L 39.375 21.875 L 39.375 4.375 L 8.75 4.375 L 8.75 65.625 Z M 43.75 7.484375 L 43.75 17.5 L 53.765625 17.5 Z M 70 50.3125 C 70 53.023438 69.488281 55.578125 68.460938 57.96875 C 67.4375 60.359375 66.023438 62.445313 64.222656 64.222656 C 62.421875 66 60.339844 67.402344 57.96875 68.429688 C 55.597656 69.453125 53.046875 69.976563 50.3125 70 C 47.601563 70 45.046875 69.488281 42.65625 68.460938 C 40.265625 67.4375 38.179688 66.023438 36.402344 64.222656 C 34.625 62.421875 33.222656 60.339844 32.195313 57.96875 C 31.171875 55.597656 30.648438 53.046875 30.625 50.3125 C 30.625 47.601563 31.136719 45.046875 32.164063 42.65625 C 33.1875 40.265625 34.601563 38.179688 36.402344 36.402344 C 38.203125 34.625 40.285156 33.222656 42.65625 32.195313 C 45.027344 31.171875 47.578125 30.648438 50.3125 30.625 C 53.023438 30.625 55.578125 31.136719 57.96875 32.164063 C 60.359375 33.1875 62.445313 34.601563 64.222656 36.402344 C 66 38.203125 67.402344 40.285156 68.429688 42.65625 C 69.453125 45.027344 69.976563 47.578125 70 50.3125 Z M 50.3125 65.625 C 52.429688 65.625 54.414063 65.226563 56.257813 64.429688 C 58.105469 63.632813 59.722656 62.539063 61.113281 61.148438 C 62.503906 59.757813 63.597656 58.140625 64.394531 56.292969 C 65.191406 54.449219 65.601563 52.453125 65.625 50.3125 C 65.625 48.195313 65.226563 46.210938 64.429688 44.367188 C 63.632813 42.519531 62.539063 40.902344 61.148438 39.511719 C 59.757813 38.121094 58.140625 37.027344 56.292969 36.230469 C 54.449219 35.433594 52.453125 35.023438 50.3125 35 C 48.195313 35 46.210938 35.398438 44.367188 36.195313 C 42.519531 36.992188 40.902344 38.085938 39.511719 39.476563 C 38.121094 40.867188 37.027344 42.484375 36.230469 44.332031 C 35.433594 46.175781 35.023438 48.171875 35 50.3125 C 35 52.429688 35.398438 54.414063 36.195313 56.257813 C 36.992188 58.105469 38.085938 59.722656 39.476563 61.113281 C 40.867188 62.503906 42.484375 63.597656 44.332031 64.394531 C 46.175781 65.191406 48.171875 65.601563 50.3125 65.625 Z M 48.125 61.25 L 48.125 48.125 L 52.5 48.125 L 52.5 61.25 Z M 48.125 43.75 L 48.125 39.375 L 52.5 39.375 L 52.5 43.75 Z M 48.125 43.75 "/>
</g>
</svg>
