<?xml version="1.0" encoding="UTF-8"?>
<svg xmlns="http://www.w3.org/2000/svg" xmlns:xlink="http://www.w3.org/1999/xlink" width="52pt" height="70pt" viewBox="0 0 52 70" version="1.1">
<g id="surface1">
<path style=" stroke:none;fill-rule:nonzero;fill:rgb(0%,0%,0%);fill-opacity:1;" d="M 13 30.625 L 13 17.9375 C 10.574219 8.390625 14.769531 -1.617188 23.253906 -6.503906 C 31.734375 -11.386719 42.402344 -9.9375 49.308594 -2.96875 C 56.210938 4 57.644531 14.773438 52.808594 23.335938 C 47.96875 31.898438 38.058594 36.136719 28.601563 33.6875 L 28.601563 42 L 26 4.375 L 31.199219 5.25 C 35.507813 0.902344 42.492188 0.902344 46.800781 5.25 C 51.109375 9.597656 51.109375 16.652344 46.800781 21 L 51.132813 21 C 53.757813 25.125 54.546875 30.171875 53.3125 34.910156 C 52.078125 39.652344 48.929688 43.652344 44.632813 45.9375 C 36.976563 53.429688 24.753906 53.230469 17.332031 45.5 C 9.914063 37.769531 10.109375 25.429688 17.765625 17.9375 C 20.878906 22.925781 21.367188 29.140625 19.066406 34.5625 L 43.765625 59.5 L 43.765625 30.625 L 0 30.625 L 0 70 L 52 70 L 52 30.625 Z M 47.667969 35 L 47.667969 65.625 L 4.332031 65.625 L 4.332031 35 Z M 47.667969 35 "/>
</g>
</svg>
