<?xml version="1.0" encoding="UTF-8"?>
<svg xmlns="http://www.w3.org/2000/svg" xmlns:xlink="http://www.w3.org/1999/xlink" width="70pt" height="64pt" viewBox="0 0 70 64" version="1.1">
<g id="surface1">
<path style=" stroke:none;fill-rule:nonzero;fill:rgb(0%,0%,0%);fill-opacity:1;" d="M 0 0 L 70 0 L 70 64 L 0 64 Z M 5.382813 10.667969 L 64.617188 10.667969 L 64.617188 5.332031 L 5.382813 5.332031 Z M 21.539063 26.667969 L 21.539063 16 L 5.382813 16 L 5.382813 26.667969 Z M 5.382813 32 L 5.382813 42.667969 L 21.539063 42.667969 L 21.539063 32 Z M 21.539063 58.667969 L 21.539063 48 L 5.382813 48 L 5.382813 58.667969 Z M 43.078125 26.667969 L 43.078125 16 L 26.921875 16 L 26.921875 26.667969 Z M 26.921875 32 L 26.921875 42.667969 L 43.078125 42.667969 L 43.078125 32 Z M 43.078125 58.667969 L 43.078125 48 L 26.921875 48 L 26.921875 58.667969 Z M 64.617188 26.667969 L 64.617188 16 L 48.460938 16 L 48.460938 26.667969 Z M 64.617188 42.667969 L 64.617188 32 L 48.460938 32 L 48.460938 42.667969 Z M 64.617188 58.667969 L 64.617188 48 L 48.460938 48 L 48.460938 58.667969 Z M 64.617188 58.667969 "/>
</g>
</svg>
