<?xml version="1.0" encoding="UTF-8"?>
<svg xmlns="http://www.w3.org/2000/svg" xmlns:xlink="http://www.w3.org/1999/xlink" width="70pt" height="70pt" viewBox="0 0 70 70" version="1.1">
<defs>
<linearGradient id="linear0" gradientUnits="userSpaceOnUse" x1="-6518.78" y1="1118.86" x2="-6518.78" y2="1090.06" gradientTransform="matrix(1.944444,0,0,-1.944444,12706.633333,2177.738889)">
<stop offset="0" style="stop-color:rgb(36.862745%,62.745098%,93.72549%);stop-opacity:1;"/>
<stop offset="0.18" style="stop-color:rgb(34.509804%,61.960784%,92.941176%);stop-opacity:1;"/>
<stop offset="0.41" style="stop-color:rgb(28.235294%,59.215686%,91.372549%);stop-opacity:1;"/>
<stop offset="0.66" style="stop-color:rgb(18.039216%,54.901961%,88.235294%);stop-opacity:1;"/>
<stop offset="0.94" style="stop-color:rgb(3.921569%,48.627451%,84.313725%);stop-opacity:1;"/>
<stop offset="1" style="stop-color:rgb(0%,47.058824%,83.137255%);stop-opacity:1;"/>
</linearGradient>
</defs>
<g id="surface1">
<path style=" stroke:none;fill-rule:nonzero;fill:url(#linear0);" d="M 22.050781 41.261719 L 38.890625 41.261719 L 38.890625 58.0625 L 22.050781 58.0625 Z M 2.605469 18.859375 L 19.445313 18.859375 L 19.445313 2.0625 L 4.785156 2.0625 C 4.921875 0.878906 5.925781 -0.0078125 7.117188 0 Z M 4.9375 58.0625 L 19.445313 58.0625 L 19.445313 41.261719 L 2.449219 41.261719 L 2.449219 55.726563 C -12.9375 54.4375 -24.371094 40.917969 -23.082031 25.53125 C -21.792969 10.140625 -8.273438 -1.289063 7.117188 0 Z M 2.605469 38.617188 L 19.445313 38.617188 L 19.445313 21.660156 L 2.449219 21.660156 Z M 41.804688 58.0625 L 56.273438 58.0625 C 40.238281 71.636719 16.238281 69.640625 2.664063 53.609375 C -10.910156 37.574219 -8.917969 13.574219 7.117188 0 L 7.117188 -14.464844 L -9.839844 -14.464844 Z M 22.359375 38.617188 L 38.890625 38.617188 L 38.890625 21.660156 L 22.050781 21.660156 Z M 41.804688 38.617188 L 58.332031 38.617188 L 58.332031 21.660156 L 41.648438 21.660156 Z M 41.804688 2.214844 L 41.804688 18.859375 L 58.332031 18.859375 L 58.332031 4.394531 C 57.121094 5.039063 55.613281 4.578125 54.96875 3.363281 C 54.324219 2.152344 54.785156 0.644531 56 0 Z M 22.359375 19.015625 L 38.890625 19.015625 L 38.890625 2.0625 L 22.050781 2.0625 Z M 22.359375 19.015625 "/>
<path style=" stroke:none;fill-rule:nonzero;fill:rgb(19.607843%,74.509804%,86.666667%);fill-opacity:1;" d="M 67.550781 41.609375 L 67.550781 59.148438 L 52.5 67.9375 L 52.5 50.398438 Z M 67.550781 41.609375 "/>
<path style=" stroke:none;fill-rule:nonzero;fill:rgb(61.176471%,92.156863%,100%);fill-opacity:1;" d="M 67.550781 41.609375 L 52.5 50.4375 L 37.449219 41.609375 L 52.5 32.820313 Z M 67.550781 41.609375 "/>
<path style=" stroke:none;fill-rule:nonzero;fill:rgb(31.372549%,90.196078%,100%);fill-opacity:1;" d="M 52.5 50.4375 L 52.5 67.9375 L 37.449219 59.148438 L 37.449219 41.609375 Z M 52.5 50.4375 "/>
<path style=" stroke:none;fill-rule:nonzero;fill:rgb(61.176471%,92.156863%,100%);fill-opacity:1;" d="M 37.449219 59.148438 L 52.5 50.398438 L 52.5 67.9375 Z M 37.449219 59.148438 "/>
<path style=" stroke:none;fill-rule:nonzero;fill:rgb(31.372549%,90.196078%,100%);fill-opacity:1;" d="M 67.550781 59.148438 L 52.5 50.398438 L 52.5 67.9375 Z M 67.550781 59.148438 "/>
</g>
</svg>
