<?xml version="1.0" encoding="UTF-8"?>
<svg xmlns="http://www.w3.org/2000/svg" xmlns:xlink="http://www.w3.org/1999/xlink" width="70pt" height="70pt" viewBox="0 0 70 70" version="1.1">
<g id="surface1">
<path style=" stroke:none;fill-rule:nonzero;fill:rgb(87.843137%,4.313725%,10.980392%);fill-opacity:1;" d="M 65.625 35 C 65.625 51.914063 51.914063 65.625 35 65.625 C 18.085938 65.625 4.375 51.914063 4.375 35 C 4.375 18.085938 18.085938 4.375 35 4.375 C 51.914063 4.375 65.625 18.085938 65.625 35 Z M 65.625 35 "/>
<path style=" stroke:none;fill-rule:nonzero;fill:rgb(100%,100%,100%);fill-opacity:1;" d="M 35 4.433594 C 44.824219 13.421875 47.699219 27.738281 42.105469 39.824219 C 36.511719 51.910156 23.734375 58.980469 10.523438 57.308594 C -2.6875 55.636719 -13.296875 45.601563 -15.703125 32.503906 C -18.105469 19.40625 -11.753906 6.257813 0 0 M 35 0 C 15.703125 0 0 15.703125 0 35 C 0 54.296875 15.703125 70 35 70 C 54.296875 70 70 54.296875 70 35 C 70 15.703125 54.296875 0 35 0 Z M 35 0 "/>
<path style=" stroke:none;fill-rule:nonzero;fill:rgb(100%,100%,100%);fill-opacity:1;" d="M 52.9375 22.496094 L 47.503906 17.0625 L 35 29.566406 L 22.496094 17.0625 L 17.0625 22.496094 L 29.566406 35 L 17.0625 47.503906 L 22.496094 52.9375 L 35 40.433594 L 47.503906 52.9375 L 52.9375 47.503906 L 40.433594 35 Z M 52.9375 22.496094 "/>
</g>
</svg>
