<?xml version="1.0" encoding="UTF-8"?>
<svg xmlns="http://www.w3.org/2000/svg" xmlns:xlink="http://www.w3.org/1999/xlink" width="70pt" height="70pt" viewBox="0 0 70 70" version="1.1">
<defs>
<linearGradient id="linear0" gradientUnits="userSpaceOnUse" x1="2.59" y1="10.16" x2="15.41" y2="10.16" gradientTransform="matrix(3.888889,0,0,3.888889,0,0)">
<stop offset="0" style="stop-color:rgb(0%,35.686275%,63.137255%);stop-opacity:1;"/>
<stop offset="0.07" style="stop-color:rgb(0%,37.647059%,66.27451%);stop-opacity:1;"/>
<stop offset="0.36" style="stop-color:rgb(0%,44.313725%,78.431373%);stop-opacity:1;"/>
<stop offset="0.52" style="stop-color:rgb(0%,47.058824%,83.137255%);stop-opacity:1;"/>
<stop offset="0.64" style="stop-color:rgb(0%,45.490196%,80.392157%);stop-opacity:1;"/>
<stop offset="0.82" style="stop-color:rgb(0%,41.568627%,73.333333%);stop-opacity:1;"/>
<stop offset="1" style="stop-color:rgb(0%,35.686275%,63.137255%);stop-opacity:1;"/>
</linearGradient>
<radialGradient id="radial0" gradientUnits="userSpaceOnUse" cx="9.36" cy="10.57" fx="9.36" fy="10.57" r="7.07" gradientTransform="matrix(3.888889,0,0,3.888889,0,0)">
<stop offset="0" style="stop-color:rgb(94.901961%,94.901961%,94.901961%);stop-opacity:1;"/>
<stop offset="0.58" style="stop-color:rgb(93.333333%,93.333333%,93.333333%);stop-opacity:1;"/>
<stop offset="1" style="stop-color:rgb(90.196078%,90.196078%,90.196078%);stop-opacity:1;"/>
</radialGradient>
</defs>
<g id="surface1">
<path style=" stroke:none;fill-rule:nonzero;fill:url(#linear0);" d="M 35 19.988281 C 21.234375 19.988281 10.070313 16.101563 10.070313 10.964844 L 10.070313 59.035156 C 10.070313 63.972656 21.039063 67.976563 34.648438 68.054688 L 35 68.054688 C 48.765625 68.054688 59.929688 64.167969 59.929688 59.035156 L 59.929688 10.964844 C 59.929688 15.984375 48.765625 19.988281 35 19.988281 Z M 35 19.988281 "/>
<path style=" stroke:none;fill-rule:nonzero;fill:rgb(90.980392%,90.980392%,90.980392%);fill-opacity:1;" d="M 59.929688 10.964844 C 59.929688 15.984375 48.765625 19.988281 35 19.988281 C 21.234375 19.988281 10.070313 16.101563 10.070313 10.964844 C 10.070313 5.832031 21.234375 1.945313 35 1.945313 C 48.765625 1.945313 59.929688 5.832031 59.929688 10.964844 "/>
<path style=" stroke:none;fill-rule:nonzero;fill:rgb(31.372549%,90.196078%,100%);fill-opacity:1;" d="M 54.132813 10.226563 C 54.132813 13.417969 45.539063 15.984375 35 15.984375 C 24.460938 15.984375 15.867188 13.417969 15.867188 10.226563 C 15.867188 7.039063 24.460938 4.511719 35 4.511719 C 45.539063 4.511719 54.132813 7.078125 54.132813 10.226563 "/>
<path style=" stroke:none;fill-rule:nonzero;fill:rgb(9.803922%,54.117647%,70.196078%);fill-opacity:1;" d="M 35 11.667969 C 35.21875 7.695313 35.964844 3.773438 37.214844 0 Z M 35 11.667969 "/>
<path style=" stroke:none;fill-rule:nonzero;fill:url(#radial0);" d="M 50.167969 44.332031 L 50.167969 31.109375 L 46.667969 31.109375 L 46.667969 47.171875 L 56.234375 47.171875 L 56.234375 44.332031 Z M 22.398438 37.839844 C 24.972656 35.140625 29.1875 34.882813 32.070313 37.25 C 34.949219 39.613281 35.515625 43.800781 33.371094 46.847656 C 31.222656 49.894531 27.089844 50.769531 23.894531 48.851563 C 20.695313 46.9375 19.519531 42.878906 21.195313 39.550781 L 22.554688 40.910156 L 22.554688 46.433594 C 22.679688 42.101563 23.035156 38.59375 23.347656 38.59375 C 23.660156 38.59375 23.808594 42.101563 23.683594 46.433594 L 23.683594 43.089844 C 24.152344 45.226563 23.9375 47.460938 23.0625 49.464844 L 27.261719 53.667969 C 27.261719 55.648438 28.503906 57.207031 31.148438 58.371094 C 27.390625 53.746094 27.917969 46.984375 32.34375 42.992188 C 36.769531 39 43.546875 39.175781 47.761719 43.390625 C 51.980469 47.605469 52.152344 54.382813 48.160156 58.8125 C 44.171875 63.238281 37.410156 63.761719 32.785156 60.003906 L 32.785156 63.894531 C 33.011719 65.964844 34.070313 67.253906 35.144531 66.769531 C 36.21875 66.289063 36.902344 64.214844 36.671875 62.144531 C 36.128906 79.992188 34.738281 94.089844 33.566406 93.640625 C 32.394531 93.191406 31.886719 78.355469 32.433594 60.511719 L 32.433594 46.667969 C 31.980469 43.085938 33.851563 39.617188 37.089844 38.027344 C 40.332031 36.441406 44.222656 37.085938 46.773438 39.636719 C 49.324219 42.191406 49.972656 46.082031 48.382813 49.320313 C 46.796875 52.558594 43.324219 54.429688 39.746094 53.976563 L 39.746094 55.261719 C 39.726563 54.242188 39.378906 53.273438 38.773438 52.539063 C 38.035156 52.625 37.292969 52.625 36.554688 52.539063 Z M 42.777344 44.023438 C 46.535156 42.769531 50.667969 44.089844 53.003906 47.289063 C 55.339844 50.484375 55.339844 54.828125 53.003906 58.023438 C 50.667969 61.222656 46.53125 62.539063 42.777344 61.289063 C 39.019531 60.035156 36.503906 56.496094 36.554688 52.539063 C 37.378906 55.488281 36.199219 58.636719 33.640625 60.316406 L 41.84375 68.523438 L 49.078125 68.523438 C 48.660156 68.65625 48.261719 69.875 48.074219 71.597656 C 47.882813 73.324219 47.9375 75.210938 48.214844 76.359375 C 48.492188 77.511719 48.933594 77.695313 49.328125 76.828125 C 49.722656 75.957031 49.992188 74.207031 50.011719 72.410156 C 50.660156 69.027344 53.726563 66.652344 57.164063 66.871094 C 60.605469 67.085938 63.347656 69.828125 63.5625 73.269531 C 63.78125 76.707031 61.40625 79.773438 58.023438 80.421875 L 61.367188 84.3125 L 66.070313 84.3125 L 38.890625 46.976563 C 48.125 41.695313 59.894531 44.898438 65.179688 54.132813 C 70.460938 63.367188 67.257813 75.140625 58.023438 80.421875 Z M 38.890625 43.050781 C 39.195313 41.441406 40.53125 40.234375 42.160156 40.089844 C 43.789063 39.945313 45.316406 40.902344 45.898438 42.433594 C 46.480469 43.960938 45.972656 45.691406 44.660156 46.664063 C 43.347656 47.640625 41.546875 47.625 40.25 46.628906 L 46.160156 52.539063 L 52.109375 52.539063 C 50.785156 54.402344 51.652344 56.757813 54.054688 57.816406 C 56.457031 58.878906 59.496094 58.246094 60.863281 56.402344 C 62.230469 54.558594 61.414063 52.191406 59.035156 51.101563 C 60.773438 49.359375 63.59375 49.359375 65.332031 51.101563 C 67.074219 52.839844 67.074219 55.660156 65.332031 57.398438 L 65.332031 61.289063 Z M 38.890625 43.050781 "/>
</g>
</svg>
