<?xml version="1.0" encoding="UTF-8"?>
<svg xmlns="http://www.w3.org/2000/svg" xmlns:xlink="http://www.w3.org/1999/xlink" width="70pt" height="70pt" viewBox="0 0 70 70" version="1.1">
<g id="surface1">
<path style=" stroke:none;fill-rule:nonzero;fill:rgb(0%,0%,0%);fill-opacity:1;" d="M 21.875 17.5 L 21.875 7.4375 C 27.234375 12.832031 29.097656 20.785156 26.6875 28 C 16.796875 20.515625 14.546875 6.570313 21.582031 -3.644531 C 28.617188 -13.859375 42.449219 -16.726563 52.96875 -10.152344 C 63.488281 -3.578125 66.96875 10.109375 60.867188 20.910156 C 54.769531 31.710938 41.25 35.800781 30.1875 30.1875 C 27.210938 18.171875 32.609375 5.648438 43.386719 -0.441406 C 54.164063 -6.527344 67.679688 -4.683594 76.429688 4.070313 C 85.183594 12.820313 87.027344 26.335938 80.941406 37.113281 C 74.851563 47.890625 62.328125 53.289063 50.3125 50.3125 L 50.3125 55.125 L 57.3125 58.625 L 35 65.625 L 35 70 C 44.527344 57.648438 61.011719 52.980469 75.601563 58.503906 C 90.191406 64.023438 99.457031 78.4375 98.417969 94.003906 C 97.378906 109.566406 86.285156 122.625 71.09375 126.160156 C 55.898438 129.695313 40.179688 122.882813 32.375 109.375 L 71.75 148.75 C 72.476563 131.476563 86.816406 117.914063 104.105469 118.15625 C 121.394531 118.398438 135.351563 132.355469 135.59375 149.644531 C 135.835938 166.933594 122.273438 181.273438 105 182 L 105 233.1875 L 107.1875 231.875 L 108.9375 230.5625 L 8.75 230.5625 L 8.75 0 L 26.25 0 L 26.25 17.5 Z M 48.125 52.5 L 48.125 62.5625 C 48.367188 51.566406 57.394531 42.800781 68.394531 42.878906 C 79.390625 42.960938 88.289063 51.859375 88.371094 62.855469 C 88.449219 73.855469 79.683594 82.882813 68.6875 83.125 L 68.6875 86.625 C 67.035156 99.75 63.488281 110.925781 59.9375 114.1875 L 80.0625 134.3125 L 101.5 134.3125 C 100.335938 134.371094 99.164063 134.371094 98 134.3125 L 35 4.375 L 35 0 C 37.183594 -18.359375 53.113281 -31.953125 71.585938 -31.222656 C 90.0625 -30.496094 104.871094 -15.6875 105.597656 2.789063 C 106.328125 21.261719 92.734375 37.191406 74.375 39.375 L 74.375 90.5625 C 78.035156 76.921875 90.21875 67.308594 104.332031 66.914063 C 118.449219 66.523438 131.148438 75.445313 135.558594 88.859375 C 139.972656 102.273438 135.050781 116.992188 123.460938 125.058594 C 111.867188 133.121094 96.355469 132.617188 85.3125 123.8125 L 125.125 163.625 L 122.9375 164.9375 L 121.1875 166.25 L 61.25 166.25 L 61.25 170.625 L 43.75 170.625 L 43.75 153.125 Z M 48.125 52.5 "/>
</g>
</svg>
