<?xml version="1.0" encoding="UTF-8"?>
<svg xmlns="http://www.w3.org/2000/svg" xmlns:xlink="http://www.w3.org/1999/xlink" width="70pt" height="70pt" viewBox="0 0 70 70" version="1.1">
<defs>
<radialGradient id="radial0" gradientUnits="userSpaceOnUse" cx="15013.284" cy="4584.191" fx="15013.284" fy="4584.191" r="56.626" gradientTransform="matrix(0.583333,0,0,0.583333,-8724.072778,-2639.902222)">
<stop offset="0.183" style="stop-color:rgb(36.862745%,62.745098%,93.72549%);stop-opacity:1;"/>
<stop offset="1" style="stop-color:rgb(0%,47.058824%,83.137255%);stop-opacity:1;"/>
</radialGradient>
<linearGradient id="linear0" gradientUnits="userSpaceOnUse" x1="4.022" y1="171.297" x2="3.991" y2="167.338" gradientTransform="matrix(3.888889,0,0,3.888889,0,-622.222222)">
<stop offset="0" style="stop-color:rgb(80%,80%,80%);stop-opacity:1;"/>
<stop offset="0.123" style="stop-color:rgb(84.313725%,84.313725%,84.313725%);stop-opacity:1;"/>
<stop offset="0.421" style="stop-color:rgb(92.156863%,92.156863%,92.156863%);stop-opacity:1;"/>
<stop offset="0.716" style="stop-color:rgb(97.254902%,97.254902%,97.254902%);stop-opacity:1;"/>
<stop offset="1" style="stop-color:rgb(98.823529%,98.823529%,98.823529%);stop-opacity:1;"/>
</linearGradient>
</defs>
<g id="surface1">
<path style=" stroke:none;fill-rule:nonzero;fill:url(#radial0);" d="M 54.054688 60.277344 C 37.410156 75.203125 11.816406 73.8125 -3.109375 57.167969 C -18.039063 40.519531 -16.644531 14.925781 0 0 L 0.390625 -0.390625 C 13.398438 -13.183594 34.304688 -13.054688 47.152344 -0.0976563 C 60.003906 12.859375 59.960938 33.765625 47.058594 46.667969 C 34.152344 59.570313 13.246094 59.613281 0.292969 46.765625 C -12.664063 33.914063 -12.796875 13.007813 0 0 "/>
<path style=" stroke:none;fill-rule:nonzero;fill:rgb(51.372549%,72.54902%,97.647059%);fill-opacity:1;" d="M 8.167969 40.832031 C 8.617188 26.660156 12.0625 12.746094 18.277344 0 L 20.609375 3.5 L 22.945313 5.832031 C 5.019531 -17.28125 8.148438 -50.347656 30.09375 -69.691406 C 52.035156 -89.03125 85.234375 -87.988281 105.917969 -67.304688 C 126.601563 -46.621094 127.644531 -13.421875 108.304688 8.519531 C 88.960938 30.460938 55.894531 33.59375 32.78125 15.667969 Z M 12.054688 22.945313 C -14.90625 26.453125 -40.164063 9.023438 -46.457031 -17.429688 C -52.746094 -43.878906 -38.039063 -70.8125 -12.386719 -79.820313 C 13.269531 -88.828125 41.585938 -77 53.210938 -52.421875 C 64.835938 -27.839844 56.015625 1.550781 32.78125 15.667969 C 45.554688 25.523438 47.988281 43.839844 38.222656 56.6875 L 48.839844 56.6875 Z M 12.054688 22.945313 "/>
<path style=" stroke:none;fill-rule:nonzero;fill:url(#linear0);" d="M 26.054688 33.054688 C 26.054688 38.855469 21.355469 43.554688 15.554688 43.554688 C 9.757813 43.554688 5.054688 38.855469 5.054688 33.054688 C 5.054688 27.257813 9.757813 22.554688 15.554688 22.554688 C 21.355469 22.554688 26.054688 27.257813 26.054688 33.054688 Z M 26.054688 33.054688 "/>
<path style=" stroke:none;fill-rule:nonzero;fill:rgb(51.372549%,72.54902%,97.647059%);fill-opacity:1;" d="M 31.109375 52.5 C 16.613281 61.089844 -2.101563 56.304688 -10.695313 41.804688 C -19.285156 27.308594 -14.496094 8.589844 0 0 C -5.546875 -0.816406 -9.523438 -5.773438 -9.113281 -11.363281 C -8.707031 -16.957031 -4.050781 -21.28125 1.554688 -21.28125 C 7.160156 -21.28125 11.816406 -16.957031 12.226563 -11.363281 C 12.632813 -5.773438 8.65625 -0.816406 3.109375 0 Z M 55.609375 53.277344 C 44.074219 73.523438 20.441406 83.582031 -2.148438 77.859375 C -24.742188 72.140625 -40.734375 52.046875 -41.246094 28.746094 C -41.757813 5.449219 -26.65625 -15.324219 -4.335938 -22.03125 C 17.980469 -28.734375 42.03125 -19.722656 54.445313 0 L 54.445313 0.390625 C 68.371094 -0.898438 80.703125 9.34375 81.992188 23.269531 C 83.28125 37.195313 73.035156 49.527344 59.109375 50.816406 C 60.667969 49.261719 62.222656 47.316406 63.777344 45.761719 C 64.285156 34.917969 73.140625 26.34375 83.992188 26.183594 C 94.847656 26.019531 103.953125 34.328125 104.785156 45.148438 C 105.617188 55.96875 97.886719 65.574219 87.140625 67.074219 C 76.390625 68.574219 66.328125 61.453125 64.167969 50.816406 Z M 55.609375 53.277344 "/>
<path style=" stroke:none;fill-rule:nonzero;fill:rgb(51.372549%,72.54902%,97.647059%);fill-opacity:1;" d="M 36.167969 19.054688 C 25.753906 -4 33.308594 -31.203125 54.117188 -45.589844 C 74.925781 -59.972656 103.046875 -57.429688 120.933594 -39.539063 C 138.824219 -21.652344 141.367188 6.46875 126.984375 27.277344 C 112.597656 48.085938 85.394531 55.640625 62.339844 45.226563 C 62.988281 45.210938 63.636719 45.210938 64.285156 45.226563 C 86.96875 44.90625 105.617188 63.035156 105.9375 85.71875 C 106.261719 108.402344 88.132813 127.050781 65.449219 127.371094 C 33.335938 142.386719 -4.863281 128.523438 -19.878906 96.410156 C -34.890625 64.300781 -21.027344 26.097656 11.082031 11.082031 C 35.097656 -12.933594 74.035156 -12.933594 98.050781 11.082031 C 122.066406 35.097656 122.066406 74.035156 98.050781 98.050781 L 98.050781 104.273438 C 40.035156 213.804688 -9.785156 300.160156 -13.222656 297.152344 C -16.65625 294.144531 27.589844 202.914063 85.605469 93.382813 Z M 36.167969 19.054688 "/>
<path style=" stroke:none;fill-rule:nonzero;fill:rgb(94.901961%,94.901961%,94.901961%);fill-opacity:1;" d="M 61.054688 35.390625 C 61.054688 39.46875 57.746094 42.777344 53.667969 42.777344 C 49.585938 42.777344 46.277344 39.46875 46.277344 35.390625 C 46.277344 31.308594 49.585938 28 53.667969 28 C 57.746094 28 61.054688 31.308594 61.054688 35.390625 Z M 61.054688 35.390625 "/>
<path style=" stroke:none;fill-rule:nonzero;fill:rgb(51.372549%,72.54902%,97.647059%);fill-opacity:1;" d="M 66.109375 40.445313 C 65.722656 40.054688 65.332031 40.054688 64.945313 39.667969 C 64.554688 39.277344 64.167969 39.277344 63.777344 38.890625 L 63.390625 38.890625 L 62.222656 38.109375 L 61.832031 38.109375 L 60.667969 37.332031 C 50.355469 36.367188 42.785156 27.226563 43.75 16.917969 C 44.714844 6.605469 53.855469 -0.964844 64.167969 0 C 64.554688 0.390625 64.945313 0.390625 65.722656 0.777344 L 66.109375 0.777344 C 66.5 1.167969 66.890625 1.167969 67.277344 1.554688 C 68.445313 2.332031 69.609375 2.722656 70.777344 3.5 C 71.167969 2.332031 71.554688 0.777344 71.945313 -0.390625 Z M 66.109375 40.445313 "/>
<path style=" stroke:none;fill-rule:nonzero;fill:rgb(94.901961%,94.901961%,94.901961%);fill-opacity:1;" d="M 26.054688 33.054688 C 26.054688 38.855469 21.355469 43.554688 15.554688 43.554688 C 9.757813 43.554688 5.054688 38.855469 5.054688 33.054688 C 5.054688 27.257813 9.757813 22.554688 15.554688 22.554688 C 21.355469 22.554688 26.054688 27.257813 26.054688 33.054688 Z M 26.054688 33.054688 "/>
<path style=" stroke:none;fill-rule:nonzero;fill:rgb(94.901961%,94.901961%,94.901961%);fill-opacity:1;" d="M 45.109375 52.5 C 45.109375 56.367188 41.976563 59.5 38.109375 59.5 C 34.246094 59.5 31.109375 56.367188 31.109375 52.5 C 31.109375 48.632813 34.246094 45.5 38.109375 45.5 C 41.976563 45.5 45.109375 48.632813 45.109375 52.5 Z M 45.109375 52.5 "/>
<path style=" stroke:none;fill-rule:nonzero;fill:rgb(50.980392%,6.27451%,6.27451%);fill-opacity:1;" d="M 20.222656 40.832031 L 67.277344 40.832031 C 68.054688 40.832031 69.222656 41.609375 69.222656 42.390625 L 69.222656 67.277344 C 50.644531 66.742188 36.019531 51.246094 36.554688 32.667969 C 37.09375 14.089844 52.589844 -0.535156 71.167969 0 L 20.222656 0 C 20.882813 0.429688 21.183594 1.242188 20.957031 2 C 20.734375 2.753906 20.039063 3.273438 19.25 3.273438 C 18.460938 3.273438 17.765625 2.753906 17.542969 2 C 17.316406 1.242188 17.617188 0.429688 18.277344 0 L 18.277344 42.777344 C 6.464844 42.777344 -3.109375 33.203125 -3.109375 21.390625 C -3.109375 9.574219 6.464844 0 18.277344 0 Z M 20.222656 40.832031 "/>
<path style=" stroke:none;fill-rule:nonzero;fill:rgb(90.196078%,13.72549%,13.72549%);fill-opacity:1;" d="M 20.609375 43.945313 L 34.609375 43.945313 L 34.609375 50.167969 L 20.609375 50.167969 Z M 20.609375 43.945313 "/>
<path style=" stroke:none;fill-rule:nonzero;fill:rgb(100%,45.098039%,50.588235%);fill-opacity:1;" d="M 36.945313 43.945313 L 50.945313 43.945313 L 50.945313 50.167969 L 36.945313 50.167969 Z M 36.945313 43.945313 "/>
<path style=" stroke:none;fill-rule:nonzero;fill:rgb(90.196078%,13.72549%,13.72549%);fill-opacity:1;" d="M 52.890625 43.945313 L 66.890625 43.945313 L 66.890625 50.167969 L 52.890625 50.167969 Z M 20.609375 52.109375 L 26.445313 52.109375 L 26.445313 58.332031 L 20.609375 58.332031 Z M 20.609375 52.109375 "/>
<path style=" stroke:none;fill-rule:nonzero;fill:rgb(100%,45.098039%,50.588235%);fill-opacity:1;" d="M 61.054688 52.109375 L 66.890625 52.109375 L 66.890625 58.332031 L 61.054688 58.332031 Z M 28.777344 52.109375 L 42.777344 52.109375 L 42.777344 58.332031 L 28.777344 58.332031 Z M 28.777344 52.109375 "/>
<path style=" stroke:none;fill-rule:nonzero;fill:rgb(90.196078%,13.72549%,13.72549%);fill-opacity:1;" d="M 44.722656 52.109375 L 58.722656 52.109375 L 58.722656 58.332031 L 44.722656 58.332031 Z M 20.609375 60.277344 L 34.609375 60.277344 L 34.609375 66.5 L 20.609375 66.5 Z M 20.609375 60.277344 "/>
<path style=" stroke:none;fill-rule:nonzero;fill:rgb(100%,45.098039%,50.588235%);fill-opacity:1;" d="M 36.945313 60.277344 L 50.945313 60.277344 L 50.945313 66.5 L 36.945313 66.5 Z M 36.945313 60.277344 "/>
<path style=" stroke:none;fill-rule:nonzero;fill:rgb(90.196078%,13.72549%,13.72549%);fill-opacity:1;" d="M 52.890625 60.277344 L 66.890625 60.277344 L 66.890625 66.5 L 52.890625 66.5 Z M 52.890625 60.277344 "/>
</g>
</svg>
