<?xml version="1.0" encoding="UTF-8"?>
<svg xmlns="http://www.w3.org/2000/svg" xmlns:xlink="http://www.w3.org/1999/xlink" width="70pt" height="70pt" viewBox="0 0 70 70" version="1.1">
<defs>
<linearGradient id="linear0" gradientUnits="userSpaceOnUse" x1="13.18" y1="10.12" x2="13.18" y2="17.5" gradientTransform="matrix(3.888889,0,0,3.888889,0,0)">
<stop offset="0" style="stop-color:rgb(71.764706%,47.843137%,95.686275%);stop-opacity:1;"/>
<stop offset="0.24" style="stop-color:rgb(70.196078%,46.27451%,94.901961%);stop-opacity:1;"/>
<stop offset="0.5" style="stop-color:rgb(65.098039%,41.176471%,93.333333%);stop-opacity:1;"/>
<stop offset="0.75" style="stop-color:rgb(57.254902%,33.333333%,90.196078%);stop-opacity:1;"/>
<stop offset="1" style="stop-color:rgb(46.666667%,22.745098%,86.27451%);stop-opacity:1;"/>
</linearGradient>
</defs>
<g id="surface1">
<path style=" stroke:none;fill-rule:nonzero;fill:rgb(19.607843%,74.509804%,86.666667%);fill-opacity:1;" d="M 61.328125 18.511719 L 61.328125 51.449219 L 32.859375 68.015625 L 32.859375 35 Z M 61.328125 18.511719 "/>
<path style=" stroke:none;fill-rule:nonzero;fill:rgb(61.176471%,92.156863%,100%);fill-opacity:1;" d="M 61.328125 18.511719 L 32.859375 35.039063 L 4.355469 18.472656 L 32.859375 1.945313 Z M 61.328125 18.511719 "/>
<path style=" stroke:none;fill-rule:nonzero;fill:rgb(31.372549%,90.196078%,100%);fill-opacity:1;" d="M 32.859375 35.039063 L 32.859375 68.015625 L 4.355469 51.449219 L 4.355469 18.472656 Z M 32.859375 35.039063 "/>
<path style=" stroke:none;fill-rule:nonzero;fill:rgb(61.176471%,92.156863%,100%);fill-opacity:1;" d="M 4.355469 51.449219 L 32.859375 35 L 32.859375 68.015625 Z M 4.355469 51.449219 "/>
<path style=" stroke:none;fill-rule:nonzero;fill:rgb(31.372549%,90.196078%,100%);fill-opacity:1;" d="M 61.328125 51.449219 L 32.859375 35 L 32.859375 68.015625 Z M 61.328125 51.449219 "/>
<path style=" stroke:none;fill-rule:nonzero;fill:url(#linear0);" d="M 51.253906 39.355469 L 51.292969 39.355469 C 59.21875 39.355469 65.644531 45.78125 65.644531 53.707031 L 65.644531 53.746094 C 65.644531 61.667969 59.21875 68.09375 51.292969 68.09375 L 51.253906 68.09375 C 43.332031 68.09375 36.90625 61.667969 36.90625 53.746094 L 36.90625 53.707031 C 36.90625 45.78125 43.332031 39.355469 51.253906 39.355469 Z M 51.253906 39.355469 "/>
<path style=" stroke:none;fill-rule:nonzero;fill:rgb(100%,100%,100%);fill-opacity:1;" d="M 42 51.917969 L 50.554688 43.359375 C 62.53125 29.402344 60.917969 8.375 46.957031 -3.597656 C 32.996094 -15.570313 11.972656 -13.960938 0 0 L 8.554688 8.554688 C 6.191406 8.339844 4.453125 6.25 4.667969 3.890625 C 4.882813 1.527344 6.972656 -0.214844 9.332031 0 L 4.042969 0 C 4.175781 -0.078125 4.339844 -0.078125 4.472656 0 L 4.472656 10.695313 C 1.519531 10.585938 -0.789063 8.105469 -0.679688 5.152344 C -0.574219 2.199219 1.90625 -0.105469 4.859375 0 L -0.855469 0 C -0.703125 0.0898438 -0.628906 0.265625 -0.675781 0.4375 C -0.71875 0.609375 -0.875 0.726563 -1.050781 0.726563 C -1.226563 0.726563 -1.378906 0.609375 -1.425781 0.4375 C -1.472656 0.265625 -1.398438 0.0898438 -1.246094 0 L -1.246094 -10.695313 C 1.707031 -10.578125 4.007813 -8.085938 3.890625 -5.132813 C 3.769531 -2.179688 1.28125 0.117188 -1.671875 0 L -6.921875 0 C -6.792969 0.195313 -6.828125 0.457031 -7.003906 0.609375 C -7.179688 0.761719 -7.441406 0.761719 -7.617188 0.609375 C -7.792969 0.457031 -7.828125 0.195313 -7.699219 0 Z M 42 51.917969 "/>
</g>
</svg>
