<?xml version="1.0" encoding="UTF-8"?>
<svg xmlns="http://www.w3.org/2000/svg" xmlns:xlink="http://www.w3.org/1999/xlink" width="70pt" height="70pt" viewBox="0 0 70 70" version="1.1">
<defs>
<radialGradient id="radial0" gradientUnits="userSpaceOnUse" cx="7.18" cy="9.5" fx="7.18" fy="9.5" r="7.38" gradientTransform="matrix(3.888889,0,0,3.888889,0,0)">
<stop offset="0" style="stop-color:rgb(46.27451%,73.72549%,17.647059%);stop-opacity:1;"/>
<stop offset="0.41" style="stop-color:rgb(45.490196%,72.54902%,17.254902%);stop-opacity:1;"/>
<stop offset="0.66" style="stop-color:rgb(43.529412%,69.411765%,16.470588%);stop-opacity:1;"/>
<stop offset="0.88" style="stop-color:rgb(40%,63.529412%,15.294118%);stop-opacity:1;"/>
<stop offset="1" style="stop-color:rgb(36.862745%,58.823529%,14.117647%);stop-opacity:1;"/>
</radialGradient>
</defs>
<g id="surface1">
<path style=" stroke:none;fill-rule:nonzero;fill:rgb(14.509804%,50.980392%,46.666667%);fill-opacity:1;" d="M 38.890625 39.820313 C 39.839844 38.144531 41.878906 37.417969 43.679688 38.113281 C 45.480469 38.8125 46.492188 40.726563 46.0625 42.609375 C 45.632813 44.492188 43.886719 45.769531 41.960938 45.617188 L 41.960938 47.949219 L 40.25 47.949219 L 40.25 45.539063 C 45.210938 45.480469 49.320313 49.375 49.527344 54.335938 C 49.734375 59.292969 45.960938 63.515625 41.011719 63.871094 C 36.0625 64.222656 31.726563 60.578125 31.226563 55.640625 C 30.726563 50.703125 34.242188 46.265625 39.160156 45.617188 L 39.160156 42.464844 C 40.714844 40.074219 43.566406 38.863281 46.367188 39.410156 C 49.167969 39.953125 51.359375 42.144531 51.902344 44.945313 C 52.449219 47.746094 51.238281 50.597656 48.84375 52.148438 L 48.84375 37.488281 C 51.871094 33.871094 57.109375 33.050781 61.097656 35.574219 C 65.082031 38.097656 66.585938 43.179688 64.609375 47.464844 C 62.636719 51.75 57.792969 53.910156 53.285156 52.519531 C 48.777344 51.128906 46 46.613281 46.785156 41.960938 L 52.265625 41.960938 L 52.265625 39.820313 L 53.9375 39.820313 L 53.9375 41.921875 C 58.511719 42.261719 62.011719 46.128906 61.894531 50.710938 C 61.777344 55.292969 58.085938 58.980469 53.5 59.085938 C 48.917969 59.191406 45.058594 55.683594 44.730469 51.109375 C 44.398438 46.539063 47.714844 42.511719 52.265625 41.960938 L 52.265625 45.070313 C 51.671875 44.121094 51.261719 43.066406 51.0625 41.960938 L 51.0625 35 C 48.996094 31.015625 50.140625 26.117188 53.765625 23.46875 C 57.386719 20.816406 62.398438 21.203125 65.574219 24.375 C 68.746094 27.550781 69.132813 32.5625 66.480469 36.1875 C 63.832031 39.808594 58.933594 40.957031 54.949219 38.890625 Z M 32.511719 34.261719 L 32.511719 30.644531 C 34.789063 24.449219 41.65625 21.269531 47.851563 23.546875 C 54.050781 25.824219 57.226563 32.691406 54.949219 38.890625 C 54.949219 39.707031 55.457031 40.367188 56.503906 40.871094 Z M 35.816406 39.976563 C 35.816406 39.238281 35.273438 38.65625 34.183594 38.148438 L 34.183594 41.648438 C 35.273438 41.457031 35.816406 40.910156 35.816406 39.976563 Z M 35.816406 39.976563 "/>
<path style=" stroke:none;fill-rule:nonzero;fill:rgb(100%,79.215686%,0%);fill-opacity:1;" d="M 64.320313 36.90625 L 50.320313 36.90625 C 40.132813 33.363281 34.742188 22.226563 38.285156 12.035156 C 41.828125 1.84375 52.964844 -3.542969 63.15625 0 L 72.449219 10.460938 C 80.027344 24.347656 75.980469 41.710938 63.039063 50.8125 C 50.101563 59.914063 32.390625 57.855469 21.882813 46.027344 C 11.375 34.203125 11.417969 16.375 21.976563 4.59375 C 32.539063 -7.183594 50.257813 -9.160156 63.15625 0 "/>
<path style=" stroke:none;fill-rule:nonzero;fill:url(#radial0);" d="M 33.132813 54.171875 C 18.175781 63.320313 -1.371094 58.613281 -10.519531 43.652344 C -19.667969 28.695313 -14.960938 9.148438 0 0 L 0 5.792969 C 17.183594 5.792969 31.109375 19.722656 31.109375 36.90625 L 62.222656 36.90625 L 52.890625 26.445313 C 52.40625 18.160156 57.960938 10.738281 66.042969 8.863281 C 74.128906 6.988281 82.382813 11.207031 85.597656 18.859375 C 88.8125 26.507813 86.046875 35.359375 79.050781 39.820313 C 72.050781 44.277344 62.859375 43.046875 57.285156 36.90625 Z M 33.132813 54.171875 "/>
<path style=" stroke:none;fill-rule:nonzero;fill:rgb(80%,80%,80%);fill-opacity:1;" d="M 31.695313 1.867188 L 31.695313 18.042969 C 30.636719 26.972656 23.691406 34.070313 14.785156 35.316406 C 5.878906 36.5625 -2.75 31.652344 -6.222656 23.355469 C -9.695313 15.0625 -7.136719 5.46875 0 0 L 16.253906 0 C 34.265625 4.132813 46.300781 21.132813 44.21875 39.492188 C 42.136719 57.851563 26.605469 71.722656 8.128906 71.722656 C -10.351563 71.722656 -25.882813 57.851563 -27.964844 39.492188 C -30.042969 21.132813 -18.007813 4.132813 0 0 Z M 31.695313 1.867188 "/>
<path style=" stroke:none;fill-rule:nonzero;fill:rgb(60%,60%,60%);fill-opacity:1;" d="M 51.878906 38.1875 C 41.332031 43.75 28.273438 39.710938 22.710938 29.167969 C 17.148438 18.621094 21.1875 5.5625 31.734375 0 L 31.226563 0 L 32.511719 2.410156 C 34.746094 11.558594 29.339844 20.835938 20.277344 23.402344 C 11.214844 25.96875 1.746094 20.898438 -1.144531 11.9375 C -4.035156 2.972656 0.6875 -6.671875 9.539063 -9.886719 C 18.390625 -13.097656 28.199219 -8.730469 31.734375 0 Z M 51.878906 38.1875 "/>
</g>
</svg>
