<?xml version="1.0" encoding="UTF-8"?>
<svg xmlns="http://www.w3.org/2000/svg" xmlns:xlink="http://www.w3.org/1999/xlink" width="70pt" height="70pt" viewBox="0 0 70 70" version="1.1">
<defs>
<linearGradient id="linear0" gradientUnits="userSpaceOnUse" x1="8.15" y1="17.49" x2="8.15" y2="2.09" gradientTransform="matrix(3.888889,0,0,3.888889,0,0)">
<stop offset="0" style="stop-color:rgb(36.862745%,58.823529%,14.117647%);stop-opacity:1;"/>
<stop offset="0.31" style="stop-color:rgb(41.176471%,65.882353%,15.686275%);stop-opacity:1;"/>
<stop offset="0.93" style="stop-color:rgb(52.54902%,83.921569%,20%);stop-opacity:1;"/>
</linearGradient>
</defs>
<g id="surface1">
<path style=" stroke:none;fill-rule:nonzero;fill:rgb(36.862745%,58.823529%,14.117647%);fill-opacity:1;" d="M 59.109375 1.945313 L 13.960938 1.945313 C 13.878906 1.207031 14.171875 0.476563 14.738281 0 L 7.503906 8.207031 L 59.539063 60.9375 L 51.761719 68.054688 L 55.648438 68.054688 C 36.855469 79.351563 12.464844 73.277344 1.167969 54.484375 C -10.128906 35.691406 -4.054688 11.296875 14.738281 0 L 19.289063 -4.160156 C 20.4375 -2.90625 20.351563 -0.953125 19.09375 0.195313 C 17.839844 1.34375 15.886719 1.257813 14.738281 0 L 14.738281 5.171875 C 13.429688 6.082031 11.644531 5.871094 10.585938 4.675781 C 9.527344 3.484375 9.527344 1.6875 10.585938 0.496094 C 11.644531 -0.699219 13.429688 -0.910156 14.738281 0 Z M 59.109375 1.945313 "/>
<path style=" stroke:none;fill-rule:nonzero;fill:rgb(100%,100%,100%);fill-opacity:1;" d="M 11.316406 8.167969 L 14.195313 4.898438 C 12.839844 8.820313 8.566406 10.898438 4.648438 9.546875 C 0.726563 8.195313 -1.351563 3.917969 0 0 L 42.3125 0 C 42.3125 11.683594 32.839844 21.15625 21.15625 21.15625 C 9.472656 21.15625 0 11.683594 0 0 L 0 53.589844 C -14.796875 53.179688 -26.464844 40.855469 -26.054688 26.054688 C -25.648438 11.257813 -13.320313 -0.40625 1.476563 0 L -2.996094 4.121094 "/>
<path style=" stroke:none;fill-rule:nonzero;fill:url(#linear0);" d="M 54.445313 8.128906 L 7.777344 8.128906 C 5.535156 8.0625 3.765625 6.191406 3.832031 3.945313 C 3.894531 1.703125 5.765625 -0.0625 8.011719 0 L 8.011719 58.332031 C -8.097656 58.332031 -21.15625 45.273438 -21.15625 29.167969 C -21.15625 13.058594 -8.097656 0 8.011719 0 L 54.445313 0 C 54.445313 12.820313 44.050781 23.214844 31.226563 23.214844 C 18.40625 23.214844 8.011719 12.820313 8.011719 0 L 8.011719 9.644531 C 5.347656 10.0625 2.847656 8.242188 2.429688 5.582031 C 2.011719 2.917969 3.832031 0.417969 6.496094 0 Z M 54.445313 8.128906 "/>
<path style=" stroke:none;fill-rule:nonzero;fill:rgb(100%,100%,100%);fill-opacity:1;" d="M 48.609375 30.410156 C 40.214844 30.828125 33.066406 24.363281 32.648438 15.964844 C 32.226563 7.566406 38.695313 0.417969 47.09375 0 L 39.898438 0 C 40.015625 -0.0351563 40.136719 -0.0351563 40.25 0 L 36.398438 34.609375 L 31.5 24.695313 L 26.949219 38.890625 L 23.0625 28.777344 L 17.929688 38.265625 C 7.359375 38.160156 -1.117188 29.507813 -1.011719 18.9375 C -0.902344 8.371094 7.75 -0.105469 18.316406 0 L 15.984375 0 C 16.714844 0.078125 17.269531 0.703125 17.265625 1.4375 L 21.15625 1.4375 C 21.15625 2.511719 20.285156 3.382813 19.210938 3.382813 C 18.136719 3.382813 17.265625 2.511719 17.265625 1.4375 L 20.300781 -4.277344 L 25.003906 7.390625 L 29.789063 -7.621094 L 33.988281 0.894531 L 38.695313 -7.542969 C 41.175781 -1.628906 38.390625 5.179688 32.472656 7.660156 C 26.554688 10.140625 19.746094 7.355469 17.265625 1.4375 L 22.90625 1.4375 C 22.90625 2.996094 21.644531 4.257813 20.085938 4.257813 C 18.527344 4.257813 17.265625 2.996094 17.265625 1.4375 Z M 48.609375 30.410156 "/>
</g>
</svg>
