<?xml version="1.0" encoding="UTF-8"?>
<svg xmlns="http://www.w3.org/2000/svg" xmlns:xlink="http://www.w3.org/1999/xlink" width="70pt" height="70pt" viewBox="0 0 70 70" version="1.1">
<defs>
<linearGradient id="linear0" gradientUnits="userSpaceOnUse" x1="5.41" y1="17.33" x2="5.41" y2="4.61" gradientTransform="matrix(3.888889,0,0,3.888889,0,0)">
<stop offset="0" style="stop-color:rgb(58.039216%,58.039216%,58.039216%);stop-opacity:1;"/>
<stop offset="0.53" style="stop-color:rgb(63.529412%,63.529412%,63.529412%);stop-opacity:1;"/>
<stop offset="1" style="stop-color:rgb(70.196078%,70.196078%,70.196078%);stop-opacity:1;"/>
</linearGradient>
<linearGradient id="linear1" gradientUnits="userSpaceOnUse" x1="10.04" y1="-1347.39" x2="10.04" y2="-1336.82" gradientTransform="matrix(3.888889,0,0,-3.888889,0,-5172.222222)">
<stop offset="0" style="stop-color:rgb(0%,47.058824%,83.137255%);stop-opacity:1;"/>
<stop offset="0.16" style="stop-color:rgb(7.45098%,50.196078%,85.490196%);stop-opacity:1;"/>
<stop offset="0.53" style="stop-color:rgb(23.529412%,56.862745%,89.803922%);stop-opacity:1;"/>
<stop offset="0.82" style="stop-color:rgb(33.333333%,61.176471%,92.54902%);stop-opacity:1;"/>
<stop offset="1" style="stop-color:rgb(36.862745%,62.745098%,93.72549%);stop-opacity:1;"/>
</linearGradient>
</defs>
<g id="surface1">
<path style=" stroke:none;fill-rule:nonzero;fill:rgb(46.666667%,46.666667%,46.666667%);fill-opacity:1;" d="M 55.6875 49.621094 C 41.984375 49.011719 31.375 37.40625 31.984375 23.703125 C 32.597656 10 44.203125 -0.613281 57.90625 0 L 19.714844 0 C 20.585938 0.5 21.007813 1.523438 20.75 2.492188 C 20.488281 3.460938 19.613281 4.136719 18.609375 4.136719 C 17.605469 4.136719 16.726563 3.460938 16.46875 2.492188 C 16.207031 1.523438 16.632813 0.5 17.5 0 L 17.5 4.589844 C 16.234375 4.589844 15.207031 3.5625 15.207031 2.292969 C 15.207031 1.027344 16.234375 0 17.5 0 L 51.332031 0 C 51.332031 9.34375 43.757813 16.917969 34.417969 16.917969 C 25.074219 16.917969 17.5 9.34375 17.5 0 Z M 55.6875 49.621094 "/>
<path style=" stroke:none;fill-rule:nonzero;fill:rgb(60%,60%,60%);fill-opacity:1;" d="M 47.910156 57.398438 C 32.058594 56.789063 19.707031 43.441406 20.320313 27.589844 C 20.929688 11.742188 34.277344 -0.613281 50.128906 0 L 11.9375 0 C 12.808594 0.5 13.230469 1.523438 12.972656 2.492188 C 12.710938 3.460938 11.832031 4.136719 10.832031 4.136719 C 9.828125 4.136719 8.949219 3.460938 8.6875 2.492188 C 8.429688 1.523438 8.851563 0.5 9.722656 0 L 9.722656 12.367188 C 6.308594 12.367188 3.539063 9.597656 3.539063 6.183594 C 3.539063 2.769531 6.308594 0 9.722656 0 L 43.554688 0 C 43.554688 9.34375 35.980469 16.917969 26.640625 16.917969 C 17.296875 16.917969 9.722656 9.34375 9.722656 0 Z M 47.910156 57.398438 "/>
<path style=" stroke:none;fill-rule:nonzero;fill:url(#linear0);" d="M 40.132813 65.179688 C 22.136719 64.566406 8.039063 49.480469 8.652344 31.480469 C 9.265625 13.480469 24.351563 -0.613281 42.351563 0 L 4.160156 0 C 5.054688 0.503906 5.496094 1.546875 5.234375 2.539063 C 4.972656 3.527344 4.078125 4.21875 3.054688 4.21875 C 2.027344 4.21875 1.132813 3.527344 0.871094 2.539063 C 0.609375 1.546875 1.050781 0.503906 1.945313 0 L 1.945313 20.144531 C -3.617188 20.144531 -8.128906 15.636719 -8.128906 10.070313 C -8.128906 4.507813 -3.617188 0 1.945313 0 L 35.777344 0 C 35.777344 9.34375 28.203125 16.917969 18.859375 16.917969 C 9.519531 16.917969 1.945313 9.34375 1.945313 0 Z M 40.132813 65.179688 "/>
<path style=" stroke:none;fill-rule:nonzero;fill:rgb(0%,18.823529%,40.392157%);fill-opacity:1;" d="M 7.542969 28.429688 C -0.304688 30.511719 -8.359375 25.835938 -10.441406 17.984375 C -12.523438 10.136719 -7.851563 2.082031 0 0 L 19.054688 0 C 19.078125 -2.289063 20.941406 -4.128906 23.230469 -4.121094 C 25.515625 -4.113281 27.371094 -2.261719 27.378906 0.0273438 C 27.382813 2.3125 25.542969 4.179688 23.253906 4.199219 L 11.667969 4.199219 C 13.332031 5.136719 14.152344 7.078125 13.667969 8.925781 C 13.183594 10.773438 11.515625 12.058594 9.605469 12.058594 C 7.695313 12.058594 6.027344 10.773438 5.542969 8.925781 C 5.058594 7.078125 5.882813 5.136719 7.542969 4.199219 Z M 7.542969 28.429688 "/>
<path style=" stroke:none;fill-rule:nonzero;fill:rgb(31.372549%,90.196078%,100%);fill-opacity:1;" d="M 14.699219 28.429688 C 14.699219 29.972656 13.445313 31.226563 11.898438 31.226563 C 10.355469 31.226563 9.101563 29.972656 9.101563 28.429688 C 9.101563 26.882813 10.355469 25.628906 11.898438 25.628906 C 13.445313 25.628906 14.699219 26.882813 14.699219 28.429688 Z M 14.699219 28.429688 "/>
<path style=" stroke:none;fill-rule:nonzero;fill:url(#linear1);" d="M 68.054688 54.753906 C 69.089844 58.652344 68.261719 62.8125 65.8125 66.015625 C 63.363281 69.21875 59.566406 71.105469 55.535156 71.128906 C 63.988281 71.445313 70.636719 78.457031 70.503906 86.917969 L 99.246094 86.917969 C 99.246094 94.851563 92.8125 101.285156 84.875 101.285156 C 76.9375 101.285156 70.503906 94.851563 70.503906 86.917969 Z M 68.054688 54.753906 "/>
<path style=" stroke:none;fill-rule:nonzero;fill:rgb(94.901961%,94.901961%,94.901961%);fill-opacity:1;" d="M 52.929688 56.195313 L 52.929688 43.128906 L 49.3125 43.128906 L 49.3125 59.148438 L 58.839844 59.148438 L 58.839844 56.195313 Z M 25.316406 49.777344 C 28.824219 45.515625 35.058594 44.742188 39.5 48.023438 C 43.941406 51.300781 45.042969 57.484375 42 62.09375 C 38.960938 66.703125 32.84375 68.125 28.082031 65.335938 C 23.320313 62.542969 21.574219 56.507813 24.109375 51.605469 L 25.355469 52.851563 L 25.355469 58.371094 C 25.484375 54.015625 25.839844 50.484375 26.148438 50.484375 C 26.460938 50.484375 26.609375 54.015625 26.484375 58.371094 L 26.484375 55.027344 C 26.976563 57.238281 26.773438 59.546875 25.898438 61.640625 L 30.101563 65.839844 L 35.351563 65.839844 C 34.207031 67.582031 34.183594 70.089844 35.296875 71.804688 C 36.410156 73.519531 38.339844 73.953125 39.886719 72.832031 C 41.433594 71.710938 42.160156 69.359375 41.609375 67.238281 C 41.472656 66.535156 41.808594 65.820313 42.441406 65.480469 C 43.078125 65.140625 43.859375 65.257813 44.367188 65.765625 C 44.875 66.273438 44.992188 67.054688 44.652344 67.691406 C 44.3125 68.324219 43.601563 68.664063 42.894531 68.523438 L 45.929688 68.523438 L 45.929688 72.101563 C 45.011719 76.554688 40.871094 79.59375 36.34375 79.132813 C 31.820313 78.671875 28.375 74.859375 28.375 70.3125 C 28.375 65.761719 31.820313 61.953125 36.34375 61.488281 C 40.871094 61.027344 45.011719 64.066406 45.929688 68.523438 C 45.832031 66.816406 46.800781 65.230469 48.363281 64.53125 C 49.921875 63.835938 51.75 64.171875 52.957031 65.378906 C 54.167969 66.589844 54.503906 68.417969 53.808594 69.976563 C 53.109375 71.535156 51.523438 72.503906 49.816406 72.410156 L 58.605469 72.410156 Z M 45.382813 55.921875 C 45.289063 52.214844 47.460938 48.828125 50.867188 47.363281 C 54.273438 45.902344 58.226563 46.664063 60.847656 49.285156 C 63.46875 51.90625 64.230469 55.859375 62.769531 59.265625 C 61.304688 62.671875 57.917969 64.84375 54.210938 64.75 L 60.820313 64.75 C 62.332031 66.859375 62.75 69.554688 61.949219 72.023438 C 61.292969 68.214844 63.179688 64.421875 66.609375 62.644531 C 70.039063 60.867188 74.226563 61.515625 76.957031 64.246094 C 79.691406 66.980469 80.339844 71.164063 78.5625 74.597656 C 76.785156 78.027344 72.992188 79.910156 69.183594 79.253906 L 69.183594 83.144531 L 72.488281 87.035156 L 46.667969 87.035156 L 42.039063 82.753906 C 42.144531 75.261719 48.308594 69.269531 55.804688 69.378906 C 63.300781 69.484375 69.289063 75.648438 69.183594 83.144531 Z M 41.765625 54.949219 C 42.078125 53.367188 43.402344 52.179688 45.007813 52.042969 C 46.617188 51.90625 48.121094 52.851563 48.695313 54.363281 C 49.269531 55.871094 48.773438 57.578125 47.480469 58.542969 C 46.191406 59.511719 44.414063 59.503906 43.128906 58.527344 L 48.960938 64.359375 L 54.523438 64.359375 C 53.179688 66.222656 54.042969 68.589844 56.449219 69.652344 C 58.855469 70.71875 61.90625 70.082031 63.269531 68.226563 C 64.632813 66.375 63.800781 64.003906 61.40625 62.921875 C 62.996094 61.332031 65.570313 61.332031 67.160156 62.921875 C 68.75 64.511719 68.75 67.089844 67.160156 68.679688 L 67.160156 72.566406 Z M 41.765625 54.949219 "/>
</g>
</svg>
