<?xml version="1.0" encoding="UTF-8"?>
<svg xmlns="http://www.w3.org/2000/svg" xmlns:xlink="http://www.w3.org/1999/xlink" width="70pt" height="70pt" viewBox="0 0 70 70" version="1.1">
<g id="surface1">
<path style=" stroke:none;fill-rule:nonzero;fill:rgb(0%,0%,0%);fill-opacity:1;" d="M 10.542969 37.1875 L 17.5 44.1875 L 14.394531 47.292969 L 2.1875 35 L 14.480469 22.707031 L 17.5 25.8125 L 10.542969 32.8125 L 24.0625 32.8125 L 24.0625 37.1875 Z M 44.1875 52.5 L 47.292969 55.605469 L 35 67.8125 L 22.707031 55.519531 L 25.8125 52.5 L 32.8125 59.542969 L 32.8125 45.9375 L 37.1875 45.9375 L 37.1875 59.457031 Z M 25.945313 17.5 L 22.882813 14.4375 L 35 2.1875 L 47.292969 14.480469 L 44.1875 17.5 L 37.1875 10.542969 L 37.1875 24.0625 L 32.8125 24.0625 L 32.8125 10.542969 Z M 67.8125 35 L 55.648438 47.117188 L 52.585938 44.054688 L 59.457031 37.1875 L 45.9375 37.1875 L 45.9375 32.8125 L 59.457031 32.8125 L 52.5 25.8125 L 55.605469 22.707031 Z M 67.8125 35 "/>
</g>
</svg>
