<?xml version="1.0" encoding="UTF-8"?>
<svg xmlns="http://www.w3.org/2000/svg" xmlns:xlink="http://www.w3.org/1999/xlink" width="70pt" height="70pt" viewBox="0 0 70 70" version="1.1">
<defs>
<linearGradient id="linear0" gradientUnits="userSpaceOnUse" x1="9" y1="17.5" x2="9" y2="0.5" gradientTransform="matrix(3.888889,0,0,3.888889,0,0)">
<stop offset="0" style="stop-color:rgb(0%,47.058824%,83.137255%);stop-opacity:1;"/>
<stop offset="0.82" style="stop-color:rgb(36.862745%,62.745098%,93.72549%);stop-opacity:1;"/>
</linearGradient>
</defs>
<g id="surface1">
<path style=" stroke:none;fill-rule:nonzero;fill:rgb(100%,100%,100%);fill-opacity:1;" d="M 38.890625 2.449219 L 10.617188 2.449219 C 10.550781 1.824219 10.753906 1.195313 11.175781 0.730469 C 11.601563 0.261719 12.203125 -0.00390625 12.832031 0 L 12.832031 60.667969 C -3.917969 60.667969 -17.5 47.085938 -17.5 30.332031 C -17.5 13.582031 -3.917969 0 12.832031 0 L 61.601563 0 C 61.601563 13.464844 50.683594 24.382813 37.214844 24.382813 C 23.75 24.382813 12.832031 13.464844 12.832031 0 L 12.832031 25.199219 C 5.875 25.824219 -0.273438 20.6875 -0.894531 13.726563 C -1.515625 6.769531 3.617188 0.621094 10.578125 0 L -5.601563 0 C -4.753906 0.5 -4.347656 1.503906 -4.609375 2.449219 C -4.867188 3.394531 -5.726563 4.050781 -6.707031 4.050781 C -7.691406 4.050781 -8.550781 3.394531 -8.808594 2.449219 C -9.066406 1.503906 -8.660156 0.5 -7.816406 0 L -7.816406 4.667969 C -9.105469 4.667969 -10.148438 3.621094 -10.148438 2.332031 C -10.148438 1.042969 -9.105469 0 -7.816406 0 Z M 38.890625 2.449219 "/>
<path style=" stroke:none;fill-rule:nonzero;fill:url(#linear0);" d="M 37.722656 5.289063 L 37.722656 20.535156 C 32.050781 30.949219 19.011719 34.796875 8.59375 29.128906 C -1.820313 23.457031 -5.671875 10.417969 0 0 L 15.359375 0 L 15.359375 38.617188 L 11.316406 38.617188 L 11.316406 5.289063 L 37.722656 5.289063 M 38.890625 1.945313 L 10.265625 1.945313 C 10.421875 0.820313 11.386719 -0.0117188 12.523438 0 L 12.523438 61.601563 C -4.488281 61.601563 -18.277344 47.808594 -18.277344 30.800781 C -18.277344 13.789063 -4.488281 0 12.523438 0 L 61.988281 0 C 61.988281 13.660156 50.914063 24.734375 37.253906 24.734375 C 23.597656 24.734375 12.523438 13.660156 12.523438 0 L 12.523438 25.042969 C 5.605469 25.667969 -0.503906 20.566406 -1.128906 13.648438 C -1.75 6.734375 3.351563 0.621094 10.265625 0 L -6.144531 0 C -5.261719 0.511719 -4.828125 1.550781 -5.09375 2.539063 C -5.359375 3.523438 -6.25 4.207031 -7.273438 4.207031 C -8.292969 4.207031 -9.1875 3.523438 -9.449219 2.539063 C -9.714844 1.550781 -9.285156 0.511719 -8.398438 0 L -8.398438 -16.332031 C -3.890625 -16.332031 -0.234375 -12.675781 -0.234375 -8.167969 C -0.234375 -3.65625 -3.890625 0 -8.398438 0 Z M 38.890625 1.945313 "/>
<path style=" stroke:none;fill-rule:nonzero;fill:rgb(0%,47.058824%,83.137255%);fill-opacity:1;" d="M 61.132813 23.332031 L 40.289063 2.449219 L 40.289063 19.445313 C 34.917969 30.570313 21.546875 35.234375 10.421875 29.867188 C -0.703125 24.496094 -5.371094 11.125 0 0 Z M 61.132813 23.332031 "/>
<path style=" stroke:none;fill-rule:nonzero;fill:rgb(70.196078%,10.588235%,10.588235%);fill-opacity:1;" d="M 40.484375 43.476563 C 28.476563 43.476563 18.746094 33.746094 18.746094 21.738281 C 18.746094 9.734375 28.476563 0 40.484375 0 L 39.785156 14.117188 C 35.886719 13.921875 32.882813 10.605469 33.074219 6.707031 C 33.269531 2.808594 36.585938 -0.191406 40.484375 0 L 44.839844 -4.472656 L 39.121094 58.332031 C 23.015625 57.957031 10.261719 44.59375 10.636719 28.484375 C 11.011719 12.378906 24.375 -0.375 40.484375 0 Z M 40.484375 43.476563 "/>
<path style=" stroke:none;fill-rule:nonzero;fill:rgb(90.196078%,13.72549%,13.72549%);fill-opacity:1;" d="M 45.070313 36.207031 C 45.070313 30.578125 40.527344 26.015625 34.921875 26.015625 C 29.316406 26.015625 24.773438 30.578125 24.773438 36.207031 C 24.773438 41.832031 29.316406 46.394531 34.921875 46.394531 C 40.527344 46.394531 45.070313 41.832031 45.070313 36.207031 Z M 45.070313 36.207031 "/>
<path style=" stroke:none;fill-rule:nonzero;fill:rgb(100%,83.137255%,0%);fill-opacity:1;" d="M 42.621094 36.207031 C 42.621094 31.929688 39.175781 28.464844 34.921875 28.464844 C 30.667969 28.464844 27.222656 31.929688 27.222656 36.207031 C 27.222656 40.480469 30.667969 43.945313 34.921875 43.945313 C 39.175781 43.945313 42.621094 40.480469 42.621094 36.207031 Z M 42.621094 36.207031 "/>
</g>
</svg>
