<?xml version="1.0" encoding="UTF-8"?>
<svg xmlns="http://www.w3.org/2000/svg" xmlns:xlink="http://www.w3.org/1999/xlink" width="70pt" height="70pt" viewBox="0 0 70 70" version="1.1">
<defs>
<linearGradient id="linear0" gradientUnits="userSpaceOnUse" x1="9" y1="12.46" x2="9" y2="1.18" gradientTransform="matrix(3.888889,0,0,3.888889,0,0)">
<stop offset="0" style="stop-color:rgb(0%,47.058824%,83.137255%);stop-opacity:1;"/>
<stop offset="0.82" style="stop-color:rgb(36.862745%,62.745098%,93.72549%);stop-opacity:1;"/>
</linearGradient>
<linearGradient id="linear1" gradientUnits="userSpaceOnUse" x1="9" y1="16.82" x2="9" y2="12.46" gradientTransform="matrix(3.888889,0,0,3.888889,0,0)">
<stop offset="0.15" style="stop-color:rgb(80%,80%,80%);stop-opacity:1;"/>
<stop offset="1" style="stop-color:rgb(43.921569%,43.921569%,43.921569%);stop-opacity:1;"/>
</linearGradient>
<radialGradient id="radial0" gradientUnits="userSpaceOnUse" cx="9.43" cy="7.03" fx="9.43" fy="7.03" r="7.27" gradientTransform="matrix(3.888889,0,0,3.888889,0,0)">
<stop offset="0" style="stop-color:rgb(94.901961%,94.901961%,94.901961%);stop-opacity:1;"/>
<stop offset="0.58" style="stop-color:rgb(93.333333%,93.333333%,93.333333%);stop-opacity:1;"/>
<stop offset="1" style="stop-color:rgb(90.196078%,90.196078%,90.196078%);stop-opacity:1;"/>
</radialGradient>
</defs>
<g id="surface1">
<path style=" stroke:none;fill-rule:nonzero;fill:url(#linear0);" d="M 4.277344 4.589844 L 65.683594 4.589844 C 66.886719 4.589844 67.859375 5.5625 67.859375 6.765625 L 67.859375 46.238281 C 67.859375 47.441406 66.886719 48.417969 65.683594 48.417969 L 4.277344 48.417969 C 3.074219 48.417969 2.101563 47.441406 2.101563 46.238281 L 2.101563 6.765625 C 2.101563 5.5625 3.074219 4.589844 4.277344 4.589844 Z M 4.277344 4.589844 "/>
<path style=" stroke:none;fill-rule:nonzero;fill:url(#linear1);" d="M 48.183594 61.714844 C 41.6875 60.707031 41.417969 56 41.457031 48.457031 L 28.542969 48.457031 C 28.542969 56 28.3125 60.707031 21.816406 61.714844 C 4.773438 60.644531 -8.171875 45.957031 -7.097656 28.914063 C -6.023438 11.871094 8.664063 -1.074219 25.707031 0 L 58.605469 0 C 57.402344 0.695313 55.917969 0.695313 54.714844 0 Z M 48.183594 61.714844 "/>
<path style=" stroke:none;fill-rule:nonzero;fill:url(#radial0);" d="M 50.828125 30.683594 L 50.828125 17.148438 L 46.9375 17.148438 L 46.9375 33.679688 L 56.777344 33.679688 L 56.777344 30.683594 Z M 22.285156 23.996094 C 25.042969 20.976563 29.664063 20.609375 32.867188 23.152344 C 36.066406 25.695313 36.75 30.285156 34.429688 33.652344 C 32.109375 37.019531 27.582031 38.015625 24.0625 35.933594 C 20.542969 33.847656 19.238281 29.398438 21.078125 25.746094 L 22.476563 27.144531 L 22.476563 32.707031 C 22.613281 28.007813 22.976563 24.203125 23.285156 24.203125 C 23.597656 24.203125 23.742188 28.007813 23.605469 32.707031 L 23.605469 29.285156 C 24.113281 31.539063 23.882813 33.898438 22.945313 36.011719 L 27.300781 40.367188 C 24.121094 36.34375 24.628906 30.539063 28.460938 27.128906 C 32.292969 23.71875 38.117188 23.890625 41.746094 27.515625 C 45.371094 31.144531 45.542969 36.96875 42.132813 40.800781 C 38.722656 44.632813 32.917969 45.140625 28.894531 41.960938 L 28.894531 45.851563 C 29.097656 47.988281 30.136719 49.355469 31.207031 48.90625 C 32.28125 48.453125 32.988281 46.355469 32.785156 44.214844 C 32.285156 60.019531 30.902344 72.445313 29.699219 71.972656 C 28.496094 71.5 27.929688 58.308594 28.429688 42.503906 L 28.429688 46.394531 C 28.003906 42.664063 29.984375 39.078125 33.367188 37.449219 C 36.746094 35.820313 40.789063 36.503906 43.441406 39.160156 C 46.09375 41.8125 46.78125 45.851563 45.152344 49.234375 C 43.523438 52.613281 39.933594 54.59375 36.207031 54.171875 L 36.207031 55.882813 C 36.234375 54.84375 35.871094 53.835938 35.195313 53.082031 C 34.445313 53.167969 33.6875 53.167969 32.9375 53.082031 Z M 43.050781 30.371094 C 43.136719 25.257813 47.320313 21.167969 52.433594 21.195313 C 57.546875 21.222656 61.6875 25.363281 61.714844 30.476563 C 61.742188 35.589844 57.652344 39.773438 52.539063 39.859375 L 59.734375 39.859375 C 64.140625 40.019531 67.714844 39.183594 67.714844 37.992188 C 67.714844 36.800781 64.140625 35.703125 59.734375 35.542969 C 59.777344 30.226563 59.152344 26.613281 58.335938 27.472656 C 57.519531 28.332031 56.820313 33.339844 56.777344 38.65625 C 60.0625 40.621094 61.863281 44.351563 61.367188 48.144531 L 68.832031 48.144531 C 67.550781 48.980469 67.121094 50.757813 67.863281 52.144531 C 68.609375 53.535156 70.257813 54.027344 71.574219 53.257813 C 72.894531 52.488281 73.402344 50.738281 72.722656 49.3125 L 76.144531 53.199219 L 80.964844 53.199219 L 76.261719 48.6875 C 79.71875 48.996094 82.417969 51.820313 82.566406 55.289063 C 82.714844 58.757813 80.269531 61.800781 76.847656 62.402344 C 73.425781 63.003906 70.089844 60.976563 69.046875 57.664063 C 68.003906 54.351563 69.574219 50.78125 72.722656 49.3125 Z M 39.160156 29.359375 C 39.453125 27.753906 40.777344 26.535156 42.40625 26.378906 C 44.03125 26.222656 45.566406 27.164063 46.160156 28.683594 C 46.757813 30.207031 46.269531 31.9375 44.96875 32.925781 C 43.667969 33.917969 41.867188 33.921875 40.5625 32.9375 L 46.589844 38.964844 L 52.695313 38.964844 C 51.367188 40.828125 52.246094 43.179688 54.664063 44.238281 C 57.078125 45.296875 60.136719 44.667969 61.515625 42.828125 C 62.894531 40.988281 62.082031 38.625 59.695313 37.527344 C 61.464844 35.757813 64.339844 35.757813 66.109375 37.527344 C 67.882813 39.300781 67.882813 42.171875 66.109375 43.945313 L 66.109375 47.832031 Z M 39.160156 29.359375 "/>
</g>
</svg>
