<?xml version="1.0" encoding="UTF-8"?>
<svg xmlns="http://www.w3.org/2000/svg" xmlns:xlink="http://www.w3.org/1999/xlink" width="70pt" height="70pt" viewBox="0 0 70 70" version="1.1">
<defs>
<linearGradient id="linear0" gradientUnits="userSpaceOnUse" x1="2.44" y1="10.67" x2="15.27" y2="10.67" gradientTransform="matrix(3.888889,-0.000678739,0.000678739,3.888889,0.544444,-1.944444)">
<stop offset="0" style="stop-color:rgb(0%,35.686275%,63.137255%);stop-opacity:1;"/>
<stop offset="0.07" style="stop-color:rgb(0%,37.647059%,66.27451%);stop-opacity:1;"/>
<stop offset="0.36" style="stop-color:rgb(0%,44.313725%,78.431373%);stop-opacity:1;"/>
<stop offset="0.52" style="stop-color:rgb(0%,47.058824%,83.137255%);stop-opacity:1;"/>
<stop offset="0.64" style="stop-color:rgb(0%,45.490196%,80.392157%);stop-opacity:1;"/>
<stop offset="0.82" style="stop-color:rgb(0%,41.568627%,73.333333%);stop-opacity:1;"/>
<stop offset="1" style="stop-color:rgb(0%,35.686275%,63.137255%);stop-opacity:1;"/>
</linearGradient>
</defs>
<g id="surface1">
<path style=" stroke:none;fill-rule:nonzero;fill:url(#linear0);" d="M 35 19.988281 C 21.234375 19.988281 10.070313 16.101563 10.070313 10.964844 L 10.070313 59.035156 C 10.070313 63.972656 21.039063 67.976563 34.648438 68.054688 L 35 68.054688 C 48.765625 68.054688 59.929688 64.167969 59.929688 59.035156 L 59.929688 10.964844 C 59.929688 15.945313 48.765625 19.988281 35 19.988281 Z M 35 19.988281 "/>
<path style=" stroke:none;fill-rule:nonzero;fill:rgb(90.980392%,90.980392%,90.980392%);fill-opacity:1;" d="M 59.929688 10.964844 C 59.929688 15.945313 48.765625 19.988281 35 19.988281 C 21.234375 19.988281 10.070313 16.101563 10.070313 10.964844 C 10.070313 5.832031 21.234375 1.945313 35 1.945313 C 48.765625 1.945313 59.929688 5.832031 59.929688 10.964844 "/>
<path style=" stroke:none;fill-rule:nonzero;fill:rgb(31.372549%,90.196078%,100%);fill-opacity:1;" d="M 54.09375 10.226563 C 54.09375 13.417969 45.539063 15.984375 35 15.984375 C 24.460938 15.984375 15.867188 13.417969 15.867188 10.265625 C 15.867188 7.117188 24.421875 4.511719 35 4.511719 C 45.578125 4.511719 54.09375 7.078125 54.09375 10.226563 "/>
<path style=" stroke:none;fill-rule:nonzero;fill:rgb(9.803922%,54.117647%,70.196078%);fill-opacity:1;" d="M 35 11.667969 C 43.613281 25.171875 44.457031 42.21875 37.214844 56.503906 L 81.820313 56.503906 Z M 35 11.667969 "/>
<path style=" stroke:none;fill-rule:nonzero;fill:rgb(94.901961%,94.901961%,94.901961%);fill-opacity:1;" d="M 46.667969 35 L 46.667969 36.632813 C 39.5 33.042969 35.183594 25.503906 35.71875 17.503906 C 36.253906 9.503906 41.535156 2.605469 49.117188 0 C 49.117188 0.464844 49.117188 1.167969 49.3125 1.789063 C 49.503906 2.410156 49.3125 2.839844 49.3125 3.1875 C 46.945313 0.96875 46.570313 -2.648438 48.421875 -5.308594 C 50.277344 -7.972656 53.804688 -8.867188 56.703125 -7.417969 C 59.605469 -5.96875 61.003906 -2.609375 59.988281 0.472656 C 58.972656 3.550781 55.851563 5.421875 52.65625 4.859375 L 53.042969 5.328125 C 67.382813 22.796875 64.894531 48.570313 47.480469 62.972656 C 30.066406 77.378906 4.28125 74.984375 -10.1875 57.625 C -24.652344 40.261719 -22.355469 14.46875 -5.050781 -0.0625 C 12.257813 -14.59375 38.058594 -12.394531 52.65625 4.859375 C 53.746094 1.167969 53.859375 -1.476563 53.003906 -2.605469 C 55.257813 1.894531 53.828125 7.367188 49.660156 10.1875 Z M 45.460938 35.3125 C 38.523438 35.214844 32.976563 29.511719 33.074219 22.574219 C 33.171875 15.636719 38.875 10.09375 45.8125 10.1875 C 44.683594 10.890625 45.035156 12.328125 45.8125 14.078125 C 56.304688 22.550781 59.910156 36.953125 54.648438 49.371094 C 49.390625 61.789063 36.535156 69.21875 23.148438 67.578125 C 9.761719 65.9375 -0.914063 55.625 -3.019531 42.304688 C -5.125 28.980469 1.851563 15.878906 14.078125 10.1875 L 14.429688 10.8125 C 14.621094 11.121094 14.738281 11.394531 14.855469 11.589844 L 15.167969 12.09375 C 18.238281 9.023438 23.21875 9.023438 26.289063 12.09375 C 29.359375 15.164063 29.359375 20.144531 26.289063 23.214844 C 26.289063 22.554688 26.289063 21.816406 26.09375 21.3125 C 17.960938 11.570313 18.933594 -2.84375 28.300781 -11.402344 C 37.664063 -19.960938 52.105469 -19.636719 61.078125 -10.667969 C 70.050781 -1.695313 70.375 12.746094 61.8125 22.113281 C 53.253906 31.476563 38.839844 32.449219 29.101563 24.316406 Z M 44.292969 36.90625 C 44.402344 36.1875 44.996094 35.640625 45.722656 35.589844 C 46.445313 35.535156 47.109375 35.992188 47.320313 36.6875 C 47.53125 37.382813 47.234375 38.132813 46.601563 38.492188 C 45.96875 38.851563 45.171875 38.726563 44.683594 38.1875 C 44.683594 37.917969 45.109375 37.683594 45.617188 37.605469 L 46.355469 37.605469 C 46.355469 37.605469 46.707031 37.605469 46.707031 37.917969 C 46.464844 37.632813 46.460938 37.214844 46.699219 36.925781 C 46.933594 36.636719 47.339844 36.554688 47.667969 36.730469 C 48 36.910156 48.15625 37.292969 48.042969 37.648438 C 47.929688 38.003906 47.582031 38.230469 47.210938 38.1875 Z M 26.054688 40.367188 L 26.054688 39.707031 C 32.015625 33.746094 41.679688 33.746094 47.640625 39.707031 C 53.597656 45.664063 53.597656 55.328125 47.640625 61.289063 L 47.640625 66.34375 C 47.863281 68.796875 47.597656 71.269531 46.859375 73.617188 L 54.640625 81.394531 L 102.355469 81.394531 C 103.679688 85.828125 105.195313 88.550781 106.515625 88.976563 C 107.101563 89.171875 107.722656 88.976563 108.34375 88.160156 C 109.433594 86.839844 110.445313 85.710938 111.027344 85.050781 C 112.652344 87.878906 112.207031 91.445313 109.929688 93.785156 C 107.65625 96.128906 104.105469 96.675781 101.226563 95.132813 C 98.351563 93.585938 96.847656 90.324219 97.542969 87.132813 C 98.238281 83.945313 100.964844 81.601563 104.222656 81.394531 Z M 27.066406 41.921875 C 26.007813 38.207031 27.597656 34.25 30.925781 32.292969 C 34.253906 30.335938 38.484375 30.875 41.214844 33.605469 C 43.945313 36.335938 44.484375 40.566406 42.53125 43.898438 C 40.574219 47.226563 36.613281 48.8125 32.898438 47.753906 L 32.898438 49.117188 C 33.003906 49.042969 33.109375 49.042969 33.210938 49.117188 C 33.210938 48.457031 33.753906 47.640625 34.105469 46.785156 C 41.203125 39.683594 52.710938 39.683594 59.8125 46.785156 C 66.910156 53.882813 66.910156 65.390625 59.8125 72.488281 C 59.8125 72.140625 59.8125 71.75 59.578125 71.320313 C 59.851563 71.792969 59.890625 72.359375 59.683594 72.863281 C 59.480469 73.367188 59.050781 73.746094 58.527344 73.890625 L 57.75 73.890625 C 59.792969 76.007813 60.023438 79.285156 58.292969 81.667969 L 58.292969 84.464844 C 57.636719 85.894531 56.074219 86.671875 54.539063 86.332031 C 53.007813 85.996094 51.914063 84.636719 51.914063 83.066406 C 51.914063 81.496094 53.007813 80.136719 54.539063 79.800781 C 56.074219 79.464844 57.636719 80.238281 58.292969 81.667969 L 58.292969 83.183594 Z M 29.632813 36.710938 C 28.882813 37.019531 28.433594 37.792969 28.539063 38.597656 C 28.640625 39.402344 29.277344 40.035156 30.082031 40.140625 C 30.882813 40.246094 31.660156 39.796875 31.964844 39.042969 C 32.316406 39.042969 32.355469 39.472656 32.316406 39.589844 C 32.347656 38.921875 32.839844 38.363281 33.496094 38.242188 C 34.152344 38.125 34.808594 38.472656 35.074219 39.085938 C 35.339844 39.699219 35.148438 40.417969 34.609375 40.816406 C 34.074219 41.214844 33.332031 41.1875 32.820313 40.753906 L 34.144531 42.078125 Z M 32.511719 48.378906 C 30.769531 48.3125 29.414063 46.851563 29.476563 45.109375 C 29.542969 43.371094 31.003906 42.011719 32.746094 42.078125 L 32.199219 42.738281 C 31.539063 43.554688 31.265625 43.828125 29.359375 44.214844 C 29.945313 44.816406 30.097656 45.710938 29.75 46.472656 L 34.339844 46.472656 L 35.855469 45.460938 C 35.46875 44.414063 35.859375 43.242188 36.800781 42.640625 C 37.738281 42.039063 38.96875 42.171875 39.757813 42.960938 C 40.546875 43.746094 40.679688 44.980469 40.078125 45.917969 C 39.476563 46.855469 38.300781 47.25 37.253906 46.859375 L 37.839844 46.859375 Z M 50.4375 48.378906 C 50.667969 44.96875 53.5625 42.355469 56.976563 42.46875 C 60.394531 42.585938 63.101563 45.386719 63.101563 48.804688 C 63.101563 52.222656 60.394531 55.027344 56.976563 55.140625 C 53.5625 55.257813 50.667969 52.644531 50.4375 49.234375 L 51.605469 50.398438 L 55.84375 50.398438 L 60.121094 50.011719 Z M 41.105469 40.054688 C 40.5625 38.460938 39.785156 36.167969 41.804688 34.765625 C 46.015625 36.710938 47.851563 41.699219 45.910156 45.910156 C 43.964844 50.117188 38.976563 51.953125 34.765625 50.011719 L 34.378906 49.621094 L 34.144531 49.390625 C 36.65625 49.453125 38.640625 51.542969 38.578125 54.054688 C 38.511719 56.570313 36.425781 58.554688 33.910156 58.488281 C 34.054688 58.484375 34.195313 58.484375 34.339844 58.488281 C 40.609375 57.414063 46.566406 61.628906 47.640625 67.898438 C 48.710938 74.171875 44.5 80.125 38.226563 81.199219 L 44.683594 87.65625 L 44.683594 94.539063 C 47.023438 81.324219 49.746094 74.25 51.011719 78.105469 C 52.277344 81.960938 51.679688 95.515625 49.621094 109.589844 C 49.390625 110.25 49.078125 110.949219 48.921875 111.496094 C 49.273438 110.703125 50.109375 110.238281 50.96875 110.359375 C 51.828125 110.480469 52.503906 111.15625 52.625 112.015625 C 52.746094 112.875 52.28125 113.707031 51.488281 114.0625 L 35 114.0625 L 35 114.996094 C 25.839844 104.699219 26.527344 88.988281 36.550781 79.535156 C 46.574219 70.078125 62.300781 70.308594 72.042969 80.050781 C 81.785156 89.792969 82.015625 105.519531 72.558594 115.542969 C 63.105469 125.566406 47.394531 126.253906 37.101563 117.09375 L 37.101563 118.300781 C 37.085938 122.714844 36.78125 127.207031 36.414063 128.332031 C 36.050781 129.460938 35.765625 126.796875 35.777344 122.382813 C 36.050781 120.632813 36.632813 115.773438 36.710938 114.605469 C 36.570313 113.421875 37.195313 112.277344 38.269531 111.757813 C 39.34375 111.234375 40.628906 111.453125 41.472656 112.296875 C 42.316406 113.140625 42.53125 114.425781 42.011719 115.496094 C 41.488281 116.570313 40.347656 117.195313 39.160156 117.054688 L 39.160156 120.945313 Z M 41.105469 40.054688 "/>
</g>
</svg>
