<?xml version="1.0" encoding="UTF-8"?>
<svg xmlns="http://www.w3.org/2000/svg" xmlns:xlink="http://www.w3.org/1999/xlink" width="70pt" height="70pt" viewBox="0 0 70 70" version="1.1">
<defs>
<radialGradient id="radial0" gradientUnits="userSpaceOnUse" cx="9" cy="9" fx="9" fy="9" r="8.5" gradientTransform="matrix(3.888889,0,0,3.888889,0,0)">
<stop offset="0.18" style="stop-color:rgb(36.862745%,62.745098%,93.72549%);stop-opacity:1;"/>
<stop offset="0.56" style="stop-color:rgb(36.078431%,62.352941%,93.333333%);stop-opacity:1;"/>
<stop offset="0.69" style="stop-color:rgb(33.333333%,61.176471%,92.941176%);stop-opacity:1;"/>
<stop offset="0.78" style="stop-color:rgb(29.019608%,59.215686%,91.372549%);stop-opacity:1;"/>
<stop offset="0.86" style="stop-color:rgb(22.352941%,56.470588%,89.411765%);stop-opacity:1;"/>
<stop offset="0.93" style="stop-color:rgb(13.72549%,52.941176%,87.058824%);stop-opacity:1;"/>
<stop offset="0.99" style="stop-color:rgb(3.137255%,48.235294%,83.921569%);stop-opacity:1;"/>
<stop offset="1" style="stop-color:rgb(0%,47.058824%,83.137255%);stop-opacity:1;"/>
</radialGradient>
<radialGradient id="radial1" gradientUnits="userSpaceOnUse" cx="38.95" cy="182.07" fx="38.95" fy="182.07" r="9.88" gradientTransform="matrix(3.655556,0,0,3.655556,-111.65,-634.822222)">
<stop offset="0.27" style="stop-color:rgb(100%,84.313725%,5.882353%);stop-opacity:1;"/>
<stop offset="0.49" style="stop-color:rgb(100%,79.607843%,7.058824%);stop-opacity:1;"/>
<stop offset="0.88" style="stop-color:rgb(99.607843%,67.45098%,9.803922%);stop-opacity:1;"/>
<stop offset="1" style="stop-color:rgb(99.607843%,63.137255%,10.588235%);stop-opacity:1;"/>
</radialGradient>
<filter id="alpha" filterUnits="objectBoundingBox" x="0%" y="0%" width="100%" height="100%">
  <feColorMatrix type="matrix" in="SourceGraphic" values="0 0 0 0 1 0 0 0 0 1 0 0 0 0 1 0 0 0 1 0"/>
</filter>
<mask id="mask0">
  <g filter="url(#alpha)">
<rect x="0" y="0" width="70" height="70" style="fill:rgb(0%,0%,0%);fill-opacity:0.74902;stroke:none;"/>
  </g>
</mask>
<clipPath id="clip1">
  <rect x="0" y="0" width="70" height="70"/>
</clipPath>
<g id="surface5" clip-path="url(#clip1)">
<path style=" stroke:none;fill-rule:nonzero;fill:rgb(100%,57.647059%,0%);fill-opacity:1;" d="M 31.8125 59.5 C 15.378906 68.285156 -5.058594 62.085938 -13.84375 45.65625 C -22.628906 29.226563 -16.429688 8.785156 0 0 L 0 -15.554688 C -0.03125 -15.125 -0.351563 -14.769531 -0.777344 -14.699219 L -0.777344 0.855469 C -5.074219 0.855469 -8.554688 -2.625 -8.554688 -6.921875 C -8.554688 -11.21875 -5.074219 -14.699219 -0.777344 -14.699219 Z M 31.8125 59.5 "/>
</g>
<mask id="mask1">
  <g filter="url(#alpha)">
<rect x="0" y="0" width="70" height="70" style="fill:rgb(0%,0%,0%);fill-opacity:0.74902;stroke:none;"/>
  </g>
</mask>
<clipPath id="clip2">
  <rect x="0" y="0" width="70" height="70"/>
</clipPath>
<g id="surface8" clip-path="url(#clip2)">
<path style=" stroke:none;fill-rule:nonzero;fill:rgb(100%,57.647059%,0%);fill-opacity:1;" d="M 26.289063 22.515625 L 44.214844 22.515625 C 44.816406 22.515625 45.304688 23.003906 45.304688 23.605469 L 45.304688 23.800781 C 45.304688 24.402344 44.816406 24.890625 44.214844 24.890625 L 26.289063 24.890625 C 25.6875 24.890625 25.199219 24.402344 25.199219 23.800781 L 25.199219 23.605469 C 25.199219 23.003906 25.6875 22.515625 26.289063 22.515625 Z M 26.289063 22.515625 "/>
</g>
<mask id="mask2">
  <g filter="url(#alpha)">
<rect x="0" y="0" width="70" height="70" style="fill:rgb(0%,0%,0%);fill-opacity:0.74902;stroke:none;"/>
  </g>
</mask>
<clipPath id="clip3">
  <rect x="0" y="0" width="70" height="70"/>
</clipPath>
<g id="surface11" clip-path="url(#clip3)">
<path style=" stroke:none;fill-rule:nonzero;fill:rgb(100%,57.647059%,0%);fill-opacity:1;" d="M 26.289063 26.367188 L 44.214844 26.367188 C 44.816406 26.367188 45.304688 26.855469 45.304688 27.457031 L 45.304688 27.648438 C 45.304688 28.25 44.816406 28.738281 44.214844 28.738281 L 26.289063 28.738281 C 25.6875 28.738281 25.199219 28.25 25.199219 27.648438 L 25.199219 27.457031 C 25.199219 26.855469 25.6875 26.367188 26.289063 26.367188 Z M 26.289063 26.367188 "/>
</g>
</defs>
<g id="surface1">
<path style=" stroke:none;fill-rule:nonzero;fill:url(#radial0);" d="M 35 1.945313 C 42.957031 -10.957031 58.671875 -16.792969 73.121094 -12.210938 C 87.570313 -7.632813 97.054688 6.1875 96.128906 21.316406 C 95.203125 36.445313 84.105469 49.007813 69.203125 51.792969 C 54.304688 54.574219 39.421875 46.867188 33.09375 33.09375 Z M 35 63.542969 C 29.28125 74.242188 17.429688 80.160156 5.441406 78.296875 C -6.546875 76.4375 -16.046875 67.199219 -18.246094 55.269531 C -20.449219 43.339844 -14.867188 31.324219 -4.332031 25.304688 C 6.199219 19.289063 19.386719 20.589844 28.542969 28.542969 Z M 35 63.542969 "/>
<path style=" stroke:none;fill-rule:nonzero;fill:rgb(100%,100%,100%);fill-opacity:1;" d="M 63.542969 35 C 63.542969 50.765625 50.765625 63.542969 35 63.542969 C 19.234375 63.542969 6.457031 50.765625 6.457031 35 C 6.457031 19.234375 19.234375 6.457031 35 6.457031 C 50.765625 6.457031 63.542969 19.234375 63.542969 35 Z M 63.542969 35 "/>
<path style=" stroke:none;fill-rule:nonzero;fill:url(#radial1);" d="M 52.265625 28.503906 C 44.394531 42.9375 26.3125 48.257813 11.878906 40.386719 C -2.550781 32.515625 -7.871094 14.433594 0 0 L -12.25 -12.289063 C -10.066406 -11.011719 -8.722656 -8.671875 -8.722656 -6.144531 C -8.722656 -3.617188 -10.066406 -1.277344 -12.25 0 L 17.734375 18.433594 C 12.644531 26.714844 1.804688 29.296875 -6.476563 24.207031 C -14.753906 19.117188 -17.339844 8.28125 -12.25 0 L 27.921875 38.890625 C 17.183594 49.980469 -0.515625 50.269531 -11.609375 39.53125 C -22.703125 28.792969 -22.988281 11.09375 -12.25 0 L -12.25 18.976563 C -17.492188 18.976563 -21.738281 14.730469 -21.738281 9.488281 C -21.738281 4.25 -17.492188 0 -12.25 0 L -7.582031 4.667969 C -6.292969 3.378906 -6.292969 1.289063 -7.582031 0 C -8.871094 -1.289063 -10.960938 -1.289063 -12.25 0 L -5.09375 -7.15625 C -3.117188 -5.179688 -3.117188 -1.976563 -5.09375 0 C -7.070313 1.976563 -10.273438 1.976563 -12.25 0 L -14.15625 -1.90625 C -13.628906 -2.433594 -12.777344 -2.433594 -12.25 -1.90625 C -11.722656 -1.378906 -11.722656 -0.527344 -12.25 0 L -10.34375 -1.90625 C -9.816406 -1.378906 -9.816406 -0.527344 -10.34375 0 C -10.871094 0.527344 -11.722656 0.527344 -12.25 0 L -14.15625 -1.90625 C -13.628906 -2.433594 -12.777344 -2.433594 -12.25 -1.90625 C -11.722656 -1.378906 -11.722656 -0.527344 -12.25 0 L -10.34375 -1.90625 C -9.816406 -1.378906 -9.816406 -0.527344 -10.34375 0 C -10.871094 0.527344 -11.722656 0.527344 -12.25 0 L -14.894531 -2.683594 L -14.894531 -3.65625 Z M 35 9.140625 C 35 6.992188 36.742188 5.25 38.890625 5.25 C 41.035156 5.25 42.777344 6.992188 42.777344 9.140625 C 42.777344 11.285156 41.035156 13.027344 38.890625 13.027344 Z M 35 9.140625 "/>
<use xlink:href="#surface5" mask="url(#mask0)"/>
<use xlink:href="#surface8" mask="url(#mask1)"/>
<use xlink:href="#surface11" mask="url(#mask2)"/>
</g>
</svg>
