<?xml version="1.0" encoding="UTF-8"?>
<svg xmlns="http://www.w3.org/2000/svg" xmlns:xlink="http://www.w3.org/1999/xlink" width="70pt" height="70pt" viewBox="0 0 70 70" version="1.1">
<defs>
<linearGradient id="linear0" gradientUnits="userSpaceOnUse" x1="9" y1="12.68" x2="9" y2="0.68" gradientTransform="matrix(3.888889,0,0,3.888889,0,0)">
<stop offset="0" style="stop-color:rgb(0%,47.058824%,83.137255%);stop-opacity:1;"/>
<stop offset="0.82" style="stop-color:rgb(36.862745%,62.745098%,93.72549%);stop-opacity:1;"/>
</linearGradient>
<linearGradient id="linear1" gradientUnits="userSpaceOnUse" x1="9" y1="17.32" x2="9" y2="12.68" gradientTransform="matrix(3.888889,0,0,3.888889,0,0)">
<stop offset="0" style="stop-color:rgb(7.843137%,56.470588%,87.45098%);stop-opacity:1;"/>
<stop offset="0.98" style="stop-color:rgb(12.156863%,33.72549%,63.921569%);stop-opacity:1;"/>
</linearGradient>
</defs>
<g id="surface1">
<path style=" stroke:none;fill-rule:nonzero;fill:url(#linear0);" d="M 2.332031 2.644531 L 67.667969 2.644531 C 68.957031 2.644531 70 3.6875 70 4.976563 L 70 46.976563 C 70 48.265625 68.957031 49.3125 67.667969 49.3125 L 2.332031 49.3125 C 1.042969 49.3125 0 48.265625 0 46.976563 L 0 4.976563 C 0 3.6875 1.042969 2.644531 2.332031 2.644531 Z M 2.332031 2.644531 "/>
<path style=" stroke:none;fill-rule:nonzero;fill:rgb(100%,100%,100%);fill-opacity:1;" d="M 5.171875 6.535156 L 64.828125 6.535156 C 65.535156 6.535156 66.109375 7.109375 66.109375 7.816406 L 66.109375 44.140625 C 66.109375 44.847656 65.535156 45.421875 64.828125 45.421875 L 5.171875 45.421875 C 4.464844 45.421875 3.890625 44.847656 3.890625 44.140625 L 3.890625 7.816406 C 3.890625 7.109375 4.464844 6.535156 5.171875 6.535156 Z M 5.171875 6.535156 "/>
<path style=" stroke:none;fill-rule:nonzero;fill:url(#linear1);" d="M 49.039063 63.429688 C 42.117188 62.339844 41.84375 57.359375 41.882813 49.3125 L 28.117188 49.3125 C 28.117188 57.359375 27.882813 62.339844 20.960938 63.429688 C 3.445313 62.355469 -9.882813 47.285156 -8.808594 29.769531 C -7.734375 12.253906 7.335938 -1.074219 24.851563 0 L 59.851563 0 C 58.636719 0.65625 57.175781 0.65625 55.960938 0 Z M 49.039063 63.429688 "/>
<path style=" stroke:none;fill-rule:nonzero;fill:rgb(52.54902%,83.921569%,20%);fill-opacity:1;" d="M 33.378906 35.265625 L 30.765625 37.878906 C 20.304688 37.878906 11.824219 29.398438 11.824219 18.9375 C 11.824219 8.480469 20.304688 0 30.765625 0 L 18.832031 27.542969 C 11.230469 24.246094 7.734375 15.410156 11.027344 7.804688 C 14.324219 0.199219 23.160156 -3.292969 30.765625 0 L 32.578125 -1.816406 C 32.074219 -2.316406 31.261719 -2.316406 30.761719 -1.8125 C 30.261719 -1.3125 30.261719 -0.5 30.765625 0 L 41.765625 10.996094 Z M 33.378906 35.265625 "/>
<path style=" stroke:none;fill-rule:nonzero;fill:rgb(36.862745%,58.823529%,14.117647%);fill-opacity:1;" d="M 29.207031 37.847656 L 26.601563 35.234375 L 50.328125 11.503906 C 53.507813 -2.394531 44.816406 -16.238281 30.917969 -19.414063 C 17.019531 -22.589844 3.175781 -13.898438 0 0 L 1.789063 1.789063 C 1.292969 2.28125 0.492188 2.28125 0 1.789063 C -0.492188 1.292969 -0.492188 0.492188 0 0 L 30.777344 37.816406 C 20.335938 37.816406 11.867188 29.351563 11.867188 18.90625 C 11.867188 8.464844 20.335938 0 30.777344 0 Z M 29.207031 37.847656 "/>
</g>
</svg>
