<?xml version="1.0" encoding="UTF-8"?>
<svg xmlns="http://www.w3.org/2000/svg" xmlns:xlink="http://www.w3.org/1999/xlink" width="70pt" height="70pt" viewBox="0 0 70 70" version="1.1">
<defs>
<linearGradient id="linear0" gradientUnits="userSpaceOnUse" x1="9" y1="0.81" x2="9" y2="21.28" gradientTransform="matrix(3.888889,0,0,3.888889,0,0)">
<stop offset="0" style="stop-color:rgb(100%,84.313725%,5.882353%);stop-opacity:1;"/>
<stop offset="0.34" style="stop-color:rgb(93.333333%,70.196078%,3.529412%);stop-opacity:1;"/>
<stop offset="0.77" style="stop-color:rgb(86.27451%,54.901961%,1.176471%);stop-opacity:1;"/>
<stop offset="1" style="stop-color:rgb(83.529412%,49.019608%,0.392157%);stop-opacity:1;"/>
</linearGradient>
</defs>
<g id="surface1">
<path style=" stroke:none;fill-rule:nonzero;fill:url(#linear0);" d="M 68.054688 9.722656 L 68.054688 51.839844 C 53.742188 51.214844 42.640625 39.105469 43.265625 24.792969 C 43.886719 10.476563 55.996094 -0.621094 70.3125 0 L 52.734375 0 C 52.902344 -0.0976563 53.109375 -0.0976563 53.277344 0 L 53.277344 6.804688 C 51.398438 6.570313 50.066406 4.855469 50.304688 2.976563 C 50.539063 1.09375 52.253906 -0.234375 54.132813 0 L 43.554688 -8.089844 L 4.238281 -8.089844 C 6.472656 -7.464844 7.777344 -5.148438 7.15625 -2.917969 C 6.53125 -0.683594 4.21875 0.621094 1.984375 0 L 1.984375 9.722656 C -0.703125 9.722656 -2.878906 7.546875 -2.878906 4.859375 C -2.878906 2.175781 -0.703125 0 1.984375 0 L 63.503906 0 C 63.503906 16.988281 49.734375 30.761719 32.746094 30.761719 C 15.753906 30.761719 1.984375 16.988281 1.984375 0 Z M 68.054688 9.722656 "/>
<path style=" stroke:none;fill-rule:nonzero;fill:rgb(100%,89.411765%,32.156863%);fill-opacity:1;" d="M 7.972656 35 L 19.640625 44.800781 C 7.269531 50.222656 -7.15625 44.589844 -12.582031 32.21875 C -18.003906 19.847656 -12.371094 5.421875 0 0 L 0 -4.277344 L 46.511719 -4.277344 L 46.511719 33.054688 L 8.671875 33.054688 C -0.457031 32.519531 -7.421875 24.683594 -6.882813 15.554688 C -6.347656 6.425781 1.488281 -0.535156 10.617188 0 Z M 7.972656 35 "/>
<path style=" stroke:none;fill-rule:nonzero;fill:rgb(100%,100%,100%);fill-opacity:1;" d="M 63.15625 25.121094 L 51.0625 15.320313 C 46.828125 15.085938 43.589844 11.464844 43.828125 7.234375 C 44.0625 3.003906 47.6875 -0.234375 51.917969 0 L 51.917969 4.277344 L 1.945313 4.277344 L 1.945313 27.222656 L 62.457031 27.222656 C 54.9375 30.132813 46.484375 26.398438 43.574219 18.878906 C 40.664063 11.363281 44.398438 2.910156 51.917969 0 Z M 63.15625 25.121094 "/>
</g>
</svg>
