<?xml version="1.0" encoding="UTF-8"?>
<svg xmlns="http://www.w3.org/2000/svg" xmlns:xlink="http://www.w3.org/1999/xlink" width="70pt" height="70pt" viewBox="0 0 70 70" version="1.1">
<defs>
<linearGradient id="linear0" gradientUnits="userSpaceOnUse" x1="7.63" y1="15.34" x2="7.63" y2="5.84" gradientTransform="matrix(3.888889,0,0,3.888889,0,0)">
<stop offset="0" style="stop-color:rgb(80%,80%,80%);stop-opacity:1;"/>
<stop offset="0.15" style="stop-color:rgb(85.490196%,85.490196%,85.490196%);stop-opacity:1;"/>
<stop offset="0.44" style="stop-color:rgb(93.333333%,93.333333%,93.333333%);stop-opacity:1;"/>
<stop offset="0.72" style="stop-color:rgb(98.431373%,98.431373%,98.431373%);stop-opacity:1;"/>
<stop offset="1" style="stop-color:rgb(100%,100%,100%);stop-opacity:1;"/>
</linearGradient>
</defs>
<g id="surface1">
<path style=" stroke:none;fill-rule:nonzero;fill:rgb(31.372549%,90.196078%,100%);fill-opacity:1;" d="M 58.332031 18.550781 L 54.445313 18.550781 L 54.445313 68.328125 L 58.332031 60.820313 Z M 58.332031 18.550781 "/>
<path style=" stroke:none;fill-rule:nonzero;fill:rgb(61.176471%,92.156863%,100%);fill-opacity:1;" d="M 58.332031 60.785156 L 54.445313 68.289063 L 58.332031 65.179688 L 63.117188 61.484375 Z M 58.332031 60.785156 "/>
<path style=" stroke:none;fill-rule:nonzero;fill:rgb(63.921569%,63.921569%,63.921569%);fill-opacity:1;" d="M 32.628906 11.121094 C 29.554688 20.132813 19.761719 24.945313 10.753906 21.875 C 1.742188 18.804688 -3.070313 9.011719 0 0 L 0 7.429688 L 3.035156 7.429688 L 3.035156 11.121094 C 1.46875 14.660156 -2.152344 16.832031 -6.011719 16.539063 C -9.867188 16.25 -13.125 13.5625 -14.140625 9.832031 C -15.160156 6.101563 -13.71875 2.132813 -10.542969 -0.078125 C -7.367188 -2.285156 -3.144531 -2.253906 0 0 C 2.769531 -1.542969 6.136719 -1.542969 8.90625 0 L 8.90625 7.429688 L 11.9375 7.429688 Z M 32.628906 11.121094 "/>
<path style=" stroke:none;fill-rule:nonzero;fill:rgb(46.27451%,46.27451%,46.27451%);fill-opacity:1;" d="M 23.332031 11.121094 C 23.355469 7.761719 26.089844 5.046875 29.453125 5.054688 C 32.8125 5.0625 35.539063 7.785156 35.542969 11.148438 C 35.550781 14.511719 32.839844 17.246094 29.476563 17.265625 L 29.476563 24.695313 L 38.890625 24.695313 L 38.890625 11.121094 C 42.800781 11.4375 46.078125 14.207031 47.046875 18.007813 C 48.011719 21.8125 46.453125 25.808594 43.167969 27.957031 C 39.882813 30.101563 35.59375 29.917969 32.503906 27.503906 C 29.410156 25.089844 28.195313 20.976563 29.476563 17.265625 C 32.246094 15.722656 35.617188 15.722656 38.382813 17.265625 L 38.382813 24.695313 L 23.332031 24.695313 Z M 23.332031 11.121094 "/>
<path style=" stroke:none;fill-rule:nonzero;fill:rgb(19.607843%,74.509804%,86.666667%);fill-opacity:1;" d="M 54.132813 18.550781 L 54.132813 68.328125 L 5.640625 64.476563 L 7.117188 18.550781 Z M 58.140625 18.550781 L 58.140625 60.820313 L 62.921875 61.523438 L 61.484375 18.550781 Z M 58.140625 18.550781 "/>
<path style=" stroke:none;fill-rule:nonzero;fill:url(#linear0);" d="M 47.40625 47.871094 C 48.042969 50.5 47.453125 53.277344 45.808594 55.421875 C 44.160156 57.566406 41.632813 58.851563 38.929688 58.917969 C 41.703125 57.304688 45.132813 57.304688 47.910156 58.917969 L 48.765625 58.917969 L 64.945313 60.003906 L 65.371094 60.003906 C 65.070313 64.828125 60.917969 68.492188 56.097656 68.191406 C 51.277344 67.890625 47.609375 63.738281 47.910156 58.917969 Z M 47.40625 47.871094 "/>
</g>
</svg>
