<?xml version="1.0" encoding="UTF-8"?>
<svg xmlns="http://www.w3.org/2000/svg" xmlns:xlink="http://www.w3.org/1999/xlink" width="65pt" height="70pt" viewBox="0 0 65 70" version="1.1">
<g id="surface1">
<path style=" stroke:none;fill-rule:nonzero;fill:rgb(0%,0%,0%);fill-opacity:1;" d="M 51.070313 32.667969 L 51.070313 14 L 23.214844 14 L 23.214844 32.667969 Z M 27.855469 28 L 27.855469 18.667969 L 46.429688 18.667969 L 46.429688 28 Z M 27.855469 28 "/>
<path style=" stroke:none;fill-rule:nonzero;fill:rgb(0%,0%,0%);fill-opacity:1;" d="M 4.644531 0 L 4.644531 14 L 0 14 L 0 18.667969 L 4.644531 18.667969 L 4.644531 51.332031 L 0 51.332031 L 0 56 L 4.644531 56 L 4.644531 70 L 65 70 L 65 0 Z M 9.285156 65.332031 L 9.285156 56 L 13.929688 56 L 13.929688 51.332031 L 9.285156 51.332031 L 9.285156 18.667969 L 13.929688 18.667969 L 13.929688 14 L 9.285156 14 L 9.285156 4.667969 L 60.355469 4.667969 L 60.355469 65.332031 Z M 9.285156 65.332031 "/>
</g>
</svg>
