<?xml version="1.0" encoding="UTF-8"?>
<svg xmlns="http://www.w3.org/2000/svg" xmlns:xlink="http://www.w3.org/1999/xlink" width="70pt" height="70pt" viewBox="0 0 70 70" version="1.1">
<g id="surface1">
<path style=" stroke:none;fill-rule:nonzero;fill:rgb(0%,0%,0%);fill-opacity:1;" d="M 12.164063 35.65625 L 10.804688 35.65625 L 35.832031 59.585938 L 55.476563 39.070313 L 61.644531 39.070313 L 35.960938 65.625 L 5.730469 36.925781 C 10.375 30.996094 18.433594 28.953125 25.339844 31.953125 C 32.246094 34.953125 36.253906 42.242188 35.089844 49.679688 C 33.925781 57.117188 27.882813 62.832031 20.390625 63.578125 C 12.894531 64.324219 5.847656 59.914063 3.238281 52.851563 L 11.507813 52.851563 L 21 42.789063 L 36.617188 57.75 L 47.335938 46.59375 L 51.40625 30.625 L 63.570313 30.363281 C 63.039063 24.121094 66.46875 18.214844 72.148438 15.574219 C 77.828125 12.933594 84.554688 14.125 88.984375 18.554688 C 93.414063 22.984375 94.601563 29.707031 91.964844 35.390625 C 89.324219 41.070313 83.417969 44.496094 77.175781 43.96875 C 77.359375 46.300781 77.953125 47.257813 78.570313 46.21875 C 79.191406 45.175781 79.648438 42.453125 79.648438 39.808594 C 79.648438 37.167969 79.191406 35.398438 78.570313 35.652344 C 77.953125 35.902344 77.359375 38.101563 77.175781 40.820313 C 81.789063 45.808594 82.210938 53.371094 78.179688 58.84375 L 110.511719 91.175781 C 109.375 92.445313 108.238281 93.757813 107.011719 95.070313 C 105.757813 93.726563 104.535156 92.488281 103.335938 91.351563 C 103.574219 97.085938 102.449219 102.800781 100.054688 108.019531 L 112.570313 120.53125 L 127.050781 120.53125 C 127.984375 121.839844 130.015625 122.554688 131.96875 122.257813 C 133.921875 121.964844 135.292969 120.738281 135.292969 119.289063 C 135.292969 117.835938 133.921875 116.535156 131.96875 116.136719 C 130.015625 115.738281 127.984375 116.339844 127.050781 117.601563 L 122.675781 117.601563 C 117.46875 116.480469 113.945313 111.613281 114.507813 106.320313 C 115.070313 101.023438 119.539063 97.007813 124.863281 97.007813 C 130.1875 97.007813 134.652344 101.023438 135.214844 106.320313 C 135.777344 111.613281 132.257813 116.480469 127.050781 117.601563 L 127.050781 115.9375 C 126.945313 108.371094 131.433594 101.492188 138.40625 98.546875 C 145.378906 95.605469 153.4375 97.175781 158.789063 102.527344 C 164.140625 107.878906 165.714844 115.941406 162.769531 122.914063 C 159.824219 129.882813 152.949219 134.375 145.382813 134.269531 L 145.382813 183.09375 C 147.929688 151.367188 150.367188 131.523438 150.828125 138.773438 C 151.285156 146.023438 149.59375 177.617188 147.042969 209.34375 C 148.226563 210.394531 149.449219 211.574219 150.71875 212.800781 C 151.945313 211.488281 153.125 210.304688 154.261719 209.210938 C 152.261719 199.066406 157.132813 188.804688 166.253906 183.941406 C 175.378906 179.074219 186.613281 180.742188 193.925781 188.054688 C 201.238281 195.367188 202.910156 206.601563 198.042969 215.726563 C 193.175781 224.851563 182.914063 229.71875 172.769531 227.71875 C 172.9375 217.964844 180.921875 210.164063 190.675781 210.222656 C 200.429688 210.277344 208.320313 218.171875 208.378906 227.925781 C 208.433594 237.679688 200.632813 245.660156 190.882813 245.832031 L 190.882813 254.320313 C 192.933594 251.464844 195.074219 252.019531 196.515625 255.777344 C 197.953125 259.539063 198.472656 265.941406 197.882813 272.605469 L 49.65625 35 L 46.15625 31.585938 L 35.4375 42.65625 L 19.820313 27.648438 Z M 12.164063 35.65625 "/>
</g>
</svg>
