<?xml version="1.0" encoding="UTF-8"?>
<svg xmlns="http://www.w3.org/2000/svg" xmlns:xlink="http://www.w3.org/1999/xlink" width="70pt" height="70pt" viewBox="0 0 70 70" version="1.1">
<g id="surface1">
<path style=" stroke:none;fill-rule:nonzero;fill:rgb(0%,0%,0%);fill-opacity:1;" d="M 44.585938 41.019531 L 35.222656 50.828125 L 38.34375 53.949219 L 30.320313 61.527344 C 32.21875 56.417969 37.21875 53.128906 42.664063 53.414063 C 48.113281 53.695313 52.746094 57.480469 54.109375 62.761719 C 55.46875 68.042969 53.246094 73.59375 48.617188 76.476563 C 43.988281 79.359375 38.023438 78.902344 33.886719 75.351563 L 28.535156 74.457031 L 24.523438 72.230469 L 17.386719 78.917969 L 0 66.878906 L 6.6875 59.746094 C 12.402344 54.097656 21.136719 52.84375 28.210938 56.65625 C 35.285156 60.46875 39.039063 68.453125 37.460938 76.332031 C 35.886719 84.210938 29.351563 90.140625 21.355469 90.9375 C 13.359375 91.738281 5.777344 87.21875 2.675781 79.808594 L 16.941406 94.078125 L 16.941406 102.101563 L 24.523438 94.078125 L 28.089844 97.199219 L 37.453125 87.835938 L 40.574219 90.957031 L 31.210938 100.320313 L 40.574219 109.679688 L 49.9375 100.320313 Z M 19.617188 61.972656 L 23.628906 61.082031 C 34.957031 62.929688 42.644531 73.609375 40.796875 84.9375 C 38.949219 96.261719 28.269531 103.949219 16.941406 102.101563 L 21.847656 97.644531 L 5.796875 81.59375 L 1.335938 86.496094 L -1.335938 90.0625 C 2.175781 93.195313 3.859375 97.898438 3.121094 102.546875 L 5.796875 106.113281 L 9.363281 108.789063 Z M 63.3125 10.253906 C 65.554688 1.636719 73.679688 -4.113281 82.550781 -3.359375 C 91.425781 -2.605469 98.464844 4.433594 99.21875 13.308594 C 99.972656 22.179688 94.222656 30.304688 85.605469 32.546875 L 85.605469 37.007813 C 85.59375 42.132813 86.585938 45.488281 87.816406 44.503906 C 89.046875 43.519531 90.054688 38.566406 90.0625 33.441406 L 82.484375 41.464844 L 60.191406 19.171875 L 68.214844 11.59375 C 69.207031 5.273438 74.8125 0.726563 81.195313 1.058594 C 87.582031 1.390625 92.6875 6.492188 93.015625 12.878906 C 93.347656 19.265625 88.800781 24.871094 82.484375 25.859375 L 87.386719 25.859375 L 91.402344 28.089844 L 66.878906 0 L 70 3.121094 Z M 58.40625 27.199219 C 59.652344 22.09375 64.417969 18.644531 69.65625 19.0625 C 74.894531 19.484375 79.050781 23.640625 79.472656 28.878906 C 79.890625 34.117188 76.441406 38.882813 71.335938 40.128906 L 68.664063 36.558594 L 65.09375 34.332031 C 65.707031 36.296875 65.378906 38.4375 64.203125 40.128906 L 59.746094 40.128906 L 56.179688 42.800781 L 51.273438 47.261719 L 67.324219 63.3125 Z M 58.40625 27.199219 "/>
</g>
</svg>
