<?xml version="1.0" encoding="UTF-8"?>
<svg xmlns="http://www.w3.org/2000/svg" xmlns:xlink="http://www.w3.org/1999/xlink" width="70pt" height="70pt" viewBox="0 0 70 70" version="1.1">
<defs>
<linearGradient id="linear0" gradientUnits="userSpaceOnUse" x1="1.3" y1="8.6" x2="17.5" y2="8.6" gradientTransform="matrix(3.888889,0,0,3.888889,0,0)">
<stop offset="0.1" style="stop-color:rgb(32.941176%,68.235294%,94.117647%);stop-opacity:1;"/>
<stop offset="1" style="stop-color:rgb(9.803922%,53.333333%,85.098039%);stop-opacity:1;"/>
</linearGradient>
<linearGradient id="linear1" gradientUnits="userSpaceOnUse" x1="0.5" y1="13.7" x2="8.11" y2="13.7" gradientTransform="matrix(3.888889,-0.000000000000000009,0.000000000000000009,3.888889,-0.00483249,0.0116667)">
<stop offset="0" style="stop-color:rgb(70.196078%,69.803922%,70.196078%);stop-opacity:1;"/>
<stop offset="1" style="stop-color:rgb(59.215686%,59.215686%,59.215686%);stop-opacity:1;"/>
</linearGradient>
<linearGradient id="linear2" gradientUnits="userSpaceOnUse" x1="0.5" y1="10.08" x2="5.72" y2="10.08" gradientTransform="matrix(3.888889,-0.000000000000000009,0.000000000000000009,3.888889,-0.0173618,-0.0185818)">
<stop offset="0" style="stop-color:rgb(70.196078%,69.803922%,70.196078%);stop-opacity:1;"/>
<stop offset="1" style="stop-color:rgb(59.215686%,59.215686%,59.215686%);stop-opacity:1;"/>
</linearGradient>
<linearGradient id="linear3" gradientUnits="userSpaceOnUse" x1="5.28" y1="14.89" x2="10.49" y2="14.89" gradientTransform="matrix(3.888889,-0.000000000000000009,0.000000000000000009,3.888889,0.0158319,-0.0162228)">
<stop offset="0" style="stop-color:rgb(70.196078%,69.803922%,70.196078%);stop-opacity:1;"/>
<stop offset="1" style="stop-color:rgb(59.215686%,59.215686%,59.215686%);stop-opacity:1;"/>
</linearGradient>
</defs>
<g id="surface1">
<path style=" stroke:none;fill-rule:nonzero;fill:url(#linear0);" d="M 5.714844 5.714844 L 64.285156 64.285156 C 46.53125 82.035156 17.75 82.035156 0 64.285156 C -17.75 46.53125 -17.75 17.75 0 0 L 0 4.160156 C -1.148438 4.773438 -2.578125 4.339844 -3.1875 3.1875 C -3.800781 2.039063 -3.367188 0.613281 -2.214844 0 L 7.273438 0 C 7.675781 -0.652344 8.390625 -1.050781 9.160156 -1.050781 C 9.925781 -1.050781 10.640625 -0.652344 11.042969 0 Z M 5.714844 5.714844 "/>
<path style=" stroke:none;fill-rule:nonzero;fill:rgb(31.372549%,90.196078%,100%);fill-opacity:1;" d="M 21.503906 21.503906 L 48.496094 48.496094 L 67.9375 29.050781 L 67.9375 4.160156 C 66.789063 4.773438 65.363281 4.339844 64.75 3.1875 C 64.136719 2.039063 64.574219 0.613281 65.722656 0 L 40.949219 0 Z M 21.503906 21.503906 "/>
<path style=" stroke:none;fill-rule:nonzero;fill:url(#linear1);" d="M 2.25 63.09375 L 26.53125 38.8125 C 26.941406 38.402344 27.605469 38.402344 28.015625 38.8125 L 31.207031 42 C 31.617188 42.410156 31.617188 43.078125 31.207031 43.488281 L 6.925781 67.769531 C 6.515625 68.179688 5.847656 68.179688 5.4375 67.769531 L 2.25 64.578125 C 1.839844 64.167969 1.839844 63.503906 2.25 63.09375 Z M 2.25 63.09375 "/>
<path style=" stroke:none;fill-rule:nonzero;fill:url(#linear2);" d="M 2.265625 44.335938 L 17.253906 29.351563 C 17.664063 28.941406 18.328125 28.941406 18.738281 29.351563 L 21.925781 32.539063 C 22.335938 32.949219 22.335938 33.617188 21.925781 34.027344 L 6.941406 49.011719 C 6.53125 49.421875 5.867188 49.421875 5.457031 49.011719 L 2.265625 45.824219 C 1.855469 45.414063 1.855469 44.746094 2.265625 44.335938 Z M 2.265625 44.335938 "/>
<path style=" stroke:none;fill-rule:nonzero;fill:url(#linear3);" d="M 20.832031 63.035156 L 35.820313 48.050781 C 36.230469 47.640625 36.894531 47.640625 37.304688 48.050781 L 40.492188 51.238281 C 40.902344 51.648438 40.902344 52.3125 40.492188 52.722656 L 25.507813 67.710938 C 25.097656 68.121094 24.433594 68.121094 24.023438 67.710938 L 20.832031 64.519531 C 20.421875 64.109375 20.421875 63.445313 20.832031 63.035156 Z M 20.832031 63.035156 "/>
<path style=" stroke:none;fill-rule:nonzero;fill:rgb(100%,100%,100%);fill-opacity:1;" d="M 35.410156 20.734375 L 37.996094 18.148438 C 38.574219 17.570313 39.507813 17.570313 40.085938 18.148438 L 42.671875 20.734375 C 43.25 21.3125 43.25 22.246094 42.671875 22.824219 L 40.085938 25.410156 C 39.507813 25.984375 38.574219 25.984375 37.996094 25.410156 L 35.410156 22.824219 C 34.835938 22.246094 34.835938 21.3125 35.410156 20.734375 Z M 35.410156 20.734375 "/>
<path style=" stroke:none;fill-rule:nonzero;fill:rgb(100%,100%,100%);fill-opacity:1;" d="M 44.742188 11.386719 L 47.328125 8.800781 C 47.902344 8.222656 48.839844 8.222656 49.417969 8.800781 L 52 11.386719 C 52.578125 11.960938 52.578125 12.898438 52 13.476563 L 49.417969 16.058594 C 48.839844 16.636719 47.902344 16.636719 47.328125 16.058594 L 44.742188 13.476563 C 44.164063 12.898438 44.164063 11.960938 44.742188 11.386719 Z M 44.742188 11.386719 "/>
<path style=" stroke:none;fill-rule:nonzero;fill:rgb(100%,100%,100%);fill-opacity:1;" d="M 44.761719 30.066406 L 47.347656 27.480469 C 47.921875 26.90625 48.859375 26.90625 49.4375 27.480469 L 52.019531 30.066406 C 52.597656 30.644531 52.597656 31.578125 52.019531 32.15625 L 49.4375 34.742188 C 48.859375 35.320313 47.921875 35.320313 47.347656 34.742188 L 44.761719 32.15625 C 44.183594 31.578125 44.183594 30.644531 44.761719 30.066406 Z M 44.761719 30.066406 "/>
<path style=" stroke:none;fill-rule:nonzero;fill:rgb(100%,100%,100%);fill-opacity:1;" d="M 54.09375 20.726563 L 56.660156 18.160156 C 61.675781 2.515625 53.058594 -14.234375 37.410156 -19.25 C 21.765625 -24.265625 5.015625 -15.648438 0 0 L 2.566406 2.566406 C 1.859375 3.277344 0.707031 3.277344 0 2.566406 C -0.707031 1.859375 -0.707031 0.707031 0 0 L -2.566406 2.566406 C -3.1875 2.921875 -3.972656 2.78125 -4.433594 2.230469 C -4.890625 1.683594 -4.890625 0.882813 -4.433594 0.335938 C -3.972656 -0.214844 -3.1875 -0.355469 -2.566406 0 L -5.132813 -2.566406 C -4.425781 -3.277344 -3.277344 -3.277344 -2.566406 -2.566406 C -1.859375 -1.859375 -1.859375 -0.707031 -2.566406 0 "/>
</g>
</svg>
