<?xml version="1.0" encoding="UTF-8"?>
<svg xmlns="http://www.w3.org/2000/svg" xmlns:xlink="http://www.w3.org/1999/xlink" width="70pt" height="70pt" viewBox="0 0 70 70" version="1.1">
<defs>
<linearGradient id="linear0" gradientUnits="userSpaceOnUse" x1="9" y1="19.13" x2="9" y2="-0.29" gradientTransform="matrix(3.888889,0,0,3.888889,0,0)">
<stop offset="0" style="stop-color:rgb(0%,47.058824%,83.137255%);stop-opacity:1;"/>
<stop offset="0.16" style="stop-color:rgb(7.45098%,50.196078%,85.490196%);stop-opacity:1;"/>
<stop offset="0.53" style="stop-color:rgb(23.529412%,56.862745%,89.803922%);stop-opacity:1;"/>
<stop offset="0.82" style="stop-color:rgb(33.333333%,61.176471%,92.54902%);stop-opacity:1;"/>
<stop offset="1" style="stop-color:rgb(36.862745%,62.745098%,93.72549%);stop-opacity:1;"/>
</linearGradient>
</defs>
<g id="surface1">
<path style=" stroke:none;fill-rule:nonzero;fill:url(#linear0);" d="M 70 44.253906 C 71.347656 48.972656 70.394531 54.046875 67.425781 57.953125 C 64.453125 61.855469 59.816406 64.132813 54.910156 64.089844 C 42.367188 74.097656 24.085938 72.042969 14.078125 59.5 C 4.070313 46.957031 6.125 28.675781 18.667969 18.667969 L 52.304688 18.667969 C 47.902344 23.070313 47.902344 30.207031 52.304688 34.609375 C 56.707031 39.015625 63.847656 39.015625 68.25 34.609375 Z M 70 44.253906 "/>
<path style=" stroke:none;fill-rule:nonzero;fill:rgb(61.176471%,92.156863%,100%);fill-opacity:1;" d="M 21.078125 40.40625 L 17.65625 40.40625 C 6.496094 45.28125 -6.5 40.1875 -11.375 29.03125 C -16.25 17.871094 -11.15625 4.875 0 0 L 3.421875 0 C 3.421875 0.945313 2.65625 1.710938 1.710938 1.710938 C 0.765625 1.710938 0 0.945313 0 0 L 0 16.722656 L 1.90625 16.722656 L 1.90625 0 C 1.074219 0.480469 0.0507813 0.480469 -0.777344 0 Z M 13.496094 43.828125 C 13.496094 42.453125 14.609375 41.339844 15.984375 41.339844 C 17.359375 41.339844 18.472656 42.453125 18.472656 43.828125 C 18.472656 45.203125 17.359375 46.316406 15.984375 46.316406 Z M 13.496094 43.828125 "/>
<path style=" stroke:none;fill-rule:nonzero;fill:rgb(94.901961%,94.901961%,94.901961%);fill-opacity:1;" d="M 34.765625 41.261719 L 34.765625 37.371094 C 24.445313 38.125 15.472656 30.367188 14.71875 20.046875 C 13.96875 9.726563 21.722656 0.75 32.042969 0 L 26.015625 0 C 26.320313 0.175781 26.46875 0.535156 26.378906 0.875 C 26.289063 1.214844 25.980469 1.453125 25.628906 1.453125 C 25.277344 1.453125 24.96875 1.214844 24.875 0.875 C 24.785156 0.535156 24.933594 0.175781 25.238281 0 L 25.238281 13.222656 L 24.34375 13.6875 L 23.332031 14.234375 L 23.332031 33.679688 C 14.035156 33.152344 6.921875 25.1875 7.445313 15.886719 C 7.972656 6.585938 15.9375 -0.527344 25.238281 0 L 31.265625 0 C 31.265625 1.664063 29.917969 3.015625 28.253906 3.015625 C 26.589844 3.015625 25.238281 1.664063 25.238281 0 L 25.238281 3.890625 C 27.542969 3.929688 29.382813 5.824219 29.359375 8.128906 Z M 33.792969 47.871094 C 33.792969 46.496094 34.910156 45.382813 36.285156 45.382813 C 37.65625 45.382813 38.773438 46.496094 38.773438 47.871094 C 38.773438 49.246094 37.65625 50.359375 36.285156 50.359375 Z M 33.792969 47.871094 "/>
<path style=" stroke:none;fill-rule:nonzero;fill:rgb(61.176471%,92.156863%,100%);fill-opacity:1;" d="M 56.503906 33.054688 C 47.378906 30.746094 41.847656 21.476563 44.160156 12.347656 C 46.46875 3.21875 55.738281 -2.308594 64.867188 0 L 64.867188 0.777344 C 64.53125 0.777344 64.234375 0.574219 64.109375 0.265625 C 63.984375 -0.046875 64.0625 -0.398438 64.304688 -0.628906 C 64.546875 -0.859375 64.902344 -0.921875 65.207031 -0.78125 C 65.511719 -0.644531 65.699219 -0.332031 65.683594 0 L 57.90625 0 L 57.90625 29.320313 C 49.808594 30.0625 42.644531 24.101563 41.902344 16.003906 C 41.160156 7.90625 47.125 0.742188 55.222656 0 L 51.214844 0 C 49.527344 -0.917969 48.675781 -2.863281 49.148438 -4.726563 C 49.621094 -6.585938 51.296875 -7.890625 53.21875 -7.890625 C 55.140625 -7.890625 56.816406 -6.585938 57.289063 -4.726563 C 57.761719 -2.863281 56.910156 -0.917969 55.222656 0 L 59.382813 0 C 59.382813 1.148438 58.453125 2.082031 57.304688 2.082031 C 56.152344 2.082031 55.222656 1.148438 55.222656 0 L 55.222656 30.488281 L 57.128906 30.488281 L 57.128906 15.59375 L 64.90625 15.59375 C 60.597656 18.269531 54.941406 16.945313 52.265625 12.640625 C 49.59375 8.332031 50.914063 2.675781 55.222656 0 L 55.222656 -0.777344 C 55.222656 -3.117188 57.121094 -5.015625 59.460938 -5.015625 C 61.800781 -5.015625 63.699219 -3.117188 63.699219 -0.777344 C 63.699219 1.5625 61.800781 3.460938 59.460938 3.460938 Z M 36.128906 30.0625 C 36.128906 28.6875 37.242188 27.570313 38.617188 27.570313 C 39.992188 27.570313 41.105469 28.6875 41.105469 30.0625 C 41.105469 31.4375 39.992188 32.550781 38.617188 32.550781 Z M 56.503906 39.785156 C 56.503906 38.410156 57.621094 37.292969 58.996094 37.292969 C 60.367188 37.292969 61.484375 38.410156 61.484375 39.785156 C 61.484375 41.15625 60.367188 42.273438 58.996094 42.273438 Z M 56.503906 39.785156 "/>
</g>
</svg>
