<?xml version="1.0" encoding="UTF-8"?>
<svg xmlns="http://www.w3.org/2000/svg" xmlns:xlink="http://www.w3.org/1999/xlink" width="70pt" height="70pt" viewBox="0 0 70 70" version="1.1">
<g id="surface1">
<path style=" stroke:none;fill-rule:nonzero;fill:rgb(0%,0%,0%);fill-opacity:1;" d="M 66.0625 7.4375 L 67.375 10.5 C 70.394531 7.480469 75.292969 7.480469 78.3125 10.5 C 81.332031 13.519531 81.332031 18.417969 78.3125 21.4375 L 78.3125 26.25 C 78.050781 28.113281 77.753906 29.878906 77.4375 31.5 C 66.136719 30.222656 57.800781 20.347656 58.441406 8.992188 C 59.078125 -2.359375 68.472656 -11.238281 79.84375 -11.238281 C 91.214844 -11.238281 100.609375 -2.359375 101.246094 8.992188 C 101.886719 20.347656 93.550781 30.222656 82.25 31.5 L 79.1875 35.4375 L 75.25 38.5 L 70.4375 40.25 L 65.1875 41.125 L 62.125 41.125 L 34.5625 68.25 L 30.625 70.875 L 26.25 71.75 L 21.875 70.875 C 24.359375 68.992188 27.789063 68.976563 30.285156 70.839844 C 32.785156 72.703125 33.753906 75.992188 32.660156 78.910156 C 31.5625 81.828125 28.671875 83.671875 25.566406 83.433594 C 22.457031 83.191406 19.882813 80.925781 19.25 77.875 L 35 93.625 L 48.125 93.625 C 48.066406 95.859375 50.039063 97.800781 52.699219 98.121094 C 55.363281 98.441406 57.855469 97.039063 58.476563 94.871094 C 59.101563 92.703125 57.65625 90.46875 55.125 89.6875 L 82.6875 62.125 C 90.296875 62.488281 96.175781 68.953125 95.8125 76.5625 C 95.449219 84.171875 88.984375 90.050781 81.375 89.6875 L 81.375 87.9375 C 81.199219 79.011719 86.460938 70.875 94.675781 67.378906 C 102.886719 63.878906 112.402344 65.722656 118.714844 72.035156 C 125.027344 78.347656 126.871094 87.863281 123.371094 96.074219 C 119.875 104.289063 111.738281 109.550781 102.8125 109.375 L 105.875 105.4375 L 109.8125 102.375 L 114.625 100.625 L 119.875 99.75 L 123.375 99.75 L 126.4375 100.625 C 128.855469 107.148438 125.523438 114.394531 119 116.8125 C 112.476563 119.230469 105.230469 115.898438 102.8125 109.375 L 105.875 110.6875 L 49 17.5 L 52.5 21 Z M 50.3125 35 C 70.851563 20.503906 99.253906 25.398438 113.75 45.9375 C 128.246094 66.476563 123.351563 94.878906 102.8125 109.375 C 101.757813 101.742188 105.695313 94.289063 112.59375 90.855469 C 119.496094 87.425781 127.816406 88.785156 133.265625 94.234375 C 138.714844 99.683594 140.074219 108.003906 136.644531 114.90625 C 133.210938 121.804688 125.757813 125.742188 118.125 124.6875 L 52.5 27.125 L 42.875 17.5 L 55.125 5.25 L 50.3125 4.375 C 83.535156 4.011719 110.761719 30.652344 111.125 63.875 C 111.488281 97.097656 84.847656 124.324219 51.625 124.6875 C 53.222656 124.472656 54.839844 124.472656 56.4375 124.6875 L 56.4375 21.875 C 56.875 22.75 56.875 23.625 57.3125 24.0625 L 28 53.375 L 26.25 56 C 28.183594 57.199219 29.21875 59.4375 28.875 61.6875 L 33.25 61.6875 C 32.339844 62.003906 31.789063 63.164063 32.003906 64.304688 C 32.21875 65.449219 33.117188 66.171875 34.042969 65.9375 C 34.96875 65.703125 35.582031 64.597656 35.4375 63.4375 L 40.6875 63.4375 L 43.3125 61.6875 L 72.625 32.375 L 74.8125 33.25 Z M 50.3125 35 "/>
</g>
</svg>
