<?xml version="1.0" encoding="UTF-8"?>
<svg xmlns="http://www.w3.org/2000/svg" xmlns:xlink="http://www.w3.org/1999/xlink" width="70pt" height="70pt" viewBox="0 0 70 70" version="1.1">
<g id="surface1">
<path style=" stroke:none;fill-rule:nonzero;fill:rgb(47.843137%,47.843137%,47.843137%);fill-opacity:1;" d="M 35 67.785156 C 16.835938 67.785156 2.214844 53.164063 2.214844 35 C 2.214844 16.835938 16.835938 2.214844 35 2.214844 C 53.164063 2.214844 67.785156 16.835938 67.785156 35 C 67.785156 53.164063 53.164063 67.785156 35 67.785156 Z M 35 67.785156 "/>
<path style=" stroke:none;fill-rule:nonzero;fill:rgb(100%,100%,100%);fill-opacity:1;" d="M 35 4.433594 C 51.835938 4.433594 65.566406 18.164063 65.566406 35 C 65.566406 51.835938 51.835938 65.566406 35 65.566406 C 18.164063 65.566406 4.433594 51.835938 4.433594 35 C 4.433594 18.164063 18.164063 4.433594 35 4.433594 M 35 0 C 15.503906 0 0 15.503906 0 35 C 0 54.496094 15.503906 70 35 70 C 54.496094 70 70 54.496094 70 35 C 70 15.503906 54.496094 0 35 0 Z M 35 0 "/>
<path style=" stroke:none;fill-rule:nonzero;fill:rgb(100%,100%,100%);fill-opacity:1;" d="M 52.9375 22.3125 L 47.6875 17.0625 L 35 29.75 L 22.3125 17.0625 L 17.0625 22.3125 L 29.75 35 L 17.0625 47.6875 L 22.3125 52.9375 L 35 40.25 L 47.6875 52.9375 L 52.9375 47.6875 L 40.25 35 Z M 52.9375 22.3125 "/>
</g>
</svg>
