<?xml version="1.0" encoding="UTF-8"?>
<svg xmlns="http://www.w3.org/2000/svg" xmlns:xlink="http://www.w3.org/1999/xlink" width="70pt" height="70pt" viewBox="0 0 70 70" version="1.1">
<defs>
<linearGradient id="linear0" gradientUnits="userSpaceOnUse" x1="9" y1="16.21" x2="9" y2="0.62" gradientTransform="matrix(3.888889,0,0,3.888889,0,0)">
<stop offset="0" style="stop-color:rgb(10.588235%,57.647059%,92.156863%);stop-opacity:1;"/>
<stop offset="0.21" style="stop-color:rgb(12.54902%,58.431373%,92.156863%);stop-opacity:1;"/>
<stop offset="0.44" style="stop-color:rgb(18.039216%,61.176471%,92.941176%);stop-opacity:1;"/>
<stop offset="0.69" style="stop-color:rgb(27.058824%,65.490196%,93.72549%);stop-opacity:1;"/>
<stop offset="0.95" style="stop-color:rgb(39.215686%,71.372549%,94.509804%);stop-opacity:1;"/>
<stop offset="1" style="stop-color:rgb(41.960784%,72.54902%,94.901961%);stop-opacity:1;"/>
</linearGradient>
</defs>
<g id="surface1">
<path style=" stroke:none;fill-rule:nonzero;fill:rgb(10.588235%,57.647059%,92.156863%);fill-opacity:1;" d="M 62.222656 32.820313 C 62.222656 50.59375 40.714844 64.90625 36.050781 67.820313 C 17.320313 67.820313 2.140625 52.640625 2.140625 33.910156 C 2.140625 15.183594 17.320313 0 36.050781 0 C 29.4375 64.90625 7.777344 50.554688 7.777344 32.820313 L 7.777344 11.433594 C 4.621094 4.515625 7.667969 -3.648438 14.582031 -6.804688 C 21.5 -9.960938 29.664063 -6.914063 32.820313 0 C 26.328125 9.292969 22.476563 1.945313 35 1.945313 C 47.523438 1.945313 43.671875 9.292969 60.394531 9.722656 C 57.710938 25.863281 42.449219 36.769531 26.308594 34.085938 C 10.167969 31.402344 -0.742188 16.140625 1.945313 0 Z M 62.222656 32.820313 "/>
<path style=" stroke:none;fill-rule:nonzero;fill:url(#linear0);" d="M 59.8125 32.976563 C 59.8125 49.3125 40.09375 62.417969 35.816406 65.0625 C 17.851563 65.0625 3.285156 50.496094 3.285156 32.53125 C 3.285156 14.5625 17.851563 0 35.816406 0 C 31.539063 -2.644531 11.820313 -15.75 11.820313 -32.082031 L 11.820313 -51.527344 C 26.050781 -39.402344 27.757813 -18.039063 15.632813 -3.8125 C 3.507813 10.417969 -17.855469 12.125 -32.082031 0 C -16.761719 -0.429688 -20.417969 -7.117188 -8.75 -7.117188 C 2.917969 -7.117188 42.972656 11.394531 58.332031 11.667969 C 55.113281 29.738281 37.847656 41.78125 19.773438 38.558594 C 1.703125 35.335938 -10.339844 18.074219 -7.117188 0 Z M 59.8125 32.976563 "/>
<path style=" stroke:none;fill-rule:nonzero;fill:rgb(76.470588%,94.509804%,100%);fill-opacity:1;" d="M 35 25.394531 C 27.988281 35.058594 14.46875 37.210938 4.804688 30.195313 C -4.863281 23.183594 -7.011719 9.664063 0 0 L 5.445313 0 C 11.09375 -5.648438 20.25 -5.648438 25.898438 0 C 31.546875 5.648438 31.546875 14.808594 25.898438 20.457031 L 33.25 20.457031 C 33.25 21.960938 32.03125 23.179688 30.527344 23.179688 C 29.023438 23.179688 27.804688 21.960938 27.804688 20.457031 Z M 35 25.394531 "/>
<path style=" stroke:none;fill-rule:nonzero;fill:rgb(100%,100%,100%);fill-opacity:1;" d="M 42.429688 36.554688 C 42.429688 40.65625 39.101563 43.984375 35 43.984375 C 30.898438 43.984375 27.570313 40.65625 27.570313 36.554688 C 27.570313 32.453125 30.898438 29.128906 35 29.128906 C 39.101563 29.128906 42.429688 32.453125 42.429688 36.554688 Z M 42.429688 36.554688 "/>
</g>
</svg>
