<?xml version="1.0" encoding="UTF-8"?>
<svg xmlns="http://www.w3.org/2000/svg" xmlns:xlink="http://www.w3.org/1999/xlink" width="70pt" height="70pt" viewBox="0 0 70 70" version="1.1">
<g id="surface1">
<path style=" stroke:none;fill-rule:nonzero;fill:rgb(0%,0%,0%);fill-opacity:1;" d="M 35 0 C 32.890625 -14.191406 40.121094 -28.132813 52.933594 -34.585938 C 65.75 -41.039063 81.253906 -38.542969 91.398438 -28.398438 C 101.542969 -18.253906 104.039063 -2.75 97.585938 10.066406 C 91.132813 22.878906 77.191406 30.109375 63 28 L 63 79.1875 C 65.679688 65.355469 78.214844 55.671875 92.273438 56.566406 C 106.332031 57.464844 117.535156 68.667969 118.433594 82.726563 C 119.328125 96.785156 109.644531 109.320313 95.8125 112 L 95.8125 116.375 C 94.773438 119.675781 94.640625 123.410156 95.488281 125.648438 C 96.335938 127.886719 97.972656 128.121094 99.546875 126.230469 C 101.121094 124.339844 102.28125 120.75 102.425781 117.320313 C 102.574219 113.894531 101.671875 111.398438 100.1875 111.125 C 96.925781 118.644531 94.1875 120.578125 92.75 116.375 C 98.8125 105.878906 110.941406 100.476563 122.800781 102.988281 C 134.65625 105.503906 143.550781 115.359375 144.835938 127.410156 C 146.121094 139.464844 139.507813 150.976563 128.445313 155.933594 C 117.386719 160.890625 104.390625 158.167969 96.25 149.1875 L 124.25 177.1875 L 169.75 177.1875 C 179.148438 169.6875 192.285156 169.023438 202.390625 175.539063 C 212.492188 182.054688 217.3125 194.292969 214.359375 205.949219 C 211.40625 217.601563 201.34375 226.070313 189.355469 226.988281 C 177.367188 227.90625 166.128906 221.070313 161.4375 210 C 111.179688 246.847656 40.566406 235.976563 3.71875 185.71875 C -33.128906 135.460938 -22.257813 64.847656 28 28 L 0 78.75 Z M 35 65.625 L 43.3125 64.75 L 50.3125 61.25 C 50.3125 49.410156 59.910156 39.8125 71.75 39.8125 C 83.589844 39.8125 93.1875 49.410156 93.1875 61.25 C 93.1875 73.089844 83.589844 82.6875 71.75 82.6875 L 71.75 86.1875 C 73.078125 98.460938 70.140625 110.820313 63.4375 121.1875 L 84.875 142.625 C 91.078125 151.082031 89.746094 162.886719 81.8125 169.75 L 101.9375 189.875 L 123.375 189.875 C 132.652344 195.542969 135.75 207.550781 130.375 217 L 150.5 217 C 149.445313 219.152344 149.015625 222.375 149.433594 225.023438 C 149.851563 227.671875 151.019531 229.164063 152.347656 228.734375 C 153.675781 228.304688 154.867188 226.050781 155.3125 223.125 L 162.3125 226.625 Z M 26.25 30.625 C 79.40625 30.140625 122.890625 72.84375 123.375 126 C 123.859375 179.15625 81.15625 222.640625 28 223.125 L 27.125 224.4375 L 25.8125 225.3125 L 22.3125 225.3125 L 21 224.4375 L 20.125 223.125 C 20.125 220.949219 21.886719 219.1875 24.0625 219.1875 C 26.238281 219.1875 28 220.949219 28 223.125 L 28.875 221.8125 L 30.1875 220.9375 L 33.6875 220.9375 L 35 221.8125 L 35.875 223.125 C 35.875 225.300781 34.113281 227.0625 31.9375 227.0625 C 29.761719 227.0625 28 225.300781 28 223.125 Z M 21.875 48.125 L 48.125 48.125 L 48.125 52.5 L 21.875 52.5 Z M 48.125 26.25 L 49.875 26.25 L 51.1875 27.125 L 52.0625 28.4375 C 52.0625 26.988281 53.238281 25.8125 54.6875 25.8125 C 56.136719 25.8125 57.3125 26.988281 57.3125 28.4375 C 57.3125 29.886719 56.136719 31.0625 54.6875 31.0625 L 53.8125 32.375 L 52.5 33.25 L 49 33.25 L 47.6875 32.375 L 46.8125 31.0625 C 46.8125 28.886719 48.574219 27.125 50.75 27.125 C 52.925781 27.125 54.6875 28.886719 54.6875 31.0625 L 55.5625 29.75 L 56.875 28.875 Z M 48.125 26.25 "/>
</g>
</svg>
