<?xml version="1.0" encoding="UTF-8"?>
<svg xmlns="http://www.w3.org/2000/svg" xmlns:xlink="http://www.w3.org/1999/xlink" width="70pt" height="70pt" viewBox="0 0 70 70" version="1.1">
<defs>
<linearGradient id="linear0" gradientUnits="userSpaceOnUse" x1="8.47" y1="2.89" x2="14.96" y2="9.62" gradientTransform="matrix(3.888889,0,0,3.888889,0,0)">
<stop offset="0" style="stop-color:rgb(87.45098%,64.705882%,0%);stop-opacity:1;"/>
<stop offset="0.28" style="stop-color:rgb(93.72549%,71.764706%,0%);stop-opacity:1;"/>
<stop offset="0.51" style="stop-color:rgb(100%,79.215686%,0%);stop-opacity:1;"/>
<stop offset="1" style="stop-color:rgb(88.235294%,65.882353%,0%);stop-opacity:1;"/>
</linearGradient>
<linearGradient id="linear1" gradientUnits="userSpaceOnUse" x1="6.86" y1="11.19" x2="-0.99" y2="18.81" gradientTransform="matrix(3.888889,0,0,3.888889,0,0)">
<stop offset="0" style="stop-color:rgb(98.039216%,63.529412%,11.372549%);stop-opacity:1;"/>
<stop offset="0.24" style="stop-color:rgb(97.647059%,61.568627%,10.196078%);stop-opacity:1;"/>
<stop offset="0.51" style="stop-color:rgb(96.470588%,56.470588%,7.058824%);stop-opacity:1;"/>
<stop offset="0.8" style="stop-color:rgb(94.509804%,47.45098%,1.960784%);stop-opacity:1;"/>
<stop offset="0.88" style="stop-color:rgb(93.72549%,44.313725%,0%);stop-opacity:1;"/>
</linearGradient>
</defs>
<g id="surface1">
<path style=" stroke:none;fill-rule:nonzero;fill:rgb(96.862745%,55.294118%,11.764706%);fill-opacity:1;" d="M 15.828125 40.601563 C 14.390625 41.117188 12.90625 41.480469 11.394531 41.6875 L 32.199219 62.496094 L 32.199219 118.496094 C 32.550781 118.382813 32.90625 118.382813 33.25 118.496094 Z M 29.945313 54.679688 L 44.878906 42 C 50.152344 36.726563 58.699219 36.726563 63.972656 42 C 69.246094 47.273438 69.246094 55.820313 63.972656 61.09375 L 84.234375 61.09375 C 84.796875 57.917969 86.625 55.859375 88.53125 56.253906 C 90.4375 56.644531 91.847656 59.371094 91.847656 62.660156 C 91.847656 65.953125 90.4375 68.816406 88.53125 69.398438 C 86.625 69.980469 84.796875 68.101563 84.234375 64.984375 C 85.832031 65.050781 87.125 64.125 87.125 62.910156 C 87.125 61.695313 85.832031 60.65625 84.234375 60.589844 Z M 29.945313 54.679688 "/>
<path style=" stroke:none;fill-rule:nonzero;fill:rgb(98.823529%,81.960784%,8.627451%);fill-opacity:1;" d="M 67.589844 1.050781 C 109.8125 18 133.929688 62.660156 124.953125 107.265625 C 115.972656 151.867188 76.453125 183.71875 30.960938 183.011719 C -14.53125 182.304688 -53.046875 149.242188 -60.636719 104.382813 C -68.222656 59.519531 -42.730469 15.632813 0 0 L 29.90625 54.445313 C 37.558594 99.851563 11.328125 144.15625 -32.167969 159.277344 C -75.660156 174.402344 -123.71875 155.933594 -145.890625 115.570313 C -168.058594 75.210938 -157.867188 24.742188 -121.773438 -3.851563 C -85.675781 -32.445313 -34.214844 -30.816406 0 0 C -0.402344 0.304688 -0.957031 0.304688 -1.359375 0 Z M 67.589844 1.050781 "/>
<path style=" stroke:none;fill-rule:nonzero;fill:url(#linear0);" d="M 67.589844 1.050781 C 109.8125 18 133.929688 62.660156 124.953125 107.265625 C 115.972656 151.867188 76.453125 183.71875 30.960938 183.011719 C -14.53125 182.304688 -53.046875 149.242188 -60.636719 104.382813 C -68.222656 59.519531 -42.730469 15.632813 0 0 L 29.90625 54.445313 C 37.558594 99.851563 11.328125 144.15625 -32.167969 159.277344 C -75.660156 174.402344 -123.71875 155.933594 -145.890625 115.570313 C -168.058594 75.210938 -157.867188 24.742188 -121.773438 -3.851563 C -85.675781 -32.445313 -34.214844 -30.816406 0 0 C -0.402344 0.304688 -0.957031 0.304688 -1.359375 0 Z M 67.589844 1.050781 "/>
<path style=" stroke:none;fill-rule:nonzero;fill:rgb(0%,47.058824%,83.137255%);fill-opacity:1;" d="M 67.589844 1.050781 C 69.945313 0.601563 72.320313 0.25 74.707031 0 L 86.371094 11.667969 C 53.382813 -21.945313 53.761719 -75.894531 87.214844 -109.042969 C 120.671875 -142.1875 174.625 -142.0625 207.925781 -108.761719 C 241.230469 -75.460938 241.355469 -21.503906 208.207031 11.949219 C 175.0625 45.40625 121.109375 45.785156 87.5 12.792969 Z M 67.589844 1.050781 "/>
<path style=" stroke:none;fill-rule:nonzero;fill:url(#linear1);" d="M 1.011719 67.820313 C -15.632813 78.703125 -37.738281 75.757813 -50.949219 60.890625 C -64.160156 46.027344 -64.492188 23.730469 -51.730469 8.476563 C -38.96875 -6.773438 -16.960938 -10.382813 0 0 L 29.90625 54.445313 C 9.84375 49.160156 -2.886719 29.460938 0.542969 9 C 3.972656 -11.460938 22.433594 -25.9375 43.121094 -24.386719 C 63.808594 -22.839844 79.90625 -5.777344 80.25 14.964844 C 80.597656 35.710938 65.074219 53.296875 44.449219 55.535156 Z M 1.011719 67.820313 "/>
<path style=" stroke:none;fill-rule:nonzero;fill:rgb(87.45098%,64.705882%,0%);fill-opacity:1;" d="M 51.839844 25.589844 C 51.839844 29.691406 48.511719 33.015625 44.410156 33.015625 C 40.308594 33.015625 36.984375 29.691406 36.984375 25.589844 C 36.984375 21.488281 40.308594 18.160156 44.410156 18.160156 C 48.511719 18.160156 51.839844 21.488281 51.839844 25.589844 Z M 51.839844 25.589844 "/>
<path style=" stroke:none;fill-rule:nonzero;fill:rgb(94.901961%,94.901961%,94.901961%);fill-opacity:1;" d="M 49.972656 25.589844 C 49.972656 28.660156 47.484375 31.148438 44.410156 31.148438 C 41.339844 31.148438 38.851563 28.660156 38.851563 25.589844 C 38.851563 22.515625 41.339844 20.027344 44.410156 20.027344 C 47.484375 20.027344 49.972656 22.515625 49.972656 25.589844 Z M 49.972656 25.589844 "/>
<path style=" stroke:none;fill-rule:nonzero;fill:rgb(81.960784%,34.901961%,0%);fill-opacity:1;" d="M 20.066406 52.851563 C 22.140625 48.15625 27.035156 45.367188 32.128906 45.980469 C 37.222656 46.59375 41.320313 50.460938 42.222656 55.511719 C 43.125 60.5625 40.625 65.609375 36.058594 67.949219 C 31.492188 70.285156 25.933594 69.367188 22.359375 65.683594 L 31.109375 35.933594 L 34.027344 38.851563 Z M 20.066406 52.851563 "/>
</g>
</svg>
