<?xml version="1.0" encoding="UTF-8"?>
<svg xmlns="http://www.w3.org/2000/svg" xmlns:xlink="http://www.w3.org/1999/xlink" width="70pt" height="70pt" viewBox="0 0 70 70" version="1.1">
<defs>
<linearGradient id="linear0" gradientUnits="userSpaceOnUse" x1="9" y1="-0.88" x2="9" y2="16.01" gradientTransform="matrix(3.888889,0,0,3.888889,0,0)">
<stop offset="0.22" style="stop-color:rgb(19.607843%,83.137255%,96.078431%);stop-opacity:1;"/>
<stop offset="0.43" style="stop-color:rgb(19.215686%,81.960784%,94.901961%);stop-opacity:1;"/>
<stop offset="0.6" style="stop-color:rgb(17.647059%,77.647059%,91.372549%);stop-opacity:1;"/>
<stop offset="0.76" style="stop-color:rgb(15.686275%,70.980392%,85.098039%);stop-opacity:1;"/>
<stop offset="0.91" style="stop-color:rgb(12.156863%,61.568627%,76.862745%);stop-opacity:1;"/>
<stop offset="1" style="stop-color:rgb(9.803922%,54.117647%,70.196078%);stop-opacity:1;"/>
</linearGradient>
</defs>
<g id="surface1">
<path style=" stroke:none;fill-rule:nonzero;fill:url(#linear0);" d="M 68.054688 36.710938 C 57.917969 40.726563 46.445313 35.765625 42.429688 25.628906 C 38.410156 15.492188 43.375 4.015625 53.511719 0 C 61.035156 2.734375 66.113281 9.804688 66.304688 17.8125 L 84.429688 35.933594 L 84.429688 37.566406 L 114.566406 37.566406 C 110.378906 41.753906 110.378906 48.546875 114.566406 52.734375 C 118.753906 56.921875 125.546875 56.921875 129.734375 52.734375 Z M 68.054688 36.710938 "/>
<path style=" stroke:none;fill-rule:nonzero;fill:rgb(21.568627%,76.078431%,69.411765%);fill-opacity:1;" d="M 56.503906 58.878906 L 48.726563 67.199219 C 30.171875 67.351563 15.007813 52.429688 14.855469 33.871094 C 14.707031 15.316406 29.625 0.148438 48.183594 0 L 43.476563 -22.945313 C 49.8125 -24.242188 56.003906 -20.160156 57.304688 -13.824219 C 58.601563 -7.488281 54.519531 -1.300781 48.183594 0 L 53.316406 -2.101563 C 53.898438 -0.683594 53.21875 0.9375 51.800781 1.515625 C 50.382813 2.097656 48.761719 1.417969 48.183594 0 L 55.765625 16.722656 C 51.148438 16.453125 47.625 12.492188 47.890625 7.875 C 48.160156 3.257813 52.121094 -0.269531 56.738281 0 Z M 56.503906 58.878906 "/>
<path style=" stroke:none;fill-rule:nonzero;fill:rgb(25.882353%,90.980392%,79.215686%);fill-opacity:1;" d="M 31.109375 58.878906 L 38.890625 67.199219 C 20.332031 77.9375 -3.417969 71.601563 -14.15625 53.042969 C -24.894531 34.488281 -18.558594 10.738281 0 0 L 4.707031 -22.945313 C 11.042969 -22.644531 15.933594 -17.265625 15.632813 -10.929688 C 15.332031 -4.59375 9.953125 0.300781 3.617188 0 L -1.515625 -2.101563 C -0.9375 -2.238281 -0.351563 -1.882813 -0.214844 -1.304688 C -0.0742188 -0.722656 -0.429688 -0.140625 -1.011719 0 L -8.59375 16.722656 C -13.210938 14.628906 -15.257813 9.1875 -13.164063 4.570313 C -11.070313 -0.046875 -5.628906 -2.09375 -1.011719 0 Z M 31.109375 58.878906 "/>
<path style=" stroke:none;fill-rule:nonzero;fill:rgb(0%,35.686275%,63.137255%);fill-opacity:1;" d="M 45.035156 23.332031 L 46.042969 22.476563 C 45.980469 21.808594 46.34375 21.171875 46.953125 20.886719 C 47.5625 20.601563 48.285156 20.726563 48.757813 21.203125 C 49.234375 21.675781 49.359375 22.398438 49.074219 23.007813 C 48.789063 23.617188 48.152344 23.980469 47.484375 23.917969 L 47.949219 25.160156 C 47.902344 25.929688 47.324219 26.5625 46.5625 26.679688 C 45.800781 26.792969 45.0625 26.359375 44.789063 25.636719 C 44.519531 24.914063 44.789063 24.101563 45.441406 23.6875 C 46.089844 23.269531 46.941406 23.367188 47.484375 23.917969 L 48.765625 23.683594 C 48.640625 22.996094 48.976563 22.308594 49.59375 21.984375 C 50.214844 21.660156 50.96875 21.777344 51.460938 22.269531 C 51.957031 22.765625 52.070313 23.519531 51.746094 24.136719 C 51.425781 24.753906 50.734375 25.089844 50.050781 24.964844 L 49.816406 26.25 C 49.386719 26.894531 48.5625 27.144531 47.847656 26.855469 C 47.128906 26.5625 46.714844 25.808594 46.851563 25.046875 C 46.992188 24.285156 47.644531 23.726563 48.417969 23.707031 C 49.191406 23.6875 49.871094 24.214844 50.050781 24.964844 L 51.292969 25.394531 C 52.101563 24.589844 53.40625 24.589844 54.210938 25.394531 C 55.015625 26.199219 55.015625 27.503906 54.210938 28.3125 L 53.355469 29.285156 C 53.496094 28.855469 53.804688 28.503906 54.210938 28.3125 L 55.066406 29.320313 C 55.160156 28.582031 55.761719 28.011719 56.507813 27.960938 C 57.25 27.914063 57.925781 28.398438 58.113281 29.117188 C 58.304688 29.839844 57.957031 30.59375 57.285156 30.917969 L 56.039063 31.382813 C 56.460938 30.871094 57.164063 30.679688 57.789063 30.917969 L 58.023438 32.199219 C 57.910156 31.378906 58.476563 30.621094 59.292969 30.496094 C 60.109375 30.367188 60.878906 30.917969 61.019531 31.734375 C 61.160156 32.550781 60.625 33.328125 59.8125 33.484375 L 58.527344 33.484375 C 58.855469 33.371094 59.210938 33.371094 59.539063 33.484375 L 59.070313 34.6875 C 59.078125 34.003906 59.535156 33.402344 60.191406 33.207031 C 60.851563 33.015625 61.558594 33.28125 61.933594 33.855469 C 62.304688 34.429688 62.257813 35.183594 61.8125 35.707031 C 61.371094 36.230469 60.636719 36.402344 60.003906 36.128906 L 59.035156 35.15625 C 59.136719 35.472656 59.136719 35.8125 59.035156 36.128906 L 58.023438 36.945313 C 58.402344 36.277344 59.207031 35.988281 59.925781 36.257813 C 60.640625 36.527344 61.054688 37.28125 60.898438 38.03125 C 60.742188 38.78125 60.0625 39.304688 59.296875 39.265625 C 58.53125 39.230469 57.910156 38.640625 57.828125 37.878906 L 57.359375 36.671875 C 57.273438 37.230469 56.886719 37.695313 56.351563 37.878906 L 55.066406 38.109375 C 55.765625 38.019531 56.445313 38.398438 56.730469 39.042969 C 57.015625 39.691406 56.84375 40.445313 56.308594 40.90625 C 55.769531 41.363281 54.996094 41.414063 54.402344 41.027344 C 53.8125 40.644531 53.542969 39.914063 53.746094 39.238281 L 53.976563 37.957031 C 53.839844 38.785156 53.0625 39.355469 52.226563 39.238281 L 51.023438 38.773438 C 51.828125 39.308594 52.046875 40.398438 51.507813 41.203125 C 50.972656 42.007813 49.882813 42.226563 49.078125 41.6875 L 49.933594 40.679688 C 49.804688 41.121094 49.492188 41.488281 49.078125 41.6875 L 48.222656 40.714844 C 47.945313 40.015625 48.195313 39.210938 48.828125 38.796875 C 49.460938 38.382813 50.296875 38.46875 50.832031 39 C 51.367188 39.535156 51.453125 40.371094 51.035156 41.003906 C 50.621094 41.636719 49.820313 41.890625 49.117188 41.609375 L 50.320313 41.144531 C 51.097656 41.171875 51.742188 41.742188 51.871094 42.507813 C 52 43.269531 51.574219 44.019531 50.851563 44.300781 C 50.128906 44.578125 49.308594 44.3125 48.886719 43.660156 C 48.46875 43.011719 48.5625 42.152344 49.117188 41.609375 L 34.222656 27.222656 C 38.195313 23.109375 44.75 22.996094 48.863281 26.96875 C 52.976563 30.941406 53.089844 37.5 49.117188 41.609375 L 49.660156 41.609375 L 50.945313 41.84375 C 51.457031 42.3125 51.605469 43.0625 51.3125 43.691406 C 51.019531 44.320313 50.351563 44.6875 49.664063 44.601563 C 48.976563 44.511719 48.421875 43.988281 48.296875 43.304688 C 48.171875 42.621094 48.503906 41.9375 49.117188 41.609375 L 49.582031 40.328125 C 50.113281 39.804688 50.9375 39.71875 51.566406 40.121094 C 52.191406 40.523438 52.457031 41.304688 52.203125 42.007813 C 51.949219 42.707031 51.242188 43.136719 50.5 43.042969 C 49.761719 42.949219 49.1875 42.355469 49.117188 41.609375 L 49.582031 41.882813 L 50.59375 42.738281 C 50.796875 43.402344 50.546875 44.117188 49.980469 44.515625 C 49.410156 44.910156 48.652344 44.890625 48.101563 44.472656 C 47.550781 44.050781 47.335938 43.324219 47.566406 42.671875 C 47.796875 42.019531 48.425781 41.589844 49.117188 41.609375 Z M 45.035156 23.332031 "/>
<path style=" stroke:none;fill-rule:nonzero;fill:rgb(100%,79.215686%,0%);fill-opacity:1;" d="M 53.238281 35.078125 C 53.238281 40.148438 49.128906 44.253906 44.0625 44.253906 C 38.992188 44.253906 34.882813 40.148438 34.882813 35.078125 C 34.882813 30.007813 38.992188 25.898438 44.0625 25.898438 C 49.128906 25.898438 53.238281 30.007813 53.238281 35.078125 Z M 53.238281 35.078125 "/>
</g>
</svg>
