<?xml version="1.0" encoding="UTF-8"?>
<svg xmlns="http://www.w3.org/2000/svg" xmlns:xlink="http://www.w3.org/1999/xlink" width="70pt" height="70pt" viewBox="0 0 70 70" version="1.1">
<defs>
<linearGradient id="linear0" gradientUnits="userSpaceOnUse" x1="2.59" y1="10.16" x2="15.41" y2="10.16" gradientTransform="matrix(3.888889,0,0,3.888889,0,0)">
<stop offset="0" style="stop-color:rgb(0%,35.686275%,63.137255%);stop-opacity:1;"/>
<stop offset="0.07" style="stop-color:rgb(0%,37.647059%,66.27451%);stop-opacity:1;"/>
<stop offset="0.36" style="stop-color:rgb(0%,44.313725%,78.431373%);stop-opacity:1;"/>
<stop offset="0.52" style="stop-color:rgb(0%,47.058824%,83.137255%);stop-opacity:1;"/>
<stop offset="0.64" style="stop-color:rgb(0%,45.490196%,80.392157%);stop-opacity:1;"/>
<stop offset="0.82" style="stop-color:rgb(0%,41.568627%,73.333333%);stop-opacity:1;"/>
<stop offset="1" style="stop-color:rgb(0%,35.686275%,63.137255%);stop-opacity:1;"/>
</linearGradient>
<radialGradient id="radial0" gradientUnits="userSpaceOnUse" cx="9.36" cy="10.57" fx="9.36" fy="10.57" r="7.07" gradientTransform="matrix(3.888889,0,0,3.888889,0,0)">
<stop offset="0" style="stop-color:rgb(94.901961%,94.901961%,94.901961%);stop-opacity:1;"/>
<stop offset="0.58" style="stop-color:rgb(93.333333%,93.333333%,93.333333%);stop-opacity:1;"/>
<stop offset="1" style="stop-color:rgb(90.196078%,90.196078%,90.196078%);stop-opacity:1;"/>
</radialGradient>
</defs>
<g id="surface1">
<path style=" stroke:none;fill-rule:nonzero;fill:url(#linear0);" d="M 35 19.988281 C 21.234375 19.988281 10.070313 16.101563 10.070313 10.964844 L 10.070313 59.035156 C 10.070313 63.972656 21.039063 67.976563 34.648438 68.054688 L 35 68.054688 C 48.765625 68.054688 59.929688 64.167969 59.929688 59.035156 L 59.929688 10.964844 C 59.929688 15.984375 48.765625 19.988281 35 19.988281 Z M 35 19.988281 "/>
<path style=" stroke:none;fill-rule:nonzero;fill:rgb(90.980392%,90.980392%,90.980392%);fill-opacity:1;" d="M 59.929688 10.964844 C 59.929688 15.984375 48.765625 19.988281 35 19.988281 C 21.234375 19.988281 10.070313 16.101563 10.070313 10.964844 C 10.070313 5.832031 21.234375 1.945313 35 1.945313 C 48.765625 1.945313 59.929688 5.832031 59.929688 10.964844 "/>
<path style=" stroke:none;fill-rule:nonzero;fill:rgb(31.372549%,90.196078%,100%);fill-opacity:1;" d="M 54.132813 10.226563 C 54.132813 13.417969 45.539063 15.984375 35 15.984375 C 24.460938 15.984375 15.867188 13.417969 15.867188 10.226563 C 15.867188 7.039063 24.460938 4.511719 35 4.511719 C 45.539063 4.511719 54.132813 7.078125 54.132813 10.226563 "/>
<path style=" stroke:none;fill-rule:nonzero;fill:rgb(9.803922%,54.117647%,70.196078%);fill-opacity:1;" d="M 35 11.667969 C 35.21875 7.695313 35.964844 3.773438 37.214844 0 Z M 35 11.667969 "/>
<path style=" stroke:none;fill-rule:nonzero;fill:url(#radial0);" d="M 50.167969 44.332031 L 50.167969 31.109375 L 46.667969 31.109375 L 46.667969 47.171875 L 56.234375 47.171875 L 56.234375 44.332031 Z M 22.398438 37.839844 C 24.972656 35.140625 29.1875 34.882813 32.070313 37.25 C 34.949219 39.613281 35.515625 43.800781 33.371094 46.847656 C 31.222656 49.894531 27.089844 50.769531 23.894531 48.851563 C 20.695313 46.9375 19.519531 42.878906 21.195313 39.550781 L 22.515625 40.871094 L 22.515625 46.394531 C 22.636719 42.195313 22.984375 38.789063 23.292969 38.789063 C 23.605469 38.789063 23.761719 42.195313 23.644531 46.394531 L 23.644531 43.050781 C 24.140625 45.1875 23.921875 47.425781 23.023438 49.429688 L 27.222656 53.628906 C 27.222656 55.609375 28.464844 57.167969 31.109375 58.332031 C 27.351563 53.707031 27.878906 46.945313 32.304688 42.953125 C 36.730469 38.964844 43.511719 39.136719 47.726563 43.351563 C 51.941406 47.566406 52.113281 54.347656 48.125 58.773438 C 44.132813 63.199219 37.371094 63.722656 32.746094 59.964844 L 32.746094 63.855469 C 32.972656 65.925781 34.027344 67.214844 35.101563 66.730469 C 36.175781 66.246094 36.859375 64.175781 36.632813 62.105469 C 36.089844 79.953125 34.699219 94.054688 33.527344 93.601563 C 32.355469 93.152344 31.851563 78.316406 32.394531 60.472656 L 32.394531 46.667969 C 31.941406 43.085938 33.8125 39.617188 37.050781 38.027344 C 40.292969 36.441406 44.183594 37.085938 46.734375 39.636719 C 49.285156 42.191406 49.933594 46.082031 48.34375 49.320313 C 46.757813 52.558594 43.285156 54.429688 39.707031 53.976563 L 39.707031 55.261719 C 39.6875 54.242188 39.339844 53.273438 38.734375 52.539063 C 37.996094 52.625 37.253906 52.625 36.515625 52.539063 Z M 42.777344 44.023438 C 46.539063 42.789063 50.664063 44.125 52.984375 47.328125 C 55.304688 50.535156 55.292969 54.871094 52.949219 58.058594 C 50.605469 61.246094 46.46875 62.554688 42.71875 61.292969 C 38.96875 60.035156 36.460938 56.496094 36.515625 52.539063 C 37.339844 55.488281 36.160156 58.636719 33.601563 60.316406 L 41.804688 68.523438 L 49.039063 68.523438 C 48.621094 68.65625 48.222656 69.875 48.035156 71.597656 C 47.84375 73.324219 47.902344 75.210938 48.175781 76.359375 C 48.453125 77.511719 48.894531 77.695313 49.289063 76.828125 C 49.683594 75.957031 49.953125 74.207031 49.972656 72.410156 C 50.621094 69.027344 53.6875 66.652344 57.125 66.871094 C 60.566406 67.085938 63.308594 69.828125 63.523438 73.269531 C 63.742188 76.707031 61.367188 79.773438 57.984375 80.421875 L 61.328125 84.3125 L 66.035156 84.3125 L 38.890625 46.976563 C 48.125 41.703125 59.886719 44.917969 65.160156 54.152344 C 70.429688 63.386719 67.21875 75.148438 57.984375 80.421875 Z M 38.890625 43.050781 C 39.195313 41.441406 40.53125 40.234375 42.160156 40.089844 C 43.789063 39.945313 45.316406 40.902344 45.898438 42.433594 C 46.480469 43.960938 45.972656 45.691406 44.660156 46.664063 C 43.347656 47.640625 41.546875 47.625 40.25 46.628906 L 46.160156 52.539063 L 52.109375 52.539063 C 50.785156 54.402344 51.652344 56.757813 54.054688 57.816406 C 56.457031 58.878906 59.496094 58.246094 60.863281 56.402344 C 62.230469 54.558594 61.414063 52.191406 59.035156 51.101563 C 60.773438 49.359375 63.59375 49.359375 65.332031 51.101563 C 67.074219 52.839844 67.074219 55.660156 65.332031 57.398438 L 65.332031 61.289063 Z M 38.890625 43.050781 "/>
</g>
</svg>
