<?xml version="1.0" encoding="UTF-8"?>
<svg xmlns="http://www.w3.org/2000/svg" xmlns:xlink="http://www.w3.org/1999/xlink" width="70pt" height="70pt" viewBox="0 0 70 70" version="1.1">
<defs>
<linearGradient id="linear0" gradientUnits="userSpaceOnUse" x1="5.05" y1="9.45" x2="5.05" y2="6.52" gradientTransform="matrix(3.888889,0,0,-3.888889,0,77.738889)">
<stop offset="0" style="stop-color:rgb(46.27451%,73.72549%,17.647059%);stop-opacity:1;"/>
<stop offset="1" style="stop-color:rgb(36.862745%,58.823529%,14.117647%);stop-opacity:1;"/>
</linearGradient>
<linearGradient id="linear1" gradientUnits="userSpaceOnUse" x1="12.85" y1="9.43" x2="12.85" y2="6.5" gradientTransform="matrix(3.888889,0,0,-3.888889,0,77.661111)">
<stop offset="0" style="stop-color:rgb(46.27451%,73.72549%,17.647059%);stop-opacity:1;"/>
<stop offset="1" style="stop-color:rgb(36.862745%,58.823529%,14.117647%);stop-opacity:1;"/>
</linearGradient>
</defs>
<g id="surface1">
<path style=" stroke:none;fill-rule:nonzero;fill:rgb(58.039216%,58.039216%,58.039216%);fill-opacity:1;" d="M 12.40625 60.667969 C 14.964844 56.738281 19.964844 55.203125 24.289063 57.019531 C 28.609375 58.839844 31.007813 63.492188 29.984375 68.066406 C 28.960938 72.640625 24.8125 75.828125 20.125 75.636719 C 15.441406 75.441406 11.570313 71.921875 10.929688 67.277344 L 10.929688 53.550781 C 10.929688 51.292969 10.035156 50.089844 8.167969 50.089844 L 8.167969 46.667969 C 10.035156 46.667969 10.929688 45.460938 10.929688 43.089844 L 10.929688 16.214844 C 12.027344 13.1875 15.066406 11.308594 18.269531 11.683594 C 21.472656 12.058594 23.996094 14.582031 24.371094 17.785156 C 24.742188 20.988281 22.867188 24.027344 19.835938 25.125 L 19.835938 28.585938 C 17.855469 28.585938 16.765625 29.636719 16.765625 31.894531 L 16.765625 45.113281 C 16.765625 48.148438 15.871094 50.015625 13.886719 50.792969 C 6.800781 40.601563 9.316406 26.59375 19.507813 19.507813 C 29.699219 12.417969 43.707031 14.933594 50.792969 25.125 L 50.792969 38.230469 C 49.996094 36.078125 50.808594 33.660156 52.742188 32.421875 C 54.675781 31.179688 57.210938 31.457031 58.835938 33.078125 C 60.457031 34.703125 60.734375 37.238281 59.492188 39.171875 C 58.253906 41.105469 55.835938 41.917969 53.683594 41.121094 L 53.683594 44.582031 Z M 57.59375 9.332031 C 56.363281 5.085938 58.164063 0.542969 61.972656 -1.707031 C 65.78125 -3.957031 70.628906 -3.34375 73.753906 -0.214844 C 76.882813 2.910156 77.496094 7.757813 75.246094 11.566406 C 72.996094 15.375 68.453125 17.175781 64.207031 15.945313 L 64.207031 29.671875 C 64.207031 31.929688 65.101563 33.132813 66.964844 33.132813 L 66.964844 36.554688 C 65.101563 36.554688 64.207031 37.761719 64.207031 40.132813 L 64.207031 53.472656 C 65.269531 49.851563 69.011719 47.730469 72.664063 48.667969 C 76.316406 49.605469 78.570313 53.273438 77.757813 56.957031 C 76.945313 60.640625 73.359375 63.015625 69.648438 62.332031 L 69.648438 58.871094 C 71.632813 58.871094 72.722656 57.820313 72.722656 55.5625 L 72.722656 42.34375 C 72.722656 39.308594 73.617188 37.441406 75.601563 36.664063 C 82.6875 38.230469 87.164063 45.25 85.59375 52.335938 C 84.027344 59.425781 77.011719 63.898438 69.921875 62.332031 L 69.921875 16.214844 C 69.480469 17.507813 68.523438 18.554688 67.277344 19.105469 Z M 57.59375 9.332031 "/>
<path style=" stroke:none;fill-rule:nonzero;fill:rgb(0%,35.686275%,63.137255%);fill-opacity:1;" d="M 36.59375 32.472656 L 36.59375 27.535156 L 33.09375 27.535156 L 33.09375 32.472656 C 24.128906 32.277344 17.015625 24.851563 17.207031 15.886719 C 17.402344 6.917969 24.828125 -0.191406 33.792969 0 L 19.445313 0 C 19.878906 -0.25 20.410156 -0.25 20.84375 0 L 20.84375 6.417969 L 24.34375 6.417969 L 24.34375 2.878906 C 23.550781 3.84375 22.121094 3.984375 21.15625 3.1875 C 20.1875 2.394531 20.050781 0.964844 20.84375 0 L 46.277344 0 C 46.277344 7.023438 40.585938 12.714844 33.5625 12.714844 C 26.539063 12.714844 20.84375 7.023438 20.84375 0 L 20.84375 3.617188 L 24.304688 3.617188 L 24.304688 34.570313 C 14.757813 34.957031 6.707031 27.53125 6.320313 17.984375 C 5.933594 8.4375 13.359375 0.386719 22.90625 0 L 37.292969 0 C 37.570313 0.160156 37.707031 0.484375 37.625 0.792969 C 37.542969 1.101563 37.261719 1.316406 36.945313 1.316406 C 36.625 1.316406 36.347656 1.101563 36.265625 0.792969 C 36.183594 0.484375 36.316406 0.160156 36.59375 0 Z M 36.59375 32.472656 "/>
<path style=" stroke:none;fill-rule:nonzero;fill:url(#linear0);" d="M 14.972656 40.988281 L 24.304688 40.988281 C 24.886719 40.988281 25.355469 41.460938 25.355469 42.039063 L 25.355469 51.371094 C 25.355469 51.953125 24.886719 52.421875 24.304688 52.421875 L 14.972656 52.421875 C 14.390625 52.421875 13.921875 51.953125 13.921875 51.371094 L 13.921875 42.039063 C 13.921875 41.460938 14.390625 40.988281 14.972656 40.988281 Z M 14.972656 40.988281 "/>
<path style=" stroke:none;fill-rule:nonzero;fill:url(#linear1);" d="M 45.304688 40.988281 L 54.640625 40.988281 C 55.21875 40.988281 55.6875 41.460938 55.6875 42.039063 L 55.6875 51.371094 C 55.6875 51.953125 55.21875 52.421875 54.640625 52.421875 L 45.304688 52.421875 C 44.726563 52.421875 44.253906 51.953125 44.253906 51.371094 L 44.253906 42.039063 C 44.253906 41.460938 44.726563 40.988281 45.304688 40.988281 Z M 45.304688 40.988281 "/>
<path style=" stroke:none;fill-rule:nonzero;fill:rgb(0%,47.058824%,83.137255%);fill-opacity:1;" d="M 40.15625 14.816406 L 29.8125 14.816406 C 25.722656 14.496094 22.664063 10.917969 22.988281 6.824219 C 23.308594 2.734375 26.886719 -0.320313 30.980469 0 L 30.980469 10.421875 C 28.101563 10.421875 25.769531 8.089844 25.769531 5.210938 C 25.769531 2.332031 28.101563 0 30.980469 0 L 41.355469 0 C 41.355469 2.863281 39.03125 5.1875 36.167969 5.1875 C 33.300781 5.1875 30.980469 2.863281 30.980469 0 L 30.980469 -10.5 C 33.878906 -10.179688 35.96875 -7.566406 35.644531 -4.667969 C 35.324219 -1.765625 32.710938 0.320313 29.8125 0 Z M 39.171875 24.648438 C 32.367188 24.441406 27.015625 18.757813 27.21875 11.953125 C 27.425781 5.144531 33.109375 -0.207031 39.914063 0 L 31.535156 0 C 31.847656 0.167969 32.003906 0.53125 31.917969 0.875 C 31.828125 1.21875 31.519531 1.460938 31.164063 1.460938 C 30.808594 1.460938 30.496094 1.21875 30.410156 0.875 C 30.320313 0.53125 30.480469 0.167969 30.792969 0 L 30.792969 17.734375 C 25.894531 17.734375 21.925781 13.761719 21.925781 8.867188 C 21.925781 3.96875 25.894531 0 30.792969 0 L 37.535156 0 C 37.535156 1.863281 36.027344 3.371094 34.164063 3.371094 C 32.300781 3.371094 30.792969 1.863281 30.792969 0 Z M 39.171875 24.648438 "/>
<path style=" stroke:none;fill-rule:nonzero;fill:rgb(100%,100%,100%);fill-opacity:1;" d="M 39.171875 24.648438 C 32.367188 24.441406 27.015625 18.757813 27.21875 11.953125 C 27.425781 5.144531 33.109375 -0.207031 39.914063 0 L 31.535156 0 C 31.847656 0.167969 32.003906 0.53125 31.917969 0.875 C 31.828125 1.21875 31.519531 1.460938 31.164063 1.460938 C 30.808594 1.460938 30.496094 1.21875 30.410156 0.875 C 30.320313 0.53125 30.480469 0.167969 30.792969 0 L 30.792969 17.734375 C 25.894531 17.734375 21.925781 13.761719 21.925781 8.867188 C 21.925781 3.96875 25.894531 0 30.792969 0 L 37.535156 0 C 37.535156 1.863281 36.027344 3.371094 34.164063 3.371094 C 32.300781 3.371094 30.792969 1.863281 30.792969 0 Z M 39.171875 24.648438 "/>
</g>
</svg>
