<?xml version="1.0" encoding="UTF-8"?>
<svg xmlns="http://www.w3.org/2000/svg" xmlns:xlink="http://www.w3.org/1999/xlink" width="70pt" height="70pt" viewBox="0 0 70 70" version="1.1">
<defs>
<linearGradient id="linear0" gradientUnits="userSpaceOnUse" x1="10.75" y1="13.54" x2="10.75" y2="2.92" gradientTransform="matrix(3.888889,0,0,3.888889,0,0)">
<stop offset="0" style="stop-color:rgb(0%,47.058824%,83.137255%);stop-opacity:1;"/>
<stop offset="0.16" style="stop-color:rgb(7.45098%,50.196078%,85.490196%);stop-opacity:1;"/>
<stop offset="0.53" style="stop-color:rgb(23.529412%,56.862745%,89.803922%);stop-opacity:1;"/>
<stop offset="0.82" style="stop-color:rgb(33.333333%,61.176471%,92.54902%);stop-opacity:1;"/>
<stop offset="1" style="stop-color:rgb(36.862745%,62.745098%,93.72549%);stop-opacity:1;"/>
</linearGradient>
<linearGradient id="linear1" gradientUnits="userSpaceOnUse" x1="7.45" y1="17.24" x2="7.45" y2="1.19" gradientTransform="matrix(3.888889,0,0,3.888889,0,0)">
<stop offset="0" style="stop-color:rgb(9.803922%,54.117647%,70.196078%);stop-opacity:1;"/>
<stop offset="0" style="stop-color:rgb(9.803922%,54.117647%,70.196078%);stop-opacity:1;"/>
<stop offset="0.11" style="stop-color:rgb(13.333333%,64.705882%,79.607843%);stop-opacity:1;"/>
<stop offset="0.23" style="stop-color:rgb(16.078431%,72.941176%,87.058824%);stop-opacity:1;"/>
<stop offset="0.37" style="stop-color:rgb(18.039216%,78.823529%,92.156863%);stop-opacity:1;"/>
<stop offset="0.53" style="stop-color:rgb(19.215686%,81.960784%,95.294118%);stop-opacity:1;"/>
<stop offset="0.78" style="stop-color:rgb(19.607843%,83.137255%,96.078431%);stop-opacity:1;"/>
</linearGradient>
</defs>
<g id="surface1">
<path style=" stroke:none;fill-rule:nonzero;fill:url(#linear0);" d="M 70 40.949219 C 71.027344 44.746094 70.230469 48.808594 67.847656 51.9375 C 65.464844 55.066406 61.761719 56.914063 57.828125 56.933594 L 74.238281 73.34375 L 102.160156 73.34375 C 102.160156 81.054688 95.910156 87.304688 88.199219 87.304688 C 80.488281 87.304688 74.238281 81.054688 74.238281 73.34375 Z M 70 40.949219 "/>
<path style=" stroke:none;fill-rule:nonzero;fill:url(#linear1);" d="M 57.945313 43.632813 C 45.894531 59.632813 23.15625 62.839844 7.15625 50.789063 C -8.84375 38.738281 -12.050781 16 0 0 C 0.265625 8.914063 -6.648438 16.398438 -15.554688 16.839844 L 12.988281 16.839844 C 12.988281 24.722656 6.597656 31.109375 -1.285156 31.109375 C -9.164063 31.109375 -15.554688 24.722656 -15.554688 16.839844 Z M 57.945313 43.632813 "/>
<path style=" stroke:none;fill-rule:nonzero;fill:rgb(100%,100%,100%);fill-opacity:1;" d="M 18.746094 36.4375 L 22.050781 36.4375 C 11.988281 42.527344 -1.105469 39.308594 -7.195313 29.246094 C -13.285156 19.183594 -10.0625 6.089844 0 0 L 7.777344 7.777344 C 5.628906 9.925781 2.148438 9.925781 0 7.777344 C -2.148438 5.628906 -2.148438 2.148438 0 0 L -10.578125 10.382813 C -13.445313 10.308594 -15.707031 7.921875 -15.632813 5.054688 C -15.558594 2.1875 -13.171875 -0.0742188 -10.304688 0 L -13.457031 0 C -13.191406 0.40625 -13.269531 0.945313 -13.636719 1.261719 C -14 1.578125 -14.542969 1.578125 -14.910156 1.261719 C -15.273438 0.945313 -15.351563 0.40625 -15.089844 0 L -6.105469 -9.101563 C -3.59375 -6.621094 -3.566406 -2.570313 -6.046875 -0.0585938 C -8.527344 2.453125 -12.574219 2.480469 -15.089844 0 L 18.082031 38.035156 C 7.582031 47.195313 -8.359375 46.105469 -17.519531 35.601563 C -26.679688 25.101563 -25.589844 9.160156 -15.089844 0 Z M 32.082031 23.332031 L 35.464844 23.332031 C 29.023438 37.292969 12.484375 43.386719 -1.476563 36.945313 C -15.4375 30.5 -21.53125 13.960938 -15.089844 0 L -9.140625 6.027344 C -10.804688 7.671875 -13.484375 7.652344 -15.128906 5.988281 C -16.769531 4.324219 -16.753906 1.644531 -15.089844 0 L -22.867188 7.429688 C -24.917969 7.351563 -26.519531 5.628906 -26.445313 3.578125 C -26.371094 1.527344 -24.644531 -0.0742188 -22.59375 0 L -25.433594 0 C -25.152344 0.402344 -25.214844 0.957031 -25.585938 1.28125 C -25.953125 1.609375 -26.507813 1.609375 -26.875 1.28125 C -27.246094 0.957031 -27.308594 0.402344 -27.027344 0 L 36.050781 31.109375 C 27.457031 48.53125 6.375 55.683594 -11.042969 47.09375 C -28.460938 38.503906 -35.617188 17.417969 -27.027344 0 L -31.65625 -4.667969 C -30.367188 -5.945313 -28.285156 -5.9375 -27.007813 -4.648438 C -25.730469 -3.359375 -25.738281 -1.277344 -27.027344 0 Z M 39.042969 38.890625 L 42.351563 38.890625 C 31.609375 58.046875 7.375 64.871094 -11.785156 54.132813 C -30.941406 43.394531 -37.765625 19.15625 -27.027344 0 L -22.167969 4.859375 C -23.507813 6.203125 -25.683594 6.203125 -27.027344 4.859375 C -28.371094 3.519531 -28.371094 1.34375 -27.027344 0 L -34.066406 7.117188 C -36.03125 7.042969 -37.5625 5.386719 -37.488281 3.421875 C -37.414063 1.457031 -35.757813 -0.0742188 -33.792969 0 L -36.984375 0 C -36.746094 0.390625 -36.828125 0.898438 -37.175781 1.195313 C -37.523438 1.492188 -38.039063 1.492188 -38.386719 1.195313 C -38.734375 0.898438 -38.816406 0.390625 -38.578125 0 L -33.054688 -5.601563 C -31.507813 -4.074219 -31.492188 -1.585938 -33.015625 -0.0390625 C -34.542969 1.507813 -37.03125 1.523438 -38.578125 0 L -42.039063 -3.539063 C -41.0625 -4.496094 -39.496094 -4.476563 -38.539063 -3.5 C -37.582031 -2.523438 -37.601563 -0.957031 -38.578125 0 Z M 39.042969 38.890625 "/>
</g>
</svg>
