<?xml version="1.0" encoding="UTF-8"?>
<svg xmlns="http://www.w3.org/2000/svg" xmlns:xlink="http://www.w3.org/1999/xlink" width="70pt" height="70pt" viewBox="0 0 70 70" version="1.1">
<defs>
<linearGradient id="linear0" gradientUnits="userSpaceOnUse" x1="9" y1="13.704" x2="9" y2="1.277" gradientTransform="matrix(3.888889,0,0,3.888889,0,0)">
<stop offset="0" style="stop-color:rgb(0%,47.058824%,83.137255%);stop-opacity:1;"/>
<stop offset="0.817" style="stop-color:rgb(36.862745%,62.745098%,93.72549%);stop-opacity:1;"/>
</linearGradient>
<linearGradient id="linear1" gradientUnits="userSpaceOnUse" x1="8.999" y1="16.723" x2="8.999" y2="4.174" gradientTransform="matrix(3.888889,0,0,3.888889,0,0)">
<stop offset="0" style="stop-color:rgb(19.607843%,74.509804%,86.666667%);stop-opacity:1;"/>
<stop offset="0.113" style="stop-color:rgb(23.529412%,80%,91.372549%);stop-opacity:1;"/>
<stop offset="0.292" style="stop-color:rgb(27.843137%,85.882353%,96.078431%);stop-opacity:1;"/>
<stop offset="0.504" style="stop-color:rgb(30.588235%,89.019608%,99.215686%);stop-opacity:1;"/>
<stop offset="0.834" style="stop-color:rgb(31.372549%,90.196078%,100%);stop-opacity:1;"/>
</linearGradient>
<filter id="alpha" filterUnits="objectBoundingBox" x="0%" y="0%" width="100%" height="100%">
  <feColorMatrix type="matrix" in="SourceGraphic" values="0 0 0 0 1 0 0 0 0 1 0 0 0 0 1 0 0 0 1 0"/>
</filter>
<mask id="mask0">
  <g filter="url(#alpha)">
<rect x="0" y="0" width="70" height="70" style="fill:rgb(0%,0%,0%);fill-opacity:0.74902;stroke:none;"/>
  </g>
</mask>
<clipPath id="clip1">
  <rect x="0" y="0" width="70" height="70"/>
</clipPath>
<g id="surface5" clip-path="url(#clip1)">
<path style=" stroke:none;fill-rule:nonzero;fill:rgb(0%,47.058824%,83.137255%);fill-opacity:1;" d="M 32.484375 59.957031 C 15.925781 68.929688 -4.765625 62.777344 -13.738281 46.222656 C -22.707031 29.664063 -16.558594 8.96875 0 0 L 0 -12.117188 C -0.0117188 -11.777344 -0.261719 -11.492188 -0.597656 -11.433594 L -0.597656 0.683594 C -3.945313 0.683594 -6.65625 -2.027344 -6.65625 -5.375 C -6.65625 -8.71875 -3.945313 -11.433594 -0.597656 -11.433594 Z M 28.117188 30.785156 L 42.28125 30.785156 C 30.621094 42.625 11.574219 42.773438 -0.269531 31.113281 C -12.109375 19.457031 -12.257813 0.40625 -0.597656 -11.433594 L -0.597656 -11.269531 C -0.960938 -11.402344 -1.191406 -11.757813 -1.164063 -12.140625 C -1.132813 -12.527344 -0.847656 -12.84375 -0.46875 -12.914063 C -0.0898438 -12.988281 0.289063 -12.796875 0.460938 -12.453125 C 0.628906 -12.105469 0.546875 -11.6875 0.257813 -11.433594 L 28.117188 -11.433594 C 28.453125 -11.238281 28.617188 -10.84375 28.515625 -10.472656 C 28.414063 -10.097656 28.074219 -9.835938 27.6875 -9.835938 C 27.300781 -9.835938 26.960938 -10.097656 26.863281 -10.472656 C 26.761719 -10.84375 26.925781 -11.238281 27.261719 -11.433594 L 27.261719 -11.59375 C 27.304688 -12.050781 27.699219 -12.394531 28.15625 -12.371094 C 28.617188 -12.351563 28.976563 -11.972656 28.976563 -11.511719 C 28.976563 -11.054688 28.617188 -10.675781 28.15625 -10.65625 C 27.699219 -10.632813 27.304688 -10.976563 27.261719 -11.433594 Z M 28.117188 33.832031 L 42.28125 33.832031 C 29.78125 37.980469 16.285156 31.210938 12.136719 18.710938 C 7.988281 6.210938 14.761719 -7.285156 27.261719 -11.433594 L 27.261719 -11.273438 C 26.898438 -11.40625 26.667969 -11.765625 26.699219 -12.152344 C 26.730469 -12.539063 27.019531 -12.855469 27.398438 -12.925781 C 27.78125 -12.996094 28.160156 -12.804688 28.328125 -12.457031 C 28.5 -12.105469 28.414063 -11.6875 28.121094 -11.433594 L 28.117188 -11.433594 C 28.453125 -11.238281 28.617188 -10.84375 28.515625 -10.472656 C 28.414063 -10.097656 28.074219 -9.835938 27.6875 -9.835938 C 27.300781 -9.835938 26.960938 -10.097656 26.863281 -10.472656 C 26.761719 -10.84375 26.925781 -11.238281 27.261719 -11.433594 L 27.261719 -11.59375 C 27.304688 -12.050781 27.699219 -12.394531 28.15625 -12.371094 C 28.617188 -12.351563 28.976563 -11.972656 28.976563 -11.511719 C 28.976563 -11.054688 28.617188 -10.675781 28.15625 -10.65625 C 27.699219 -10.632813 27.304688 -10.976563 27.261719 -11.433594 Z M 28.117188 33.832031 "/>
</g>
</defs>
<g id="surface1">
<path style=" stroke:none;fill-rule:nonzero;fill:url(#linear0);" d="M 69.09375 38.15625 C 70.328125 42.75 69.363281 47.652344 66.480469 51.433594 C 63.597656 55.214844 59.121094 57.445313 54.367188 57.464844 C 43.546875 67.433594 26.695313 66.738281 16.726563 55.917969 C 6.761719 45.09375 7.457031 28.242188 18.277344 18.277344 L 0 20.105469 C 0.570313 20.105469 1.136719 20.078125 1.691406 20.035156 L 52.890625 20.035156 C 57.171875 15.753906 64.113281 15.753906 68.394531 20.035156 C 72.675781 24.316406 72.675781 31.257813 68.394531 35.539063 Z M 69.09375 38.15625 "/>
<path style=" stroke:none;fill-rule:nonzero;fill:url(#linear1);" d="M 48.609375 35.492188 C 38.808594 48.917969 19.980469 51.855469 6.558594 42.050781 C -6.863281 32.25 -9.800781 13.421875 0 0 L 38.953125 17.890625 C 34.015625 17.890625 30.011719 13.882813 30.011719 8.945313 C 30.011719 4.003906 34.015625 0 38.953125 0 L 21.390625 27.558594 C 13.78125 22.707031 11.542969 12.605469 16.394531 4.996094 C 21.246094 -2.613281 31.34375 -4.851563 38.953125 0 L 29.417969 43.554688 C 17.390625 40.921875 9.777344 29.039063 12.410156 17.011719 C 15.042969 4.984375 26.925781 -2.632813 38.953125 0 L 38.953125 14.972656 C 34.820313 14.972656 31.46875 11.621094 31.46875 7.484375 C 31.46875 3.351563 34.820313 0 38.953125 0 L 42.613281 3.671875 C 43.628906 2.660156 43.628906 1.019531 42.621094 0.00390625 C 41.609375 -1.007813 39.96875 -1.011719 38.953125 0 L 42.503906 -3.558594 L 42.503906 61.054688 L 44.597656 58.964844 C 28.316406 60.523438 13.851563 48.585938 12.292969 32.304688 C 10.738281 16.019531 22.671875 1.558594 38.953125 0 L 37.449219 -1.511719 C 37.867188 -1.929688 38.542969 -1.925781 38.957031 -1.507813 C 39.375 -1.089844 39.371094 -0.414063 38.953125 0 L 40.460938 -1.511719 C 40.878906 -1.097656 40.878906 -0.421875 40.464844 -0.00390625 C 40.046875 0.414063 39.371094 0.414063 38.953125 0 L 37.449219 -1.511719 C 37.867188 -1.929688 38.542969 -1.925781 38.957031 -1.507813 C 39.375 -1.089844 39.371094 -0.414063 38.953125 0 L 40.464844 -1.511719 C 40.882813 -1.097656 40.882813 -0.417969 40.464844 0 C 40.050781 0.414063 39.371094 0.417969 38.953125 0 L 36.859375 -2.105469 L 36.859375 -2.882813 Z M 35 20.222656 C 29.414063 19.34375 25.601563 14.101563 26.480469 8.519531 C 27.359375 2.933594 32.601563 -0.878906 38.183594 0 Z M 35 20.222656 "/>
<use xlink:href="#surface5" mask="url(#mask0)"/>
</g>
</svg>
