<?xml version="1.0" encoding="UTF-8"?>
<svg xmlns="http://www.w3.org/2000/svg" xmlns:xlink="http://www.w3.org/1999/xlink" width="70pt" height="70pt" viewBox="0 0 70 70" version="1.1">
<defs>
<linearGradient id="linear0" gradientUnits="userSpaceOnUse" x1="9" y1="16.39" x2="9" y2="-1.94" gradientTransform="matrix(3.888889,0,0,3.888889,0,0)">
<stop offset="0" style="stop-color:rgb(0%,47.058824%,83.137255%);stop-opacity:1;"/>
<stop offset="0.16" style="stop-color:rgb(7.45098%,50.196078%,85.490196%);stop-opacity:1;"/>
<stop offset="0.53" style="stop-color:rgb(23.529412%,56.862745%,89.803922%);stop-opacity:1;"/>
<stop offset="0.82" style="stop-color:rgb(33.333333%,61.176471%,92.54902%);stop-opacity:1;"/>
<stop offset="1" style="stop-color:rgb(36.862745%,62.745098%,93.72549%);stop-opacity:1;"/>
</linearGradient>
<linearGradient id="linear1" gradientUnits="userSpaceOnUse" x1="9.88" y1="7.11" x2="9.99" y2="17.27" gradientTransform="matrix(3.888889,0,0,3.888889,0,0)">
<stop offset="0" style="stop-color:rgb(19.607843%,83.137255%,96.078431%);stop-opacity:1;"/>
<stop offset="0.32" style="stop-color:rgb(19.215686%,81.960784%,95.294118%);stop-opacity:1;"/>
<stop offset="0.53" style="stop-color:rgb(18.039216%,78.823529%,92.156863%);stop-opacity:1;"/>
<stop offset="0.7" style="stop-color:rgb(16.078431%,72.941176%,87.058824%);stop-opacity:1;"/>
<stop offset="0.86" style="stop-color:rgb(13.333333%,64.705882%,79.607843%);stop-opacity:1;"/>
<stop offset="1" style="stop-color:rgb(9.803922%,54.117647%,70.196078%);stop-opacity:1;"/>
<stop offset="1" style="stop-color:rgb(9.803922%,54.117647%,70.196078%);stop-opacity:1;"/>
</linearGradient>
</defs>
<g id="surface1">
<path style=" stroke:none;fill-rule:nonzero;fill:url(#linear0);" d="M 68.054688 35.3125 C 58.304688 39.253906 47.203125 34.542969 43.265625 24.792969 C 39.324219 15.039063 44.03125 3.941406 53.785156 0 C 59.152344 9.484375 55.820313 21.523438 46.335938 26.890625 C 36.855469 32.261719 24.8125 28.925781 19.445313 19.445313 C 29.089844 19.761719 36.691406 27.761719 36.515625 37.410156 L 78.320313 37.410156 C 74.175781 41.554688 74.175781 48.277344 78.320313 52.421875 C 82.46875 56.566406 89.1875 56.566406 93.332031 52.421875 Z M 68.054688 35.3125 "/>
<path style=" stroke:none;fill-rule:nonzero;fill:url(#linear1);" d="M 57.59375 66.890625 L 20.105469 66.890625 C 18.898438 66.890625 18.199219 64.984375 18.859375 63.972656 L 31.773438 45.148438 C 19.304688 36.257813 16.40625 18.941406 25.296875 6.476563 C 34.1875 -5.992188 51.503906 -8.890625 63.972656 0 L 63.972656 -12.445313 C 67.410156 -12.445313 70.195313 -9.660156 70.195313 -6.222656 C 70.195313 -2.785156 67.410156 0 63.972656 0 L 63.273438 0 C 63.851563 0.335938 64.132813 1.015625 63.960938 1.664063 C 63.789063 2.308594 63.203125 2.757813 62.535156 2.757813 C 61.863281 2.757813 61.277344 2.308594 61.105469 1.664063 C 60.933594 1.015625 61.214844 0.335938 61.792969 0 L 61.792969 -0.660156 C 61.960938 -1.394531 62.652344 -1.882813 63.402344 -1.800781 C 64.148438 -1.714844 64.710938 -1.082031 64.710938 -0.332031 C 64.710938 0.421875 64.148438 1.054688 63.402344 1.136719 C 62.652344 1.222656 61.960938 0.734375 61.792969 0 L 78.246094 0 C 78.246094 4.542969 74.5625 8.226563 70.019531 8.226563 C 65.476563 8.226563 61.792969 4.542969 61.792969 0 L 61.792969 0.660156 C 61.148438 0.558594 60.648438 0.0429688 60.5625 -0.605469 C 60.476563 -1.253906 60.828125 -1.878906 61.425781 -2.148438 C 62.019531 -2.414063 62.722656 -2.257813 63.148438 -1.761719 C 63.574219 -1.265625 63.625 -0.550781 63.273438 0 L 62.570313 0 C 62.800781 -0.132813 63.082031 -0.132813 63.3125 0 L 63.3125 12.484375 C 59.863281 12.484375 57.070313 9.6875 57.070313 6.242188 C 57.070313 2.792969 59.863281 0 63.3125 0 L 76.222656 18.785156 C 76.882813 19.753906 76.183594 21.699219 75.015625 21.699219 Z M 57.59375 66.890625 "/>
<path style=" stroke:none;fill-rule:nonzero;fill:rgb(100%,100%,100%);fill-opacity:1;" d="M 24.421875 61.832031 L 34.222656 47.523438 C 21.097656 56.972656 2.800781 53.996094 -6.648438 40.871094 C -16.101563 27.75 -13.121094 9.449219 0 0 L 0 -5.753906 C 1.589844 -5.753906 2.878906 -4.46875 2.878906 -2.878906 C 2.878906 -1.289063 1.589844 0 0 0 L 5.601563 0 C 5.601563 1.546875 4.347656 2.800781 2.800781 2.800781 C 1.253906 2.800781 0 1.546875 0 0 L 0 6.144531 C -1.695313 6.144531 -3.070313 4.769531 -3.070313 3.070313 C -3.070313 1.375 -1.695313 0 0 0 L 10.035156 14.582031 C 6.007813 14.207031 3.046875 10.636719 3.421875 6.609375 C 3.796875 2.585938 7.367188 -0.375 11.394531 0 L -15.828125 0 C -15.558594 0.351563 -15.605469 0.851563 -15.929688 1.148438 C -16.257813 1.449219 -16.757813 1.449219 -17.085938 1.148438 C -17.414063 0.851563 -17.457031 0.351563 -17.1875 0 Z M 24.421875 61.832031 "/>
</g>
</svg>
