<?xml version="1.0" encoding="UTF-8"?>
<svg xmlns="http://www.w3.org/2000/svg" xmlns:xlink="http://www.w3.org/1999/xlink" width="52pt" height="70pt" viewBox="0 0 52 70" version="1.1">
<g id="surface1">
<path style=" stroke:none;fill-rule:nonzero;fill:rgb(0%,0%,0%);fill-opacity:1;" d="M 52 30.625 L 52 70 L 0 70 L 0 30.625 L 8.667969 30.625 L 8.667969 17.9375 C 12.699219 11.996094 19.863281 9.070313 26.855469 10.503906 C 33.847656 11.9375 39.3125 17.453125 40.730469 24.511719 C 42.152344 31.570313 39.25 38.800781 33.367188 42.875 C 29.433594 49.6875 21.300781 52.773438 13.898438 50.265625 C 6.492188 47.753906 1.855469 40.339844 2.792969 32.511719 C 3.726563 24.683594 9.984375 18.59375 17.765625 17.9375 C 17.242188 10.46875 21.367188 3.457031 28.113281 0.351563 C 34.859375 -2.757813 42.808594 -1.308594 48.050781 3.984375 C 53.296875 9.28125 54.730469 17.304688 51.652344 24.117188 C 48.574219 30.925781 41.628906 35.089844 34.234375 34.5625 L 34.234375 42.4375 C 36.59375 37.410156 39.449219 37.410156 41.167969 42.4375 L 41.167969 30.625 Z M 47.667969 35 L 4.332031 35 L 4.332031 65.625 L 47.667969 65.625 Z M 13 30.625 L 39 30.625 L 39 17.9375 C 39.382813 23.671875 37.515625 29.332031 33.800781 33.6875 L 43.332031 43.3125 L 26 4.375 L 20.800781 5.25 C 23.753906 6.488281 25.894531 9.136719 26.503906 12.304688 C 27.113281 15.46875 26.113281 18.738281 23.832031 21 Z M 13 30.625 "/>
</g>
</svg>
