<?xml version="1.0" encoding="UTF-8"?>
<svg xmlns="http://www.w3.org/2000/svg" xmlns:xlink="http://www.w3.org/1999/xlink" width="70pt" height="70pt" viewBox="0 0 70 70" version="1.1">
<defs>
<linearGradient id="linear0" gradientUnits="userSpaceOnUse" x1="9" y1="18.17" x2="9" y2="1.506" gradientTransform="matrix(3.888889,-0.000000000000000009,0.000000000000000009,3.888889,0.000000000000000689,-0.000000000000000128)">
<stop offset="0" style="stop-color:rgb(13.72549%,54.117647%,69.019608%);stop-opacity:1;"/>
<stop offset="0.109" style="stop-color:rgb(17.647059%,64.313725%,78.431373%);stop-opacity:1;"/>
<stop offset="0.775" style="stop-color:rgb(24.313725%,82.745098%,94.901961%);stop-opacity:1;"/>
</linearGradient>
</defs>
<g id="surface1">
<path style=" stroke:none;fill-rule:nonzero;fill:url(#linear0);" d="M 1.167969 33.375 L 33.371094 1.171875 C 34.269531 0.273438 35.726563 0.273438 36.621094 1.171875 L 68.824219 33.375 C 69.722656 34.273438 69.722656 35.726563 68.824219 36.625 L 36.621094 68.828125 C 35.726563 69.726563 34.269531 69.726563 33.371094 68.828125 L 1.167969 36.625 C 0.269531 35.726563 0.269531 34.273438 1.167969 33.375 Z M 1.167969 33.375 "/>
<path style=" stroke:none;fill-rule:nonzero;fill:rgb(61.176471%,92.156863%,100%);fill-opacity:1;" d="M 54.800781 39.148438 L 53.410156 37.757813 L 53.410156 32.394531 L 42.300781 32.394531 L 42.300781 38.304688 L 47.28125 38.304688 L 34.765625 50.824219 L 22.25 38.304688 L 27.3125 38.304688 L 27.3125 32.394531 L 15.109375 32.394531 L 15.109375 38.304688 L 15.570313 38.304688 L 14.730469 39.148438 L 32.222656 56.640625 L 34.765625 54.101563 L 37.304688 56.640625 Z M 54.800781 39.148438 "/>
<path style=" stroke:none;fill-rule:nonzero;fill:rgb(100%,100%,100%);fill-opacity:1;" d="M 19.792969 31.003906 C 17.382813 28.601563 13.488281 28.601563 11.097656 31 C 8.707031 33.402344 8.726563 37.292969 11.140625 39.695313 C 13.550781 42.097656 17.445313 42.097656 19.832031 39.699219 C 22.222656 37.300781 22.207031 33.40625 19.792969 31.003906 Z M 19.792969 31.003906 "/>
<path style=" stroke:none;fill-rule:nonzero;fill:rgb(52.54902%,83.921569%,20%);fill-opacity:1;" d="M 17.925781 32.878906 C 16.550781 31.507813 14.332031 31.5 12.972656 32.859375 C 11.613281 34.222656 11.628906 36.441406 13.003906 37.8125 C 14.378906 39.1875 16.597656 39.195313 17.957031 37.832031 C 19.316406 36.472656 19.300781 34.253906 17.925781 32.878906 Z M 17.925781 32.878906 "/>
<path style=" stroke:none;fill-rule:nonzero;fill:rgb(100%,100%,100%);fill-opacity:1;" d="M 58.828125 31.007813 C 56.414063 28.605469 52.523438 28.601563 50.132813 31.003906 C 47.742188 33.402344 47.761719 37.296875 50.171875 39.699219 C 52.585938 42.101563 56.476563 42.101563 58.867188 39.703125 C 61.257813 37.300781 61.238281 33.410156 58.828125 31.007813 Z M 58.828125 31.007813 "/>
<path style=" stroke:none;fill-rule:nonzero;fill:rgb(52.54902%,83.921569%,20%);fill-opacity:1;" d="M 56.960938 32.886719 C 55.585938 31.511719 53.367188 31.503906 52.007813 32.867188 C 50.648438 34.230469 50.664063 36.445313 52.039063 37.820313 C 53.414063 39.191406 55.632813 39.199219 56.992188 37.839844 C 58.351563 36.476563 58.335938 34.257813 56.960938 32.886719 Z M 56.960938 32.886719 "/>
<path style=" stroke:none;fill-rule:nonzero;fill:rgb(100%,100%,100%);fill-opacity:1;" d="M 42.933594 18.691406 L 35.15625 10.914063 C 32.140625 10.914063 29.699219 8.46875 29.699219 5.457031 C 29.699219 2.441406 32.140625 0 35.15625 0 L 27.378906 7.777344 C 25.230469 5.628906 25.230469 2.148438 27.378906 0 C 29.527344 -2.148438 33.007813 -2.148438 35.15625 0 L 39.570313 0 C 39.570313 1.21875 38.582031 2.207031 37.363281 2.207031 C 36.144531 2.207031 35.15625 1.21875 35.15625 0 L 35.15625 39.910156 L 37.722656 39.910156 L 37.722656 20.105469 C 32.171875 20.8125 27.09375 16.886719 26.386719 11.335938 C 25.675781 5.785156 29.605469 0.707031 35.15625 0 L 39.554688 0 C 39.554688 1.214844 38.570313 2.199219 37.355469 2.199219 C 36.140625 2.199219 35.15625 1.214844 35.15625 0 Z M 42.933594 18.691406 "/>
<path style=" stroke:none;fill-rule:nonzero;fill:rgb(100%,100%,100%);fill-opacity:1;" d="M 39.074219 50.640625 C 36.664063 48.238281 32.769531 48.238281 30.378906 50.636719 C 27.992188 53.039063 28.007813 56.929688 30.421875 59.332031 C 32.832031 61.734375 36.726563 61.738281 39.117188 59.335938 C 41.507813 56.9375 41.488281 53.042969 39.074219 50.640625 Z M 39.074219 50.640625 "/>
<path style=" stroke:none;fill-rule:nonzero;fill:rgb(52.54902%,83.921569%,20%);fill-opacity:1;" d="M 37.210938 52.519531 C 35.835938 51.148438 33.621094 51.136719 32.261719 52.5 C 30.902344 53.863281 30.914063 56.082031 32.289063 57.453125 C 33.664063 58.824219 35.882813 58.835938 37.242188 57.472656 C 38.601563 56.109375 38.589844 53.894531 37.210938 52.519531 Z M 37.210938 52.519531 "/>
</g>
</svg>
