<?xml version="1.0" encoding="UTF-8"?>
<svg xmlns="http://www.w3.org/2000/svg" xmlns:xlink="http://www.w3.org/1999/xlink" width="70pt" height="35pt" viewBox="0 0 70 35" version="1.1">
<g id="surface1">
<path style=" stroke:none;fill-rule:nonzero;fill:rgb(0%,0%,0%);fill-opacity:1;" d="M 35 0 C 51.640625 8.144531 60.464844 26.691406 56.285156 44.742188 C 52.105469 62.792969 36.027344 75.574219 17.5 75.574219 C -1.027344 75.574219 -17.105469 62.792969 -21.285156 44.742188 C -25.464844 26.691406 -16.640625 8.144531 0 0 L 9.1875 3.5 L 17.5 9.1875 C 40.613281 27.105469 46.210938 59.714844 30.390625 84.316406 C 14.574219 108.917969 -17.417969 117.355469 -43.3125 103.761719 C -69.207031 90.164063 -80.425781 59.039063 -69.160156 32.050781 C -57.894531 5.0625 -27.875 -8.851563 0 0 C -30.429688 -1.890625 -53.855469 -27.605469 -52.910156 -58.078125 C -51.964844 -88.554688 -26.988281 -112.765625 3.5 -112.765625 C 33.988281 -112.765625 58.964844 -88.554688 59.910156 -58.078125 C 60.855469 -27.605469 37.429688 -1.890625 7 0 L -1.3125 5.6875 L -10.5 9.1875 C -30.023438 13.8125 -49.933594 3.1875 -56.964844 -15.601563 C -63.996094 -34.390625 -55.945313 -55.476563 -38.183594 -64.804688 C -20.421875 -74.128906 1.507813 -68.78125 12.980469 -52.324219 C 24.457031 -35.867188 21.890625 -13.441406 7 0 C 28.855469 0.359375 46.335938 18.277344 46.15625 40.136719 C 45.976563 61.996094 28.203125 79.621094 6.34375 79.621094 C -15.515625 79.621094 -33.289063 61.996094 -33.46875 40.136719 C -33.648438 18.277344 -16.167969 0.359375 5.6875 0 L -3.5 -3.5 L -11.8125 -9.1875 C -34.925781 -27.105469 -40.523438 -59.714844 -24.703125 -84.316406 C -8.886719 -108.917969 23.105469 -117.355469 49 -103.761719 C 74.894531 -90.164063 86.113281 -59.039063 74.847656 -32.050781 C 63.582031 -5.0625 33.5625 8.851563 5.6875 0 L 14 -5.6875 L 24.9375 1.3125 C 44.734375 -2.222656 58.785156 -19.960938 57.695313 -40.042969 C 56.601563 -60.121094 40.710938 -76.234375 20.648438 -77.601563 C 0.585938 -78.96875 -17.347656 -65.160156 -21.152344 -45.417969 C -24.960938 -25.671875 -13.445313 -6.1875 5.6875 0 Z M 6.125 17.5 L 12.6875 23.1875 L 20.5625 27.5625 C 14.542969 32.632813 5.75 32.640625 -0.277344 27.578125 C -6.304688 22.515625 -7.816406 13.851563 -3.863281 7.046875 C 0.09375 0.242188 8.367188 -2.730469 15.75 0 C 13.472656 -9.523438 17.800781 -19.398438 26.34375 -24.179688 C 34.890625 -28.957031 45.570313 -27.480469 52.492188 -20.554688 C 59.417969 -13.632813 60.894531 -2.953125 56.117188 5.59375 C 51.335938 14.136719 41.460938 18.464844 31.9375 16.1875 L 24.0625 20.5625 Z M 48.125 17.5 C 46.328125 17.28125 44.5625 16.839844 42.875 16.1875 L 39.8125 12.25 L 35.875 9.1875 L 35 4.375 L 29.75 5.25 L 25.8125 8.3125 L 22.75 12.25 C 14.945313 5.925781 12.453125 -4.902344 16.703125 -14.003906 C 20.957031 -23.105469 30.863281 -28.140625 40.722656 -26.210938 C 50.582031 -24.285156 57.859375 -15.886719 58.371094 -5.855469 C 58.878906 4.179688 52.488281 13.269531 42.875 16.1875 L 45.9375 20.125 L 49.875 23.1875 L 35 30.625 L 40.25 29.75 L 44.1875 26.6875 L 47.25 22.75 C 51.726563 33.140625 47.539063 45.230469 37.597656 50.628906 C 27.652344 56.027344 15.234375 52.953125 8.957031 43.539063 C 2.683594 34.125 4.621094 21.476563 13.429688 14.375 C 22.234375 7.273438 35.003906 8.058594 42.875 16.1875 Z M 35 21.875 L 33.25 21.875 L 31.9375 21 L 31.0625 19.6875 C 30.097656 16.425781 31.957031 12.996094 35.21875 12.03125 C 38.480469 11.066406 41.910156 12.925781 42.875 16.1875 C 42.875 15.75 43.3125 15.3125 43.75 14.875 L 45.0625 14 L 48.5625 14 L 49.875 14.875 C 50.3125 15.3125 50.75 15.75 50.75 16.1875 C 50.75 25.730469 43.011719 33.46875 33.46875 33.46875 C 23.925781 33.46875 16.1875 25.730469 16.1875 16.1875 C 14.980469 15.761719 14.257813 14.527344 14.476563 13.269531 C 14.691406 12.007813 15.785156 11.085938 17.0625 11.085938 C 18.339844 11.085938 19.433594 12.007813 19.648438 13.269531 C 19.867188 14.527344 19.144531 15.761719 17.9375 16.1875 L 17.0625 17.5 L 15.75 18.375 Z M 49.4375 27.5625 L 57.3125 23.1875 L 63.875 17.5 L 57.3125 11.8125 L 49.4375 7.4375 C 51.855469 16.136719 46.761719 25.144531 38.0625 27.5625 C 29.363281 29.980469 20.355469 24.886719 17.9375 16.1875 C 18.832031 5.816406 26.90625 -2.488281 37.246094 -3.667969 C 47.585938 -4.851563 57.328125 1.414063 60.539063 11.316406 C 63.75 21.214844 59.542969 32.007813 50.476563 37.121094 C 41.410156 42.230469 29.996094 40.246094 23.1875 32.375 Z M 49.4375 27.5625 "/>
</g>
</svg>
