<?xml version="1.0" encoding="UTF-8"?>
<svg xmlns="http://www.w3.org/2000/svg" xmlns:xlink="http://www.w3.org/1999/xlink" width="70pt" height="70pt" viewBox="0 0 70 70" version="1.1">
<defs>
<filter id="alpha" filterUnits="objectBoundingBox" x="0%" y="0%" width="100%" height="100%">
  <feColorMatrix type="matrix" in="SourceGraphic" values="0 0 0 0 1 0 0 0 0 1 0 0 0 0 1 0 0 0 1 0"/>
</filter>
<mask id="mask0">
  <g filter="url(#alpha)">
<rect x="0" y="0" width="70" height="70" style="fill:rgb(0%,0%,0%);fill-opacity:0.901961;stroke:none;"/>
  </g>
</mask>
<linearGradient id="linear0" gradientUnits="userSpaceOnUse" x1="8.34" y1="11.96" x2="8.34" y2="1.86" gradientTransform="matrix(3.888889,0,0,3.888889,0,0)">
<stop offset="0" style="stop-color:rgb(82.352941%,92.156863%,100%);stop-opacity:1;"/>
<stop offset="1" style="stop-color:rgb(94.117647%,100%,99.215686%);stop-opacity:1;"/>
</linearGradient>
<clipPath id="clip1">
  <rect x="0" y="0" width="70" height="70"/>
</clipPath>
<g id="surface5" clip-path="url(#clip1)">
<path style=" stroke:none;fill-rule:nonzero;fill:url(#linear0);" d="M 4.9375 7.234375 L 59.929688 7.234375 C 60.570313 7.234375 61.09375 7.753906 61.09375 8.398438 L 61.09375 45.34375 C 61.09375 45.988281 60.570313 46.511719 59.929688 46.511719 L 4.9375 46.511719 C 4.292969 46.511719 3.773438 45.988281 3.773438 45.34375 L 3.773438 8.398438 C 3.773438 7.753906 4.292969 7.234375 4.9375 7.234375 Z M 4.9375 7.234375 "/>
</g>
<linearGradient id="linear1" gradientUnits="userSpaceOnUse" x1="14.15" y1="20.41" x2="14.15" y2="2.34" gradientTransform="matrix(3.888889,0,0,3.888889,0,0)">
<stop offset="0" style="stop-color:rgb(0%,47.058824%,83.137255%);stop-opacity:1;"/>
<stop offset="0.17" style="stop-color:rgb(10.980392%,51.764706%,86.27451%);stop-opacity:1;"/>
<stop offset="0.38" style="stop-color:rgb(22.352941%,56.470588%,89.411765%);stop-opacity:1;"/>
<stop offset="0.59" style="stop-color:rgb(30.196078%,60%,91.764706%);stop-opacity:1;"/>
<stop offset="0.8" style="stop-color:rgb(35.294118%,61.960784%,93.333333%);stop-opacity:1;"/>
<stop offset="1" style="stop-color:rgb(36.862745%,62.745098%,93.72549%);stop-opacity:1;"/>
</linearGradient>
</defs>
<g id="surface1">
<path style=" stroke:none;fill-rule:nonzero;fill:rgb(0%,47.058824%,83.137255%);fill-opacity:1;" d="M 2.332031 4.003906 L 62.535156 4.003906 C 63.820313 4.003906 64.867188 5.050781 64.867188 6.339844 L 64.867188 47.832031 C 64.867188 49.121094 63.820313 50.167969 62.535156 50.167969 L 2.332031 50.167969 C 1.042969 50.167969 0 49.121094 0 47.832031 L 0 6.339844 C 0 5.050781 1.042969 4.003906 2.332031 4.003906 Z M 2.332031 4.003906 "/>
<use xlink:href="#surface5" mask="url(#mask0)"/>
<path style=" stroke:none;fill-rule:nonzero;fill:url(#linear1);" d="M 41.222656 16.023438 L 68.832031 16.023438 C 69.476563 16.023438 70 16.542969 70 17.1875 L 70 64.828125 C 70 65.472656 69.476563 65.996094 68.832031 65.996094 L 41.222656 65.996094 C 40.578125 65.996094 40.054688 65.472656 40.054688 64.828125 L 40.054688 17.1875 C 40.054688 16.542969 40.578125 16.023438 41.222656 16.023438 Z M 41.222656 16.023438 "/>
<path style=" stroke:none;fill-rule:nonzero;fill:rgb(94.901961%,94.901961%,94.901961%);fill-opacity:1;" d="M 52.035156 17.695313 L 58.0625 17.695313 C 58.296875 17.695313 58.488281 17.886719 58.488281 18.121094 L 58.488281 18.199219 C 58.488281 18.4375 58.296875 18.628906 58.0625 18.628906 L 52.035156 18.628906 C 51.796875 18.628906 51.605469 18.4375 51.605469 18.199219 L 51.605469 18.121094 C 51.605469 17.886719 51.796875 17.695313 52.035156 17.695313 Z M 52.035156 17.695313 "/>
<path style=" stroke:none;fill-rule:nonzero;fill:rgb(94.901961%,94.901961%,94.901961%);fill-opacity:1;" d="M 29.515625 5.445313 L 35.542969 5.445313 C 35.78125 5.445313 35.972656 5.636719 35.972656 5.871094 L 35.972656 5.949219 C 35.972656 6.1875 35.78125 6.378906 35.542969 6.378906 L 29.515625 6.378906 C 29.28125 6.378906 29.089844 6.1875 29.089844 5.949219 L 29.089844 5.871094 C 29.089844 5.636719 29.28125 5.445313 29.515625 5.445313 Z M 29.515625 5.445313 "/>
<path style=" stroke:none;fill-rule:nonzero;fill:rgb(94.901961%,94.901961%,94.901961%);fill-opacity:1;" d="M 54.132813 62.066406 L 55.921875 62.066406 C 56.351563 62.066406 56.699219 62.414063 56.699219 62.84375 L 56.699219 64.128906 C 56.699219 64.558594 56.351563 64.90625 55.921875 64.90625 L 54.132813 64.90625 C 53.703125 64.90625 53.355469 64.558594 53.355469 64.128906 L 53.355469 62.84375 C 53.355469 62.414063 53.703125 62.066406 54.132813 62.066406 Z M 54.132813 62.066406 "/>
</g>
</svg>
