<?xml version="1.0" encoding="UTF-8"?>
<svg xmlns="http://www.w3.org/2000/svg" xmlns:xlink="http://www.w3.org/1999/xlink" width="70pt" height="70pt" viewBox="0 0 70 70" version="1.1">
<g id="surface1">
<path style=" stroke:none;fill-rule:nonzero;fill:rgb(0.392157%,36.078431%,85.490196%);fill-opacity:1;" d="M 70 35 C 70 54.328125 54.328125 70 35 70 C 15.671875 70 0 54.328125 0 35 C 0 15.671875 15.671875 0 35 0 C 54.328125 0 70 15.671875 70 35 Z M 70 35 "/>
<path style=" stroke:none;fill-rule:nonzero;fill:rgb(100%,100%,100%);fill-opacity:1;" d="M 34.21875 13.929688 L 33.980469 13.929688 C 29.085938 13.929688 24.542969 15.652344 20.875 18.378906 L 13.449219 10.953125 L 13.449219 30.5 L 32.988281 30.5 L 25.617188 23.121094 C 21.019531 27.921875 13.660156 28.777344 8.089844 25.160156 C 2.515625 21.539063 0.300781 14.46875 2.816406 8.320313 C 5.332031 2.167969 11.867188 -1.324219 18.378906 0 C 25.710938 0 31.792969 5.15625 33.070313 11.898438 L 39.519531 11.898438 C 31.734375 11.550781 24.761719 6.992188 21.320313 0 Z M 56.324219 39.449219 L 37.015625 39.449219 L 37.113281 39.5 L 37.015625 39.5 L 44.160156 46.644531 C 41.738281 48.34375 38.84375 49.25 35.558594 49.25 C 28.945313 49.25 23.3125 44.777344 21.390625 38.75 L 14.625 38.75 C 3.925781 32.085938 0.652344 18.011719 7.3125 7.3125 C 13.972656 -3.386719 28.050781 -6.660156 38.75 0 L 38.980469 0 C 43.800781 0 48.285156 -1.664063 51.9375 -4.316406 L 59.75 3.496094 L 59.75 39.449219 Z M 56.324219 39.449219 "/>
</g>
</svg>
