<?xml version="1.0" encoding="UTF-8"?>
<svg xmlns="http://www.w3.org/2000/svg" xmlns:xlink="http://www.w3.org/1999/xlink" width="70pt" height="70pt" viewBox="0 0 70 70" version="1.1">
<defs>
<linearGradient id="linear0" gradientUnits="userSpaceOnUse" x1="9" y1="15.63" x2="9" y2="-2.51" gradientTransform="matrix(3.888889,0,0,3.888889,0,0)">
<stop offset="0" style="stop-color:rgb(0%,47.058824%,83.137255%);stop-opacity:1;"/>
<stop offset="0.16" style="stop-color:rgb(7.45098%,50.196078%,85.490196%);stop-opacity:1;"/>
<stop offset="0.53" style="stop-color:rgb(23.529412%,56.862745%,89.803922%);stop-opacity:1;"/>
<stop offset="0.82" style="stop-color:rgb(33.333333%,61.176471%,92.54902%);stop-opacity:1;"/>
<stop offset="1" style="stop-color:rgb(36.862745%,62.745098%,93.72549%);stop-opacity:1;"/>
</linearGradient>
<linearGradient id="linear1" gradientUnits="userSpaceOnUse" x1="12.26" y1="7.17" x2="12.26" y2="17.21" gradientTransform="matrix(3.888889,0,0,3.888889,0,0)">
<stop offset="0" style="stop-color:rgb(100%,84.313725%,5.882353%);stop-opacity:1;"/>
<stop offset="0.27" style="stop-color:rgb(100%,82.745098%,6.27451%);stop-opacity:1;"/>
<stop offset="0.54" style="stop-color:rgb(100%,77.647059%,7.45098%);stop-opacity:1;"/>
<stop offset="0.83" style="stop-color:rgb(99.607843%,69.803922%,9.019608%);stop-opacity:1;"/>
<stop offset="1" style="stop-color:rgb(99.607843%,63.137255%,10.588235%);stop-opacity:1;"/>
</linearGradient>
</defs>
<g id="surface1">
<path style=" stroke:none;fill-rule:nonzero;fill:url(#linear0);" d="M 67.707031 32.667969 C 58.683594 36.566406 48.210938 32.414063 44.3125 23.390625 C 40.414063 14.371094 44.566406 3.898438 53.589844 0 C 58.871094 9.515625 55.441406 21.511719 45.929688 26.792969 C 36.414063 32.078125 24.417969 28.648438 19.132813 19.132813 L 0 2.292969 C -2.835938 -5.550781 0.152344 -14.316406 7.195313 -18.792969 C 14.238281 -23.269531 23.445313 -22.253906 29.34375 -16.355469 C 35.246094 -10.457031 36.257813 -1.25 31.78125 5.792969 C 27.304688 12.835938 18.542969 15.824219 10.695313 12.988281 L 40.523438 12.988281 C 36.421875 17.089844 36.421875 23.742188 40.523438 27.84375 C 44.625 31.945313 51.277344 31.945313 55.378906 27.84375 Z M 67.707031 32.667969 "/>
<path style=" stroke:none;fill-rule:nonzero;fill:rgb(46.27451%,73.72549%,17.647059%);fill-opacity:1;" d="M 31.65625 62.222656 L 31.65625 59.890625 L 29.285156 59.070313 L 28.660156 57.476563 L 29.867188 55.066406 L 29.867188 54.792969 L 28.234375 53.160156 L 27.921875 53.160156 L 25.589844 54.328125 L 23.996094 53.898438 L 22.984375 51.292969 L 20.6875 51.292969 L 19.910156 53.667969 L 18.160156 54.445313 L 15.554688 52.964844 L 13.84375 54.445313 L 13.84375 54.753906 L 15.011719 57.050781 L 14.351563 58.644531 L 11.667969 59.8125 L 11.667969 62.222656 L 12.015625 62.222656 L 14.464844 63.039063 L 15.128906 64.632813 L 13.882813 67.316406 L 15.515625 68.949219 L 15.828125 68.949219 L 18.160156 67.785156 L 19.753906 68.445313 L 20.765625 71.246094 L 23.0625 71.246094 L 23.0625 70.894531 L 23.878906 68.445313 L 25.433594 67.785156 L 28.15625 69.027344 L 29.789063 67.394531 L 29.789063 67.082031 L 28.621094 64.789063 L 29.050781 63.15625 Z M 21.894531 64.359375 C 21.894531 62.558594 23.355469 61.09375 25.160156 61.09375 C 26.964844 61.09375 28.429688 62.558594 28.429688 64.359375 C 28.429688 66.164063 26.964844 67.628906 25.160156 67.628906 Z M 21.894531 64.359375 "/>
<path style=" stroke:none;fill-rule:nonzero;fill:url(#linear1);" d="M 67.199219 49.15625 L 67.199219 44.605469 L 66.964844 44.410156 L 62.222656 42.777344 L 61.015625 39.667969 L 63.429688 35 L 63.660156 34.496094 L 62.222656 32.9375 L 60.511719 31.109375 L 59.890625 31.421875 L 55.339844 33.753906 L 52.226563 32.859375 L 50.246094 27.804688 L 45.734375 27.804688 L 45.5 28.039063 L 43.945313 32.667969 L 40.753906 33.871094 L 35.503906 31.382813 L 32.316406 34.570313 L 32.628906 35.195313 L 35 39.707031 L 33.714844 42.816406 L 28.234375 44.800781 L 28.234375 49.351563 L 28.894531 49.542969 L 33.714844 51.140625 L 35 54.445313 L 32.511719 59.695313 L 35.699219 62.921875 L 36.320313 62.648438 L 40.871094 60.316406 L 43.984375 61.601563 L 45.964844 67.082031 L 50.554688 67.082031 L 50.554688 66.109375 L 52.148438 61.289063 L 55.222656 60.003906 L 60.550781 62.457031 L 63.738281 59.265625 L 63.429688 58.644531 L 61.210938 54.445313 L 62.105469 51.253906 Z M 48.105469 53.355469 C 33.371094 66.640625 10.660156 65.464844 -2.625 50.730469 C -15.910156 35.996094 -14.734375 13.285156 0 0 C -2.515625 -1.453125 -3.742188 -4.414063 -2.988281 -7.21875 C -2.238281 -10.023438 0.304688 -11.972656 3.207031 -11.972656 C 6.113281 -11.972656 8.65625 -10.023438 9.40625 -7.21875 C 10.15625 -4.414063 8.933594 -1.453125 6.417969 0 Z M 48.105469 53.355469 "/>
<path style=" stroke:none;fill-rule:nonzero;fill:rgb(100%,100%,100%);fill-opacity:1;" d="M 48.105469 53.355469 C 33.371094 66.640625 10.660156 65.464844 -2.625 50.730469 C -15.910156 35.996094 -14.734375 13.285156 0 0 C -2.515625 -1.453125 -3.742188 -4.414063 -2.988281 -7.21875 C -2.238281 -10.023438 0.304688 -11.972656 3.207031 -11.972656 C 6.113281 -11.972656 8.65625 -10.023438 9.40625 -7.21875 C 10.15625 -4.414063 8.933594 -1.453125 6.417969 0 Z M 48.105469 53.355469 "/>
</g>
</svg>
