<?xml version="1.0" encoding="UTF-8"?>
<svg xmlns="http://www.w3.org/2000/svg" xmlns:xlink="http://www.w3.org/1999/xlink" width="70pt" height="70pt" viewBox="0 0 70 70" version="1.1">
<g id="surface1">
<path style=" stroke:none;fill-rule:nonzero;fill:rgb(0%,0%,0%);fill-opacity:1;" d="M 8.75 30.625 C 8.644531 28.8125 9.667969 27.121094 11.324219 26.378906 C 12.984375 25.636719 14.925781 25.992188 16.210938 27.277344 C 17.496094 28.558594 17.851563 30.503906 17.109375 32.160156 C 16.367188 33.816406 14.675781 34.84375 12.863281 34.738281 L 12.863281 78.488281 C 12.425781 79.648438 11.570313 80.503906 10.542969 80.804688 C 11.488281 79.035156 13.515625 78.132813 15.464844 78.617188 C 17.414063 79.105469 18.78125 80.855469 18.78125 82.863281 C 18.78125 84.871094 17.414063 86.621094 15.464844 87.105469 C 13.515625 87.59375 11.488281 86.691406 10.542969 84.917969 L 14.917969 89.292969 L 14.917969 95.988281 Z M 35 30.625 C 34.894531 28.8125 35.917969 27.121094 37.574219 26.378906 C 39.234375 25.636719 41.175781 25.992188 42.460938 27.277344 C 43.746094 28.558594 44.101563 30.503906 43.359375 32.160156 C 42.617188 33.816406 40.925781 34.84375 39.113281 34.738281 L 39.113281 78.488281 C 38.675781 79.648438 37.820313 80.503906 36.792969 80.804688 C 37.738281 79.035156 39.765625 78.132813 41.714844 78.617188 C 43.664063 79.105469 45.03125 80.855469 45.03125 82.863281 C 45.03125 84.871094 43.664063 86.621094 41.714844 87.105469 C 39.765625 87.59375 37.738281 86.691406 36.792969 84.917969 L 41.167969 89.292969 L 41.167969 95.988281 Z M 61.25 30.625 C 61.144531 28.8125 62.167969 27.121094 63.824219 26.378906 C 65.484375 25.636719 67.425781 25.992188 68.710938 27.277344 C 69.996094 28.558594 70.351563 30.503906 69.609375 32.160156 C 68.867188 33.816406 67.175781 34.84375 65.363281 34.738281 L 65.363281 78.488281 C 64.925781 79.648438 64.070313 80.503906 63.042969 80.804688 C 63.988281 79.035156 66.015625 78.132813 67.964844 78.617188 C 69.914063 79.105469 71.28125 80.855469 71.28125 82.863281 C 71.28125 84.871094 69.914063 86.621094 67.964844 87.105469 C 66.015625 87.59375 63.988281 86.691406 63.042969 84.917969 L 67.417969 89.292969 L 67.417969 95.988281 Z M 61.25 30.625 "/>
</g>
</svg>
