<?xml version="1.0" encoding="UTF-8"?>
<svg xmlns="http://www.w3.org/2000/svg" xmlns:xlink="http://www.w3.org/1999/xlink" width="70pt" height="70pt" viewBox="0 0 70 70" version="1.1">
<defs>
<linearGradient id="linear0" gradientUnits="userSpaceOnUse" x1="8.05" y1="11.32" x2="8.05" y2="1.26" gradientTransform="matrix(3.888889,0,0,3.888889,0,0)">
<stop offset="0" style="stop-color:rgb(0%,47.058824%,83.137255%);stop-opacity:1;"/>
<stop offset="0.82" style="stop-color:rgb(36.862745%,62.745098%,93.72549%);stop-opacity:1;"/>
</linearGradient>
<linearGradient id="linear1" gradientUnits="userSpaceOnUse" x1="8.05" y1="15.21" x2="8.05" y2="11.32" gradientTransform="matrix(3.888889,0,0,3.888889,0,0)">
<stop offset="0" style="stop-color:rgb(7.843137%,56.470588%,87.45098%);stop-opacity:1;"/>
<stop offset="0.98" style="stop-color:rgb(12.156863%,33.72549%,63.921569%);stop-opacity:1;"/>
</linearGradient>
<filter id="alpha" filterUnits="objectBoundingBox" x="0%" y="0%" width="100%" height="100%">
  <feColorMatrix type="matrix" in="SourceGraphic" values="0 0 0 0 1 0 0 0 0 1 0 0 0 0 1 0 0 0 1 0"/>
</filter>
<mask id="mask0">
  <g filter="url(#alpha)">
<rect x="0" y="0" width="70" height="70" style="fill:rgb(0%,0%,0%);fill-opacity:0.901961;stroke:none;"/>
  </g>
</mask>
<linearGradient id="linear2" gradientUnits="userSpaceOnUse" x1="8.05" y1="7.87" x2="8.05" y2="4.94" gradientTransform="matrix(3.888889,0,0,3.888889,0,0)">
<stop offset="0" style="stop-color:rgb(82.352941%,92.156863%,100%);stop-opacity:1;"/>
<stop offset="1" style="stop-color:rgb(94.117647%,100%,99.215686%);stop-opacity:1;"/>
</linearGradient>
<clipPath id="clip1">
  <rect x="0" y="0" width="70" height="70"/>
</clipPath>
<g id="surface5" clip-path="url(#clip1)">
<path style=" stroke:none;fill-rule:nonzero;fill:url(#linear2);" d="M 36.984375 24.929688 C 36.984375 28.0625 34.441406 30.605469 31.304688 30.605469 C 28.167969 30.605469 25.628906 28.0625 25.628906 24.929688 C 25.628906 21.792969 28.167969 19.25 31.304688 19.25 C 34.441406 19.25 36.984375 21.792969 36.984375 24.929688 Z M 36.984375 24.929688 "/>
</g>
</defs>
<g id="surface1">
<path style=" stroke:none;fill-rule:nonzero;fill:url(#linear0);" d="M 3.890625 4.898438 L 58.722656 4.898438 C 59.796875 4.898438 60.667969 5.769531 60.667969 6.84375 L 60.667969 42.078125 C 60.667969 43.152344 59.796875 44.023438 58.722656 44.023438 L 3.890625 44.023438 C 2.816406 44.023438 1.945313 43.152344 1.945313 42.078125 L 1.945313 6.84375 C 1.945313 5.769531 2.816406 4.898438 3.890625 4.898438 Z M 3.890625 4.898438 "/>
<path style=" stroke:none;fill-rule:nonzero;fill:rgb(100%,100%,100%);fill-opacity:1;" d="M 6.300781 8.167969 L 56.3125 8.167969 C 56.914063 8.167969 57.398438 8.652344 57.398438 9.253906 L 57.398438 39.707031 C 57.398438 40.308594 56.914063 40.792969 56.3125 40.792969 L 6.300781 40.792969 C 5.699219 40.792969 5.210938 40.308594 5.210938 39.707031 L 5.210938 9.253906 C 5.210938 8.652344 5.699219 8.167969 6.300781 8.167969 Z M 6.300781 8.167969 "/>
<path style=" stroke:none;fill-rule:nonzero;fill:url(#linear1);" d="M 43.089844 55.882813 C 37.253906 54.988281 37.023438 50.789063 37.0625 44.214844 L 25.394531 44.214844 C 25.394531 50.984375 25.160156 55.183594 19.367188 55.882813 C 3.933594 54.980469 -7.84375 41.738281 -6.941406 26.308594 C -6.039063 10.875 7.203125 -0.902344 22.632813 0 L 51.957031 0 C 50.9375 0.554688 49.707031 0.554688 48.6875 0 Z M 43.089844 55.882813 "/>
<path style=" stroke:none;fill-rule:nonzero;fill:rgb(19.607843%,74.509804%,86.666667%);fill-opacity:1;" d="M 66.773438 22.984375 L 40.015625 22.984375 C 33.671875 34.035156 19.566406 37.847656 8.515625 31.5 C -2.535156 25.152344 -6.347656 11.050781 0 0 L 42.777344 0 L 42.777344 37.253906 C 32.488281 49.066406 14.574219 50.304688 2.761719 40.015625 C -9.050781 29.730469 -10.289063 11.8125 0 0 L 22.671875 0 C 22.671875 6.261719 17.597656 11.335938 11.335938 11.335938 C 5.074219 11.335938 0 6.261719 0 0 L 0 24.265625 C -6.699219 24.621094 -12.421875 19.476563 -12.773438 12.773438 C -13.128906 6.074219 -7.984375 0.355469 -1.285156 0 Z M 66.773438 22.984375 "/>
<path style=" stroke:none;fill-rule:nonzero;fill:rgb(100%,100%,100%);fill-opacity:1;" d="M 45.65625 26.523438 L 65.214844 26.523438 C 65.472656 26.523438 65.683594 26.730469 65.683594 26.988281 L 65.683594 59.890625 C 65.683594 60.148438 65.472656 60.355469 65.214844 60.355469 L 45.65625 60.355469 C 45.398438 60.355469 45.1875 60.148438 45.1875 59.890625 L 45.1875 26.988281 C 45.1875 26.730469 45.398438 26.523438 45.65625 26.523438 Z M 45.65625 26.523438 "/>
<use xlink:href="#surface5" mask="url(#mask0)"/>
<path style=" stroke:none;fill-rule:nonzero;fill:rgb(0%,47.058824%,83.137255%);fill-opacity:1;" d="M 57.867188 42.078125 L 53.511719 37.722656 C 43.09375 37.667969 34.695313 29.179688 34.746094 18.765625 C 34.800781 8.347656 43.289063 -0.0546875 53.707031 0 L 53.707031 2.644531 C 52.976563 2.578125 52.4375 1.9375 52.5 1.207031 C 52.5625 0.476563 53.207031 -0.0625 53.9375 0 L 42.777344 0 L 42.777344 3.226563 L 52.890625 3.226563 C 51.996094 2.9375 51.511719 1.980469 51.800781 1.089844 C 52.089844 0.199219 53.046875 -0.289063 53.9375 0 L 53.9375 2.683594 C 54.679688 2.683594 55.28125 2.082031 55.28125 1.339844 C 55.28125 0.601563 54.679688 0 53.9375 0 L 57.867188 42.777344 C 46.054688 43.863281 35.597656 35.164063 34.515625 23.351563 C 33.429688 11.539063 42.125 1.085938 53.9375 0 Z M 57.867188 42.078125 "/>
</g>
</svg>
