<?xml version="1.0" encoding="UTF-8"?>
<svg xmlns="http://www.w3.org/2000/svg" xmlns:xlink="http://www.w3.org/1999/xlink" width="70pt" height="70pt" viewBox="0 0 70 70" version="1.1">
<g id="surface1">
<path style=" stroke:none;fill-rule:nonzero;fill:rgb(0%,0%,0%);fill-opacity:1;" d="M 22.75 31.0625 C 22.75 29.75 22.3125 28.4375 22.3125 27.5625 C 14.703125 28.527344 7.746094 23.140625 6.78125 15.53125 C 5.816406 7.921875 11.203125 0.964844 18.8125 0 C 20.273438 -8.3125 27.726563 -14.210938 36.148438 -13.722656 C 44.574219 -13.234375 51.296875 -6.511719 51.785156 1.914063 C 52.273438 10.335938 46.375 17.789063 38.0625 19.25 L 33.6875 3.0625 L 39.375 0.875 L 45.9375 0 L 52.5 0.875 C 59.191406 0.03125 65.726563 3.3125 69.046875 9.179688 C 72.371094 15.046875 71.820313 22.339844 67.652344 27.640625 C 63.488281 32.941406 56.53125 35.203125 50.046875 33.363281 C 43.558594 31.523438 38.824219 25.949219 38.0625 19.25 L 42.875 22.75 L 46.8125 27.5625 C 48.753906 11.976563 62.324219 0.484375 78.015625 1.132813 C 93.707031 1.78125 106.28125 14.355469 106.929688 30.046875 C 107.578125 45.738281 96.085938 59.308594 80.5 61.25 L 80.5 65.625 C 79.582031 74.027344 79.820313 80.347656 81.027344 79.742188 C 82.234375 79.140625 83.957031 71.839844 84.875 63.4375 L 80.9375 68.25 L 76.125 72.1875 L 70.4375 74.375 L 63.875 75.25 L 58.1875 74.375 L 52.9375 72.625 L 52.9375 52.5 L 26.25 52.5 L 26.25 61.25 L 17.5 61.25 L 17.5 70 L 0 70 L 0 53.8125 Z M 4.375 65.625 L 13.125 65.625 L 13.125 56.875 L 21.875 56.875 L 21.875 48.125 L 30.625 48.125 L 30.625 39.375 L 33.6875 39.375 C 35.398438 32.515625 41.824219 27.902344 48.871094 28.476563 C 55.917969 29.050781 61.511719 34.644531 62.085938 41.691406 C 62.660156 48.738281 58.046875 55.164063 51.1875 56.875 L 51.1875 64.75 C 50.773438 71.632813 49.984375 78.445313 49.152344 82.335938 C 48.316406 86.226563 47.582031 86.53125 47.25 83.125 L 64.3125 83.125 C 64.421875 87.03125 65.253906 89.125 66.210938 87.898438 C 67.164063 86.675781 67.910156 82.554688 67.910156 78.507813 C 67.910156 74.460938 67.164063 71.894531 66.210938 72.65625 C 65.253906 73.414063 64.421875 77.242188 64.3125 81.375 C 63.457031 78.113281 62.058594 75.78125 60.375 74.8125 C 62.03125 80.800781 60.550781 87.21875 56.4375 91.875 L 70.875 106.3125 L 87.5 106.3125 L 88.8125 110.25 L 4.375 55.5625 Z M 54.25 13.5625 L 55.5625 14.4375 C 56 14.875 56.4375 15.3125 56.4375 15.75 C 56.4375 14.300781 57.613281 13.125 59.0625 13.125 C 60.511719 13.125 61.6875 14.300781 61.6875 15.75 C 61.6875 17.199219 60.511719 18.375 59.0625 18.375 L 58.1875 19.6875 L 56.875 20.5625 L 53.375 20.5625 L 52.0625 19.6875 L 51.1875 18.375 C 51.1875 16.199219 52.949219 14.4375 55.125 14.4375 C 57.300781 14.4375 59.0625 16.199219 59.0625 18.375 C 59.0625 17.9375 59.5 17.5 59.9375 17.0625 L 61.25 16.1875 L 64.75 16.1875 Z M 54.25 13.5625 "/>
</g>
</svg>
