<?xml version="1.0" encoding="UTF-8"?>
<svg xmlns="http://www.w3.org/2000/svg" xmlns:xlink="http://www.w3.org/1999/xlink" width="70pt" height="70pt" viewBox="0 0 70 70" version="1.1">
<g id="surface1">
<path style=" stroke:none;fill-rule:nonzero;fill:rgb(46.666667%,22.745098%,86.27451%);fill-opacity:1;" d="M 51.0625 9.332031 L 51.0625 27.183594 L 35.699219 36.167969 L 35.699219 18.277344 Z M 51.0625 9.332031 "/>
<path style=" stroke:none;fill-rule:nonzero;fill:rgb(33.333333%,18.431373%,60%);fill-opacity:1;" d="M 44.527344 18.316406 C 46.667969 17.070313 48.417969 18.042969 48.417969 20.496094 C 42.757813 18.648438 39.667969 12.5625 41.515625 6.902344 C 43.359375 1.242188 49.445313 -1.847656 55.105469 0 C 52.964844 1.246094 51.214844 0.273438 51.214844 -2.214844 C 51.828125 12.539063 40.363281 24.996094 25.609375 25.609375 C 10.851563 26.21875 -1.605469 14.753906 -2.214844 0 Z M 44.527344 18.316406 "/>
<path style=" stroke:none;fill-rule:nonzero;fill:rgb(46.666667%,22.745098%,86.27451%);fill-opacity:1;" d="M 30.722656 42.777344 L 30.722656 60.628906 L 15.359375 69.609375 L 15.359375 51.722656 Z M 30.722656 42.777344 "/>
<path style=" stroke:none;fill-rule:nonzero;fill:rgb(33.333333%,18.431373%,60%);fill-opacity:1;" d="M 23.023438 52.617188 C 25.160156 51.410156 26.910156 52.382813 26.910156 54.832031 C 11.769531 52.984375 0.992188 39.214844 2.839844 24.070313 C 4.6875 8.929688 18.457031 -1.847656 33.601563 0 C 31.460938 1.246094 29.710938 0.234375 29.710938 -2.214844 C 30.324219 6.601563 23.671875 14.242188 14.855469 14.855469 C 6.039063 15.46875 -1.605469 8.816406 -2.214844 0 Z M 23.023438 52.617188 "/>
<path style=" stroke:none;fill-rule:nonzero;fill:rgb(65.098039%,47.843137%,95.686275%);fill-opacity:1;" d="M 15.359375 51.722656 L 15.359375 69.609375 L 0 60.628906 L 0 42.777344 Z M 15.359375 51.722656 "/>
<path style=" stroke:none;fill-rule:nonzero;fill:rgb(46.666667%,22.745098%,86.27451%);fill-opacity:1;" d="M 70 42.816406 L 70 60.667969 L 54.640625 69.648438 L 54.640625 51.761719 Z M 70 42.816406 "/>
<path style=" stroke:none;fill-rule:nonzero;fill:rgb(19.607843%,74.509804%,86.666667%);fill-opacity:1;" d="M 44.683594 24.109375 C 38.023438 36.449219 22.625 41.054688 10.285156 34.398438 C -2.054688 27.738281 -6.65625 12.339844 0 0 L 0.738281 -0.429688 L 4.628906 1.828125 C -0.132813 4.640625 -5.835938 5.386719 -11.160156 3.890625 Z M 44.683594 24.109375 "/>
<path style=" stroke:none;fill-rule:nonzero;fill:rgb(65.098039%,47.843137%,95.686275%);fill-opacity:1;" d="M 54.640625 51.800781 L 54.640625 69.648438 L 39.277344 60.667969 L 39.277344 42.816406 Z M 54.640625 51.800781 "/>
<path style=" stroke:none;fill-rule:nonzero;fill:rgb(33.333333%,18.431373%,60%);fill-opacity:1;" d="M 47.40625 52.851563 C 45.382813 51.683594 43.75 52.65625 43.75 54.949219 C 28.574219 51.855469 18.78125 37.050781 21.875 21.875 C 24.96875 6.699219 39.777344 -3.09375 54.949219 0 C 56.972656 1.167969 58.605469 0.234375 58.605469 -2.101563 C 56.894531 -0.519531 54.582031 0.246094 52.265625 0 Z M 47.40625 52.851563 "/>
<path style=" stroke:none;fill-rule:nonzero;fill:rgb(19.607843%,74.509804%,86.666667%);fill-opacity:1;" d="M 35.777344 62.648438 C 46.1875 58.269531 58.207031 62.808594 63.125 72.976563 C 68.042969 83.144531 64.140625 95.382813 54.242188 100.828125 C 44.347656 106.269531 31.917969 103.011719 25.964844 93.414063 C 20.011719 83.816406 22.613281 71.238281 31.890625 64.789063 L 48.84375 64.789063 C 25.058594 65.027344 15.855469 66.035156 28.289063 67.046875 C 40.726563 68.054688 70.089844 68.683594 93.878906 68.445313 C 82.296875 67.636719 73.441406 57.804688 73.84375 46.203125 C 74.246094 34.601563 83.769531 25.40625 95.375 25.40625 C 106.980469 25.40625 116.503906 34.601563 116.90625 46.203125 C 117.308594 57.804688 108.453125 67.636719 96.871094 68.445313 Z M 35.777344 62.648438 "/>
<path style=" stroke:none;fill-rule:nonzero;fill:rgb(71.764706%,58.823529%,97.647059%);fill-opacity:1;" d="M 51.0625 9.332031 L 35.738281 18.316406 L 20.378906 9.332031 L 35.738281 0.351563 Z M 51.0625 9.332031 "/>
<path style=" stroke:none;fill-rule:nonzero;fill:rgb(19.607843%,74.509804%,86.666667%);fill-opacity:1;" d="M 20.378906 20.609375 C 20.007813 10.917969 26.511719 2.300781 35.933594 0 L 15.554688 33.792969 L 15.554688 33.988281 C 6.167969 28.363281 3.121094 16.191406 8.75 6.804688 C 14.378906 -2.582031 26.546875 -5.628906 35.933594 0 Z M 20.378906 20.609375 "/>
<path style=" stroke:none;fill-rule:nonzero;fill:rgb(71.764706%,58.823529%,97.647059%);fill-opacity:1;" d="M 70 42.816406 L 54.640625 51.800781 L 39.277344 42.816406 L 54.640625 33.832031 Z M 30.722656 42.777344 L 15.359375 51.722656 L 0 42.777344 L 15.359375 33.792969 Z M 30.722656 42.777344 "/>
<path style=" stroke:none;fill-rule:nonzero;fill:rgb(65.098039%,47.843137%,95.686275%);fill-opacity:1;" d="M 35.699219 18.316406 L 35.699219 36.167969 L 20.378906 27.183594 L 20.378906 9.332031 Z M 35.699219 18.316406 "/>
</g>
</svg>
