<?xml version="1.0" encoding="UTF-8"?>
<svg xmlns="http://www.w3.org/2000/svg" xmlns:xlink="http://www.w3.org/1999/xlink" width="70pt" height="70pt" viewBox="0 0 70 70" version="1.1">
<defs>
<linearGradient id="linear0" gradientUnits="userSpaceOnUse" x1="6.59" y1="12.5" x2="6.59" y2="3.27" gradientTransform="matrix(3.888889,-0,0,3.888889,-0.000000000000000142,0.000000000000000024)">
<stop offset="0" style="stop-color:rgb(9.803922%,53.72549%,69.803922%);stop-opacity:1;"/>
<stop offset="0.35" style="stop-color:rgb(19.215686%,64.313725%,79.215686%);stop-opacity:1;"/>
<stop offset="0.76" style="stop-color:rgb(28.235294%,74.509804%,87.843137%);stop-opacity:1;"/>
<stop offset="1" style="stop-color:rgb(31.372549%,78.039216%,90.980392%);stop-opacity:1;"/>
</linearGradient>
<filter id="alpha" filterUnits="objectBoundingBox" x="0%" y="0%" width="100%" height="100%">
  <feColorMatrix type="matrix" in="SourceGraphic" values="0 0 0 0 1 0 0 0 0 1 0 0 0 0 1 0 0 0 1 0"/>
</filter>
<mask id="mask0">
  <g filter="url(#alpha)">
<rect x="0" y="0" width="70" height="70" style="fill:rgb(0%,0%,0%);fill-opacity:0.54902;stroke:none;"/>
  </g>
</mask>
<clipPath id="clip1">
  <rect x="0" y="0" width="70" height="70"/>
</clipPath>
<g id="surface5" clip-path="url(#clip1)">
<path style=" stroke:none;fill-rule:nonzero;fill:rgb(19.607843%,74.509804%,86.666667%);fill-opacity:1;" d="M 44.371094 44.800781 L 44.371094 23.332031 L 27.496094 23.332031 C 21.050781 22.816406 16.246094 17.175781 16.761719 10.734375 C 17.277344 4.289063 22.917969 -0.515625 29.359375 0 L 29.359375 46.667969 L 46.238281 46.667969 C 33.351563 51.328125 19.128906 44.660156 14.464844 31.773438 C 9.804688 18.886719 16.472656 4.660156 29.359375 0 Z M 44.371094 44.800781 "/>
</g>
</defs>
<g id="surface1">
<path style=" stroke:none;fill-rule:nonzero;fill:url(#linear0);" d="M 44.371094 2.996094 L 44.371094 43.671875 C 44.371094 45.324219 43.03125 46.667969 41.378906 46.667969 L 9.839844 46.667969 C 8.183594 46.667969 6.84375 45.324219 6.84375 43.671875 L 6.84375 2.996094 C 6.84375 1.339844 8.183594 0 9.839844 0 L 41.378906 0 C 43.03125 0 44.371094 1.339844 44.371094 2.996094 Z M 44.371094 2.996094 "/>
<path style=" stroke:none;fill-rule:nonzero;fill:rgb(31.372549%,90.196078%,100%);fill-opacity:1;" d="M 60.746094 23.332031 L 44.371094 23.332031 L 44.371094 44.800781 C 32 44.285156 22.390625 33.835938 22.90625 21.464844 C 23.421875 9.09375 33.867188 -0.515625 46.238281 0 L 25.628906 0 L 25.628906 20.921875 C 19.851563 15.230469 19.78125 5.933594 25.472656 0.15625 C 31.164063 -5.621094 40.460938 -5.691406 46.238281 0 L 78.984375 0 C 78.984375 9.042969 71.652344 16.371094 62.609375 16.371094 C 53.570313 16.371094 46.238281 9.042969 46.238281 0 L 46.238281 25.746094 C 39.128906 26.410156 32.828125 21.1875 32.160156 14.078125 C 31.496094 6.96875 36.71875 0.664063 43.828125 0 Z M 60.746094 23.332031 "/>
<path style=" stroke:none;fill-rule:nonzero;fill:rgb(19.607843%,74.509804%,86.666667%);fill-opacity:1;" d="M 44.371094 44.800781 L 44.371094 23.332031 L 27.496094 23.332031 C 21.050781 22.816406 16.246094 17.175781 16.761719 10.734375 C 17.277344 4.289063 22.917969 -0.515625 29.359375 0 L 29.359375 46.667969 L 46.238281 46.667969 C 33.351563 51.328125 19.128906 44.660156 14.464844 31.773438 C 9.804688 18.886719 16.472656 4.660156 29.359375 0 Z M 44.371094 44.800781 "/>
<use xlink:href="#surface5" mask="url(#mask0)"/>
</g>
</svg>
