<?xml version="1.0" encoding="UTF-8"?>
<svg xmlns="http://www.w3.org/2000/svg" xmlns:xlink="http://www.w3.org/1999/xlink" width="70pt" height="70pt" viewBox="0 0 70 70" version="1.1">
<defs>
<linearGradient id="linear0" gradientUnits="userSpaceOnUse" x1="5.57" y1="17.5" x2="5.57" y2="0.5" gradientTransform="matrix(3.888889,0,0,3.888889,0,0)">
<stop offset="0.05" style="stop-color:rgb(58.039216%,58.039216%,58.039216%);stop-opacity:1;"/>
<stop offset="0.36" style="stop-color:rgb(59.215686%,59.215686%,59.215686%);stop-opacity:1;"/>
<stop offset="0.54" style="stop-color:rgb(62.352941%,62.352941%,62.352941%);stop-opacity:1;"/>
<stop offset="0.69" style="stop-color:rgb(67.843137%,67.843137%,67.843137%);stop-opacity:1;"/>
<stop offset="0.73" style="stop-color:rgb(70.196078%,70.196078%,70.196078%);stop-opacity:1;"/>
</linearGradient>
<linearGradient id="linear1" gradientUnits="userSpaceOnUse" x1="10.56" y1="6.02" x2="10.56" y2="19.71" gradientTransform="matrix(3.888889,0,0,3.888889,0,0)">
<stop offset="0.18" style="stop-color:rgb(36.862745%,62.745098%,93.72549%);stop-opacity:1;"/>
<stop offset="1" style="stop-color:rgb(0%,47.058824%,83.137255%);stop-opacity:1;"/>
</linearGradient>
</defs>
<g id="surface1">
<path style=" stroke:none;fill-rule:nonzero;fill:url(#linear0);" d="M 41.066406 65.839844 C 22.886719 65.226563 8.644531 49.992188 9.253906 31.8125 C 9.867188 13.628906 25.101563 -0.613281 43.285156 0 L 4.433594 0 C 5.277344 0.5 5.683594 1.503906 5.425781 2.449219 C 5.167969 3.394531 4.304688 4.050781 3.324219 4.050781 C 2.34375 4.050781 1.484375 3.394531 1.222656 2.449219 C 0.964844 1.503906 1.371094 0.5 2.214844 0 L 2.214844 4.160156 C 1.324219 4.4375 0.351563 4.113281 -0.195313 3.351563 C -0.742188 2.59375 -0.742188 1.570313 -0.195313 0.808594 C 0.351563 0.0507813 1.324219 -0.277344 2.214844 0 L 38.890625 0 C 38.890625 10.125 30.679688 18.335938 20.554688 18.335938 C 10.425781 18.335938 2.214844 10.125 2.214844 0 Z M 41.066406 65.839844 "/>
<path style=" stroke:none;fill-rule:nonzero;fill:rgb(0%,18.823529%,40.392157%);fill-opacity:1;" d="M 7.777344 25.121094 C 0.839844 27.269531 -6.523438 23.386719 -8.671875 16.449219 C -10.820313 9.511719 -6.9375 2.148438 0 0 L 19.445313 0 C 19.445313 5.371094 15.089844 9.722656 9.722656 9.722656 C 4.351563 9.722656 0 5.371094 0 0 L -19.445313 0 C -19.445313 -5.371094 -15.089844 -9.722656 -9.722656 -9.722656 C -4.351563 -9.722656 0 -5.371094 0 0 Z M 7.777344 12.601563 C 4.296875 14.746094 -0.261719 13.667969 -2.410156 10.1875 C -4.558594 6.710938 -3.480469 2.148438 0 0 L 19.445313 0 C 19.445313 5.371094 15.089844 9.722656 9.722656 9.722656 C 4.351563 9.722656 0 5.371094 0 0 L -19.445313 0 C -19.445313 -5.371094 -15.089844 -9.722656 -9.722656 -9.722656 C -4.351563 -9.722656 0 -5.371094 0 0 Z M 7.777344 12.601563 "/>
<path style=" stroke:none;fill-rule:nonzero;fill:rgb(31.372549%,90.196078%,100%);fill-opacity:1;" d="M 15.167969 12.601563 C 15.167969 14.167969 13.894531 15.4375 12.328125 15.4375 C 10.761719 15.4375 9.488281 14.167969 9.488281 12.601563 C 9.488281 11.03125 10.761719 9.761719 12.328125 9.761719 C 13.894531 9.761719 15.167969 11.03125 15.167969 12.601563 Z M 15.167969 12.601563 "/>
<path style=" stroke:none;fill-rule:nonzero;fill:rgb(31.372549%,90.196078%,100%);fill-opacity:1;" d="M 15.167969 25.121094 C 15.167969 26.691406 13.894531 27.960938 12.328125 27.960938 C 10.761719 27.960938 9.488281 26.691406 9.488281 25.121094 C 9.488281 23.554688 10.761719 22.285156 12.328125 22.285156 C 13.894531 22.285156 15.167969 23.554688 15.167969 25.121094 Z M 15.167969 25.121094 "/>
<path style=" stroke:none;fill-rule:nonzero;fill:url(#linear1);" d="M 67.746094 55.921875 C 68.722656 59.558594 67.957031 63.441406 65.671875 66.433594 C 63.386719 69.425781 59.84375 71.191406 56.078125 71.207031 L 71.632813 86.761719 L 86.023438 86.761719 L 86.023438 101.773438 L 112.351563 101.773438 C 112.351563 109.042969 106.457031 114.9375 99.1875 114.9375 C 91.914063 114.9375 86.023438 109.042969 86.023438 101.773438 Z M 67.746094 55.921875 "/>
</g>
</svg>
