<?xml version="1.0" encoding="UTF-8"?>
<svg xmlns="http://www.w3.org/2000/svg" xmlns:xlink="http://www.w3.org/1999/xlink" width="30pt" height="70pt" viewBox="0 0 30 70" version="1.1">
<g id="surface1">
<path style=" stroke:none;fill-rule:nonzero;fill:rgb(0%,0%,0%);fill-opacity:1;" d="M 30 13.125 L 30 54.6875 C 15.207031 52.996094 4.558594 39.382813 6.214844 24.28125 C 7.871094 9.179688 21.207031 -1.691406 36 0 C 38.050781 -8.097656 45.3125 -13.671875 53.5 -13.441406 C 61.691406 -13.210938 68.636719 -7.230469 70.242188 0.972656 C 71.847656 9.171875 67.691406 17.417969 60.21875 20.847656 C 52.746094 24.277344 43.945313 21.980469 39 15.3125 L 54 30.625 C 59.664063 24.644531 68.609375 23.421875 75.613281 27.671875 C 82.617188 31.925781 85.839844 40.535156 83.398438 48.46875 C 80.953125 56.40625 73.488281 61.585938 65.359375 60.980469 C 57.234375 60.378906 50.578125 54.148438 49.285156 45.9375 L 49.285156 2.1875 C 61.121094 2.1875 70.714844 11.980469 70.714844 24.0625 C 70.714844 36.144531 61.121094 45.9375 49.285156 45.9375 L 52.714844 43.75 L 57 42.875 L 61.285156 43.75 L 64.714844 45.9375 C 64.953125 37.597656 71.683594 30.988281 79.851563 31.070313 C 88.023438 31.148438 94.628906 37.890625 94.707031 46.234375 C 94.785156 54.574219 88.3125 61.445313 80.144531 61.6875 L 80.144531 105.4375 C 68.308594 104.710938 59.289063 94.332031 60 82.25 C 60.710938 70.167969 70.878906 60.960938 82.714844 61.6875 L 81.429688 63.875 L 79.285156 65.1875 L 12.429688 65.1875 L 10.285156 63.875 L 9 61.6875 C 11.75 62.351563 13.578125 65.015625 13.246094 67.882813 C 12.917969 70.75 10.539063 72.910156 7.714844 72.910156 C 4.886719 72.910156 2.507813 70.75 2.179688 67.882813 C 1.851563 65.015625 3.679688 62.351563 6.429688 61.6875 L 6.429688 17.5 L 10.714844 17.5 L 10.714844 54.6875 C 12.609375 55.894531 13.183594 58.441406 12 60.375 C 10.816406 62.308594 8.320313 62.894531 6.429688 61.6875 L 9.855469 61.6875 C 10.652344 62.414063 10.925781 63.5625 10.546875 64.582031 C 10.164063 65.597656 9.210938 66.269531 8.144531 66.269531 C 7.078125 66.269531 6.121094 65.597656 5.742188 64.582031 C 5.359375 63.5625 5.632813 62.414063 6.429688 61.6875 L 6.429688 17.9375 C 18.261719 18.664063 27.28125 29.042969 26.570313 41.125 C 25.863281 53.207031 15.691406 62.414063 3.855469 61.6875 L 2.570313 59.5 L 0.429688 58.1875 L 8.144531 58.1875 L 6 59.5 L 4.714844 61.6875 C 5.558594 61.484375 6.441406 61.484375 7.285156 61.6875 L 7.285156 105.4375 C 7.113281 98.992188 10.808594 93.089844 16.609375 90.539063 C 22.414063 87.988281 29.152344 89.308594 33.617188 93.867188 C 38.085938 98.429688 39.378906 105.308594 36.878906 111.230469 C 34.382813 117.15625 28.601563 120.925781 22.285156 120.75 L 25.714844 122.9375 L 30 123.8125 L 34.285156 122.9375 L 37.714844 120.75 C 37.953125 112.410156 44.683594 105.800781 52.851563 105.882813 C 61.023438 105.960938 67.628906 112.703125 67.707031 121.046875 C 67.785156 129.386719 61.3125 136.257813 53.144531 136.5 L 53.144531 13.125 Z M 30 13.125 "/>
</g>
</svg>
