<?xml version="1.0" encoding="UTF-8"?>
<svg xmlns="http://www.w3.org/2000/svg" xmlns:xlink="http://www.w3.org/1999/xlink" width="70pt" height="70pt" viewBox="0 0 70 70" version="1.1">
<defs>
<linearGradient id="linear0" gradientUnits="userSpaceOnUse" x1="13.01" y1="5.83" x2="12.78" y2="19.82" gradientTransform="matrix(3.888889,0,0,3.888889,0,0)">
<stop offset="0" style="stop-color:rgb(61.176471%,92.156863%,100%);stop-opacity:1;"/>
<stop offset="1" style="stop-color:rgb(31.372549%,90.196078%,100%);stop-opacity:1;"/>
</linearGradient>
</defs>
<g id="surface1">
<path style=" stroke:none;fill-rule:nonzero;fill:rgb(0%,47.058824%,83.137255%);fill-opacity:1;" d="M 50.945313 1.011719 L 23.722656 1.011719 C 24.03125 0.335938 24.734375 -0.0664063 25.472656 0 L 25.472656 39.667969 C 16.84375 51.800781 1.359375 56.964844 -12.828125 52.433594 C -27.011719 47.90625 -36.640625 34.722656 -36.640625 19.832031 C -36.640625 4.941406 -27.011719 -8.238281 -12.828125 -12.765625 C 1.359375 -17.296875 16.84375 -12.132813 25.472656 0 L 30.644531 0 L 33.523438 3.890625 L 33.523438 9.878906 L 29.90625 14.699219 L 24.929688 14.039063 L 21.039063 12.523438 L 21.039063 13.570313 C 17.292969 12.347656 15.246094 8.316406 16.46875 4.570313 C 17.695313 0.820313 21.722656 -1.222656 25.472656 0 L 52.695313 0 C 52.695313 7.515625 46.601563 13.609375 39.082031 13.609375 C 31.566406 13.609375 25.472656 7.515625 25.472656 0 L 25.472656 2.761719 C 24.761719 2.90625 24.035156 2.59375 23.648438 1.984375 C 23.257813 1.371094 23.289063 0.582031 23.722656 0 Z M 50.945313 1.011719 "/>
<path style=" stroke:none;fill-rule:nonzero;fill:rgb(94.901961%,94.901961%,94.901961%);fill-opacity:1;" d="M 26.054688 8.050781 L 31.109375 8.050781 C 28.886719 16.640625 20.121094 21.804688 11.53125 19.582031 C 2.941406 17.359375 -2.222656 8.589844 0 0 L 0 6.609375 C -1.824219 6.609375 -3.304688 5.132813 -3.304688 3.304688 C -3.304688 1.480469 -1.824219 0 0 0 L 26.054688 0 C 26.214844 0.101563 26.285156 0.296875 26.230469 0.480469 C 26.179688 0.660156 26.011719 0.785156 25.820313 0.785156 C 25.632813 0.785156 25.464844 0.660156 25.414063 0.480469 C 25.359375 0.296875 25.429688 0.101563 25.589844 0 L 25.589844 -6.609375 C 27.414063 -6.609375 28.894531 -5.132813 28.894531 -3.304688 C 28.894531 -1.480469 27.414063 0 25.589844 0 Z M 35 8.050781 L 40.015625 8.050781 C 37.792969 12.035156 32.761719 13.460938 28.777344 11.238281 C 24.792969 9.015625 23.367188 3.984375 25.589844 0 L 25.589844 6.609375 C 23.761719 6.480469 22.386719 4.898438 22.515625 3.070313 C 22.644531 1.246094 24.230469 -0.128906 26.054688 0 L 35 0 C 35.160156 0.101563 35.230469 0.296875 35.175781 0.480469 C 35.121094 0.660156 34.957031 0.785156 34.765625 0.785156 C 34.578125 0.785156 34.410156 0.660156 34.355469 0.480469 C 34.300781 0.296875 34.375 0.101563 34.535156 0 L 34.535156 -6.609375 C 36.359375 -6.609375 37.839844 -5.132813 37.839844 -3.304688 C 37.839844 -1.480469 36.359375 0 34.535156 0 Z M 43.828125 8.050781 L 48.804688 8.050781 C 46.582031 11.992188 41.585938 13.382813 37.644531 11.160156 C 33.703125 8.9375 32.308594 3.941406 34.535156 0 L 34.535156 6.609375 C 32.707031 6.480469 31.332031 4.898438 31.460938 3.070313 C 31.589844 1.246094 33.175781 -0.128906 35 0 L 29.867188 0 C 30.050781 0.105469 30.140625 0.320313 30.085938 0.523438 C 30.03125 0.730469 29.84375 0.871094 29.632813 0.871094 C 29.421875 0.871094 29.238281 0.730469 29.183594 0.523438 C 29.128906 0.320313 29.21875 0.105469 29.398438 0 L 29.398438 -6.609375 C 31.226563 -6.609375 32.707031 -5.132813 32.707031 -3.304688 C 32.707031 -1.480469 31.226563 0 29.398438 0 Z M 26.054688 20.066406 L 31.109375 20.066406 C 25.570313 20.539063 20.695313 16.429688 20.222656 10.890625 C 19.75 5.347656 23.859375 0.472656 29.398438 0 L 29.398438 27.222656 C 21.882813 27.125 15.867188 20.953125 15.964844 13.4375 C 16.058594 5.917969 22.234375 -0.0976563 29.75 0 L 26.054688 0 C 26.054688 -1.019531 26.882813 -1.847656 27.902344 -1.847656 C 28.921875 -1.847656 29.75 -1.019531 29.75 0 L 29.75 20.496094 C 24.089844 20.496094 19.503906 15.90625 19.503906 10.246094 C 19.503906 4.585938 24.089844 0 29.75 0 Z M 35 20.066406 L 40.015625 20.066406 C 34.476563 22.902344 27.683594 20.707031 24.851563 15.167969 C 22.015625 9.625 24.207031 2.835938 29.75 0 L 29.75 27.222656 C 22.234375 27.105469 16.234375 20.914063 16.351563 13.398438 C 16.472656 5.878906 22.660156 -0.117188 30.179688 0 L 35 0 C 35 1.332031 33.921875 2.410156 32.589844 2.410156 C 31.257813 2.410156 30.179688 1.332031 30.179688 0 L 30.179688 20.496094 C 24.519531 20.496094 19.929688 15.90625 19.929688 10.246094 C 19.929688 4.585938 24.519531 0 30.179688 0 Z M 43.828125 20.066406 L 48.804688 20.066406 C 43.265625 25.210938 34.601563 24.886719 29.457031 19.347656 C 24.3125 13.804688 24.636719 5.144531 30.179688 0 L 30.179688 27.222656 C 22.660156 27.105469 16.664063 20.914063 16.78125 13.398438 C 16.898438 5.878906 23.089844 -0.117188 30.605469 0 L 25.472656 0 C 25.640625 0.0976563 25.722656 0.292969 25.671875 0.480469 C 25.621094 0.667969 25.453125 0.796875 25.257813 0.796875 C 25.066406 0.796875 24.894531 0.667969 24.84375 0.480469 C 24.796875 0.292969 24.875 0.0976563 25.042969 0 L 25.042969 20.496094 C 19.386719 20.496094 14.796875 15.90625 14.796875 10.246094 C 14.796875 4.585938 19.386719 0 25.042969 0 Z M 43.828125 20.066406 "/>
<path style=" stroke:none;fill-rule:nonzero;fill:rgb(31.372549%,90.196078%,100%);fill-opacity:1;" d="M 27.6875 42.972656 C 15.824219 42.15625 6.863281 31.875 7.679688 20.007813 C 8.496094 8.140625 18.777344 -0.816406 30.644531 0 L 9.839844 0 C 10.523438 -0.0585938 11.214844 -0.0585938 11.898438 0 L 11.898438 0.195313 L 26.09375 0.195313 C 26.039063 4.113281 22.820313 7.25 18.898438 7.195313 C 14.980469 7.140625 11.847656 3.917969 11.898438 0 Z M 27.6875 42.972656 "/>
<path style=" stroke:none;fill-rule:nonzero;fill:rgb(19.607843%,74.509804%,86.666667%);fill-opacity:1;" d="M 38.421875 41.222656 C 27.039063 51.832031 9.210938 51.207031 -1.398438 39.820313 C -12.011719 28.4375 -11.382813 10.609375 0 0 C 4.21875 1.492188 7.011719 5.519531 6.921875 9.996094 L 22.945313 9.996094 C 23.03125 7.09375 25.421875 4.796875 28.324219 4.824219 C 31.222656 4.851563 33.570313 7.199219 33.597656 10.101563 C 33.625 13 31.328125 15.390625 28.429688 15.476563 L 9.839844 15.476563 C 8.304688 11.355469 9.671875 6.714844 13.191406 4.078125 C 16.714844 1.445313 21.550781 1.445313 25.074219 4.078125 C 28.597656 6.714844 29.960938 11.355469 28.429688 15.476563 L 37.332031 15.476563 C 40.242188 17.4375 41.527344 21.066406 40.503906 24.417969 C 39.480469 27.773438 36.386719 30.0625 32.878906 30.0625 C 29.375 30.0625 26.28125 27.773438 25.253906 24.417969 C 24.230469 21.066406 25.519531 17.4375 28.429688 15.476563 Z M 38.421875 41.222656 "/>
<path style=" stroke:none;fill-rule:nonzero;fill:rgb(31.372549%,90.196078%,100%);fill-opacity:1;" d="M 27.6875 42.972656 C 15.824219 42.15625 6.863281 31.875 7.679688 20.007813 C 8.496094 8.140625 18.777344 -0.816406 30.644531 0 L 9.839844 0 C 11.554688 -2.949219 15.054688 -4.359375 18.335938 -3.425781 C 21.617188 -2.492188 23.847656 0.546875 23.757813 3.957031 C 23.664063 7.371094 21.269531 10.285156 17.941406 11.039063 C 14.613281 11.792969 11.199219 10.195313 9.644531 7.15625 L 10.304688 7.15625 L 10.539063 6.496094 C 10.710938 2.285156 14.203125 -1.023438 18.417969 -0.964844 C 22.628906 -0.90625 26.03125 2.492188 26.085938 6.707031 C 26.144531 10.917969 22.835938 14.410156 18.628906 14.582031 C 21.917969 18.726563 21.871094 24.601563 18.519531 28.695313 C 15.167969 32.785156 9.414063 33.984375 4.707031 31.578125 C -0.00390625 29.167969 -2.394531 23.800781 -1.035156 18.6875 C 0.320313 13.574219 5.058594 10.101563 10.34375 10.34375 C 14.101563 11.960938 16.535156 15.664063 16.527344 19.753906 L 22.398438 25.628906 L 36.515625 25.628906 C 36.515625 29.527344 33.355469 32.6875 29.457031 32.6875 C 25.558594 32.6875 22.398438 29.527344 22.398438 25.628906 Z M 27.6875 42.972656 "/>
<path style=" stroke:none;fill-rule:nonzero;fill:url(#linear0);" d="M 31.109375 43.90625 L 48.609375 26.40625 C 55.902344 12.980469 50.933594 -3.8125 37.507813 -11.101563 C 24.085938 -18.394531 7.292969 -13.421875 0 0 L 17.460938 17.5 C 12.628906 17.058594 9.066406 12.785156 9.507813 7.953125 C 9.949219 3.121094 14.222656 -0.441406 19.054688 0 L 8.476563 0 C 8.765625 -0.167969 9.121094 -0.167969 9.410156 0 L 9.410156 21.816406 C 3.386719 21.613281 -1.332031 16.5625 -1.128906 10.539063 C -0.921875 4.515625 4.125 -0.203125 10.148438 0 L -1.515625 0 C -1.25 0.164063 -1.128906 0.484375 -1.214844 0.785156 C -1.296875 1.085938 -1.574219 1.292969 -1.886719 1.292969 C -2.199219 1.292969 -2.472656 1.085938 -2.558594 0.785156 C -2.644531 0.484375 -2.519531 0.164063 -2.253906 0 L -2.253906 -21.816406 C 3.769531 -21.558594 8.445313 -16.464844 8.1875 -10.441406 C 7.929688 -4.417969 2.835938 0.257813 -3.1875 0 L 31.929688 0 C 32.167969 0.390625 32.085938 0.898438 31.734375 1.195313 C 31.386719 1.492188 30.875 1.492188 30.523438 1.195313 C 30.175781 0.898438 30.09375 0.390625 30.332031 0 Z M 31.109375 43.90625 "/>
</g>
</svg>
