<?xml version="1.0" encoding="UTF-8"?>
<svg xmlns="http://www.w3.org/2000/svg" xmlns:xlink="http://www.w3.org/1999/xlink" width="70pt" height="70pt" viewBox="0 0 70 70" version="1.1">
<defs>
<linearGradient id="linear0" gradientUnits="userSpaceOnUse" x1="9" y1="9" x2="15.8" y2="9" gradientTransform="matrix(3.888889,0,0,3.888889,0,0)">
<stop offset="0" style="stop-color:rgb(80%,80%,80%);stop-opacity:1;"/>
<stop offset="0.32" style="stop-color:rgb(87.45098%,87.45098%,87.45098%);stop-opacity:1;"/>
<stop offset="0.67" style="stop-color:rgb(92.54902%,92.54902%,92.54902%);stop-opacity:1;"/>
<stop offset="1" style="stop-color:rgb(94.117647%,94.117647%,94.117647%);stop-opacity:1;"/>
</linearGradient>
</defs>
<g id="surface1">
<path style=" stroke:none;fill-rule:nonzero;fill:rgb(0%,47.058824%,83.137255%);fill-opacity:1;" d="M 65.292969 13.300781 L 4.707031 13.300781 C 1.03125 12.601563 -1.378906 9.058594 -0.679688 5.386719 C 0.015625 1.714844 3.5625 -0.699219 7.234375 0 L 7.234375 45.578125 C -5.351563 45.578125 -15.554688 35.375 -15.554688 22.789063 C -15.554688 10.203125 -5.351563 0 7.234375 0 L 67.820313 0 C 67.820313 16.730469 54.257813 30.292969 37.527344 30.292969 C 20.796875 30.292969 7.234375 16.730469 7.234375 0 L 7.234375 15.828125 C 2.863281 16.527344 -1.246094 13.546875 -1.945313 9.179688 C -2.640625 4.808594 0.335938 0.699219 4.707031 0 Z M 65.292969 13.300781 "/>
<path style=" stroke:none;fill-rule:nonzero;fill:rgb(0%,35.686275%,63.137255%);fill-opacity:1;" d="M 65.527344 13.300781 L 35 13.300781 L 35 63.855469 L 65.644531 63.855469 C 48.011719 81.984375 19.023438 82.382813 0.894531 64.75 C -17.234375 47.117188 -17.632813 18.128906 0 0 L 0 15.828125 C -4.371094 16.527344 -8.480469 13.546875 -9.179688 9.179688 C -9.875 4.808594 -6.898438 0.699219 -2.527344 0 Z M 65.527344 13.300781 "/>
<path style=" stroke:none;fill-rule:nonzero;fill:rgb(94.901961%,94.901961%,94.901961%);fill-opacity:1;" d="M 29.710938 6.066406 L 9.878906 6.066406 C 8.203125 5.703125 7.140625 4.046875 7.503906 2.371094 C 7.871094 0.695313 9.523438 -0.363281 11.199219 0 L 11.199219 50.554688 C -2.761719 50.554688 -14.078125 39.238281 -14.078125 25.277344 C -14.078125 11.316406 -2.761719 0 11.199219 0 L 31.035156 0 C 31.035156 5.476563 26.59375 9.917969 21.117188 9.917969 C 15.640625 9.917969 11.199219 5.476563 11.199219 0 L 11.199219 11.394531 C 8.054688 12.867188 4.308594 11.507813 2.839844 8.359375 C 1.367188 5.214844 2.726563 1.472656 5.871094 0 Z M 29.710938 6.066406 "/>
<path style=" stroke:none;fill-rule:nonzero;fill:url(#linear0);" d="M 40.289063 6.066406 L 60.121094 6.066406 C 58.445313 22.667969 43.628906 34.769531 27.027344 33.09375 C 10.425781 31.417969 -1.675781 16.601563 0 0 L 0 50.554688 C -13.960938 50.179688 -24.972656 38.558594 -24.597656 24.597656 C -24.222656 10.636719 -12.597656 -0.375 1.359375 0 L -18.472656 0 C -18.472656 -5.476563 -14.03125 -9.917969 -8.554688 -9.917969 C -3.078125 -9.917969 1.359375 -5.476563 1.359375 0 L 1.359375 11.394531 C -1.785156 11.394531 -4.335938 8.84375 -4.335938 5.695313 C -4.335938 2.550781 -1.785156 0 1.359375 0 Z M 40.289063 6.066406 "/>
<path style=" stroke:none;fill-rule:nonzero;fill:rgb(70.196078%,70.196078%,70.196078%);fill-opacity:1;" d="M 29.128906 19.445313 L 14.464844 19.445313 C 9.097656 19.285156 4.875 14.800781 5.035156 9.429688 C 5.195313 4.0625 9.679688 -0.160156 15.050781 0 L 15.050781 1.476563 C 14.640625 1.476563 14.3125 1.148438 14.3125 0.738281 C 14.3125 0.332031 14.640625 0 15.050781 0 L 29.710938 0 C 29.710938 4.046875 26.429688 7.332031 22.378906 7.332031 C 18.332031 7.332031 15.050781 4.046875 15.050781 0 L 15.050781 -1.554688 C 15.480469 -1.554688 15.828125 -1.207031 15.828125 -0.777344 C 15.828125 -0.347656 15.480469 0 15.050781 0 Z M 29.128906 27.222656 L 14.464844 27.222656 C 6.949219 27.0625 0.984375 20.835938 1.148438 13.320313 C 1.308594 5.800781 7.53125 -0.160156 15.050781 0 L 15.050781 1.476563 C 14.640625 1.476563 14.3125 1.148438 14.3125 0.738281 C 14.3125 0.332031 14.640625 0 15.050781 0 L 29.710938 0 C 29.710938 4.046875 26.429688 7.332031 22.378906 7.332031 C 18.332031 7.332031 15.050781 4.046875 15.050781 0 L 15.050781 -1.359375 C 15.425781 -1.359375 15.730469 -1.054688 15.730469 -0.679688 C 15.730469 -0.304688 15.425781 0 15.050781 0 Z M 29.128906 11.394531 L 14.464844 11.394531 C 11.320313 11.234375 8.898438 8.550781 9.0625 5.40625 C 9.222656 2.257813 11.902344 -0.160156 15.050781 0 L 15.050781 1.476563 C 14.640625 1.476563 14.3125 1.148438 14.3125 0.738281 C 14.3125 0.332031 14.640625 0 15.050781 0 L 29.710938 0 C 29.710938 4.046875 26.429688 7.332031 22.378906 7.332031 C 18.332031 7.332031 15.050781 4.046875 15.050781 0 L 15.050781 -1.476563 C 15.457031 -1.316406 15.660156 -0.855469 15.496094 -0.445313 C 15.335938 -0.0390625 14.875 0.160156 14.464844 0 Z M 29.128906 35.3125 L 14.464844 35.3125 C 4.714844 35.148438 -3.058594 27.113281 -2.898438 17.363281 C -2.734375 7.613281 5.300781 -0.160156 15.050781 0 L 15.050781 1.476563 C 14.640625 1.476563 14.3125 1.148438 14.3125 0.738281 C 14.3125 0.332031 14.640625 0 15.050781 0 L 29.710938 0 C 29.710938 4.046875 26.429688 7.332031 22.378906 7.332031 C 18.332031 7.332031 15.050781 4.046875 15.050781 0 L 15.050781 -1.476563 C 15.457031 -1.316406 15.660156 -0.855469 15.496094 -0.445313 C 15.335938 -0.0390625 14.875 0.160156 14.464844 0 Z M 29.128906 43.285156 L 14.464844 43.285156 C 2.515625 43.121094 -7.042969 33.300781 -6.882813 21.351563 C -6.722656 9.398438 3.097656 -0.160156 15.050781 0 L 15.050781 1.476563 C 14.640625 1.476563 14.3125 1.148438 14.3125 0.738281 C 14.3125 0.332031 14.640625 0 15.050781 0 L 29.710938 0 C 29.710938 4.046875 26.429688 7.332031 22.378906 7.332031 C 18.332031 7.332031 15.050781 4.046875 15.050781 0 L 15.050781 -1.476563 C 15.457031 -1.316406 15.660156 -0.855469 15.496094 -0.445313 C 15.335938 -0.0390625 14.875 0.160156 14.464844 0 Z M 21.195313 51.253906 L 14.464844 51.253906 C 0.3125 51.09375 -11.03125 39.488281 -10.871094 25.335938 C -10.707031 11.183594 0.894531 -0.160156 15.050781 0 L 15.050781 1.476563 C 14.640625 1.476563 14.3125 1.148438 14.3125 0.738281 C 14.3125 0.332031 14.640625 0 15.050781 0 L 21.777344 0 C 21.777344 1.859375 20.273438 3.363281 18.414063 3.363281 C 16.554688 3.363281 15.050781 1.859375 15.050781 0 L 15.050781 -1.476563 C 15.457031 -1.316406 15.660156 -0.855469 15.496094 -0.445313 C 15.335938 -0.0390625 14.875 0.160156 14.464844 0 Z M 21.195313 51.253906 "/>
</g>
</svg>
