<?xml version="1.0" encoding="UTF-8"?>
<svg xmlns="http://www.w3.org/2000/svg" xmlns:xlink="http://www.w3.org/1999/xlink" width="70pt" height="70pt" viewBox="0 0 70 70" version="1.1">
<g id="surface1">
<path style=" stroke:none;fill-rule:nonzero;fill:rgb(54.117647%,17.647059%,64.705882%);fill-opacity:1;" d="M 65.566406 35 C 65.566406 51.882813 51.882813 65.566406 35 65.566406 C 18.117188 65.566406 4.433594 51.882813 4.433594 35 C 4.433594 18.117188 18.117188 4.433594 35 4.433594 C 51.882813 4.433594 65.566406 18.117188 65.566406 35 Z M 65.566406 35 "/>
<path style=" stroke:none;fill-rule:nonzero;fill:rgb(100%,100%,100%);fill-opacity:1;" d="M 35 4.433594 C 43.246094 -7.207031 58.445313 -11.59375 71.625 -6.140625 C 84.804688 -0.691406 92.464844 13.152344 90.078125 27.214844 C 87.695313 41.277344 75.902344 51.824219 61.660156 52.625 C 47.417969 53.425781 34.515625 44.273438 30.566406 30.566406 M 35 0 C 43.21875 7.894531 47.050781 19.316406 45.25 30.566406 C 31.605469 44.214844 31.605469 66.417969 45.25 80.0625 C 16.859375 66.359375 25.652344 70 35 70 C 44.347656 70 53.140625 66.359375 59.75 59.75 C 73.394531 46.105469 73.394531 23.902344 59.75 10.253906 C 65.226563 -7.269531 56.132813 -26.027344 38.980469 -32.582031 C 21.832031 -39.132813 2.542969 -31.21875 -5.058594 -14.507813 C -12.660156 2.203125 -5.953125 21.945313 10.253906 30.566406 Z M 35 0 "/>
<path style=" stroke:none;fill-rule:nonzero;fill:rgb(100%,100%,100%);fill-opacity:1;" d="M 52.695313 17.308594 C 52.695313 17.308594 46.054688 16.992188 41.496094 21.554688 L 31.636719 31.417969 C 31.636719 31.417969 24.222656 29.566406 20.597656 33.191406 L 12.21875 41.585938 L 25.214844 37.914063 L 19.1875 46.179688 L 23.820313 50.8125 L 32.113281 44.832031 L 28.421875 57.777344 L 36.816406 49.398438 C 40.484375 45.726563 38.609375 38.34375 38.609375 38.34375 L 48.449219 28.503906 C 53.003906 23.945313 52.695313 17.308594 52.695313 17.308594 Z M 52.695313 17.308594 "/>
<path style=" stroke:none;fill-rule:nonzero;fill:rgb(54.117647%,17.647059%,64.705882%);fill-opacity:1;" d="M 47.421875 25.445313 C 47.421875 27.027344 46.136719 28.3125 44.554688 28.3125 C 42.972656 28.3125 41.6875 27.027344 41.6875 25.445313 C 41.6875 23.863281 42.972656 22.578125 44.554688 22.578125 C 46.136719 22.578125 47.421875 23.863281 47.421875 25.445313 Z M 47.421875 25.445313 "/>
</g>
</svg>
