<?xml version="1.0" encoding="UTF-8"?>
<svg xmlns="http://www.w3.org/2000/svg" xmlns:xlink="http://www.w3.org/1999/xlink" width="70pt" height="70pt" viewBox="0 0 70 70" version="1.1">
<g id="surface1">
<path style=" stroke:none;fill-rule:nonzero;fill:rgb(0%,0%,0%);fill-opacity:1;" d="M 35 54.6875 L 35 63.4375 L 4.375 63.4375 L 4.375 6.5625 L 35 6.5625 L 35 15.3125 L 39.375 10.9375 L 39.375 2.1875 L 0 2.1875 L 0 67.8125 L 39.375 67.8125 L 39.375 59.0625 Z M 35 54.6875 "/>
<path style=" stroke:none;fill-rule:nonzero;fill:rgb(0%,0%,0%);fill-opacity:1;" d="M 43.75 32.8125 L 30.625 32.8125 L 30.625 37.1875 L 43.75 37.1875 C 58.230469 37.1875 65.625 48.957031 65.625 63.4375 L 70 63.4375 C 70 46.507813 60.679688 32.8125 43.75 32.8125 Z M 43.75 32.8125 "/>
<path style=" stroke:none;fill-rule:nonzero;fill:rgb(0%,0%,0%);fill-opacity:1;" d="M 46.855469 20.605469 L 43.75 17.5 L 26.25 35 L 43.75 52.5 L 46.855469 49.394531 L 32.460938 35 Z M 46.855469 20.605469 "/>
</g>
</svg>
