<?xml version="1.0" encoding="UTF-8"?>
<svg xmlns="http://www.w3.org/2000/svg" xmlns:xlink="http://www.w3.org/1999/xlink" width="70pt" height="70pt" viewBox="0 0 70 70" version="1.1">
<defs>
<radialGradient id="radial0" gradientUnits="userSpaceOnUse" cx="9" cy="7.35" fx="9" fy="7.35" r="6.42" gradientTransform="matrix(3.888889,0,0,3.888889,0,0)">
<stop offset="0" style="stop-color:rgb(71.764706%,47.843137%,95.686275%);stop-opacity:1;"/>
<stop offset="0.21" style="stop-color:rgb(70.196078%,47.058824%,94.901961%);stop-opacity:1;"/>
<stop offset="0.43" style="stop-color:rgb(65.098039%,44.705882%,92.941176%);stop-opacity:1;"/>
<stop offset="0.65" style="stop-color:rgb(57.254902%,40.392157%,89.411765%);stop-opacity:1;"/>
<stop offset="0.88" style="stop-color:rgb(45.882353%,34.901961%,84.705882%);stop-opacity:1;"/>
<stop offset="1" style="stop-color:rgb(38.431373%,30.980392%,81.568627%);stop-opacity:1;"/>
</radialGradient>
<linearGradient id="linear0" gradientUnits="userSpaceOnUse" x1="9.02" y1="3.91" x2="9.08" y2="11.49" gradientTransform="matrix(3.888889,0,0,3.888889,0,0)">
<stop offset="0" style="stop-color:rgb(94.901961%,94.901961%,94.901961%);stop-opacity:1;"/>
<stop offset="0.23" style="stop-color:rgb(94.509804%,94.509804%,94.901961%);stop-opacity:0.988235;"/>
<stop offset="0.37" style="stop-color:rgb(92.941176%,92.941176%,94.509804%);stop-opacity:0.94902;"/>
<stop offset="0.48" style="stop-color:rgb(90.588235%,89.803922%,94.117647%);stop-opacity:0.890196;"/>
<stop offset="0.58" style="stop-color:rgb(87.058824%,85.882353%,93.333333%);stop-opacity:0.811765;"/>
<stop offset="0.67" style="stop-color:rgb(82.745098%,80.784314%,92.156863%);stop-opacity:0.701961;"/>
<stop offset="0.76" style="stop-color:rgb(76.862745%,74.509804%,90.980392%);stop-opacity:0.568627;"/>
<stop offset="0.84" style="stop-color:rgb(70.588235%,67.058824%,89.803922%);stop-opacity:0.411765;"/>
<stop offset="0.92" style="stop-color:rgb(62.745098%,58.431373%,88.235294%);stop-opacity:0.219608;"/>
<stop offset="0.99" style="stop-color:rgb(54.509804%,49.019608%,86.27451%);stop-opacity:0.0196078;"/>
<stop offset="1" style="stop-color:rgb(53.72549%,48.235294%,86.27451%);stop-opacity:0;"/>
</linearGradient>
</defs>
<g id="surface1">
<path style=" stroke:none;fill-rule:nonzero;fill:rgb(80.784314%,80.784314%,80.784314%);fill-opacity:1;" d="M 39.785156 67.628906 L 42.933594 64.246094 L 42.933594 55.222656 L 27.222656 55.222656 L 27.222656 64.246094 L 30.371094 67.628906 C 11.699219 76.015625 -10.242188 67.675781 -18.628906 49 C -27.015625 30.324219 -18.675781 8.386719 0 0 L 7.777344 0 C 7.777344 2.148438 6.035156 3.890625 3.890625 3.890625 C 1.742188 3.890625 0 2.148438 0 0 Z M 39.785156 67.628906 "/>
<path style=" stroke:none;fill-rule:nonzero;fill:url(#radial0);" d="M 35 1.945313 C 42.324219 -3.851563 52.433594 -4.621094 60.550781 0 C 61.601563 9.605469 70.738281 14.078125 73.34375 26.25 C 66.097656 39.253906 49.675781 43.921875 36.671875 36.671875 C 23.667969 29.421875 19 13.003906 26.25 0 L 42.972656 0 C 42.972656 4.617188 39.230469 8.359375 34.609375 8.359375 C 29.992188 8.359375 26.25 4.617188 26.25 0 C 28.855469 -12.171875 37.917969 -16.644531 39.042969 -26.25 C 46.292969 -8.21875 37.554688 12.273438 19.523438 19.523438 C 1.492188 26.769531 -19 18.03125 -26.25 0 Z M 27.222656 55.222656 "/>
<path style=" stroke:none;fill-rule:nonzero;fill:url(#linear0);" d="M 44.566406 14.738281 C 40.496094 13.191406 38.449219 8.640625 39.996094 4.570313 C 41.542969 0.5 46.097656 -1.546875 50.167969 0 L 50.167969 23.332031 L 31.109375 23.332031 L 31.109375 20.339844 C 31.101563 21.808594 30.503906 23.210938 29.449219 24.234375 C 28.398438 25.257813 26.980469 25.816406 25.511719 25.785156 L 30.996094 31.265625 L 33.484375 31.265625 L 33.484375 54.601563 C 39.925781 53.914063 44.59375 48.132813 43.90625 41.6875 C 43.21875 35.246094 37.4375 30.578125 30.996094 31.265625 L 30.996094 7.933594 L 39.394531 7.933594 L 39.394531 31.265625 C 39.394531 28.945313 37.515625 27.066406 35.195313 27.066406 C 32.875 27.066406 30.996094 28.945313 30.996094 31.265625 L 30.996094 7.933594 L 33.445313 7.933594 C 33.445313 4.925781 35.882813 2.488281 38.890625 2.488281 C 41.894531 2.488281 44.332031 4.925781 44.332031 7.933594 C 44.332031 10.941406 41.894531 13.378906 38.890625 13.378906 Z M 28.117188 23.332031 L 25.472656 23.332031 C 27.042969 23.398438 28.273438 24.710938 28.230469 26.285156 C 28.191406 27.859375 26.890625 29.105469 25.316406 29.085938 C 23.746094 29.066406 22.480469 27.785156 22.476563 26.210938 L 25.355469 26.210938 Z M 44.761719 23.332031 L 42.117188 23.332031 L 42.117188 20.183594 C 40.710938 20.289063 39.640625 21.480469 39.675781 22.886719 C 39.710938 24.296875 40.84375 25.425781 42.25 25.464844 C 43.660156 25.5 44.847656 24.425781 44.957031 23.023438 Z M 44.761719 23.332031 "/>
<path style=" stroke:none;fill-rule:nonzero;fill:rgb(60%,60%,60%);fill-opacity:1;" d="M 27.066406 61.445313 L 42.933594 58.371094 L 42.933594 56.621094 L 27.066406 59.734375 Z M 42.933594 62.648438 L 42.933594 60.9375 L 27.066406 64.089844 L 27.066406 64.246094 L 28.273438 65.566406 Z M 42.933594 62.648438 "/>
</g>
</svg>
