<?xml version="1.0" encoding="UTF-8"?>
<svg xmlns="http://www.w3.org/2000/svg" xmlns:xlink="http://www.w3.org/1999/xlink" width="70pt" height="70pt" viewBox="0 0 70 70" version="1.1">
<g id="surface1">
<path style=" stroke:none;fill-rule:nonzero;fill:rgb(0%,0%,0%);fill-opacity:1;" d="M 67.375 21.4375 C 69.070313 2.289063 85.398438 -12.222656 104.613281 -11.65625 C 123.832031 -11.089844 139.277344 4.355469 139.84375 23.574219 C 140.410156 42.789063 125.898438 59.117188 106.75 60.8125 L 146.125 60.8125 C 154.292969 48.472656 169.710938 43.125 183.765625 47.761719 C 197.820313 52.398438 207.03125 65.871094 206.253906 80.648438 C 205.476563 95.425781 194.902344 107.855469 180.4375 110.992188 C 165.976563 114.125 151.203125 107.191406 144.375 94.0625 L 176.3125 126 L 173.25 121.1875 C 172.8125 119.4375 171.9375 117.6875 171.5 115.5 L 175.875 114.625 C 179.539063 99.597656 193.566406 89.453125 208.988281 90.683594 C 224.40625 91.914063 236.648438 104.15625 237.878906 119.574219 C 239.109375 134.996094 228.964844 149.023438 213.9375 152.6875 L 213.9375 161 L 222.25 160.125 L 229.25 156.625 C 229.25 144.785156 238.847656 135.1875 250.6875 135.1875 C 262.527344 135.1875 272.125 144.785156 272.125 156.625 C 272.125 168.464844 262.527344 178.0625 250.6875 178.0625 L 250.6875 181.5625 C 252.015625 193.835938 249.078125 206.195313 242.375 216.5625 L 263.8125 238 C 262.792969 238.078125 261.769531 238.078125 260.75 238 C 264.261719 245.246094 264.734375 253.59375 262.0625 261.1875 L 282.625 281.75 L 17.5 281.75 L 17.5 286.125 L 0 286.125 L 0 8.75 L 4.375 8.75 L 4.375 17.9375 L 5.6875 16.1875 L 7 14 C 80.9375 -62.113281 202.574219 -63.875 278.6875 10.0625 C 354.800781 84 356.5625 205.636719 282.625 281.75 C 213.640625 350.976563 101.601563 351.171875 32.375 282.1875 C -36.851563 213.203125 -37.046875 101.164063 31.9375 31.9375 C 34.121094 13.578125 50.050781 -0.015625 68.523438 0.714844 C 87 1.441406 101.808594 16.25 102.535156 34.726563 C 103.265625 53.199219 89.671875 69.128906 71.3125 71.3125 L 71.3125 122.5 Z M 67.375 21.4375 "/>
<path style=" stroke:none;fill-rule:nonzero;fill:rgb(0%,0%,0%);fill-opacity:1;" d="M 35 13.125 L 35 31.9375 L 47.6875 44.1875 L 44.1875 47.6875 L 30.625 33.6875 L 30.625 13.125 Z M 35 13.125 "/>
</g>
</svg>
