<?xml version="1.0" encoding="UTF-8"?>
<svg xmlns="http://www.w3.org/2000/svg" xmlns:xlink="http://www.w3.org/1999/xlink" width="70pt" height="70pt" viewBox="0 0 70 70" version="1.1">
<g id="surface1">
<path style=" stroke:none;fill-rule:nonzero;fill:rgb(0%,0%,0%);fill-opacity:1;" d="M 35 0 C 38.210938 0 41.3125 0.410156 44.296875 1.230469 C 47.28125 2.050781 50.074219 3.222656 52.671875 4.75 C 55.269531 6.277344 57.625 8.101563 59.746094 10.21875 C 61.867188 12.339844 63.6875 14.707031 65.214844 17.328125 C 66.742188 19.949219 67.914063 22.742188 68.734375 25.703125 C 69.554688 28.664063 69.976563 31.765625 70 35 C 70 38.210938 69.589844 41.3125 68.769531 44.296875 C 67.949219 47.28125 66.777344 50.074219 65.25 52.671875 C 63.722656 55.269531 61.898438 57.625 59.78125 59.746094 C 57.660156 61.867188 55.292969 63.6875 52.671875 65.214844 C 50.050781 66.742188 47.257813 67.914063 44.296875 68.734375 C 41.335938 69.554688 38.234375 69.976563 35 70 C 31.789063 70 28.6875 69.589844 25.703125 68.769531 C 22.71875 67.949219 19.925781 66.777344 17.328125 65.25 C 14.730469 63.722656 12.375 61.898438 10.253906 59.78125 C 8.132813 57.660156 6.3125 55.292969 4.785156 52.671875 C 3.257813 50.050781 2.085938 47.269531 1.265625 44.332031 C 0.445313 41.390625 0.0234375 38.28125 0 35 C 0 31.789063 0.410156 28.6875 1.230469 25.703125 C 2.050781 22.71875 3.222656 19.925781 4.75 17.328125 C 6.277344 14.730469 8.101563 12.375 10.21875 10.253906 C 12.339844 8.132813 14.707031 6.3125 17.328125 4.785156 C 19.949219 3.257813 22.730469 2.085938 25.667969 1.265625 C 28.609375 0.445313 31.71875 0.0234375 35 0 Z M 62.652344 21.875 C 61.785156 20.03125 60.738281 18.296875 59.507813 16.679688 C 58.277344 15.0625 56.910156 13.570313 55.40625 12.203125 C 53.902344 10.835938 52.273438 9.640625 50.515625 8.613281 C 48.761719 7.585938 46.929688 6.734375 45.015625 6.050781 C 45.835938 7.1875 46.574219 8.398438 47.234375 9.671875 C 47.898438 10.949219 48.476563 12.257813 48.980469 13.601563 C 49.480469 14.949219 49.925781 16.328125 50.3125 17.738281 C 50.699219 19.152344 51.019531 20.53125 51.269531 21.875 Z M 65.625 35 C 65.625 31.96875 65.203125 29.054688 64.359375 26.25 L 51.953125 26.25 C 52.136719 27.707031 52.273438 29.15625 52.363281 30.589844 C 52.453125 32.027344 52.5 33.496094 52.5 35 C 52.5 36.480469 52.453125 37.9375 52.363281 39.375 C 52.273438 40.8125 52.136719 42.269531 51.953125 43.75 L 64.359375 43.75 C 65.203125 40.945313 65.625 38.03125 65.625 35 Z M 35 65.625 C 36.117188 65.625 37.152344 65.316406 38.109375 64.703125 C 39.066406 64.085938 39.96875 63.277344 40.8125 62.273438 C 41.652344 61.273438 42.382813 60.144531 43 58.890625 C 43.613281 57.636719 44.195313 56.351563 44.742188 55.03125 C 45.289063 53.707031 45.710938 52.453125 46.007813 51.269531 C 46.300781 50.085938 46.5625 49.035156 46.792969 48.125 L 23.207031 48.125 C 23.390625 49.015625 23.652344 50.0625 23.992188 51.269531 C 24.335938 52.476563 24.757813 53.730469 25.257813 55.03125 C 25.761719 56.328125 26.328125 57.605469 26.96875 58.859375 C 27.605469 60.109375 28.347656 61.25 29.1875 62.273438 C 30.03125 63.300781 30.921875 64.109375 31.855469 64.703125 C 32.789063 65.292969 33.835938 65.601563 35 65.625 Z M 47.542969 43.75 C 47.726563 42.292969 47.863281 40.84375 47.953125 39.410156 C 48.046875 37.972656 48.101563 36.503906 48.125 35 C 48.125 33.519531 48.078125 32.0625 47.988281 30.625 C 47.898438 29.1875 47.75 27.730469 47.542969 26.25 L 22.457031 26.25 C 22.273438 27.707031 22.136719 29.15625 22.046875 30.589844 C 21.953125 32.027344 21.898438 33.496094 21.875 35 C 21.875 36.480469 21.921875 37.9375 22.011719 39.375 C 22.101563 40.8125 22.25 42.269531 22.457031 43.75 Z M 4.375 35 C 4.375 38.03125 4.796875 40.945313 5.640625 43.75 L 18.046875 43.75 C 17.863281 42.292969 17.726563 40.84375 17.636719 39.410156 C 17.546875 37.972656 17.5 36.503906 17.5 35 C 17.5 33.519531 17.546875 32.0625 17.636719 30.625 C 17.726563 29.1875 17.863281 27.730469 18.046875 26.25 L 5.640625 26.25 C 4.796875 29.054688 4.375 31.96875 4.375 35 Z M 35 4.375 C 33.882813 4.375 32.847656 4.683594 31.890625 5.296875 C 30.933594 5.914063 30.03125 6.722656 29.1875 7.726563 C 28.347656 8.726563 27.617188 9.855469 27 11.109375 C 26.386719 12.363281 25.804688 13.648438 25.257813 14.96875 C 24.710938 16.292969 24.289063 17.546875 23.992188 18.730469 C 23.699219 19.914063 23.4375 20.964844 23.207031 21.875 L 46.792969 21.875 C 46.609375 20.984375 46.347656 19.9375 46.007813 18.730469 C 45.664063 17.523438 45.242188 16.269531 44.742188 14.96875 C 44.238281 13.671875 43.671875 12.394531 43.03125 11.140625 C 42.394531 9.890625 41.652344 8.75 40.8125 7.726563 C 39.96875 6.699219 39.078125 5.890625 38.144531 5.296875 C 37.210938 4.707031 36.164063 4.398438 35 4.375 Z M 24.984375 6.050781 C 23.070313 6.710938 21.238281 7.566406 19.484375 8.613281 C 17.726563 9.660156 16.097656 10.859375 14.59375 12.203125 C 13.089844 13.546875 11.722656 15.027344 10.492188 16.644531 C 9.261719 18.261719 8.214844 20.007813 7.347656 21.875 L 18.730469 21.875 C 19.003906 20.507813 19.324219 19.128906 19.6875 17.738281 C 20.050781 16.347656 20.484375 14.980469 20.984375 13.636719 C 21.488281 12.292969 22.078125 10.972656 22.765625 9.671875 C 23.445313 8.375 24.1875 7.167969 24.984375 6.050781 Z M 7.347656 48.125 C 8.214844 49.96875 9.261719 51.703125 10.492188 53.320313 C 11.722656 54.9375 13.089844 56.429688 14.59375 57.796875 C 16.097656 59.164063 17.726563 60.359375 19.484375 61.386719 C 21.238281 62.414063 23.070313 63.265625 24.984375 63.949219 C 24.164063 62.8125 23.425781 61.601563 22.765625 60.328125 C 22.101563 59.050781 21.523438 57.742188 21.019531 56.398438 C 20.519531 55.050781 20.074219 53.671875 19.6875 52.261719 C 19.300781 50.847656 18.980469 49.46875 18.730469 48.125 Z M 45.015625 63.949219 C 46.929688 63.289063 48.761719 62.433594 50.515625 61.386719 C 52.273438 60.339844 53.902344 59.140625 55.40625 57.796875 C 56.910156 56.453125 58.277344 54.972656 59.507813 53.355469 C 60.738281 51.738281 61.785156 49.992188 62.652344 48.125 L 51.269531 48.125 C 50.996094 49.492188 50.675781 50.871094 50.3125 52.261719 C 49.949219 53.652344 49.515625 55.019531 49.015625 56.363281 C 48.511719 57.707031 47.921875 59.027344 47.234375 60.328125 C 46.554688 61.625 45.8125 62.832031 45.015625 63.949219 Z M 45.015625 63.949219 "/>
</g>
</svg>
