<?xml version="1.0" encoding="UTF-8"?>
<svg xmlns="http://www.w3.org/2000/svg" xmlns:xlink="http://www.w3.org/1999/xlink" width="70pt" height="70pt" viewBox="0 0 70 70" version="1.1">
<defs>
<linearGradient id="linear0" gradientUnits="userSpaceOnUse" x1="9.83" y1="1.59" x2="9.83" y2="8.94" gradientTransform="matrix(3.888889,0,0,3.888889,0,0)">
<stop offset="0" style="stop-color:rgb(100%,100%,100%);stop-opacity:1;"/>
<stop offset="0.56" style="stop-color:rgb(98.431373%,98.431373%,98.431373%);stop-opacity:1;"/>
<stop offset="1" style="stop-color:rgb(94.901961%,94.901961%,94.901961%);stop-opacity:1;"/>
</linearGradient>
<linearGradient id="linear1" gradientUnits="userSpaceOnUse" x1="5.71" y1="7.13" x2="5.82" y2="17.51" gradientTransform="matrix(3.888889,0,0,3.888889,0,0)">
<stop offset="0" style="stop-color:rgb(19.607843%,83.137255%,96.078431%);stop-opacity:1;"/>
<stop offset="0.32" style="stop-color:rgb(19.215686%,81.960784%,95.294118%);stop-opacity:1;"/>
<stop offset="0.53" style="stop-color:rgb(18.039216%,78.823529%,92.156863%);stop-opacity:1;"/>
<stop offset="0.7" style="stop-color:rgb(16.078431%,72.941176%,87.058824%);stop-opacity:1;"/>
<stop offset="0.86" style="stop-color:rgb(13.333333%,64.705882%,79.607843%);stop-opacity:1;"/>
<stop offset="1" style="stop-color:rgb(9.803922%,54.117647%,70.196078%);stop-opacity:1;"/>
<stop offset="1" style="stop-color:rgb(9.803922%,54.117647%,70.196078%);stop-opacity:1;"/>
</linearGradient>
</defs>
<g id="surface1">
<path style=" stroke:none;fill-rule:nonzero;fill:rgb(0%,47.058824%,83.137255%);fill-opacity:1;" d="M 38.226563 2.023438 C 56.195313 2.023438 67.160156 15.554688 68.054688 33.640625 C 58.765625 32.296875 52.324219 23.679688 53.667969 14.390625 C 55.007813 5.101563 63.628906 -1.34375 72.917969 0 L 22.359375 0 C 24.097656 1.085938 24.90625 3.1875 24.34375 5.15625 C 23.777344 7.125 21.976563 8.480469 19.929688 8.480469 C 17.882813 8.480469 16.082031 7.125 15.519531 5.15625 C 14.957031 3.1875 15.761719 1.085938 17.5 0 C 9.292969 15.554688 20.261719 2.023438 38.226563 2.023438 Z M 38.226563 2.023438 "/>
<path style=" stroke:none;fill-rule:nonzero;fill:url(#linear0);" d="M 12.988281 35.429688 C 3.207031 39.015625 -7.632813 33.992188 -11.21875 24.207031 C -14.804688 14.425781 -9.78125 3.585938 0 0 C 0.660156 -17.460938 12.679688 -28.699219 26.5625 -28.699219 C 40.445313 -28.699219 52.460938 -17.460938 53.316406 0 C 53.320313 -0.800781 53.84375 -1.507813 54.609375 -1.742188 C 55.375 -1.976563 56.203125 -1.683594 56.65625 -1.023438 C 57.105469 -0.359375 57.074219 0.515625 56.574219 1.144531 C 56.078125 1.769531 55.230469 2 54.484375 1.710938 Z M 12.988281 35.429688 "/>
<path style=" stroke:none;fill-rule:nonzero;fill:rgb(36.862745%,62.745098%,93.72549%);fill-opacity:1;" d="M 52.695313 14.738281 C 49.085938 10.683594 47.117188 5.429688 47.171875 0 L 47.171875 19.445313 C 42.21875 22.976563 35.402344 22.214844 31.347656 17.683594 C 27.289063 13.152344 27.289063 6.292969 31.347656 1.761719 C 35.402344 -2.773438 42.21875 -3.53125 47.171875 0 Z M 52.695313 14.738281 "/>
<path style=" stroke:none;fill-rule:nonzero;fill:rgb(0%,47.058824%,83.137255%);fill-opacity:1;" d="M 23.761719 14.738281 L 30.683594 21.855469 C 24.648438 30.328125 12.886719 32.304688 4.414063 26.269531 C -4.058594 20.234375 -6.035156 8.472656 0 0 L 0 9.214844 C 1.039063 5.730469 2.9375 2.558594 5.523438 0 Z M 23.761719 14.738281 "/>
<path style=" stroke:none;fill-rule:nonzero;fill:rgb(36.862745%,62.745098%,93.72549%);fill-opacity:1;" d="M 47.949219 24.109375 C 41.292969 37.351563 25.160156 42.6875 11.917969 36.03125 C -1.320313 29.371094 -6.65625 13.242188 0 0 L 9.800781 0 C 5.476563 1.304688 0.863281 1.304688 -3.460938 0 Z M 47.949219 24.109375 "/>
<path style=" stroke:none;fill-rule:nonzero;fill:rgb(0%,35.686275%,63.137255%);fill-opacity:1;" d="M 28.503906 24.109375 L 21.582031 16.996094 C 22.863281 9.460938 27.847656 3.074219 34.84375 0 L 44.605469 0 C 50.480469 2.339844 53.863281 8.523438 52.671875 14.730469 C 51.480469 20.941406 46.046875 25.429688 39.726563 25.429688 C 33.402344 25.429688 27.96875 20.941406 26.777344 14.730469 C 25.585938 8.523438 28.972656 2.339844 34.84375 0 Z M 56.234375 21.894531 C 50.1875 22.140625 45.085938 17.441406 44.839844 11.394531 C 44.59375 5.347656 49.292969 0.246094 55.339844 0 L 40.910156 5.753906 L 42.039063 8.632813 L 56.464844 2.878906 C 55.925781 3.265625 55.203125 3.277344 54.648438 2.90625 C 54.097656 2.535156 53.832031 1.859375 53.984375 1.214844 C 54.140625 0.566406 54.679688 0.0820313 55.339844 0 Z M 56.234375 21.894531 "/>
<path style=" stroke:none;fill-rule:nonzero;fill:rgb(46.27451%,46.27451%,46.27451%);fill-opacity:1;" d="M 42.429688 28.855469 C 42.429688 31.175781 40.546875 33.054688 38.226563 33.054688 C 35.90625 33.054688 34.027344 31.175781 34.027344 28.855469 C 34.027344 26.535156 35.90625 24.65625 38.226563 24.65625 C 40.546875 24.65625 42.429688 26.535156 42.429688 28.855469 Z M 42.429688 28.855469 "/>
<path style=" stroke:none;fill-rule:nonzero;fill:url(#linear1);" d="M 41.726563 67.785156 L 3.460938 67.785156 C 2.253906 67.785156 1.515625 65.839844 2.214844 64.828125 L 15.554688 45.617188 C 2.957031 32.011719 3.777344 10.769531 17.382813 -1.828125 C 30.988281 -14.425781 52.230469 -13.605469 64.828125 0 L 64.828125 32.042969 C 55.980469 32.042969 48.804688 24.871094 48.804688 16.023438 C 48.804688 7.171875 55.980469 0 64.828125 0 L 64.089844 0 C 64.683594 0.34375 64.972656 1.042969 64.796875 1.707031 C 64.617188 2.367188 64.015625 2.832031 63.332031 2.832031 C 62.644531 2.832031 62.042969 2.367188 61.867188 1.707031 C 61.6875 1.042969 61.976563 0.34375 62.570313 0 L 62.570313 -0.503906 C 62.703125 -1.28125 63.410156 -1.828125 64.195313 -1.765625 C 64.980469 -1.699219 65.585938 -1.042969 65.585938 -0.253906 C 65.585938 0.535156 64.980469 1.191406 64.195313 1.257813 C 63.410156 1.324219 62.703125 0.777344 62.570313 0 L 31.109375 0 C 31.109375 -8.6875 38.152344 -15.730469 46.839844 -15.730469 C 55.53125 -15.730469 62.570313 -8.6875 62.570313 0 L 62.570313 0.660156 C 62.402344 1.394531 61.710938 1.882813 60.964844 1.800781 C 60.21875 1.714844 59.652344 1.082031 59.652344 0.332031 C 59.652344 -0.421875 60.21875 -1.054688 60.964844 -1.136719 C 61.710938 -1.222656 62.402344 -0.734375 62.570313 0 L 61.753906 0 C 61.996094 -0.140625 62.292969 -0.140625 62.535156 0 L 62.535156 12.714844 C 59.023438 12.714844 56.175781 9.871094 56.175781 6.359375 C 56.175781 2.847656 59.023438 0 62.535156 0 L 75.753906 19.210938 C 76.417969 20.378906 75.714844 22.320313 74.472656 22.320313 Z M 41.726563 67.785156 "/>
<path style=" stroke:none;fill-rule:nonzero;fill:rgb(100%,100%,100%);fill-opacity:1;" d="M 8.515625 62.222656 L 18.082031 48.222656 C 4.765625 53.214844 -10.074219 46.46875 -15.070313 33.152344 C -20.0625 19.835938 -13.316406 4.992188 0 0 L 0 -5.679688 C 1.566406 -5.679688 2.839844 -4.40625 2.839844 -2.839844 C 2.839844 -1.269531 1.566406 0 0 0 L 5.445313 0 C 5.445313 1.503906 4.226563 2.722656 2.722656 2.722656 C 1.21875 2.722656 0 1.503906 0 0 L 0 46.667969 C -12.886719 46.667969 -23.332031 36.21875 -23.332031 23.332031 C -23.332031 10.445313 -12.886719 0 0 0 L 36.59375 62.222656 C 19.414063 61.867188 5.769531 47.652344 6.125 30.46875 C 6.480469 13.289063 20.695313 -0.355469 37.878906 0 L 9.179688 0 C 9.441406 0.335938 9.402344 0.816406 9.089844 1.105469 C 8.777344 1.394531 8.292969 1.394531 7.980469 1.105469 C 7.667969 0.816406 7.632813 0.335938 7.894531 0 Z M 8.515625 62.222656 "/>
</g>
</svg>
