<?xml version="1.0" encoding="UTF-8"?>
<svg xmlns="http://www.w3.org/2000/svg" xmlns:xlink="http://www.w3.org/1999/xlink" width="70pt" height="70pt" viewBox="0 0 70 70" version="1.1">
<g id="surface1">
<path style=" stroke:none;fill-rule:nonzero;fill:rgb(0%,0%,0%);fill-opacity:1;" d="M 70 24.261719 C 69.234375 25.027344 68.46875 25.75 67.703125 26.378906 C 69.792969 21.03125 75.226563 17.769531 80.929688 18.445313 C 86.628906 19.121094 91.15625 23.5625 91.933594 29.25 C 92.714844 34.9375 89.550781 40.433594 84.242188 42.617188 C 78.933594 44.800781 72.820313 43.125 69.371094 38.535156 L 82.15625 51.316406 L 94.578125 51.316406 L 81.074219 64.824219 C 78.261719 53.066406 83.605469 40.871094 94.15625 34.96875 C 104.707031 29.066406 117.894531 30.894531 126.441406 39.441406 C 134.988281 47.992188 136.816406 61.179688 130.914063 71.726563 C 125.011719 82.277344 112.820313 87.621094 101.0625 84.808594 L 101.0625 89.3125 C 100.460938 100.523438 100.984375 109.316406 102.226563 108.957031 C 103.46875 108.597656 104.964844 99.21875 105.5625 88.007813 C 104.890625 89.90625 104.152344 91.003906 103.445313 91.15625 C 81.136719 90.324219 63.601563 71.777344 64.019531 49.457031 C 64.4375 27.132813 82.652344 9.257813 104.976563 9.257813 C 127.304688 9.257813 145.519531 27.132813 145.933594 49.457031 C 146.351563 71.777344 128.816406 90.324219 106.507813 91.15625 L 93.003906 77.652344 L 73.285156 97.191406 L 68.515625 98.765625 L 70.089844 93.949219 L 90.121094 74.007813 L 76.617188 60.5 L 78.191406 58.925781 C 77.847656 51.335938 82.203125 44.3125 89.15625 41.242188 C 96.109375 38.175781 104.230469 39.699219 109.605469 45.070313 C 114.976563 50.445313 116.496094 58.566406 113.429688 65.519531 C 110.363281 72.472656 103.339844 76.828125 95.75 76.480469 L 95.75 126.992188 L 109.253906 113.484375 C 109.800781 106.863281 115.429688 101.824219 122.070313 102.007813 C 128.710938 102.191406 134.050781 107.53125 134.234375 114.175781 C 134.417969 120.816406 129.378906 126.441406 122.757813 126.992188 C 123.433594 126.269531 124.109375 125.503906 124.917969 124.738281 Z M 59.738281 24.9375 C 87.917969 6.988281 125.3125 15.28125 143.261719 43.464844 C 161.214844 71.644531 152.921875 109.039063 124.738281 126.992188 L 107.316406 109.570313 C 109.433594 110.917969 110.789063 113.1875 110.964844 115.691406 C 110.964844 116.277344 111.28125 116.863281 111.460938 117.492188 L 28.496094 31.152344 L 27.007813 30.476563 L 25.480469 29.980469 C 27.332031 33.347656 27.191406 37.457031 25.117188 40.695313 L 39.34375 54.917969 L 53.972656 54.917969 L 77.609375 78.597656 C 77.40625 73.324219 80.457031 68.464844 85.292969 66.355469 C 90.132813 64.242188 95.769531 65.308594 99.5 69.039063 C 103.230469 72.773438 104.296875 78.410156 102.1875 83.246094 C 100.074219 88.082031 95.214844 91.132813 89.941406 90.933594 C 89.839844 90.277344 89.71875 89.734375 89.582031 89.3125 C 91.867188 91.5 93.023438 94.613281 92.726563 97.761719 C 92.425781 100.910156 90.707031 103.75 88.050781 105.472656 L 105.335938 88.1875 L 107.136719 88.683594 C 111.773438 93.953125 111.261719 101.984375 105.992188 106.621094 C 100.71875 111.257813 92.6875 110.742188 88.050781 105.472656 Z M 59.738281 24.9375 "/>
</g>
</svg>
