<?xml version="1.0" encoding="UTF-8"?>
<svg xmlns="http://www.w3.org/2000/svg" xmlns:xlink="http://www.w3.org/1999/xlink" width="52pt" height="70pt" viewBox="0 0 52 70" version="1.1">
<g id="surface1">
<path style=" stroke:none;fill-rule:nonzero;fill:rgb(0%,0%,0%);fill-opacity:1;" d="M 30.332031 17.71875 L 44.632813 17.71875 L 39.867188 12.90625 C 48.527344 16.058594 54.105469 24.589844 53.574219 33.867188 C 53.042969 43.148438 46.535156 50.972656 37.574219 53.101563 C 28.609375 55.230469 19.328125 51.15625 14.753906 43.089844 C 10.183594 35.023438 11.40625 24.878906 17.765625 18.15625 L 0 24.28125 C 2.683594 28.589844 3.316406 33.886719 1.734375 38.71875 L 16.464844 53.59375 C 21.515625 46.277344 30.398438 42.699219 39.050781 44.496094 C 47.703125 46.292969 54.464844 53.117188 56.246094 61.855469 C 58.027344 70.589844 54.480469 79.558594 47.234375 84.65625 L 75.398438 113.09375 L 72.367188 116.59375 L 44.199219 87.71875 C 26.488281 93.757813 7.28125 84.160156 1.300781 66.28125 C -4.683594 48.402344 4.824219 29.007813 22.535156 22.96875 C 17.707031 11.59375 21.554688 -1.636719 31.703125 -8.570313 C 41.851563 -15.507813 55.445313 -14.195313 64.113281 -5.449219 C 72.777344 3.300781 74.074219 17.027344 67.207031 27.273438 C 60.335938 37.519531 47.230469 41.402344 35.964844 36.53125 L 35.964844 44.40625 L 11.699219 3.71875 C 16.386719 -13.5625 33.9375 -23.855469 51.128906 -19.398438 C 68.320313 -14.945313 78.789063 2.613281 74.648438 20.035156 C 70.507813 37.460938 53.289063 48.308594 35.964844 44.40625 L 23.832031 0.21875 L 29.035156 1.09375 C 40.878906 -0.839844 52.035156 7.289063 53.949219 19.25 C 55.863281 31.210938 47.8125 42.472656 35.964844 44.40625 L 39.867188 46.59375 L 43.332031 49.65625 L 46.367188 52.71875 L 50.265625 56.65625 L 50.265625 0.21875 L 54.601563 0.21875 L 54.601563 22.09375 L 30.332031 22.09375 Z M 30.332031 17.71875 "/>
</g>
</svg>
