<?xml version="1.0" encoding="UTF-8"?>
<svg xmlns="http://www.w3.org/2000/svg" xmlns:xlink="http://www.w3.org/1999/xlink" width="70pt" height="70pt" viewBox="0 0 70 70" version="1.1">
<defs>
<linearGradient id="linear0" gradientUnits="userSpaceOnUse" x1="5.41" y1="17.33" x2="5.41" y2="0.61" gradientTransform="matrix(3.888889,0,0,3.888889,0,0)">
<stop offset="0" style="stop-color:rgb(58.039216%,58.039216%,58.039216%);stop-opacity:1;"/>
<stop offset="0.53" style="stop-color:rgb(63.529412%,63.529412%,63.529412%);stop-opacity:1;"/>
<stop offset="1" style="stop-color:rgb(70.196078%,70.196078%,70.196078%);stop-opacity:1;"/>
</linearGradient>
<linearGradient id="linear1" gradientUnits="userSpaceOnUse" x1="10.04" y1="17.39" x2="10.04" y2="6.82" gradientTransform="matrix(3.888889,0,0,3.888889,0,0)">
<stop offset="0" style="stop-color:rgb(0%,47.058824%,83.137255%);stop-opacity:1;"/>
<stop offset="0.16" style="stop-color:rgb(7.45098%,50.196078%,85.490196%);stop-opacity:1;"/>
<stop offset="0.53" style="stop-color:rgb(23.529412%,56.862745%,89.803922%);stop-opacity:1;"/>
<stop offset="0.82" style="stop-color:rgb(33.333333%,61.176471%,92.54902%);stop-opacity:1;"/>
<stop offset="1" style="stop-color:rgb(36.862745%,62.745098%,93.72549%);stop-opacity:1;"/>
</linearGradient>
</defs>
<g id="surface1">
<path style=" stroke:none;fill-rule:nonzero;fill:url(#linear0);" d="M 40.132813 65.179688 C 22.136719 64.566406 8.039063 49.480469 8.652344 31.480469 C 9.265625 13.480469 24.351563 -0.613281 42.351563 0 L 4.160156 0 C 5.03125 0.5 5.453125 1.523438 5.195313 2.492188 C 4.933594 3.460938 4.054688 4.136719 3.054688 4.136719 C 2.050781 4.136719 1.171875 3.460938 0.910156 2.492188 C 0.652344 1.523438 1.074219 0.5 1.945313 0 L 1.945313 4.589844 C 0.675781 4.589844 -0.351563 3.5625 -0.351563 2.292969 C -0.351563 1.027344 0.675781 0 1.945313 0 L 35.699219 0 C 35.699219 9.320313 28.144531 16.878906 18.820313 16.878906 C 9.5 16.878906 1.945313 9.320313 1.945313 0 Z M 40.132813 65.179688 "/>
<path style=" stroke:none;fill-rule:nonzero;fill:rgb(0%,18.823529%,40.392157%);fill-opacity:1;" d="M 7.542969 25.160156 C 0.597656 27.246094 -6.726563 23.300781 -8.808594 16.351563 C -10.890625 9.40625 -6.949219 2.082031 0 0 L 19.054688 0 C 19.054688 5.261719 14.789063 9.527344 9.527344 9.527344 C 4.265625 9.527344 0 5.261719 0 0 C -1.632813 -0.941406 -2.425781 -2.863281 -1.9375 -4.679688 C -1.453125 -6.5 0.195313 -7.765625 2.082031 -7.765625 C 3.964844 -7.765625 5.613281 -6.5 6.101563 -4.679688 C 6.585938 -2.863281 5.792969 -0.941406 4.160156 0 L 11.667969 0 C 13.296875 0.941406 14.09375 2.863281 13.605469 4.679688 C 13.117188 6.5 11.46875 7.765625 9.585938 7.765625 C 7.703125 7.765625 6.054688 6.5 5.566406 4.679688 C 5.078125 2.863281 5.875 0.941406 7.503906 0 Z M 7.542969 12.871094 C 3.988281 12.882813 1.101563 10.011719 1.089844 6.457031 C 1.078125 2.902344 3.949219 0.0117188 7.503906 0 L 26.5625 0 C 26.5625 5.261719 22.296875 9.527344 17.035156 9.527344 C 11.769531 9.527344 7.503906 5.261719 7.503906 0 C 5.867188 -0.933594 5.0625 -2.855469 5.542969 -4.679688 C 6.027344 -6.503906 7.679688 -7.777344 9.566406 -7.777344 C 11.453125 -7.777344 13.105469 -6.503906 13.589844 -4.679688 C 14.074219 -2.855469 13.265625 -0.933594 11.628906 0 L 11.667969 0 C 13.304688 0.933594 14.113281 2.855469 13.628906 4.679688 C 13.144531 6.503906 11.492188 7.777344 9.605469 7.777344 C 7.71875 7.777344 6.066406 6.503906 5.582031 4.679688 C 5.101563 2.855469 5.90625 0.933594 7.542969 0 Z M 7.542969 12.871094 "/>
<path style=" stroke:none;fill-rule:nonzero;fill:rgb(31.372549%,90.196078%,100%);fill-opacity:1;" d="M 14.699219 12.871094 C 14.699219 14.417969 13.445313 15.671875 11.898438 15.671875 C 10.355469 15.671875 9.101563 14.417969 9.101563 12.871094 C 9.101563 11.324219 10.355469 10.070313 11.898438 10.070313 C 13.445313 10.070313 14.699219 11.324219 14.699219 12.871094 Z M 14.699219 12.871094 "/>
<path style=" stroke:none;fill-rule:nonzero;fill:rgb(31.372549%,90.196078%,100%);fill-opacity:1;" d="M 14.699219 25.160156 C 14.699219 26.707031 13.445313 27.960938 11.898438 27.960938 C 10.355469 27.960938 9.101563 26.707031 9.101563 25.160156 C 9.101563 23.613281 10.355469 22.359375 11.898438 22.359375 C 13.445313 22.359375 14.699219 23.613281 14.699219 25.160156 Z M 14.699219 25.160156 "/>
<path style=" stroke:none;fill-rule:nonzero;fill:url(#linear1);" d="M 68.054688 54.753906 C 69.089844 58.65625 68.261719 62.816406 65.8125 66.027344 C 63.363281 69.234375 59.570313 71.132813 55.535156 71.167969 C 63.988281 71.484375 70.636719 78.496094 70.503906 86.957031 L 99.246094 86.957031 C 99.246094 94.890625 92.8125 101.324219 84.875 101.324219 C 76.9375 101.324219 70.503906 94.890625 70.503906 86.957031 Z M 68.054688 54.753906 "/>
<path style=" stroke:none;fill-rule:nonzero;fill:rgb(94.901961%,94.901961%,94.901961%);fill-opacity:1;" d="M 52.929688 56.195313 L 52.929688 43.128906 L 49.3125 43.128906 L 49.3125 59.148438 L 58.839844 59.148438 L 58.839844 56.195313 Z M 25.316406 49.777344 C 28.390625 46.375 33.582031 45.953125 37.164063 48.816406 C 40.75 51.679688 41.480469 56.835938 38.839844 60.585938 C 36.199219 64.335938 31.097656 65.378906 27.195313 62.96875 C 23.292969 60.558594 21.941406 55.527344 24.109375 51.488281 L 25.433594 52.8125 L 25.433594 58.332031 C 25.558594 54.027344 25.910156 50.539063 26.222656 50.539063 C 26.535156 50.539063 26.683594 54.027344 26.5625 58.332031 L 26.5625 54.988281 C 27.027344 57.1875 26.824219 59.476563 25.976563 61.5625 L 30.253906 65.839844 L 35.464844 65.839844 C 34.324219 67.582031 34.300781 70.089844 35.414063 71.804688 C 36.523438 73.519531 38.457031 73.953125 40.003906 72.832031 C 41.550781 71.710938 42.277344 69.359375 41.726563 67.238281 C 41.601563 66.535156 41.949219 65.835938 42.582031 65.503906 C 43.214844 65.175781 43.988281 65.292969 44.492188 65.796875 C 44.996094 66.300781 45.113281 67.074219 44.785156 67.707031 C 44.453125 68.339844 43.753906 68.6875 43.050781 68.5625 L 45.964844 68.5625 C 48.351563 68.566406 50.289063 69.4375 50.289063 70.511719 C 50.289063 71.585938 48.351563 72.453125 45.964844 72.449219 L 45.964844 76.027344 C 45.050781 80.417969 40.960938 83.402344 36.503906 82.941406 C 32.042969 82.480469 28.652344 78.722656 28.652344 74.238281 C 28.652344 69.753906 32.042969 65.996094 36.503906 65.535156 C 40.960938 65.074219 45.050781 68.058594 45.964844 72.449219 C 45.855469 70.722656 46.828125 69.105469 48.40625 68.394531 C 49.984375 67.679688 51.835938 68.019531 53.0625 69.242188 C 54.285156 70.46875 54.625 72.320313 53.910156 73.898438 C 53.199219 75.476563 51.582031 76.449219 49.855469 76.339844 L 59.035156 76.339844 Z M 45.382813 55.921875 C 45.242188 52.132813 47.433594 48.644531 50.910156 47.128906 C 54.382813 45.613281 58.429688 46.382813 61.109375 49.0625 C 63.789063 51.742188 64.558594 55.789063 63.042969 59.265625 C 61.527344 62.738281 58.039063 64.929688 54.25 64.789063 L 61.132813 64.789063 C 62.582031 66.921875 62.996094 69.589844 62.261719 72.0625 C 61.652344 68.296875 63.539063 64.570313 66.933594 62.832031 C 70.328125 61.097656 74.457031 61.746094 77.152344 64.441406 C 79.847656 67.140625 80.5 71.265625 78.761719 74.660156 C 77.023438 78.054688 73.296875 79.941406 69.535156 79.332031 L 69.535156 83.222656 L 72.839844 87.109375 L 77.503906 87.109375 L 72.878906 82.832031 C 76.429688 83.277344 79.09375 86.304688 79.078125 89.886719 C 79.0625 93.46875 76.375 96.472656 72.816406 96.886719 C 69.261719 97.300781 65.953125 94.992188 65.117188 91.511719 C 64.28125 88.027344 66.175781 84.46875 69.535156 83.222656 Z M 41.765625 54.949219 C 42.070313 53.382813 43.375 52.207031 44.964844 52.066406 C 46.554688 51.925781 48.046875 52.855469 48.617188 54.347656 C 49.191406 55.835938 48.707031 57.523438 47.433594 58.484375 C 46.160156 59.449219 44.402344 59.449219 43.128906 58.488281 L 48.960938 64.320313 L 54.640625 64.320313 C 53.296875 66.183594 54.160156 68.550781 56.566406 69.613281 C 58.972656 70.679688 62.019531 70.042969 63.386719 68.1875 C 64.75 66.335938 63.917969 63.964844 61.523438 62.882813 C 63.175781 61.230469 65.855469 61.230469 67.511719 62.882813 C 69.164063 64.539063 69.164063 67.21875 67.511719 68.871094 L 67.511719 72.761719 Z M 41.765625 54.949219 "/>
</g>
</svg>
