<?xml version="1.0" encoding="UTF-8"?>
<svg xmlns="http://www.w3.org/2000/svg" xmlns:xlink="http://www.w3.org/1999/xlink" width="70pt" height="70pt" viewBox="0 0 70 70" version="1.1">
<defs>
<filter id="alpha" filterUnits="objectBoundingBox" x="0%" y="0%" width="100%" height="100%">
  <feColorMatrix type="matrix" in="SourceGraphic" values="0 0 0 0 1 0 0 0 0 1 0 0 0 0 1 0 0 0 1 0"/>
</filter>
<mask id="mask0">
  <g filter="url(#alpha)">
<rect x="0" y="0" width="70" height="70" style="fill:rgb(0%,0%,0%);fill-opacity:0.501961;stroke:none;"/>
  </g>
</mask>
<clipPath id="clip1">
  <rect x="0" y="0" width="70" height="70"/>
</clipPath>
<g id="surface5" clip-path="url(#clip1)">
<path style=" stroke:none;fill-rule:nonzero;fill:rgb(60%,60%,60%);fill-opacity:1;" d="M 5.523438 6.960938 L 9.410156 2.566406 C 8.703125 5.164063 6.019531 6.699219 3.421875 5.988281 C 0.824219 5.28125 -0.707031 2.597656 0 0 L 36.207031 0 C 36.207031 9.996094 28.101563 18.101563 18.101563 18.101563 C 8.105469 18.101563 0 9.996094 0 0 L 0 45.1875 C -12.480469 44.8125 -22.289063 34.390625 -21.914063 21.914063 C -21.539063 9.433594 -11.117188 -0.375 1.359375 0 L -2.527344 3.695313 Z M 5.523438 6.960938 "/>
</g>
<linearGradient id="linear0" gradientUnits="userSpaceOnUse" x1="6.41" y1="1.78" x2="6.41" y2="14.13" gradientTransform="matrix(3.888889,0,0,3.888889,0,0)">
<stop offset="0" style="stop-color:rgb(70.196078%,69.803922%,70.196078%);stop-opacity:1;"/>
<stop offset="0.38" style="stop-color:rgb(68.627451%,68.235294%,68.627451%);stop-opacity:1;"/>
<stop offset="0.76" style="stop-color:rgb(63.529412%,63.529412%,63.529412%);stop-opacity:1;"/>
<stop offset="1" style="stop-color:rgb(59.215686%,59.215686%,59.215686%);stop-opacity:1;"/>
</linearGradient>
<linearGradient id="linear1" gradientUnits="userSpaceOnUse" x1="7.85" y1="13.09" x2="16.6" y2="13.09" gradientTransform="matrix(3.888889,0,0,3.888889,0,0)">
<stop offset="0" style="stop-color:rgb(0%,35.686275%,63.137255%);stop-opacity:1;"/>
<stop offset="0.07" style="stop-color:rgb(0%,37.647059%,66.27451%);stop-opacity:1;"/>
<stop offset="0.36" style="stop-color:rgb(0%,44.313725%,78.431373%);stop-opacity:1;"/>
<stop offset="0.52" style="stop-color:rgb(0%,47.058824%,83.137255%);stop-opacity:1;"/>
<stop offset="0.64" style="stop-color:rgb(0%,45.490196%,80.392157%);stop-opacity:1;"/>
<stop offset="0.82" style="stop-color:rgb(0%,41.568627%,73.333333%);stop-opacity:1;"/>
<stop offset="1" style="stop-color:rgb(0%,35.686275%,63.137255%);stop-opacity:1;"/>
</linearGradient>
</defs>
<g id="surface1">
<path style=" stroke:none;fill-rule:nonzero;fill:rgb(60%,60%,60%);fill-opacity:1;" d="M 5.523438 6.960938 L 9.410156 2.566406 C 8.703125 5.164063 6.019531 6.699219 3.421875 5.988281 C 0.824219 5.28125 -0.707031 2.597656 0 0 L 36.207031 0 C 36.207031 9.996094 28.101563 18.101563 18.101563 18.101563 C 8.105469 18.101563 0 9.996094 0 0 L 0 45.1875 C -12.480469 44.8125 -22.289063 34.390625 -21.914063 21.914063 C -21.539063 9.433594 -11.117188 -0.375 1.359375 0 L -2.527344 3.695313 Z M 5.523438 6.960938 "/>
<use xlink:href="#surface5" mask="url(#mask0)"/>
<path style=" stroke:none;fill-rule:nonzero;fill:rgb(100%,100%,100%);fill-opacity:1;" d="M 8.554688 6.960938 L 10.851563 4.316406 C 9.65625 7.3125 6.261719 8.773438 3.265625 7.582031 C 0.269531 6.390625 -1.191406 2.996094 0 0 L 33.792969 0 C 33.792969 9.332031 26.230469 16.898438 16.898438 16.898438 C 7.566406 16.898438 0 9.332031 0 0 L 0 42.816406 C -11.824219 42.484375 -21.136719 32.628906 -20.804688 20.804688 C -20.472656 8.980469 -10.617188 -0.332031 1.207031 0 L -2.410156 3.304688 "/>
<path style=" stroke:none;fill-rule:nonzero;fill:url(#linear0);" d="M 43.167969 6.921875 L 5.445313 6.921875 L 5.445313 53.589844 C -9.355469 55.09375 -22.570313 44.316406 -24.070313 29.515625 C -25.574219 14.71875 -14.796875 1.503906 0 0 L 36.515625 0 C 36.515625 10.082031 28.34375 18.257813 18.257813 18.257813 C 8.175781 18.257813 0 10.082031 0 0 L 0 8.128906 C -2.246094 8.460938 -4.332031 6.910156 -4.667969 4.667969 C -5 2.421875 -3.449219 0.332031 -1.207031 0 Z M 43.167969 6.921875 "/>
<path style=" stroke:none;fill-rule:nonzero;fill:url(#linear1);" d="M 47.523438 39.199219 C 38.148438 39.199219 30.527344 36.789063 30.527344 33.792969 L 30.527344 62.648438 C 30.527344 65.605469 37.996094 68.015625 47.289063 68.054688 L 47.523438 68.054688 C 56.933594 68.054688 64.554688 65.644531 64.554688 62.648438 L 64.554688 33.792969 C 64.554688 36.789063 56.933594 39.199219 47.523438 39.199219 Z M 47.523438 39.199219 "/>
<path style=" stroke:none;fill-rule:nonzero;fill:rgb(90.980392%,90.980392%,90.980392%);fill-opacity:1;" d="M 64.554688 33.792969 C 64.554688 36.789063 56.777344 39.199219 47.523438 39.199219 C 38.265625 39.199219 30.527344 36.789063 30.527344 33.792969 C 30.527344 30.800781 38.304688 28.351563 47.523438 28.351563 C 56.738281 28.351563 64.554688 30.800781 64.554688 33.792969 "/>
<path style=" stroke:none;fill-rule:nonzero;fill:rgb(31.372549%,90.196078%,100%);fill-opacity:1;" d="M 60.589844 33.367188 C 60.589844 35.273438 54.714844 36.789063 47.523438 36.789063 C 40.328125 36.789063 34.496094 35.273438 34.496094 33.367188 C 34.496094 31.460938 40.328125 29.90625 47.523438 29.90625 C 54.714844 29.90625 60.589844 31.460938 60.589844 33.367188 "/>
<path style=" stroke:none;fill-rule:nonzero;fill:rgb(9.803922%,54.117647%,70.196078%);fill-opacity:1;" d="M 47.523438 34.144531 C 53.964844 44.507813 54.46875 57.5 48.84375 68.328125 L 83.300781 68.328125 C 105.109375 71.722656 122.789063 72.164063 122.789063 69.304688 C 122.789063 66.449219 105.109375 61.378906 83.300781 57.984375 Z M 47.523438 34.144531 "/>
</g>
</svg>
