<?xml version="1.0" encoding="UTF-8"?>
<svg xmlns="http://www.w3.org/2000/svg" xmlns:xlink="http://www.w3.org/1999/xlink" width="70pt" height="70pt" viewBox="0 0 70 70" version="1.1">
<defs>
<linearGradient id="linear0" gradientUnits="userSpaceOnUse" x1="9" y1="7.11" x2="9" y2="14.2" gradientTransform="matrix(3.888889,0,0,3.888889,0,0)">
<stop offset="0" style="stop-color:rgb(65.098039%,47.843137%,95.686275%);stop-opacity:1;"/>
<stop offset="1" style="stop-color:rgb(33.333333%,18.431373%,60%);stop-opacity:1;"/>
</linearGradient>
<filter id="alpha" filterUnits="objectBoundingBox" x="0%" y="0%" width="100%" height="100%">
  <feColorMatrix type="matrix" in="SourceGraphic" values="0 0 0 0 1 0 0 0 0 1 0 0 0 0 1 0 0 0 1 0"/>
</filter>
<mask id="mask0">
  <g filter="url(#alpha)">
<rect x="0" y="0" width="70" height="70" style="fill:rgb(0%,0%,0%);fill-opacity:0.8;stroke:none;"/>
  </g>
</mask>
<clipPath id="clip1">
  <rect x="0" y="0" width="70" height="70"/>
</clipPath>
<g id="surface5" clip-path="url(#clip1)">
<path style=" stroke:none;fill-rule:nonzero;fill:rgb(100%,100%,100%);fill-opacity:1;" d="M 35 32.316406 C 26.074219 32.726563 18.511719 25.820313 18.101563 16.898438 C 17.695313 7.972656 24.597656 0.40625 33.523438 0 L 35 43.867188 L 39.9375 31.109375 C 31.347656 32.882813 22.945313 27.355469 21.175781 18.765625 C 19.402344 10.171875 24.929688 1.773438 33.523438 0 Z M 35 32.316406 "/>
</g>
<linearGradient id="linear1" gradientUnits="userSpaceOnUse" x1="8.8" y1="3.31" x2="9.32" y2="9.75" gradientTransform="matrix(3.888889,0,0,3.888889,0,0)">
<stop offset="0" style="stop-color:rgb(65.098039%,47.843137%,95.686275%);stop-opacity:1;"/>
<stop offset="1" style="stop-color:rgb(33.333333%,18.431373%,60%);stop-opacity:1;"/>
</linearGradient>
</defs>
<g id="surface1">
<path style=" stroke:none;fill-rule:nonzero;fill:rgb(0%,47.058824%,83.137255%);fill-opacity:1;" d="M 8.359375 45.695313 C 0.078125 33.519531 2.417969 17.039063 13.761719 7.648438 C 25.105469 -1.742188 41.730469 -0.960938 52.144531 9.453125 C 62.558594 19.867188 63.339844 36.492188 53.949219 47.839844 C 44.5625 59.183594 28.082031 61.523438 15.90625 53.238281 L 48.882813 53.238281 L 48.882813 60.511719 Z M 23.101563 4.433594 C 38.585938 -2.6875 56.910156 4.09375 64.03125 19.582031 C 71.152344 35.066406 64.367188 53.390625 48.882813 60.511719 C 47.164063 72.597656 38.101563 82.335938 26.167969 84.914063 C 14.238281 87.496094 1.960938 82.371094 -4.597656 72.070313 C -11.152344 61.773438 -10.601563 48.480469 -3.214844 38.761719 C 4.167969 29.039063 16.828125 24.949219 28.503906 28.503906 L 28.972656 28.15625 C 27.582031 28.363281 26.179688 28.480469 24.773438 28.503906 Z M 61.640625 24.34375 C 52.761719 15.089844 51.167969 1.042969 57.75 -9.964844 C 64.328125 -20.972656 77.457031 -26.222656 89.8125 -22.785156 C 102.167969 -19.351563 110.699219 -8.074219 110.648438 4.75 C 110.601563 17.574219 101.980469 28.78125 89.601563 32.121094 L 97.144531 32.121094 C 124.375 36.140625 147.46875 31.914063 148.726563 22.675781 C 149.980469 13.441406 128.925781 2.695313 101.695313 -1.320313 C 95.21875 -1.925781 90.363281 -7.511719 90.664063 -14.007813 C 90.964844 -20.503906 96.320313 -25.613281 102.820313 -25.613281 C 109.324219 -25.613281 114.679688 -20.503906 114.980469 -14.007813 C 115.28125 -7.511719 110.425781 -1.925781 103.949219 -1.320313 Z M 44.488281 62.222656 C 26.941406 61.804688 13.054688 47.238281 13.476563 29.691406 C 13.894531 12.144531 28.457031 -1.742188 46.003906 -1.320313 C 41.921875 -2.019531 39.054688 -5.726563 39.402344 -9.855469 C 39.753906 -13.980469 43.207031 -17.152344 47.347656 -17.152344 C 51.488281 -17.152344 54.941406 -13.980469 55.289063 -9.855469 C 55.640625 -5.726563 52.773438 -2.019531 48.6875 -1.320313 L 48.222656 -0.972656 C 39.988281 -15.3125 43.644531 -33.53125 56.773438 -43.582031 C 69.902344 -53.632813 88.445313 -52.40625 100.136719 -40.714844 C 111.828125 -29.023438 113.054688 -10.480469 103.003906 2.648438 C 92.953125 15.777344 74.734375 19.433594 60.394531 11.199219 Z M 44.488281 62.222656 "/>
<path style=" stroke:none;fill-rule:nonzero;fill:rgb(19.607843%,74.509804%,86.666667%);fill-opacity:1;" d="M 20.144531 7.273438 C 21.984375 4.085938 25.734375 2.53125 29.285156 3.484375 C 32.839844 4.4375 35.3125 7.65625 35.3125 11.335938 C 35.3125 15.015625 32.839844 18.234375 29.285156 19.1875 C 25.734375 20.140625 21.984375 18.585938 20.144531 15.398438 Z M 20.144531 7.273438 "/>
<path style=" stroke:none;fill-rule:nonzero;fill:rgb(100%,100%,100%);fill-opacity:1;" d="M 17.1875 15.828125 C 19.335938 15.828125 21.078125 17.570313 21.078125 19.714844 L 30.566406 19.714844 "/>
<path style=" stroke:none;fill-rule:nonzero;fill:rgb(19.607843%,74.509804%,86.666667%);fill-opacity:1;" d="M 51.253906 7.273438 C 51.253906 2.785156 54.894531 -0.855469 59.382813 -0.855469 C 63.871094 -0.855469 67.511719 2.785156 67.511719 7.273438 C 67.511719 11.761719 63.871094 15.398438 59.382813 15.398438 Z M 51.253906 7.273438 "/>
<path style=" stroke:none;fill-rule:nonzero;fill:rgb(100%,100%,100%);fill-opacity:1;" d="M 59.8125 10.1875 C 59.8125 8.042969 61.550781 6.300781 63.699219 6.300781 C 65.847656 6.300781 67.589844 8.042969 67.589844 10.1875 C 67.589844 12.335938 65.847656 14.078125 63.699219 14.078125 "/>
<path style=" stroke:none;fill-rule:nonzero;fill:rgb(19.607843%,74.509804%,86.666667%);fill-opacity:1;" d="M 49.855469 62.726563 C 45.367188 62.726563 41.726563 66.367188 41.726563 70.855469 C 41.726563 75.34375 45.367188 78.984375 49.855469 78.984375 C 54.34375 78.984375 57.984375 75.34375 57.984375 70.855469 Z M 49.855469 62.726563 "/>
<path style=" stroke:none;fill-rule:nonzero;fill:rgb(100%,100%,100%);fill-opacity:1;" d="M 52.8125 54.171875 C 54.957031 54.171875 56.699219 55.914063 56.699219 58.0625 C 54.953125 57.375 52.820313 57.375 51.101563 58.0625 "/>
<path style=" stroke:none;fill-rule:nonzero;fill:rgb(19.607843%,74.509804%,86.666667%);fill-opacity:1;" d="M 18.746094 62.726563 C 18.746094 58.238281 22.382813 54.601563 26.871094 54.601563 C 31.359375 54.601563 35 58.238281 35 62.726563 C 35 67.214844 31.359375 70.855469 26.871094 70.855469 Z M 18.746094 62.726563 "/>
<path style=" stroke:none;fill-rule:nonzero;fill:rgb(100%,100%,100%);fill-opacity:1;" d="M 10.1875 59.8125 C 10.1875 57.664063 11.929688 55.921875 14.078125 55.921875 C 16.226563 55.921875 17.964844 57.664063 17.964844 59.8125 C 17.964844 61.957031 16.226563 63.699219 14.078125 63.699219 "/>
<path style=" stroke:none;fill-rule:nonzero;fill:url(#linear0);" d="M 48.648438 50.246094 C 34.773438 63.679688 12.636719 63.320313 -0.796875 49.445313 C -14.230469 35.574219 -13.875 13.433594 0 0 L 0 -0.351563 C 50.554688 37.683594 45.148438 30.101563 35 30.101563 C 24.851563 30.101563 19.445313 36.515625 18.433594 46.976563 C 5.460938 43.757813 -2.445313 30.628906 0.777344 17.65625 C 4 4.683594 17.128906 -3.222656 30.101563 0 L 57.671875 0 Z M 48.648438 50.246094 "/>
<use xlink:href="#surface5" mask="url(#mask0)"/>
<path style=" stroke:none;fill-rule:nonzero;fill:url(#linear1);" d="M 44.332031 23.023438 C 44.332031 28.15625 40.171875 32.316406 35.039063 32.316406 C 29.90625 32.316406 25.746094 28.15625 25.746094 23.023438 C 25.746094 17.890625 29.90625 13.726563 35.039063 13.726563 C 40.171875 13.726563 44.332031 17.890625 44.332031 23.023438 Z M 44.332031 23.023438 "/>
</g>
</svg>
