<?xml version="1.0" encoding="UTF-8"?>
<svg xmlns="http://www.w3.org/2000/svg" xmlns:xlink="http://www.w3.org/1999/xlink" width="70pt" height="70pt" viewBox="0 0 70 70" version="1.1">
<defs>
<filter id="alpha" filterUnits="objectBoundingBox" x="0%" y="0%" width="100%" height="100%">
  <feColorMatrix type="matrix" in="SourceGraphic" values="0 0 0 0 1 0 0 0 0 1 0 0 0 0 1 0 0 0 1 0"/>
</filter>
<mask id="mask0">
  <g filter="url(#alpha)">
<rect x="0" y="0" width="70" height="70" style="fill:rgb(0%,0%,0%);fill-opacity:0.501961;stroke:none;"/>
  </g>
</mask>
<clipPath id="clip1">
  <rect x="0" y="0" width="70" height="70"/>
</clipPath>
<g id="surface5" clip-path="url(#clip1)">
<path style=" stroke:none;fill-rule:nonzero;fill:rgb(63.921569%,63.921569%,63.921569%);fill-opacity:1;" d="M 4.121094 5.523438 L 9.140625 5.523438 L 9.140625 19.445313 C 3.769531 19.132813 -0.332031 14.527344 -0.0195313 9.160156 C 0.292969 3.789063 4.898438 -0.3125 10.265625 0 L 2.996094 0 C 2.996094 -2.007813 4.621094 -3.636719 6.628906 -3.636719 C 8.640625 -3.636719 10.265625 -2.007813 10.265625 0 L 10.265625 7.777344 C 8.117188 7.777344 6.378906 6.035156 6.378906 3.890625 C 6.378906 1.742188 8.117188 0 10.265625 0 Z M 4.121094 5.523438 "/>
</g>
<mask id="mask1">
  <g filter="url(#alpha)">
<rect x="0" y="0" width="70" height="70" style="fill:rgb(0%,0%,0%);fill-opacity:0.501961;stroke:none;"/>
  </g>
</mask>
<clipPath id="clip2">
  <rect x="0" y="0" width="70" height="70"/>
</clipPath>
<g id="surface8" clip-path="url(#clip2)">
<path style=" stroke:none;fill-rule:nonzero;fill:rgb(63.921569%,63.921569%,63.921569%);fill-opacity:1;" d="M 60.859375 5.523438 L 65.878906 5.523438 C 64.351563 23.714844 48.371094 37.226563 30.179688 35.699219 C 11.984375 34.175781 -1.523438 18.191406 0 0 L 0 19.445313 C -5.371094 19.132813 -9.46875 14.527344 -9.160156 9.160156 C -8.847656 3.789063 -4.242188 -0.3125 1.128906 0 L -3.851563 0 C -3.40625 0.253906 -3.191406 0.777344 -3.324219 1.269531 C -3.457031 1.761719 -3.902344 2.105469 -4.414063 2.105469 C -4.925781 2.105469 -5.371094 1.761719 -5.503906 1.269531 C -5.636719 0.777344 -5.417969 0.253906 -4.976563 0 L -4.976563 5.523438 Z M 60.859375 5.523438 "/>
</g>
<mask id="mask2">
  <g filter="url(#alpha)">
<rect x="0" y="0" width="70" height="70" style="fill:rgb(0%,0%,0%);fill-opacity:0.501961;stroke:none;"/>
  </g>
</mask>
<clipPath id="clip3">
  <rect x="0" y="0" width="70" height="70"/>
</clipPath>
<g id="surface11" clip-path="url(#clip3)">
<path style=" stroke:none;fill-rule:nonzero;fill:rgb(63.921569%,63.921569%,63.921569%);fill-opacity:1;" d="M 2.996094 49.351563 L 8.011719 49.351563 C -5.617188 51.5625 -18.457031 42.308594 -20.667969 28.679688 C -22.882813 15.054688 -13.628906 2.210938 0 0 L 0 14.039063 L 4.121094 14.039063 C 0.246094 15.175781 -3.820313 12.957031 -4.957031 9.082031 C -6.097656 5.203125 -3.875 1.136719 0 0 L 0 -11.667969 C 3.222656 -11.667969 5.832031 -9.054688 5.832031 -5.832031 C 5.832031 -2.613281 3.222656 0 0 0 Z M 2.996094 49.351563 "/>
</g>
<mask id="mask3">
  <g filter="url(#alpha)">
<rect x="0" y="0" width="70" height="70" style="fill:rgb(0%,0%,0%);fill-opacity:0.501961;stroke:none;"/>
  </g>
</mask>
<clipPath id="clip4">
  <rect x="0" y="0" width="70" height="70"/>
</clipPath>
<g id="surface14" clip-path="url(#clip4)">
<path style=" stroke:none;fill-rule:nonzero;fill:rgb(63.921569%,63.921569%,63.921569%);fill-opacity:1;" d="M 61.988281 49.351563 L 67.003906 49.351563 C 53.378906 67.851563 27.332031 71.804688 8.828125 58.179688 C -9.675781 44.550781 -13.628906 18.503906 0 0 L 0 11.667969 C -3.222656 11.054688 -5.335938 7.945313 -4.726563 4.726563 C -4.113281 1.503906 -1.003906 -0.613281 2.214844 0 L -2.839844 0 L -2.839844 50.554688 C -16.800781 49.160156 -26.984375 36.710938 -25.589844 22.75 C -24.191406 8.789063 -11.742188 -1.394531 2.214844 0 Z M 61.988281 49.351563 "/>
</g>
<linearGradient id="linear0" gradientUnits="userSpaceOnUse" x1="7.94" y1="7.7" x2="7.94" y2="3.75" gradientTransform="matrix(3.888889,0,0,3.888889,0,0)">
<stop offset="0" style="stop-color:rgb(36.862745%,58.823529%,14.117647%);stop-opacity:1;"/>
<stop offset="1" style="stop-color:rgb(46.27451%,73.72549%,17.647059%);stop-opacity:1;"/>
</linearGradient>
<linearGradient id="linear1" gradientUnits="userSpaceOnUse" x1="7.94" y1="14.26" x2="7.94" y2="10.31" gradientTransform="matrix(3.888889,0,0,3.888889,0,0)">
<stop offset="0" style="stop-color:rgb(36.862745%,58.823529%,14.117647%);stop-opacity:1;"/>
<stop offset="1" style="stop-color:rgb(46.27451%,73.72549%,17.647059%);stop-opacity:1;"/>
</linearGradient>
</defs>
<g id="surface1">
<path style=" stroke:none;fill-rule:nonzero;fill:rgb(63.921569%,63.921569%,63.921569%);fill-opacity:1;" d="M 4.121094 5.523438 L 9.140625 5.523438 L 9.140625 19.445313 C 3.769531 19.132813 -0.332031 14.527344 -0.0195313 9.160156 C 0.292969 3.789063 4.898438 -0.3125 10.265625 0 L 2.996094 0 C 2.996094 -2.007813 4.621094 -3.636719 6.628906 -3.636719 C 8.640625 -3.636719 10.265625 -2.007813 10.265625 0 L 10.265625 7.777344 C 8.117188 7.777344 6.378906 6.035156 6.378906 3.890625 C 6.378906 1.742188 8.117188 0 10.265625 0 Z M 4.121094 5.523438 "/>
<use xlink:href="#surface5" mask="url(#mask0)"/>
<path style=" stroke:none;fill-rule:nonzero;fill:rgb(63.921569%,63.921569%,63.921569%);fill-opacity:1;" d="M 60.859375 5.523438 L 65.878906 5.523438 C 64.351563 23.714844 48.371094 37.226563 30.179688 35.699219 C 11.984375 34.175781 -1.523438 18.191406 0 0 L 0 19.445313 C -5.371094 19.132813 -9.46875 14.527344 -9.160156 9.160156 C -8.847656 3.789063 -4.242188 -0.3125 1.128906 0 L -3.851563 0 C -3.40625 0.253906 -3.191406 0.777344 -3.324219 1.269531 C -3.457031 1.761719 -3.902344 2.105469 -4.414063 2.105469 C -4.925781 2.105469 -5.371094 1.761719 -5.503906 1.269531 C -5.636719 0.777344 -5.417969 0.253906 -4.976563 0 L -4.976563 5.523438 Z M 60.859375 5.523438 "/>
<use xlink:href="#surface8" mask="url(#mask1)"/>
<path style=" stroke:none;fill-rule:nonzero;fill:rgb(58.039216%,58.039216%,58.039216%);fill-opacity:1;" d="M 68.09375 7.699219 L 68.09375 12.5625 L 1.984375 12.5625 L 1.984375 7.699219 C -0.144531 8.246094 -2.3125 6.96875 -2.859375 4.839844 C -3.40625 2.714844 -2.125 0.546875 0 0 L 61.679688 0 C 61.679688 17.03125 47.871094 30.839844 30.839844 30.839844 C 13.808594 30.839844 0 17.03125 0 0 Z M 68.09375 7.699219 "/>
<path style=" stroke:none;fill-rule:nonzero;fill:rgb(63.921569%,63.921569%,63.921569%);fill-opacity:1;" d="M 2.996094 49.351563 L 8.011719 49.351563 C -5.617188 51.5625 -18.457031 42.308594 -20.667969 28.679688 C -22.882813 15.054688 -13.628906 2.210938 0 0 L 0 14.039063 L 4.121094 14.039063 C 0.246094 15.175781 -3.820313 12.957031 -4.957031 9.082031 C -6.097656 5.203125 -3.875 1.136719 0 0 L 0 -11.667969 C 3.222656 -11.667969 5.832031 -9.054688 5.832031 -5.832031 C 5.832031 -2.613281 3.222656 0 0 0 Z M 2.996094 49.351563 "/>
<use xlink:href="#surface11" mask="url(#mask2)"/>
<path style=" stroke:none;fill-rule:nonzero;fill:rgb(63.921569%,63.921569%,63.921569%);fill-opacity:1;" d="M 61.988281 49.351563 L 67.003906 49.351563 C 53.378906 67.851563 27.332031 71.804688 8.828125 58.179688 C -9.675781 44.550781 -13.628906 18.503906 0 0 L 0 11.667969 C -3.222656 11.054688 -5.335938 7.945313 -4.726563 4.726563 C -4.113281 1.503906 -1.003906 -0.613281 2.214844 0 L -2.839844 0 L -2.839844 50.554688 C -16.800781 49.160156 -26.984375 36.710938 -25.589844 22.75 C -24.191406 8.789063 -11.742188 -1.394531 2.214844 0 Z M 61.988281 49.351563 "/>
<use xlink:href="#surface14" mask="url(#mask3)"/>
<path style=" stroke:none;fill-rule:nonzero;fill:rgb(58.039216%,58.039216%,58.039216%);fill-opacity:1;" d="M 1.867188 62.300781 L 1.867188 57.4375 L 67.976563 57.4375 L 67.976563 62.300781 C 50.773438 61.6875 37.324219 47.246094 37.9375 30.042969 C 38.546875 12.839844 52.992188 -0.613281 70.195313 0 L 4.082031 0 C 4.953125 0.5 5.375 1.523438 5.117188 2.492188 C 4.855469 3.460938 3.976563 4.136719 2.976563 4.136719 C 1.972656 4.136719 1.09375 3.460938 0.832031 2.492188 C 0.574219 1.523438 0.996094 0.5 1.867188 0 Z M 1.867188 62.300781 "/>
<path style=" stroke:none;fill-rule:nonzero;fill:rgb(36.862745%,62.745098%,93.72549%);fill-opacity:1;" d="M 57.984375 34.378906 L 50.90625 27.222656 C 43.386719 27.148438 37.355469 20.992188 37.429688 13.476563 C 37.503906 5.957031 43.660156 -0.0742188 51.179688 0 L 51.179688 31.890625 C 42.371094 31.78125 35.320313 24.554688 35.429688 15.75 C 35.535156 6.945313 42.761719 -0.105469 51.566406 0 L 29.515625 0 C 29.90625 1.617188 29.277344 3.308594 27.921875 4.277344 L 52.460938 4.277344 C 52.460938 9.894531 47.90625 14.445313 42.292969 14.445313 C 36.675781 14.445313 32.121094 9.894531 32.121094 4.277344 L 32.121094 8.59375 C 30.929688 8.59375 29.964844 7.628906 29.964844 6.4375 C 29.964844 5.242188 30.929688 4.277344 32.121094 4.277344 L 39.199219 -2.761719 C 41.144531 -0.804688 41.136719 2.351563 39.179688 4.296875 C 37.226563 6.242188 34.066406 6.230469 32.121094 4.277344 Z M 57.984375 34.378906 "/>
<path style=" stroke:none;fill-rule:nonzero;fill:url(#linear0);" d="M 44.917969 21.738281 L 37.839844 14.699219 C 33.78125 14.625 30.550781 11.273438 30.625 7.214844 C 30.699219 3.15625 34.050781 -0.0742188 38.109375 0 L 38.109375 19.445313 C 32.742188 19.335938 28.476563 14.898438 28.582031 9.527344 C 28.691406 4.160156 33.128906 -0.105469 38.5 0 L 24.109375 0 C 24.480469 1.617188 23.851563 3.296875 22.515625 4.277344 L 35.234375 4.277344 C 35.234375 7.789063 32.386719 10.636719 28.875 10.636719 C 25.363281 10.636719 22.515625 7.789063 22.515625 4.277344 L 22.515625 8.398438 C 21.378906 8.398438 20.457031 7.476563 20.457031 6.339844 C 20.457031 5.199219 21.378906 4.277344 22.515625 4.277344 L 29.59375 -2.761719 C 31.539063 -0.804688 31.53125 2.351563 29.574219 4.296875 C 27.621094 6.242188 24.460938 6.230469 22.515625 4.277344 Z M 44.917969 21.738281 "/>
<path style=" stroke:none;fill-rule:nonzero;fill:url(#linear1);" d="M 44.917969 47.25 L 37.839844 40.210938 C 26.734375 40.136719 17.792969 31.074219 17.871094 19.96875 C 17.945313 8.867188 27.007813 -0.0742188 38.109375 0 L 38.109375 4.277344 C 36.929688 4.171875 36.058594 3.125 36.167969 1.945313 C 36.273438 0.761719 37.320313 -0.105469 38.5 0 L 24.109375 0 C 24.480469 1.617188 23.851563 3.296875 22.515625 4.277344 L 35.234375 4.277344 C 35.234375 7.789063 32.386719 10.636719 28.875 10.636719 C 25.363281 10.636719 22.515625 7.789063 22.515625 4.277344 L 22.515625 8.59375 C 21.324219 8.59375 20.359375 7.628906 20.359375 6.4375 C 20.359375 5.242188 21.324219 4.277344 22.515625 4.277344 L 29.59375 -2.761719 C 31.539063 -0.804688 31.53125 2.351563 29.574219 4.296875 C 27.621094 6.242188 24.460938 6.230469 22.515625 4.277344 Z M 44.917969 47.25 "/>
</g>
</svg>
