<?xml version="1.0" encoding="UTF-8"?>
<svg xmlns="http://www.w3.org/2000/svg" xmlns:xlink="http://www.w3.org/1999/xlink" width="70pt" height="70pt" viewBox="0 0 70 70" version="1.1">
<defs>
<linearGradient id="linear0" gradientUnits="userSpaceOnUse" x1="9.02" y1="5.46" x2="9.02" y2="0.65" gradientTransform="matrix(3.888889,0,0,3.888889,0,0)">
<stop offset="0" style="stop-color:rgb(9.803922%,54.117647%,70.196078%);stop-opacity:1;"/>
<stop offset="1" style="stop-color:rgb(19.607843%,83.137255%,96.078431%);stop-opacity:1;"/>
</linearGradient>
<linearGradient id="linear1" gradientUnits="userSpaceOnUse" x1="8.98" y1="11.97" x2="8.98" y2="7.17" gradientTransform="matrix(3.888889,0,0,3.888889,0,0)">
<stop offset="0" style="stop-color:rgb(9.803922%,54.117647%,70.196078%);stop-opacity:1;"/>
<stop offset="1" style="stop-color:rgb(19.607843%,83.137255%,96.078431%);stop-opacity:1;"/>
</linearGradient>
<linearGradient id="linear2" gradientUnits="userSpaceOnUse" x1="9.02" y1="17.34" x2="9.02" y2="14.32" gradientTransform="matrix(3.888889,0,0,3.888889,0,0)">
<stop offset="0" style="stop-color:rgb(9.803922%,54.117647%,70.196078%);stop-opacity:1;"/>
<stop offset="1" style="stop-color:rgb(19.607843%,83.137255%,96.078431%);stop-opacity:1;"/>
</linearGradient>
</defs>
<g id="surface1">
<path style=" stroke:none;fill-rule:nonzero;fill:rgb(19.607843%,74.509804%,86.666667%);fill-opacity:1;" d="M 32.898438 21.234375 L 36.789063 21.234375 L 36.789063 58.566406 L 32.898438 58.566406 Z M 32.898438 21.234375 "/>
<path style=" stroke:none;fill-rule:nonzero;fill:url(#linear0);" d="M 60.199219 2.527344 L 9.957031 2.527344 C 9.878906 1.882813 10.078125 1.238281 10.511719 0.753906 C 10.945313 0.269531 11.5625 -0.00390625 12.210938 0 L 12.210938 14.195313 C 8.292969 14.195313 5.113281 11.015625 5.113281 7.097656 C 5.113281 3.175781 8.292969 0 12.210938 0 L 62.417969 0 C 62.417969 13.863281 51.179688 25.101563 37.3125 25.101563 C 23.449219 25.101563 12.210938 13.863281 12.210938 0 L 12.210938 4.785156 C 10.890625 5.40625 9.316406 4.839844 8.691406 3.519531 C 8.070313 2.199219 8.632813 0.621094 9.957031 0 Z M 60.199219 2.527344 "/>
<path style=" stroke:none;fill-rule:nonzero;fill:url(#linear1);" d="M 60.042969 27.882813 L 9.800781 27.882813 C 2.101563 27.269531 -3.644531 20.53125 -3.035156 12.832031 C -2.421875 5.132813 4.316406 -0.613281 12.015625 0 L 12.015625 14.234375 C 8.085938 14.234375 4.898438 11.046875 4.898438 7.117188 C 4.898438 3.1875 8.085938 0 12.015625 0 L 62.066406 0 C 62.066406 13.820313 50.863281 25.023438 37.042969 25.023438 C 23.222656 25.023438 12.015625 13.820313 12.015625 0 L 12.015625 30.101563 C 3.703125 30.710938 -3.53125 24.46875 -4.140625 16.160156 C -4.753906 7.847656 1.488281 0.613281 9.800781 0 Z M 60.042969 27.882813 "/>
<path style=" stroke:none;fill-rule:nonzero;fill:rgb(49.803922%,72.941176%,0%);fill-opacity:1;" d="M 41.105469 61.601563 C 41.105469 64.84375 38.476563 67.472656 35.234375 67.472656 C 31.988281 67.472656 29.359375 64.84375 29.359375 61.601563 C 29.359375 58.355469 31.988281 55.726563 35.234375 55.726563 C 38.476563 55.726563 41.105469 58.355469 41.105469 61.601563 Z M 41.105469 61.601563 "/>
<path style=" stroke:none;fill-rule:nonzero;fill:url(#linear2);" d="M 40.949219 61.5625 C 40.949219 64.804688 38.320313 67.433594 35.078125 67.433594 C 31.835938 67.433594 29.207031 64.804688 29.207031 61.5625 C 29.207031 58.316406 31.835938 55.6875 35.078125 55.6875 C 38.320313 55.6875 40.949219 58.316406 40.949219 61.5625 Z M 40.949219 61.5625 "/>
<path style=" stroke:none;fill-rule:nonzero;fill:rgb(70.588235%,92.54902%,21.176471%);fill-opacity:1;" d="M 53.9375 6.027344 L 56.855469 6.027344 C 57.175781 6.027344 57.4375 6.289063 57.4375 6.609375 L 57.4375 9.527344 C 57.4375 9.851563 57.175781 10.109375 56.855469 10.109375 L 53.9375 10.109375 C 53.617188 10.109375 53.355469 9.851563 53.355469 9.527344 L 53.355469 6.609375 C 53.355469 6.289063 53.617188 6.027344 53.9375 6.027344 Z M 53.9375 6.027344 "/>
<path style=" stroke:none;fill-rule:nonzero;fill:rgb(70.588235%,92.54902%,21.176471%);fill-opacity:1;" d="M 53.9375 13.066406 L 56.855469 13.066406 C 57.175781 13.066406 57.4375 13.328125 57.4375 13.648438 L 57.4375 16.566406 C 57.4375 16.890625 57.175781 17.148438 56.855469 17.148438 L 53.9375 17.148438 C 53.617188 17.148438 53.355469 16.890625 53.355469 16.566406 L 53.355469 13.648438 C 53.355469 13.328125 53.617188 13.066406 53.9375 13.066406 Z M 53.9375 13.066406 "/>
<path style=" stroke:none;fill-rule:nonzero;fill:rgb(70.588235%,92.54902%,21.176471%);fill-opacity:1;" d="M 53.9375 31.265625 L 56.855469 31.265625 C 57.175781 31.265625 57.4375 31.527344 57.4375 31.851563 L 57.4375 34.765625 C 57.4375 35.089844 57.175781 35.351563 56.855469 35.351563 L 53.9375 35.351563 C 53.617188 35.351563 53.355469 35.089844 53.355469 34.765625 L 53.355469 31.851563 C 53.355469 31.527344 53.617188 31.265625 53.9375 31.265625 Z M 53.9375 31.265625 "/>
<path style=" stroke:none;fill-rule:nonzero;fill:rgb(70.588235%,92.54902%,21.176471%);fill-opacity:1;" d="M 53.9375 38.304688 L 56.855469 38.304688 C 57.175781 38.304688 57.4375 38.566406 57.4375 38.890625 L 57.4375 41.804688 C 57.4375 42.128906 57.175781 42.390625 56.855469 42.390625 L 53.9375 42.390625 C 53.617188 42.390625 53.355469 42.128906 53.355469 41.804688 L 53.355469 38.890625 C 53.355469 38.566406 53.617188 38.304688 53.9375 38.304688 Z M 53.9375 38.304688 "/>
</g>
</svg>
