<?xml version="1.0" encoding="UTF-8"?>
<svg xmlns="http://www.w3.org/2000/svg" xmlns:xlink="http://www.w3.org/1999/xlink" width="70pt" height="70pt" viewBox="0 0 70 70" version="1.1">
<defs>
<linearGradient id="linear0" gradientUnits="userSpaceOnUse" x1="8.66" y1="17.12" x2="8.66" y2="1.03" gradientTransform="matrix(3.888889,0,0,3.888889,0,0)">
<stop offset="0" style="stop-color:rgb(9.803922%,53.333333%,85.098039%);stop-opacity:1;"/>
<stop offset="0.22" style="stop-color:rgb(12.941176%,55.294118%,86.27451%);stop-opacity:1;"/>
<stop offset="0.56" style="stop-color:rgb(21.568627%,61.176471%,89.803922%);stop-opacity:1;"/>
<stop offset="0.9" style="stop-color:rgb(32.941176%,68.235294%,94.117647%);stop-opacity:1;"/>
</linearGradient>
</defs>
<g id="surface1">
<path style=" stroke:none;fill-rule:nonzero;fill:url(#linear0);" d="M 33.679688 66.578125 C 65.488281 43.789063 66.578125 30.488281 66.695313 26.328125 C 66.890625 20.496094 66.109375 5.289063 50.554688 4.082031 C 49.429688 16.917969 38.109375 26.40625 25.277344 25.277344 C 12.445313 24.148438 2.957031 12.832031 4.082031 0 C 0.496094 1.265625 -3.414063 1.265625 -7 0 C 1.246094 5.289063 0.429688 20.496094 0.621094 26.328125 C 0.621094 30.488281 1.867188 43.789063 33.679688 66.578125 "/>
<path style=" stroke:none;fill-rule:nonzero;fill:rgb(100%,100%,100%);fill-opacity:1;" d="M 66.695313 24.035156 L 51.140625 24.035156 C 44.503906 23.957031 39.183594 18.515625 39.257813 11.878906 C 39.332031 5.242188 44.773438 -0.0742188 51.410156 0 L 46.707031 8.128906 C 44.460938 8.128906 42.640625 6.308594 42.640625 4.0625 C 42.640625 1.820313 44.460938 0 46.707031 0 L 38.148438 19.640625 C 32.726563 19.640625 28.332031 15.242188 28.332031 9.820313 C 28.332031 4.394531 32.726563 0 38.148438 0 L 29.515625 38.890625 C 18.777344 38.890625 10.070313 30.183594 10.070313 19.445313 C 10.070313 8.707031 18.777344 0 29.515625 0 L 22.867188 26.09375 C 15.660156 26.09375 9.820313 20.253906 9.820313 13.046875 C 9.820313 5.839844 15.660156 0 22.867188 0 L 13.183594 39.667969 C 2.230469 39.582031 -6.582031 30.632813 -6.496094 19.679688 C -6.410156 8.722656 2.539063 -0.0859375 13.496094 0 L 5.523438 0 C -21.539063 -2.140625 -42.078125 -25.269531 -41.007813 -52.394531 C -39.9375 -79.515625 -17.636719 -100.953125 9.507813 -100.953125 C 36.652344 -100.953125 58.953125 -79.515625 60.023438 -52.394531 C 61.09375 -25.269531 40.554688 -2.140625 13.496094 0 L 15.554688 0 C 15.554688 0.570313 15.09375 1.03125 14.523438 1.03125 C 13.957031 1.03125 13.496094 0.570313 13.496094 0 L 18.199219 -8.671875 C 15.804688 -9.972656 12.808594 -9.082031 11.511719 -6.6875 C 10.210938 -4.292969 11.101563 -1.300781 13.496094 0 L 19.949219 15.011719 C 24.09375 13.226563 26.011719 8.421875 24.226563 4.277344 C 22.445313 0.132813 17.640625 -1.78125 13.496094 0 L 20.300781 -20.222656 C 14.714844 -22.101563 8.664063 -19.097656 6.785156 -13.515625 C 4.90625 -7.929688 7.910156 -1.878906 13.496094 0 L 19.171875 10.773438 C 22.148438 9.203125 23.289063 5.523438 21.71875 2.546875 C 20.152344 -0.425781 16.46875 -1.566406 13.496094 0 L 20.726563 -12.171875 C 24.089844 -10.175781 25.195313 -5.832031 23.195313 -2.46875 C 21.199219 0.890625 16.855469 1.996094 13.496094 0 L 26.054688 0 "/>
</g>
</svg>
