<?xml version="1.0" encoding="UTF-8"?>
<svg xmlns="http://www.w3.org/2000/svg" xmlns:xlink="http://www.w3.org/1999/xlink" width="70pt" height="70pt" viewBox="0 0 70 70" version="1.1">
<defs>
<linearGradient id="linear0" gradientUnits="userSpaceOnUse" x1="9" y1="17.5" x2="9" y2="0.5" gradientTransform="matrix(3.888889,0,0,3.888889,0,0)">
<stop offset="0.16" style="stop-color:rgb(43.529412%,29.411765%,69.803922%);stop-opacity:1;"/>
<stop offset="0.32" style="stop-color:rgb(45.490196%,31.372549%,70.980392%);stop-opacity:1;"/>
<stop offset="0.51" style="stop-color:rgb(50.980392%,36.470588%,74.901961%);stop-opacity:1;"/>
<stop offset="0.72" style="stop-color:rgb(60.392157%,44.705882%,80.784314%);stop-opacity:1;"/>
<stop offset="0.94" style="stop-color:rgb(73.333333%,56.470588%,89.411765%);stop-opacity:1;"/>
<stop offset="1" style="stop-color:rgb(77.647059%,60.392157%,92.156863%);stop-opacity:1;"/>
</linearGradient>
</defs>
<g id="surface1">
<path style=" stroke:none;fill-rule:nonzero;fill:url(#linear0);" d="M 47.792969 1.945313 L 22.207031 1.945313 C 22.085938 1.226563 22.335938 0.496094 22.867188 0 L 2.605469 20.648438 C -3.097656 20.21875 -7.371094 15.25 -6.941406 9.546875 C -6.511719 3.84375 -1.542969 -0.429688 4.160156 0 L 4.160156 25.589844 C -2.90625 25.589844 -8.632813 19.859375 -8.632813 12.792969 C -8.632813 5.726563 -2.90625 0 4.160156 0 L 22.207031 18.042969 C 17.222656 23.027344 9.144531 23.027344 4.160156 18.042969 C -0.820313 13.0625 -0.820313 4.984375 4.160156 0 L 29.75 0 C 29.75 7.066406 24.023438 12.792969 16.957031 12.792969 C 9.890625 12.792969 4.160156 7.066406 4.160156 0 L 22.207031 -18.042969 C 27.1875 -13.0625 27.1875 -4.984375 22.207031 0 C 17.222656 4.984375 9.144531 4.984375 4.160156 0 L 4.160156 22.207031 C -1.972656 22.636719 -7.289063 18.011719 -7.71875 11.878906 C -8.148438 5.75 -3.527344 0.429688 2.605469 0 L 49.351563 2.605469 C 48.554688 1.992188 48.28125 0.917969 48.6875 0 Z M 47.792969 1.945313 "/>
<path style=" stroke:none;fill-rule:nonzero;fill:rgb(94.901961%,94.901961%,94.901961%);fill-opacity:1;" d="M 23.332031 29.710938 L 23.0625 29.984375 L 19.171875 33.871094 C 9.820313 39.167969 -2.054688 35.875 -7.351563 26.523438 C -12.644531 17.167969 -9.355469 5.292969 0 0 L 14.777344 0 C 14.777344 4.082031 11.46875 7.390625 7.390625 7.390625 C 3.308594 7.390625 0 4.082031 0 0 L 0 19.640625 C -5.421875 19.640625 -9.820313 15.242188 -9.820313 9.820313 C -9.820313 4.394531 -5.421875 0 0 0 L -4.160156 4.160156 C -5.308594 4.160156 -6.242188 3.230469 -6.242188 2.082031 C -6.242188 0.929688 -5.308594 0 -4.160156 0 L 18.667969 13.765625 L 13.339844 19.132813 L 23.332031 28.933594 C 15.34375 36.527344 2.710938 36.203125 -4.878906 28.214844 C -12.472656 20.222656 -12.152344 7.59375 -4.160156 0 Z M 23.332031 29.710938 "/>
<path style=" stroke:none;fill-rule:nonzero;fill:rgb(94.901961%,94.901961%,94.901961%);fill-opacity:1;" d="M 62.921875 22.984375 L 47.015625 7.078125 C 45.0625 7.164063 43.40625 5.648438 43.320313 3.695313 C 43.234375 1.738281 44.75 0.0859375 46.707031 0 L 23.761719 0 C 23.863281 -0.015625 23.96875 -0.015625 24.070313 0 L 7.078125 22.984375 C 0.730469 22.769531 -4.238281 17.449219 -4.023438 11.101563 C -3.808594 4.757813 1.507813 -0.214844 7.855469 0 L 7.855469 22.476563 C 1.648438 22.476563 -3.382813 17.445313 -3.382813 11.238281 C -3.382813 5.03125 1.648438 0 7.855469 0 L 23.761719 15.90625 C 19.367188 20.296875 12.246094 20.296875 7.855469 15.90625 C 3.464844 11.511719 3.464844 4.390625 7.855469 0 L 30.332031 0 C 30.332031 6.207031 25.300781 11.238281 19.09375 11.238281 C 12.886719 11.238281 7.855469 6.207031 7.855469 0 L 23.761719 -15.90625 C 28.152344 -11.511719 28.152344 -4.390625 23.761719 0 C 19.367188 4.390625 12.246094 4.390625 7.855469 0 L 7.855469 23.761719 C 1.292969 23.976563 -4.199219 18.832031 -4.414063 12.269531 C -4.628906 5.707031 0.515625 0.214844 7.078125 0 Z M 61.523438 44.179688 L 49.273438 31.929688 L 52.226563 28.933594 C 52.570313 28.933594 52.851563 29.210938 52.851563 29.554688 L 42.3125 29.285156 C 42.554688 29.253906 42.792969 29.355469 42.933594 29.554688 L 43.207031 40.09375 C 43.160156 39.828125 43.289063 39.558594 43.53125 39.433594 C 43.773438 39.308594 44.066406 39.355469 44.257813 39.546875 C 44.449219 39.738281 44.496094 40.035156 44.371094 40.273438 C 44.246094 40.515625 43.976563 40.648438 43.710938 40.601563 L 47.015625 37.332031 L 60.042969 50.167969 L 50.167969 60.042969 L 35 45.539063 L 38.109375 42.777344 C 38.453125 42.777344 38.734375 43.054688 38.734375 43.398438 L 27.222656 41.183594 C 27.835938 41.011719 28.46875 41.367188 28.640625 41.980469 C 28.8125 42.59375 28.457031 43.226563 27.84375 43.398438 L 28.117188 53.9375 C 28.136719 53.605469 28.417969 53.351563 28.75 53.355469 C 29.085938 53.363281 29.351563 53.632813 29.359375 53.964844 C 29.367188 54.296875 29.109375 54.578125 28.777344 54.601563 L 31.929688 51.371094 L 43.90625 63.351563 L 23.996094 63.351563 L 8.4375 47.792969 L 8.4375 23.996094 L 13.339844 19.132813 L 18.667969 13.765625 L 23.996094 8.4375 L 46.003906 8.4375 L 61.5625 23.996094 Z M 61.523438 44.179688 "/>
</g>
</svg>
