<?xml version="1.0" encoding="UTF-8"?>
<svg xmlns="http://www.w3.org/2000/svg" xmlns:xlink="http://www.w3.org/1999/xlink" width="70pt" height="70pt" viewBox="0 0 70 70" version="1.1">
<g id="surface1">
<path style=" stroke:none;fill-rule:nonzero;fill:rgb(0%,0%,0%);fill-opacity:1;" d="M 9.046875 44.761719 C -3.3125 47.261719 -15.359375 39.265625 -17.855469 26.90625 C -20.355469 14.542969 -12.359375 2.5 0 0 L 8.09375 -8.570313 L 31.90625 15.238281 L 23.332031 23.332031 C 25.363281 17.875 30.703125 14.363281 36.519531 14.664063 C 42.335938 14.964844 47.285156 19.007813 48.742188 24.648438 C 50.195313 30.289063 47.820313 36.222656 42.878906 39.300781 C 37.933594 42.378906 31.5625 41.890625 27.144531 38.09375 L 21.429688 37.144531 L 17.144531 34.761719 L 4.761719 46.667969 L 0 66.667969 L 11.90625 54.285156 C 18.007813 48.253906 27.335938 46.914063 34.890625 50.988281 C 42.445313 55.058594 46.457031 63.585938 44.773438 72.003906 C 43.089844 80.417969 36.109375 86.746094 27.570313 87.601563 C 19.027344 88.453125 10.933594 83.628906 7.617188 75.714844 Z M 25.714844 56.667969 L 30 55.714844 C 35.523438 61.894531 34.988281 71.382813 28.808594 76.90625 C 22.628906 82.425781 13.140625 81.894531 7.617188 75.714844 L 12.855469 70.953125 L -4.285156 53.808594 L -9.046875 59.046875 L -11.90625 62.855469 C -8.152344 66.199219 -6.355469 71.226563 -7.144531 76.191406 L -4.285156 80 L -0.476563 82.855469 Z M 58.09375 15.714844 C 60.488281 6.507813 69.167969 0.371094 78.644531 1.175781 C 88.121094 1.980469 95.636719 9.496094 96.445313 18.976563 C 97.25 28.453125 91.109375 37.128906 81.90625 39.523438 L 81.90625 44.285156 C 81.894531 49.761719 82.953125 53.347656 84.265625 52.292969 C 85.582031 51.242188 86.65625 45.949219 86.667969 40.476563 L 78.570313 49.046875 L 54.761719 25.238281 L 63.332031 17.144531 C 69.777344 10.699219 80.222656 10.699219 86.667969 17.144531 C 93.109375 23.585938 93.109375 34.03125 86.667969 40.476563 L 91.90625 40.476563 L 96.191406 42.855469 L 66.667969 0 L 70 3.332031 Z M 52.855469 33.808594 C 54.1875 28.355469 59.277344 24.675781 64.871094 25.125 C 70.464844 25.570313 74.90625 30.011719 75.351563 35.605469 C 75.800781 41.199219 72.117188 46.289063 66.667969 47.617188 L 63.808594 43.808594 L 60 41.429688 C 60.652344 43.527344 60.300781 45.8125 59.046875 47.617188 L 54.285156 47.617188 L 50.476563 50.476563 L 45.238281 55.238281 L 62.382813 72.382813 Z M 52.855469 33.808594 "/>
</g>
</svg>
