<?xml version="1.0" encoding="UTF-8"?>
<svg xmlns="http://www.w3.org/2000/svg" xmlns:xlink="http://www.w3.org/1999/xlink" width="70pt" height="70pt" viewBox="0 0 70 70" version="1.1">
<g id="surface1">
<path style=" stroke:none;fill-rule:nonzero;fill:rgb(58.039216%,58.039216%,58.039216%);fill-opacity:1;" d="M 1.945313 58.644531 C -14.25 59.179688 -27.8125 46.488281 -28.351563 30.292969 C -28.886719 14.101563 -16.195313 0.535156 0 0 L 4.511719 2.527344 L 14.390625 66.109375 C -3.867188 70.085938 -21.886719 58.507813 -25.859375 40.25 C -29.835938 21.992188 -18.257813 3.972656 0 0 L 2.566406 -4.355469 C 3.769531 -4.128906 4.5625 -2.972656 4.335938 -1.769531 C 4.109375 -0.566406 2.953125 0.226563 1.75 0 L -7.195313 -5.054688 C -5.796875 -4.90625 -4.789063 -3.652344 -4.9375 -2.253906 C -5.089844 -0.859375 -6.34375 0.148438 -7.738281 0 L -7.738281 14.972656 C -11.875 14.972656 -15.226563 11.621094 -15.226563 7.484375 C -15.226563 3.351563 -11.875 0 -7.738281 0 L 1.207031 -5.054688 C 2.601563 -2.585938 1.730469 0.546875 -0.738281 1.945313 C -3.207031 3.339844 -6.34375 2.46875 -7.738281 0 L -10.304688 -4.355469 C -9.101563 -5.0625 -7.554688 -4.664063 -6.84375 -3.460938 C -6.136719 -2.257813 -6.535156 -0.707031 -7.738281 0 L 6.921875 8.207031 L 2.253906 10.8125 C -0.730469 10.660156 -3.027344 8.117188 -2.878906 5.132813 C -2.726563 2.148438 -0.183594 -0.148438 2.800781 0 L 2.800781 47.289063 Z M 1.945313 58.644531 "/>
<path style=" stroke:none;fill-rule:nonzero;fill:rgb(63.921569%,63.921569%,63.921569%);fill-opacity:1;" d="M 8.320313 14.660156 L 8.554688 14.429688 L 17.5 9.371094 C 14.910156 14.203125 8.894531 16.023438 4.0625 13.4375 C -0.769531 10.847656 -2.589844 4.832031 0 0 L 15.167969 4.199219 C 14.007813 8.386719 9.671875 10.84375 5.484375 9.683594 C 1.296875 8.523438 -1.160156 4.1875 0 0 L 6.804688 8.207031 L 2.179688 10.8125 C 2.179688 10.8125 1.984375 10.8125 1.945313 11.042969 L 5.445313 13.027344 Z M 17.5 60.628906 L 8.554688 55.570313 C -6.789063 55.667969 -19.308594 43.308594 -19.40625 27.960938 C -19.503906 12.617188 -7.140625 0.0976563 8.207031 0 L 1.90625 3.890625 L 2.101563 3.890625 L 6.570313 6.417969 L 14.351563 10.734375 C 11.386719 12.429688 7.609375 11.402344 5.910156 8.4375 C 4.214844 5.476563 5.242188 1.695313 8.207031 0 L 10.773438 -4.355469 C 11.976563 -4.152344 12.785156 -3.011719 12.582031 -1.808594 C 12.375 -0.605469 11.234375 0.203125 10.035156 0 Z M 17.5 60.628906 "/>
<path style=" stroke:none;fill-rule:nonzero;fill:rgb(58.039216%,58.039216%,58.039216%);fill-opacity:1;" d="M 68.054688 58.644531 C 51.863281 58.492188 38.855469 45.246094 39.003906 29.050781 C 39.15625 12.855469 52.40625 -0.148438 68.601563 0 L 64.089844 2.527344 L 55.609375 66.109375 C 37.355469 66.175781 22.503906 51.429688 22.4375 33.171875 C 22.375 14.917969 37.121094 0.0625 55.378906 0 L 52.8125 -4.355469 C 54.015625 -5.0625 55.5625 -4.664063 56.273438 -3.460938 C 56.980469 -2.257813 56.582031 -0.707031 55.378906 0 L 64.320313 -5.054688 C 65.71875 -2.585938 64.847656 0.546875 62.378906 1.945313 C 59.90625 3.339844 56.773438 2.46875 55.378906 0 L 55.378906 14.972656 C 51.242188 15.121094 47.769531 11.894531 47.621094 7.757813 C 47.46875 3.625 50.699219 0.148438 54.832031 0 L 45.890625 -5.054688 C 47.285156 -4.828125 48.234375 -3.515625 48.007813 -2.121094 C 47.78125 -0.722656 46.46875 0.226563 45.070313 0 L 47.640625 -4.355469 C 48.839844 -3.648438 49.242188 -2.097656 48.535156 -0.894531 C 47.824219 0.308594 46.273438 0.707031 45.070313 0 L 52.539063 4.238281 L 57.207031 6.84375 C 55.316406 10.195313 51.066406 11.378906 47.714844 9.488281 C 44.367188 7.597656 43.183594 3.351563 45.070313 0 L 45.070313 47.367188 Z M 68.054688 58.644531 "/>
<path style=" stroke:none;fill-rule:nonzero;fill:rgb(63.921569%,63.921569%,63.921569%);fill-opacity:1;" d="M 61.679688 14.660156 L 61.445313 14.429688 L 52.5 9.371094 C 49.910156 9.597656 47.632813 7.683594 47.40625 5.09375 C 47.179688 2.507813 49.09375 0.226563 51.683594 0 L 54.25 -4.355469 C 55.453125 -3.648438 55.851563 -2.097656 55.144531 -0.894531 C 54.4375 0.308594 52.886719 0.707031 51.683594 0 L 59.1875 4.238281 L 63.816406 6.84375 L 64.050781 7.078125 L 60.550781 9.0625 Z M 52.5 60.628906 L 61.445313 55.570313 C 46.097656 58.269531 31.472656 48.011719 28.777344 32.667969 C 26.082031 17.320313 36.335938 2.695313 51.683594 0 L 57.984375 3.890625 L 53.511719 6.417969 L 45.734375 10.734375 C 42.769531 10.796875 40.3125 8.445313 40.25 5.484375 C 40.1875 2.519531 42.535156 0.0625 45.5 0 L 42.933594 -4.355469 C 44.136719 -5.0625 45.6875 -4.664063 46.394531 -3.460938 C 47.101563 -2.257813 46.703125 -0.707031 45.5 0 Z M 52.5 60.628906 "/>
<path style=" stroke:none;fill-rule:nonzero;fill:rgb(19.607843%,74.509804%,86.666667%);fill-opacity:1;" d="M 55.648438 23.0625 L 55.648438 46.9375 L 34.960938 58.957031 L 34.960938 35.039063 Z M 55.648438 23.0625 "/>
<path style=" stroke:none;fill-rule:nonzero;fill:rgb(61.176471%,92.156863%,100%);fill-opacity:1;" d="M 55.648438 23.0625 L 35 35.078125 L 14.3125 23.0625 L 35 11.042969 Z M 55.648438 23.0625 "/>
<path style=" stroke:none;fill-rule:nonzero;fill:rgb(31.372549%,90.196078%,100%);fill-opacity:1;" d="M 34.960938 35.078125 L 34.960938 58.957031 L 14.3125 46.9375 L 14.3125 23.0625 Z M 34.960938 35.078125 "/>
<path style=" stroke:none;fill-rule:nonzero;fill:rgb(61.176471%,92.156863%,100%);fill-opacity:1;" d="M 14.3125 46.9375 L 34.960938 35.039063 L 34.960938 58.957031 Z M 14.3125 46.9375 "/>
<path style=" stroke:none;fill-rule:nonzero;fill:rgb(31.372549%,90.196078%,100%);fill-opacity:1;" d="M 55.648438 46.9375 L 34.960938 35.039063 L 34.960938 58.957031 Z M 55.648438 46.9375 "/>
</g>
</svg>
