<?xml version="1.0" encoding="UTF-8"?>
<svg xmlns="http://www.w3.org/2000/svg" xmlns:xlink="http://www.w3.org/1999/xlink" width="70pt" height="70pt" viewBox="0 0 70 70" version="1.1">
<defs>
<linearGradient id="linear0" gradientUnits="userSpaceOnUse" x1="10.03" y1="6.02" x2="10.03" y2="1.92" gradientTransform="matrix(3.888889,0,0,3.888889,0,0)">
<stop offset="0" style="stop-color:rgb(9.803922%,54.117647%,70.196078%);stop-opacity:1;"/>
<stop offset="0.1" style="stop-color:rgb(10.980392%,57.647059%,73.333333%);stop-opacity:1;"/>
<stop offset="0.7" style="stop-color:rgb(17.254902%,76.078431%,89.803922%);stop-opacity:1;"/>
<stop offset="1" style="stop-color:rgb(19.607843%,83.137255%,96.078431%);stop-opacity:1;"/>
</linearGradient>
</defs>
<g id="surface1">
<path style=" stroke:none;fill-rule:nonzero;fill:rgb(9.803922%,54.117647%,70.196078%);fill-opacity:1;" d="M 54.445313 2.140625 L 7.777344 2.140625 C 8.023438 0.878906 9.136719 -0.0234375 10.421875 0 L 10.421875 11.976563 C 7.113281 11.976563 4.433594 9.296875 4.433594 5.988281 C 4.433594 2.679688 7.113281 0 10.421875 0 L 57.089844 0 C 57.089844 12.886719 46.640625 23.332031 33.753906 23.332031 C 20.867188 23.332031 10.421875 12.886719 10.421875 0 L 10.421875 4.785156 C 9.292969 5.359375 7.917969 5.0625 7.121094 4.078125 C 6.324219 3.09375 6.324219 1.6875 7.121094 0.703125 C 7.917969 -0.28125 9.292969 -0.574219 10.421875 0 Z M 54.445313 26.09375 L 7.777344 26.09375 C 0.570313 25.363281 -4.675781 18.929688 -3.945313 11.726563 C -3.21875 4.519531 3.214844 -0.730469 10.421875 0 L 10.421875 11.976563 C 7.113281 11.976563 4.433594 9.296875 4.433594 5.988281 C 4.433594 2.679688 7.113281 0 10.421875 0 L 57.089844 0 C 57.089844 12.886719 46.640625 23.332031 33.753906 23.332031 C 20.867188 23.332031 10.421875 12.886719 10.421875 0 L 10.421875 28.738281 C 2.484375 29.46875 -4.539063 23.628906 -5.269531 15.691406 C -6 7.753906 -0.160156 0.730469 7.777344 0 Z M 54.445313 26.09375 "/>
<path style=" stroke:none;fill-rule:nonzero;fill:rgb(19.607843%,74.509804%,86.666667%);fill-opacity:1;" d="M 35.582031 19.445313 L 39.472656 19.445313 L 39.472656 59.34375 L 35.582031 59.34375 Z M 35.582031 19.445313 "/>
<path style=" stroke:none;fill-rule:nonzero;fill:url(#linear0);" d="M 62.726563 7.464844 L 15.246094 7.464844 C 13.183594 6.855469 12.007813 4.6875 12.621094 2.625 C 13.230469 0.5625 15.398438 -0.613281 17.460938 0 L 17.460938 11.667969 C 14.238281 11.667969 11.628906 9.054688 11.628906 5.832031 C 11.628906 2.613281 14.238281 0 17.460938 0 L 64.945313 0 C 64.945313 13.113281 54.316406 23.742188 41.203125 23.742188 C 28.089844 23.742188 17.460938 13.113281 17.460938 0 L 17.460938 -11.667969 C 20.683594 -11.117188 22.851563 -8.0625 22.304688 -4.839844 C 21.753906 -1.621094 18.699219 0.546875 15.476563 0 Z M 62.726563 7.464844 "/>
<path style=" stroke:none;fill-rule:nonzero;fill:rgb(70.588235%,92.54902%,21.176471%);fill-opacity:1;" d="M 57.011719 9.683594 L 59.929688 9.683594 C 60.25 9.683594 60.511719 9.945313 60.511719 10.265625 L 60.511719 13.183594 C 60.511719 13.503906 60.25 13.765625 59.929688 13.765625 L 57.011719 13.765625 C 56.6875 13.765625 56.429688 13.503906 56.429688 13.183594 L 56.429688 10.265625 C 56.429688 9.945313 56.6875 9.683594 57.011719 9.683594 Z M 57.011719 9.683594 "/>
<path style=" stroke:none;fill-rule:nonzero;fill:rgb(70.588235%,92.54902%,21.176471%);fill-opacity:1;" d="M 57.011719 16.722656 L 59.929688 16.722656 C 60.25 16.722656 60.511719 16.984375 60.511719 17.304688 L 60.511719 20.222656 C 60.511719 20.542969 60.25 20.804688 59.929688 20.804688 L 57.011719 20.804688 C 56.6875 20.804688 56.429688 20.542969 56.429688 20.222656 L 56.429688 17.304688 C 56.429688 16.984375 56.6875 16.722656 57.011719 16.722656 Z M 57.011719 16.722656 "/>
<path style=" stroke:none;fill-rule:nonzero;fill:rgb(70.588235%,92.54902%,21.176471%);fill-opacity:1;" d="M 57.011719 33.832031 L 59.929688 33.832031 C 60.25 33.832031 60.511719 34.09375 60.511719 34.417969 L 60.511719 37.332031 C 60.511719 37.65625 60.25 37.917969 59.929688 37.917969 L 57.011719 37.917969 C 56.6875 37.917969 56.429688 37.65625 56.429688 37.332031 L 56.429688 34.417969 C 56.429688 34.09375 56.6875 33.832031 57.011719 33.832031 Z M 57.011719 33.832031 "/>
<path style=" stroke:none;fill-rule:nonzero;fill:rgb(70.588235%,92.54902%,21.176471%);fill-opacity:1;" d="M 57.011719 40.871094 L 59.929688 40.871094 C 60.25 40.871094 60.511719 41.132813 60.511719 41.457031 L 60.511719 44.371094 C 60.511719 44.695313 60.25 44.957031 59.929688 44.957031 L 57.011719 44.957031 C 56.6875 44.957031 56.429688 44.695313 56.429688 44.371094 L 56.429688 41.457031 C 56.429688 41.132813 56.6875 40.871094 57.011719 40.871094 Z M 57.011719 40.871094 "/>
</g>
</svg>
