<?xml version="1.0" encoding="UTF-8"?>
<svg xmlns="http://www.w3.org/2000/svg" xmlns:xlink="http://www.w3.org/1999/xlink" width="70pt" height="70pt" viewBox="0 0 70 70" version="1.1">
<g id="surface1">
<path style=" stroke:none;fill-rule:nonzero;fill:rgb(85.882353%,45.882353%,0%);fill-opacity:1;" d="M 64.75 57.75 L 39.8125 7.4375 C 37.625 3.5 32.375 3.5 30.1875 7.4375 L 5.25 56.875 C 3.0625 60.8125 5.25 65.625 9.1875 65.625 L 60.8125 65.625 C 64.75 66.5 66.9375 61.6875 64.75 57.75 Z M 64.75 57.75 "/>
<path style=" stroke:none;fill-rule:nonzero;fill:rgb(100%,100%,100%);fill-opacity:1;" d="M 35 4.375 C 36.75 4.375 38.9375 5.25 39.8125 7.4375 L 64.75 57.75 C 66.5 61.25 65.1875 65.625 61.6875 65.625 L 9.1875 65.625 C 5.25 65.625 3.0625 60.8125 5.25 56.875 L 30.1875 7.4375 C 31.0625 5.25 33.25 4.375 35 4.375 M 35 0 C 31.5 0 28 2.1875 26.25 5.25 L 1.3125 55.125 C -0.4375 58.625 -0.4375 62.5625 1.75 65.625 C 3.5 68.25 6.125 70 9.625 70 L 62.125 70 C 65.1875 70 67.375 68.6875 69.125 66.0625 C 70.875 63 70.875 59.0625 69.125 55.5625 L 43.75 5.25 C 42 2.1875 38.5 0 35 0 Z M 35 0 "/>
<path style=" stroke:none;fill-rule:nonzero;fill:rgb(100%,100%,100%);fill-opacity:1;" d="M 40.6875 54.25 C 40.6875 57.390625 38.140625 59.9375 35 59.9375 C 31.859375 59.9375 29.3125 57.390625 29.3125 54.25 C 29.3125 51.109375 31.859375 48.5625 35 48.5625 C 38.140625 48.5625 40.6875 51.109375 40.6875 54.25 Z M 40.6875 54.25 "/>
<path style=" stroke:none;fill-rule:nonzero;fill:rgb(100%,100%,100%);fill-opacity:1;" d="M 29.75 19.6875 L 31.5 42.875 L 38.5 42.875 L 40.25 19.6875 Z M 29.75 19.6875 "/>
</g>
</svg>
