<?xml version="1.0" encoding="UTF-8"?>
<svg xmlns="http://www.w3.org/2000/svg" xmlns:xlink="http://www.w3.org/1999/xlink" width="70pt" height="70pt" viewBox="0 0 70 70" version="1.1">
<defs>
<linearGradient id="linear0" gradientUnits="userSpaceOnUse" x1="8.99" y1="16.61" x2="8.99" y2="-1.27" gradientTransform="matrix(3.888889,0,0,3.888889,0,0)">
<stop offset="0" style="stop-color:rgb(0%,47.058824%,83.137255%);stop-opacity:1;"/>
<stop offset="0.16" style="stop-color:rgb(7.45098%,50.196078%,85.490196%);stop-opacity:1;"/>
<stop offset="0.53" style="stop-color:rgb(23.529412%,56.862745%,89.803922%);stop-opacity:1;"/>
<stop offset="0.82" style="stop-color:rgb(33.333333%,61.176471%,92.54902%);stop-opacity:1;"/>
<stop offset="1" style="stop-color:rgb(36.862745%,62.745098%,93.72549%);stop-opacity:1;"/>
</linearGradient>
</defs>
<g id="surface1">
<path style=" stroke:none;fill-rule:nonzero;fill:url(#linear0);" d="M 70 41.027344 C 71.242188 45.828125 70.1875 50.9375 67.140625 54.851563 C 64.09375 58.765625 59.402344 61.042969 54.445313 61.015625 L 74.898438 81.472656 L 108.539063 81.472656 C 108.539063 72.183594 101.007813 64.652344 91.71875 64.652344 C 82.429688 64.652344 74.898438 72.183594 74.898438 81.472656 Z M 70 41.027344 "/>
<path style=" stroke:none;fill-rule:nonzero;fill:rgb(89.019608%,89.019608%,89.019608%);fill-opacity:1;" d="M 23.140625 37.527344 C 23.140625 39.050781 21.902344 40.289063 20.378906 40.289063 C 18.851563 40.289063 17.617188 39.050781 17.617188 37.527344 C 17.617188 36.003906 18.851563 34.765625 20.378906 34.765625 C 21.902344 34.765625 23.140625 36.003906 23.140625 37.527344 Z M 23.140625 37.527344 "/>
<path style=" stroke:none;fill-rule:nonzero;fill:rgb(100%,100%,100%);fill-opacity:1;" d="M 30.101563 38.578125 L 30.101563 36.359375 L 29.789063 36.359375 L 27.417969 35.582031 L 26.792969 34.066406 L 28 31.5 L 26.445313 29.945313 L 26.132813 29.945313 L 23.917969 31.109375 L 22.398438 30.488281 L 21.429688 27.804688 L 19.210938 27.804688 L 19.210938 28.117188 L 18.433594 30.488281 L 16.800781 31.109375 L 14.273438 29.90625 L 12.714844 31.460938 L 12.714844 31.773438 L 13.84375 33.988281 L 13.222656 35.503906 L 10.5 36.476563 L 10.5 38.890625 L 10.8125 38.890625 L 13.183594 39.667969 L 13.804688 41.183594 L 12.601563 43.75 L 14.15625 45.304688 L 14.464844 45.304688 L 16.683594 44.179688 L 18.199219 44.800781 L 19.171875 47.484375 L 21.390625 47.484375 L 21.390625 47.171875 L 22.167969 44.800781 L 23.683594 44.179688 L 26.25 45.382813 L 27.804688 43.828125 L 27.804688 43.515625 L 26.679688 41.300781 L 27.300781 39.785156 Z M 20.378906 41.804688 C 20.363281 40.070313 21.398438 38.496094 23 37.820313 C 24.601563 37.148438 26.453125 37.511719 27.679688 38.742188 C 28.910156 39.96875 29.273438 41.820313 28.601563 43.421875 C 27.929688 45.023438 26.355469 46.058594 24.617188 46.042969 Z M 20.378906 41.804688 "/>
<path style=" stroke:none;fill-rule:nonzero;fill:rgb(89.019608%,89.019608%,89.019608%);fill-opacity:1;" d="M 42.15625 25.628906 C 42.15625 27.433594 40.691406 28.894531 38.890625 28.894531 C 37.085938 28.894531 35.621094 27.433594 35.621094 25.628906 C 35.621094 23.824219 37.085938 22.359375 38.890625 22.359375 C 40.691406 22.359375 42.15625 23.824219 42.15625 25.628906 Z M 42.15625 25.628906 "/>
<path style=" stroke:none;fill-rule:nonzero;fill:rgb(100%,100%,100%);fill-opacity:1;" d="M 50.554688 26.871094 L 50.554688 24.226563 L 50.207031 24.226563 L 47.328125 23.332031 L 46.667969 21.351563 L 48.105469 18.238281 L 46.238281 16.371094 L 45.890625 16.371094 L 43.207031 17.734375 L 41.417969 16.996094 L 40.25 13.765625 L 37.488281 13.765625 L 37.488281 14.15625 L 36.554688 16.996094 L 34.726563 17.734375 L 31.695313 16.292969 L 29.828125 18.160156 L 30.023438 18.511719 L 31.109375 21.390625 L 30.488281 23.332031 L 27.222656 24.382813 L 27.222656 27.222656 L 27.609375 27.222656 L 30.449219 28.15625 L 31.109375 29.90625 L 29.671875 33.015625 L 31.617188 35 L 32.003906 34.804688 L 34.648438 33.445313 L 36.476563 34.183594 L 37.644531 37.410156 L 40.289063 37.410156 L 40.289063 37.023438 L 41.222656 34.183594 L 43.050781 33.445313 L 46.121094 34.882813 L 47.988281 33.015625 L 47.792969 32.667969 L 46.667969 29.867188 L 47.40625 28.039063 Z M 38.890625 30.761719 C 30.394531 41.5 14.804688 43.320313 4.0625 34.824219 C -6.675781 26.332031 -8.496094 10.738281 0 0 Z M 38.890625 30.761719 "/>
</g>
</svg>
