<?xml version="1.0" encoding="UTF-8"?>
<svg xmlns="http://www.w3.org/2000/svg" xmlns:xlink="http://www.w3.org/1999/xlink" width="70pt" height="70pt" viewBox="0 0 70 70" version="1.1">
<defs>
<linearGradient id="linear0" gradientUnits="userSpaceOnUse" x1="11.78" y1="0.5" x2="11.78" y2="11.83" gradientTransform="matrix(3.888889,0,0,3.888889,0,0)">
<stop offset="0" style="stop-color:rgb(19.607843%,83.137255%,96.078431%);stop-opacity:1;"/>
<stop offset="0.23" style="stop-color:rgb(19.215686%,81.568627%,94.509804%);stop-opacity:1;"/>
<stop offset="0.46" style="stop-color:rgb(17.254902%,76.470588%,90.196078%);stop-opacity:1;"/>
<stop offset="0.7" style="stop-color:rgb(14.509804%,68.627451%,83.137255%);stop-opacity:1;"/>
<stop offset="0.94" style="stop-color:rgb(10.980392%,57.254902%,72.941176%);stop-opacity:1;"/>
<stop offset="1" style="stop-color:rgb(9.803922%,54.117647%,70.196078%);stop-opacity:1;"/>
</linearGradient>
</defs>
<g id="surface1">
<path style=" stroke:none;fill-rule:nonzero;fill:rgb(0%,35.686275%,63.137255%);fill-opacity:1;" d="M 24.1875 46.003906 L 2.605469 46.003906 L 2.605469 26.171875 C -4.621094 26.890625 -11.0625 21.617188 -11.785156 14.390625 C -12.503906 7.160156 -7.226563 0.71875 0 0 L 19.445313 0 Z M 45.8125 46.003906 L 24.1875 46.003906 L 24.1875 68.054688 L 43.632813 68.054688 C 24.839844 80.105469 -0.160156 74.636719 -12.210938 55.84375 C -24.261719 37.050781 -18.792969 12.050781 0 0 Z M 45.8125 46.003906 "/>
<path style=" stroke:none;fill-rule:nonzero;fill:rgb(0%,47.058824%,83.137255%);fill-opacity:1;" d="M 45.8125 46.003906 L 24.1875 46.003906 L 24.1875 23.996094 L 45.8125 23.996094 Z M 24.1875 46.003906 L 2.605469 46.003906 L 2.605469 65.839844 C -15.574219 66.558594 -30.898438 52.402344 -31.617188 34.222656 C -32.335938 16.042969 -18.179688 0.71875 0 0 L 19.445313 0 Z M 24.1875 46.003906 "/>
<path style=" stroke:none;fill-rule:nonzero;fill:rgb(0%,47.058824%,83.137255%);fill-opacity:1;" d="M 45.8125 23.996094 L 24.1875 23.996094 L 24.1875 4.160156 C 23.039063 10.839844 16.695313 15.324219 10.015625 14.175781 C 3.335938 13.027344 -1.148438 6.679688 0 0 L 19.445313 0 Z M 67.394531 23.996094 L 45.8125 23.996094 L 45.8125 46.003906 L 65.605469 46.003906 C 52.902344 64.121094 27.917969 68.507813 9.800781 55.804688 C -8.316406 43.101563 -12.703125 18.117188 0 0 Z M 67.394531 23.996094 "/>
<path style=" stroke:none;fill-rule:nonzero;fill:url(#linear0);" d="M 67.394531 23.996094 L 45.8125 23.996094 L 45.8125 1.945313 L 65.605469 1.945313 C 65.070313 20.0625 49.945313 34.3125 31.832031 33.773438 C 13.714844 33.238281 -0.535156 18.117188 0 0 Z M 45.8125 23.996094 L 24.1875 23.996094 L 24.1875 43.828125 C 12.085938 50.507813 -3.140625 46.109375 -9.820313 34.007813 C -16.5 21.90625 -12.101563 6.679688 0 0 L 19.445313 0 Z M 45.8125 23.996094 "/>
</g>
</svg>
