<?xml version="1.0" encoding="UTF-8"?>
<svg xmlns="http://www.w3.org/2000/svg" xmlns:xlink="http://www.w3.org/1999/xlink" width="70pt" height="70pt" viewBox="0 0 70 70" version="1.1">
<defs>
<linearGradient id="linear0" gradientUnits="userSpaceOnUse" x1="5.993" y1="0.381" x2="5.993" y2="15.291" gradientTransform="matrix(3.888889,0,0,3.888889,0,0)">
<stop offset="0" style="stop-color:rgb(70.196078%,69.803922%,70.196078%);stop-opacity:1;"/>
<stop offset="0.375" style="stop-color:rgb(68.627451%,68.235294%,68.627451%);stop-opacity:1;"/>
<stop offset="0.763" style="stop-color:rgb(63.529412%,63.529412%,63.529412%);stop-opacity:1;"/>
<stop offset="1" style="stop-color:rgb(59.215686%,59.215686%,59.215686%);stop-opacity:1;"/>
</linearGradient>
<linearGradient id="linear1" gradientUnits="userSpaceOnUse" x1="12.098" y1="11.148" x2="12.098" y2="17.619" gradientTransform="matrix(3.888889,0,0,3.888889,0,0)">
<stop offset="0" style="stop-color:rgb(36.862745%,62.745098%,93.72549%);stop-opacity:1;"/>
<stop offset="1" style="stop-color:rgb(0%,47.058824%,83.137255%);stop-opacity:1;"/>
</linearGradient>
<linearGradient id="linear2" gradientUnits="userSpaceOnUse" x1="12.109" y1="9.062" x2="12.109" y2="11.148" gradientTransform="matrix(3.888889,0,0,3.888889,0,0)">
<stop offset="0" style="stop-color:rgb(23.137255%,23.137255%,23.137255%);stop-opacity:1;"/>
<stop offset="0.389" style="stop-color:rgb(21.568627%,21.568627%,21.568627%);stop-opacity:1;"/>
<stop offset="0.791" style="stop-color:rgb(16.470588%,16.470588%,16.470588%);stop-opacity:1;"/>
<stop offset="0.997" style="stop-color:rgb(12.941176%,12.941176%,12.941176%);stop-opacity:1;"/>
</linearGradient>
</defs>
<g id="surface1">
<path style=" stroke:none;fill-rule:nonzero;fill:url(#linear0);" d="M 42.128906 57.496094 C 26.25 56.953125 13.820313 43.640625 14.363281 27.765625 C 14.90625 11.886719 28.21875 -0.542969 44.097656 0 L 6.65625 0 C 7.5 0.449219 7.925781 1.414063 7.691406 2.339844 C 7.460938 3.265625 6.628906 3.914063 5.675781 3.914063 C 4.71875 3.914063 3.886719 3.265625 3.65625 2.339844 C 3.421875 1.414063 3.851563 0.449219 4.691406 0 L 4.691406 3.449219 C 3.824219 4.035156 2.65625 3.882813 1.964844 3.097656 C 1.273438 2.3125 1.273438 1.136719 1.964844 0.351563 C 2.65625 -0.433594 3.824219 -0.585938 4.691406 0 L 37.988281 0 C 37.988281 9.195313 30.53125 16.648438 21.339844 16.648438 C 12.144531 16.648438 4.691406 9.195313 4.691406 0 Z M 42.128906 57.496094 "/>
<path style=" stroke:none;fill-rule:nonzero;fill:rgb(0%,18.823529%,40.392157%);fill-opacity:1;" d="M 10.019531 26.269531 C 2.765625 29.035156 -5.359375 25.398438 -8.125 18.144531 C -10.890625 10.890625 -7.253906 2.765625 0 0 L 18.734375 0 C 18.734375 5.171875 14.539063 9.367188 9.367188 9.367188 C 4.195313 9.367188 0 5.171875 0 0 C -1.648438 -1.011719 -2.421875 -2.992188 -1.898438 -4.851563 C -1.375 -6.710938 0.324219 -7.996094 2.253906 -7.996094 C 4.1875 -7.996094 5.886719 -6.710938 6.410156 -4.851563 C 6.933594 -2.992188 6.160156 -1.011719 4.511719 0 L -14.234375 0 C -12.585938 1.011719 -11.808594 2.992188 -12.335938 4.851563 C -12.859375 6.710938 -14.554688 7.996094 -16.488281 7.996094 C -18.421875 7.996094 -20.117188 6.710938 -20.644531 4.851563 C -21.167969 2.992188 -20.390625 1.011719 -18.746094 0 Z M 10.019531 12.875 C 6.460938 20.820313 -2.859375 24.375 -10.800781 20.820313 C -18.742188 17.261719 -22.300781 7.941406 -18.746094 0 L -0.0117188 0 C -0.0117188 5.171875 -4.207031 9.367188 -9.378906 9.367188 C -14.550781 9.367188 -18.746094 5.171875 -18.746094 0 C -20.390625 -1.011719 -21.167969 -2.992188 -20.644531 -4.851563 C -20.117188 -6.710938 -18.421875 -7.996094 -16.488281 -7.996094 C -14.554688 -7.996094 -12.859375 -6.710938 -12.335938 -4.851563 C -11.808594 -2.992188 -12.585938 -1.011719 -14.234375 0 L -32.976563 0 C -31.328125 1.011719 -30.554688 2.992188 -31.078125 4.851563 C -31.601563 6.710938 -33.300781 7.996094 -35.234375 7.996094 C -37.167969 7.996094 -38.863281 6.710938 -39.386719 4.851563 C -39.914063 2.992188 -39.136719 1.011719 -37.488281 0 Z M 10.019531 12.875 "/>
<path style=" stroke:none;fill-rule:nonzero;fill:rgb(31.372549%,90.196078%,100%);fill-opacity:1;" d="M 18.308594 12.875 C 18.308594 14.546875 16.953125 15.902344 15.285156 15.902344 C 13.613281 15.902344 12.257813 14.546875 12.257813 12.875 C 12.257813 11.207031 13.613281 9.851563 15.285156 9.851563 C 16.953125 9.851563 18.308594 11.207031 18.308594 12.875 Z M 18.308594 12.875 "/>
<path style=" stroke:none;fill-rule:nonzero;fill:rgb(31.372549%,90.196078%,100%);fill-opacity:1;" d="M 18.308594 26.269531 C 18.308594 27.941406 16.953125 29.296875 15.285156 29.296875 C 13.613281 29.296875 12.257813 27.941406 12.257813 26.269531 C 12.257813 24.597656 13.613281 23.242188 15.285156 23.242188 C 16.953125 23.242188 18.308594 24.597656 18.308594 26.269531 Z M 18.308594 26.269531 "/>
<path style=" stroke:none;fill-rule:nonzero;fill:url(#linear1);" d="M 28.644531 68.519531 L 28.644531 45.730469 C 16.019531 53.640625 -0.632813 49.816406 -8.542969 37.1875 C -16.453125 24.558594 -12.628906 7.910156 0 0 L 32.042969 0 C 32.042969 8.847656 24.871094 16.023438 16.023438 16.023438 C 7.171875 16.023438 0 8.847656 0 0 L 0 22.789063 Z M 28.644531 68.519531 "/>
<path style=" stroke:none;fill-rule:nonzero;fill:url(#linear2);" d="M 57.414063 43.351563 L 54.632813 43.351563 L 54.632813 39.339844 C 43.769531 39.703125 34.667969 31.191406 34.304688 20.328125 C 33.941406 9.464844 42.453125 0.363281 53.316406 0 L 40.871094 0 C 41.277344 -0.238281 41.78125 -0.238281 42.1875 0 L 42.1875 4.011719 L 39.386719 4.011719 L 39.386719 0 C 37.542969 -0.679688 36.449219 -2.582031 36.792969 -4.519531 C 37.136719 -6.453125 38.820313 -7.863281 40.785156 -7.863281 C 42.753906 -7.863281 44.433594 -6.453125 44.78125 -4.519531 C 45.125 -2.582031 44.03125 -0.679688 42.1875 0 L 54.632813 0 C 54.632813 3.4375 51.84375 6.222656 48.410156 6.222656 C 44.972656 6.222656 42.1875 3.4375 42.1875 0 Z M 57.414063 43.351563 "/>
<path style=" stroke:none;fill-rule:nonzero;fill:rgb(100%,100%,100%);fill-opacity:1;" d="M 65.515625 52.132813 L 28.644531 52.132813 L 28.644531 53.90625 L 43.3125 53.90625 L 43.3125 56.398438 C 27.738281 68.355469 5.417969 65.425781 -6.542969 49.855469 C -18.503906 34.28125 -15.574219 11.960938 0 0 L 5.863281 0 C 5.863281 1.621094 4.550781 2.933594 2.933594 2.933594 C 1.3125 2.933594 0 1.621094 0 0 L 0 -2.488281 L 14.210938 -2.488281 Z M 65.515625 52.132813 "/>
</g>
</svg>
