<?xml version="1.0" encoding="UTF-8"?>
<svg xmlns="http://www.w3.org/2000/svg" xmlns:xlink="http://www.w3.org/1999/xlink" width="70pt" height="70pt" viewBox="0 0 70 70" version="1.1">
<defs>
<linearGradient id="linear0" gradientUnits="userSpaceOnUse" x1="8.56" y1="17.59" x2="8.56" y2="0.59" gradientTransform="matrix(3.888889,0,0,3.888889,0,0)">
<stop offset="0" style="stop-color:rgb(9.803922%,53.333333%,85.098039%);stop-opacity:1;"/>
<stop offset="0.22" style="stop-color:rgb(12.941176%,55.294118%,86.27451%);stop-opacity:1;"/>
<stop offset="0.56" style="stop-color:rgb(21.568627%,61.176471%,89.803922%);stop-opacity:1;"/>
<stop offset="0.9" style="stop-color:rgb(32.941176%,68.235294%,94.117647%);stop-opacity:1;"/>
</linearGradient>
</defs>
<g id="surface1">
<path style=" stroke:none;fill-rule:nonzero;fill:url(#linear0);" d="M 53.550781 61.484375 C 36.570313 76.269531 10.820313 74.496094 -3.964844 57.515625 C -18.753906 40.539063 -16.976563 14.789063 0 0 L 0.351563 -0.234375 C 15.570313 -10.242188 36.015625 -6.050781 46.074219 9.136719 C 56.128906 24.328125 52.003906 44.785156 36.847656 54.890625 C 21.691406 64.996094 1.21875 60.933594 -8.933594 45.808594 C -19.085938 30.6875 -15.089844 10.199219 0 0 "/>
<path style=" stroke:none;fill-rule:nonzero;fill:rgb(100%,100%,100%);fill-opacity:1;" d="M 33.289063 23.996094 C 34.839844 22.351563 37.324219 22.007813 39.265625 23.167969 C 41.203125 24.324219 42.082031 26.671875 41.371094 28.816406 C 40.664063 30.964844 38.5625 32.328125 36.3125 32.105469 C 34.066406 31.882813 32.277344 30.125 32.003906 27.882813 L 35.894531 31.773438 C 35.457031 29.621094 36.484375 27.4375 38.417969 26.398438 C 40.351563 25.359375 42.738281 25.710938 44.292969 27.261719 C 45.84375 28.816406 46.199219 31.203125 45.160156 33.136719 C 44.121094 35.070313 41.9375 36.097656 39.785156 35.660156 L 39.785156 39.550781 C 40.160156 41.964844 41.335938 43.148438 42.410156 42.191406 C 43.484375 41.238281 44.046875 38.503906 43.671875 36.089844 Z M 35.777344 55.300781 L 30.683594 55.300781 C 25.378906 55.75 20.710938 51.816406 20.261719 46.511719 C 19.808594 41.207031 23.746094 36.539063 29.050781 36.089844 L 29.050781 29.90625 C 30.757813 29.90625 32.140625 31.289063 32.140625 32.996094 C 32.140625 34.703125 30.757813 36.089844 29.050781 36.089844 L 35.777344 36.089844 C 35.777344 37.945313 34.273438 39.453125 32.414063 39.453125 C 30.554688 39.453125 29.050781 37.945313 29.050781 36.089844 L 29.050781 59.851563 C 22.488281 59.398438 17.535156 53.714844 17.984375 47.152344 C 18.4375 40.589844 24.121094 35.636719 30.683594 36.089844 Z M 35.777344 55.300781 "/>
</g>
</svg>
