<?xml version="1.0" encoding="UTF-8"?>
<svg xmlns="http://www.w3.org/2000/svg" xmlns:xlink="http://www.w3.org/1999/xlink" width="70pt" height="70pt" viewBox="0 0 70 70" version="1.1">
<defs>
<linearGradient id="linear0" gradientUnits="userSpaceOnUse" x1="13.25" y1="12.83" x2="8.62" y2="4.06" gradientTransform="matrix(3.888889,0,0,3.888889,0,0)">
<stop offset="0" style="stop-color:rgb(9.803922%,53.333333%,85.098039%);stop-opacity:1;"/>
<stop offset="0.9" style="stop-color:rgb(32.941176%,68.235294%,94.117647%);stop-opacity:1;"/>
</linearGradient>
<filter id="alpha" filterUnits="objectBoundingBox" x="0%" y="0%" width="100%" height="100%">
  <feColorMatrix type="matrix" in="SourceGraphic" values="0 0 0 0 1 0 0 0 0 1 0 0 0 0 1 0 0 0 1 0"/>
</filter>
<mask id="mask0">
  <g filter="url(#alpha)">
<rect x="0" y="0" width="70" height="70" style="fill:rgb(0%,0%,0%);fill-opacity:0.8;stroke:none;"/>
  </g>
</mask>
<clipPath id="clip1">
  <rect x="0" y="0" width="70" height="70"/>
</clipPath>
<g id="surface5" clip-path="url(#clip1)">
<path style=" stroke:none;fill-rule:nonzero;fill:rgb(100%,100%,100%);fill-opacity:1;" d="M 60.042969 52.035156 C 45.675781 52.269531 33.835938 40.8125 33.601563 26.445313 C 33.363281 12.074219 44.820313 0.234375 59.1875 0 L 62.066406 7.503906 L 64.90625 0.0390625 C 62.023438 -0.0429688 59.71875 -2.390625 59.691406 -5.273438 C 59.664063 -8.160156 61.921875 -10.550781 64.804688 -10.6875 C 67.683594 -10.824219 70.160156 -8.660156 70.40625 -5.785156 C 70.652344 -2.910156 68.585938 -0.355469 65.722656 0 Z M 60.042969 52.035156 "/>
</g>
<mask id="mask1">
  <g filter="url(#alpha)">
<rect x="0" y="0" width="70" height="70" style="fill:rgb(0%,0%,0%);fill-opacity:0.8;stroke:none;"/>
  </g>
</mask>
<clipPath id="clip2">
  <rect x="0" y="0" width="70" height="70"/>
</clipPath>
<g id="surface8" clip-path="url(#clip2)">
<path style=" stroke:none;fill-rule:nonzero;fill:rgb(100%,100%,100%);fill-opacity:1;" d="M 45.5 52.109375 C 31.109375 52.464844 19.15625 41.085938 18.804688 26.695313 C 18.449219 12.308594 29.828125 0.355469 44.214844 0 L 48.496094 11.394531 L 52.773438 0.234375 C 48.628906 0.855469 44.734375 -1.914063 43.96875 -6.035156 C 43.199219 -10.152344 45.835938 -14.140625 49.925781 -15.050781 C 54.019531 -15.960938 58.09375 -13.464844 59.144531 -9.40625 C 60.195313 -5.347656 57.839844 -1.191406 53.820313 0 Z M 45.5 52.109375 "/>
</g>
</defs>
<g id="surface1">
<path style=" stroke:none;fill-rule:nonzero;fill:rgb(31.372549%,90.196078%,100%);fill-opacity:1;" d="M 3.929688 38.929688 L 34.726563 58.878906 L 66.070313 38.851563 L 70 43.398438 L 34.726563 66.148438 L 0 43.4375 Z M 3.929688 38.929688 "/>
<path style=" stroke:none;fill-rule:nonzero;fill:rgb(100%,100%,100%);fill-opacity:1;" d="M 6.261719 36.359375 L 34.726563 2.410156 L 63.777344 36.398438 L 34.726563 54.753906 Z M 6.261719 36.359375 "/>
<path style=" stroke:none;fill-rule:nonzero;fill:rgb(31.372549%,90.196078%,100%);fill-opacity:1;" d="M 34.726563 2.410156 L 34.726563 54.753906 L 6.261719 36.359375 Z M 34.726563 2.410156 "/>
<path style=" stroke:none;fill-rule:nonzero;fill:url(#linear0);" d="M 34.726563 2.410156 L 34.726563 54.753906 L 63.777344 36.398438 Z M 34.726563 2.410156 "/>
<path style=" stroke:none;fill-rule:nonzero;fill:rgb(32.54902%,69.411765%,87.843137%);fill-opacity:1;" d="M 34.726563 29.4375 L 63.777344 36.398438 L 34.726563 54.753906 Z M 34.726563 29.4375 "/>
<path style=" stroke:none;fill-rule:nonzero;fill:rgb(61.176471%,92.156863%,100%);fill-opacity:1;" d="M 34.726563 54.753906 L 6.261719 36.359375 L 34.726563 29.4375 Z M 34.726563 54.753906 "/>
<path style=" stroke:none;fill-rule:nonzero;fill:rgb(36.862745%,62.745098%,93.72549%);fill-opacity:1;" d="M 34.726563 66.148438 L 70 43.398438 L 66.070313 38.851563 L 34.726563 58.878906 Z M 34.726563 66.148438 "/>
<path style=" stroke:none;fill-rule:nonzero;fill:rgb(46.666667%,22.745098%,86.27451%);fill-opacity:1;" d="M 67.859375 62.222656 C 70.546875 59.539063 74.898438 59.539063 77.582031 62.222656 C 80.269531 64.90625 80.269531 69.257813 77.582031 71.945313 C 71.632813 71.945313 68.5625 75.640625 67.976563 81.667969 C 65.292969 77.886719 66.179688 72.644531 69.960938 69.960938 C 73.742188 67.277344 78.980469 68.164063 81.667969 71.945313 L 97.570313 71.945313 Z M 67.859375 62.222656 "/>
<use xlink:href="#surface5" mask="url(#mask0)"/>
<path style=" stroke:none;fill-rule:nonzero;fill:rgb(46.666667%,22.745098%,86.27451%);fill-opacity:1;" d="M 65.410156 46.667969 C 65.410156 49.628906 63.007813 52.035156 60.042969 52.035156 C 57.082031 52.035156 54.679688 49.628906 54.679688 46.667969 C 54.679688 43.703125 57.082031 41.300781 60.042969 41.300781 C 63.007813 41.300781 65.410156 43.703125 65.410156 46.667969 Z M 65.410156 46.667969 "/>
<path style=" stroke:none;fill-rule:nonzero;fill:rgb(65.098039%,47.843137%,95.686275%);fill-opacity:1;" d="M 57.089844 67.589844 C 38.425781 83.355469 10.515625 81.003906 -5.25 62.339844 C -21.015625 43.675781 -18.664063 15.765625 0 0 L 0 -0.3125 C -1.011719 -8.285156 -5.5625 -14.816406 -14.273438 -14.816406 C -22.984375 -14.816406 31.964844 55.726563 31.109375 64.75 C 13.230469 77.433594 -11.546875 73.21875 -24.226563 55.339844 C -36.910156 37.457031 -32.695313 12.683594 -14.816406 0 L 8.945313 0 Z M 57.089844 67.589844 "/>
<use xlink:href="#surface8" mask="url(#mask1)"/>
<path style=" stroke:none;fill-rule:nonzero;fill:rgb(65.098039%,47.843137%,95.686275%);fill-opacity:1;" d="M 53.472656 44.101563 C 53.472656 48.523438 49.886719 52.109375 45.460938 52.109375 C 41.035156 52.109375 37.449219 48.523438 37.449219 44.101563 C 37.449219 39.675781 41.035156 36.089844 45.460938 36.089844 C 49.886719 36.089844 53.472656 39.675781 53.472656 44.101563 Z M 53.472656 44.101563 "/>
</g>
</svg>
