<?xml version="1.0" encoding="UTF-8"?>
<svg xmlns="http://www.w3.org/2000/svg" xmlns:xlink="http://www.w3.org/1999/xlink" width="70pt" height="70pt" viewBox="0 0 70 70" version="1.1">
<defs>
<linearGradient id="linear0" gradientUnits="userSpaceOnUse" x1="9" y1="11.06" x2="9" y2="7.53" gradientTransform="matrix(3.888889,0,0,3.888889,0,0)">
<stop offset="0" style="stop-color:rgb(88.627451%,40.392157%,3.137255%);stop-opacity:1;"/>
<stop offset="1" style="stop-color:rgb(96.862745%,55.294118%,11.764706%);stop-opacity:1;"/>
</linearGradient>
<linearGradient id="linear1" gradientUnits="userSpaceOnUse" x1="9" y1="17.7" x2="9" y2="0.3" gradientTransform="matrix(3.888889,0,0,3.888889,0,0)">
<stop offset="0" style="stop-color:rgb(88.627451%,40.392157%,3.137255%);stop-opacity:1;"/>
<stop offset="0.005" style="stop-color:rgb(88.627451%,40.784314%,3.137255%);stop-opacity:1;"/>
<stop offset="0.117" style="stop-color:rgb(92.54902%,47.45098%,7.058824%);stop-opacity:1;"/>
<stop offset="0.257" style="stop-color:rgb(94.901961%,51.764706%,9.803922%);stop-opacity:1;"/>
<stop offset="0.454" style="stop-color:rgb(96.470588%,54.509804%,11.372549%);stop-opacity:1;"/>
<stop offset="1" style="stop-color:rgb(96.862745%,55.294118%,11.764706%);stop-opacity:1;"/>
</linearGradient>
</defs>
<g id="surface1">
<path style=" stroke:none;fill-rule:nonzero;fill:rgb(88.627451%,47.45098%,3.137255%);fill-opacity:1;" d="M 35 37.722656 L 25.277344 47.445313 C 25.277344 46.667969 24.5 45.890625 24.109375 45.109375 C 23.722656 44.332031 23.332031 44.332031 22.945313 44.332031 L 32.277344 35 L 22.167969 24.890625 C 15.292969 18.554688 14.859375 7.84375 21.195313 0.972656 C 27.53125 -5.902344 38.238281 -6.335938 45.109375 0 L 35 32.277344 L 45.109375 22.167969 C 45.5 22.945313 45.5 23.332031 46.277344 23.722656 C 39.726563 29.949219 29.367188 29.691406 23.140625 23.140625 C 16.910156 16.589844 17.171875 6.230469 23.722656 0 L 37.722656 35 L 47.445313 44.722656 C 35.09375 43.863281 25.78125 33.15625 26.640625 20.804688 C 27.496094 8.457031 38.207031 -0.859375 50.554688 0 Z M 21.390625 52.890625 L 29.945313 61.445313 L 29.945313 61.054688 C 13.085938 55.363281 4.03125 37.082031 9.722656 20.222656 C 15.414063 3.363281 33.695313 -5.691406 50.554688 0 L 43.554688 -7 C 44.847656 -8.324219 46.867188 -8.625 48.488281 -7.730469 C 50.113281 -6.839844 50.941406 -4.976563 50.515625 -3.171875 C 50.089844 -1.371094 48.515625 -0.0742188 46.667969 0 Z M 8.554688 39.667969 L 16.722656 48.222656 C 3.40625 39.953125 -0.6875 22.457031 7.582031 9.140625 C 15.851563 -4.175781 33.351563 -8.269531 46.667969 0 L 12.832031 37.722656 C 2.417969 37.183594 -5.59375 28.304688 -5.054688 17.890625 C -4.519531 7.472656 4.359375 -0.535156 14.777344 0 Z M 16.722656 21.777344 L 9.722656 28.777344 C 1.777344 27.382813 -3.535156 19.808594 -2.140625 11.859375 C -0.742188 3.914063 6.832031 -1.394531 14.777344 0 L 21.390625 -6.609375 L 19.054688 -7.777344 C 18.667969 -8.554688 18.277344 -8.945313 17.890625 -9.722656 Z M 29.945313 8.554688 L 21.777344 16.722656 C 17.160156 25.421875 6.363281 28.730469 -2.332031 24.109375 C -11.03125 19.492188 -14.339844 8.699219 -9.722656 0 L -2.722656 -7 C 0.230469 -7.574219 3.105469 -5.699219 3.765625 -2.765625 C 4.429688 0.167969 2.640625 3.09375 -0.273438 3.84375 C -3.1875 4.59375 -6.167969 2.890625 -7 0 Z M 48.609375 16.722656 L 40.832031 8.945313 C 38.570313 8.78125 36.679688 7.160156 36.171875 4.949219 C 35.664063 2.738281 36.65625 0.453125 38.621094 -0.683594 C 40.582031 -1.820313 43.058594 -1.542969 44.722656 0 L 51.722656 7 C 49.789063 8.933594 46.65625 8.933594 44.722656 7 C 42.789063 5.066406 42.789063 1.933594 44.722656 0 Z M 61.054688 29.167969 L 53.667969 21.777344 C 47.652344 20.917969 43.472656 15.347656 44.332031 9.332031 C 45.191406 3.320313 50.765625 -0.859375 56.777344 0 L 63.777344 7 C 61.84375 8.933594 58.710938 8.933594 56.777344 7 C 54.84375 5.066406 54.84375 1.933594 56.777344 0 Z M 57.554688 38.109375 L 50.945313 44.722656 C 51.722656 45.109375 52.109375 45.109375 52.5 45.890625 C 39.828125 47.714844 28.074219 38.921875 26.25 26.25 C 24.425781 13.578125 33.21875 1.824219 45.890625 0 L 54.054688 -8.167969 C 56.65625 -10.421875 60.429688 -10.703125 63.332031 -8.851563 C 66.234375 -7.003906 67.578125 -3.464844 66.632813 -0.15625 C 65.6875 3.152344 62.679688 5.449219 59.234375 5.484375 C 55.792969 5.519531 52.738281 3.289063 51.722656 0 Z M 45.5 50.167969 L 38.890625 56.777344 L 39.277344 57.167969 C 23.492188 53.730469 13.480469 38.148438 16.917969 22.359375 C 20.351563 6.574219 35.9375 -3.4375 51.722656 0 L 59.890625 -8.167969 C 61.109375 -9.253906 62.917969 -9.363281 64.257813 -8.425781 C 65.597656 -7.492188 66.121094 -5.757813 65.523438 -4.238281 C 64.925781 -2.714844 63.359375 -1.804688 61.742188 -2.035156 C 60.121094 -2.265625 58.875 -3.574219 58.722656 -5.203125 Z M 45.5 50.167969 "/>
<path style=" stroke:none;fill-rule:nonzero;fill:rgb(96.862745%,55.294118%,11.764706%);fill-opacity:1;" d="M 26.832031 21 C 26.832031 24.222656 24.222656 26.832031 21 26.832031 C 17.777344 26.832031 15.167969 24.222656 15.167969 21 C 15.167969 17.777344 17.777344 15.167969 21 15.167969 C 24.222656 15.167969 26.832031 17.777344 26.832031 21 Z M 26.832031 21 "/>
<path style=" stroke:none;fill-rule:nonzero;fill:rgb(96.862745%,55.294118%,11.764706%);fill-opacity:1;" d="M 54.832031 21 C 54.832031 24.222656 52.222656 26.832031 49 26.832031 C 45.777344 26.832031 43.167969 24.222656 43.167969 21 C 43.167969 17.777344 45.777344 15.167969 49 15.167969 C 52.222656 15.167969 54.832031 17.777344 54.832031 21 Z M 54.832031 21 "/>
<path style=" stroke:none;fill-rule:nonzero;fill:rgb(96.862745%,55.294118%,11.764706%);fill-opacity:1;" d="M 26.832031 49 C 26.832031 52.222656 24.222656 54.832031 21 54.832031 C 17.777344 54.832031 15.167969 52.222656 15.167969 49 C 15.167969 45.777344 17.777344 43.167969 21 43.167969 C 24.222656 43.167969 26.832031 45.777344 26.832031 49 Z M 26.832031 49 "/>
<path style=" stroke:none;fill-rule:nonzero;fill:rgb(96.862745%,55.294118%,11.764706%);fill-opacity:1;" d="M 54.832031 49 C 54.832031 52.222656 52.222656 54.832031 49 54.832031 C 45.777344 54.832031 43.167969 52.222656 43.167969 49 C 43.167969 45.777344 45.777344 43.167969 49 43.167969 C 52.222656 43.167969 54.832031 45.777344 54.832031 49 Z M 54.832031 49 "/>
<path style=" stroke:none;fill-rule:nonzero;fill:url(#linear0);" d="M 8.554688 27.609375 C 0.929688 29.972656 -7.164063 25.707031 -9.527344 18.082031 C -11.890625 10.457031 -7.625 2.363281 0 0 Z M 61.445313 27.609375 C 53.820313 44.578125 33.882813 52.152344 16.917969 44.527344 C -0.0507813 36.902344 -7.625 16.96875 0 0 Z M 61.445313 27.609375 "/>
<path style=" stroke:none;fill-rule:nonzero;fill:url(#linear1);" d="M 35 1.167969 C 31.894531 -0.0507813 29.992188 -3.199219 30.355469 -6.511719 C 30.71875 -9.828125 33.253906 -12.488281 36.546875 -13.007813 C 39.84375 -13.53125 43.074219 -11.777344 44.441406 -8.738281 C 45.808594 -5.695313 44.964844 -2.117188 42.390625 0 Z M 35 54.054688 C 20.074219 52.015625 9.625 38.261719 11.667969 23.332031 C 13.707031 8.40625 27.460938 -2.039063 42.390625 0 Z M 35 54.054688 "/>
</g>
</svg>
