<?xml version="1.0" encoding="UTF-8"?>
<svg xmlns="http://www.w3.org/2000/svg" xmlns:xlink="http://www.w3.org/1999/xlink" width="70pt" height="70pt" viewBox="0 0 70 70" version="1.1">
<defs>
<linearGradient id="linear0" gradientUnits="userSpaceOnUse" x1="8.18" y1="6.52" x2="8.18" y2="15.24" gradientTransform="matrix(3.888889,0,0,3.888889,0,0)">
<stop offset="0" style="stop-color:rgb(100%,100%,100%);stop-opacity:1;"/>
<stop offset="0.48" style="stop-color:rgb(96.470588%,96.470588%,96.470588%);stop-opacity:1;"/>
<stop offset="1" style="stop-color:rgb(90.196078%,90.196078%,90.196078%);stop-opacity:1;"/>
</linearGradient>
</defs>
<g id="surface1">
<path style=" stroke:none;fill-rule:nonzero;fill:rgb(31.372549%,90.196078%,100%);fill-opacity:1;" d="M 58.878906 18.277344 L 54.988281 18.277344 L 54.988281 68.09375 L 58.878906 60.589844 Z M 58.878906 18.277344 "/>
<path style=" stroke:none;fill-rule:nonzero;fill:rgb(61.176471%,92.156863%,100%);fill-opacity:1;" d="M 58.878906 60.550781 L 54.988281 68.054688 L 58.878906 64.945313 L 63.660156 61.054688 Z M 58.878906 60.550781 "/>
<path style=" stroke:none;fill-rule:nonzero;fill:rgb(63.921569%,63.921569%,63.921569%);fill-opacity:1;" d="M 33.328125 10.851563 C 33.328125 7.476563 36.0625 4.746094 39.433594 4.746094 C 42.804688 4.746094 45.539063 7.476563 45.539063 10.851563 C 45.539063 14.222656 42.804688 16.957031 39.433594 16.957031 L 39.433594 18.277344 L 42.503906 18.277344 L 42.503906 10.851563 C 43.1875 12.828125 43.1875 14.976563 42.503906 16.957031 L 42.503906 18.277344 L 45.539063 18.277344 Z M 33.328125 10.851563 "/>
<path style=" stroke:none;fill-rule:nonzero;fill:rgb(46.27451%,46.27451%,46.27451%);fill-opacity:1;" d="M 24.035156 10.851563 C 21.039063 17.488281 13.226563 20.4375 6.589844 17.441406 C -0.046875 14.445313 -2.996094 6.636719 0 0 L 0 18.277344 L 3.035156 18.277344 L 3.035156 10.851563 C 1.550781 14.480469 -2.078125 16.765625 -5.992188 16.539063 C -9.90625 16.3125 -13.246094 13.625 -14.300781 9.847656 C -15.355469 6.070313 -13.894531 2.039063 -10.667969 -0.183594 C -7.4375 -2.40625 -3.152344 -2.332031 0 0 C 2.777344 -1.558594 6.167969 -1.558594 8.945313 0 L 8.945313 18.277344 L 11.976563 18.277344 Z M 24.035156 10.851563 "/>
<path style=" stroke:none;fill-rule:nonzero;fill:rgb(19.607843%,74.509804%,86.666667%);fill-opacity:1;" d="M 54.832031 18.277344 L 54.832031 68.09375 L 6.339844 64.246094 L 7.777344 18.277344 Z M 58.878906 18.277344 L 58.878906 60.589844 L 63.660156 61.289063 L 62.222656 18.277344 Z M 58.878906 18.277344 "/>
<path style=" stroke:none;fill-rule:nonzero;fill:url(#linear0);" d="M 40.484375 25.355469 L 23.332031 25.355469 C 16.332031 25.042969 10.90625 19.117188 11.21875 12.113281 C 11.53125 5.113281 17.460938 -0.3125 24.460938 0 L 24.460938 31.109375 C 15.871094 31.109375 8.90625 24.148438 8.90625 15.554688 C 8.90625 6.964844 15.871094 0 24.460938 0 L 41.804688 0.542969 C 41.65625 5.332031 37.652344 9.09375 32.859375 8.945313 C 28.070313 8.792969 24.3125 4.789063 24.460938 0 L 24.460938 26.484375 C 17.148438 26.792969 10.96875 21.117188 10.65625 13.804688 C 10.34375 6.492188 16.019531 0.3125 23.332031 0 Z M 28.078125 47.640625 C 14.921875 47.5625 4.320313 36.839844 4.394531 23.683594 C 4.46875 10.527344 15.195313 -0.0742188 28.351563 0 L 25.160156 0 C 25.292969 0.0625 25.359375 0.207031 25.328125 0.347656 C 25.296875 0.492188 25.167969 0.589844 25.023438 0.589844 C 24.878906 0.589844 24.753906 0.492188 24.722656 0.347656 C 24.6875 0.207031 24.757813 0.0625 24.890625 0 L 24.890625 -4.121094 C 26.027344 -4.121094 26.949219 -3.199219 26.949219 -2.0625 C 26.949219 -0.921875 26.027344 0 24.890625 0 L 28.078125 0 C 28.078125 0.878906 27.363281 1.59375 26.484375 1.59375 C 25.601563 1.59375 24.890625 0.878906 24.890625 0 Z M 28.078125 40.171875 C 16.984375 40.097656 8.050781 31.042969 8.128906 19.949219 C 8.203125 8.855469 17.257813 -0.0742188 28.351563 0 L 25.160156 0 C 25.292969 0.0625 25.359375 0.207031 25.328125 0.347656 C 25.296875 0.492188 25.167969 0.589844 25.023438 0.589844 C 24.878906 0.589844 24.753906 0.492188 24.722656 0.347656 C 24.6875 0.207031 24.757813 0.0625 24.890625 0 L 24.890625 36.050781 C 14.933594 36.050781 6.863281 27.980469 6.863281 18.023438 C 6.863281 8.070313 14.933594 0 24.890625 0 L 28.078125 0 C 28.078125 0.878906 27.363281 1.59375 26.484375 1.59375 C 25.601563 1.59375 24.890625 0.878906 24.890625 0 Z M 28.078125 32.667969 C 19.058594 32.582031 11.8125 25.199219 11.898438 16.179688 C 11.984375 7.15625 19.367188 -0.0859375 28.390625 0 L 25.199219 0 C 25.34375 0.0703125 25.421875 0.234375 25.386719 0.394531 C 25.347656 0.550781 25.207031 0.664063 25.042969 0.664063 C 24.882813 0.664063 24.742188 0.550781 24.703125 0.394531 C 24.667969 0.234375 24.742188 0.0703125 24.890625 0 L 24.890625 28.542969 C 17.007813 28.542969 10.617188 22.15625 10.617188 14.273438 C 10.617188 6.390625 17.007813 0 24.890625 0 L 28.078125 0 C 28.078125 0.878906 27.363281 1.59375 26.484375 1.59375 C 25.601563 1.59375 24.890625 0.878906 24.890625 0 Z M 33.601563 57.246094 C 17.792969 57.167969 5.039063 44.292969 5.113281 28.484375 C 5.1875 12.679688 18.066406 -0.0742188 33.871094 0 L 30.761719 0 C 30.867188 0.0625 30.917969 0.1875 30.886719 0.304688 C 30.855469 0.425781 30.75 0.507813 30.625 0.507813 C 30.5 0.507813 30.394531 0.425781 30.363281 0.304688 C 30.332031 0.1875 30.382813 0.0625 30.488281 0 L 30.488281 -6.222656 C 32.207031 -6.222656 33.601563 -4.828125 33.601563 -3.109375 C 33.601563 -1.394531 32.207031 0 30.488281 0 L 33.679688 0 C 33.679688 0.878906 32.964844 1.59375 32.082031 1.59375 C 31.203125 1.59375 30.488281 0.878906 30.488281 0 Z M 33.601563 47.640625 C 20.445313 47.5625 9.839844 36.839844 9.917969 23.683594 C 9.992188 10.527344 20.71875 -0.0742188 33.871094 0 L 30.761719 0 C 30.867188 0.0625 30.917969 0.1875 30.886719 0.304688 C 30.855469 0.425781 30.75 0.507813 30.625 0.507813 C 30.5 0.507813 30.394531 0.425781 30.363281 0.304688 C 30.332031 0.1875 30.382813 0.0625 30.488281 0 L 30.488281 -4.121094 C 31.628906 -4.121094 32.550781 -3.199219 32.550781 -2.0625 C 32.550781 -0.921875 31.628906 0 30.488281 0 L 33.679688 0 C 33.679688 0.878906 32.964844 1.59375 32.082031 1.59375 C 31.203125 1.59375 30.488281 0.878906 30.488281 0 Z M 33.601563 40.171875 C 22.507813 40.097656 13.574219 31.042969 13.648438 19.949219 C 13.726563 8.855469 22.777344 -0.0742188 33.871094 0 L 30.761719 0 C 30.867188 0.0625 30.917969 0.1875 30.886719 0.304688 C 30.855469 0.425781 30.75 0.507813 30.625 0.507813 C 30.5 0.507813 30.394531 0.425781 30.363281 0.304688 C 30.332031 0.1875 30.382813 0.0625 30.488281 0 L 30.488281 36.050781 C 20.535156 36.050781 12.464844 27.980469 12.464844 18.023438 C 12.464844 8.070313 20.535156 0 30.488281 0 L 33.679688 0 C 33.679688 0.878906 32.964844 1.59375 32.082031 1.59375 C 31.203125 1.59375 30.488281 0.878906 30.488281 0 Z M 33.601563 32.667969 C 24.578125 32.582031 17.335938 25.199219 17.421875 16.179688 C 17.507813 7.15625 24.890625 -0.0859375 33.910156 0 L 30.800781 0 C 30.921875 0.0703125 30.980469 0.214844 30.945313 0.351563 C 30.910156 0.484375 30.785156 0.582031 30.644531 0.582031 C 30.503906 0.582031 30.378906 0.484375 30.34375 0.351563 C 30.308594 0.214844 30.367188 0.0703125 30.488281 0 L 30.488281 28.542969 C 22.605469 28.542969 16.214844 22.15625 16.214844 14.273438 C 16.214844 6.390625 22.605469 0 30.488281 0 L 33.679688 0 C 33.679688 0.878906 32.964844 1.59375 32.082031 1.59375 C 31.203125 1.59375 30.488281 0.878906 30.488281 0 Z M 39.199219 47.640625 C 26.042969 47.5625 15.441406 36.839844 15.515625 23.683594 C 15.59375 10.527344 26.316406 -0.0742188 39.472656 0 L 36.359375 0 C 36.46875 0.0625 36.519531 0.1875 36.488281 0.304688 C 36.457031 0.425781 36.347656 0.507813 36.226563 0.507813 C 36.101563 0.507813 35.992188 0.425781 35.960938 0.304688 C 35.929688 0.1875 35.980469 0.0625 36.089844 0 L 36.089844 -4.121094 C 37.226563 -4.121094 38.148438 -3.199219 38.148438 -2.0625 C 38.148438 -0.921875 37.226563 0 36.089844 0 L 38.890625 0 C 38.890625 0.773438 38.261719 1.398438 37.488281 1.398438 C 36.714844 1.398438 36.089844 0.773438 36.089844 0 Z M 39.199219 40.171875 C 28.105469 40.097656 19.175781 31.042969 19.25 19.949219 C 19.324219 8.855469 28.378906 -0.0742188 39.472656 0 L 36.359375 0 C 36.46875 0.0625 36.519531 0.1875 36.488281 0.304688 C 36.457031 0.425781 36.347656 0.507813 36.226563 0.507813 C 36.101563 0.507813 35.992188 0.425781 35.960938 0.304688 C 35.929688 0.1875 35.980469 0.0625 36.089844 0 L 36.089844 36.050781 C 26.132813 36.050781 18.0625 27.980469 18.0625 18.023438 C 18.0625 8.070313 26.132813 0 36.089844 0 L 38.890625 0 C 38.890625 0.773438 38.261719 1.398438 37.488281 1.398438 C 36.714844 1.398438 36.089844 0.773438 36.089844 0 Z M 39.199219 32.667969 C 30.179688 32.582031 22.9375 25.199219 23.023438 16.179688 C 23.109375 7.15625 30.492188 -0.0859375 39.511719 0 L 36.398438 0 C 36.523438 0.0703125 36.582031 0.214844 36.546875 0.351563 C 36.507813 0.484375 36.386719 0.582031 36.246094 0.582031 C 36.105469 0.582031 35.980469 0.484375 35.945313 0.351563 C 35.90625 0.214844 35.96875 0.0703125 36.089844 0 L 36.089844 28.542969 C 28.207031 28.542969 21.816406 22.15625 21.816406 14.273438 C 21.816406 6.390625 28.207031 0 36.089844 0 L 38.890625 0 C 38.890625 0.773438 38.261719 1.398438 37.488281 1.398438 C 36.714844 1.398438 36.089844 0.773438 36.089844 0 Z M 39.199219 32.667969 "/>
</g>
</svg>
