<?xml version="1.0" encoding="UTF-8"?>
<svg xmlns="http://www.w3.org/2000/svg" xmlns:xlink="http://www.w3.org/1999/xlink" width="70pt" height="70pt" viewBox="0 0 70 70" version="1.1">
<g id="surface1">
<path style=" stroke:none;fill-rule:nonzero;fill:rgb(0%,0%,0%);fill-opacity:1;" d="M 8.75 21.875 L 8.75 4.375 L 4.375 4.375 L 4.375 36.3125 L 7.4375 39.375 L 8.75 39.375 L 8.75 26.25 L 21.875 26.25 L 21.875 30.625 L 13.125 30.625 L 13.125 39.375 L 17.5 39.375 L 17.5 35 L 21.875 35 L 21.875 43.75 L 5.6875 43.75 L 0 38.0625 L 0 4.375 C -1.097656 5.101563 -2.5625 4.90625 -3.425781 3.917969 C -4.292969 2.925781 -4.292969 1.449219 -3.425781 0.457031 C -2.5625 -0.53125 -1.097656 -0.726563 0 0 L 1.3125 1.3125 L 2.625 0.4375 L 41.125 0.4375 L 42.4375 1.3125 L 43.3125 2.625 C 42.585938 14.585938 32.304688 23.695313 20.34375 22.96875 C 8.382813 22.242188 -0.726563 11.960938 0 0 L 0 17.5 L 39.375 17.5 L 39.375 4.375 L 35 4.375 L 35 21.875 Z M 13.125 17.5 L 30.625 17.5 L 30.625 4.375 L 13.125 4.375 Z M 65.625 26.25 L 67.375 26.25 L 68.6875 27.125 L 69.5625 28.4375 C 61.710938 47.648438 39.773438 56.851563 20.5625 49 C 1.351563 41.148438 -7.851563 19.210938 0 0 L 0 39.375 L 31.9375 39.375 L 26.25 64.3125 L 26.25 30.625 C 17.792969 37.875 5.0625 36.894531 -2.1875 28.4375 C -9.4375 19.980469 -8.457031 7.25 0 0 L 0.875 -1.3125 L 2.1875 -2.1875 L 65.625 -2.1875 Z M 65.625 30.625 L 61.25 30.625 L 61.25 48.125 L 35 48.125 L 35 30.625 L 30.625 30.625 L 30.625 62.5625 L 33.6875 65.625 L 35 65.625 L 35 52.5 L 61.25 52.5 L 61.25 65.625 L 65.625 65.625 Z M 39.375 30.625 L 39.375 43.75 L 56.875 43.75 L 56.875 30.625 Z M 56.875 65.625 L 56.875 56.875 L 39.375 56.875 L 39.375 65.625 L 43.75 65.625 L 43.75 61.25 L 48.125 61.25 L 48.125 65.625 Z M 56.875 65.625 "/>
</g>
</svg>
