<?xml version="1.0" encoding="UTF-8"?>
<svg xmlns="http://www.w3.org/2000/svg" xmlns:xlink="http://www.w3.org/1999/xlink" width="70pt" height="70pt" viewBox="0 0 70 70" version="1.1">
<defs>
<linearGradient id="linear0" gradientUnits="userSpaceOnUse" x1="11.95" y1="15" x2="11.95" y2="6.49" gradientTransform="matrix(3.888889,0,0,3.888889,0,0)">
<stop offset="0" style="stop-color:rgb(36.862745%,58.823529%,14.117647%);stop-opacity:1;"/>
<stop offset="0.01" style="stop-color:rgb(36.862745%,59.215686%,14.117647%);stop-opacity:1;"/>
<stop offset="0.35" style="stop-color:rgb(42.352941%,67.058824%,16.078431%);stop-opacity:1;"/>
<stop offset="0.68" style="stop-color:rgb(45.098039%,72.156863%,17.254902%);stop-opacity:1;"/>
<stop offset="1" style="stop-color:rgb(46.27451%,73.72549%,17.647059%);stop-opacity:1;"/>
</linearGradient>
<linearGradient id="linear1" gradientUnits="userSpaceOnUse" x1="6.05" y1="11.51" x2="6.05" y2="3" gradientTransform="matrix(3.888889,0,0,3.888889,0,0)">
<stop offset="0" style="stop-color:rgb(0%,47.058824%,83.137255%);stop-opacity:1;"/>
<stop offset="0.82" style="stop-color:rgb(36.862745%,62.745098%,93.72549%);stop-opacity:1;"/>
</linearGradient>
<linearGradient id="linear2" gradientUnits="userSpaceOnUse" x1="10.51" y1="6.82" x2="7.93" y2="10.5" gradientTransform="matrix(3.888889,0,0,3.888889,0,0)">
<stop offset="0" style="stop-color:rgb(0%,35.686275%,63.137255%);stop-opacity:1;"/>
<stop offset="0.14" style="stop-color:rgb(1.176471%,36.470588%,63.921569%);stop-opacity:0.968627;"/>
<stop offset="0.3" style="stop-color:rgb(4.313725%,38.823529%,66.666667%);stop-opacity:0.878431;"/>
<stop offset="0.47" style="stop-color:rgb(9.803922%,43.137255%,71.372549%);stop-opacity:0.729412;"/>
<stop offset="0.65" style="stop-color:rgb(17.647059%,48.627451%,77.647059%);stop-opacity:0.521569;"/>
<stop offset="0.84" style="stop-color:rgb(27.45098%,55.686275%,85.882353%);stop-opacity:0.258824;"/>
<stop offset="1" style="stop-color:rgb(36.862745%,62.745098%,93.72549%);stop-opacity:0;"/>
</linearGradient>
</defs>
<g id="surface1">
<path style=" stroke:none;fill-rule:nonzero;fill:url(#linear0);" d="M 55.144531 25.238281 L 37.527344 25.238281 C 30.558594 35.601563 16.507813 38.351563 6.144531 31.382813 C -4.21875 24.414063 -6.96875 10.363281 0 0 L 5.523438 0 C 10.132813 1.371094 13.035156 5.917969 12.34375 10.675781 C 11.652344 15.433594 7.570313 18.964844 2.761719 18.964844 C -2.046875 18.964844 -6.128906 15.433594 -6.820313 10.675781 C -7.515625 5.917969 -4.609375 1.371094 0 0 L 17.617188 0 C 17.636719 -5.550781 22.148438 -10.039063 27.703125 -10.035156 C 33.253906 -10.027344 37.753906 -5.527344 37.761719 0.0273438 C 37.769531 5.578125 33.28125 10.089844 27.726563 10.109375 L 37.527344 10.109375 C 41.722656 11.953125 44.054688 16.480469 43.117188 20.964844 C 42.175781 25.449219 38.222656 28.664063 33.640625 28.664063 C 29.054688 28.664063 25.101563 25.449219 24.160156 20.964844 C 23.222656 16.480469 25.554688 11.953125 29.75 10.109375 L 22.945313 10.109375 C 15.207031 8.375 10.011719 1.101563 10.886719 -6.78125 C 11.757813 -14.660156 18.417969 -20.625 26.347656 -20.625 C 34.277344 -20.625 40.9375 -14.660156 41.808594 -6.78125 C 42.679688 1.101563 37.488281 8.375 29.75 10.109375 L 47.367188 10.109375 C 53.132813 13.988281 55.6875 21.175781 53.660156 27.820313 C 51.636719 34.464844 45.503906 39.003906 38.558594 39.003906 C 31.613281 39.003906 25.480469 34.464844 23.457031 27.820313 C 21.429688 21.175781 23.984375 13.988281 29.75 10.109375 C 24.679688 13.226563 18.292969 13.226563 13.222656 10.109375 Z M 55.144531 25.238281 "/>
<path style=" stroke:none;fill-rule:nonzero;fill:url(#linear1);" d="M 32.472656 38.890625 L 14.855469 38.890625 C 20.324219 39.207031 24.539063 43.839844 24.335938 49.316406 C 24.136719 54.789063 19.59375 59.101563 14.113281 59.015625 C 8.636719 58.929688 4.230469 54.480469 4.199219 49 L 21.816406 49 C 23.671875 53.066406 22.507813 57.871094 18.992188 60.632813 C 15.480469 63.394531 10.535156 63.394531 7.023438 60.632813 C 3.511719 57.871094 2.34375 53.066406 4.199219 49 L 9.722656 49 C 17.648438 50.429688 23.171875 57.671875 22.453125 65.695313 C 21.738281 73.714844 15.015625 79.863281 6.960938 79.863281 C -1.09375 79.863281 -7.816406 73.714844 -8.53125 65.695313 C -9.25 57.671875 -3.726563 50.429688 4.199219 49 L 14.855469 49 C 11.410156 50.234375 7.644531 50.234375 4.199219 49 L 21.816406 49 C 27.433594 52.859375 29.886719 59.925781 27.863281 66.433594 C 25.84375 72.941406 19.824219 77.378906 13.007813 77.378906 C 6.195313 77.378906 0.171875 72.941406 -1.847656 66.433594 C -3.867188 59.925781 -1.417969 52.859375 4.199219 49 L -1.320313 49 C -5.519531 47.160156 -7.851563 42.628906 -6.910156 38.144531 C -5.96875 33.660156 -2.015625 30.449219 2.566406 30.449219 C 7.148438 30.449219 11.105469 33.660156 12.042969 38.144531 C 12.984375 42.628906 10.652344 47.160156 6.457031 49 Z M 32.472656 38.890625 "/>
<path style=" stroke:none;fill-rule:nonzero;fill:url(#linear2);" d="M 32.472656 38.890625 L 20.804688 38.890625 L 20.804688 44.878906 L 32.472656 44.878906 C 20.078125 53.84375 2.765625 51.066406 -6.203125 38.675781 C -15.167969 26.28125 -12.394531 8.96875 0 0 L -5.523438 0 C -9.71875 -1.839844 -12.050781 -6.371094 -11.109375 -10.855469 C -10.171875 -15.339844 -6.214844 -18.550781 -1.632813 -18.550781 C 2.949219 -18.550781 6.902344 -15.339844 7.84375 -10.855469 C 8.785156 -6.371094 6.453125 -1.839844 2.253906 0 Z M 32.472656 38.890625 "/>
</g>
</svg>
