<?xml version="1.0" encoding="UTF-8"?>
<svg xmlns="http://www.w3.org/2000/svg" xmlns:xlink="http://www.w3.org/1999/xlink" width="70pt" height="70pt" viewBox="0 0 70 70" version="1.1">
<defs>
<linearGradient id="linear0" gradientUnits="userSpaceOnUse" x1="8.45" y1="11.47" x2="8.45" y2="6.24" gradientTransform="matrix(3.888889,0,0,3.888889,0,0)">
<stop offset="0" style="stop-color:rgb(9.803922%,54.117647%,70.196078%);stop-opacity:1;"/>
<stop offset="0.16" style="stop-color:rgb(12.156863%,60.392157%,76.078431%);stop-opacity:1;"/>
<stop offset="0.5" style="stop-color:rgb(16.078431%,72.941176%,87.058824%);stop-opacity:1;"/>
<stop offset="0.8" style="stop-color:rgb(18.823529%,80.392157%,93.72549%);stop-opacity:1;"/>
<stop offset="1" style="stop-color:rgb(19.607843%,83.137255%,96.078431%);stop-opacity:1;"/>
</linearGradient>
</defs>
<g id="surface1">
<path style=" stroke:none;fill-rule:nonzero;fill:url(#linear0);" d="M 42.972656 34.417969 C 42.972656 28.8125 38.445313 24.265625 32.859375 24.265625 C 27.277344 24.265625 22.75 28.8125 22.75 34.417969 C 22.75 40.023438 27.277344 44.566406 32.859375 44.566406 C 38.445313 44.566406 42.972656 40.023438 42.972656 34.417969 Z M 42.972656 34.417969 "/>
<path style=" stroke:none;fill-rule:nonzero;fill:rgb(19.607843%,74.509804%,86.666667%);fill-opacity:1;" d="M 66.109375 18.550781 C 66.109375 15.800781 63.898438 13.570313 61.171875 13.570313 C 58.445313 13.570313 56.234375 15.800781 56.234375 18.550781 C 56.234375 21.300781 58.445313 23.527344 61.171875 23.527344 C 63.898438 23.527344 66.109375 21.300781 66.109375 18.550781 Z M 66.109375 18.550781 "/>
<path style=" stroke:none;fill-rule:nonzero;fill:rgb(19.607843%,74.509804%,86.666667%);fill-opacity:1;" d="M 66.109375 34.804688 C 66.109375 32.054688 63.898438 29.828125 61.171875 29.828125 C 58.445313 29.828125 56.234375 32.054688 56.234375 34.804688 C 56.234375 37.554688 58.445313 39.785156 61.171875 39.785156 C 63.898438 39.785156 66.109375 37.554688 66.109375 34.804688 Z M 66.109375 34.804688 "/>
<path style=" stroke:none;fill-rule:nonzero;fill:rgb(19.607843%,74.509804%,86.666667%);fill-opacity:1;" d="M 66.109375 51.023438 C 66.109375 48.273438 63.898438 46.042969 61.171875 46.042969 C 58.445313 46.042969 56.234375 48.273438 56.234375 51.023438 C 56.234375 53.769531 58.445313 56 61.171875 56 C 63.898438 56 66.109375 53.769531 66.109375 51.023438 Z M 66.109375 51.023438 "/>
<path style=" stroke:none;fill-rule:nonzero;fill:rgb(31.372549%,90.196078%,100%);fill-opacity:1;" d="M 54.832031 26.871094 C 54.832031 24.125 52.621094 21.894531 49.894531 21.894531 C 47.167969 21.894531 44.957031 24.125 44.957031 26.871094 C 44.957031 29.621094 47.167969 31.851563 49.894531 31.851563 C 52.621094 31.851563 54.832031 29.621094 54.832031 26.871094 Z M 54.832031 26.871094 "/>
<path style=" stroke:none;fill-rule:nonzero;fill:rgb(31.372549%,90.196078%,100%);fill-opacity:1;" d="M 54.832031 43.128906 C 54.832031 40.378906 52.621094 38.148438 49.894531 38.148438 C 47.167969 38.148438 44.957031 40.378906 44.957031 43.128906 C 44.957031 45.875 47.167969 48.105469 49.894531 48.105469 C 52.621094 48.105469 54.832031 45.875 54.832031 43.128906 Z M 54.832031 43.128906 "/>
<path style=" stroke:none;fill-rule:nonzero;fill:rgb(58.039216%,58.039216%,58.039216%);fill-opacity:1;" d="M 9.371094 21.699219 C 3.378906 24.289063 -3.574219 21.527344 -6.164063 15.535156 C -8.753906 9.542969 -5.992188 2.589844 0 0 L 22.632813 -13.183594 C 22.945313 -13.183594 42.078125 -2.371094 42.078125 -2.371094 C 42.734375 9.902344 33.3125 20.382813 21.039063 21.039063 C 8.765625 21.695313 -1.71875 12.273438 -2.371094 0 L -2.371094 13.960938 C -6.226563 14.1875 -9.535156 11.246094 -9.761719 7.390625 C -9.988281 3.535156 -7.042969 0.226563 -3.1875 0 C -3.1875 0 32.667969 1.789063 32.394531 1.945313 L 4.316406 18.042969 L 3.890625 18.355469 Z M 51.722656 51.101563 L 33.289063 61.714844 C 16.246094 61.714844 2.429688 47.902344 2.429688 30.859375 C 2.429688 13.816406 16.246094 0 33.289063 0 L 33.289063 6.222656 C 35.007813 6.222656 36.398438 4.828125 36.398438 3.109375 C 36.398438 1.394531 35.007813 0 33.289063 0 L 52.734375 -11.121094 C 55.804688 -5.753906 53.941406 1.089844 48.570313 4.160156 C 43.203125 7.234375 36.359375 5.371094 33.289063 0 L 33.289063 -4.121094 C 34.425781 -3.898438 35.167969 -2.792969 34.941406 -1.652344 C 34.714844 -0.515625 33.609375 0.226563 32.472656 0 Z M 51.722656 51.101563 "/>
<path style=" stroke:none;fill-rule:nonzero;fill:rgb(70.196078%,70.196078%,70.196078%);fill-opacity:1;" d="M 32.859375 61.832031 C 15.785156 61.832031 1.945313 47.992188 1.945313 30.917969 C 1.945313 13.84375 15.785156 0 32.859375 0 L 9.722656 48.496094 C -3.667969 48.710938 -14.699219 38.027344 -14.914063 24.636719 C -15.128906 11.246094 -4.445313 0.214844 8.945313 0 L 8.945313 22.167969 C 2.824219 22.167969 -2.140625 17.203125 -2.140625 11.082031 C -2.140625 4.960938 2.824219 0 8.945313 0 L 3.890625 18.355469 C -1.179688 16.960938 -4.15625 11.71875 -2.761719 6.648438 C -1.363281 1.582031 3.875 -1.394531 8.945313 0 L 8.945313 32.160156 C 0.0625 32.160156 -7.136719 24.960938 -7.136719 16.082031 C -7.136719 7.199219 0.0625 0 8.945313 0 L 37.023438 16.101563 C 41.46875 8.347656 38.785156 -1.542969 31.035156 -5.988281 C 23.28125 -10.433594 13.390625 -7.753906 8.945313 0 Z M 32.859375 61.832031 "/>
</g>
</svg>
