<?xml version="1.0" encoding="UTF-8"?>
<svg xmlns="http://www.w3.org/2000/svg" xmlns:xlink="http://www.w3.org/1999/xlink" width="70pt" height="70pt" viewBox="0 0 70 70" version="1.1">
<g id="surface1">
<path style=" stroke:none;fill-rule:nonzero;fill:rgb(0%,0%,0%);fill-opacity:1;" d="M 54.6875 6.125 C 49.609375 -14.285156 58.765625 -35.574219 77.074219 -45.925781 C 95.382813 -56.277344 118.34375 -53.152344 133.214844 -38.277344 C 148.089844 -23.40625 151.214844 -0.445313 140.863281 17.863281 C 130.511719 36.171875 109.222656 45.328125 88.8125 40.25 C 91 24.957031 103.433594 13.183594 118.820313 11.835938 C 134.210938 10.484375 148.503906 19.910156 153.320313 34.589844 C 158.136719 49.269531 152.207031 65.332031 139.011719 73.363281 C 125.8125 81.390625 108.824219 79.273438 98 68.25 L 143.5 113.75 L 189 113.75 C 189.636719 110.207031 191.691406 107.933594 193.835938 108.394531 C 195.976563 108.855469 197.558594 111.921875 197.558594 115.597656 C 197.558594 119.277344 195.976563 122.464844 193.835938 123.097656 C 191.691406 123.730469 189.636719 121.617188 189 118.125 C 201.1875 119.957031 212.046875 117.328125 213.253906 112.253906 C 214.464844 107.179688 205.5625 101.582031 193.375 99.75 L 185.0625 96.25 C 209.640625 97.671875 228.628906 118.378906 227.917969 142.988281 C 227.207031 167.59375 207.054688 187.175781 182.4375 187.175781 C 157.820313 187.175781 137.667969 167.59375 136.957031 142.988281 C 136.246094 118.378906 155.234375 97.671875 179.8125 96.25 C 189.210938 88.75 202.347656 88.085938 212.453125 94.601563 C 222.554688 101.117188 227.375 113.355469 224.421875 125.011719 C 221.46875 136.664063 211.40625 145.132813 199.417969 146.050781 C 187.429688 146.96875 176.191406 140.132813 171.5 129.0625 L 223.5625 129.0625 C 224.816406 144.070313 236.902344 154.671875 250.554688 152.738281 C 264.203125 150.808594 274.253906 137.070313 273 122.0625 L 8.75 122.0625 L 8.75 0 L 26.25 0 L 26.25 17.5 L 21.875 17.5 L 21.875 7.4375 C 28.128906 14.835938 29.964844 25.007813 26.6875 34.125 C 17.527344 42.324219 3.5625 41.953125 -5.148438 33.277344 C -13.855469 24.601563 -14.277344 10.632813 -6.113281 1.445313 C 2.054688 -7.742188 15.976563 -8.960938 25.613281 -1.328125 C 35.25 6.304688 37.257813 20.128906 30.1875 30.1875 C 27.210938 18.171875 32.609375 5.648438 43.386719 -0.441406 C 54.164063 -6.527344 67.679688 -4.683594 76.429688 4.070313 C 85.183594 12.820313 87.027344 26.335938 80.941406 37.113281 C 74.851563 47.890625 62.328125 53.289063 50.3125 50.3125 L 50.3125 55.125 L 57.3125 58.625 L 35 65.625 L 43.3125 64.75 L 50.3125 61.25 C 50.3125 49.410156 59.910156 39.8125 71.75 39.8125 C 83.589844 39.8125 93.1875 49.410156 93.1875 61.25 C 93.1875 73.089844 83.589844 82.6875 71.75 82.6875 L 71.75 86.1875 C 75.269531 97.367188 71.210938 109.542969 61.6875 116.375 L 99.75 154.4375 L 131.25 154.4375 L 132.125 150.0625 C 136.332031 135.132813 151.585938 126.195313 166.671875 129.820313 C 181.753906 133.449219 191.273438 148.347656 188.230469 163.558594 C 185.1875 178.769531 170.671875 188.859375 155.351563 186.40625 C 140.035156 183.957031 129.390625 169.839844 131.25 154.4375 Z M 54.6875 6.125 "/>
</g>
</svg>
