<?xml version="1.0" encoding="UTF-8"?>
<svg xmlns="http://www.w3.org/2000/svg" xmlns:xlink="http://www.w3.org/1999/xlink" width="70pt" height="70pt" viewBox="0 0 70 70" version="1.1">
<defs>
<linearGradient id="linear0" gradientUnits="userSpaceOnUse" x1="9" y1="15.83" x2="9" y2="5.79" gradientTransform="matrix(3.888889,0,0,3.888889,0,0)">
<stop offset="0" style="stop-color:rgb(19.607843%,74.509804%,86.666667%);stop-opacity:1;"/>
<stop offset="0.18" style="stop-color:rgb(19.607843%,79.215686%,91.764706%);stop-opacity:1;"/>
<stop offset="0.41" style="stop-color:rgb(19.607843%,82.352941%,94.901961%);stop-opacity:1;"/>
<stop offset="0.78" style="stop-color:rgb(19.607843%,83.137255%,96.078431%);stop-opacity:1;"/>
</linearGradient>
</defs>
<g id="surface1">
<path style=" stroke:none;fill-rule:nonzero;fill:url(#linear0);" d="M 1.945313 22.515625 L 68.054688 22.515625 L 68.054688 59.382813 C 51.65625 58.769531 38.859375 44.980469 39.472656 28.582031 C 40.085938 12.183594 53.875 -0.613281 70.273438 0 L 4.160156 0 C 5.03125 0.5 5.453125 1.523438 5.195313 2.492188 C 4.933594 3.460938 4.054688 4.136719 3.054688 4.136719 C 2.050781 4.136719 1.171875 3.460938 0.910156 2.492188 C 0.652344 1.523438 1.074219 0.5 1.945313 0 Z M 1.945313 22.515625 "/>
<path style=" stroke:none;fill-rule:nonzero;fill:rgb(46.27451%,46.27451%,46.27451%);fill-opacity:1;" d="M 4.160156 8.4375 L 65.839844 8.4375 C 63.507813 26.621094 46.882813 39.46875 28.699219 37.140625 C 10.519531 34.808594 -2.332031 18.179688 0 0 L 0 11.859375 L 1.945313 11.859375 L 1.945313 10.617188 C -0.988281 11.152344 -3.800781 9.210938 -4.335938 6.28125 C -4.875 3.347656 -2.933594 0.535156 0 0 Z M 4.160156 8.4375 "/>
<path style=" stroke:none;fill-rule:nonzero;fill:rgb(94.901961%,94.901961%,94.901961%);fill-opacity:1;" d="M 55.222656 39.628906 C 55.222656 42.589844 52.820313 44.996094 49.855469 44.996094 C 46.890625 44.996094 44.488281 42.589844 44.488281 39.628906 C 44.488281 36.664063 46.890625 34.261719 49.855469 34.261719 C 52.820313 34.261719 55.222656 36.664063 55.222656 39.628906 Z M 55.222656 39.628906 "/>
<path style=" stroke:none;fill-rule:nonzero;fill:rgb(94.901961%,94.901961%,94.901961%);fill-opacity:1;" d="M 40.601563 39.628906 C 40.601563 42.589844 38.195313 44.996094 35.234375 44.996094 C 32.269531 44.996094 29.867188 42.589844 29.867188 39.628906 C 29.867188 36.664063 32.269531 34.261719 35.234375 34.261719 C 38.195313 34.261719 40.601563 36.664063 40.601563 39.628906 Z M 40.601563 39.628906 "/>
<path style=" stroke:none;fill-rule:nonzero;fill:rgb(94.901961%,94.901961%,94.901961%);fill-opacity:1;" d="M 25.511719 39.628906 C 25.511719 42.589844 23.109375 44.996094 20.144531 44.996094 C 17.179688 44.996094 14.777344 42.589844 14.777344 39.628906 C 14.777344 36.664063 17.179688 34.261719 20.144531 34.261719 C 23.109375 34.261719 25.511719 36.664063 25.511719 39.628906 Z M 25.511719 39.628906 "/>
<path style=" stroke:none;fill-rule:nonzero;fill:rgb(94.901961%,94.901961%,94.901961%);fill-opacity:1;" d="M 11.9375 12.640625 L 58.101563 12.640625 C 58.703125 12.640625 59.1875 13.125 59.1875 13.726563 L 59.1875 17.226563 C 59.1875 17.828125 58.703125 18.316406 58.101563 18.316406 L 11.9375 18.316406 C 11.335938 18.316406 10.851563 17.828125 10.851563 17.226563 L 10.851563 13.726563 C 10.851563 13.125 11.335938 12.640625 11.9375 12.640625 Z M 11.9375 12.640625 "/>
</g>
</svg>
