<?xml version="1.0" encoding="UTF-8"?>
<svg xmlns="http://www.w3.org/2000/svg" xmlns:xlink="http://www.w3.org/1999/xlink" width="70pt" height="70pt" viewBox="0 0 70 70" version="1.1">
<defs>
<linearGradient id="linear0" gradientUnits="userSpaceOnUse" x1="8.91" y1="12.07" x2="8.91" y2="0.12" gradientTransform="matrix(3.888889,0,0,3.888889,0,0)">
<stop offset="0" style="stop-color:rgb(0%,47.058824%,83.137255%);stop-opacity:1;"/>
<stop offset="0.16" style="stop-color:rgb(7.45098%,50.196078%,85.490196%);stop-opacity:1;"/>
<stop offset="0.53" style="stop-color:rgb(23.529412%,56.862745%,89.803922%);stop-opacity:1;"/>
<stop offset="0.82" style="stop-color:rgb(33.333333%,61.176471%,92.54902%);stop-opacity:1;"/>
<stop offset="1" style="stop-color:rgb(36.862745%,62.745098%,93.72549%);stop-opacity:1;"/>
</linearGradient>
<filter id="alpha" filterUnits="objectBoundingBox" x="0%" y="0%" width="100%" height="100%">
  <feColorMatrix type="matrix" in="SourceGraphic" values="0 0 0 0 1 0 0 0 0 1 0 0 0 0 1 0 0 0 1 0"/>
</filter>
<mask id="mask0">
  <g filter="url(#alpha)">
<rect x="0" y="0" width="70" height="70" style="fill:rgb(0%,0%,0%);fill-opacity:0.74902;stroke:none;"/>
  </g>
</mask>
<clipPath id="clip1">
  <rect x="0" y="0" width="70" height="70"/>
</clipPath>
<g id="surface5" clip-path="url(#clip1)">
<path style=" stroke:none;fill-rule:nonzero;fill:rgb(71.764706%,47.843137%,95.686275%);fill-opacity:1;" d="M 26.523438 42.933594 L 26.523438 65.527344 L 32.628906 66.5 L 32.628906 41.882813 Z M 19.015625 44.179688 L 19.015625 63.933594 L 24.34375 65.023438 L 24.34375 43.285156 Z M 19.015625 44.179688 "/>
</g>
</defs>
<g id="surface1">
<path style=" stroke:none;fill-rule:nonzero;fill:url(#linear0);" d="M 67.433594 32.394531 C 58.488281 36.304688 48.066406 32.21875 44.160156 23.273438 C 40.25 14.328125 44.332031 3.910156 53.277344 0 C 60.648438 2.753906 65.574219 9.75 65.683594 17.617188 L 83.535156 35.464844 L 115.035156 35.464844 C 110.910156 39.589844 110.910156 46.277344 115.035156 50.398438 C 119.15625 54.523438 125.84375 54.523438 129.964844 50.398438 Z M 67.433594 32.394531 "/>
<path style=" stroke:none;fill-rule:nonzero;fill:rgb(94.901961%,94.901961%,94.901961%);fill-opacity:1;" d="M 24.382813 25.589844 L 34.417969 15.554688 C 38.710938 6.050781 34.488281 -5.136719 24.984375 -9.429688 C 15.480469 -13.726563 4.296875 -9.503906 0 0 L 10.070313 10.070313 C 7.289063 9.816406 5.246094 7.351563 5.503906 4.570313 C 5.761719 1.789063 8.222656 -0.257813 11.003906 0 L 4.820313 0 C 4.980469 -0.0898438 5.171875 -0.0898438 5.328125 0 L 5.328125 12.601563 C 1.847656 12.480469 -0.875 9.566406 -0.757813 6.085938 C -0.640625 2.605469 2.277344 -0.117188 5.753906 0 L 31.890625 0 C 32.054688 0.0976563 32.136719 0.292969 32.089844 0.480469 C 32.039063 0.667969 31.867188 0.796875 31.675781 0.796875 C 31.480469 0.796875 31.3125 0.667969 31.261719 0.480469 C 31.210938 0.292969 31.292969 0.0976563 31.460938 0 L 31.460938 27.222656 C 23.945313 27.222656 17.851563 21.128906 17.851563 13.609375 C 17.851563 6.09375 23.945313 0 31.460938 0 L 24.734375 0 C 24.871094 0.230469 24.824219 0.523438 24.617188 0.695313 C 24.414063 0.867188 24.117188 0.867188 23.914063 0.695313 C 23.710938 0.523438 23.664063 0.230469 23.800781 0 Z M 24.382813 25.589844 "/>
<path style=" stroke:none;fill-rule:nonzero;fill:rgb(65.098039%,47.843137%,95.686275%);fill-opacity:1;" d="M 53.898438 44.683594 C 41.5625 44.824219 31.445313 34.933594 31.304688 22.59375 C 31.164063 10.253906 41.054688 0.140625 53.394531 0 L 35.117188 -6.183594 L 34.609375 -6.183594 L 34.609375 26.289063 L 35.117188 26.289063 L 53.433594 18.976563 C 48.191406 18.988281 43.9375 14.75 43.925781 9.507813 C 43.914063 4.269531 48.152344 0.0117188 53.394531 0 Z M 53.898438 44.683594 "/>
<path style=" stroke:none;fill-rule:nonzero;fill:rgb(33.333333%,18.431373%,60%);fill-opacity:1;" d="M 34.648438 38.109375 L 17.109375 41.339844 C 5.695313 41.199219 -3.445313 31.832031 -3.304688 20.417969 C -3.164063 9 6.203125 -0.140625 17.617188 0 L 17.617188 66.109375 C -0.640625 66.109375 -15.4375 51.3125 -15.4375 33.054688 C -15.4375 14.800781 -0.640625 0 17.617188 0 L 35.195313 3.890625 C 34.121094 8.742188 29.316406 11.808594 24.460938 10.734375 C 19.605469 9.660156 16.542969 4.855469 17.617188 0 L 17.617188 -31.109375 C 26.207031 -30.894531 33 -23.757813 32.785156 -15.167969 C 32.570313 -6.574219 25.429688 0.214844 16.839844 0 Z M 34.648438 38.109375 "/>
<use xlink:href="#surface5" mask="url(#mask0)"/>
</g>
</svg>
