<?xml version="1.0" encoding="UTF-8"?>
<svg xmlns="http://www.w3.org/2000/svg" xmlns:xlink="http://www.w3.org/1999/xlink" width="70pt" height="70pt" viewBox="0 0 70 70" version="1.1">
<defs>
<radialGradient id="radial0" gradientUnits="userSpaceOnUse" cx="5.72" cy="7.45" fx="5.72" fy="7.45" r="8.42" gradientTransform="matrix(3.927778,0,0,3.927778,12.561111,5.872222)">
<stop offset="0.18" style="stop-color:rgb(36.862745%,62.745098%,93.72549%);stop-opacity:1;"/>
<stop offset="0.56" style="stop-color:rgb(36.078431%,62.352941%,93.333333%);stop-opacity:1;"/>
<stop offset="0.69" style="stop-color:rgb(33.333333%,61.176471%,92.941176%);stop-opacity:1;"/>
<stop offset="0.78" style="stop-color:rgb(29.019608%,59.215686%,91.372549%);stop-opacity:1;"/>
<stop offset="0.86" style="stop-color:rgb(22.352941%,56.470588%,89.411765%);stop-opacity:1;"/>
<stop offset="0.93" style="stop-color:rgb(13.72549%,52.941176%,87.058824%);stop-opacity:1;"/>
<stop offset="0.99" style="stop-color:rgb(3.137255%,48.235294%,83.921569%);stop-opacity:1;"/>
<stop offset="1" style="stop-color:rgb(0%,47.058824%,83.137255%);stop-opacity:1;"/>
</radialGradient>
<radialGradient id="radial1" gradientUnits="userSpaceOnUse" cx="28.18" cy="202.29" fx="28.18" fy="202.29" r="2.7" gradientTransform="matrix(3.694444,0,0,3.694444,-69.105556,-719.483333)">
<stop offset="0.19" style="stop-color:rgb(54.901961%,55.686275%,56.470588%);stop-opacity:1;"/>
<stop offset="0.35" style="stop-color:rgb(51.764706%,52.54902%,53.333333%);stop-opacity:1;"/>
<stop offset="0.6" style="stop-color:rgb(43.137255%,43.921569%,44.313725%);stop-opacity:1;"/>
<stop offset="0.91" style="stop-color:rgb(29.019608%,29.411765%,29.803922%);stop-opacity:1;"/>
<stop offset="1" style="stop-color:rgb(24.313725%,24.705882%,24.705882%);stop-opacity:1;"/>
</radialGradient>
</defs>
<g id="surface1">
<path style=" stroke:none;fill-rule:nonzero;fill:url(#radial0);" d="M 68.054688 35 C 68.054688 16.808594 53.257813 2.0625 35 2.0625 C 16.742188 2.0625 1.945313 16.808594 1.945313 35 C 1.945313 53.191406 16.742188 67.9375 35 67.9375 C 53.257813 67.9375 68.054688 53.191406 68.054688 35 Z M 68.054688 35 "/>
<path style=" stroke:none;fill-rule:nonzero;fill:rgb(100%,100%,100%);fill-opacity:1;" d="M 63.777344 35 C 63.777344 19.171875 50.894531 6.339844 35 6.339844 C 19.105469 6.339844 6.222656 19.171875 6.222656 35 C 6.222656 50.828125 19.105469 63.660156 35 63.660156 C 50.894531 63.660156 63.777344 50.828125 63.777344 35 Z M 63.777344 35 "/>
<path style=" stroke:none;fill-rule:nonzero;fill:rgb(61.176471%,92.156863%,100%);fill-opacity:1;" d="M 10.578125 36.710938 C 3.171875 46.960938 -10.863281 49.804688 -21.675781 43.25 C -32.488281 36.691406 -36.453125 22.929688 -30.785156 11.625 C -25.121094 0.320313 -11.722656 -4.738281 0 0 L 7.777344 -7.777344 C 13.828125 -10.148438 20.714844 -7.949219 24.269531 -2.511719 C 27.828125 2.929688 27.085938 10.117188 22.488281 14.710938 C 17.894531 19.308594 10.707031 20.050781 5.269531 16.492188 C -0.171875 12.933594 -2.371094 6.050781 0 0 Z M 10.578125 36.710938 "/>
<path style=" stroke:none;fill-rule:nonzero;fill:rgb(19.607843%,74.509804%,86.666667%);fill-opacity:1;" d="M 51.0625 16.605469 C 47.066406 12.011719 44.945313 6.085938 45.109375 0 L 45.109375 10.851563 C 42.550781 16.558594 36.351563 19.699219 30.238281 18.394531 C 24.121094 17.085938 19.75 11.679688 19.75 5.425781 C 19.75 -0.828125 24.121094 -6.234375 30.238281 -7.542969 C 36.351563 -8.851563 42.550781 -5.707031 45.109375 0 Z M 18.9375 16.605469 L 26.714844 24.382813 C 19.984375 19.304688 18.644531 9.726563 23.722656 2.996094 C 28.800781 -3.738281 38.378906 -5.078125 45.109375 0 L 45.109375 10.65625 C 46.15625 6.65625 48.203125 2.988281 51.0625 0 Z M 45.8125 26.640625 C 39.984375 26.945313 34.578125 23.601563 32.246094 18.253906 C 29.914063 12.90625 31.144531 6.671875 35.332031 2.609375 C 39.519531 -1.453125 45.785156 -2.492188 51.0625 0 L 61.910156 0 C 57.265625 1.449219 52.285156 1.449219 47.640625 0 Z M 45.8125 26.640625 "/>
<path style=" stroke:none;fill-rule:nonzero;fill:rgb(31.372549%,90.196078%,100%);fill-opacity:1;" d="M 24.1875 26.640625 L 16.410156 18.859375 C 17.546875 10.464844 23.03125 3.292969 30.839844 0 L 41.6875 0 C 47.832031 2.582031 51.304688 9.140625 49.988281 15.671875 C 48.671875 22.207031 42.929688 26.90625 36.265625 26.90625 C 29.597656 26.90625 23.859375 22.207031 22.539063 15.671875 C 21.222656 9.140625 24.695313 2.582031 30.839844 0 Z M 24.1875 26.640625 "/>
<path style=" stroke:none;fill-rule:nonzero;fill:rgb(94.117647%,25.098039%,28.627451%);fill-opacity:1;" d="M 54.988281 27.222656 C 47.472656 27.492188 41.160156 21.613281 40.890625 14.097656 C 40.625 6.578125 46.5 0.269531 54.015625 0 L 36.75 32.707031 L 37.996094 35.855469 L 54.015625 29.515625 C 45.867188 29.515625 39.257813 22.910156 39.257813 14.757813 C 39.257813 6.609375 45.867188 0 54.015625 0 Z M 54.988281 27.222656 "/>
<path style=" stroke:none;fill-rule:nonzero;fill:url(#radial1);" d="M 39.667969 35 C 39.667969 37.578125 37.578125 39.667969 35 39.667969 C 32.421875 39.667969 30.332031 37.578125 30.332031 35 C 30.332031 32.421875 32.421875 30.332031 35 30.332031 C 37.578125 30.332031 39.667969 32.421875 39.667969 35 Z M 39.667969 35 "/>
</g>
</svg>
