<?xml version="1.0" encoding="UTF-8"?>
<svg xmlns="http://www.w3.org/2000/svg" xmlns:xlink="http://www.w3.org/1999/xlink" width="70pt" height="70pt" viewBox="0 0 70 70" version="1.1">
<defs>
<linearGradient id="linear0" gradientUnits="userSpaceOnUse" x1="2.59" y1="10.16" x2="15.41" y2="10.16" gradientTransform="matrix(3.888889,0,0,3.888889,0,0)">
<stop offset="0" style="stop-color:rgb(0%,35.686275%,63.137255%);stop-opacity:1;"/>
<stop offset="0.07" style="stop-color:rgb(0%,37.647059%,66.27451%);stop-opacity:1;"/>
<stop offset="0.36" style="stop-color:rgb(0%,44.313725%,78.431373%);stop-opacity:1;"/>
<stop offset="0.52" style="stop-color:rgb(0%,47.058824%,83.137255%);stop-opacity:1;"/>
<stop offset="0.64" style="stop-color:rgb(0%,45.490196%,80.392157%);stop-opacity:1;"/>
<stop offset="0.82" style="stop-color:rgb(0%,41.568627%,73.333333%);stop-opacity:1;"/>
<stop offset="1" style="stop-color:rgb(0%,35.686275%,63.137255%);stop-opacity:1;"/>
</linearGradient>
</defs>
<g id="surface1">
<path style=" stroke:none;fill-rule:nonzero;fill:url(#linear0);" d="M 35 19.988281 C 21.234375 19.988281 10.070313 16.101563 10.070313 10.964844 L 10.070313 59.035156 C 10.070313 63.972656 21.039063 67.976563 34.648438 68.054688 L 35 68.054688 C 48.765625 68.054688 59.929688 64.167969 59.929688 59.035156 L 59.929688 10.964844 C 59.929688 15.984375 48.765625 19.988281 35 19.988281 Z M 35 19.988281 "/>
<path style=" stroke:none;fill-rule:nonzero;fill:rgb(90.980392%,90.980392%,90.980392%);fill-opacity:1;" d="M 59.929688 10.964844 C 59.929688 15.984375 48.765625 19.988281 35 19.988281 C 21.234375 19.988281 10.070313 16.101563 10.070313 10.964844 C 10.070313 5.832031 21.234375 1.945313 35 1.945313 C 48.765625 1.945313 59.929688 5.832031 59.929688 10.964844 "/>
<path style=" stroke:none;fill-rule:nonzero;fill:rgb(31.372549%,90.196078%,100%);fill-opacity:1;" d="M 54.132813 10.226563 C 54.132813 13.417969 45.539063 15.984375 35 15.984375 C 24.460938 15.984375 15.867188 13.417969 15.867188 10.226563 C 15.867188 7.039063 24.460938 4.511719 35 4.511719 C 45.539063 4.511719 54.132813 7.078125 54.132813 10.226563 "/>
<path style=" stroke:none;fill-rule:nonzero;fill:rgb(9.803922%,54.117647%,70.196078%);fill-opacity:1;" d="M 35 11.667969 C 35.21875 7.695313 35.964844 3.773438 37.214844 0 Z M 35 11.667969 "/>
<path style=" stroke:none;fill-rule:nonzero;fill:rgb(94.901961%,94.901961%,94.901961%);fill-opacity:1;" d="M 49.15625 35 L 49.15625 41.339844 L 45.265625 41.339844 C 33.851563 41.488281 24.476563 32.355469 24.324219 20.941406 C 24.175781 9.527344 33.308594 0.148438 44.722656 0 L 44.722656 35 L 38.890625 35 L 38.890625 41.921875 C 27.3125 40.3125 19.234375 29.621094 20.84375 18.042969 C 22.457031 6.46875 33.144531 -1.609375 44.722656 0 L 50.515625 0 L 51.527344 -0.503906 C 51.527344 -0.503906 51.101563 1.089844 50.515625 1.167969 L 41.261719 1.167969 L 41.261719 5.054688 L 51.605469 5.054688 C 51.171875 7.191406 49.332031 8.75 47.15625 8.824219 C 44.980469 8.898438 43.035156 7.472656 42.457031 5.371094 C 41.878906 3.273438 42.816406 1.050781 44.722656 0 L 44.722656 35 Z M 37.0625 35 L 37.0625 33.09375 C 38.929688 33.921875 39.773438 36.105469 38.945313 37.976563 C 38.121094 39.84375 35.933594 40.6875 34.066406 39.859375 L 37.722656 43.515625 L 34.6875 50.90625 L 30.800781 43.515625 C 30.351563 42.035156 30.894531 40.429688 32.15625 39.527344 C 33.414063 38.625 35.109375 38.625 36.367188 39.527344 C 37.625 40.429688 38.171875 42.035156 37.722656 43.515625 C 37.839844 43.511719 37.957031 43.511719 38.070313 43.515625 C 36.710938 43.945313 36.398438 44.839844 36.398438 46.355469 L 36.398438 59.226563 L 40.949219 59.226563 L 40.949219 37.179688 L 43.398438 43.285156 C 41.5625 42.421875 40.605469 40.367188 41.128906 38.40625 C 41.648438 36.445313 43.496094 35.136719 45.519531 35.296875 C 47.539063 35.457031 49.160156 37.039063 49.367188 39.054688 C 49.570313 41.074219 48.304688 42.953125 46.355469 43.515625 C 48.066406 43.515625 48.765625 42.503906 49.464844 40.949219 L 52.070313 35.078125 L 52.070313 43.4375 L 56.660156 43.4375 L 56.660156 35 Z M 37.0625 35 "/>
</g>
</svg>
