<?xml version="1.0" encoding="UTF-8"?>
<svg xmlns="http://www.w3.org/2000/svg" xmlns:xlink="http://www.w3.org/1999/xlink" width="70pt" height="70pt" viewBox="0 0 70 70" version="1.1">
<defs>
<linearGradient id="linear0" gradientUnits="userSpaceOnUse" x1="9" y1="19.25" x2="9" y2="-0.46" gradientTransform="matrix(3.888889,-0.000000000000000009,0.000000000000000009,3.888889,-0.0155556,-0.00644332)">
<stop offset="0" style="stop-color:rgb(36.862745%,58.823529%,14.117647%);stop-opacity:1;"/>
<stop offset="0.55" style="stop-color:rgb(42.745098%,67.843137%,16.470588%);stop-opacity:1;"/>
<stop offset="1" style="stop-color:rgb(46.27451%,73.72549%,17.647059%);stop-opacity:1;"/>
</linearGradient>
<linearGradient id="linear1" gradientUnits="userSpaceOnUse" x1="7.54" y1="6.44" x2="7.53" y2="5.18" gradientTransform="matrix(3.888889,0,0,3.888889,0,0)">
<stop offset="0" style="stop-color:rgb(80%,80%,80%);stop-opacity:1;"/>
<stop offset="0.12" style="stop-color:rgb(84.313725%,84.313725%,84.313725%);stop-opacity:1;"/>
<stop offset="0.42" style="stop-color:rgb(92.156863%,92.156863%,92.156863%);stop-opacity:1;"/>
<stop offset="0.72" style="stop-color:rgb(97.254902%,97.254902%,97.254902%);stop-opacity:1;"/>
<stop offset="1" style="stop-color:rgb(98.823529%,98.823529%,98.823529%);stop-opacity:1;"/>
</linearGradient>
<filter id="alpha" filterUnits="objectBoundingBox" x="0%" y="0%" width="100%" height="100%">
  <feColorMatrix type="matrix" in="SourceGraphic" values="0 0 0 0 1 0 0 0 0 1 0 0 0 0 1 0 0 0 1 0"/>
</filter>
<mask id="mask0">
  <g filter="url(#alpha)">
<rect x="0" y="0" width="70" height="70" style="fill:rgb(0%,0%,0%);fill-opacity:0.54902;stroke:none;"/>
  </g>
</mask>
<clipPath id="clip1">
  <rect x="0" y="0" width="70" height="70"/>
</clipPath>
<g id="surface5" clip-path="url(#clip1)">
<path style=" stroke:none;fill-rule:nonzero;fill:rgb(94.901961%,94.901961%,94.901961%);fill-opacity:1;" d="M 25.9375 27.222656 L 26.679688 28.390625 L 27.222656 29.167969 C 19.449219 19.632813 20.511719 5.675781 29.640625 -2.570313 C 38.769531 -10.820313 52.761719 -10.464844 61.460938 -1.765625 C 70.160156 6.933594 70.511719 20.925781 62.265625 30.054688 C 54.019531 39.183594 40.0625 40.246094 30.527344 32.472656 L 56.621094 32.472656 Z M 28.15625 18.394531 C 32.042969 10.535156 41.566406 7.3125 49.429688 11.199219 C 57.289063 15.085938 60.507813 24.613281 56.621094 32.472656 C 58.691406 34.03125 60.042969 36.355469 60.382813 38.921875 C 60.71875 41.488281 60.007813 44.082031 58.410156 46.121094 L 62.300781 46.121094 Z M 31.773438 23.878906 C 36.734375 23.597656 40.980469 27.394531 41.261719 32.355469 C 41.539063 37.316406 37.746094 41.566406 32.785156 41.84375 L 48.882813 41.84375 L 48.882813 41.570313 C 52.75 37.707031 59.015625 37.707031 62.882813 41.570313 C 66.75 45.4375 66.75 51.707031 62.882813 55.570313 Z M 41.960938 28 C 44.085938 19.585938 52.5 14.367188 60.984375 16.207031 C 69.46875 18.050781 74.964844 26.28125 73.410156 34.824219 C 71.859375 43.363281 63.816406 49.136719 55.226563 47.871094 C 46.640625 46.609375 40.597656 38.765625 41.570313 30.140625 L 56.503906 45.070313 L 56.503906 46.511719 Z M 41.960938 28 "/>
</g>
<mask id="mask1">
  <g filter="url(#alpha)">
<rect x="0" y="0" width="70" height="70" style="fill:rgb(0%,0%,0%);fill-opacity:0.54902;stroke:none;"/>
  </g>
</mask>
<clipPath id="clip2">
  <rect x="0" y="0" width="70" height="70"/>
</clipPath>
<g id="surface8" clip-path="url(#clip2)">
<path style=" stroke:none;fill-rule:nonzero;fill:rgb(94.901961%,94.901961%,94.901961%);fill-opacity:1;" d="M 35.816406 17.1875 C 31.070313 27.078125 19.203125 31.25 9.3125 26.503906 C -0.578125 21.757813 -4.746094 9.890625 0 0 C 4.832031 0.484375 8.359375 4.792969 7.875 9.625 C 7.390625 14.457031 3.082031 17.984375 -1.75 17.5 C -2.140625 17.5 -2.488281 17.929688 -2.878906 18.121094 C 8.945313 21.15625 16.269531 32.980469 13.714844 44.917969 C 11.164063 56.855469 -0.359375 64.648438 -12.386719 62.578125 C -24.417969 60.507813 -32.671875 49.3125 -31.089844 37.210938 C -29.507813 25.105469 -18.652344 16.40625 -6.496094 17.5 L -7.816406 18.003906 C -10.042969 8.9375 -5.957031 -0.5 2.175781 -5.082031 C 10.308594 -9.664063 20.5 -8.269531 27.101563 -1.667969 C 33.703125 4.933594 35.097656 15.125 30.515625 23.257813 C 25.933594 31.390625 16.492188 35.476563 7.429688 33.25 L 10.8125 33.25 C 12.386719 33.714844 14.726563 33.957031 16.777344 33.867188 C 18.824219 33.773438 20.191406 33.367188 20.253906 32.828125 C 20.320313 32.289063 19.070313 31.722656 17.070313 31.382813 C 3.992188 17.097656 4.722656 -5.019531 18.714844 -18.410156 C 32.710938 -31.800781 54.839844 -31.558594 68.535156 -17.863281 C 82.230469 -4.167969 82.472656 17.960938 69.082031 31.957031 C 55.691406 45.949219 33.574219 46.679688 19.289063 33.601563 L 19.289063 37.488281 Z M 44.917969 23.683594 L 44.214844 23.683594 L 43.828125 23.449219 C 47.703125 23.128906 51.109375 26.007813 51.429688 29.886719 C 51.753906 33.761719 48.871094 37.167969 44.996094 37.488281 L 45.460938 37.761719 L 45.890625 37.996094 L 46.976563 38.539063 C 53.277344 42.554688 55.285156 50.828125 51.523438 57.28125 C 47.765625 63.738281 39.582031 66.078125 32.980469 62.582031 C 26.375 59.085938 23.710938 51.003906 26.9375 44.265625 C 30.164063 37.527344 38.132813 34.535156 44.996094 37.488281 Z M 44.917969 23.683594 "/>
</g>
</defs>
<g id="surface1">
<path style=" stroke:none;fill-rule:nonzero;fill:url(#linear0);" d="M 2.570313 33.433594 L 33.394531 2.605469 C 34.261719 1.742188 35.664063 1.742188 36.53125 2.605469 L 67.355469 33.433594 C 68.222656 34.300781 68.222656 35.703125 67.355469 36.566406 L 36.53125 67.394531 C 35.664063 68.257813 34.261719 68.257813 33.394531 67.394531 L 2.570313 36.566406 C 1.703125 35.703125 1.703125 34.300781 2.570313 33.433594 Z M 2.570313 33.433594 "/>
<path style=" stroke:none;fill-rule:nonzero;fill:rgb(100%,100%,100%);fill-opacity:1;" d="M 42.351563 40.871094 L 53.394531 40.871094 C 42.109375 55.617188 21.003906 58.417969 6.261719 47.132813 C -8.484375 35.847656 -11.285156 14.746094 0 0 L 0 29.4375 C -8.128906 29.515625 -14.78125 22.984375 -14.855469 14.855469 C -14.929688 6.726563 -8.402344 0.0742188 -0.273438 0 L -3.304688 3.035156 L -3.304688 3.226563 C -4.195313 3.226563 -4.917969 2.503906 -4.917969 1.613281 C -4.917969 0.722656 -4.195313 0 -3.304688 0 L 36.011719 19.09375 C 30.738281 19.09375 26.464844 14.820313 26.464844 9.546875 C 26.464844 4.273438 30.738281 0 36.011719 0 L 32.589844 3.421875 C 31.644531 2.476563 31.644531 0.945313 32.589844 0 C 33.535156 -0.945313 35.066406 -0.945313 36.011719 0 L 49.273438 13.261719 C 45.609375 16.921875 39.671875 16.921875 36.011719 13.261719 C 32.347656 9.597656 32.347656 3.660156 36.011719 0 L 32.785156 3.226563 C 31.890625 2.335938 31.890625 0.890625 32.785156 0 C 33.675781 -0.890625 35.121094 -0.890625 36.011719 0 Z M 42.351563 40.871094 "/>
<path style=" stroke:none;fill-rule:nonzero;fill:rgb(100%,100%,100%);fill-opacity:1;" d="M 26.910156 40.871094 L 15.867188 40.871094 C 4.582031 45.253906 -8.121094 39.65625 -12.503906 28.371094 C -16.882813 17.082031 -11.285156 4.382813 0 0 L 0 29.4375 C -8.128906 29.4375 -14.71875 22.847656 -14.71875 14.71875 C -14.71875 6.589844 -8.128906 0 0 0 L 3.070313 3.035156 L 3.070313 3.226563 C 3.964844 2.378906 4 0.96875 3.148438 0.078125 C 2.300781 -0.8125 0.890625 -0.847656 0 0 L 13.417969 -13.300781 C 9.742188 -17.003906 3.761719 -17.03125 0.0585938 -13.359375 C -3.648438 -9.6875 -3.671875 -3.703125 0 0 L 3.421875 3.421875 C 2.476563 4.367188 0.945313 4.367188 0 3.421875 C -0.945313 2.476563 -0.945313 0.945313 0 0 L 23.957031 36.359375 C 13.914063 42.976563 0.414063 40.199219 -6.203125 30.160156 C -12.816406 20.117188 -10.039063 6.613281 0 0 L 0 0.195313 L 3.035156 3.226563 C 2.140625 3.035156 1.574219 2.15625 1.769531 1.265625 C 1.960938 0.371094 2.84375 -0.191406 3.734375 0 Z M 26.910156 40.871094 "/>
<path style=" stroke:none;fill-rule:nonzero;fill:rgb(100%,100%,100%);fill-opacity:1;" d="M 26.523438 50.828125 L 34.300781 58.605469 C 50.484375 49.132813 55.925781 28.335938 46.453125 12.152344 C 36.980469 -4.03125 16.183594 -9.472656 0 0 L 7.777344 -7.777344 C 9.925781 -7.59375 11.519531 -5.707031 11.335938 -3.558594 C 11.152344 -1.410156 9.265625 0.183594 7.117188 0 L 37.800781 0 C 37.976563 0.0898438 38.066406 0.289063 38.019531 0.480469 C 37.976563 0.671875 37.804688 0.808594 37.605469 0.808594 C 37.40625 0.808594 37.234375 0.671875 37.191406 0.480469 C 37.144531 0.289063 37.234375 0.0898438 37.410156 0 L 37.410156 31.109375 C 28.820313 31.230469 21.761719 24.359375 21.640625 15.769531 C 21.523438 7.179688 28.390625 0.117188 36.984375 0 L 32.199219 0 C 32.332031 -0.078125 32.496094 -0.078125 32.628906 0 L 32.628906 18.667969 C 27.472656 18.558594 23.382813 14.292969 23.488281 9.140625 C 23.597656 3.984375 27.863281 -0.105469 33.015625 0 L 26.792969 0 C 26.867188 -0.113281 26.992188 -0.183594 27.125 -0.183594 C 27.257813 -0.183594 27.382813 -0.113281 27.457031 0 Z M 26.523438 50.828125 "/>
<path style=" stroke:none;fill-rule:nonzero;fill:rgb(0%,47.058824%,83.137255%);fill-opacity:1;" d="M 41.417969 30.253906 C 33.0625 41.691406 17.015625 44.191406 5.582031 35.835938 C -5.855469 27.480469 -8.355469 11.4375 0 0 "/>
<path style=" stroke:none;fill-rule:nonzero;fill:url(#linear1);" d="M 32.667969 21.582031 C 32.667969 23.453125 31.152344 24.964844 29.285156 24.964844 C 27.414063 24.964844 25.898438 23.453125 25.898438 21.582031 C 25.898438 19.714844 27.414063 18.199219 29.285156 18.199219 C 31.152344 18.199219 32.667969 19.714844 32.667969 21.582031 Z M 32.667969 21.582031 "/>
<use xlink:href="#surface5" mask="url(#mask0)"/>
<path style=" stroke:none;fill-rule:nonzero;fill:rgb(94.901961%,94.901961%,94.901961%);fill-opacity:1;" d="M 43.710938 22.320313 C 43.710938 23.609375 42.667969 24.65625 41.378906 24.65625 C 40.089844 24.65625 39.042969 23.609375 39.042969 22.320313 C 39.042969 21.035156 40.089844 19.988281 41.378906 19.988281 C 42.667969 19.988281 43.710938 21.035156 43.710938 22.320313 Z M 43.710938 22.320313 "/>
<use xlink:href="#surface8" mask="url(#mask1)"/>
<path style=" stroke:none;fill-rule:nonzero;fill:rgb(94.901961%,94.901961%,94.901961%);fill-opacity:1;" d="M 32.667969 21.582031 C 32.667969 23.453125 31.152344 24.964844 29.285156 24.964844 C 27.414063 24.964844 25.898438 23.453125 25.898438 21.582031 C 25.898438 19.714844 27.414063 18.199219 29.285156 18.199219 C 31.152344 18.199219 32.667969 19.714844 32.667969 21.582031 Z M 32.667969 21.582031 "/>
<path style=" stroke:none;fill-rule:nonzero;fill:rgb(94.901961%,94.901961%,94.901961%);fill-opacity:1;" d="M 38.578125 27.726563 C 38.578125 28.929688 37.601563 29.90625 36.398438 29.90625 C 35.195313 29.90625 34.222656 28.929688 34.222656 27.726563 C 34.222656 26.523438 35.195313 25.550781 36.398438 25.550781 C 37.601563 25.550781 38.578125 26.523438 38.578125 27.726563 Z M 38.578125 27.726563 "/>
</g>
</svg>
