<?xml version="1.0" encoding="UTF-8"?>
<svg xmlns="http://www.w3.org/2000/svg" xmlns:xlink="http://www.w3.org/1999/xlink" width="70pt" height="70pt" viewBox="0 0 70 70" version="1.1">
<g id="surface1">
<path style=" stroke:none;fill-rule:nonzero;fill:rgb(0%,0%,0%);fill-opacity:1;" d="M 35 0 C 35.773438 -16.105469 49.191406 -28.6875 65.308594 -28.429688 C 81.429688 -28.171875 94.4375 -15.164063 94.695313 0.957031 C 94.953125 17.078125 82.371094 30.492188 66.265625 31.265625 L 66.265625 84.933594 C 65.703125 72.050781 73.105469 60.140625 84.90625 54.945313 C 96.710938 49.75 110.492188 52.335938 119.613281 61.453125 C 128.730469 70.574219 131.316406 84.355469 126.121094 96.160156 C 120.925781 107.960938 109.015625 115.363281 96.132813 114.800781 L 96.132813 119.464844 C 95.375 127.261719 95.804688 132.851563 97.09375 131.949219 C 98.382813 131.046875 100.042969 123.996094 100.800781 116.199219 C 99.078125 120.195313 97.105469 122.65625 95.199219 123.199219 C 100.316406 112.9375 111.4375 107.109375 122.785156 108.742188 C 134.136719 110.371094 143.164063 119.09375 145.1875 130.382813 C 147.210938 141.667969 141.769531 152.980469 131.691406 158.453125 C 121.609375 163.921875 109.160156 162.316406 100.800781 154.464844 L 130.667969 184.332031 L 160.535156 184.332031 C 161.121094 179.792969 163.308594 176.859375 165.640625 177.488281 C 167.972656 178.117188 169.71875 182.109375 169.71875 186.8125 C 169.71875 191.511719 167.972656 195.449219 165.640625 196.003906 C 163.308594 196.5625 161.121094 193.558594 160.535156 189 C 165.742188 189.945313 171.007813 189.144531 172.292969 187.210938 C 173.582031 185.28125 170.40625 182.945313 165.199219 182 C 175.304688 172.054688 190.835938 170.152344 203.039063 177.367188 C 215.246094 184.578125 221.070313 199.101563 217.230469 212.75 C 213.394531 226.394531 200.851563 235.753906 186.675781 235.546875 C 172.5 235.339844 160.238281 225.621094 156.800781 211.867188 L 186.667969 241.734375 C 128.546875 284.644531 46.644531 272.320313 3.734375 214.199219 C -39.179688 156.082031 -26.851563 74.179688 31.265625 31.265625 Z M 35 65.332031 L 42.933594 64.398438 L 50.398438 61.132813 L 56.464844 56.464844 C 59.851563 42.140625 73.164063 32.417969 87.839844 33.554688 C 102.515625 34.691406 114.171875 46.351563 115.3125 61.027344 C 116.449219 75.699219 106.722656 89.015625 92.398438 92.398438 L 92.398438 93.332031 C 92.265625 90.117188 91.949219 87.4375 91.464844 85.398438 C 93.585938 95.972656 90.84375 106.933594 84 115.265625 L 77.933594 110.601563 L 70.464844 107.332031 L 35 4.667969 L 27.066406 5.601563 L 19.601563 8.867188 L 13.535156 13.535156 C 23.476563 22.746094 25.964844 37.5 19.601563 49.464844 C 17.535156 32.089844 26.707031 15.316406 42.449219 7.675781 C 58.191406 0.0351563 77.046875 3.207031 89.417969 15.582031 C 101.792969 27.953125 104.964844 46.808594 97.324219 62.550781 C 89.683594 78.292969 72.910156 87.464844 55.535156 85.398438 L 55.535156 90.066406 L 61.601563 94.734375 L 69.066406 98 Z M 37.332031 32.667969 L 56 32.667969 L 56 37.332031 L 37.332031 37.332031 L 37.332031 56 L 32.667969 56 L 32.667969 37.332031 L 14 37.332031 L 14 32.667969 L 32.667969 32.667969 L 32.667969 14 L 37.332031 14 Z M 37.332031 32.667969 "/>
</g>
</svg>
