<?xml version="1.0" encoding="UTF-8"?>
<svg xmlns="http://www.w3.org/2000/svg" xmlns:xlink="http://www.w3.org/1999/xlink" width="70pt" height="70pt" viewBox="0 0 70 70" version="1.1">
<defs>
<linearGradient id="linear0" gradientUnits="userSpaceOnUse" x1="5.82" y1="25.68" x2="5.82" y2="14.64" gradientTransform="matrix(3.888889,0,0,3.927778,0,-44.372222)">
<stop offset="0" style="stop-color:rgb(36.862745%,58.823529%,14.117647%);stop-opacity:1;"/>
<stop offset="0.01" style="stop-color:rgb(37.254902%,59.215686%,14.117647%);stop-opacity:1;"/>
<stop offset="0.35" style="stop-color:rgb(42.352941%,67.058824%,16.078431%);stop-opacity:1;"/>
<stop offset="0.68" style="stop-color:rgb(45.098039%,72.156863%,17.254902%);stop-opacity:1;"/>
<stop offset="1" style="stop-color:rgb(46.27451%,73.72549%,17.647059%);stop-opacity:1;"/>
</linearGradient>
</defs>
<g id="surface1">
<path style=" stroke:none;fill-rule:nonzero;fill:rgb(0%,47.058824%,83.137255%);fill-opacity:1;" d="M 70 35.621094 L 61.753906 43.867188 C 49.640625 43.953125 39.753906 34.203125 39.667969 22.089844 C 39.582031 9.976563 49.332031 0.0859375 61.445313 0 L 61.445313 38.890625 C 50.707031 38.996094 41.914063 30.378906 41.804688 19.640625 C 41.699219 8.898438 50.316406 0.105469 61.054688 0 L 47.445313 0 L 55.921875 8.167969 C 58.175781 9.585938 61.15625 8.90625 62.570313 6.648438 C 63.988281 4.394531 63.3125 1.417969 61.054688 0 L 63.429688 -2.410156 C 64.09375 -1.757813 64.101563 -0.683594 63.445313 -0.0195313 C 62.792969 0.644531 61.722656 0.65625 61.054688 0 L 61.054688 8.515625 C 58.703125 8.386719 56.902344 6.375 57.03125 4.023438 C 57.160156 1.671875 59.171875 -0.128906 61.523438 0 L 53.160156 0 C 53.234375 0.132813 53.203125 0.292969 53.085938 0.390625 C 52.972656 0.484375 52.804688 0.484375 52.691406 0.390625 C 52.574219 0.292969 52.542969 0.132813 52.617188 0 L 55.027344 -2.371094 C 55.683594 -1.707031 55.675781 -0.636719 55.007813 0.0195313 C 54.34375 0.675781 53.273438 0.664063 52.617188 0 L 45.265625 42.777344 L 45.265625 27.882813 L 52.382813 20.804688 C 46.636719 20.742188 42.03125 16.03125 42.097656 10.285156 C 42.160156 4.539063 46.871094 -0.0625 52.617188 0 L 50.207031 -2.371094 C 50.859375 -3.039063 51.929688 -3.046875 52.597656 -2.390625 C 53.261719 -1.738281 53.273438 -0.664063 52.617188 0 L 61.132813 0 C 61.132813 2.351563 59.226563 4.257813 56.875 4.257813 C 54.523438 4.257813 52.617188 2.351563 52.617188 0 L 52.617188 8.285156 C 50.328125 8.21875 48.527344 6.3125 48.589844 4.023438 C 48.65625 1.738281 50.5625 -0.0625 52.851563 0 L 50.476563 -2.371094 C 51.132813 -2.371094 51.664063 -1.839844 51.664063 -1.1875 C 51.664063 -0.53125 51.132813 0 50.476563 0 L 41.804688 8.207031 L 55.144531 8.207031 C 52.878906 9.496094 49.996094 8.703125 48.707031 6.4375 C 47.417969 4.171875 48.210938 1.289063 50.476563 0 L 50.476563 27.222656 C 42.960938 27.222656 36.867188 21.128906 36.867188 13.609375 C 36.867188 6.09375 42.960938 0 50.476563 0 L 70 35 C 60.335938 40.390625 48.128906 36.925781 42.738281 27.261719 C 37.347656 17.597656 40.8125 5.390625 50.476563 0 Z M 70 35.621094 "/>
<path style=" stroke:none;fill-rule:nonzero;fill:url(#linear0);" d="M 2.253906 13.261719 L 43.011719 13.261719 C 44.257813 13.261719 45.265625 14.269531 45.265625 15.515625 L 45.265625 54.484375 C 45.265625 55.730469 44.257813 56.738281 43.011719 56.738281 L 2.253906 56.738281 C 1.011719 56.738281 0 55.730469 0 54.484375 L 0 15.515625 C 0 14.269531 1.011719 13.261719 2.253906 13.261719 Z M 2.253906 13.261719 "/>
<path style=" stroke:none;fill-rule:nonzero;fill:rgb(100%,100%,100%);fill-opacity:1;" d="M 9.957031 18.589844 L 18.316406 18.589844 C 18.941406 18.589844 19.445313 19.09375 19.445313 19.714844 L 19.445313 27.609375 C 19.445313 28.234375 18.941406 28.738281 18.316406 28.738281 L 9.957031 28.738281 C 9.332031 28.738281 8.828125 28.234375 8.828125 27.609375 L 8.828125 19.714844 C 8.828125 19.09375 9.332031 18.589844 9.957031 18.589844 Z M 9.957031 18.589844 "/>
<path style=" stroke:none;fill-rule:nonzero;fill:rgb(100%,100%,100%);fill-opacity:1;" d="M 28.039063 30.214844 L 36.398438 30.214844 C 37.023438 30.214844 37.527344 30.722656 37.527344 31.34375 L 37.527344 39.238281 C 37.527344 39.863281 37.023438 40.367188 36.398438 40.367188 L 28.039063 40.367188 C 27.417969 40.367188 26.910156 39.863281 26.910156 39.238281 L 26.910156 31.34375 C 26.910156 30.722656 27.417969 30.214844 28.039063 30.214844 Z M 28.039063 30.214844 "/>
<path style=" stroke:none;fill-rule:nonzero;fill:rgb(100%,100%,100%);fill-opacity:1;" d="M 9.957031 41.261719 L 18.316406 41.261719 C 18.941406 41.261719 19.445313 41.765625 19.445313 42.390625 L 19.445313 50.285156 C 19.445313 50.90625 18.941406 51.410156 18.316406 51.410156 L 9.957031 51.410156 C 9.332031 51.410156 8.828125 50.90625 8.828125 50.285156 L 8.828125 42.390625 C 8.828125 41.765625 9.332031 41.261719 9.957031 41.261719 Z M 9.957031 41.261719 "/>
</g>
</svg>
