<?xml version="1.0" encoding="UTF-8"?>
<svg xmlns="http://www.w3.org/2000/svg" xmlns:xlink="http://www.w3.org/1999/xlink" width="70pt" height="70pt" viewBox="0 0 70 70" version="1.1">
<defs>
<linearGradient id="linear0" gradientUnits="userSpaceOnUse" x1="9" y1="15.379" x2="9" y2="2.798" gradientTransform="matrix(3.888889,0,0,3.888889,0,0)">
<stop offset="0" style="stop-color:rgb(0%,47.058824%,83.137255%);stop-opacity:1;"/>
<stop offset="0.156" style="stop-color:rgb(7.45098%,50.196078%,85.490196%);stop-opacity:1;"/>
<stop offset="0.528" style="stop-color:rgb(23.529412%,56.862745%,89.803922%);stop-opacity:1;"/>
<stop offset="0.822" style="stop-color:rgb(33.333333%,61.176471%,92.54902%);stop-opacity:1;"/>
<stop offset="1" style="stop-color:rgb(36.862745%,62.745098%,93.72549%);stop-opacity:1;"/>
</linearGradient>
<linearGradient id="linear1" gradientUnits="userSpaceOnUse" x1="-416.202" y1="-210.743" x2="-416.202" y2="-217.833" gradientTransform="matrix(3.888889,0,0,-3.888889,1661.045556,-800.17)">
<stop offset="0" style="stop-color:rgb(76.470588%,94.509804%,100%);stop-opacity:1;"/>
<stop offset="0.107" style="stop-color:rgb(74.509804%,93.72549%,99.607843%);stop-opacity:1;"/>
<stop offset="0.765" style="stop-color:rgb(19.607843%,74.509804%,86.666667%);stop-opacity:1;"/>
</linearGradient>
<filter id="alpha" filterUnits="objectBoundingBox" x="0%" y="0%" width="100%" height="100%">
  <feColorMatrix type="matrix" in="SourceGraphic" values="0 0 0 0 1 0 0 0 0 1 0 0 0 0 1 0 0 0 1 0"/>
</filter>
<mask id="mask0">
  <g filter="url(#alpha)">
<rect x="0" y="0" width="70" height="70" style="fill:rgb(0%,0%,0%);fill-opacity:0.8;stroke:none;"/>
  </g>
</mask>
<clipPath id="clip1">
  <rect x="0" y="0" width="70" height="70"/>
</clipPath>
<g id="surface5" clip-path="url(#clip1)">
<path style=" stroke:none;fill-rule:nonzero;fill:rgb(61.176471%,92.156863%,100%);fill-opacity:1;" d="M 40.234375 34.257813 L 40.234375 47.886719 L 28.453125 54.734375 L 28.453125 41.085938 Z M 40.234375 34.257813 "/>
</g>
<mask id="mask1">
  <g filter="url(#alpha)">
<rect x="0" y="0" width="70" height="70" style="fill:rgb(0%,0%,0%);fill-opacity:0.85098;stroke:none;"/>
  </g>
</mask>
<clipPath id="clip2">
  <rect x="0" y="0" width="70" height="70"/>
</clipPath>
<g id="surface8" clip-path="url(#clip2)">
<path style=" stroke:none;fill-rule:nonzero;fill:rgb(61.176471%,92.156863%,100%);fill-opacity:1;" d="M 40.234375 34.226563 L 28.453125 41.070313 L 16.675781 34.222656 L 28.453125 27.375 Z M 40.234375 34.226563 "/>
</g>
</defs>
<g id="surface1">
<path style=" stroke:none;fill-rule:nonzero;fill:url(#linear0);" d="M 69.515625 44.484375 C 57.230469 48.601563 43.933594 41.980469 39.816406 29.699219 C 35.699219 17.414063 42.320313 4.117188 54.605469 0 C 62.359375 2.882813 67.546875 10.234375 67.667969 18.507813 L 86.449219 37.289063 C 87.027344 37.289063 87.597656 37.261719 88.160156 37.214844 L 119.636719 37.214844 C 123.972656 32.882813 131 32.882813 135.332031 37.214844 C 139.667969 41.550781 139.667969 48.578125 135.332031 52.914063 Z M 69.515625 44.484375 "/>
<path style=" stroke:none;fill-rule:nonzero;fill:url(#linear1);" d="M 32.554688 37.601563 L 41.5 20.015625 C 47.027344 8.558594 42.214844 -5.214844 30.757813 -10.742188 C 19.296875 -16.269531 5.527344 -11.460938 0 0 L 8.90625 16.800781 C 4.265625 19.257813 -1.488281 17.492188 -3.945313 12.851563 C -6.40625 8.214844 -4.640625 2.460938 0 0 C 0 3.6875 -4.851563 6.671875 -10.84375 6.671875 C -16.832031 6.671875 -21.683594 3.6875 -21.683594 0 C -21.683594 -7.832031 -15.335938 -14.179688 -7.503906 -14.179688 C 0.324219 -14.179688 6.671875 -7.832031 6.671875 0 Z M 32.554688 37.601563 "/>
<path style=" stroke:none;fill-rule:nonzero;fill:rgb(100%,100%,100%);fill-opacity:1;" d="M 32.554688 37.75 C 31.820313 39.230469 31.640625 39.480469 31.640625 40.4375 C 20.472656 38.007813 13.390625 26.984375 15.820313 15.820313 C 18.25 4.652344 29.269531 -2.429688 40.4375 0 L 40.4375 0.21875 L 40.488281 0.21875 C 41.03125 3.066406 44.5 5.371094 49 5.953125 L 49 5.378906 C 44.722656 4.808594 41.4375 2.65625 41.027344 -0.0078125 C 41.203125 -2.679688 44.445313 -5.554688 49 -6.195313 L 49 -6.535156 L 48.910156 -6.484375 L 48.523438 -6.699219 C 50.386719 -4.917969 51.589844 -2.554688 51.941406 0 L 52.003906 -0.121094 L 54.769531 -5.566406 L 54.273438 -5.851563 L 51.277344 0.0507813 Z M 32.554688 37.75 "/>
<use xlink:href="#surface5" mask="url(#mask0)"/>
<use xlink:href="#surface8" mask="url(#mask1)"/>
<path style=" stroke:none;fill-rule:nonzero;fill:rgb(61.176471%,92.156863%,100%);fill-opacity:1;" d="M 28.453125 41.082031 L 28.453125 54.714844 L 16.675781 47.867188 L 16.675781 34.238281 Z M 28.453125 41.082031 "/>
<path style=" stroke:none;fill-rule:nonzero;fill:rgb(100%,100%,100%);fill-opacity:1;" d="M 28.453125 55.066406 L 16.398438 48.066406 L 16.398438 34.09375 L 28.453125 27.09375 L 40.511719 34.09375 L 40.511719 48.050781 Z M 16.960938 47.722656 L 28.453125 54.40625 L 39.945313 47.722656 L 39.945313 34.425781 L 28.453125 27.738281 L 16.960938 34.421875 Z M 16.960938 47.722656 "/>
<path style=" stroke:none;fill-rule:nonzero;fill:rgb(100%,100%,100%);fill-opacity:1;" d="M 53.324219 40.285156 C 42.199219 41.25 32.398438 33.015625 31.433594 21.890625 C 30.464844 10.769531 38.699219 0.964844 49.824219 0 L 40.917969 -16.800781 C 45.558594 -16.800781 49.320313 -13.039063 49.320313 -8.398438 C 49.320313 -3.761719 45.558594 0 40.917969 0 L 35.546875 31.699219 L 36.046875 31.984375 L 42 20.273438 C 42.003906 19.964844 42.25 19.71875 42.558594 19.71875 C 42.863281 19.722656 43.113281 19.96875 43.113281 20.273438 C 43.113281 20.582031 42.867188 20.832031 42.558594 20.832031 L 51.464844 37.632813 L 51.464844 37.679688 C 55 34.144531 60.734375 34.144531 64.269531 37.679688 C 67.804688 41.214844 67.804688 46.945313 64.269531 50.480469 L 77.949219 50.480469 L 78.335938 50.695313 L 78.425781 50.644531 L 78.425781 50.984375 C 83.453125 56.53125 83.085938 65.089844 77.605469 70.183594 C 72.121094 75.28125 63.558594 75.023438 58.394531 69.605469 C 53.226563 64.1875 53.378906 55.625 58.730469 50.390625 C 64.082031 45.15625 72.648438 45.195313 77.949219 50.480469 C 83.675781 50.480469 88.304688 53.898438 88.519531 56.824219 C 88.023438 59.9375 83.628906 62.347656 78.296875 62.347656 C 75.527344 70.011719 67.675781 74.597656 59.640625 73.246094 C 51.605469 71.894531 45.6875 64.988281 45.582031 56.84375 C 45.476563 48.695313 51.210938 41.636719 59.207031 40.074219 C 67.203125 38.511719 75.171875 42.894531 78.140625 50.480469 L 78.140625 51.0625 C 77.980469 60.75 70.039063 68.5 60.347656 68.417969 C 50.660156 68.339844 42.847656 60.460938 42.847656 50.769531 C 42.847656 41.082031 50.660156 33.203125 60.347656 33.125 C 70.039063 33.042969 77.980469 40.792969 78.140625 50.480469 C 83.695313 50.480469 88.269531 47.910156 88.898438 44.59375 L 88.953125 44.59375 C 88.953125 44.527344 88.953125 44.460938 88.933594 44.394531 C 90.617188 56.695313 82.007813 68.027344 69.707031 69.707031 C 57.410156 71.390625 46.078125 62.78125 44.394531 50.480469 Z M 53.324219 40.285156 "/>
</g>
</svg>
