<?xml version="1.0" encoding="UTF-8"?>
<svg xmlns="http://www.w3.org/2000/svg" xmlns:xlink="http://www.w3.org/1999/xlink" width="70pt" height="70pt" viewBox="0 0 70 70" version="1.1">
<defs>
<linearGradient id="linear0" gradientUnits="userSpaceOnUse" x1="9" y1="16.82" x2="9" y2="1.18" gradientTransform="matrix(3.888889,0,0,3.888889,0,0)">
<stop offset="0" style="stop-color:rgb(9.803922%,54.117647%,70.196078%);stop-opacity:1;"/>
<stop offset="0.09" style="stop-color:rgb(12.156863%,61.568627%,76.862745%);stop-opacity:1;"/>
<stop offset="0.24" style="stop-color:rgb(15.686275%,70.980392%,85.098039%);stop-opacity:1;"/>
<stop offset="0.4" style="stop-color:rgb(17.647059%,77.647059%,91.372549%);stop-opacity:1;"/>
<stop offset="0.57" style="stop-color:rgb(19.215686%,81.960784%,94.901961%);stop-opacity:1;"/>
<stop offset="0.78" style="stop-color:rgb(19.607843%,83.137255%,96.078431%);stop-opacity:1;"/>
</linearGradient>
<linearGradient id="linear1" gradientUnits="userSpaceOnUse" x1="8.36" y1="11.35" x2="8.36" y2="14.46" gradientTransform="matrix(3.888889,0,0,3.888889,0,0)">
<stop offset="0" style="stop-color:rgb(77.647059%,60.392157%,92.156863%);stop-opacity:1;"/>
<stop offset="1" style="stop-color:rgb(43.529412%,29.411765%,69.803922%);stop-opacity:1;"/>
</linearGradient>
</defs>
<g id="surface1">
<path style=" stroke:none;fill-rule:nonzero;fill:url(#linear0);" d="M 55.144531 22.90625 C 55.300781 27.914063 53.457031 32.78125 50.023438 36.429688 C 46.585938 40.078125 41.835938 42.207031 36.828125 42.351563 C 34.234375 34.363281 37.457031 25.640625 44.613281 21.257813 C 51.773438 16.871094 61.007813 17.964844 66.945313 23.902344 C 72.878906 29.835938 73.972656 39.070313 69.585938 46.230469 C 65.203125 53.390625 56.480469 56.609375 48.496094 54.015625 L 53.160156 54.015625 C 55.195313 52.515625 57.972656 52.527344 59.992188 54.046875 C 62.011719 55.566406 62.796875 58.234375 61.917969 60.605469 C 61.039063 62.972656 58.707031 64.484375 56.183594 64.320313 C 53.660156 64.15625 51.546875 62.351563 50.984375 59.890625 L 20.570313 59.890625 C 20.570313 51.492188 27.378906 44.683594 35.777344 44.683594 C 44.175781 44.683594 50.984375 51.492188 50.984375 59.890625 L 53.9375 59.421875 L 54.910156 56.582031 C 54.707031 50.628906 58.164063 45.15625 63.628906 42.78125 C 69.09375 40.40625 75.453125 41.617188 79.664063 45.828125 C 83.878906 50.042969 85.085938 56.402344 82.710938 61.867188 C 80.339844 67.332031 74.863281 70.789063 68.910156 70.582031 L 68.910156 27.222656 L 73.148438 27.804688 C 73.234375 22.285156 77.75 17.863281 83.273438 17.890625 C 88.796875 17.917969 93.265625 22.386719 93.292969 27.910156 C 93.320313 33.433594 88.898438 37.949219 83.378906 38.035156 L 78.59375 38.035156 C 70.738281 36.785156 65.164063 29.707031 65.789063 21.777344 C 66.414063 13.847656 73.03125 7.734375 80.984375 7.734375 C 88.941406 7.734375 95.558594 13.847656 96.183594 21.777344 C 96.808594 29.707031 91.234375 36.785156 83.378906 38.035156 C 86.222656 35.1875 90.835938 35.1875 93.683594 38.035156 C 96.527344 40.878906 96.527344 45.492188 93.683594 48.339844 L 93.683594 437.226563 C 93.007813 448.253906 89.550781 457.191406 85.964844 457.191406 C 82.378906 457.191406 80.019531 448.253906 80.695313 437.226563 L 84.777344 437.226563 C 80.578125 441.425781 80.578125 448.234375 84.777344 452.433594 C 88.976563 456.632813 95.785156 456.632813 99.984375 452.433594 Z M 55.144531 22.90625 "/>
<path style=" stroke:none;fill-rule:nonzero;fill:url(#linear1);" d="M 32.433594 44.140625 L 32.589844 44.140625 C 35.894531 44.140625 38.578125 46.820313 38.578125 50.128906 L 38.578125 50.285156 C 38.578125 53.589844 35.894531 56.273438 32.589844 56.273438 L 32.433594 56.273438 C 29.125 56.273438 26.445313 53.589844 26.445313 50.285156 L 26.445313 50.128906 C 26.445313 46.820313 29.125 44.140625 32.433594 44.140625 Z M 32.433594 44.140625 "/>
</g>
</svg>
