<?xml version="1.0" encoding="UTF-8"?>
<svg xmlns="http://www.w3.org/2000/svg" xmlns:xlink="http://www.w3.org/1999/xlink" width="70pt" height="70pt" viewBox="0 0 70 70" version="1.1">
<defs>
<linearGradient id="linear0" gradientUnits="userSpaceOnUse" x1="12.3" y1="0.49" x2="12.3" y2="17.33" gradientTransform="matrix(3.888889,0,0,3.888889,0,0)">
<stop offset="0" style="stop-color:rgb(36.862745%,62.745098%,93.72549%);stop-opacity:1;"/>
<stop offset="0.18" style="stop-color:rgb(33.333333%,61.176471%,92.54902%);stop-opacity:1;"/>
<stop offset="0.47" style="stop-color:rgb(23.529412%,56.862745%,89.803922%);stop-opacity:1;"/>
<stop offset="0.84" style="stop-color:rgb(7.45098%,50.196078%,85.490196%);stop-opacity:1;"/>
<stop offset="1" style="stop-color:rgb(0%,47.058824%,83.137255%);stop-opacity:1;"/>
</linearGradient>
<linearGradient id="linear1" gradientUnits="userSpaceOnUse" x1="9.48" y1="17.51" x2="9.48" y2="9.35" gradientTransform="matrix(3.888889,0,0,3.888889,0,0)">
<stop offset="0" style="stop-color:rgb(9.803922%,54.117647%,70.196078%);stop-opacity:1;"/>
<stop offset="0" style="stop-color:rgb(9.803922%,54.117647%,70.196078%);stop-opacity:1;"/>
<stop offset="0.14" style="stop-color:rgb(13.333333%,64.705882%,79.607843%);stop-opacity:1;"/>
<stop offset="0.3" style="stop-color:rgb(16.078431%,72.941176%,87.058824%);stop-opacity:1;"/>
<stop offset="0.47" style="stop-color:rgb(18.039216%,78.823529%,92.156863%);stop-opacity:1;"/>
<stop offset="0.68" style="stop-color:rgb(19.215686%,81.960784%,95.294118%);stop-opacity:1;"/>
<stop offset="1" style="stop-color:rgb(19.607843%,83.137255%,96.078431%);stop-opacity:1;"/>
</linearGradient>
</defs>
<g id="surface1">
<path style=" stroke:none;fill-rule:nonzero;fill:url(#linear0);" d="M 64.867188 1.90625 L 30.800781 1.90625 C 30.953125 0.820313 31.878906 0.0078125 32.976563 0 L 32.976563 48.535156 C 22.511719 62.636719 4.179688 68.4375 -12.496094 62.925781 C -29.171875 57.414063 -40.433594 41.828125 -40.433594 24.265625 C -40.433594 6.703125 -29.171875 -8.878906 -12.496094 -14.394531 C 4.179688 -19.90625 22.511719 -14.101563 32.976563 0 L 39.433594 0 L 43.011719 4.746094 L 43.011719 11.9375 L 38.5 15.207031 L 32.238281 14.429688 L 27.457031 9.917969 L 27.457031 16.488281 C 22.902344 14.964844 20.449219 10.035156 21.972656 5.484375 C 23.496094 0.929688 28.425781 -1.523438 32.976563 0 L 67.042969 0 C 67.042969 9.40625 59.417969 17.035156 50.011719 17.035156 C 40.605469 17.035156 32.976563 9.40625 32.976563 0 L 32.976563 4.082031 C 31.851563 4.683594 30.449219 4.257813 29.847656 3.128906 C 29.246094 2.003906 29.671875 0.601563 30.800781 0 Z M 64.867188 1.90625 "/>
<path style=" stroke:none;fill-rule:nonzero;fill:rgb(94.901961%,94.901961%,94.901961%);fill-opacity:1;" d="M 33.679688 8.710938 L 39.9375 8.710938 C 37.535156 19.738281 26.644531 26.730469 15.613281 24.324219 C 4.585938 21.917969 -2.40625 11.027344 0 0 L 0 8.089844 C -2.234375 7.9375 -3.921875 6.007813 -3.773438 3.773438 C -3.621094 1.539063 -1.6875 -0.148438 0.542969 0 L 33.679688 0 C 33.890625 0.125 33.996094 0.375 33.929688 0.613281 C 33.867188 0.851563 33.652344 1.015625 33.40625 1.015625 C 33.160156 1.015625 32.945313 0.851563 32.878906 0.613281 C 32.816406 0.375 32.921875 0.125 33.132813 0 L 33.132813 9.253906 C 30.578125 9.253906 28.503906 7.183594 28.503906 4.628906 C 28.503906 2.070313 30.578125 0 33.132813 0 Z M 44.683594 8.710938 L 50.945313 8.710938 C 48.539063 13.628906 42.601563 15.667969 37.683594 13.261719 C 32.765625 10.855469 30.726563 4.917969 33.132813 0 L 33.132813 8.089844 C 30.898438 7.9375 29.210938 6.007813 29.359375 3.773438 C 29.511719 1.539063 31.445313 -0.148438 33.679688 0 L 27.417969 0 C 27.628906 0.125 27.734375 0.375 27.671875 0.613281 C 27.605469 0.851563 27.390625 1.015625 27.144531 1.015625 C 26.898438 1.015625 26.683594 0.851563 26.617188 0.613281 C 26.554688 0.375 26.660156 0.125 26.871094 0 L 26.871094 9.253906 C 24.316406 9.253906 22.246094 7.183594 22.246094 4.628906 C 22.246094 2.070313 24.316406 0 26.871094 0 Z M 55.726563 8.710938 L 61.988281 8.710938 C 59.582031 18.410156 49.773438 24.320313 40.074219 21.914063 C 30.378906 19.507813 24.464844 9.695313 26.871094 0 L 26.871094 8.089844 C 24.636719 7.9375 22.949219 6.007813 23.101563 3.773438 C 23.25 1.539063 25.183594 -0.148438 27.417969 0 L 21.15625 0 C 21.367188 0.125 21.472656 0.375 21.410156 0.613281 C 21.34375 0.851563 21.128906 1.015625 20.882813 1.015625 C 20.636719 1.015625 20.421875 0.851563 20.359375 0.613281 C 20.292969 0.375 20.398438 0.125 20.609375 0 L 20.609375 9.253906 C 18.054688 9.253906 15.984375 7.183594 15.984375 4.628906 C 15.984375 2.070313 18.054688 0 20.609375 0 Z M 33.679688 23.332031 L 39.9375 23.332031 C 33.496094 28.671875 23.945313 27.773438 18.609375 21.332031 C 13.269531 14.886719 14.167969 5.335938 20.609375 0 L 20.609375 8.167969 C 18.355469 8.015625 16.648438 6.066406 16.800781 3.8125 C 16.949219 1.554688 18.902344 -0.148438 21.15625 0 L 33.679688 0 C 33.890625 0.125 33.996094 0.375 33.929688 0.613281 C 33.867188 0.851563 33.652344 1.015625 33.40625 1.015625 C 33.160156 1.015625 32.945313 0.851563 32.878906 0.613281 C 32.816406 0.375 32.921875 0.125 33.132813 0 L 33.132813 23.957031 C 26.519531 23.957031 21.15625 18.59375 21.15625 11.976563 C 21.15625 5.363281 26.519531 0 33.132813 0 Z M 44.683594 23.332031 L 50.945313 23.332031 C 44.5 28.25 35.289063 27.015625 30.371094 20.570313 C 25.453125 14.128906 26.691406 4.917969 33.132813 0 L 33.132813 8.167969 C 30.878906 8.015625 29.171875 6.066406 29.320313 3.8125 C 29.472656 1.554688 31.421875 -0.148438 33.679688 0 L 27.417969 0 C 27.628906 0.125 27.734375 0.375 27.671875 0.613281 C 27.605469 0.851563 27.390625 1.015625 27.144531 1.015625 C 26.898438 1.015625 26.683594 0.851563 26.617188 0.613281 C 26.554688 0.375 26.660156 0.125 26.871094 0 L 26.871094 23.957031 C 20.257813 23.957031 14.894531 18.59375 14.894531 11.976563 C 14.894531 5.363281 20.257813 0 26.871094 0 Z M 55.726563 23.332031 L 61.988281 23.332031 C 55.546875 33.03125 42.460938 35.667969 32.765625 29.226563 C 23.066406 22.78125 20.429688 9.695313 26.871094 0 L 26.871094 8.167969 C 24.617188 8.015625 22.910156 6.066406 23.0625 3.8125 C 23.210938 1.554688 25.160156 -0.148438 27.417969 0 L 21.15625 0 C 21.367188 0.125 21.472656 0.375 21.410156 0.613281 C 21.34375 0.851563 21.128906 1.015625 20.882813 1.015625 C 20.636719 1.015625 20.421875 0.851563 20.359375 0.613281 C 20.292969 0.375 20.398438 0.125 20.609375 0 L 20.609375 23.957031 C 13.996094 23.957031 8.632813 18.59375 8.632813 11.976563 C 8.632813 5.363281 13.996094 0 20.609375 0 Z M 33.679688 38.109375 L 39.9375 38.109375 C 29.414063 43.449219 16.558594 39.242188 11.21875 28.71875 C 5.882813 18.195313 10.085938 5.335938 20.609375 0 L 20.609375 46.667969 C 7.722656 46.515625 -2.601563 35.949219 -2.449219 23.0625 C -2.300781 10.175781 8.269531 -0.148438 21.15625 0 L 33.679688 0 C 33.890625 0.125 33.996094 0.375 33.929688 0.613281 C 33.867188 0.851563 33.652344 1.015625 33.40625 1.015625 C 33.160156 1.015625 32.945313 0.851563 32.878906 0.613281 C 32.816406 0.375 32.921875 0.125 33.132813 0 L 33.132813 38.65625 C 22.457031 38.65625 13.804688 30.003906 13.804688 19.328125 C 13.804688 8.652344 22.457031 0 33.132813 0 Z M 44.683594 38.109375 L 50.945313 38.109375 C 40.421875 43.03125 27.902344 38.484375 22.984375 27.960938 C 18.066406 17.4375 22.609375 4.917969 33.132813 0 L 33.132813 46.667969 C 20.246094 46.515625 9.921875 35.949219 10.070313 23.0625 C 10.222656 10.175781 20.792969 -0.148438 33.679688 0 L 27.417969 0 C 27.628906 0.125 27.734375 0.375 27.671875 0.613281 C 27.605469 0.851563 27.390625 1.015625 27.144531 1.015625 C 26.898438 1.015625 26.683594 0.851563 26.617188 0.613281 C 26.554688 0.375 26.660156 0.125 26.871094 0 L 26.871094 38.65625 C 16.199219 38.65625 7.542969 30.003906 7.542969 19.328125 C 7.542969 8.652344 16.199219 0 26.871094 0 Z M 44.683594 52.8125 L 50.945313 52.8125 C 36.359375 59.457031 19.148438 53.023438 12.503906 38.441406 C 5.855469 23.859375 12.289063 6.648438 26.871094 0 L 26.871094 11.976563 C 23.566406 11.828125 21.003906 9.023438 21.15625 5.714844 C 21.304688 2.410156 24.109375 -0.148438 27.417969 0 L 21.15625 0 C 21.367188 0.125 21.472656 0.375 21.410156 0.613281 C 21.34375 0.851563 21.128906 1.015625 20.882813 1.015625 C 20.636719 1.015625 20.421875 0.851563 20.359375 0.613281 C 20.292969 0.375 20.398438 0.125 20.609375 0 L 20.609375 -11.976563 C 23.917969 -11.976563 26.601563 -9.296875 26.601563 -5.988281 C 26.601563 -2.679688 23.917969 0 20.609375 0 Z M 55.726563 38.109375 L 61.988281 38.109375 C 51.464844 49.539063 33.671875 50.269531 22.246094 39.746094 C 10.816406 29.21875 10.085938 11.425781 20.609375 0 L 20.609375 46.667969 C 7.722656 46.515625 -2.601563 35.949219 -2.449219 23.0625 C -2.300781 10.175781 8.269531 -0.148438 21.15625 0 L 14.894531 0 C 15.109375 0.125 15.210938 0.375 15.148438 0.613281 C 15.085938 0.851563 14.867188 1.015625 14.621094 1.015625 C 14.375 1.015625 14.160156 0.851563 14.097656 0.613281 C 14.03125 0.375 14.136719 0.125 14.351563 0 L 14.351563 38.65625 C 3.675781 38.65625 -4.976563 30.003906 -4.976563 19.328125 C -4.976563 8.652344 3.675781 0 14.351563 0 Z M 55.726563 38.109375 "/>
<path style=" stroke:none;fill-rule:nonzero;fill:rgb(31.372549%,90.196078%,100%);fill-opacity:1;" d="M 36.945313 50.554688 C 22.984375 49.480469 12.539063 37.292969 13.609375 23.332031 C 14.683594 9.371094 26.871094 -1.074219 40.832031 0 L 23.332031 0 C 24.171875 -0.0976563 25.019531 -0.0976563 25.859375 0 L 25.859375 0.234375 L 43.671875 0.234375 C 43.609375 5.152344 39.570313 9.085938 34.648438 9.023438 C 29.730469 8.957031 25.796875 4.917969 25.859375 0 Z M 36.945313 50.554688 "/>
<path style=" stroke:none;fill-rule:nonzero;fill:url(#linear1);" d="M 50.554688 48.457031 C 50.730469 55.355469 45.355469 61.128906 38.460938 61.445313 L 50.828125 73.8125 L 31.109375 73.8125 C 31.109375 68.367188 35.523438 63.953125 40.96875 63.953125 C 46.414063 63.953125 50.828125 68.367188 50.828125 73.8125 C 54.019531 74.773438 56.027344 77.933594 55.539063 81.234375 C 55.050781 84.535156 52.21875 86.980469 48.882813 86.980469 C 45.546875 86.980469 42.714844 84.535156 42.226563 81.234375 C 41.742188 77.933594 43.746094 74.773438 46.9375 73.8125 L 14.582031 73.8125 C 14.582031 64.875 21.828125 57.632813 30.761719 57.632813 C 39.695313 57.632813 46.9375 64.875 46.9375 73.8125 L 69.027344 73.8125 C 69.027344 79.910156 64.082031 84.855469 57.984375 84.855469 C 51.882813 84.855469 46.9375 79.910156 46.9375 73.8125 Z M 50.554688 48.457031 "/>
<path style=" stroke:none;fill-rule:nonzero;fill:rgb(31.372549%,90.196078%,100%);fill-opacity:1;" d="M 36.945313 50.554688 C 22.984375 49.480469 12.539063 37.292969 13.609375 23.332031 C 14.683594 9.371094 26.871094 -1.074219 40.832031 0 L 23.332031 0 C 25.4375 -3.242188 29.441406 -4.691406 33.132813 -3.542969 C 36.824219 -2.398438 39.304688 1.0625 39.203125 4.925781 C 39.105469 8.789063 36.449219 12.113281 32.703125 13.066406 C 28.957031 14.019531 25.035156 12.367188 23.101563 9.023438 L 32.160156 18.082031 L 33.015625 18.082031 L 33.289063 17.304688 C 33.460938 11.890625 37.929688 7.609375 43.34375 7.667969 C 48.761719 7.722656 53.136719 12.101563 53.195313 17.515625 C 53.25 22.933594 48.96875 27.398438 43.554688 27.570313 L 43.554688 34.378906 C 50.726563 -88.394531 53.929688 -189.5625 50.707031 -191.59375 C 47.488281 -193.621094 39.0625 -95.742188 31.890625 27.027344 C 36.503906 29.074219 39.476563 33.648438 39.472656 38.695313 L 57.089844 38.695313 C 57.089844 43.558594 53.144531 47.503906 48.28125 47.503906 C 43.414063 47.503906 39.472656 43.558594 39.472656 38.695313 Z M 36.945313 50.554688 "/>
</g>
</svg>
