<?xml version="1.0" encoding="UTF-8"?>
<svg xmlns="http://www.w3.org/2000/svg" xmlns:xlink="http://www.w3.org/1999/xlink" width="70pt" height="70pt" viewBox="0 0 70 70" version="1.1">
<defs>
<linearGradient id="linear0" gradientUnits="userSpaceOnUse" x1="9" y1="17.66" x2="9" y2="0.34" gradientTransform="matrix(3.888889,0,0,3.888889,0,0)">
<stop offset="0" style="stop-color:rgb(0%,47.058824%,83.137255%);stop-opacity:1;"/>
<stop offset="0.17" style="stop-color:rgb(10.980392%,51.764706%,86.27451%);stop-opacity:1;"/>
<stop offset="0.38" style="stop-color:rgb(22.352941%,56.470588%,89.411765%);stop-opacity:1;"/>
<stop offset="0.59" style="stop-color:rgb(30.196078%,60%,91.764706%);stop-opacity:1;"/>
<stop offset="0.8" style="stop-color:rgb(35.294118%,61.960784%,93.333333%);stop-opacity:1;"/>
<stop offset="1" style="stop-color:rgb(36.862745%,62.745098%,93.72549%);stop-opacity:1;"/>
</linearGradient>
</defs>
<g id="surface1">
<path style=" stroke:none;fill-rule:nonzero;fill:url(#linear0);" d="M 69.222656 32.238281 L 36.59375 1.945313 C 36.316406 1.324219 36.316406 0.617188 36.59375 0 L 0.777344 32.238281 C -8.125 22.347656 -7.324219 7.113281 2.566406 -1.789063 C 12.457031 -10.691406 27.691406 -9.890625 36.59375 0 L 43.285156 0 C 43.285156 1.847656 41.785156 3.34375 39.9375 3.34375 C 38.09375 3.34375 36.59375 1.847656 36.59375 0 L 36.59375 28.777344 C 28.648438 28.777344 22.207031 22.335938 22.207031 14.390625 C 22.207031 6.441406 28.648438 0 36.59375 0 L 80.929688 0 C 80.929688 12.242188 71.003906 22.167969 58.761719 22.167969 C 46.519531 22.167969 36.59375 12.242188 36.59375 0 L 36.59375 -28.777344 C 44.542969 -28.777344 50.984375 -22.335938 50.984375 -14.390625 C 50.984375 -6.441406 44.542969 0 36.59375 0 L 43.285156 0 C 43.285156 1.847656 41.785156 3.34375 39.9375 3.34375 C 38.09375 3.34375 36.59375 1.847656 36.59375 0 Z M 69.222656 32.238281 "/>
<path style=" stroke:none;fill-rule:nonzero;fill:rgb(90.196078%,90.196078%,90.196078%);fill-opacity:1;" d="M 27.496094 48.222656 L 42.503906 48.222656 C 29.1875 59.960938 8.878906 58.679688 -2.859375 45.363281 C -14.597656 32.046875 -13.316406 11.738281 0 0 L 0 18.976563 L -17.5 18.976563 L -17.5 0 C -17.5 -4.832031 -13.582031 -8.75 -8.75 -8.75 C -3.917969 -8.75 0 -4.832031 0 0 Z M 27.496094 48.222656 "/>
<path style=" stroke:none;fill-rule:nonzero;fill:rgb(0%,35.686275%,63.137255%);fill-opacity:1;" d="M 2.605469 36.359375 L 4.667969 36.359375 L 33.40625 9.683594 C 36.078125 0.457031 30.769531 -9.1875 21.542969 -11.859375 C 12.320313 -14.535156 2.675781 -9.226563 0 0 L 28.738281 26.679688 L 30.800781 26.679688 C 23.433594 35.183594 10.566406 36.105469 2.0625 28.738281 C -6.445313 21.371094 -7.367188 8.503906 0 0 L 36.59375 1.945313 C 36.316406 1.324219 36.316406 0.617188 36.59375 0 L 0.777344 32.238281 C -8.125 22.347656 -7.324219 7.113281 2.566406 -1.789063 C 12.457031 -10.691406 27.691406 -9.890625 36.59375 0 Z M 2.605469 36.359375 "/>
</g>
</svg>
