<?xml version="1.0" encoding="UTF-8"?>
<svg xmlns="http://www.w3.org/2000/svg" xmlns:xlink="http://www.w3.org/1999/xlink" width="70pt" height="49pt" viewBox="0 0 70 49" version="1.1">
<defs>
<linearGradient id="linear0" gradientUnits="userSpaceOnUse" x1="-1.672" y1="9.26" x2="4.676" y2="9.197" gradientTransform="matrix(4.027618,0,0,3.994054,-1.288838,-12.355138)">
<stop offset="0" style="stop-color:rgb(36.862745%,58.823529%,14.117647%);stop-opacity:1;"/>
<stop offset="1" style="stop-color:rgb(46.27451%,73.72549%,17.647059%);stop-opacity:1;"/>
</linearGradient>
</defs>
<g id="surface1">
<path style=" stroke:none;fill-rule:nonzero;fill:rgb(54.117647%,54.117647%,54.117647%);fill-opacity:1;" d="M 16.675781 3.78125 L 67.058594 3.78125 C 67.058594 2.175781 68.371094 0.875 69.992188 0.875 C 71.609375 0.875 72.925781 2.175781 72.925781 3.78125 C 72.925781 5.386719 71.609375 6.6875 69.992188 6.6875 L 16.675781 6.6875 C 17.828125 7.34375 18.390625 8.6875 18.046875 9.960938 C 17.707031 11.230469 16.542969 12.117188 15.214844 12.117188 C 13.886719 12.117188 12.722656 11.230469 12.382813 9.960938 C 12.039063 8.6875 12.601563 7.34375 13.753906 6.6875 Z M 16.675781 21.273438 L 67.058594 21.273438 C 67.058594 19.667969 68.371094 18.367188 69.992188 18.367188 C 71.609375 18.367188 72.925781 19.667969 72.925781 21.273438 C 72.925781 22.878906 71.609375 24.183594 69.992188 24.183594 L 16.675781 24.183594 C 17.863281 24.175781 18.933594 24.882813 19.390625 25.96875 C 19.847656 27.054688 19.601563 28.308594 18.765625 29.140625 C 17.925781 29.976563 16.664063 30.226563 15.566406 29.777344 C 14.46875 29.328125 13.753906 28.265625 13.753906 27.089844 Z M 16.675781 39.449219 L 67.058594 39.449219 C 67.058594 37.84375 68.371094 36.539063 69.992188 36.539063 C 71.609375 36.539063 72.925781 37.84375 72.925781 39.449219 C 72.925781 41.054688 71.609375 42.355469 69.992188 42.355469 L 16.675781 42.355469 C 17.863281 42.351563 18.933594 43.054688 19.390625 44.140625 C 19.847656 45.226563 19.601563 46.480469 18.765625 47.316406 C 17.925781 48.148438 16.664063 48.398438 15.566406 47.949219 C 14.46875 47.5 13.753906 46.441406 13.753906 45.261719 Z M 16.675781 39.449219 "/>
<path style=" stroke:none;fill-rule:nonzero;fill:url(#linear0);" d="M 5.316406 1.382813 C 5.316406 -1.527344 7.695313 -3.886719 10.632813 -3.886719 C 13.570313 -3.886719 15.949219 -1.527344 15.949219 1.382813 C 15.949219 4.296875 13.570313 6.65625 10.632813 6.65625 Z M 5.316406 18.917969 C 5.316406 16.007813 7.695313 13.644531 10.632813 13.644531 C 13.570313 13.644531 15.949219 16.007813 15.949219 18.917969 C 15.949219 21.828125 13.570313 24.191406 10.632813 24.191406 Z M 5.316406 37.050781 C 5.316406 34.140625 7.695313 31.777344 10.632813 31.777344 C 13.570313 31.777344 15.949219 34.140625 15.949219 37.050781 C 15.949219 39.964844 13.570313 42.324219 10.632813 42.324219 L 15.949219 42.324219 C 25.492188 42.484375 33.226563 52.738281 33.226563 65.222656 C 33.226563 77.707031 25.492188 87.699219 15.949219 87.535156 Z M 5.316406 37.070313 C 19.367188 34.160156 33.140625 43.097656 36.078125 57.03125 C 39.011719 70.96875 30.003906 84.625 15.949219 87.535156 C 13.867188 86.34375 12.847656 83.910156 13.472656 81.605469 C 14.09375 79.300781 16.203125 77.699219 18.609375 77.699219 C 21.015625 77.699219 23.121094 79.300781 23.742188 81.605469 C 24.367188 83.910156 23.351563 86.34375 21.265625 87.535156 Z M 5.316406 37.070313 "/>
</g>
</svg>
