<?xml version="1.0" encoding="UTF-8"?>
<svg xmlns="http://www.w3.org/2000/svg" xmlns:xlink="http://www.w3.org/1999/xlink" width="70pt" height="70pt" viewBox="0 0 70 70" version="1.1">
<defs>
<linearGradient id="linear0" gradientUnits="userSpaceOnUse" x1="9" y1="1" x2="9" y2="17" gradientTransform="matrix(3.888889,0,0,3.888889,0,0)">
<stop offset="0" style="stop-color:rgb(9.803922%,54.117647%,70.196078%);stop-opacity:1;"/>
<stop offset="0.29" style="stop-color:rgb(9.019608%,52.54902%,69.411765%);stop-opacity:1;"/>
<stop offset="0.59" style="stop-color:rgb(6.27451%,47.45098%,67.843137%);stop-opacity:1;"/>
<stop offset="0.89" style="stop-color:rgb(1.960784%,39.607843%,64.705882%);stop-opacity:1;"/>
<stop offset="1" style="stop-color:rgb(0%,35.686275%,63.137255%);stop-opacity:1;"/>
</linearGradient>
<linearGradient id="linear1" gradientUnits="userSpaceOnUse" x1="8.96" y1="1.1" x2="8.96" y2="16.98" gradientTransform="matrix(3.888889,0,0,3.888889,0,0)">
<stop offset="0" style="stop-color:rgb(19.607843%,83.137255%,96.078431%);stop-opacity:1;"/>
<stop offset="0.23" style="stop-color:rgb(19.215686%,81.568627%,94.509804%);stop-opacity:1;"/>
<stop offset="0.46" style="stop-color:rgb(17.254902%,76.470588%,90.196078%);stop-opacity:1;"/>
<stop offset="0.7" style="stop-color:rgb(14.509804%,68.627451%,83.137255%);stop-opacity:1;"/>
<stop offset="0.94" style="stop-color:rgb(10.980392%,57.254902%,72.941176%);stop-opacity:1;"/>
<stop offset="1" style="stop-color:rgb(9.803922%,54.117647%,70.196078%);stop-opacity:1;"/>
</linearGradient>
</defs>
<g id="surface1">
<path style=" stroke:none;fill-rule:nonzero;fill:url(#linear0);" d="M 55.882813 16.214844 L 56.195313 16.488281 C 60.746094 0.972656 51.859375 -15.300781 36.339844 -19.851563 C 20.824219 -24.40625 4.554688 -15.519531 0 0 L 2.878906 -2.410156 L 8.089844 -11.003906 C 11.128906 -8.773438 11.78125 -4.496094 9.546875 -1.457031 C 7.3125 1.582031 3.039063 2.234375 0 0 L 64.128906 3.890625 C 63.054688 3.890625 62.183594 3.019531 62.183594 1.945313 C 62.183594 0.871094 63.054688 0 64.128906 0 L 55.921875 5.5625 L 53.589844 8.554688 C 51.226563 5.644531 51.671875 1.371094 54.582031 -0.992188 C 57.492188 -3.355469 61.765625 -2.910156 64.128906 0 L 64.4375 0.3125 L 36.285156 31.109375 L 32.785156 27.222656 L 28.894531 31.109375 C 20.304688 21.382813 21.226563 6.53125 30.957031 -2.0625 C 40.683594 -10.652344 55.535156 -9.730469 64.128906 0 C 60.984375 -0.507813 58.757813 -3.34375 59.015625 -6.515625 C 59.269531 -9.6875 61.917969 -12.132813 65.101563 -12.132813 C 68.28125 -12.132813 70.933594 -9.6875 71.1875 -6.515625 C 71.441406 -3.34375 69.214844 -0.507813 66.070313 0 L 49.390625 16.917969 C 44.71875 12.308594 44.664063 4.789063 49.273438 0.117188 C 53.878906 -4.554688 61.402344 -4.605469 66.070313 0 L 74.160156 8.398438 C 76.480469 6.167969 76.550781 2.476563 74.316406 0.15625 C 72.082031 -2.164063 68.390625 -2.234375 66.070313 0 L 31.109375 48.804688 C 30.921875 46.023438 32.480469 43.417969 35.019531 42.265625 C 37.554688 41.109375 40.542969 41.652344 42.515625 43.625 C 44.484375 45.59375 45.027344 48.582031 43.875 51.121094 C 42.722656 53.660156 40.113281 55.214844 37.332031 55.027344 L 41.222656 51.140625 L 37.839844 47.367188 Z M 55.882813 16.214844 "/>
<path style=" stroke:none;fill-rule:nonzero;fill:url(#linear1);" d="M 62.609375 54.714844 L 58.722656 50.554688 L 32.746094 23.917969 L 31.460938 22.515625 C 30.882813 29.945313 24.753906 35.71875 17.304688 35.855469 L 17.890625 36.4375 L 24.65625 43.320313 C 22.753906 45.191406 19.699219 45.164063 17.832031 43.265625 C 15.960938 41.363281 15.988281 38.308594 17.890625 36.4375 L 16.253906 43.476563 C 14.3125 43.371094 12.824219 41.707031 12.929688 39.765625 C 13.039063 37.820313 14.699219 36.332031 16.644531 36.4375 L 9.722656 38.34375 C 9.195313 38.34375 8.769531 37.917969 8.769531 37.390625 C 8.769531 36.867188 9.195313 36.4375 9.722656 36.4375 L 6.457031 15.207031 C 10.355469 15.109375 13.59375 18.191406 13.6875 22.089844 C 13.785156 25.988281 10.703125 29.226563 6.804688 29.320313 L 19.910156 29.320313 L 20.144531 29.59375 L 21.621094 31.109375 L 51.214844 62.222656 C 42.132813 70.867188 27.757813 70.511719 19.113281 61.425781 C 10.46875 52.339844 10.824219 37.96875 19.910156 29.320313 L 20.222656 29.011719 C 20.589844 25.601563 23.527344 23.058594 26.953125 23.179688 C 30.375 23.304688 33.125 26.050781 33.246094 29.476563 C 33.371094 32.902344 30.824219 35.839844 27.417969 36.207031 Z M 62.609375 54.714844 "/>
</g>
</svg>
