<?xml version="1.0" encoding="UTF-8"?>
<svg xmlns="http://www.w3.org/2000/svg" xmlns:xlink="http://www.w3.org/1999/xlink" width="70pt" height="70pt" viewBox="0 0 70 70" version="1.1">
<defs>
<linearGradient id="linear0" gradientUnits="userSpaceOnUse" x1="8.94" y1="18.11" x2="8.91" y2="13.59" gradientTransform="matrix(3.888889,0,0,3.888889,0,0)">
<stop offset="0" style="stop-color:rgb(19.607843%,74.509804%,86.666667%);stop-opacity:1;"/>
<stop offset="0.36" style="stop-color:rgb(20.392157%,75.686275%,87.843137%);stop-opacity:1;"/>
<stop offset="0.63" style="stop-color:rgb(23.529412%,79.607843%,90.980392%);stop-opacity:1;"/>
<stop offset="0.88" style="stop-color:rgb(28.235294%,85.882353%,96.470588%);stop-opacity:1;"/>
<stop offset="1" style="stop-color:rgb(31.372549%,90.196078%,100%);stop-opacity:1;"/>
</linearGradient>
</defs>
<g id="surface1">
<path style=" stroke:none;fill-rule:nonzero;fill:rgb(46.666667%,22.745098%,86.27451%);fill-opacity:1;" d="M 60.003906 14.621094 L 60.003906 43.710938 L 35 58.332031 L 35 29.207031 Z M 60.003906 14.621094 "/>
<path style=" stroke:none;fill-rule:nonzero;fill:rgb(71.764706%,58.823529%,97.647059%);fill-opacity:1;" d="M 60.003906 14.621094 L 35 29.246094 L 9.996094 14.621094 L 35 0 Z M 60.003906 14.621094 "/>
<path style=" stroke:none;fill-rule:nonzero;fill:rgb(65.098039%,47.843137%,95.686275%);fill-opacity:1;" d="M 35 29.246094 L 35 58.332031 L 9.996094 43.710938 L 9.996094 14.621094 Z M 35 29.246094 "/>
<path style=" stroke:none;fill-rule:nonzero;fill:rgb(100%,100%,100%);fill-opacity:1;" d="M 46.238281 35 L 35.234375 23.800781 C 28.660156 23.800781 23.332031 18.472656 23.332031 11.898438 C 23.332031 5.328125 28.660156 0 35.234375 0 L 23.332031 35 C 13.667969 31.714844 8.496094 21.214844 11.785156 11.550781 C 15.070313 1.886719 25.566406 -3.285156 35.234375 0 L 41.726563 0 C 41.726563 1.792969 40.273438 3.246094 38.480469 3.246094 C 36.6875 3.246094 35.234375 1.792969 35.234375 0 L 35.234375 46.667969 C 22.347656 46.667969 11.898438 36.21875 11.898438 23.332031 C 11.898438 10.445313 22.347656 0 35.234375 0 L 42.078125 0 C 42.078125 1.890625 40.546875 3.421875 38.65625 3.421875 C 36.765625 3.421875 35.234375 1.890625 35.234375 0 L 35.234375 36.359375 C 25.191406 36.359375 17.054688 28.222656 17.054688 18.179688 C 17.054688 8.140625 25.191406 0 35.234375 0 L 41.726563 0 C 41.726563 1.792969 40.273438 3.246094 38.480469 3.246094 C 36.6875 3.246094 35.234375 1.792969 35.234375 0 Z M 46.238281 35 "/>
<path style=" stroke:none;fill-rule:nonzero;fill:url(#linear0);" d="M 22.476563 45.929688 L 46.898438 45.929688 C 47.695313 45.929688 48.339844 46.570313 48.339844 47.367188 L 48.339844 68.5625 C 48.339844 69.355469 47.695313 70 46.898438 70 L 22.476563 70 C 21.683594 70 21.039063 69.355469 21.039063 68.5625 L 21.039063 47.367188 C 21.039063 46.570313 21.683594 45.929688 22.476563 45.929688 Z M 22.476563 45.929688 "/>
<path style=" stroke:none;fill-rule:nonzero;fill:rgb(100%,100%,100%);fill-opacity:1;" d="M 31.5 63.390625 L 26.015625 57.90625 L 31.382813 52.539063 C 16.875 61.207031 -1.910156 56.46875 -10.578125 41.960938 C -19.242188 27.453125 -14.507813 8.667969 0 0 L -0.855469 -0.855469 C -0.683594 -0.78125 -0.574219 -0.613281 -0.574219 -0.429688 C -0.574219 -0.242188 -0.683594 -0.0742188 -0.855469 0 L -7.078125 6.222656 C -6.71875 6.28125 -6.4375 6.5625 -6.378906 6.921875 L -0.078125 13.222656 C 1.660156 11.484375 1.660156 8.660156 -0.078125 6.921875 C -1.816406 5.183594 -4.636719 5.183594 -6.378906 6.921875 L -5.523438 6.066406 C -5.285156 6.304688 -5.285156 6.6875 -5.523438 6.921875 C -5.757813 7.160156 -6.140625 7.160156 -6.378906 6.921875 Z M 46.667969 57.359375 L 40.484375 51.140625 C 28.273438 51.140625 18.375 41.242188 18.375 29.03125 C 18.375 16.820313 28.273438 6.921875 40.484375 6.921875 L 39.628906 7.777344 C 39.390625 7.542969 39.390625 7.160156 39.628906 6.921875 C 39.863281 6.6875 40.246094 6.6875 40.484375 6.921875 L 45.8125 12.289063 L 38.890625 63.390625 C 23.296875 62.949219 11.011719 49.953125 11.453125 34.359375 C 11.894531 18.765625 24.890625 6.480469 40.484375 6.921875 L 41.339844 7.777344 C 41.574219 7.542969 41.574219 7.160156 41.339844 6.921875 C 41.101563 6.6875 40.71875 6.6875 40.484375 6.921875 L 46.667969 58.332031 C 32.46875 60.039063 19.578125 49.917969 17.871094 35.71875 C 16.160156 21.523438 26.285156 8.628906 40.484375 6.921875 Z M 46.667969 57.359375 "/>
</g>
</svg>
