<?xml version="1.0" encoding="UTF-8"?>
<svg xmlns="http://www.w3.org/2000/svg" xmlns:xlink="http://www.w3.org/1999/xlink" width="70pt" height="70pt" viewBox="0 0 70 70" version="1.1">
<defs>
<linearGradient id="linear0" gradientUnits="userSpaceOnUse" x1="8.07" y1="17.35" x2="8.07" y2="2.34" gradientTransform="matrix(3.888889,0,0,3.888889,0,0)">
<stop offset="0" style="stop-color:rgb(19.607843%,74.509804%,86.666667%);stop-opacity:1;"/>
<stop offset="0.3" style="stop-color:rgb(21.176471%,76.470588%,88.235294%);stop-opacity:1;"/>
<stop offset="0.67" style="stop-color:rgb(25.490196%,82.352941%,93.333333%);stop-opacity:1;"/>
<stop offset="1" style="stop-color:rgb(31.372549%,90.196078%,100%);stop-opacity:1;"/>
</linearGradient>
</defs>
<g id="surface1">
<path style=" stroke:none;fill-rule:nonzero;fill:rgb(0%,47.058824%,83.137255%);fill-opacity:1;" d="M 3.1875 2.527344 L 45.964844 2.527344 C 47.039063 2.527344 47.910156 3.398438 47.910156 4.472656 L 47.910156 58.957031 C 47.910156 60.03125 47.039063 60.898438 45.964844 60.898438 L 3.1875 60.898438 C 2.113281 60.898438 1.246094 60.03125 1.246094 58.957031 L 1.246094 4.472656 C 1.246094 3.398438 2.113281 2.527344 3.1875 2.527344 Z M 3.1875 2.527344 "/>
<path style=" stroke:none;fill-rule:nonzero;fill:url(#linear0);" d="M 9.996094 9.101563 L 52.773438 9.101563 C 53.847656 9.101563 54.714844 9.96875 54.714844 11.042969 L 54.714844 65.527344 C 54.714844 66.601563 53.847656 67.472656 52.773438 67.472656 L 9.996094 67.472656 C 8.921875 67.472656 8.050781 66.601563 8.050781 65.527344 L 8.050781 11.042969 C 8.050781 9.96875 8.921875 9.101563 9.996094 9.101563 Z M 9.996094 9.101563 "/>
<path style=" stroke:none;fill-rule:nonzero;fill:rgb(46.666667%,22.745098%,86.27451%);fill-opacity:1;" d="M 68.601563 49.738281 L 57.4375 38.617188 C 46.773438 38.507813 38.21875 29.777344 38.324219 19.113281 C 38.433594 8.449219 47.164063 -0.105469 57.828125 0 L 57.828125 6.496094 C 44.410156 6.496094 30.996094 13.648438 30.996094 26.601563 C 32.898438 23.722656 42.660156 16.0625 57.828125 16.0625 L 57.828125 22.285156 C 51.675781 33.816406 37.335938 38.179688 25.804688 32.023438 C 14.269531 25.871094 9.90625 11.535156 16.0625 0 L 68.601563 50.554688 C 54.640625 65.0625 31.5625 65.507813 17.054688 51.546875 C 2.542969 37.585938 2.101563 14.507813 16.0625 0 Z M 68.601563 49.738281 "/>
<path style=" stroke:none;fill-rule:nonzero;fill:rgb(31.372549%,90.196078%,100%);fill-opacity:1;" d="M 44.996094 26.523438 L 44.996094 42.351563 L 31.382813 50.320313 L 31.382813 34.457031 Z M 44.996094 26.523438 "/>
<path style=" stroke:none;fill-rule:nonzero;fill:rgb(76.470588%,94.509804%,100%);fill-opacity:1;" d="M 44.996094 26.523438 L 31.382813 34.496094 L 17.773438 26.523438 L 31.382813 18.550781 Z M 44.996094 26.523438 "/>
<path style=" stroke:none;fill-rule:nonzero;fill:rgb(61.176471%,92.156863%,100%);fill-opacity:1;" d="M 31.382813 34.496094 L 31.382813 50.320313 L 17.773438 42.351563 L 17.773438 26.523438 Z M 31.382813 34.496094 "/>
<path style=" stroke:none;fill-rule:nonzero;fill:rgb(76.470588%,94.509804%,100%);fill-opacity:1;" d="M 17.773438 42.351563 L 31.382813 34.457031 L 31.382813 50.320313 Z M 17.773438 42.351563 "/>
<path style=" stroke:none;fill-rule:nonzero;fill:rgb(61.176471%,92.156863%,100%);fill-opacity:1;" d="M 44.996094 42.351563 L 31.382813 34.457031 L 31.382813 50.320313 Z M 44.996094 42.351563 "/>
</g>
</svg>
