<?xml version="1.0" encoding="UTF-8"?>
<svg xmlns="http://www.w3.org/2000/svg" xmlns:xlink="http://www.w3.org/1999/xlink" width="52pt" height="70pt" viewBox="0 0 52 70" version="1.1">
<g id="surface1">
<path style=" stroke:none;fill-rule:nonzero;fill:rgb(0%,0%,0%);fill-opacity:1;" d="M 21.667969 22.09375 L 0 22.09375 L 0 0.21875 L 4.332031 0.21875 L 4.332031 14.65625 L 7.800781 10.71875 L 11.265625 7.65625 L 14.734375 4.59375 L 18.632813 2.40625 C 18.035156 7.601563 13.378906 11.324219 8.234375 10.71875 C 3.085938 10.113281 -0.597656 5.414063 0 0.21875 L 28.167969 0.21875 L 34.234375 1.09375 L 40.300781 3.71875 L 45.066406 7.21875 C 45.546875 -4.621094 55.273438 -13.921875 67.011719 -13.761719 C 78.746094 -13.601563 88.21875 -4.035156 88.378906 7.8125 C 88.539063 19.664063 79.328125 29.484375 67.601563 29.96875 L 67.601563 35.21875 C 67.085938 38.40625 66.503906 41.5 65.867188 44.40625 C 50.914063 42.445313 40.035156 29.101563 41.007813 13.910156 C 41.984375 -1.285156 54.472656 -13.101563 69.550781 -13.101563 C 84.628906 -13.101563 97.117188 -1.285156 98.089844 13.910156 C 99.0625 29.101563 88.1875 42.445313 73.234375 44.40625 L 45.066406 73.28125 L 41.601563 69.78125 L 70.199219 41.34375 C 68.980469 33.484375 72.910156 25.726563 79.933594 22.121094 C 86.957031 18.519531 95.480469 19.882813 101.050781 25.507813 C 106.621094 31.132813 107.976563 39.738281 104.40625 46.828125 C 100.835938 53.921875 93.152344 57.886719 85.367188 56.65625 C 85.628906 59.878906 86.460938 61.339844 87.320313 60.097656 C 88.183594 58.851563 88.820313 55.277344 88.820313 51.679688 C 88.820313 48.078125 88.183594 45.53125 87.320313 45.683594 C 86.460938 45.835938 85.628906 48.636719 85.367188 52.28125 C 84.039063 48.480469 81.664063 46.769531 79.300781 47.90625 C 79.734375 47.886719 80.167969 47.886719 80.601563 47.90625 L 16.464844 8.96875 L 12.132813 12.90625 L 7.367188 17.71875 L 21.667969 17.71875 Z M 21.667969 22.09375 "/>
</g>
</svg>
