<?xml version="1.0" encoding="UTF-8"?>
<svg xmlns="http://www.w3.org/2000/svg" xmlns:xlink="http://www.w3.org/1999/xlink" width="70pt" height="70pt" viewBox="0 0 70 70" version="1.1">
<g id="surface1">
<path style=" stroke:none;fill-rule:nonzero;fill:rgb(87.843137%,4.313725%,10.980392%);fill-opacity:1;" d="M 35 67.785156 C 16.921875 67.785156 2.214844 53.082031 2.214844 35 C 2.214844 16.921875 16.921875 2.214844 35 2.214844 C 53.082031 2.214844 67.785156 16.921875 67.785156 35 C 67.785156 53.082031 53.082031 67.785156 35 67.785156 Z M 35 67.785156 "/>
<path style=" stroke:none;fill-rule:nonzero;fill:rgb(100%,100%,100%);fill-opacity:1;" d="M 35 4.433594 C 44.824219 13.421875 47.699219 27.738281 42.105469 39.824219 C 36.511719 51.910156 23.734375 58.980469 10.523438 57.308594 C -2.6875 55.636719 -13.296875 45.601563 -15.703125 32.503906 C -18.105469 19.40625 -11.753906 6.257813 0 0 M 35 0 C 15.703125 0 0 15.703125 0 35 C 0 54.296875 15.703125 70 35 70 C 54.296875 70 70 54.296875 70 35 C 70 15.703125 54.296875 0 35 0 Z M 35 0 "/>
<path style=" stroke:none;fill-rule:nonzero;fill:rgb(100%,100%,100%);fill-opacity:1;" d="M 54.105469 39.585938 L 54.105469 30.414063 L 15.894531 30.414063 L 15.894531 39.585938 Z M 54.105469 39.585938 "/>
</g>
</svg>
