<?xml version="1.0" encoding="UTF-8"?>
<svg xmlns="http://www.w3.org/2000/svg" xmlns:xlink="http://www.w3.org/1999/xlink" width="70pt" height="70pt" viewBox="0 0 70 70" version="1.1">
<defs>
<radialGradient id="radial0" gradientUnits="userSpaceOnUse" cx="-105.006" cy="-10.409" fx="-105.006" fy="-10.409" r="5.954" gradientTransform="matrix(4.028889,0,0,3.993889,457.873889,76.393333)">
<stop offset="0.183" style="stop-color:rgb(36.862745%,62.745098%,93.72549%);stop-opacity:1;"/>
<stop offset="1" style="stop-color:rgb(0%,47.058824%,83.137255%);stop-opacity:1;"/>
</radialGradient>
<clipPath id="clip1">
  <path d="M 40 28 L 70 28 L 70 70 L 40 70 Z M 40 28 "/>
</clipPath>
<clipPath id="clip2">
  <path d="M 58.210938 29.285156 C 68.015625 26.652344 78.410156 30.511719 84.125 38.902344 C 89.835938 47.289063 89.617188 58.375 83.578125 66.535156 C 77.539063 74.691406 67.003906 78.136719 57.308594 75.125 C 47.617188 72.109375 40.890625 63.292969 40.546875 53.148438 Z M 58.210938 29.285156 "/>
</clipPath>
</defs>
<g id="surface1">
<path style=" stroke:none;fill-rule:nonzero;fill:rgb(31.372549%,90.196078%,100%);fill-opacity:1;" d="M 11.488281 20.480469 C 5.832031 20.667969 1.09375 16.238281 0.90625 10.582031 C 0.71875 4.925781 5.148438 0.1875 10.804688 0 C 11.082031 0 11.332031 0.164063 11.4375 0.417969 C 11.546875 0.675781 11.488281 0.96875 11.292969 1.167969 C 11.097656 1.363281 10.800781 1.421875 10.546875 1.316406 C 10.289063 1.210938 10.121094 0.960938 10.121094 0.683594 C 10.121094 0.308594 10.425781 0.00390625 10.804688 0.00390625 C 11.179688 0.00390625 11.484375 0.308594 11.484375 0.683594 C 11.484375 1.058594 11.179688 1.363281 10.804688 1.363281 L 10.804688 9.179688 C 12.40625 9.382813 12.667969 9.640625 11.488281 9.859375 C 11.21875 9.703125 11.085938 9.386719 11.164063 9.085938 C 11.246094 8.78125 11.519531 8.574219 11.828125 8.574219 C 12.140625 8.574219 12.414063 8.78125 12.496094 9.085938 C 12.574219 9.386719 12.441406 9.703125 12.171875 9.859375 Z M 60.710938 67.882813 C 62.4375 68.035156 63.714844 69.558594 63.5625 71.289063 C 63.414063 73.015625 61.890625 74.292969 60.160156 74.140625 L 60.710938 74.691406 L 61.257813 74.691406 C 75.597656 75.300781 88.621094 74.394531 90.347656 72.667969 C 92.074219 70.945313 81.847656 69.050781 67.507813 68.441406 C 67.507813 68.136719 67.753906 67.890625 68.054688 67.890625 C 68.359375 67.890625 68.605469 68.136719 68.605469 68.441406 C 68.605469 68.742188 68.359375 68.988281 68.054688 68.988281 L 68.054688 75.238281 C 87.738281 75.261719 103.941406 76.679688 104.246094 78.40625 C 104.546875 80.132813 88.835938 81.515625 69.152344 81.496094 L 69.699219 82.042969 Z M 60.710938 67.882813 "/>
<path style=" stroke:none;fill-rule:nonzero;fill:url(#radial0);" d="M 58.210938 29.285156 C 68.015625 26.652344 78.410156 30.511719 84.125 38.902344 C 89.835938 47.289063 89.617188 58.375 83.578125 66.535156 C 77.539063 74.691406 67.003906 78.136719 57.308594 75.125 C 47.617188 72.109375 40.890625 63.292969 40.546875 53.148438 Z M 58.210938 29.285156 "/>
<g clip-path="url(#clip1)" clip-rule="nonzero">
<g clip-path="url(#clip2)" clip-rule="nonzero">
<path style=" stroke:none;fill-rule:nonzero;fill:rgb(94.901961%,94.901961%,94.901961%);fill-opacity:1;" d="M 22.203125 51.003906 C 21.683594 48.257813 23.019531 45.496094 25.488281 44.191406 C 27.957031 42.886719 30.992188 43.347656 32.964844 45.320313 C 34.941406 47.296875 35.398438 50.328125 34.09375 52.796875 C 32.792969 55.269531 30.03125 56.601563 27.285156 56.085938 L 11.011719 56.085938 C -0.136719 52.125 -6.816406 40.710938 -4.808594 29.050781 C -2.796875 17.390625 7.316406 8.867188 19.148438 8.867188 C 30.980469 8.867188 41.097656 17.390625 43.105469 29.050781 C 45.113281 40.710938 38.433594 52.125 27.285156 56.085938 Z M 58.507813 30.390625 C 58.507813 30.332031 58.507813 30.273438 58.480469 30.21875 C 55.515625 33.625 51.625 36.089844 47.28125 37.316406 L 54.304688 44.339844 L 62.082031 44.339844 C 61.085938 46.988281 60.433594 52.988281 60.507813 58.878906 C 60.582031 64.769531 61.359375 69.042969 62.390625 69.234375 C 63.425781 69.425781 64.449219 65.484375 64.875 59.6875 C 65.296875 53.886719 65.015625 47.714844 64.1875 44.730469 L 72.082031 44.730469 C 100.125 46.851563 121.476563 70.769531 120.414063 98.875 C 119.351563 126.980469 96.257813 149.214844 68.132813 149.214844 C 40.007813 149.214844 16.914063 126.980469 15.851563 98.875 C 14.792969 70.769531 36.140625 46.851563 64.1875 44.730469 Z M 58.507813 30.390625 "/>
</g>
</g>
<path style=" stroke:none;fill-rule:nonzero;fill:rgb(31.372549%,90.196078%,100%);fill-opacity:1;" d="M 66.855469 14.902344 C 64.40625 10.832031 58.6875 9.242188 50.695313 10.433594 C 53.152344 18.566406 53.753906 27.144531 52.453125 35.539063 C 53.390625 35.335938 54.332031 35.089844 55.234375 34.953125 C 47.09375 22.457031 49.707031 5.828125 61.292969 -3.570313 C 72.878906 -12.964844 89.691406 -12.089844 100.238281 -1.539063 C 110.785156 9.007813 111.660156 25.816406 102.265625 37.402344 C 92.871094 48.988281 76.242188 51.601563 63.742188 43.460938 C 65.230469 45.941406 63.976563 50.1875 60.296875 55.128906 C 30.226563 71.019531 -7.007813 61.054688 -25.125 32.273438 C -43.242188 3.488281 -36.125 -34.394531 -8.792969 -54.632813 C 18.539063 -74.875 56.851563 -70.636719 79.101563 -44.914063 C 101.351563 -19.1875 100.019531 19.332031 76.050781 43.460938 C 69.96875 44.371094 65.621094 43.460938 64.132813 40.988281 C 62.640625 38.515625 63.898438 34.261719 67.578125 29.339844 C 68.03125 28.730469 68.144531 28.433594 68.664063 27.816406 C 81.066406 15.410156 101.179688 15.410156 113.585938 27.816406 C 125.992188 40.222656 125.992188 60.335938 113.585938 72.742188 C 2.011719 43.074219 0.703125 48.867188 3.144531 52.9375 C 12.203125 43.882813 26.886719 43.882813 35.945313 52.9375 C 45.003906 61.996094 45.003906 76.679688 35.945313 85.738281 L 35.945313 109.921875 C 40.777344 103.464844 42.085938 97.671875 39.644531 93.597656 Z M 66.855469 14.902344 "/>
</g>
</svg>
