<?xml version="1.0" encoding="UTF-8"?>
<svg xmlns="http://www.w3.org/2000/svg" xmlns:xlink="http://www.w3.org/1999/xlink" width="70pt" height="65pt" viewBox="0 0 70 65" version="1.1">
<g id="surface1">
<path style=" stroke:none;fill-rule:nonzero;fill:rgb(0%,0%,0%);fill-opacity:1;" d="M 36.867188 21.820313 L 28.464844 21.820313 L 22.867188 48.75 C 24.457031 35.28125 35.421875 24.820313 49.015625 23.808594 C 62.609375 22.796875 75.015625 31.515625 78.601563 44.601563 C 82.191406 57.683594 75.949219 71.464844 63.722656 77.457031 C 51.492188 83.453125 36.710938 79.980469 28.464844 69.179688 L 41.535156 82.179688 L 56 82.179688 L 4.199219 82.179688 L 2.332031 81.25 L 0.933594 80.320313 C 2.738281 80.835938 3.78125 82.703125 3.265625 84.5 C 2.75 86.296875 0.871094 87.335938 -0.933594 86.820313 L 1.398438 85.894531 L 3.265625 85.894531 L 4.199219 86.820313 L 5.601563 88.214844 L 6.535156 89.605469 L 8.867188 89.605469 L 10.265625 87.75 L 11.667969 84.964844 C 10.550781 82.097656 11.605469 78.847656 14.191406 77.171875 C 16.78125 75.492188 20.195313 75.847656 22.378906 78.019531 C 24.5625 80.195313 24.917969 83.589844 23.234375 86.164063 C 21.546875 88.738281 18.28125 89.789063 15.398438 88.679688 C 15.398438 87.75 15.867188 87.285156 15.867188 86.355469 L 21.933594 58.5 L 15.867188 58.5 L 16.800781 55.714844 L 22.867188 55.714844 L 22.867188 53.394531 C 32.660156 35.699219 55.015625 29.257813 72.800781 39 C 90.582031 48.742188 97.058594 70.984375 87.265625 88.679688 L 34.066406 1.394531 C 9.839844 16.007813 2.109375 47.398438 16.800781 71.5 C 31.492188 95.601563 63.039063 103.292969 87.265625 88.679688 L 89.132813 88.679688 L 91 89.605469 C 91.773438 88.835938 93.027344 88.835938 93.800781 89.605469 C 94.574219 90.375 94.574219 91.625 93.800781 92.394531 L 93.800781 97.035156 L 91 97.964844 L 89.132813 97.964844 L 88.199219 97.035156 L 37.800781 4.179688 L 36.867188 2.785156 L 34.535156 3.714844 L 32.667969 6.035156 L 31.265625 9.285156 C 30.800781 10.679688 30.800781 11.605469 30.332031 13 C 53.65625 12.101563 73.296875 30.1875 74.199219 53.394531 C 75.101563 76.597656 56.925781 96.136719 33.601563 97.035156 C 33.132813 97.964844 33.132813 98.894531 32.667969 99.355469 L 41.066406 99.355469 Z M 61.132813 24.144531 L 58.800781 26 L 56.933594 28.320313 L 55.066406 31.105469 L 53.667969 33.429688 L 54.601563 36.214844 C 54.601563 37.144531 55.066406 38.070313 55.066406 39.464844 C 55.066406 40.855469 55.535156 41.320313 56 42.25 C 56.464844 43.179688 56.464844 44.105469 57.398438 44.570313 C 71.960938 49.316406 79.902344 64.90625 75.132813 79.394531 C 70.367188 93.878906 54.695313 101.78125 40.132813 97.035156 L 47.132813 97.035156 L 47.132813 98.894531 L 44.800781 99.820313 L 42.933594 100.75 L 35.933594 100.75 C 35 100.285156 34.535156 100.285156 34.066406 99.355469 L 32.667969 97.5 C 32.667969 96.570313 32.199219 96.105469 32.199219 95.179688 C 36.039063 91.242188 42.121094 90.511719 46.789063 93.433594 C 51.453125 96.351563 53.429688 102.125 51.523438 107.269531 C 49.617188 112.417969 44.351563 115.535156 38.894531 114.746094 C 33.441406 113.953125 29.285156 109.472656 28.933594 104 L 26.132813 108.179688 L 23.332031 112.355469 L 21.464844 113.75 L 20.066406 115.144531 L 18.199219 116.070313 L 15.867188 116.070313 L 13.535156 115.144531 C 12.601563 114.679688 12.601563 113.75 12.601563 112.820313 C 10.152344 85 30.835938 60.472656 58.800781 58.035156 C 86.765625 55.601563 111.417969 76.179688 113.867188 104 L 114.800781 103.070313 L 116.199219 102.144531 L 121.800781 102.144531 L 126 97.964844 L 128.800781 92.855469 C 134.339844 93.371094 138.414063 98.253906 137.898438 103.769531 C 137.382813 109.28125 132.472656 113.335938 126.933594 112.820313 C 126.464844 111.894531 126.464844 110.964844 126 110.035156 C 125.378906 111.230469 124.402344 112.203125 123.199219 112.820313 L 122.265625 110.964844 L 121.332031 109.570313 L 116.667969 109.570313 L 114.800781 110.5 L 114.800781 108.644531 L 116.199219 108.644531 L 118.535156 107.714844 L 120.398438 106.785156 L 124.601563 106.785156 C 125.535156 106.785156 126 107.714844 126.464844 108.179688 L 127.867188 110.035156 C 128.640625 115.164063 125.089844 119.945313 119.933594 120.714844 C 114.777344 121.484375 109.972656 117.949219 109.199219 112.820313 C 109.199219 113.75 109.667969 114.679688 109.667969 115.605469 C 109.667969 116.535156 110.132813 117.464844 110.601563 118.394531 L 112 116.070313 L 113.867188 113.285156 C 108.730469 113.386719 104.390625 109.527344 103.914063 104.4375 C 103.441406 99.351563 106.996094 94.761719 112.0625 93.921875 C 117.128906 93.082031 121.988281 96.273438 123.195313 101.242188 C 124.40625 106.207031 121.558594 111.261719 116.667969 112.820313 C 117.601563 111.894531 118.066406 110.964844 119 110.5 L 121.332031 108.644531 L 124.132813 107.714844 C 124.132813 104.894531 126.429688 102.605469 129.265625 102.605469 C 132.101563 102.605469 134.398438 104.894531 134.398438 107.714844 C 134.398438 110.535156 132.101563 112.820313 129.265625 112.820313 L 129.265625 117.464844 L 128.332031 118.394531 L 126.933594 119.320313 L 61.132813 119.320313 Z M 61.132813 24.144531 "/>
</g>
</svg>
