<?xml version="1.0" encoding="UTF-8"?>
<svg xmlns="http://www.w3.org/2000/svg" xmlns:xlink="http://www.w3.org/1999/xlink" width="70pt" height="70pt" viewBox="0 0 70 70" version="1.1">
<defs>
<linearGradient id="linear0" gradientUnits="userSpaceOnUse" x1="9.83" y1="1.62" x2="9.83" y2="8.97" gradientTransform="matrix(3.888889,0,0,3.888889,0,0)">
<stop offset="0" style="stop-color:rgb(100%,100%,100%);stop-opacity:1;"/>
<stop offset="0.56" style="stop-color:rgb(98.431373%,98.431373%,98.431373%);stop-opacity:1;"/>
<stop offset="1" style="stop-color:rgb(94.901961%,94.901961%,94.901961%);stop-opacity:1;"/>
</linearGradient>
<linearGradient id="linear1" gradientUnits="userSpaceOnUse" x1="5.71" y1="7.16" x2="5.82" y2="17.54" gradientTransform="matrix(3.888889,0,0,3.888889,0,0)">
<stop offset="0" style="stop-color:rgb(19.607843%,83.137255%,96.078431%);stop-opacity:1;"/>
<stop offset="0.32" style="stop-color:rgb(19.215686%,81.960784%,95.294118%);stop-opacity:1;"/>
<stop offset="0.53" style="stop-color:rgb(18.039216%,78.823529%,92.156863%);stop-opacity:1;"/>
<stop offset="0.7" style="stop-color:rgb(16.078431%,72.941176%,87.058824%);stop-opacity:1;"/>
<stop offset="0.86" style="stop-color:rgb(13.333333%,64.705882%,79.607843%);stop-opacity:1;"/>
<stop offset="1" style="stop-color:rgb(9.803922%,54.117647%,70.196078%);stop-opacity:1;"/>
<stop offset="1" style="stop-color:rgb(9.803922%,54.117647%,70.196078%);stop-opacity:1;"/>
</linearGradient>
</defs>
<g id="surface1">
<path style=" stroke:none;fill-rule:nonzero;fill:rgb(0%,47.058824%,83.137255%);fill-opacity:1;" d="M 38.226563 2.101563 C 56.195313 2.101563 67.160156 15.554688 68.054688 33.753906 C 58.734375 32.414063 52.265625 23.769531 53.609375 14.445313 C 54.949219 5.125 63.59375 -1.34375 72.917969 0 L 22.359375 0 C 24.097656 1.085938 24.90625 3.1875 24.34375 5.15625 C 23.777344 7.125 21.976563 8.480469 19.929688 8.480469 C 17.882813 8.480469 16.082031 7.125 15.519531 5.15625 C 14.957031 3.1875 15.761719 1.085938 17.5 0 C 9.292969 15.554688 20.261719 2.101563 38.226563 2.101563 Z M 38.226563 2.101563 "/>
<path style=" stroke:none;fill-rule:nonzero;fill:url(#linear0);" d="M 12.988281 35.542969 C 3.539063 38.765625 -6.734375 33.71875 -9.957031 24.265625 C -13.175781 14.816406 -8.128906 4.542969 1.320313 1.320313 C 2.179688 -16.140625 14.195313 -27.378906 28.078125 -27.378906 C 41.960938 -27.378906 53.976563 -16.140625 54.832031 1.320313 C 54.839844 0.613281 55.304688 -0.0117188 55.984375 -0.222656 C 56.660156 -0.433594 57.398438 -0.179688 57.804688 0.402344 C 58.210938 0.984375 58.195313 1.761719 57.765625 2.328125 C 57.335938 2.890625 56.589844 3.113281 55.921875 2.878906 Z M 12.988281 35.542969 "/>
<path style=" stroke:none;fill-rule:nonzero;fill:rgb(36.862745%,62.745098%,93.72549%);fill-opacity:1;" d="M 52.695313 14.855469 C 49.039063 10.78125 47.066406 5.472656 47.171875 0 L 47.171875 19.445313 C 42.21875 22.976563 35.402344 22.214844 31.347656 17.683594 C 27.289063 13.152344 27.289063 6.292969 31.347656 1.761719 C 35.402344 -2.773438 42.21875 -3.53125 47.171875 0 Z M 52.695313 14.855469 "/>
<path style=" stroke:none;fill-rule:nonzero;fill:rgb(0%,47.058824%,83.137255%);fill-opacity:1;" d="M 23.761719 14.855469 L 30.683594 21.972656 C 24.617188 30.445313 12.828125 32.394531 4.355469 26.328125 C -4.117188 20.261719 -6.066406 8.472656 0 0 L 0 9.332031 C 1.011719 5.800781 2.910156 2.585938 5.523438 0 Z M 23.761719 14.855469 "/>
<path style=" stroke:none;fill-rule:nonzero;fill:rgb(36.862745%,62.745098%,93.72549%);fill-opacity:1;" d="M 47.949219 24.1875 C 41.269531 37.429688 25.121094 42.75 11.878906 36.070313 C -1.359375 29.390625 -6.679688 13.242188 0 0 L 9.800781 0 C 5.460938 1.289063 0.839844 1.289063 -3.5 0 Z M 47.949219 24.1875 "/>
<path style=" stroke:none;fill-rule:nonzero;fill:rgb(0%,35.686275%,63.137255%);fill-opacity:1;" d="M 28.503906 24.1875 L 21.582031 17.070313 C 22.878906 9.515625 27.871094 3.105469 34.882813 0 L 44.644531 0 C 50.519531 2.339844 53.902344 8.523438 52.710938 14.730469 C 51.519531 20.941406 46.085938 25.429688 39.765625 25.429688 C 33.441406 25.429688 28.007813 20.941406 26.816406 14.730469 C 25.625 8.523438 29.007813 2.339844 34.882813 0 Z M 56.234375 21.972656 C 50.164063 22.207031 45.054688 17.480469 44.820313 11.414063 C 44.582031 5.347656 49.308594 0.234375 55.378906 0 L 40.949219 5.753906 L 42.078125 8.632813 L 56.503906 2.878906 C 55.960938 3.339844 55.179688 3.394531 54.578125 3.011719 C 53.972656 2.628906 53.6875 1.902344 53.871094 1.210938 C 54.054688 0.523438 54.664063 0.03125 55.378906 0 Z M 56.234375 21.972656 "/>
<path style=" stroke:none;fill-rule:nonzero;fill:rgb(46.27451%,46.27451%,46.27451%);fill-opacity:1;" d="M 42.429688 28.933594 C 42.429688 31.253906 40.546875 33.132813 38.226563 33.132813 C 35.90625 33.132813 34.027344 31.253906 34.027344 28.933594 C 34.027344 26.613281 35.90625 24.734375 38.226563 24.734375 C 40.546875 24.734375 42.429688 26.613281 42.429688 28.933594 Z M 42.429688 28.933594 "/>
<path style=" stroke:none;fill-rule:nonzero;fill:url(#linear1);" d="M 41.726563 67.898438 L 3.460938 67.898438 C 2.253906 67.898438 1.515625 65.917969 2.214844 64.945313 L 15.554688 45.695313 C 2.9375 32.054688 3.765625 10.769531 17.402344 -1.847656 C 31.042969 -14.464844 52.328125 -13.636719 64.945313 0 L 64.945313 32.121094 C 56.074219 32.328125 48.71875 25.300781 48.515625 16.429688 C 48.308594 7.558594 55.335938 0.203125 64.207031 0 L 63.582031 0 C 64.203125 0.34375 64.507813 1.066406 64.332031 1.75 C 64.152344 2.433594 63.535156 2.914063 62.824219 2.914063 C 62.117188 2.914063 61.496094 2.433594 61.320313 1.75 C 61.140625 1.066406 61.449219 0.34375 62.066406 0 L 62.066406 29.167969 C 54.011719 29.167969 47.484375 22.636719 47.484375 14.582031 C 47.484375 6.527344 54.011719 0 62.066406 0 L 31.109375 0 C 31.109375 -8.546875 38.039063 -15.476563 46.589844 -15.476563 C 55.136719 -15.476563 62.066406 -8.546875 62.066406 0 L 62.066406 0.699219 C 61.40625 0.597656 60.886719 0.078125 60.792969 -0.585938 C 60.699219 -1.25 61.050781 -1.894531 61.660156 -2.175781 C 62.265625 -2.457031 62.988281 -2.304688 63.429688 -1.804688 C 63.875 -1.300781 63.9375 -0.570313 63.582031 0 L 62.765625 0 C 62.996094 -0.132813 63.277344 -0.132813 63.503906 0 L 63.503906 12.753906 C 59.984375 12.753906 57.128906 9.898438 57.128906 6.378906 C 57.128906 2.855469 59.984375 0 63.503906 0 L 76.726563 19.210938 C 77.390625 20.378906 76.6875 22.167969 75.445313 22.167969 Z M 41.726563 67.898438 "/>
<path style=" stroke:none;fill-rule:nonzero;fill:rgb(100%,100%,100%);fill-opacity:1;" d="M 8.515625 62.222656 L 18.082031 48.261719 C 4.757813 53.253906 -10.09375 46.5 -15.089844 33.171875 C -20.082031 19.84375 -13.328125 4.992188 0 0 L 0 -5.5625 C 1.535156 -5.5625 2.78125 -4.316406 2.78125 -2.78125 C 2.78125 -1.246094 1.535156 0 0 0 L 5.445313 0 C 5.445313 1.503906 4.226563 2.722656 2.722656 2.722656 C 1.21875 2.722656 0 1.503906 0 0 L 0 46.667969 C -12.886719 46.667969 -23.332031 36.21875 -23.332031 23.332031 C -23.332031 10.445313 -12.886719 0 0 0 L 36.59375 62.222656 C 19.414063 61.855469 5.78125 47.632813 6.144531 30.449219 C 6.507813 13.269531 20.734375 -0.363281 37.917969 0 L 9.179688 0 C 9.464844 0.347656 9.429688 0.859375 9.101563 1.167969 C 8.773438 1.476563 8.261719 1.476563 7.933594 1.167969 C 7.601563 0.859375 7.570313 0.347656 7.855469 0 Z M 8.515625 62.222656 "/>
</g>
</svg>
