<?xml version="1.0" encoding="UTF-8"?>
<svg xmlns="http://www.w3.org/2000/svg" xmlns:xlink="http://www.w3.org/1999/xlink" width="70pt" height="70pt" viewBox="0 0 70 70" version="1.1">
<defs>
<linearGradient id="linear0" gradientUnits="userSpaceOnUse" x1="9" y1="17.39" x2="9" y2="0.61" gradientTransform="matrix(3.888889,0,0,3.888889,0,0)">
<stop offset="0" style="stop-color:rgb(0%,47.058824%,83.137255%);stop-opacity:1;"/>
<stop offset="0.82" style="stop-color:rgb(36.862745%,62.745098%,93.72549%);stop-opacity:1;"/>
</linearGradient>
</defs>
<g id="surface1">
<path style=" stroke:none;fill-rule:nonzero;fill:rgb(100%,100%,100%);fill-opacity:1;" d="M 38.890625 2.839844 L 10.929688 2.839844 C 10.726563 2.152344 10.867188 1.414063 11.308594 0.851563 C 11.746094 0.289063 12.429688 -0.0273438 13.144531 0 L 13.144531 59.890625 C -3.394531 59.890625 -16.800781 46.480469 -16.800781 29.945313 C -16.800781 13.40625 -3.394531 0 13.144531 0 L 61.289063 0 C 61.289063 13.292969 50.511719 24.070313 37.214844 24.070313 C 23.921875 24.070313 13.144531 13.292969 13.144531 0 L 13.144531 25.316406 C 6.152344 25.929688 -0.0117188 20.757813 -0.621094 13.765625 C -1.234375 6.777344 3.9375 0.613281 10.929688 0 L -5.054688 0 C -4.203125 0.492188 -3.785156 1.496094 -4.039063 2.449219 C -4.296875 3.402344 -5.160156 4.0625 -6.144531 4.0625 C -7.128906 4.0625 -7.992188 3.402344 -8.246094 2.449219 C -8.503906 1.496094 -8.085938 0.492188 -7.234375 0 L -7.234375 5.054688 C -8.628906 5.054688 -9.761719 3.925781 -9.761719 2.527344 C -9.761719 1.132813 -8.628906 0 -7.234375 0 Z M 38.890625 2.839844 "/>
<path style=" stroke:none;fill-rule:nonzero;fill:url(#linear0);" d="M 37.683594 5.640625 L 37.683594 20.6875 C 31.96875 31.09375 18.902344 34.898438 8.496094 29.1875 C -1.910156 23.472656 -5.714844 10.40625 0 0 L 58.332031 0 L 58.332031 38.148438 L 11.667969 38.148438 L 11.667969 5.640625 L 37.722656 5.640625 M 38.890625 2.371094 L 10.578125 2.371094 C 10.535156 1.757813 10.75 1.152344 11.167969 0.703125 C 11.589844 0.253906 12.179688 0 12.792969 0 L 12.792969 60.820313 C -4 60.820313 -17.617188 47.207031 -17.617188 30.410156 C -17.617188 13.617188 -4 0 12.792969 0 L 61.640625 0 C 61.640625 13.488281 50.703125 24.421875 37.214844 24.421875 C 23.730469 24.421875 12.792969 13.488281 12.792969 0 L 12.792969 25.160156 C 5.847656 25.773438 -0.28125 20.636719 -0.894531 13.6875 C -1.507813 6.742188 3.628906 0.613281 10.578125 0 L -5.640625 0 C -4.777344 0.507813 -4.363281 1.527344 -4.628906 2.492188 C -4.890625 3.457031 -5.765625 4.125 -6.765625 4.125 C -7.765625 4.125 -8.640625 3.457031 -8.90625 2.492188 C -9.167969 1.527344 -8.753906 0.507813 -7.894531 0 L -7.894531 4.589844 C -9.160156 4.589844 -10.1875 3.5625 -10.1875 2.292969 C -10.1875 1.027344 -9.160156 0 -7.894531 0 Z M 38.890625 2.371094 "/>
<path style=" stroke:none;fill-rule:nonzero;fill:rgb(0%,47.058824%,83.137255%);fill-opacity:1;" d="M 60.820313 23.332031 L 40.210938 2.839844 L 40.210938 19.445313 C 34.839844 30.546875 21.488281 35.195313 10.382813 29.828125 C -0.71875 24.457031 -5.371094 11.105469 0 0 Z M 60.820313 23.332031 "/>
<path style=" stroke:none;fill-rule:nonzero;fill:rgb(51.372549%,72.54902%,97.647059%);fill-opacity:1;" d="M 51.566406 33.015625 L 27.222656 33.015625 C 18.105469 40.535156 4.621094 39.238281 -2.898438 30.121094 C -10.414063 21.003906 -9.117188 7.515625 0 0 L 24.5 0 C 24.5 6.765625 19.015625 12.25 12.25 12.25 C 5.484375 12.25 0 6.765625 0 0 Z M 51.566406 42.503906 L 27.222656 42.503906 C 15.484375 50.023438 -0.125 46.601563 -7.640625 34.863281 C -15.160156 23.125 -11.738281 7.515625 0 0 L 24.5 0 C 24.5 6.765625 19.015625 12.25 12.25 12.25 C 5.484375 12.25 0 6.765625 0 0 Z M 51.566406 52.035156 L 27.222656 52.035156 C 12.855469 59.550781 -4.886719 53.996094 -12.40625 39.628906 C -19.921875 25.257813 -14.367188 7.515625 0 0 L 24.5 0 C 24.5 6.765625 19.015625 12.25 12.25 12.25 C 5.484375 12.25 0 6.765625 0 0 Z M 51.566406 52.035156 "/>
<path style=" stroke:none;fill-rule:nonzero;fill:rgb(0%,47.058824%,83.137255%);fill-opacity:1;" d="M 18.628906 37.800781 L 18.628906 32.667969 C 9.605469 32.589844 2.355469 25.21875 2.429688 16.195313 C 2.503906 7.175781 9.878906 -0.0742188 18.898438 0 L 18.042969 0.234375 L 18.042969 -1.359375 C 22.019531 0.820313 23.722656 5.636719 22 9.832031 C 20.277344 14.023438 15.679688 16.253906 11.320313 15.011719 C 6.960938 13.769531 4.230469 9.449219 4.976563 4.976563 L 6.222656 4.976563 L 6.222656 12.210938 Z M 17.109375 47.910156 L 17.109375 47.328125 C 19.539063 44.902344 23.472656 44.902344 25.898438 47.328125 C 28.328125 49.753906 28.328125 53.691406 25.898438 56.117188 L 25.898438 61.09375 C 25.683594 61.34375 25.449219 61.34375 25.238281 61.09375 C 25.238281 61.09375 25.238281 60.820313 25.511719 60.746094 C 25.472656 60.894531 25.375 61.023438 25.238281 61.09375 C 25.238281 60.589844 24.964844 60.355469 24.382813 60.355469 C 24.648438 60.558594 24.875 60.808594 25.042969 61.09375 L 25.042969 59.34375 C 25.433594 57.261719 27.316406 55.792969 29.429688 55.925781 C 31.546875 56.054688 33.234375 57.742188 33.363281 59.859375 C 33.496094 61.972656 32.027344 63.855469 29.945313 64.246094 L 29.945313 69.921875 C 30.191406 68.476563 30.734375 67.957031 31.152344 68.761719 C 31.570313 69.566406 31.710938 71.394531 31.460938 72.839844 L 35.933594 77.3125 L 35.15625 77.777344 C 35.207031 77.570313 35.351563 77.398438 35.542969 77.3125 L 38.382813 77.3125 L 38.382813 78.945313 Z M 21.933594 56 C 22.921875 55.558594 24.078125 56.003906 24.519531 56.992188 C 24.960938 57.980469 24.515625 59.136719 23.527344 59.578125 L 27.804688 63.855469 L 26.910156 63.582031 L 26.910156 61.910156 C 27.683594 61.136719 28.9375 61.136719 29.710938 61.910156 C 30.484375 62.683594 30.484375 63.9375 29.710938 64.710938 L 29.710938 65.527344 L 29.207031 66.109375 L 33.09375 70 L 32.550781 70 L 32.550781 68.484375 L 33.132813 68.484375 C 32.855469 67.972656 32.996094 67.339844 33.460938 66.992188 C 33.921875 66.644531 34.574219 66.691406 34.984375 67.101563 C 35.394531 67.511719 35.441406 68.160156 35.09375 68.625 C 34.746094 69.089844 34.109375 69.226563 33.601563 68.949219 L 33.601563 68.523438 C 33.601563 68.445313 33.25 68.523438 32.9375 68.523438 C 33.082031 68.652344 33.210938 68.796875 33.328125 68.949219 L 33.328125 67.355469 C 32.675781 65.253906 33.539063 62.980469 35.421875 61.84375 C 37.308594 60.707031 39.722656 61 41.277344 62.554688 C 42.832031 64.109375 43.128906 66.527344 41.992188 68.410156 C 40.855469 70.292969 38.578125 71.15625 36.476563 70.503906 L 36.476563 75.015625 C 36.460938 75.421875 36.335938 75.808594 36.128906 76.105469 C 36.265625 75.324219 36.914063 74.734375 37.703125 74.667969 C 38.496094 74.601563 39.230469 75.074219 39.5 75.824219 C 39.765625 76.570313 39.496094 77.402344 38.84375 77.851563 C 38.1875 78.304688 37.3125 78.257813 36.710938 77.738281 L 38.964844 77.738281 Z M 21.933594 56 "/>
</g>
</svg>
