<?xml version="1.0" encoding="UTF-8"?>
<svg xmlns="http://www.w3.org/2000/svg" xmlns:xlink="http://www.w3.org/1999/xlink" width="70pt" height="70pt" viewBox="0 0 70 70" version="1.1">
<g id="surface1">
<path style=" stroke:none;fill-rule:nonzero;fill:rgb(0%,0%,0%);fill-opacity:1;" d="M 32.8125 0 C 35.84375 0 38.75 0.386719 41.527344 1.164063 C 44.308594 1.9375 46.929688 3.03125 49.390625 4.445313 C 51.851563 5.855469 54.0625 7.566406 56.019531 9.570313 C 57.980469 11.574219 59.6875 13.796875 61.148438 16.234375 C 62.605469 18.671875 63.710938 21.28125 64.460938 24.0625 C 65.214844 26.84375 65.601563 29.757813 65.625 32.8125 C 65.625 35.84375 65.238281 38.75 64.460938 41.527344 C 63.6875 44.308594 62.59375 46.929688 61.179688 49.390625 C 59.769531 51.851563 58.058594 54.0625 56.054688 56.019531 C 54.050781 57.980469 51.828125 59.6875 49.390625 61.148438 C 46.953125 62.605469 44.34375 63.710938 41.5625 64.460938 C 38.78125 65.214844 35.867188 65.601563 32.8125 65.625 C 29.78125 65.625 26.875 65.238281 24.097656 64.460938 C 21.316406 63.6875 18.695313 62.59375 16.234375 61.179688 C 13.773438 59.769531 11.5625 58.058594 9.605469 56.054688 C 7.644531 54.050781 5.9375 51.828125 4.476563 49.390625 C 3.019531 46.953125 1.914063 44.34375 1.164063 41.5625 C 0.410156 38.78125 0.0234375 35.867188 0 32.8125 C 0 29.78125 0.386719 26.875 1.164063 24.097656 C 1.9375 21.316406 3.03125 18.695313 4.445313 16.234375 C 5.855469 13.773438 7.566406 11.5625 9.570313 9.605469 C 11.574219 7.644531 13.796875 5.9375 16.234375 4.476563 C 18.671875 3.019531 21.28125 1.914063 24.0625 1.164063 C 26.84375 0.410156 29.757813 0.0234375 32.8125 0 Z M 32.8125 61.25 C 35.410156 61.25 37.917969 60.90625 40.332031 60.226563 C 42.746094 59.539063 45.015625 58.585938 47.132813 57.351563 C 49.253906 56.125 51.179688 54.640625 52.910156 52.910156 C 54.640625 51.179688 56.125 49.265625 57.351563 47.167969 C 58.585938 45.070313 59.539063 42.804688 60.226563 40.367188 C 60.90625 37.929688 61.25 35.410156 61.25 32.8125 C 61.25 30.214844 60.90625 27.707031 60.226563 25.292969 C 59.539063 22.878906 58.585938 20.609375 57.351563 18.492188 C 56.125 16.371094 54.640625 14.445313 52.910156 12.714844 C 51.179688 10.984375 49.265625 9.5 47.167969 8.273438 C 45.070313 7.039063 42.804688 6.085938 40.367188 5.398438 C 37.929688 4.71875 35.410156 4.375 32.8125 4.375 C 30.191406 4.375 27.675781 4.71875 25.257813 5.398438 C 22.84375 6.085938 20.585938 7.039063 18.492188 8.273438 C 16.394531 9.5 14.46875 10.984375 12.714844 12.714844 C 10.960938 14.445313 9.480469 16.359375 8.273438 18.457031 C 7.0625 20.554688 6.105469 22.820313 5.398438 25.257813 C 4.695313 27.695313 4.351563 30.214844 4.375 32.8125 C 4.375 35.410156 4.71875 37.917969 5.398438 40.332031 C 6.085938 42.746094 7.039063 45.015625 8.273438 47.132813 C 9.5 49.253906 10.984375 51.179688 12.714844 52.910156 C 14.445313 54.640625 16.359375 56.125 18.457031 57.351563 C 20.554688 58.585938 22.820313 59.539063 25.257813 60.226563 C 27.695313 60.90625 30.214844 61.25 32.8125 61.25 Z M 30.625 17.5 L 35 17.5 L 35 39.375 L 30.625 39.375 Z M 30.625 43.75 L 35 43.75 L 35 48.125 L 30.625 48.125 Z M 30.625 43.75 "/>
</g>
</svg>
