<?xml version="1.0" encoding="UTF-8"?>
<svg xmlns="http://www.w3.org/2000/svg" xmlns:xlink="http://www.w3.org/1999/xlink" width="70pt" height="70pt" viewBox="0 0 70 70" version="1.1">
<g id="surface1">
<path style=" stroke:none;fill-rule:nonzero;fill:rgb(0%,0%,0%);fill-opacity:1;" d="M 47.335938 0 L 26.25 21.394531 L 29.355469 24.457031 L 45.28125 8.398438 L 45.28125 35 C 28.976563 34.832031 15.664063 21.921875 14.996094 5.628906 C 14.328125 -10.660156 26.542969 -24.617188 42.777344 -26.117188 C 59.011719 -27.621094 73.578125 -16.136719 75.90625 0 L 62.78125 0 L 62.78125 4.375 L 75.90625 4.375 C 74.726563 23.242188 58.773438 37.761719 39.878906 37.171875 C 20.984375 36.578125 5.976563 21.089844 5.976563 2.1875 C 5.976563 -16.714844 20.984375 -32.203125 39.878906 -32.796875 C 58.773438 -33.386719 74.726563 -18.867188 75.90625 0 L 75.90625 8.398438 L 65.625 24.457031 L 68.730469 21.394531 Z M 47.335938 0 "/>
</g>
</svg>
