<?xml version="1.0" encoding="UTF-8"?>
<svg xmlns="http://www.w3.org/2000/svg" xmlns:xlink="http://www.w3.org/1999/xlink" width="70pt" height="70pt" viewBox="0 0 70 70" version="1.1">
<defs>
<linearGradient id="linear0" gradientUnits="userSpaceOnUse" x1="9" y1="17" x2="9" y2="1" gradientTransform="matrix(3.888889,0,0,3.888889,0,0)">
<stop offset="0" style="stop-color:rgb(0%,47.058824%,83.137255%);stop-opacity:1;"/>
<stop offset="0.16" style="stop-color:rgb(7.45098%,50.196078%,85.490196%);stop-opacity:1;"/>
<stop offset="0.53" style="stop-color:rgb(23.529412%,56.862745%,89.803922%);stop-opacity:1;"/>
<stop offset="0.82" style="stop-color:rgb(33.333333%,61.176471%,92.54902%);stop-opacity:1;"/>
<stop offset="1" style="stop-color:rgb(36.862745%,62.745098%,93.72549%);stop-opacity:1;"/>
</linearGradient>
</defs>
<g id="surface1">
<path style=" stroke:none;fill-rule:nonzero;fill:url(#linear0);" d="M 25.667969 47.445313 L 44.332031 47.445313 L 44.332031 66.109375 L 25.667969 66.109375 Z M 3.890625 22.554688 L 22.554688 22.554688 L 22.554688 3.890625 L 6.496094 3.890625 C 5.996094 3.027344 6.03125 1.957031 6.582031 1.132813 C 7.136719 0.304688 8.113281 -0.132813 9.101563 0 Z M 6.496094 66.109375 L 22.554688 66.109375 L 22.554688 47.445313 L 3.890625 47.445313 L 3.890625 63.503906 C -13.648438 62.066406 -26.699219 46.683594 -25.257813 29.148438 C -23.820313 11.609375 -8.4375 -1.4375 9.101563 0 Z M 3.890625 44.332031 L 22.554688 44.332031 L 22.554688 25.667969 L 3.890625 25.667969 Z M 47.445313 66.109375 L 63.503906 66.109375 C 45.25 81.136719 18.269531 78.515625 3.246094 60.257813 C -11.777344 42.003906 -9.15625 15.023438 9.101563 0 L 9.101563 47.445313 L -9.566406 47.445313 Z M 25.667969 44.332031 L 44.332031 44.332031 L 44.332031 25.667969 L 25.667969 25.667969 Z M 47.445313 44.332031 L 66.109375 44.332031 L 66.109375 25.667969 L 47.445313 25.667969 Z M 47.445313 3.890625 L 47.445313 22.554688 L 66.109375 22.554688 L 66.109375 6.496094 C 64.316406 7.214844 62.28125 6.34375 61.5625 4.550781 C 60.839844 2.757813 61.710938 0.71875 63.503906 0 Z M 25.667969 22.554688 L 44.332031 22.554688 L 44.332031 3.890625 L 25.667969 3.890625 Z M 25.667969 22.554688 "/>
</g>
</svg>
