<?xml version="1.0" encoding="UTF-8"?>
<svg xmlns="http://www.w3.org/2000/svg" xmlns:xlink="http://www.w3.org/1999/xlink" width="70pt" height="70pt" viewBox="0 0 70 70" version="1.1">
<defs>
<radialGradient id="radial0" gradientUnits="userSpaceOnUse" cx="55.71" cy="71.92" fx="55.71" fy="71.92" r="9" gradientTransform="matrix(3.655556,0,0,3.655556,-169.594444,-229.133333)">
<stop offset="0.67" style="stop-color:rgb(41.960784%,72.54902%,94.901961%);stop-opacity:1;"/>
<stop offset="0.74" style="stop-color:rgb(38.039216%,70.588235%,94.509804%);stop-opacity:1;"/>
<stop offset="0.85" style="stop-color:rgb(27.843137%,65.882353%,93.72549%);stop-opacity:1;"/>
<stop offset="0.99" style="stop-color:rgb(11.372549%,58.039216%,92.156863%);stop-opacity:1;"/>
<stop offset="1" style="stop-color:rgb(10.588235%,57.647059%,92.156863%);stop-opacity:1;"/>
</radialGradient>
</defs>
<g id="surface1">
<path style=" stroke:none;fill-rule:nonzero;fill:url(#radial0);" d="M 35 1.945313 C 42.96875 -10.953125 58.691406 -16.777344 73.140625 -12.183594 C 87.589844 -7.585938 97.058594 6.25 96.113281 21.378906 C 95.167969 36.511719 84.046875 49.0625 69.140625 51.820313 C 54.230469 54.582031 39.355469 46.847656 33.054688 33.054688 Z M 35 1.945313 "/>
<path style=" stroke:none;fill-rule:nonzero;fill:rgb(100%,100%,100%);fill-opacity:1;" d="M 62.339844 35 C 62.339844 50.097656 50.097656 62.339844 35 62.339844 C 19.902344 62.339844 7.660156 50.097656 7.660156 35 C 7.660156 19.902344 19.902344 7.660156 35 7.660156 C 50.097656 7.660156 62.339844 19.902344 62.339844 35 Z M 62.339844 35 "/>
<path style=" stroke:none;fill-rule:nonzero;fill:rgb(19.607843%,74.509804%,86.666667%);fill-opacity:1;" d="M 31.964844 35 C 31.964844 36.652344 30.625 37.996094 28.972656 37.996094 C 27.320313 37.996094 25.976563 36.652344 25.976563 35 C 25.976563 33.347656 27.320313 32.003906 28.972656 32.003906 C 30.625 32.003906 31.964844 33.347656 31.964844 35 Z M 31.964844 35 "/>
<path style=" stroke:none;fill-rule:nonzero;fill:rgb(19.607843%,74.509804%,86.666667%);fill-opacity:1;" d="M 20.457031 26.445313 L 18.976563 26.445313 C 11.675781 26.132813 6.007813 19.960938 6.320313 12.660156 C 6.632813 5.355469 12.804688 -0.3125 20.105469 0 L 20.105469 22.246094 C 13.964844 22.246094 8.984375 17.265625 8.984375 11.121094 C 8.984375 4.980469 13.964844 0 20.105469 0 L 41.765625 0 C 41.765625 5.980469 36.917969 10.832031 30.9375 10.832031 C 24.953125 10.832031 20.105469 5.980469 20.105469 0 L 20.105469 -1.476563 C 20.222656 -1.125 20.15625 -0.738281 19.929688 -0.441406 C 19.707031 -0.148438 19.347656 0.0195313 18.976563 0 L -0.464844 0 C -0.261719 0.128906 -0.167969 0.378906 -0.234375 0.613281 C -0.304688 0.84375 -0.515625 1.003906 -0.757813 1.003906 C -1 1.003906 -1.214844 0.84375 -1.28125 0.613281 C -1.347656 0.378906 -1.253906 0.128906 -1.050781 0 L -1.050781 27.570313 C -8.664063 27.882813 -15.089844 21.964844 -15.398438 14.351563 C -15.710938 6.734375 -9.792969 0.3125 -2.179688 0 Z M 20.457031 26.445313 "/>
<path style=" stroke:none;fill-rule:nonzero;fill:rgb(19.607843%,74.509804%,86.666667%);fill-opacity:1;" d="M 44.023438 35 C 44.023438 36.652344 42.679688 37.996094 41.027344 37.996094 C 39.375 37.996094 38.035156 36.652344 38.035156 35 C 38.035156 33.347656 39.375 32.003906 41.027344 32.003906 C 42.679688 32.003906 44.023438 33.347656 44.023438 35 Z M 44.023438 35 "/>
<path style=" stroke:none;fill-rule:nonzero;fill:rgb(19.607843%,74.509804%,86.666667%);fill-opacity:1;" d="M 48.300781 17.890625 L 28.117188 17.890625 C 23.175781 17.566406 19.433594 13.300781 19.753906 8.359375 C 20.078125 3.421875 24.34375 -0.320313 29.285156 0 L 29.285156 1.476563 C 28.976563 1.832031 28.476563 1.960938 28.035156 1.796875 C 27.597656 1.632813 27.304688 1.210938 27.304688 0.738281 C 27.304688 0.269531 27.597656 -0.152344 28.035156 -0.316406 C 28.476563 -0.480469 28.976563 -0.355469 29.285156 0 L 48.726563 0 C 48.726563 5.371094 44.375 9.722656 39.003906 9.722656 C 33.636719 9.722656 29.285156 5.371094 29.285156 0 L 29.285156 20.183594 C 23.710938 20.183594 19.191406 15.664063 19.191406 10.089844 C 19.191406 4.519531 23.710938 0 29.285156 0 L 30.761719 0 C 31.117188 0.308594 31.242188 0.804688 31.078125 1.246094 C 30.914063 1.6875 30.492188 1.980469 30.023438 1.980469 C 29.550781 1.980469 29.128906 1.6875 28.964844 1.246094 C 28.800781 0.804688 28.925781 0.308594 29.285156 0 L 29.285156 20.183594 C 23.710938 20.816406 18.679688 16.8125 18.042969 11.238281 C 17.410156 5.664063 21.414063 0.632813 26.988281 0 Z M 48.300781 17.890625 "/>
</g>
</svg>
