<?xml version="1.0" encoding="UTF-8"?>
<svg xmlns="http://www.w3.org/2000/svg" xmlns:xlink="http://www.w3.org/1999/xlink" width="70pt" height="70pt" viewBox="0 0 70 70" version="1.1">
<defs>
<linearGradient id="linear0" gradientUnits="userSpaceOnUse" x1="8.11" y1="6.45" x2="8.11" y2="18.2" gradientTransform="matrix(3.888889,0,0,3.888889,0,0)">
<stop offset="0.22" style="stop-color:rgb(19.607843%,83.137255%,96.078431%);stop-opacity:1;"/>
<stop offset="1" style="stop-color:rgb(9.803922%,54.117647%,70.196078%);stop-opacity:1;"/>
</linearGradient>
<filter id="alpha" filterUnits="objectBoundingBox" x="0%" y="0%" width="100%" height="100%">
  <feColorMatrix type="matrix" in="SourceGraphic" values="0 0 0 0 1 0 0 0 0 1 0 0 0 0 1 0 0 0 1 0"/>
</filter>
<mask id="mask0">
  <g filter="url(#alpha)">
<rect x="0" y="0" width="70" height="70" style="fill:rgb(0%,0%,0%);fill-opacity:0.8;stroke:none;"/>
  </g>
</mask>
<clipPath id="clip1">
  <rect x="0" y="0" width="70" height="70"/>
</clipPath>
<g id="surface5" clip-path="url(#clip1)">
<path style=" stroke:none;fill-rule:nonzero;fill:rgb(100%,100%,100%);fill-opacity:1;" d="M 31.617188 32.820313 C 22.554688 41.554688 8.128906 41.28125 -0.601563 32.21875 C -9.332031 23.15625 -9.0625 8.730469 0 0 L 8.167969 21.621094 L 16.410156 0.15625 C 8.046875 0.0820313 1.238281 -6.589844 0.996094 -14.949219 C 0.753906 -23.308594 7.167969 -30.363281 15.511719 -30.921875 C 23.855469 -31.476563 31.148438 -25.335938 32.015625 -17.015625 C 32.886719 -8.699219 27.023438 -1.183594 18.746094 0 Z M 31.617188 32.820313 "/>
</g>
<linearGradient id="linear1" gradientUnits="userSpaceOnUse" x1="7.78" y1="0.15" x2="8.64" y2="10.82" gradientTransform="matrix(3.888889,0,0,3.888889,0,0)">
<stop offset="0.22" style="stop-color:rgb(19.607843%,83.137255%,96.078431%);stop-opacity:1;"/>
<stop offset="1" style="stop-color:rgb(9.803922%,54.117647%,70.196078%);stop-opacity:1;"/>
</linearGradient>
<linearGradient id="linear2" gradientUnits="userSpaceOnUse" x1="13.49" y1="17.15" x2="13.49" y2="9.35" gradientTransform="matrix(3.888889,0,0,3.888889,0,0)">
<stop offset="0" style="stop-color:rgb(9.803922%,53.333333%,85.098039%);stop-opacity:1;"/>
<stop offset="0.9" style="stop-color:rgb(32.941176%,68.235294%,94.117647%);stop-opacity:1;"/>
</linearGradient>
</defs>
<g id="surface1">
<path style=" stroke:none;fill-rule:nonzero;fill:url(#linear0);" d="M 54.171875 62.535156 C 53.398438 60.375 54.222656 57.96875 56.160156 56.738281 C 58.097656 55.511719 60.625 55.789063 62.25 57.414063 C 63.871094 59.035156 64.148438 61.5625 62.921875 63.5 C 61.695313 65.4375 59.285156 66.265625 57.128906 65.488281 C 55.222656 49.933594 46.433594 37.566406 29.90625 37.566406 C 13.378906 37.566406 5.753906 39.785156 3.890625 57.128906 C 6.199219 47.828125 15.609375 42.160156 24.910156 44.46875 C 34.207031 46.777344 39.875 56.1875 37.566406 65.488281 L 83.457031 65.488281 Z M 54.171875 62.535156 "/>
<use xlink:href="#surface5" mask="url(#mask0)"/>
<path style=" stroke:none;fill-rule:nonzero;fill:url(#linear1);" d="M 47.054688 17.382813 C 47.054688 25.910156 40.144531 32.820313 31.617188 32.820313 C 23.089844 32.820313 16.179688 25.910156 16.179688 17.382813 C 16.179688 8.855469 23.089844 1.945313 31.617188 1.945313 C 40.144531 1.945313 47.054688 8.855469 47.054688 17.382813 Z M 47.054688 17.382813 "/>
<path style=" stroke:none;fill-rule:nonzero;fill:rgb(0%,35.686275%,63.137255%);fill-opacity:1;" d="M 66.109375 50.554688 C 66.109375 59.421875 55.378906 66.578125 53.042969 68.054688 C 34.25 68.054688 19.015625 52.820313 19.015625 34.027344 C 19.015625 15.234375 34.25 0 53.042969 0 C 49.660156 66.460938 38.890625 59.304688 38.890625 50.554688 L 38.890625 39.746094 C 27.914063 36.523438 21.628906 25.015625 24.851563 14.039063 C 28.070313 3.0625 39.582031 -3.222656 50.554688 0 C 58.917969 -0.234375 57.011719 -3.890625 63.273438 -3.890625 C 69.535156 -3.890625 67.589844 -0.234375 75.949219 0 C 75.949219 22.046875 58.078125 39.917969 36.03125 39.917969 C 13.984375 39.917969 -3.890625 22.046875 -3.890625 0 Z M 66.109375 50.554688 "/>
<path style=" stroke:none;fill-rule:nonzero;fill:url(#linear2);" d="M 64.828125 50.554688 C 64.828125 58.722656 54.988281 65.292969 52.851563 66.617188 C 34.453125 66.617188 19.542969 51.703125 19.542969 33.308594 C 19.542969 14.914063 34.453125 0 52.851563 0 C 50.710938 -1.320313 40.871094 -7.777344 40.871094 -16.0625 L 40.871094 -25.898438 C 48.023438 -10.179688 41.078125 8.363281 25.355469 15.515625 C 9.632813 22.667969 -8.910156 15.722656 -16.0625 0 C -8.285156 0 -10.148438 -3.578125 -4.394531 -3.578125 C 1.359375 -3.578125 -0.503906 -0.195313 7.273438 0 C 7.273438 2.996094 4.84375 5.425781 1.847656 5.425781 C -1.148438 5.425781 -3.578125 2.996094 -3.578125 0 Z M 64.828125 50.554688 "/>
</g>
</svg>
