<?xml version="1.0" encoding="UTF-8"?>
<svg xmlns="http://www.w3.org/2000/svg" xmlns:xlink="http://www.w3.org/1999/xlink" width="39pt" height="70pt" viewBox="0 0 39 70" version="1.1">
<g id="surface1">
<path style=" stroke:none;fill-rule:nonzero;fill:rgb(0%,0%,0%);fill-opacity:1;" d="M 19.5 0 L 24.699219 0.875 L 29.464844 2.625 L 33.367188 5.6875 L 36.398438 9.625 C 38.660156 19.546875 33.695313 29.703125 24.519531 33.929688 C 15.347656 38.15625 4.496094 35.285156 -1.445313 27.0625 C -7.390625 18.839844 -6.785156 7.53125 0 0 C 1.746094 -10.039063 10.125 -17.53125 20.207031 -18.0625 C 30.289063 -18.597656 39.398438 -12.027344 42.171875 -2.226563 C 44.945313 7.574219 40.648438 18.007813 31.808594 22.933594 C 22.972656 27.859375 11.933594 25.96875 5.199219 18.375 L 2.167969 21.875 C -5.660156 29.035156 -17.65625 28.789063 -25.191406 21.316406 C -32.722656 13.839844 -33.171875 1.734375 -26.21875 -6.292969 C -19.265625 -14.316406 -7.320313 -15.472656 1.019531 -8.925781 C 9.355469 -2.378906 11.1875 9.59375 5.199219 18.375 L 2.167969 21.4375 L -0.867188 24.5 C 2.347656 28.042969 3.785156 32.878906 3.035156 37.625 L 3.035156 56.875 L 17.332031 56.875 L 17.332031 50.3125 C 15.941406 40.972656 20.644531 31.785156 28.996094 27.527344 C 37.347656 23.269531 47.464844 24.910156 54.078125 31.589844 C 60.695313 38.265625 62.316406 48.480469 58.101563 56.914063 C 53.886719 65.34375 44.785156 70.09375 35.535156 68.6875 L 38.566406 65.1875 L 41.601563 62.125 L 44.632813 59.0625 C 42.894531 50.363281 47.007813 41.542969 54.753906 37.347656 C 62.5 33.15625 72.054688 34.578125 78.269531 40.855469 C 84.484375 47.128906 85.894531 56.773438 81.742188 64.59375 C 77.585938 72.414063 68.851563 76.566406 60.234375 74.8125 L 60.234375 75.6875 C 60 73.144531 59.550781 71.023438 58.933594 69.5625 C 57.925781 69.648438 56.910156 69.648438 55.898438 69.5625 C 56.332031 69.542969 56.765625 69.542969 57.199219 69.5625 C 58.78125 69.347656 60.386719 69.347656 61.964844 69.5625 L 0 69.5625 C -0.175781 60.636719 5.039063 52.5 13.171875 49.003906 C 21.308594 45.503906 30.730469 47.347656 36.984375 53.660156 C 43.234375 59.972656 45.0625 69.488281 41.597656 77.699219 C 38.132813 85.914063 30.074219 91.175781 21.234375 91 L 24.265625 87.0625 L 28.167969 84 L 14.300781 0.875 Z M 17.332031 65.625 L 21.667969 65.625 L 21.667969 70 L 17.332031 70 Z M 17.332031 65.625 "/>
</g>
</svg>
