<?xml version="1.0" encoding="UTF-8"?>
<svg xmlns="http://www.w3.org/2000/svg" xmlns:xlink="http://www.w3.org/1999/xlink" width="70pt" height="70pt" viewBox="0 0 70 70" version="1.1">
<g id="surface1">
<path style=" stroke:none;fill-rule:nonzero;fill:rgb(0.392157%,36.078431%,85.490196%);fill-opacity:1;" d="M 70 35 C 70 54.328125 54.328125 70 35 70 C 15.671875 70 0 54.328125 0 35 C 0 15.671875 15.671875 0 35 0 C 54.328125 0 70 15.671875 70 35 Z M 70 35 "/>
<path style=" stroke:none;fill-rule:nonzero;fill:rgb(100%,100%,100%);fill-opacity:1;" d="M 41.339844 18.007813 C 41.339844 21.507813 38.5 24.347656 35 24.347656 C 31.5 24.347656 28.660156 21.507813 28.660156 18.007813 C 28.660156 14.507813 31.5 11.667969 35 11.667969 C 38.5 11.667969 41.339844 14.507813 41.339844 18.007813 Z M 41.339844 18.007813 "/>
<path style=" stroke:none;fill-rule:nonzero;fill:rgb(100%,100%,100%);fill-opacity:1;" d="M 39.8125 61.191406 L 39.8125 30.566406 L 30.234375 30.566406 L 30.1875 61.191406 Z M 39.8125 61.191406 "/>
</g>
</svg>
