<?xml version="1.0" encoding="UTF-8"?>
<svg xmlns="http://www.w3.org/2000/svg" xmlns:xlink="http://www.w3.org/1999/xlink" width="70pt" height="70pt" viewBox="0 0 70 70" version="1.1">
<defs>
<linearGradient id="linear0" gradientUnits="userSpaceOnUse" x1="9" y1="17.79" x2="9" y2="1.82" gradientTransform="matrix(3.888889,-0.000000000000000009,0.000000000000000009,3.888889,-0.0155556,-0.00644332)">
<stop offset="0" style="stop-color:rgb(14.509804%,50.980392%,46.666667%);stop-opacity:1;"/>
<stop offset="0.42" style="stop-color:rgb(28.627451%,64.313725%,59.607843%);stop-opacity:1;"/>
<stop offset="0.78" style="stop-color:rgb(37.647059%,72.941176%,67.843137%);stop-opacity:1;"/>
<stop offset="1" style="stop-color:rgb(40.784314%,76.078431%,70.980392%);stop-opacity:1;"/>
</linearGradient>
</defs>
<g id="surface1">
<path style=" stroke:none;fill-rule:nonzero;fill:url(#linear0);" d="M 2.570313 33.433594 L 33.394531 2.605469 C 34.261719 1.742188 35.664063 1.742188 36.53125 2.605469 L 67.355469 33.433594 C 68.222656 34.300781 68.222656 35.703125 67.355469 36.566406 L 36.53125 67.394531 C 35.664063 68.257813 34.261719 68.257813 33.394531 67.394531 L 2.570313 36.566406 C 1.703125 35.703125 1.703125 34.300781 2.570313 33.433594 Z M 2.570313 33.433594 "/>
<path style=" stroke:none;fill-rule:nonzero;fill:rgb(100%,100%,100%);fill-opacity:1;" d="M 27.417969 18.199219 L 34.726563 10.890625 C 37.734375 1.300781 32.398438 -8.914063 22.808594 -11.917969 C 13.21875 -14.925781 3.007813 -9.589844 0 0 L 42.777344 18.199219 C 37.753906 18.027344 33.816406 13.816406 33.988281 8.789063 C 34.160156 3.761719 38.375 -0.171875 43.398438 0 L 38.035156 0 C 38.152344 -0.0703125 38.300781 -0.0703125 38.421875 0 L 38.421875 9.449219 C 35.8125 9.351563 33.777344 7.160156 33.871094 4.550781 C 33.96875 1.941406 36.164063 -0.0976563 38.773438 0 L 32.746094 0 C 32.882813 0.078125 32.949219 0.242188 32.90625 0.394531 C 32.867188 0.546875 32.726563 0.652344 32.570313 0.652344 C 32.410156 0.652344 32.273438 0.546875 32.230469 0.394531 C 32.191406 0.242188 32.257813 0.078125 32.394531 0 L 32.394531 19.210938 C 27.089844 19.320313 22.703125 15.105469 22.59375 9.800781 C 22.488281 4.496094 26.699219 0.105469 32.003906 0 L 27.6875 0 C 27.808594 0.160156 27.789063 0.386719 27.640625 0.519531 C 27.492188 0.65625 27.265625 0.65625 27.117188 0.519531 C 26.96875 0.386719 26.945313 0.160156 27.066406 0 Z M 42.777344 51.800781 L 35.273438 59.109375 C 18.949219 59.109375 5.714844 45.878906 5.714844 29.554688 C 5.714844 13.234375 18.949219 0 35.273438 0 L 27.960938 -7.3125 C 29.980469 -9.328125 33.253906 -9.328125 35.273438 -7.3125 C 37.292969 -5.292969 37.292969 -2.019531 35.273438 0 L 39.589844 0 C 39.589844 1.191406 38.621094 2.160156 37.429688 2.160156 C 36.238281 2.160156 35.273438 1.191406 35.273438 0 L 35.273438 -9.449219 C 37.882813 -9.449219 39.996094 -7.335938 39.996094 -4.726563 C 39.996094 -2.117188 37.882813 0 35.273438 0 L 39.820313 0 C 39.820313 1.257813 38.804688 2.273438 37.546875 2.273438 C 36.289063 2.273438 35.273438 1.257813 35.273438 0 L 35.273438 9.449219 C 32.664063 9.449219 30.546875 7.335938 30.546875 4.726563 C 30.546875 2.117188 32.664063 0 35.273438 0 L 39.550781 0 C 39.550781 1.179688 38.59375 2.140625 37.410156 2.140625 C 36.230469 2.140625 35.273438 1.179688 35.273438 0 Z M 20.765625 42.15625 L 20.765625 37.878906 C 10.308594 37.984375 1.742188 29.59375 1.632813 19.132813 C 1.527344 8.671875 9.917969 0.105469 20.378906 0 L 10.929688 0 C 11.089844 0.0820313 11.171875 0.261719 11.132813 0.4375 C 11.089844 0.613281 10.933594 0.734375 10.753906 0.734375 C 10.574219 0.734375 10.417969 0.613281 10.375 0.4375 C 10.332031 0.261719 10.417969 0.0820313 10.578125 0 L 10.578125 32.589844 C 1.578125 32.589844 -5.714844 25.292969 -5.714844 16.292969 C -5.714844 7.296875 1.578125 0 10.578125 0 L 20.027344 0 C 20.027344 2.609375 17.914063 4.726563 15.304688 4.726563 C 12.691406 4.726563 10.578125 2.609375 10.578125 0 L 10.578125 27.535156 C 2.976563 27.535156 -3.1875 21.371094 -3.1875 13.765625 C -3.1875 6.164063 2.976563 0 10.578125 0 L 17.890625 7.390625 C 15.847656 9.40625 12.558594 9.390625 10.539063 7.351563 C 8.519531 5.308594 8.539063 2.019531 10.578125 0 L 21.390625 42.429688 C 9.671875 42.503906 0.113281 33.066406 0.0390625 21.351563 C -0.0351563 9.632813 9.402344 0.0742188 21.117188 0 Z M 49.234375 27.535156 L 49.234375 31.851563 C 40.4375 39.613281 27.015625 38.777344 19.25 29.984375 C 11.484375 21.1875 12.320313 7.765625 21.117188 0 L 30.566406 0 C 30.566406 2.609375 28.453125 4.726563 25.839844 4.726563 C 23.230469 4.726563 21.117188 2.609375 21.117188 0 L 21.117188 4.550781 C 19.859375 4.453125 18.921875 3.355469 19.015625 2.101563 C 19.113281 0.84375 20.210938 -0.0976563 21.464844 0 L 12.015625 0 C 12.140625 -0.0625 12.285156 -0.0625 12.40625 0 L 12.40625 4.277344 C 11.222656 4.203125 10.328125 3.183594 10.402344 2.003906 C 10.476563 0.820313 11.496094 -0.0742188 12.679688 0 L 41.300781 35 C 31.636719 42.902344 17.394531 41.476563 9.488281 31.8125 C 1.585938 22.144531 3.011719 7.902344 12.679688 0 L 48.609375 27.222656 C 41.09375 37.144531 26.957031 39.09375 17.035156 31.578125 C 7.109375 24.0625 5.160156 9.921875 12.679688 0 Z M 49.234375 27.535156 "/>
</g>
</svg>
