<?xml version="1.0" encoding="UTF-8"?>
<svg xmlns="http://www.w3.org/2000/svg" xmlns:xlink="http://www.w3.org/1999/xlink" width="70pt" height="70pt" viewBox="0 0 70 70" version="1.1">
<defs>
<linearGradient id="linear0" gradientUnits="userSpaceOnUse" x1="9" y1="-0.691" x2="9" y2="19.486" gradientTransform="matrix(3.888889,0,0,3.888889,0,0)">
<stop offset="0" style="stop-color:rgb(36.862745%,58.823529%,14.117647%);stop-opacity:1;"/>
<stop offset="0.316" style="stop-color:rgb(38.039216%,60.392157%,14.509804%);stop-opacity:1;"/>
<stop offset="0.659" style="stop-color:rgb(41.176471%,65.490196%,15.686275%);stop-opacity:1;"/>
<stop offset="0.999" style="stop-color:rgb(46.27451%,73.72549%,17.647059%);stop-opacity:1;"/>
</linearGradient>
<linearGradient id="linear1" gradientUnits="userSpaceOnUse" x1="9" y1="17.788" x2="9" y2="-0.966" gradientTransform="matrix(3.888889,0,0,3.888889,0,0)">
<stop offset="0" style="stop-color:rgb(36.862745%,58.823529%,14.117647%);stop-opacity:1;"/>
<stop offset="0.546" style="stop-color:rgb(42.745098%,67.843137%,16.470588%);stop-opacity:1;"/>
<stop offset="0.999" style="stop-color:rgb(46.27451%,73.72549%,17.647059%);stop-opacity:1;"/>
</linearGradient>
</defs>
<g id="surface1">
<path style=" stroke:none;fill-rule:nonzero;fill:url(#linear0);" d="M 63.070313 32.734375 C 63.070313 51.179688 40.769531 66.03125 35.925781 69.039063 C 16.859375 69.039063 1.40625 53.585938 1.40625 34.519531 C 1.40625 15.453125 16.859375 0 35.925781 0 C 31.078125 -3.011719 8.78125 -17.863281 8.78125 -36.308594 L 8.78125 10.535156 C 5.871094 22.984375 -6.578125 30.71875 -19.03125 27.8125 C -31.480469 24.902344 -39.214844 12.449219 -36.308594 0 C 25.996094 8.308594 22.003906 0.695313 35 0.695313 C 47.996094 0.695313 44.003906 8.308594 61.347656 8.777344 C 58.921875 25.527344 43.382813 37.136719 26.632813 34.714844 C 9.882813 32.289063 -1.726563 16.75 0.695313 0 Z M 63.070313 32.734375 "/>
<path style=" stroke:none;fill-rule:nonzero;fill:url(#linear1);" d="M 60.742188 32.917969 C 60.742188 49.835938 40.292969 63.453125 35.851563 66.214844 C 17.566406 66.214844 2.742188 51.394531 2.742188 33.109375 C 2.742188 14.824219 17.566406 0 35.851563 0 C 31.40625 -2.761719 10.960938 -16.378906 10.960938 -33.296875 L 10.960938 12.566406 C 7.492188 24.785156 -5.226563 31.882813 -17.449219 28.414063 C -29.671875 24.941406 -36.765625 12.222656 -33.296875 0 C 26.742188 10.523438 23.082031 3.542969 35 3.542969 C 46.917969 3.542969 43.257813 10.542969 59.160156 10.953125 C 56.136719 26.3125 41.234375 36.3125 25.875 33.285156 C 10.515625 30.261719 0.519531 15.359375 3.542969 0 Z M 60.742188 32.917969 "/>
<path style=" stroke:none;fill-rule:nonzero;fill:rgb(100%,100%,100%);fill-opacity:1;" d="M 47.53125 39.480469 L 22.46875 39.480469 C 11.566406 38.746094 3.324219 29.3125 4.058594 18.410156 C 4.792969 7.507813 14.226563 -0.734375 25.128906 0 L 25.128906 3.296875 C 24.21875 3.296875 23.480469 2.558594 23.480469 1.648438 C 23.480469 0.738281 24.21875 0 25.128906 0 L 54.625 0 C 54.625 8.144531 48.019531 14.746094 39.875 14.746094 C 31.730469 14.746094 25.128906 8.144531 25.128906 0 L 25.128906 -3.296875 C 25.328125 -2.492188 25.140625 -1.636719 24.617188 -0.988281 C 24.097656 -0.339844 23.300781 0.0234375 22.46875 0 Z M 47.421875 49.167969 L 22.578125 49.167969 C 9 49.082031 -1.933594 38.003906 -1.847656 24.425781 C -1.761719 10.847656 9.316406 -0.0859375 22.894531 0 L 22.894531 1.664063 C 22.507813 2.457031 21.625 2.875 20.765625 2.675781 C 19.90625 2.480469 19.296875 1.714844 19.296875 0.832031 C 19.296875 -0.0507813 19.90625 -0.8125 20.765625 -1.011719 C 21.625 -1.210938 22.507813 -0.792969 22.894531 0 L 44.578125 0 C 44.578125 5.988281 39.722656 10.84375 33.734375 10.84375 C 27.75 10.84375 22.894531 5.988281 22.894531 0 L 22.894531 -1.664063 C 23.351563 -1.578125 23.65625 -1.132813 23.570313 -0.675781 C 23.480469 -0.214844 23.039063 0.0859375 22.578125 0 Z M 40.769531 24.996094 C 42.523438 22.449219 43.753906 22.933594 42.753906 17.050781 C 41.753906 11.164063 35.210938 11.214844 34.808594 11.214844 C 34.410156 11.214844 27.863281 11.152344 26.863281 17.050781 C 25.863281 22.945313 27.09375 22.449219 28.84375 24.996094 C 29.289063 41.265625 18.273438 55.621094 2.441406 59.398438 C -13.390625 63.175781 -29.703125 55.335938 -36.648438 40.617188 C -43.59375 25.898438 -39.273438 8.324219 -26.292969 -1.492188 C -13.3125 -11.3125 4.773438 -10.6875 17.050781 0 L 25.785156 0 C 43.832031 2.304688 56.984375 18.234375 55.828125 36.394531 C 54.675781 54.550781 39.609375 68.6875 21.417969 68.6875 C 3.222656 68.6875 -11.84375 54.550781 -12.996094 36.394531 C -14.152344 18.234375 -1 2.304688 17.050781 0 Z M 40.769531 24.996094 "/>
</g>
</svg>
