<?xml version="1.0" encoding="UTF-8"?>
<svg xmlns="http://www.w3.org/2000/svg" xmlns:xlink="http://www.w3.org/1999/xlink" width="70pt" height="70pt" viewBox="0 0 70 70" version="1.1">
<defs>
<linearGradient id="linear0" gradientUnits="userSpaceOnUse" x1="7.12" y1="17.44" x2="7.12" y2="0.56" gradientTransform="matrix(3.888889,0,0,3.888889,0,0)">
<stop offset="0" style="stop-color:rgb(19.607843%,74.509804%,86.666667%);stop-opacity:1;"/>
<stop offset="0.36" style="stop-color:rgb(20.392157%,75.686275%,87.843137%);stop-opacity:1;"/>
<stop offset="0.63" style="stop-color:rgb(23.529412%,79.607843%,90.980392%);stop-opacity:1;"/>
<stop offset="0.88" style="stop-color:rgb(28.235294%,85.882353%,96.470588%);stop-opacity:1;"/>
<stop offset="1" style="stop-color:rgb(31.372549%,90.196078%,100%);stop-opacity:1;"/>
</linearGradient>
</defs>
<g id="surface1">
<path style=" stroke:none;fill-rule:nonzero;fill:url(#linear0);" d="M 3.65625 2.179688 L 51.761719 2.179688 C 52.964844 2.179688 53.9375 3.152344 53.9375 4.355469 L 53.9375 65.644531 C 53.9375 66.847656 52.964844 67.820313 51.761719 67.820313 L 3.65625 67.820313 C 2.453125 67.820313 1.476563 66.847656 1.476563 65.644531 L 1.476563 4.355469 C 1.476563 3.152344 2.453125 2.179688 3.65625 2.179688 Z M 3.65625 2.179688 "/>
<path style=" stroke:none;fill-rule:nonzero;fill:rgb(46.666667%,22.745098%,86.27451%);fill-opacity:1;" d="M 68.367188 48.144531 L 57.207031 36.984375 C 46.992188 36.875 38.800781 28.511719 38.910156 18.296875 C 39.015625 8.085938 47.382813 -0.105469 57.59375 0 L 57.59375 6.535156 C 44.179688 6.535156 30.761719 13.6875 30.761719 26.601563 C 32.667969 23.722656 42.429688 16.0625 57.59375 16.0625 L 57.59375 22.320313 C 51.429688 33.792969 37.136719 38.09375 25.667969 31.929688 C 14.199219 25.761719 9.898438 11.46875 16.0625 0 L 27.222656 -11.160156 C 30.304688 -8.078125 30.304688 -3.082031 27.222656 0 C 24.140625 3.082031 19.144531 3.082031 16.0625 0 Z M 68.367188 48.144531 "/>
<path style=" stroke:none;fill-rule:nonzero;fill:rgb(31.372549%,90.196078%,100%);fill-opacity:1;" d="M 43.011719 21.777344 L 43.011719 39.589844 L 27.726563 48.535156 L 27.726563 30.683594 Z M 43.011719 21.777344 "/>
<path style=" stroke:none;fill-rule:nonzero;fill:rgb(76.470588%,94.509804%,100%);fill-opacity:1;" d="M 43.011719 21.777344 L 27.726563 30.722656 L 12.40625 21.777344 L 27.726563 12.832031 Z M 43.011719 21.777344 "/>
<path style=" stroke:none;fill-rule:nonzero;fill:rgb(61.176471%,92.156863%,100%);fill-opacity:1;" d="M 27.726563 30.722656 L 27.726563 48.535156 L 12.40625 39.589844 L 12.40625 21.777344 Z M 27.726563 30.722656 "/>
<path style=" stroke:none;fill-rule:nonzero;fill:rgb(76.470588%,94.509804%,100%);fill-opacity:1;" d="M 12.40625 39.589844 L 27.726563 30.683594 L 27.726563 48.535156 Z M 12.40625 39.589844 "/>
<path style=" stroke:none;fill-rule:nonzero;fill:rgb(61.176471%,92.156863%,100%);fill-opacity:1;" d="M 43.011719 39.589844 L 27.726563 30.683594 L 27.726563 48.535156 Z M 43.011719 39.589844 "/>
</g>
</svg>
