<?xml version="1.0" encoding="UTF-8"?>
<svg xmlns="http://www.w3.org/2000/svg" xmlns:xlink="http://www.w3.org/1999/xlink" width="70pt" height="70pt" viewBox="0 0 70 70" version="1.1">
<defs>
<linearGradient id="linear0" gradientUnits="userSpaceOnUse" x1="9" y1="14.14" x2="9" y2="1.38" gradientTransform="matrix(3.888889,0,0,3.888889,0,0)">
<stop offset="0" style="stop-color:rgb(0%,47.058824%,83.137255%);stop-opacity:1;"/>
<stop offset="0.82" style="stop-color:rgb(36.862745%,62.745098%,93.72549%);stop-opacity:1;"/>
</linearGradient>
</defs>
<g id="surface1">
<path style=" stroke:none;fill-rule:nonzero;fill:url(#linear0);" d="M 70 39.433594 C 71.25 44.148438 70.25 49.175781 67.292969 53.054688 C 64.332031 56.933594 59.75 59.226563 54.871094 59.265625 L 75.210938 79.605469 L 108.851563 79.605469 C 104.445313 84.007813 104.445313 91.148438 108.851563 95.550781 C 113.253906 99.953125 120.390625 99.953125 124.792969 95.550781 Z M 70 39.433594 "/>
<path style=" stroke:none;fill-rule:nonzero;fill:rgb(50.980392%,6.27451%,6.27451%);fill-opacity:1;" d="M 55.570313 43.515625 C 43.554688 43.957031 33.457031 34.574219 33.015625 22.554688 C 32.578125 10.539063 41.960938 0.441406 53.976563 0 L 16.0625 0 C 16.554688 -0.277344 17.160156 -0.277344 17.65625 0 L 17.65625 19.445313 C 12.285156 19.445313 7.933594 15.089844 7.933594 9.722656 C 7.933594 4.351563 12.285156 0 17.65625 0 L 55.535156 0 C 55.535156 10.460938 47.054688 18.9375 36.59375 18.9375 C 26.136719 18.9375 17.65625 10.460938 17.65625 0 L 17.65625 -19.445313 Z M 55.570313 43.515625 "/>
<path style=" stroke:none;fill-rule:nonzero;fill:rgb(90.196078%,13.72549%,13.72549%);fill-opacity:1;" d="M 16.722656 44.179688 L 27.882813 44.179688 L 27.882813 49.117188 L 16.722656 49.117188 Z M 16.722656 44.179688 "/>
<path style=" stroke:none;fill-rule:nonzero;fill:rgb(100%,45.098039%,50.588235%);fill-opacity:1;" d="M 29.554688 44.179688 L 40.714844 44.179688 L 40.714844 49.117188 L 29.554688 49.117188 Z M 29.554688 44.179688 "/>
<path style=" stroke:none;fill-rule:nonzero;fill:rgb(90.196078%,13.72549%,13.72549%);fill-opacity:1;" d="M 42.390625 44.179688 L 53.550781 44.179688 L 53.550781 49.117188 L 42.390625 49.117188 Z M 16.722656 50.789063 L 21.351563 50.789063 L 21.351563 55.726563 L 16.722656 55.726563 Z M 16.722656 50.789063 "/>
<path style=" stroke:none;fill-rule:nonzero;fill:rgb(100%,45.098039%,50.588235%);fill-opacity:1;" d="M 48.921875 50.789063 L 53.550781 50.789063 L 53.550781 55.726563 L 48.921875 55.726563 Z M 23.023438 50.789063 L 34.183594 50.789063 L 34.183594 55.726563 L 23.023438 55.726563 Z M 23.023438 50.789063 "/>
<path style=" stroke:none;fill-rule:nonzero;fill:rgb(90.196078%,13.72549%,13.72549%);fill-opacity:1;" d="M 35.894531 50.789063 L 47.054688 50.789063 L 47.054688 55.726563 L 35.894531 55.726563 Z M 16.722656 57.398438 L 27.882813 57.398438 L 27.882813 62.339844 L 16.722656 62.339844 Z M 16.722656 57.398438 "/>
<path style=" stroke:none;fill-rule:nonzero;fill:rgb(100%,45.098039%,50.588235%);fill-opacity:1;" d="M 29.554688 57.398438 L 40.714844 57.398438 L 40.714844 62.339844 L 29.554688 62.339844 Z M 29.554688 57.398438 "/>
<path style=" stroke:none;fill-rule:nonzero;fill:rgb(90.196078%,13.72549%,13.72549%);fill-opacity:1;" d="M 42.390625 57.398438 L 53.550781 57.398438 L 53.550781 62.339844 L 42.390625 62.339844 Z M 42.390625 57.398438 "/>
</g>
</svg>
