<?xml version="1.0" encoding="UTF-8"?>
<svg xmlns="http://www.w3.org/2000/svg" xmlns:xlink="http://www.w3.org/1999/xlink" width="70pt" height="70pt" viewBox="0 0 70 70" version="1.1">
<defs>
<linearGradient id="linear0" gradientUnits="userSpaceOnUse" x1="6.36" y1="22.03" x2="6.36" y2="-1.85" gradientTransform="matrix(3.888889,0,0,3.888889,0,0)">
<stop offset="0" style="stop-color:rgb(0%,47.058824%,83.137255%);stop-opacity:1;"/>
<stop offset="0.17" style="stop-color:rgb(10.980392%,51.764706%,86.27451%);stop-opacity:1;"/>
<stop offset="0.38" style="stop-color:rgb(22.352941%,56.470588%,89.411765%);stop-opacity:1;"/>
<stop offset="0.59" style="stop-color:rgb(30.196078%,60%,91.764706%);stop-opacity:1;"/>
<stop offset="0.8" style="stop-color:rgb(35.294118%,61.960784%,93.333333%);stop-opacity:1;"/>
<stop offset="1" style="stop-color:rgb(36.862745%,62.745098%,93.72549%);stop-opacity:1;"/>
</linearGradient>
<filter id="alpha" filterUnits="objectBoundingBox" x="0%" y="0%" width="100%" height="100%">
  <feColorMatrix type="matrix" in="SourceGraphic" values="0 0 0 0 1 0 0 0 0 1 0 0 0 0 1 0 0 0 1 0"/>
</filter>
<mask id="mask0">
  <g filter="url(#alpha)">
<rect x="0" y="0" width="70" height="70" style="fill:rgb(0%,0%,0%);fill-opacity:0.901961;stroke:none;"/>
  </g>
</mask>
<linearGradient id="linear1" gradientUnits="userSpaceOnUse" x1="6.36" y1="15.58" x2="6.36" y2="1.94" gradientTransform="matrix(3.888889,0,0,3.888889,0,0)">
<stop offset="0" style="stop-color:rgb(82.352941%,92.156863%,100%);stop-opacity:1;"/>
<stop offset="1" style="stop-color:rgb(94.117647%,100%,99.215686%);stop-opacity:1;"/>
</linearGradient>
<clipPath id="clip1">
  <rect x="0" y="0" width="70" height="70"/>
</clipPath>
<g id="surface5" clip-path="url(#clip1)">
<path style=" stroke:none;fill-rule:nonzero;fill:url(#linear1);" d="M 9.410156 7.542969 L 40.054688 7.542969 C 40.464844 7.542969 40.792969 7.875 40.792969 8.285156 L 40.792969 59.890625 C 40.792969 60.296875 40.464844 60.628906 40.054688 60.628906 L 9.410156 60.628906 C 9.003906 60.628906 8.671875 60.296875 8.671875 59.890625 L 8.671875 8.285156 C 8.671875 7.875 9.003906 7.542969 9.410156 7.542969 Z M 9.410156 7.542969 "/>
</g>
</defs>
<g id="surface1">
<path style=" stroke:none;fill-rule:nonzero;fill:url(#linear0);" d="M 6.960938 1.945313 L 42.542969 1.945313 C 43.640625 1.945313 44.527344 2.832031 44.527344 3.929688 L 44.527344 66.035156 C 44.527344 67.128906 43.640625 68.015625 42.542969 68.015625 L 6.960938 68.015625 C 5.867188 68.015625 4.976563 67.128906 4.976563 66.035156 L 4.976563 3.929688 C 4.976563 2.832031 5.867188 1.945313 6.960938 1.945313 Z M 6.960938 1.945313 "/>
<path style=" stroke:none;fill-rule:nonzero;fill:rgb(94.901961%,94.901961%,94.901961%);fill-opacity:1;" d="M 23.566406 62.84375 L 25.898438 62.84375 C 26.480469 62.84375 26.949219 63.316406 26.949219 63.894531 L 26.949219 65.566406 C 26.949219 66.148438 26.480469 66.617188 25.898438 66.617188 L 23.566406 66.617188 C 22.988281 66.617188 22.515625 66.148438 22.515625 65.566406 L 22.515625 63.894531 C 22.515625 63.316406 22.988281 62.84375 23.566406 62.84375 Z M 23.566406 62.84375 "/>
<path style=" stroke:none;fill-rule:nonzero;fill:rgb(94.901961%,94.901961%,94.901961%);fill-opacity:1;" d="M 20.726563 4.160156 L 28.738281 4.160156 C 29.039063 4.160156 29.285156 4.40625 29.285156 4.707031 L 29.285156 4.820313 C 29.285156 5.121094 29.039063 5.367188 28.738281 5.367188 L 20.726563 5.367188 C 20.425781 5.367188 20.183594 5.121094 20.183594 4.820313 L 20.183594 4.707031 C 20.183594 4.40625 20.425781 4.160156 20.726563 4.160156 Z M 20.726563 4.160156 "/>
<use xlink:href="#surface5" mask="url(#mask0)"/>
<path style=" stroke:none;fill-rule:nonzero;fill:rgb(58.039216%,58.039216%,58.039216%);fill-opacity:1;" d="M 61.871094 61.09375 L 59.964844 57.207031 C 44.167969 73.765625 17.941406 74.382813 1.378906 58.585938 C -15.179688 42.789063 -15.796875 16.558594 0 0 L 0.660156 -2.292969 C 1.292969 -2.113281 1.660156 -1.449219 1.476563 -0.816406 C 1.296875 -0.183594 0.632813 0.183594 0 0 L 3.890625 -1.398438 C 4.277344 -0.324219 3.71875 0.859375 2.644531 1.246094 C 1.570313 1.632813 0.386719 1.074219 0 0 L 0 -3.617188 L -0.234375 -3.8125 L -4.121094 -5.132813 C -2.703125 -5.035156 -1.632813 -3.808594 -1.730469 -2.390625 C -1.828125 -0.972656 -3.054688 0.0976563 -4.472656 0 L -5.328125 -2.253906 C -4.703125 -2.492188 -4.007813 -2.179688 -3.773438 -1.554688 C -3.535156 -0.933594 -3.847656 -0.234375 -4.472656 0 L -2.839844 -3.34375 C -1.914063 -2.894531 -1.53125 -1.777344 -1.984375 -0.855469 C -2.433594 0.0664063 -3.546875 0.449219 -4.472656 0 L -7.039063 -2.605469 C -6.320313 -2.605469 -5.734375 -2.023438 -5.734375 -1.304688 C -5.734375 -0.582031 -6.320313 0 -7.039063 0 L -10.304688 1.632813 C -10.757813 0.730469 -10.390625 -0.367188 -9.488281 -0.816406 C -8.585938 -1.269531 -7.488281 -0.902344 -7.039063 0 L -9.253906 -0.660156 C -9.019531 -0.699219 -8.792969 -0.546875 -8.730469 -0.316406 C -8.671875 -0.0820313 -8.800781 0.15625 -9.023438 0.238281 C -9.25 0.320313 -9.503906 0.21875 -9.605469 0 L -11.082031 -3.890625 C -10.007813 -3.78125 -9.226563 -2.824219 -9.332031 -1.75 C -9.441406 -0.675781 -10.398438 0.105469 -11.472656 0 L -15.207031 0 L -16.527344 3.890625 C -17.601563 3.792969 -18.394531 2.84375 -18.296875 1.769531 C -18.199219 0.695313 -17.25 -0.0976563 -16.179688 0 L -18.472656 0.855469 C -18.652344 1.066406 -18.945313 1.144531 -19.203125 1.046875 C -19.464844 0.953125 -19.636719 0.703125 -19.636719 0.429688 C -19.636719 0.152344 -19.464844 -0.0976563 -19.203125 -0.191406 C -18.945313 -0.289063 -18.652344 -0.210938 -18.472656 0 L -22.359375 -1.945313 C -21.824219 -1.945313 -21.390625 -1.507813 -21.390625 -0.972656 C -21.390625 -0.433594 -21.824219 0 -22.359375 0 L -24.617188 2.214844 C -25.230469 1.59375 -25.21875 0.59375 -24.597656 -0.0195313 C -23.972656 -0.632813 -22.972656 -0.621094 -22.359375 0 L -20.457031 3.890625 C -21.53125 4.414063 -22.828125 3.972656 -23.351563 2.898438 C -23.878906 1.824219 -23.433594 0.527344 -22.359375 0 L -23.449219 2.683594 C -24.191406 2.585938 -24.714844 1.90625 -24.617188 1.167969 C -24.519531 0.425781 -23.839844 -0.0976563 -23.101563 0 L 31.109375 48.300781 C 17.773438 48.148438 7.082031 37.214844 7.234375 23.878906 C 7.382813 10.539063 18.316406 -0.148438 31.65625 0 L 31.65625 3.148438 C 30.785156 3.148438 30.082031 2.445313 30.082031 1.574219 C 30.082031 0.707031 30.785156 0 31.65625 0 L 35.542969 1.320313 C 35.179688 2.394531 34.011719 2.96875 32.9375 2.605469 C 31.863281 2.242188 31.289063 1.074219 31.65625 0 L 32.589844 2.253906 C 31.964844 2.511719 31.253906 2.21875 30.996094 1.59375 C 30.738281 0.972656 31.03125 0.257813 31.65625 0 L 29.710938 3.890625 C 28.636719 3.351563 28.203125 2.046875 28.738281 0.972656 C 29.277344 -0.101563 30.582031 -0.535156 31.65625 0 L 33.871094 2.292969 C 34.503906 1.683594 34.523438 0.671875 33.910156 0.0390625 C 33.300781 -0.59375 32.289063 -0.613281 31.65625 0 L 35.542969 -1.90625 C 35.019531 -2.980469 33.722656 -3.421875 32.648438 -2.898438 C 31.574219 -2.371094 31.128906 -1.074219 31.65625 0 L 33.910156 0.933594 C 33.652344 1.554688 32.941406 1.851563 32.316406 1.59375 C 31.695313 1.335938 31.398438 0.621094 31.65625 0 L 33.132813 4.199219 C 31.972656 4.609375 30.703125 4 30.292969 2.839844 C 29.886719 1.679688 30.496094 0.40625 31.65625 0 L 34.804688 0 C 34.804688 0.871094 34.101563 1.574219 33.230469 1.574219 C 32.359375 1.574219 31.65625 0.871094 31.65625 0 L 32.976563 -3.890625 C 34.050781 -3.523438 34.625 -2.355469 34.261719 -1.285156 C 33.894531 -0.210938 32.730469 0.363281 31.65625 0 L 54.445313 62.222656 C 71.625 55.929688 80.453125 36.898438 74.160156 19.714844 C 67.867188 2.535156 48.835938 -6.292969 31.65625 0 L 35.738281 1.90625 C 36.265625 0.777344 35.777344 -0.5625 34.648438 -1.089844 C 33.523438 -1.613281 32.183594 -1.128906 31.65625 0 L 33.871094 -2.214844 C 34.484375 -1.605469 34.484375 -0.613281 33.871094 0 C 33.261719 0.613281 32.269531 0.613281 31.65625 0 Z M 46.003906 55.765625 C 46.003906 52.738281 48.460938 50.285156 51.488281 50.285156 C 54.515625 50.285156 56.972656 52.738281 56.972656 55.765625 C 56.972656 58.796875 54.515625 61.25 51.488281 61.25 Z M 46.003906 55.765625 "/>
<path style=" stroke:none;fill-rule:nonzero;fill:rgb(100%,100%,100%);fill-opacity:1;" d="M 50.222656 45.691406 C 52.996094 46.855469 54.296875 50.046875 53.128906 52.820313 C 51.960938 55.589844 48.769531 56.890625 46 55.726563 C 43.226563 54.558594 41.925781 51.367188 43.09375 48.59375 C 44.261719 45.824219 47.453125 44.523438 50.222656 45.691406 Z M 50.222656 45.691406 "/>
</g>
</svg>
