<?xml version="1.0" encoding="UTF-8"?>
<svg xmlns="http://www.w3.org/2000/svg" xmlns:xlink="http://www.w3.org/1999/xlink" width="70pt" height="70pt" viewBox="0 0 70 70" version="1.1">
<defs>
<linearGradient id="linear0" gradientUnits="userSpaceOnUse" x1="2.55" y1="10.17" x2="15.3" y2="10.17" gradientTransform="matrix(3.888876,0.0101811,-0.0101811,3.888876,0.388887,-0.116675)">
<stop offset="0" style="stop-color:rgb(0%,35.686275%,63.137255%);stop-opacity:1;"/>
<stop offset="0.07" style="stop-color:rgb(0%,37.647059%,66.27451%);stop-opacity:1;"/>
<stop offset="0.36" style="stop-color:rgb(0%,44.313725%,78.431373%);stop-opacity:1;"/>
<stop offset="0.52" style="stop-color:rgb(0%,47.058824%,83.137255%);stop-opacity:1;"/>
<stop offset="0.64" style="stop-color:rgb(0%,45.490196%,80.392157%);stop-opacity:1;"/>
<stop offset="0.82" style="stop-color:rgb(0%,41.568627%,73.333333%);stop-opacity:1;"/>
<stop offset="1" style="stop-color:rgb(0%,35.686275%,63.137255%);stop-opacity:1;"/>
</linearGradient>
</defs>
<g id="surface1">
<path style=" stroke:none;fill-rule:nonzero;fill:url(#linear0);" d="M 35 19.988281 C 21.3125 19.988281 10.226563 16.101563 10.226563 10.929688 L 10.226563 58.957031 C 10.226563 63.894531 21.117188 67.9375 34.648438 68.054688 L 35 68.054688 C 48.6875 68.054688 59.8125 64.167969 59.8125 59.070313 L 59.8125 11.042969 C 59.851563 16.023438 48.726563 20.027344 35 19.988281 Z M 35 19.988281 "/>
<path style=" stroke:none;fill-rule:nonzero;fill:rgb(94.901961%,94.901961%,94.901961%);fill-opacity:1;" d="M 59.851563 11.042969 C 59.851563 16.023438 48.726563 20.027344 35.039063 19.988281 C 21.351563 19.949219 10.265625 16.101563 10.265625 10.929688 C 10.265625 5.753906 21.390625 1.90625 35 1.945313 C 48.609375 1.984375 59.773438 6.066406 59.773438 11.042969 "/>
<path style=" stroke:none;fill-rule:nonzero;fill:rgb(31.372549%,90.196078%,100%);fill-opacity:1;" d="M 54.054688 10.304688 C 54.054688 13.457031 45.539063 16.023438 35.039063 15.984375 C 24.539063 15.945313 16.0625 13.378906 16.0625 10.1875 C 16.0625 7 24.578125 4.472656 35 4.511719 C 45.421875 4.550781 54.015625 7.117188 53.976563 10.304688 "/>
<path style=" stroke:none;fill-rule:nonzero;fill:rgb(9.803922%,54.117647%,70.196078%);fill-opacity:1;" d="M 35 11.667969 C 35.21875 7.699219 35.953125 3.777344 37.179688 0 Z M 35 11.667969 "/>
<path style=" stroke:none;fill-rule:nonzero;fill:rgb(100%,100%,100%);fill-opacity:1;" d="M 48.496094 39.589844 L 45.304688 38.578125 C 45.109375 38.578125 44.996094 38.578125 44.917969 38.226563 L 44.253906 36.59375 C 34.148438 38.257813 24.609375 31.417969 22.945313 21.3125 C 21.28125 11.207031 28.121094 1.664063 38.226563 0 C 38.695313 -1.011719 39.160156 -2.023438 39.707031 -2.996094 C 40.53125 8.796875 31.644531 19.027344 19.851563 19.851563 C 8.0625 20.679688 -2.167969 11.792969 -2.996094 0 C -3.539063 -0.542969 -4.082031 -1.011719 -4.589844 -1.59375 C -4.148438 -1.59375 -3.792969 -1.238281 -3.792969 -0.796875 C -3.792969 -0.355469 -4.148438 0 -4.589844 0 L -7.3125 1.359375 L -7.816406 1.359375 L -9.410156 0.699219 C -9.503906 0.980469 -9.800781 1.136719 -10.085938 1.050781 C -10.367188 0.964844 -10.53125 0.671875 -10.453125 0.386719 C -10.375 0.101563 -10.085938 -0.0703125 -9.800781 0 C -10.1875 -1.050781 -10.578125 -2.101563 -10.890625 -3.148438 C -10.019531 -3.054688 -9.390625 -2.269531 -9.488281 -1.398438 C -9.585938 -0.53125 -10.367188 0.0976563 -11.238281 0 L -13.84375 0 C -14.117188 0 -14.15625 0 -14.3125 0.3125 C -14.621094 1.398438 -14.972656 2.449219 -15.359375 3.5 C -15.359375 3.5 -15.359375 3.851563 -15.710938 3.890625 L -17.34375 4.550781 C -18.601563 4.550781 -19.621094 3.53125 -19.621094 2.273438 C -19.621094 1.019531 -18.601563 0 -17.34375 0 L -20.457031 -1.515625 C -20.035156 -1.515625 -19.695313 -1.175781 -19.695313 -0.757813 C -19.695313 -0.339844 -20.035156 0 -20.457031 0 C -21.039063 0.621094 -21.621094 1.285156 -22.285156 1.867188 C -22.796875 -4.800781 -17.808594 -10.625 -11.140625 -11.140625 C -4.472656 -11.65625 1.351563 -6.667969 1.867188 0 C 2.371094 0.972656 2.839844 1.984375 3.382813 2.957031 C 2.566406 3.074219 1.808594 2.507813 1.691406 1.691406 C 1.574219 0.875 2.140625 0.117188 2.957031 0 L 2.253906 1.515625 C 1.835938 1.386719 1.601563 0.945313 1.730469 0.523438 C 1.859375 0.105469 2.304688 -0.128906 2.722656 0 C 1.671875 0.390625 0.621094 0.777344 -0.429688 1.089844 C -0.699219 1.089844 -0.777344 1.285156 -0.777344 1.515625 L -0.777344 4.238281 C -0.777344 4.511719 -0.777344 4.628906 -0.464844 4.707031 C 0.621094 5.015625 1.671875 5.445313 2.722656 5.753906 C 1.132813 4.917969 0.523438 2.949219 1.359375 1.359375 C 2.199219 -0.226563 4.167969 -0.835938 5.753906 0 C 5.753906 0.503906 6.222656 1.050781 6.417969 1.59375 C 5.976563 2.925781 4.539063 3.648438 3.207031 3.207031 C 1.875 2.769531 1.152344 1.332031 1.59375 0 C 1.050781 1.050781 0.582031 2.101563 0.078125 3.148438 C -0.792969 2.300781 -0.808594 0.910156 0.0390625 0.0390625 C 0.886719 -0.832031 2.28125 -0.847656 3.148438 0 L 5.09375 1.90625 C 5.09375 1.90625 5.09375 2.101563 5.40625 1.90625 L 7.273438 0.933594 L 8.632813 0.078125 L 9.179688 0.078125 L 10.8125 0.738281 C 11.003906 0.738281 11.082031 0.933594 11.160156 1.128906 C 11.550781 2.179688 11.9375 3.304688 12.25 4.355469 C 11.046875 6.535156 8.304688 7.328125 6.125 6.125 C 3.945313 4.921875 3.152344 2.179688 4.355469 0 L 6.921875 0 C 7.195313 0 7.273438 0 7.390625 -0.3125 C 7.738281 -1.359375 8.128906 -2.449219 8.4375 -3.5 C 9.40625 -0.203125 7.515625 3.253906 4.21875 4.21875 C 0.921875 5.1875 -2.535156 3.296875 -3.5 0 L -1.828125 -0.660156 C -2.011719 -1.121094 -2.53125 -1.347656 -2.996094 -1.167969 C -3.457031 -0.984375 -3.683594 -0.460938 -3.5 0 L -0.390625 1.515625 C 0.03125 0.65625 -0.328125 -0.378906 -1.1875 -0.796875 C -2.046875 -1.214844 -3.082031 -0.859375 -3.5 0 C -2.917969 -0.621094 -2.292969 -1.285156 -1.632813 -1.867188 C -0.972656 -2.449219 -1.4375 -2.140625 -1.632813 -2.410156 C 15.394531 -3.972656 30.558594 8.335938 32.53125 25.316406 C 34.507813 42.300781 22.574219 57.761719 5.640625 60.148438 C -11.289063 62.535156 -27.03125 50.980469 -29.832031 34.113281 C -32.628906 17.246094 -21.460938 1.226563 -4.667969 -1.984375 C -4.433594 -2.527344 -4.199219 -3.035156 -4.003906 -3.578125 C -3.566406 -3.695313 -3.113281 -3.433594 -2.996094 -2.996094 C -2.875 -2.554688 -3.136719 -2.101563 -3.578125 -1.984375 C -2.527344 -2.371094 -1.4375 -2.800781 -0.390625 -3.109375 C -0.117188 -3.109375 -0.078125 -3.304688 -0.078125 -3.578125 L -0.078125 -6.105469 C -0.078125 -6.921875 -0.0390625 -6.417969 -0.3125 -6.535156 Z M 39.316406 45.5 L 39.003906 45.773438 C 25.816406 45.644531 15.230469 34.847656 15.359375 21.660156 C 15.488281 8.472656 26.285156 -2.113281 39.472656 -1.984375 L 39.082031 -2.253906 C 41.621094 -3.292969 44.539063 -2.558594 46.28125 -0.445313 C 48.027344 1.667969 48.195313 4.671875 46.695313 6.964844 C 45.195313 9.257813 42.378906 10.3125 39.742188 9.5625 C 37.105469 8.8125 35.261719 6.433594 35.195313 3.695313 C 35.390625 3.5 35.390625 3.421875 35.195313 3.226563 L 34.6875 2.644531 L 37.917969 2.644531 L 37.917969 5.640625 L 37.0625 4.820313 C 37.0625 4.820313 37.0625 4.628906 36.671875 4.820313 C 37.886719 4.257813 39.289063 4.285156 40.480469 4.894531 C 41.671875 5.5 42.519531 6.621094 42.777344 7.933594 L 43.246094 8.167969 C 43.246094 6.019531 44.984375 4.277344 47.132813 4.277344 C 49.28125 4.277344 51.023438 6.019531 51.023438 8.167969 C 51.023438 10.3125 49.28125 12.054688 47.132813 12.054688 C 47.132813 12.054688 46.746094 11.785156 46.707031 11.511719 C 46.667969 11.238281 46.707031 11.511719 46.707031 11.238281 C 45.355469 8.128906 46.710938 4.507813 49.769531 3.046875 C 52.828125 1.585938 56.492188 2.804688 58.066406 5.808594 C 59.640625 8.8125 58.554688 12.519531 55.609375 14.203125 C 52.667969 15.882813 48.921875 14.933594 47.132813 12.054688 C 47.679688 11.628906 47.679688 11.628906 48.066406 12.054688 C 48.066406 22 40.003906 30.0625 30.0625 30.0625 C 20.117188 30.0625 12.054688 22 12.054688 12.054688 Z M 39.316406 45.5 "/>
</g>
</svg>
