<?xml version="1.0" encoding="UTF-8"?>
<svg xmlns="http://www.w3.org/2000/svg" xmlns:xlink="http://www.w3.org/1999/xlink" width="70pt" height="70pt" viewBox="0 0 70 70" version="1.1">
<defs>
<linearGradient id="linear0" gradientUnits="userSpaceOnUse" x1="9.19" y1="17.5" x2="9.19" y2="0.5" gradientTransform="matrix(3.888889,0,0,3.888889,0,0)">
<stop offset="0" style="stop-color:rgb(0%,47.058824%,83.137255%);stop-opacity:1;"/>
<stop offset="0.82" style="stop-color:rgb(36.862745%,62.745098%,93.72549%);stop-opacity:1;"/>
</linearGradient>
</defs>
<g id="surface1">
<path style=" stroke:none;fill-rule:nonzero;fill:rgb(0%,47.058824%,83.137255%);fill-opacity:1;" d="M 51.917969 11.199219 C 51.214844 7.335938 53.105469 3.460938 56.585938 1.636719 C 60.066406 -0.1875 64.328125 0.464844 67.109375 3.242188 C 69.886719 6.019531 70.535156 10.28125 68.714844 13.761719 C 66.890625 17.242188 63.015625 19.136719 59.148438 18.433594 L 59.148438 22.320313 C 59.320313 25.394531 60.332031 27.40625 61.40625 26.816406 C 62.480469 26.222656 63.210938 23.253906 63.039063 20.183594 L 51.371094 20.183594 Z M 51.917969 11.199219 "/>
<path style=" stroke:none;fill-rule:nonzero;fill:url(#linear0);" d="M 52.734375 1.984375 L 17.734375 1.984375 C 17.1875 6.878906 12.773438 10.40625 7.875 9.859375 C 2.976563 9.3125 -0.546875 4.898438 0 0 L 0 57.128906 L 35 57.128906 C 19.222656 66.792969 -1.398438 61.839844 -11.0625 46.0625 C -20.730469 30.289063 -15.777344 9.664063 0 0 L 0 20.570313 C -5.476563 73.617188 -51.542969 113.074219 -104.796875 110.332031 C -158.054688 107.589844 -199.824219 63.609375 -199.824219 10.285156 C -199.824219 -43.039063 -158.054688 -87.019531 -104.796875 -89.757813 C -51.542969 -92.5 -5.476563 -53.042969 0 0 C 54.210938 1.167969 62.570313 2.527344 62.570313 2.527344 C 62.367188 1.691406 62.183594 0.847656 62.027344 0 Z M 52.734375 1.984375 "/>
<path style=" stroke:none;fill-rule:nonzero;fill:rgb(94.901961%,94.901961%,94.901961%);fill-opacity:1;" d="M 31.109375 45.265625 L 31.109375 26.988281 C 31.132813 25.859375 32.058594 24.960938 33.183594 24.96875 C 34.3125 24.972656 35.226563 25.886719 35.234375 27.015625 C 35.238281 28.144531 34.339844 29.066406 33.210938 29.089844 L 35.3125 29.089844 L 35.3125 47.367188 C 36.355469 47.519531 37.132813 48.410156 37.140625 49.464844 L 39.277344 49.464844 Z M 31.109375 45.265625 "/>
<path style=" stroke:none;fill-rule:nonzero;fill:rgb(36.862745%,62.745098%,93.72549%);fill-opacity:1;" d="M 44.527344 67.785156 C 46.339844 70.671875 45.859375 74.441406 43.382813 76.785156 C 40.90625 79.128906 37.117188 79.398438 34.332031 77.425781 C 31.546875 75.457031 30.542969 71.792969 31.929688 68.679688 L 8.945313 68.679688 C 11.558594 69.3125 13.597656 71.355469 14.234375 73.964844 Z M 44.527344 67.785156 "/>
<path style=" stroke:none;fill-rule:nonzero;fill:rgb(94.901961%,94.901961%,94.901961%);fill-opacity:1;" d="M 38.851563 25.238281 C 38.851563 26.421875 37.890625 27.378906 36.710938 27.378906 C 35.53125 27.378906 34.570313 26.421875 34.570313 25.238281 C 34.570313 24.058594 35.53125 23.101563 36.710938 23.101563 C 37.890625 23.101563 38.851563 24.058594 38.851563 25.238281 Z M 38.851563 25.238281 "/>
<path style=" stroke:none;fill-rule:nonzero;fill:rgb(94.901961%,94.901961%,94.901961%);fill-opacity:1;" d="M 32.042969 25.238281 C 32.042969 26.421875 31.085938 27.378906 29.90625 27.378906 C 28.722656 27.378906 27.765625 26.421875 27.765625 25.238281 C 27.765625 24.058594 28.722656 23.101563 29.90625 23.101563 C 31.085938 23.101563 32.042969 24.058594 32.042969 25.238281 Z M 32.042969 25.238281 "/>
<path style=" stroke:none;fill-rule:nonzero;fill:rgb(94.901961%,94.901961%,94.901961%);fill-opacity:1;" d="M 25.277344 25.238281 C 25.277344 26.421875 24.320313 27.378906 23.140625 27.378906 C 21.957031 27.378906 21 26.421875 21 25.238281 C 21 24.058594 21.957031 23.101563 23.140625 23.101563 C 24.320313 23.101563 25.277344 24.058594 25.277344 25.238281 Z M 25.277344 25.238281 "/>
<path style=" stroke:none;fill-rule:nonzero;fill:rgb(70.196078%,70.196078%,70.196078%);fill-opacity:1;" d="M 23.332031 35 L 24.578125 33.753906 C 15.257813 40.542969 2.199219 38.488281 -4.589844 29.167969 C -11.375 19.84375 -9.320313 6.785156 0 0 L 14.894531 23.332031 L 13.648438 24.578125 C 6.863281 28.347656 -1.695313 25.902344 -5.464844 19.113281 C -9.234375 12.328125 -6.785156 3.769531 0 0 L 22.671875 35 C 13.007813 41.261719 0.0976563 38.5 -6.164063 28.835938 C -12.425781 19.171875 -9.664063 6.261719 0 0 Z M 23.332031 35 "/>
<path style=" stroke:none;fill-rule:nonzero;fill:rgb(94.901961%,94.901961%,94.901961%);fill-opacity:1;" d="M 24.5 16.722656 L 23.332031 15.554688 C 19.039063 15.554688 15.554688 12.074219 15.554688 7.777344 C 15.554688 3.480469 19.039063 0 23.332031 0 L 13.648438 24.382813 C 6.917969 21.710938 3.625 14.082031 6.300781 7.351563 C 8.972656 0.617188 16.601563 -2.675781 23.332031 0 L 24.539063 1.285156 L 24.5 17.5 C 19.667969 17.820313 15.488281 14.164063 15.167969 9.332031 C 14.84375 4.5 18.5 0.320313 23.332031 0 Z M 24.5 16.722656 "/>
<path style=" stroke:none;fill-rule:nonzero;fill:rgb(70.196078%,70.196078%,70.196078%);fill-opacity:1;" d="M 36.246094 35 L 35 33.714844 C 25.6875 43.382813 10.308594 43.667969 0.640625 34.359375 C -9.023438 25.046875 -9.3125 9.664063 0 0 L 44.839844 23.332031 L 46.042969 24.578125 C 39.257813 37.292969 23.449219 42.097656 10.734375 35.3125 C -1.980469 28.523438 -6.785156 12.714844 0 0 L 37.023438 35 C 27.355469 35 19.523438 27.164063 19.523438 17.5 C 19.523438 7.835938 27.355469 0 37.023438 0 Z M 36.246094 35 "/>
<path style=" stroke:none;fill-rule:nonzero;fill:rgb(94.901961%,94.901961%,94.901961%);fill-opacity:1;" d="M 35.195313 16.722656 L 36.4375 15.554688 C 40.734375 5.492188 36.058594 -6.144531 25.996094 -10.441406 C 15.933594 -14.738281 4.296875 -10.0625 0 0 L 8.828125 8.867188 C 6.378906 11.304688 2.417969 11.296875 -0.0195313 8.847656 C -2.457031 6.398438 -2.449219 2.4375 0 0 L -1.207031 1.246094 L -10.851563 -8.476563 C -8.507813 -11.472656 -4.183594 -12.003906 -1.1875 -9.664063 C 1.808594 -7.324219 2.339844 -2.996094 0 0 Z M 35.195313 16.722656 "/>
</g>
</svg>
