<?xml version="1.0" encoding="UTF-8"?>
<svg xmlns="http://www.w3.org/2000/svg" xmlns:xlink="http://www.w3.org/1999/xlink" width="70pt" height="70pt" viewBox="0 0 70 70" version="1.1">
<defs>
<linearGradient id="linear0" gradientUnits="userSpaceOnUse" x1="4589.72" y1="-5180.02" x2="4589.72" y2="-5184.21" gradientTransform="matrix(1.944444,0,0,-1.944444,-8848.427778,-10069.577778)">
<stop offset="0" style="stop-color:rgb(77.647059%,60.392157%,92.156863%);stop-opacity:1;"/>
<stop offset="1" style="stop-color:rgb(43.529412%,29.411765%,69.803922%);stop-opacity:1;"/>
</linearGradient>
<filter id="alpha" filterUnits="objectBoundingBox" x="0%" y="0%" width="100%" height="100%">
  <feColorMatrix type="matrix" in="SourceGraphic" values="0 0 0 0 1 0 0 0 0 1 0 0 0 0 1 0 0 0 1 0"/>
</filter>
<mask id="mask0">
  <g filter="url(#alpha)">
<rect x="0" y="0" width="70" height="70" style="fill:rgb(0%,0%,0%);fill-opacity:0.501961;stroke:none;"/>
  </g>
</mask>
<clipPath id="clip1">
  <rect x="0" y="0" width="70" height="70"/>
</clipPath>
<g id="surface5" clip-path="url(#clip1)">
<path style=" stroke:none;fill-rule:nonzero;fill:rgb(60%,60%,60%);fill-opacity:1;" d="M 4.160156 5.5625 L 9.179688 5.5625 L 9.179688 19.445313 C 3.808594 19.132813 -0.292969 14.527344 0.0195313 9.160156 C 0.332031 3.789063 4.9375 -0.3125 10.304688 0 L 3.070313 0 C 3.070313 -1.996094 4.691406 -3.617188 6.6875 -3.617188 C 8.6875 -3.617188 10.304688 -1.996094 10.304688 0 L 10.304688 7.777344 C 8.15625 7.777344 6.417969 6.035156 6.417969 3.890625 C 6.417969 1.742188 8.15625 0 10.304688 0 Z M 4.160156 5.5625 "/>
</g>
<mask id="mask1">
  <g filter="url(#alpha)">
<rect x="0" y="0" width="70" height="70" style="fill:rgb(0%,0%,0%);fill-opacity:0.501961;stroke:none;"/>
  </g>
</mask>
<clipPath id="clip2">
  <rect x="0" y="0" width="70" height="70"/>
</clipPath>
<g id="surface8" clip-path="url(#clip2)">
<path style=" stroke:none;fill-rule:nonzero;fill:rgb(60%,60%,60%);fill-opacity:1;" d="M 60.820313 5.5625 L 65.839844 5.5625 C 64.304688 23.742188 48.320313 37.234375 30.140625 35.699219 C 11.957031 34.164063 -1.535156 18.179688 0 0 L 0 11.667969 C -3.222656 11.355469 -5.582031 8.492188 -5.269531 5.269531 C -4.957031 2.046875 -2.09375 -0.3125 1.128906 0 L -3.890625 0 C -3.445313 0.253906 -3.230469 0.777344 -3.363281 1.269531 C -3.496094 1.761719 -3.941406 2.105469 -4.453125 2.105469 C -4.964844 2.105469 -5.410156 1.761719 -5.542969 1.269531 C -5.675781 0.777344 -5.457031 0.253906 -5.015625 0 L -5.015625 5.5625 Z M 60.820313 5.5625 "/>
</g>
<mask id="mask2">
  <g filter="url(#alpha)">
<rect x="0" y="0" width="70" height="70" style="fill:rgb(0%,0%,0%);fill-opacity:0.501961;stroke:none;"/>
  </g>
</mask>
<clipPath id="clip3">
  <rect x="0" y="0" width="70" height="70"/>
</clipPath>
<g id="surface11" clip-path="url(#clip3)">
<path style=" stroke:none;fill-rule:nonzero;fill:rgb(60%,60%,60%);fill-opacity:1;" d="M 3.070313 49.3125 L 8.089844 49.3125 C -5.527344 51.542969 -18.378906 42.316406 -20.609375 28.699219 C -22.84375 15.082031 -13.617188 2.234375 0 0 L 0 14 L -5.054688 14 C -8.921875 12.605469 -10.925781 8.339844 -9.527344 4.472656 C -8.132813 0.605469 -3.867188 -1.394531 0 0 L 0 -11.667969 C 3.222656 -11.667969 5.832031 -9.054688 5.832031 -5.832031 C 5.832031 -2.613281 3.222656 0 0 0 Z M 3.070313 49.3125 "/>
</g>
<mask id="mask3">
  <g filter="url(#alpha)">
<rect x="0" y="0" width="70" height="70" style="fill:rgb(0%,0%,0%);fill-opacity:0.501961;stroke:none;"/>
  </g>
</mask>
<clipPath id="clip4">
  <rect x="0" y="0" width="70" height="70"/>
</clipPath>
<g id="surface14" clip-path="url(#clip4)">
<path style=" stroke:none;fill-rule:nonzero;fill:rgb(60%,60%,60%);fill-opacity:1;" d="M 61.910156 49.3125 L 66.929688 49.3125 C 53.3125 67.792969 27.289063 71.738281 8.808594 58.121094 C -9.671875 44.503906 -13.617188 18.480469 0 0 L 0 11.667969 C -3.222656 11.054688 -5.335938 7.945313 -4.726563 4.726563 C -4.113281 1.503906 -1.003906 -0.613281 2.214844 0 L -2.800781 0 L -2.800781 50.554688 C -16.761719 49.171875 -26.953125 36.730469 -25.570313 22.769531 C -24.183594 8.808594 -11.742188 -1.386719 2.214844 0 Z M 61.910156 49.3125 "/>
</g>
</defs>
<g id="surface1">
<path style=" stroke:none;fill-rule:nonzero;fill:rgb(19.607843%,74.509804%,86.666667%);fill-opacity:1;" d="M 49.390625 31.695313 L 49.390625 29.359375 L 31.8125 29.359375 L 23.566406 37.566406 L 17.5 37.566406 L 31.578125 23.332031 L 41.183594 23.332031 L 41.183594 21.117188 L 30.605469 21.117188 L 14.195313 37.566406 L 11.859375 37.566406 L 11.859375 39.898438 L 18.898438 39.898438 L 27.222656 48.105469 L 47.054688 48.105469 L 47.054688 45.773438 L 28.078125 45.773438 L 22.207031 39.898438 L 36.476563 39.898438 L 36.476563 37.566406 L 26.910156 37.566406 L 32.746094 31.695313 Z M 49.390625 31.695313 "/>
<path style=" stroke:none;fill-rule:nonzero;fill:rgb(100%,100%,100%);fill-opacity:1;" d="M 42.195313 38.734375 C 42.195313 40.601563 40.679688 42.117188 38.8125 42.117188 C 36.941406 42.117188 35.429688 40.601563 35.429688 38.734375 C 35.429688 36.863281 36.941406 35.351563 38.8125 35.351563 C 40.679688 35.351563 42.195313 36.863281 42.195313 38.734375 Z M 42.195313 38.734375 "/>
<path style=" stroke:none;fill-rule:nonzero;fill:rgb(100%,100%,100%);fill-opacity:1;" d="M 45.734375 22.320313 C 45.734375 24.191406 44.21875 25.707031 42.351563 25.707031 C 40.480469 25.707031 38.964844 24.191406 38.964844 22.320313 C 38.964844 20.453125 40.480469 18.9375 42.351563 18.9375 C 44.21875 18.9375 45.734375 20.453125 45.734375 22.320313 Z M 45.734375 22.320313 "/>
<path style=" stroke:none;fill-rule:nonzero;fill:rgb(100%,100%,100%);fill-opacity:1;" d="M 53.9375 30.527344 C 53.9375 32.394531 52.425781 33.910156 50.554688 33.910156 C 48.6875 33.910156 47.171875 32.394531 47.171875 30.527344 C 47.171875 28.660156 48.6875 27.144531 50.554688 27.144531 C 52.425781 27.144531 53.9375 28.660156 53.9375 30.527344 Z M 53.9375 30.527344 "/>
<path style=" stroke:none;fill-rule:nonzero;fill:rgb(100%,100%,100%);fill-opacity:1;" d="M 50.4375 46.9375 C 50.4375 48.808594 48.925781 50.320313 47.054688 50.320313 C 45.1875 50.320313 43.671875 48.808594 43.671875 46.9375 C 43.671875 45.070313 45.1875 43.554688 47.054688 43.554688 C 48.925781 43.554688 50.4375 45.070313 50.4375 46.9375 Z M 50.4375 46.9375 "/>
<path style=" stroke:none;fill-rule:nonzero;fill:rgb(31.372549%,90.196078%,100%);fill-opacity:1;" d="M 46.316406 22.320313 C 46.316406 24.578125 44.488281 26.40625 42.234375 26.40625 C 39.976563 26.40625 38.148438 24.578125 38.148438 22.320313 C 38.148438 20.066406 39.976563 18.238281 42.234375 18.238281 C 44.488281 18.238281 46.316406 20.066406 46.316406 22.320313 Z M 46.316406 22.320313 "/>
<path style=" stroke:none;fill-rule:nonzero;fill:url(#linear0);" d="M 54.523438 30.527344 C 54.523438 32.78125 52.695313 34.609375 50.4375 34.609375 C 48.183594 34.609375 46.355469 32.78125 46.355469 30.527344 C 46.355469 28.273438 48.183594 26.445313 50.4375 26.445313 C 52.695313 26.445313 54.523438 28.273438 54.523438 30.527344 Z M 54.523438 30.527344 "/>
<path style=" stroke:none;fill-rule:nonzero;fill:rgb(31.372549%,90.196078%,100%);fill-opacity:1;" d="M 42.894531 38.734375 C 42.894531 40.988281 41.066406 42.816406 38.8125 42.816406 C 36.554688 42.816406 34.726563 40.988281 34.726563 38.734375 C 34.726563 36.476563 36.554688 34.648438 38.8125 34.648438 C 41.066406 34.648438 42.894531 36.476563 42.894531 38.734375 Z M 42.894531 38.734375 "/>
<path style=" stroke:none;fill-rule:nonzero;fill:rgb(60%,60%,60%);fill-opacity:1;" d="M 4.160156 5.5625 L 9.179688 5.5625 L 9.179688 19.445313 C 3.808594 19.132813 -0.292969 14.527344 0.0195313 9.160156 C 0.332031 3.789063 4.9375 -0.3125 10.304688 0 L 3.070313 0 C 3.070313 -1.996094 4.691406 -3.617188 6.6875 -3.617188 C 8.6875 -3.617188 10.304688 -1.996094 10.304688 0 L 10.304688 7.777344 C 8.15625 7.777344 6.417969 6.035156 6.417969 3.890625 C 6.417969 1.742188 8.15625 0 10.304688 0 Z M 4.160156 5.5625 "/>
<use xlink:href="#surface5" mask="url(#mask0)"/>
<path style=" stroke:none;fill-rule:nonzero;fill:rgb(60%,60%,60%);fill-opacity:1;" d="M 60.820313 5.5625 L 65.839844 5.5625 C 64.304688 23.742188 48.320313 37.234375 30.140625 35.699219 C 11.957031 34.164063 -1.535156 18.179688 0 0 L 0 11.667969 C -3.222656 11.355469 -5.582031 8.492188 -5.269531 5.269531 C -4.957031 2.046875 -2.09375 -0.3125 1.128906 0 L -3.890625 0 C -3.445313 0.253906 -3.230469 0.777344 -3.363281 1.269531 C -3.496094 1.761719 -3.941406 2.105469 -4.453125 2.105469 C -4.964844 2.105469 -5.410156 1.761719 -5.542969 1.269531 C -5.675781 0.777344 -5.457031 0.253906 -5.015625 0 L -5.015625 5.5625 Z M 60.820313 5.5625 "/>
<use xlink:href="#surface8" mask="url(#mask1)"/>
<path style=" stroke:none;fill-rule:nonzero;fill:rgb(58.039216%,58.039216%,58.039216%);fill-opacity:1;" d="M 68.054688 7.777344 L 68.054688 12.640625 L 1.945313 12.640625 L 1.945313 7.777344 C -0.203125 8.316406 -2.378906 7.007813 -2.917969 4.859375 C -3.453125 2.714844 -2.148438 0.535156 0 0 L 61.714844 0 C 61.714844 17.042969 47.902344 30.859375 30.859375 30.859375 C 13.816406 30.859375 0 17.042969 0 0 Z M 68.054688 7.777344 "/>
<path style=" stroke:none;fill-rule:nonzero;fill:rgb(60%,60%,60%);fill-opacity:1;" d="M 3.070313 49.3125 L 8.089844 49.3125 C -5.527344 51.542969 -18.378906 42.316406 -20.609375 28.699219 C -22.84375 15.082031 -13.617188 2.234375 0 0 L 0 14 L -5.054688 14 C -8.921875 12.605469 -10.925781 8.339844 -9.527344 4.472656 C -8.132813 0.605469 -3.867188 -1.394531 0 0 L 0 -11.667969 C 3.222656 -11.667969 5.832031 -9.054688 5.832031 -5.832031 C 5.832031 -2.613281 3.222656 0 0 0 Z M 3.070313 49.3125 "/>
<use xlink:href="#surface11" mask="url(#mask2)"/>
<path style=" stroke:none;fill-rule:nonzero;fill:rgb(60%,60%,60%);fill-opacity:1;" d="M 61.910156 49.3125 L 66.929688 49.3125 C 53.3125 67.792969 27.289063 71.738281 8.808594 58.121094 C -9.671875 44.503906 -13.617188 18.480469 0 0 L 0 11.667969 C -3.222656 11.054688 -5.335938 7.945313 -4.726563 4.726563 C -4.113281 1.503906 -1.003906 -0.613281 2.214844 0 L -2.800781 0 L -2.800781 50.554688 C -16.761719 49.171875 -26.953125 36.730469 -25.570313 22.769531 C -24.183594 8.808594 -11.742188 -1.386719 2.214844 0 Z M 61.910156 49.3125 "/>
<use xlink:href="#surface14" mask="url(#mask3)"/>
<path style=" stroke:none;fill-rule:nonzero;fill:rgb(58.039216%,58.039216%,58.039216%);fill-opacity:1;" d="M 1.945313 62.222656 L 1.945313 57.359375 L 68.054688 57.359375 L 68.054688 62.222656 C 50.875 61.609375 37.441406 47.183594 38.054688 30.003906 C 38.664063 12.820313 53.089844 -0.613281 70.273438 0 L 4.160156 0 C 4.160156 -18.257813 18.960938 -33.054688 37.214844 -33.054688 C 55.472656 -33.054688 70.273438 -18.257813 70.273438 0 Z M 1.945313 62.222656 "/>
</g>
</svg>
