<?xml version="1.0" encoding="UTF-8"?>
<svg xmlns="http://www.w3.org/2000/svg" xmlns:xlink="http://www.w3.org/1999/xlink" width="70pt" height="70pt" viewBox="0 0 70 70" version="1.1">
<g id="surface1">
<path style=" stroke:none;fill-rule:nonzero;fill:rgb(0%,0%,0%);fill-opacity:1;" d="M 35 0 C 32.890625 -14.191406 40.121094 -28.132813 52.933594 -34.585938 C 65.75 -41.039063 81.253906 -38.542969 91.398438 -28.398438 C 101.542969 -18.253906 104.039063 -2.75 97.585938 10.066406 C 91.132813 22.878906 77.191406 30.109375 63 28 L 63 79.1875 C 65.679688 65.355469 78.214844 55.671875 92.273438 56.566406 C 106.332031 57.464844 117.535156 68.667969 118.433594 82.726563 C 119.328125 96.785156 109.644531 109.320313 95.8125 112 L 95.8125 116.375 C 94.773438 119.675781 94.640625 123.410156 95.488281 125.648438 C 96.335938 127.886719 97.972656 128.121094 99.546875 126.230469 C 101.121094 124.339844 102.28125 120.75 102.425781 117.320313 C 102.574219 113.894531 101.671875 111.398438 100.1875 111.125 C 96.925781 118.644531 94.1875 120.578125 92.75 116.375 C 98.8125 105.878906 110.941406 100.476563 122.800781 102.988281 C 134.65625 105.503906 143.550781 115.359375 144.835938 127.410156 C 146.121094 139.464844 139.507813 150.976563 128.445313 155.933594 C 117.386719 160.890625 104.390625 158.167969 96.25 149.1875 L 124.25 177.1875 L 169.75 177.1875 C 179.148438 169.6875 192.285156 169.023438 202.390625 175.539063 C 212.492188 182.054688 217.3125 194.292969 214.359375 205.949219 C 211.40625 217.601563 201.34375 226.070313 189.355469 226.988281 C 177.367188 227.90625 166.128906 221.070313 161.4375 210 C 111.179688 246.847656 40.566406 235.976563 3.71875 185.71875 C -33.128906 135.460938 -22.257813 64.847656 28 28 L 0 78.75 Z M 35 65.625 C 46.839844 53.785156 66.035156 53.785156 77.875 65.625 C 89.714844 77.464844 89.714844 96.660156 77.875 108.5 L 11.8125 14.875 C 37.667969 12.21875 60.78125 31.019531 63.4375 56.875 C 66.09375 82.730469 47.292969 105.84375 21.4375 108.5 C 18.460938 96.484375 23.859375 83.960938 34.636719 77.871094 C 45.414063 71.785156 58.929688 73.628906 67.679688 82.382813 C 76.433594 91.132813 78.277344 104.648438 72.191406 115.425781 C 66.101563 126.203125 53.578125 131.601563 41.5625 128.625 L 41.5625 133.4375 L 48.5625 136.9375 Z M 58.1875 55.125 C 77.078125 52.128906 95.667969 62.011719 103.753906 79.34375 C 111.84375 96.675781 107.46875 117.269531 93.039063 129.820313 C 78.609375 142.375 57.605469 143.847656 41.5625 133.4375 C 42.890625 145.710938 39.953125 158.070313 33.25 168.4375 L 49.875 185.0625 C 48.855469 185.140625 47.832031 185.140625 46.8125 185.0625 C 53.816406 189.8125 58.148438 197.605469 58.496094 206.058594 C 58.839844 214.515625 55.15625 222.632813 48.5625 227.9375 Z M 58.1875 55.125 "/>
</g>
</svg>
