<?xml version="1.0" encoding="UTF-8"?>
<svg xmlns="http://www.w3.org/2000/svg" xmlns:xlink="http://www.w3.org/1999/xlink" width="70pt" height="70pt" viewBox="0 0 70 70" version="1.1">
<defs>
<linearGradient id="linear0" gradientUnits="userSpaceOnUse" x1="8.41" y1="17.49" x2="8.41" y2="0.44" gradientTransform="matrix(3.888889,0,0,3.888889,0,0)">
<stop offset="0" style="stop-color:rgb(0%,47.058824%,83.137255%);stop-opacity:1;"/>
<stop offset="0.06" style="stop-color:rgb(3.921569%,48.627451%,84.313725%);stop-opacity:1;"/>
<stop offset="0.34" style="stop-color:rgb(18.039216%,54.901961%,88.235294%);stop-opacity:1;"/>
<stop offset="0.59" style="stop-color:rgb(28.235294%,59.215686%,91.372549%);stop-opacity:1;"/>
<stop offset="0.82" style="stop-color:rgb(34.509804%,61.960784%,92.941176%);stop-opacity:1;"/>
<stop offset="1" style="stop-color:rgb(36.862745%,62.745098%,93.72549%);stop-opacity:1;"/>
</linearGradient>
</defs>
<g id="surface1">
<path style=" stroke:none;fill-rule:nonzero;fill:url(#linear0);" d="M 59.226563 14.621094 L 53.859375 9.410156 L 53.316406 9.410156 L 46.082031 13.300781 L 40.910156 11.003906 L 37.644531 1.710938 L 30.140625 1.789063 L 29.789063 2.839844 L 27.222656 10.929688 L 22.050781 13.144531 L 13.261719 9.253906 L 8.050781 14.503906 L 8.59375 15.554688 L 12.484375 23.0625 L 10.421875 28.234375 L 1.398438 31.617188 L 1.398438 39.199219 L 2.449219 39.550781 L 10.539063 42.039063 L 12.753906 47.210938 L 8.867188 56.039063 L 14.273438 61.289063 L 15.246094 60.746094 L 22.75 56.855469 L 25.160156 59.8125 L 31.382813 68.015625 L 38.890625 68.015625 L 39.238281 66.964844 L 41.921875 62.222656 L 46.199219 60.082031 L 54.679688 59.578125 L 59.964844 54.171875 L 59.964844 53.667969 L 61.015625 49.777344 L 64.089844 40.5625 Z M 34.496094 51.839844 C 20.179688 61.363281 0.851563 57.480469 -8.671875 43.167969 C -18.199219 28.851563 -14.316406 9.523438 0 0 C -6.671875 -3.816406 -9.941406 -11.644531 -7.96875 -19.074219 C -5.992188 -26.503906 0.734375 -31.671875 8.417969 -31.671875 C 16.105469 -31.671875 22.832031 -26.503906 24.804688 -19.074219 C 26.78125 -11.644531 23.511719 -3.816406 16.839844 0 Z M 34.496094 51.839844 "/>
<path style=" stroke:none;fill-rule:nonzero;fill:rgb(19.607843%,74.509804%,86.666667%);fill-opacity:1;" d="M 46.199219 34.570313 C 46.199219 42.117188 36.90625 48.183594 34.882813 49.429688 C 21.234375 49.429688 10.167969 38.363281 10.167969 24.714844 C 10.167969 11.066406 21.234375 0 34.882813 0 C 32.859375 -1.246094 23.605469 -7.3125 23.605469 -14.855469 L 23.605469 25.511719 C 16.5625 36.132813 2.238281 39.03125 -8.378906 31.984375 C -19 24.941406 -21.898438 10.621094 -14.855469 0 C -7.621094 0 -9.292969 -3.304688 -3.890625 -3.304688 C 1.515625 -3.304688 0 -0.195313 7.078125 0 C 7.078125 2.867188 4.753906 5.191406 1.886719 5.191406 C -0.980469 5.191406 -3.304688 2.867188 -3.304688 0 Z M 46.199219 34.570313 "/>
<path style=" stroke:none;fill-rule:nonzero;fill:rgb(31.372549%,90.196078%,100%);fill-opacity:1;" d="M 45.226563 34.648438 C 45.226563 41.570313 36.710938 47.132813 34.84375 48.261719 C 21.515625 48.261719 10.714844 37.457031 10.714844 24.128906 C 10.714844 10.804688 21.515625 0 34.84375 0 C 32.976563 -1.128906 24.5 -6.6875 24.5 -13.609375 L 24.5 26.328125 C 17.230469 36.851563 2.804688 39.488281 -7.71875 32.21875 C -18.242188 24.949219 -20.882813 10.523438 -13.609375 0 C -6.960938 0 -8.476563 -3.035156 -3.539063 -3.035156 C 1.398438 -3.035156 -0.078125 -0.15625 6.535156 0 C 6.535156 2.640625 4.390625 4.785156 1.75 4.785156 C -0.890625 4.785156 -3.035156 2.640625 -3.035156 0 Z M 45.226563 34.648438 "/>
<path style=" stroke:none;fill-rule:nonzero;fill:rgb(94.901961%,94.901961%,94.901961%);fill-opacity:1;" d="M 39.199219 33.289063 L 38.539063 33.289063 L 38.539063 31.109375 C 38.328125 32.804688 37.164063 34.226563 35.542969 34.765625 L 39.433594 38.65625 L 43.867188 38.65625 L 43.867188 40.988281 L 43.207031 40.988281 C 42.5625 40.839844 42.160156 40.195313 42.3125 39.550781 C 42.460938 38.90625 43.105469 38.503906 43.75 38.65625 L 43.75 44.722656 C 42.074219 44.722656 40.714844 43.363281 40.714844 41.6875 C 40.714844 40.011719 42.074219 38.65625 43.75 38.65625 L 53.160156 38.65625 C 53.160156 41.253906 51.054688 43.359375 48.457031 43.359375 C 45.855469 43.359375 43.75 41.253906 43.75 38.65625 L 43.75 33.832031 C 45.082031 33.984375 46.039063 35.183594 45.890625 36.515625 C 45.738281 37.847656 44.539063 38.804688 43.207031 38.65625 Z M 36.632813 33.289063 L 32.355469 33.289063 L 32.355469 31.109375 C 32.246094 30.140625 32.761719 29.210938 33.640625 28.785156 C 34.519531 28.363281 35.566406 28.542969 36.257813 29.230469 C 36.949219 29.921875 37.125 30.972656 36.703125 31.847656 C 36.277344 32.726563 35.347656 33.242188 34.378906 33.132813 L 34.378906 38.5 L 34.648438 38.8125 C 35.484375 39.933594 35.285156 41.515625 34.195313 42.394531 C 33.105469 43.273438 31.519531 43.132813 30.597656 42.082031 C 29.675781 41.027344 29.75 39.4375 30.765625 38.476563 C 31.78125 37.511719 33.375 37.523438 34.378906 38.5 Z M 36.632813 33.289063 "/>
<path style=" stroke:none;fill-rule:nonzero;fill:rgb(52.54902%,83.921569%,20%);fill-opacity:1;" d="M 55.066406 9.292969 L 57.828125 3.578125 C 56.839844 3.804688 55.855469 3.183594 55.628906 2.195313 C 55.40625 1.210938 56.023438 0.226563 57.011719 0 L 56.699219 0 L 35.273438 1.632813 C 35.589844 1.609375 35.875 1.824219 35.933594 2.140625 L 48.066406 19.640625 C 52.898438 16.289063 54.101563 9.65625 50.75 4.820313 C 47.398438 -0.0117188 40.765625 -1.210938 35.933594 2.140625 L 36.128906 1.90625 L 38.539063 -3.109375 C 39.988281 -2.390625 40.582031 -0.632813 39.859375 0.816406 C 39.140625 2.265625 37.382813 2.859375 35.933594 2.140625 C 36.488281 -11.433594 47.789063 -22.070313 61.371094 -21.804688 C 74.949219 -21.539063 85.824219 -10.464844 85.847656 3.117188 C 85.867188 16.703125 75.023438 27.808594 61.445313 28.117188 L 62.066406 28.738281 L 58.878906 34.496094 C 57.289063 33.613281 56.714844 31.613281 57.59375 30.023438 C 58.476563 28.433594 60.476563 27.859375 62.066406 28.738281 C 62.304688 11.003906 76.789063 -3.226563 94.523438 -3.148438 C 112.261719 -3.066406 126.617188 11.289063 126.695313 29.027344 C 126.777344 46.761719 112.546875 61.246094 94.8125 61.484375 L 95.472656 61.484375 Z M 55.066406 9.292969 "/>
</g>
</svg>
