<?xml version="1.0" encoding="UTF-8"?>
<svg xmlns="http://www.w3.org/2000/svg" xmlns:xlink="http://www.w3.org/1999/xlink" width="70pt" height="70pt" viewBox="0 0 70 70" version="1.1">
<defs>
<linearGradient id="linear0" gradientUnits="userSpaceOnUse" x1="8.83" y1="12.87" x2="8.83" y2="0.87" gradientTransform="matrix(3.888889,0,0,3.888889,0,0)">
<stop offset="0" style="stop-color:rgb(0%,47.058824%,83.137255%);stop-opacity:1;"/>
<stop offset="0.82" style="stop-color:rgb(36.862745%,62.745098%,93.72549%);stop-opacity:1;"/>
</linearGradient>
<filter id="alpha" filterUnits="objectBoundingBox" x="0%" y="0%" width="100%" height="100%">
  <feColorMatrix type="matrix" in="SourceGraphic" values="0 0 0 0 1 0 0 0 0 1 0 0 0 0 1 0 0 0 1 0"/>
</filter>
<mask id="mask0">
  <g filter="url(#alpha)">
<rect x="0" y="0" width="70" height="70" style="fill:rgb(0%,0%,0%);fill-opacity:0.2;stroke:none;"/>
  </g>
</mask>
<clipPath id="clip1">
  <rect x="0" y="0" width="70" height="70"/>
</clipPath>
<g id="surface5" clip-path="url(#clip1)">
<path style=" stroke:none;fill-rule:nonzero;fill:rgb(51.372549%,72.54902%,97.647059%);fill-opacity:1;" d="M 22.671875 33.484375 L 34.339844 26.714844 L 34.339844 40.328125 Z M 22.671875 33.484375 "/>
</g>
<mask id="mask1">
  <g filter="url(#alpha)">
<rect x="0" y="0" width="70" height="70" style="fill:rgb(0%,0%,0%);fill-opacity:0.2;stroke:none;"/>
  </g>
</mask>
<clipPath id="clip2">
  <rect x="0" y="0" width="70" height="70"/>
</clipPath>
<g id="surface8" clip-path="url(#clip2)">
<path style=" stroke:none;fill-rule:nonzero;fill:rgb(36.862745%,62.745098%,93.72549%);fill-opacity:1;" d="M 46.003906 33.484375 L 34.339844 26.714844 L 34.339844 40.328125 Z M 46.003906 33.484375 "/>
</g>
<linearGradient id="linear1" gradientUnits="userSpaceOnUse" x1="8.83" y1="17.5" x2="8.83" y2="12.87" gradientTransform="matrix(3.888889,0,0,3.888889,0,0)">
<stop offset="0" style="stop-color:rgb(7.843137%,56.470588%,87.45098%);stop-opacity:1;"/>
<stop offset="0.98" style="stop-color:rgb(12.156863%,33.72549%,63.921569%);stop-opacity:1;"/>
</linearGradient>
</defs>
<g id="surface1">
<path style=" stroke:none;fill-rule:nonzero;fill:url(#linear0);" d="M 1.671875 3.382813 L 67.003906 3.382813 C 68.292969 3.382813 69.339844 4.429688 69.339844 5.714844 L 69.339844 47.714844 C 69.339844 49.003906 68.292969 50.050781 67.003906 50.050781 L 1.671875 50.050781 C 0.382813 50.050781 -0.660156 49.003906 -0.660156 47.714844 L -0.660156 5.714844 C -0.660156 4.429688 0.382813 3.382813 1.671875 3.382813 Z M 1.671875 3.382813 "/>
<path style=" stroke:none;fill-rule:nonzero;fill:rgb(100%,100%,100%);fill-opacity:1;" d="M 4.511719 7.273438 L 64.167969 7.273438 C 64.875 7.273438 65.449219 7.847656 65.449219 8.554688 L 65.449219 44.878906 C 65.449219 45.585938 64.875 46.160156 64.167969 46.160156 L 4.511719 46.160156 C 3.800781 46.160156 3.226563 45.585938 3.226563 44.878906 L 3.226563 8.554688 C 3.226563 7.847656 3.800781 7.273438 4.511719 7.273438 Z M 4.511719 7.273438 "/>
<path style=" stroke:none;fill-rule:nonzero;fill:rgb(0%,47.058824%,83.137255%);fill-opacity:1;" d="M 46.003906 19.910156 L 46.003906 33.484375 L 34.339844 40.328125 L 34.339844 26.714844 Z M 46.003906 19.910156 "/>
<path style=" stroke:none;fill-rule:nonzero;fill:rgb(51.372549%,72.54902%,97.647059%);fill-opacity:1;" d="M 46.003906 19.910156 L 34.339844 26.753906 L 22.671875 19.910156 L 34.339844 13.105469 Z M 46.003906 19.910156 "/>
<path style=" stroke:none;fill-rule:nonzero;fill:rgb(36.862745%,62.745098%,93.72549%);fill-opacity:1;" d="M 34.339844 26.753906 L 34.339844 40.328125 L 22.671875 33.484375 L 22.671875 19.910156 Z M 34.339844 26.753906 "/>
<use xlink:href="#surface5" mask="url(#mask0)"/>
<use xlink:href="#surface8" mask="url(#mask1)"/>
<path style=" stroke:none;fill-rule:nonzero;fill:url(#linear1);" d="M 48.378906 64.167969 C 41.457031 63.078125 41.183594 58.101563 41.183594 50.050781 L 27.457031 50.050781 C 27.457031 58.101563 27.222656 63.078125 20.300781 64.167969 C 2.582031 63.09375 -10.914063 47.859375 -9.839844 30.140625 C -8.765625 12.417969 6.46875 -1.074219 24.1875 0 L 59.1875 0 C 57.984375 0.695313 56.503906 0.695313 55.300781 0 Z M 48.378906 64.167969 "/>
<path style=" stroke:none;fill-rule:nonzero;fill:rgb(36.862745%,62.745098%,93.72549%);fill-opacity:1;" d="M 19.832031 9.996094 L 10.1875 9.996094 C 7.429688 9.359375 5.707031 6.609375 6.339844 3.851563 C 6.972656 1.089844 9.722656 -0.632813 12.484375 0 L 12.484375 9.644531 C 9.820313 9.644531 7.660156 7.484375 7.660156 4.820313 C 7.660156 2.160156 9.820313 0 12.484375 0 L 13.261719 0 C 13.796875 0.1875 14.117188 0.738281 14.023438 1.296875 C 13.925781 1.855469 13.441406 2.265625 12.871094 2.265625 C 12.304688 2.265625 11.820313 1.855469 11.722656 1.296875 C 11.625 0.738281 11.949219 0.1875 12.484375 0 L 12.484375 13.027344 L 19.832031 13.027344 C 16.234375 15.058594 11.675781 13.785156 9.644531 10.1875 C 7.613281 6.589844 8.886719 2.03125 12.484375 0 L 12.484375 -0.738281 C 12.300781 -0.277344 11.851563 0.0195313 11.355469 0 Z M 19.832031 40.328125 L 10.929688 40.328125 L 10.929688 31.460938 C 2.238281 31.785156 -5.0625 25 -5.386719 16.3125 C -5.707031 7.625 1.074219 0.320313 9.761719 0 L 9.023438 0 C 9.382813 -0.207031 9.828125 -0.207031 10.1875 0 L 10.1875 9.644531 C 7.527344 9.644531 5.367188 7.484375 5.367188 4.820313 C 5.367188 2.160156 7.527344 0 10.1875 0 L 19.832031 0 C 19.832031 2.664063 17.675781 4.820313 15.011719 4.820313 C 12.347656 4.820313 10.1875 2.664063 10.1875 0 L 10.1875 -0.777344 C 10.015625 -0.289063 9.539063 0.03125 9.023438 0 Z M 58.332031 10.070313 L 48.84375 10.070313 C 46.0625 9.75 44.070313 7.234375 44.390625 4.453125 C 44.714844 1.671875 47.230469 -0.320313 50.011719 0 L 50.011719 0.738281 C 49.832031 1.257813 49.300781 1.574219 48.757813 1.480469 C 48.214844 1.390625 47.816406 0.921875 47.816406 0.371094 C 47.816406 -0.179688 48.214844 -0.652344 48.757813 -0.742188 C 49.300781 -0.835938 49.832031 -0.519531 50.011719 0 L 58.878906 0 L 58.878906 8.945313 C 56.40625 11.394531 52.421875 11.375 49.972656 8.90625 C 47.523438 6.4375 47.542969 2.449219 50.011719 0 L 50.789063 0 C 51.300781 0.1875 51.605469 0.71875 51.511719 1.257813 C 51.414063 1.792969 50.945313 2.1875 50.398438 2.1875 C 49.851563 2.1875 49.386719 1.792969 49.289063 1.257813 C 49.195313 0.71875 49.496094 0.1875 50.011719 0 L 50.011719 12.40625 C 46.585938 13.050781 43.285156 10.796875 42.640625 7.371094 C 41.996094 3.945313 44.253906 0.644531 47.679688 0 Z M 59.65625 30.371094 L 58.917969 30.371094 C 50.53125 30.050781 43.992188 22.988281 44.3125 14.601563 C 44.636719 6.214844 51.695313 -0.320313 60.082031 0 L 60.082031 8.867188 L 51.179688 8.867188 C 48.730469 8.542969 47.003906 6.296875 47.328125 3.851563 C 47.648438 1.402344 49.894531 -0.320313 52.34375 0 L 52.34375 0.777344 C 52.15625 1.3125 51.605469 1.636719 51.046875 1.539063 C 50.488281 1.441406 50.078125 0.957031 50.078125 0.390625 C 50.078125 -0.179688 50.488281 -0.664063 51.046875 -0.761719 C 51.605469 -0.855469 52.15625 -0.535156 52.34375 0 L 58.332031 0 C 58.332031 1.652344 56.992188 2.996094 55.339844 2.996094 C 53.683594 2.996094 52.34375 1.652344 52.34375 0 L 52.34375 31.539063 C 43.636719 31.859375 36.3125 25.0625 35.992188 16.351563 C 35.667969 7.644531 42.46875 0.320313 51.179688 0 Z M 59.65625 30.371094 "/>
</g>
</svg>
