<?xml version="1.0" encoding="UTF-8"?>
<svg xmlns="http://www.w3.org/2000/svg" xmlns:xlink="http://www.w3.org/1999/xlink" width="70pt" height="70pt" viewBox="0 0 70 70" version="1.1">
<g id="surface1">
<path style=" stroke:none;fill-rule:nonzero;fill:rgb(0%,0%,0%);fill-opacity:1;" d="M 35 13.125 L 35 31.9375 L 47.6875 44.1875 L 44.1875 47.6875 L 30.625 33.6875 L 30.625 13.125 Z M 35 13.125 "/>
<path style=" stroke:none;fill-rule:nonzero;fill:rgb(0%,0%,0%);fill-opacity:1;" d="M 35 4.375 C 35 -12.539063 48.710938 -26.25 65.625 -26.25 C 82.539063 -26.25 96.25 -12.539063 96.25 4.375 C 96.25 21.289063 82.539063 35 65.625 35 L 96.25 35 C 101.277344 52.035156 105.351563 82.496094 105.351563 103.03125 C 105.351563 123.570313 101.277344 126.410156 96.25 109.375 M 96.25 105 C 96.25 85.671875 111.921875 70 131.25 70 C 150.578125 70 166.25 85.671875 166.25 105 C 166.25 124.328125 150.578125 140 131.25 140 Z M 96.25 105 "/>
</g>
</svg>
