<?xml version="1.0" encoding="UTF-8"?>
<svg xmlns="http://www.w3.org/2000/svg" xmlns:xlink="http://www.w3.org/1999/xlink" width="70pt" height="70pt" viewBox="0 0 70 70" version="1.1">
<defs>
<linearGradient id="linear0" gradientUnits="userSpaceOnUse" x1="9" y1="0.5" x2="9" y2="17.5" gradientTransform="matrix(3.888889,0,0,3.888889,0,0)">
<stop offset="0" style="stop-color:rgb(77.647059%,60.392157%,92.156863%);stop-opacity:1;"/>
<stop offset="0.09" style="stop-color:rgb(73.333333%,56.470588%,89.411765%);stop-opacity:1;"/>
<stop offset="0.49" style="stop-color:rgb(57.254902%,41.960784%,78.823529%);stop-opacity:1;"/>
<stop offset="0.81" style="stop-color:rgb(47.058824%,32.941176%,72.156863%);stop-opacity:1;"/>
<stop offset="1" style="stop-color:rgb(43.529412%,29.411765%,69.803922%);stop-opacity:1;"/>
</linearGradient>
</defs>
<g id="surface1">
<path style=" stroke:none;fill-rule:nonzero;fill:url(#linear0);" d="M 33.871094 67.746094 L 6.960938 52.1875 C -7.449219 54.109375 -20.691406 43.988281 -22.613281 29.574219 C -24.535156 15.164063 -14.410156 1.921875 0 0 L 0 19.445313 C -5.371094 19.445313 -9.722656 15.089844 -9.722656 9.722656 C -9.722656 4.351563 -5.371094 0 0 0 L 26.910156 -15.554688 C 22.617188 -22.988281 13.109375 -25.527344 5.679688 -21.234375 C -1.753906 -16.9375 -4.296875 -7.429688 0 0 L 26.910156 15.554688 C 22.617188 22.988281 13.109375 25.527344 5.679688 21.234375 C -1.753906 16.9375 -4.296875 7.429688 0 0 L 0 31.109375 C -8.589844 30.585938 -15.128906 23.195313 -14.601563 14.601563 C -14.078125 6.011719 -6.683594 -0.527344 1.90625 0 L -25.003906 15.554688 C -29.300781 15.628906 -32.84375 12.210938 -32.917969 7.914063 C -32.996094 3.617188 -29.574219 0.0742188 -25.277344 0 Z M 33.871094 67.746094 "/>
<path style=" stroke:none;fill-rule:nonzero;fill:rgb(94.901961%,94.901961%,94.901961%);fill-opacity:1;" d="M 48.457031 21.542969 C 48.476563 11.050781 56.992188 2.558594 67.484375 2.566406 C 77.976563 2.574219 86.480469 11.078125 86.488281 21.570313 C 86.496094 32.0625 78.003906 40.578125 67.511719 40.601563 "/>
<path style=" stroke:none;fill-rule:nonzero;fill:rgb(0%,47.058824%,83.137255%);fill-opacity:1;" d="M 45.695313 24.265625 C 45.714844 15.902344 52.507813 9.132813 60.875 9.140625 C 69.238281 9.144531 76.019531 15.925781 76.027344 24.292969 C 76.035156 32.660156 69.265625 39.449219 60.898438 39.472656 "/>
<path style=" stroke:none;fill-rule:nonzero;fill:rgb(94.901961%,94.901961%,94.901961%);fill-opacity:1;" d="M 42.777344 35.894531 C 32.867188 47.707031 15.253906 49.25 3.441406 39.335938 C -8.371094 29.425781 -9.910156 11.8125 0 0 L -11.976563 -7.777344 C -9.828125 -8.035156 -7.878906 -6.503906 -7.621094 -4.355469 C -7.363281 -2.207031 -8.898438 -0.257813 -11.042969 0 L -11.042969 15.554688 C -15.339844 15.554688 -18.820313 12.074219 -18.820313 7.777344 C -18.820313 3.480469 -15.339844 0 -11.042969 0 Z M 42.777344 35.894531 "/>
</g>
</svg>
