<?xml version="1.0" encoding="UTF-8"?>
<svg xmlns="http://www.w3.org/2000/svg" xmlns:xlink="http://www.w3.org/1999/xlink" width="70pt" height="70pt" viewBox="0 0 70 70" version="1.1">
<defs>
<filter id="alpha" filterUnits="objectBoundingBox" x="0%" y="0%" width="100%" height="100%">
  <feColorMatrix type="matrix" in="SourceGraphic" values="0 0 0 0 1 0 0 0 0 1 0 0 0 0 1 0 0 0 1 0"/>
</filter>
<mask id="mask0">
  <g filter="url(#alpha)">
<rect x="0" y="0" width="70" height="70" style="fill:rgb(0%,0%,0%);fill-opacity:0.901961;stroke:none;"/>
  </g>
</mask>
<linearGradient id="linear0" gradientUnits="userSpaceOnUse" x1="9" y1="15.84" x2="9" y2="0.52" gradientTransform="matrix(3.888889,0,0,3.888889,0,0)">
<stop offset="0" style="stop-color:rgb(82.352941%,92.156863%,100%);stop-opacity:1;"/>
<stop offset="1" style="stop-color:rgb(94.117647%,100%,99.215686%);stop-opacity:1;"/>
</linearGradient>
<clipPath id="clip1">
  <rect x="0" y="0" width="70" height="70"/>
</clipPath>
<g id="surface5" clip-path="url(#clip1)">
<path style=" stroke:none;fill-rule:nonzero;fill:url(#linear0);" d="M 5.367188 7.894531 L 64.671875 7.894531 C 65.382813 7.894531 65.957031 8.46875 65.957031 9.179688 L 65.957031 49 C 65.957031 49.707031 65.382813 50.285156 64.671875 50.285156 L 5.367188 50.285156 C 4.65625 50.285156 4.082031 49.707031 4.082031 49 L 4.082031 9.179688 C 4.082031 8.46875 4.65625 7.894531 5.367188 7.894531 Z M 5.367188 7.894531 "/>
</g>
</defs>
<g id="surface1">
<path style=" stroke:none;fill-rule:nonzero;fill:rgb(0%,47.058824%,83.137255%);fill-opacity:1;" d="M 2.332031 4.394531 L 67.667969 4.394531 C 68.957031 4.394531 70 5.4375 70 6.726563 L 70 51.878906 C 70 53.167969 68.957031 54.210938 67.667969 54.210938 L 2.332031 54.210938 C 1.042969 54.210938 0 53.167969 0 51.878906 L 0 6.726563 C 0 5.4375 1.042969 4.394531 2.332031 4.394531 Z M 2.332031 4.394531 "/>
<use xlink:href="#surface5" mask="url(#mask0)"/>
<path style=" stroke:none;fill-rule:nonzero;fill:rgb(94.901961%,94.901961%,94.901961%);fill-opacity:1;" d="M 31.851563 5.949219 L 38.34375 5.949219 C 38.601563 5.949219 38.8125 6.160156 38.8125 6.417969 L 38.8125 6.496094 C 38.8125 6.753906 38.601563 6.960938 38.34375 6.960938 L 31.851563 6.960938 C 31.59375 6.960938 31.382813 6.753906 31.382813 6.496094 L 31.382813 6.417969 C 31.382813 6.160156 31.59375 5.949219 31.851563 5.949219 Z M 31.851563 5.949219 "/>
<path style=" stroke:none;fill-rule:nonzero;fill:rgb(46.27451%,73.72549%,17.647059%);fill-opacity:1;" d="M 66.460938 49.195313 C 66.460938 58.257813 59.113281 65.605469 50.050781 65.605469 C 40.988281 65.605469 33.640625 58.257813 33.640625 49.195313 C 33.640625 40.128906 40.988281 32.785156 50.050781 32.785156 C 59.113281 32.785156 66.460938 40.128906 66.460938 49.195313 Z M 66.460938 49.195313 "/>
<path style=" stroke:none;fill-rule:nonzero;fill:rgb(100%,100%,100%);fill-opacity:1;" d="M 40.25 46.667969 C 43.34375 49.125 44.839844 53.082031 44.140625 56.972656 L 53.976563 56.972656 C 53.011719 57.367188 52.453125 58.648438 52.722656 59.855469 C 52.992188 61.066406 53.984375 61.765625 54.96875 61.4375 C 55.949219 61.109375 56.5625 59.871094 56.351563 58.644531 C 55.011719 52.554688 57.847656 46.308594 63.316406 43.3125 C 68.789063 40.320313 75.578125 41.292969 79.988281 45.699219 C 84.398438 50.109375 85.371094 56.902344 82.375 62.371094 C 79.378906 67.839844 73.136719 70.679688 67.042969 69.339844 L 66.773438 66.5 C 67.554688 66.648438 68.070313 67.40625 67.917969 68.191406 C 67.769531 68.976563 67.011719 69.488281 66.226563 69.339844 L 64.710938 69.339844 C 66.914063 66.835938 70.472656 66.015625 73.550781 67.300781 C 76.628906 68.589844 78.542969 71.695313 78.308594 75.023438 C 78.074219 78.351563 75.746094 81.160156 72.515625 82.003906 C 69.289063 82.847656 65.882813 81.539063 64.050781 78.75 L 69.960938 84.660156 L 76.535156 84.660156 C 121.273438 84.167969 157.542969 92.472656 157.542969 103.210938 C 157.542969 113.953125 121.273438 123.058594 76.535156 123.550781 L 77.503906 125.183594 C 77.054688 125.453125 76.472656 125.304688 76.203125 124.851563 C 75.933594 124.402344 76.082031 123.820313 76.535156 123.550781 L 77.738281 122.851563 C 77.933594 123.183594 77.820313 123.609375 77.484375 123.804688 C 77.152344 123.996094 76.726563 123.882813 76.535156 123.550781 L 73.265625 118.027344 C 74.792969 118.082031 75.984375 119.359375 75.929688 120.886719 C 75.875 122.410156 74.597656 123.605469 73.070313 123.550781 L 67.589844 126.816406 C 66.6875 125.300781 67.183594 123.34375 68.695313 122.441406 C 70.210938 121.539063 72.171875 122.035156 73.070313 123.550781 L 73.734375 124.714844 C 73.410156 124.898438 73.003906 124.785156 72.820313 124.464844 C 72.636719 124.140625 72.75 123.734375 73.070313 123.550781 Z M 51.722656 42.3125 C 50.972656 38.160156 53.007813 34.007813 56.742188 32.050781 C 60.480469 30.097656 65.050781 30.796875 68.03125 33.777344 C 71.015625 36.757813 71.714844 41.332031 69.757813 45.070313 C 67.804688 48.804688 63.648438 50.839844 59.5 50.089844 L 59.5 55.261719 C 60.058594 51.796875 61.09375 50.632813 61.816406 52.660156 C 62.535156 54.691406 62.664063 59.144531 62.105469 62.609375 L 61.132813 60.976563 C 61.585938 61.042969 61.898438 61.460938 61.832031 61.910156 C 61.769531 62.363281 61.351563 62.675781 60.898438 62.609375 L 59.734375 63.3125 C 59.660156 63.085938 59.730469 62.84375 59.910156 62.691406 C 60.085938 62.535156 60.339844 62.507813 60.550781 62.609375 L 63.777344 68.09375 C 62.261719 68.984375 60.3125 68.480469 59.421875 66.964844 C 58.53125 65.453125 59.035156 63.503906 60.550781 62.609375 L 66.035156 59.34375 C 66.933594 60.859375 66.4375 62.816406 64.925781 63.71875 C 63.410156 64.621094 61.453125 64.125 60.550781 62.609375 L 59.851563 61.445313 C 60.089844 61.570313 60.21875 61.832031 60.175781 62.097656 C 60.132813 62.363281 59.921875 62.570313 59.65625 62.609375 L 57.75 63.738281 C 58.308594 58.417969 62.890625 54.4375 68.238281 54.625 C 73.585938 54.808594 77.878906 59.101563 78.066406 64.449219 C 78.253906 69.796875 74.269531 74.378906 68.949219 74.9375 L 80.964844 74.9375 C 82.019531 76.183594 84.523438 76.921875 86.984375 76.714844 C 89.449219 76.507813 91.203125 75.40625 91.203125 74.070313 C 91.203125 72.734375 89.449219 71.527344 86.984375 71.164063 C 84.523438 70.804688 82.019531 71.386719 80.964844 72.566406 L 80.460938 73.1875 L 80.460938 75.445313 C 83.210938 72.695313 87.667969 72.695313 90.417969 75.445313 C 93.164063 78.195313 93.164063 82.652344 90.417969 85.398438 Z M 51.722656 42.3125 "/>
</g>
</svg>
