<?xml version="1.0" encoding="UTF-8"?>
<svg xmlns="http://www.w3.org/2000/svg" xmlns:xlink="http://www.w3.org/1999/xlink" width="70pt" height="70pt" viewBox="0 0 70 70" version="1.1">
<defs>
<linearGradient id="linear0" gradientUnits="userSpaceOnUse" x1="8.999" y1="-3108.081" x2="8.999" y2="-3125.919" gradientTransform="matrix(3.888889,0,0,-3.888889,0,-12086.666667)">
<stop offset="0" style="stop-color:rgb(70.196078%,69.803922%,70.196078%);stop-opacity:1;"/>
<stop offset="0.216" style="stop-color:rgb(68.627451%,68.235294%,68.627451%);stop-opacity:1;"/>
<stop offset="0.44" style="stop-color:rgb(63.529412%,63.529412%,63.529412%);stop-opacity:1;"/>
<stop offset="0.577" style="stop-color:rgb(59.215686%,59.215686%,59.215686%);stop-opacity:1;"/>
</linearGradient>
</defs>
<g id="surface1">
<path style=" stroke:none;fill-rule:nonzero;fill:url(#linear0);" d="M 1.582031 25.75 C 8.699219 40.761719 25.464844 48.613281 41.550781 44.46875 C 57.640625 40.328125 68.527344 25.355469 67.507813 8.773438 C 66.488281 -7.808594 53.847656 -21.335938 37.375 -23.476563 C 20.902344 -25.617188 5.222656 -15.769531 0 0 L -6.609375 0 Z M 61.671875 44.660156 C 50.035156 53.777344 33.34375 52.433594 23.320313 41.566406 C 13.296875 30.703125 13.296875 13.957031 23.320313 3.09375 C 33.34375 -7.773438 50.035156 -9.117188 61.671875 0 L 1.699219 0 C -6.75 14.566406 -3.507813 33.101563 9.382813 43.933594 C 22.277344 54.769531 41.09375 54.769531 53.984375 43.933594 C 66.878906 33.101563 70.121094 14.566406 61.671875 0 Z M 61.671875 44.660156 "/>
<path style=" stroke:none;fill-rule:nonzero;fill:rgb(31.372549%,90.196078%,100%);fill-opacity:1;" d="M 37.488281 51.105469 L 29.167969 32.394531 L 25.667969 38.441406 L 4.25 38.441406 C -6.363281 39.617188 -15.921875 31.960938 -17.09375 21.347656 C -18.269531 10.730469 -10.617188 1.171875 0 0 L 17.785156 0 L 25.660156 -13.609375 L 34.726563 6.789063 L 44.332031 32.066406 L 65.761719 32.113281 C 56.894531 50.273438 34.984375 57.804688 16.824219 48.9375 C -1.335938 40.070313 -8.867188 18.160156 0 0 L -18.339844 -0.0429688 Z M 37.488281 51.105469 "/>
</g>
</svg>
