<?xml version="1.0" encoding="UTF-8"?>
<svg xmlns="http://www.w3.org/2000/svg" xmlns:xlink="http://www.w3.org/1999/xlink" width="70pt" height="70pt" viewBox="0 0 70 70" version="1.1">
<defs>
<linearGradient id="linear0" gradientUnits="userSpaceOnUse" x1="8.51" y1="0.58" x2="8.51" y2="17.27" gradientTransform="matrix(3.888889,0,0,3.888889,0,0)">
<stop offset="0.09" style="stop-color:rgb(42.352941%,77.647059%,72.54902%);stop-opacity:1;"/>
<stop offset="0.46" style="stop-color:rgb(41.568627%,76.862745%,71.764706%);stop-opacity:1;"/>
<stop offset="0.64" style="stop-color:rgb(38.431373%,74.117647%,69.019608%);stop-opacity:1;"/>
<stop offset="0.77" style="stop-color:rgb(33.72549%,69.411765%,64.313725%);stop-opacity:1;"/>
<stop offset="0.88" style="stop-color:rgb(26.27451%,62.352941%,57.647059%);stop-opacity:1;"/>
<stop offset="0.98" style="stop-color:rgb(17.254902%,53.72549%,49.019608%);stop-opacity:1;"/>
<stop offset="1" style="stop-color:rgb(14.509804%,50.980392%,46.666667%);stop-opacity:1;"/>
</linearGradient>
</defs>
<g id="surface1">
<path style=" stroke:none;fill-rule:nonzero;fill:url(#linear0);" d="M 0.234375 9.683594 L 66.109375 9.683594 C 63.4375 27.9375 46.46875 40.570313 28.214844 37.898438 C 9.957031 35.222656 -2.675781 18.257813 0 0 L 0 45.773438 C -12.640625 45.246094 -22.460938 34.574219 -21.933594 21.933594 C -21.40625 9.292969 -10.734375 -0.527344 1.90625 0 L 0.234375 0 C 1.074219 0.4375 1.507813 1.394531 1.28125 2.316406 C 1.054688 3.242188 0.230469 3.890625 -0.71875 3.890625 C -1.667969 3.890625 -2.496094 3.242188 -2.722656 2.316406 C -2.949219 1.394531 -2.515625 0.4375 -1.671875 0 L -1.671875 11.667969 C -4.894531 11.667969 -7.503906 9.054688 -7.503906 5.832031 C -7.503906 2.613281 -4.894531 0 -1.671875 0 Z M 0.234375 9.683594 "/>
<path style=" stroke:none;fill-rule:nonzero;fill:rgb(100%,100%,100%);fill-opacity:1;" d="M 27.222656 15.554688 L 58.683594 15.554688 C 54.386719 31.761719 37.769531 41.414063 21.5625 37.121094 C 5.359375 32.824219 -4.296875 16.203125 0 0 L 0 17.382813 C -4.800781 17.222656 -8.5625 13.199219 -8.398438 8.398438 C -8.238281 3.601563 -4.21875 -0.160156 0.582031 0 L 27.222656 0 C 27.476563 0.132813 27.601563 0.421875 27.535156 0.699219 C 27.464844 0.976563 27.214844 1.171875 26.929688 1.171875 C 26.644531 1.171875 26.394531 0.976563 26.328125 0.699219 C 26.257813 0.421875 26.386719 0.132813 26.640625 0 L 26.640625 16.101563 C 22.191406 16.101563 18.589844 12.496094 18.589844 8.050781 C 18.589844 3.605469 22.191406 0 26.640625 0 Z M 27.222656 15.554688 "/>
<path style=" stroke:none;fill-rule:nonzero;fill:rgb(100%,100%,100%);fill-opacity:1;" d="M 7.390625 15.515625 L 19.484375 15.515625 C 19.804688 15.515625 20.066406 15.777344 20.066406 16.101563 L 20.066406 52.304688 C 20.066406 52.628906 19.804688 52.890625 19.484375 52.890625 L 7.390625 52.890625 C 7.066406 52.890625 6.804688 52.628906 6.804688 52.304688 L 6.804688 16.101563 C 6.804688 15.777344 7.066406 15.515625 7.390625 15.515625 Z M 7.390625 15.515625 "/>
<path style=" stroke:none;fill-rule:nonzero;fill:rgb(100%,100%,100%);fill-opacity:1;" d="M 46.355469 39.355469 L 58.566406 39.355469 C 47.699219 55.527344 25.777344 59.828125 9.605469 48.960938 C -6.566406 38.09375 -10.867188 16.171875 0 0 L 0 12.40625 C -3.425781 12.253906 -6.082031 9.355469 -5.929688 5.929688 C -5.78125 2.503906 -2.882813 -0.148438 0.542969 0 L -11.667969 0 C -11.429688 0.125 -11.308594 0.394531 -11.371094 0.65625 C -11.4375 0.917969 -11.671875 1.097656 -11.9375 1.097656 C -12.207031 1.097656 -12.441406 0.917969 -12.503906 0.65625 C -12.570313 0.394531 -12.449219 0.125 -12.210938 0 L -12.210938 -12.40625 C -8.785156 -12.40625 -6.007813 -9.628906 -6.007813 -6.203125 C -6.007813 -2.777344 -8.785156 0 -12.210938 0 Z M 27.027344 39.355469 L 38.890625 39.355469 C 28.019531 53.464844 7.773438 56.09375 -6.339844 45.226563 C -20.449219 34.359375 -23.078125 14.109375 -12.210938 0 L -12.210938 12.40625 C -15.636719 12.253906 -18.292969 9.355469 -18.140625 5.929688 C -17.992188 2.503906 -15.09375 -0.148438 -11.667969 0 L 27.222656 0 C 27.449219 0.132813 27.5625 0.402344 27.492188 0.65625 C 27.425781 0.910156 27.195313 1.089844 26.929688 1.089844 C 26.667969 1.089844 26.433594 0.910156 26.367188 0.65625 C 26.296875 0.402344 26.410156 0.132813 26.640625 0 L 26.640625 -12.367188 C 30.054688 -12.367188 32.820313 -9.597656 32.820313 -6.183594 C 32.820313 -2.769531 30.054688 0 26.640625 0 Z M 27.027344 39.355469 "/>
</g>
</svg>
