<?xml version="1.0" encoding="UTF-8"?>
<svg xmlns="http://www.w3.org/2000/svg" xmlns:xlink="http://www.w3.org/1999/xlink" width="70pt" height="70pt" viewBox="0 0 70 70" version="1.1">
<defs>
<linearGradient id="linear0" gradientUnits="userSpaceOnUse" x1="8.61" y1="-6.88" x2="9.11" y2="19.45" gradientTransform="matrix(3.888889,0,0,3.888889,0,0)">
<stop offset="0.22" style="stop-color:rgb(19.607843%,83.137255%,96.078431%);stop-opacity:1;"/>
<stop offset="0.47" style="stop-color:rgb(19.215686%,81.960784%,95.294118%);stop-opacity:1;"/>
<stop offset="0.63" style="stop-color:rgb(18.039216%,78.823529%,92.156863%);stop-opacity:1;"/>
<stop offset="0.77" style="stop-color:rgb(16.078431%,72.941176%,87.058824%);stop-opacity:1;"/>
<stop offset="0.89" style="stop-color:rgb(13.333333%,64.705882%,79.607843%);stop-opacity:1;"/>
<stop offset="1" style="stop-color:rgb(9.803922%,54.117647%,70.196078%);stop-opacity:1;"/>
<stop offset="1" style="stop-color:rgb(9.803922%,54.117647%,70.196078%);stop-opacity:1;"/>
</linearGradient>
<filter id="alpha" filterUnits="objectBoundingBox" x="0%" y="0%" width="100%" height="100%">
  <feColorMatrix type="matrix" in="SourceGraphic" values="0 0 0 0 1 0 0 0 0 1 0 0 0 0 1 0 0 0 1 0"/>
</filter>
<mask id="mask0">
  <g filter="url(#alpha)">
<rect x="0" y="0" width="70" height="70" style="fill:rgb(0%,0%,0%);fill-opacity:0.2;stroke:none;"/>
  </g>
</mask>
<clipPath id="clip1">
  <rect x="0" y="0" width="70" height="70"/>
</clipPath>
<g id="surface5" clip-path="url(#clip1)">
<path style=" stroke:none;fill-rule:nonzero;fill:rgb(100%,100%,100%);fill-opacity:1;" d="M 12.714844 33.792969 L 57.4375 33.792969 C 48.105469 49.65625 27.683594 54.949219 11.820313 45.617188 C -4.039063 36.285156 -9.332031 15.859375 0 0 L 11.082031 67.667969 C -7.601563 68.203125 -23.183594 53.492188 -23.722656 34.804688 C -24.257813 16.121094 -9.546875 0.535156 9.140625 0 L 9.140625 36.359375 C -0.902344 36.359375 -9.042969 28.222656 -9.042969 18.179688 C -9.042969 8.140625 -0.902344 0 9.140625 0 Z M 12.714844 33.792969 "/>
</g>
</defs>
<g id="surface1">
<path style=" stroke:none;fill-rule:nonzero;fill:url(#linear0);" d="M 57.285156 33.792969 L 53.746094 33.792969 L 53.746094 22.476563 C 44.246094 19.316406 38.238281 9.953125 39.316406 0 C 41.347656 -0.355469 43.429688 -0.355469 45.460938 0 L 45.460938 11.316406 L 42.503906 11.316406 C 39.378906 10.617188 37.414063 7.519531 38.109375 4.394531 C 38.808594 1.269531 41.910156 -0.699219 45.035156 0 L 45.035156 29.246094 C 36.957031 29.246094 30.410156 22.699219 30.410156 14.621094 C 30.410156 6.546875 36.957031 0 45.035156 0 L 89.714844 0 C 89.714844 12.339844 79.714844 22.339844 67.375 22.339844 C 55.035156 22.339844 45.035156 12.339844 45.035156 0 L 45.035156 36.320313 C 35.003906 37.019531 26.304688 29.457031 25.609375 19.425781 C 24.910156 9.394531 32.476563 0.699219 42.503906 0 Z M 44.917969 33.792969 L 24.460938 33.792969 L 24.460938 22.128906 C 23.523438 17.101563 25.96875 12.050781 30.492188 9.667969 C 35.015625 7.285156 40.566406 8.128906 44.179688 11.742188 C 47.796875 15.355469 48.636719 20.90625 46.253906 25.429688 C 43.871094 29.953125 38.820313 32.398438 33.792969 31.460938 L 33.792969 77.273438 C 35.195313 78.917969 35.867188 83.476563 35.390625 88.042969 Z M 44.917969 33.792969 "/>
<path style=" stroke:none;fill-rule:nonzero;fill:rgb(31.372549%,90.196078%,100%);fill-opacity:1;" d="M 57.398438 33.792969 L 12.679688 33.792969 C 3.34375 33.621094 -4.082031 25.917969 -3.910156 16.585938 C -3.738281 7.253906 3.96875 -0.171875 13.300781 0 L 61.328125 33.25 C 52.144531 46.511719 33.953125 49.820313 20.6875 40.640625 C 7.425781 31.457031 4.117188 13.261719 13.300781 0 L 13.300781 36.359375 C 3.257813 37.070313 -5.457031 29.503906 -6.164063 19.464844 C -6.871094 9.421875 0.691406 0.707031 10.734375 0 Z M 57.398438 33.792969 "/>
<use xlink:href="#surface5" mask="url(#mask0)"/>
<path style=" stroke:none;fill-rule:nonzero;fill:rgb(100%,100%,100%);fill-opacity:1;" d="M 30.605469 40.871094 L 35 36.476563 C 45.074219 26.8125 45.402344 10.8125 35.738281 0.738281 C 26.074219 -9.335938 10.074219 -9.664063 0 0 L 4.355469 4.394531 C 3.140625 5.597656 1.183594 5.589844 -0.0195313 4.375 C -1.222656 3.160156 -1.214844 1.203125 0 0 L 36.945313 0 C 37.015625 -0.0429688 37.105469 -0.0429688 37.179688 0 L 37.179688 5.871094 L 34.222656 5.871094 L 34.222656 0 C 34.148438 0.0429688 34.0625 0.0429688 33.988281 0 L 31.226563 0 C 31.292969 0.0976563 31.273438 0.226563 31.1875 0.304688 C 31.097656 0.382813 30.96875 0.382813 30.878906 0.304688 C 30.792969 0.226563 30.773438 0.0976563 30.839844 0 Z M 39.667969 61.015625 L 35.3125 65.410156 C 17.25 65.410156 2.605469 50.769531 2.605469 32.707031 C 2.605469 14.644531 17.25 0 35.3125 0 L 30.957031 -4.394531 L 30.957031 -4.746094 L 33.523438 -4.746094 C 34.832031 -5.238281 36.292969 -4.578125 36.789063 -3.265625 C 37.28125 -1.957031 36.621094 -0.492188 35.3125 0 L 35.3125 -5.679688 C 36.878906 -5.679688 38.148438 -4.40625 38.148438 -2.839844 C 38.148438 -1.269531 36.878906 0 35.3125 0 L 38.070313 0 C 38.070313 0.761719 37.453125 1.378906 36.691406 1.378906 C 35.929688 1.378906 35.3125 0.761719 35.3125 0 L 35.3125 5.679688 C 33.742188 5.679688 32.472656 4.40625 32.472656 2.839844 C 32.472656 1.269531 33.742188 0 35.3125 0 L 37.878906 0 C 38.617188 0 38.734375 0.234375 38.578125 0.351563 Z M 22.398438 55.339844 L 22.398438 52.773438 C 7.828125 52.835938 -4.039063 41.074219 -4.101563 26.503906 C -4.167969 11.929688 7.59375 0.0625 22.167969 0 L 16.488281 0 C 16.488281 -1.566406 17.761719 -2.839844 19.328125 -2.839844 C 20.894531 -2.839844 22.167969 -1.566406 22.167969 0 L 22.167969 -2.722656 C 22.917969 -2.722656 23.527344 -2.113281 23.527344 -1.359375 C 23.527344 -0.609375 22.917969 0 22.167969 0 L 22.167969 46.667969 C 35.054688 46.667969 45.5 36.21875 45.5 23.332031 C 45.5 10.445313 35.054688 0 22.167969 0 L 27.222656 50.789063 L 27.222656 51.101563 L 22.789063 55.496094 C 7.464844 55.539063 -4.992188 43.148438 -5.035156 27.824219 C -5.078125 12.5 7.308594 0.0429688 22.632813 0 Z M 47.871094 46.667969 L 47.871094 49.273438 C 61.476563 42.300781 66.859375 25.621094 59.890625 12.015625 C 52.917969 -1.589844 36.238281 -6.96875 22.632813 0 L 28.3125 0 C 28.3125 1.566406 27.039063 2.839844 25.472656 2.839844 C 23.90625 2.839844 22.632813 1.566406 22.632813 0 L 22.632813 2.722656 C 21.882813 2.65625 21.324219 1.996094 21.390625 1.246094 C 21.453125 0.492188 22.113281 -0.0625 22.867188 0 L 17.1875 0 C 17.261719 -0.0429688 17.351563 -0.0429688 17.421875 0 L 17.421875 2.566406 C 16.714844 2.566406 16.140625 1.992188 16.140625 1.285156 C 16.140625 0.574219 16.714844 0 17.421875 0 L 13.027344 -4.394531 C 14.242188 -5.609375 16.207031 -5.609375 17.421875 -4.394531 C 18.636719 -3.179688 18.636719 -1.214844 17.421875 0 L 21.816406 -4.394531 C 23.03125 -3.179688 23.03125 -1.214844 21.816406 0 C 20.601563 1.214844 18.636719 1.214844 17.421875 0 Z M 47.871094 46.667969 "/>
</g>
</svg>
