<?xml version="1.0" encoding="UTF-8"?>
<svg xmlns="http://www.w3.org/2000/svg" xmlns:xlink="http://www.w3.org/1999/xlink" width="70pt" height="70pt" viewBox="0 0 70 70" version="1.1">
<g id="surface1">
<path style=" stroke:none;fill-rule:nonzero;fill:rgb(0%,0%,0%);fill-opacity:1;" d="M 65 0 L 67 0 L 68.5 1 L 69.5 2.5 C 68.808594 21.691406 52.691406 36.691406 33.5 36 C 14.308594 35.308594 -0.691406 19.191406 0 0 L 0 65 L 9 65 L 0 61 L 0 5 C -1.253906 5.832031 -2.925781 5.605469 -3.917969 4.476563 C -4.90625 3.34375 -4.90625 1.65625 -3.917969 0.523438 C -2.925781 -0.605469 -1.253906 -0.832031 0 0 L 1.5 1.5 L 3 0.5 L 65 0.5 Z M 65 5 L 60 5 L 60 35 L 10 35 L 10 5 L 5 5 L 5 59 L 11 65 L 15 65 L 15 45 L 50 45 L 50 65 L 65 65 Z M 15 30 L 55 30 L 55 5 L 15 5 Z M 45 50 L 20 50 L 20 65 L 25 65 L 25 55 L 30 55 L 30 65 L 45 65 Z M 45 50 "/>
</g>
</svg>
