<?xml version="1.0" encoding="UTF-8"?>
<svg xmlns="http://www.w3.org/2000/svg" xmlns:xlink="http://www.w3.org/1999/xlink" width="70pt" height="70pt" viewBox="0 0 70 70" version="1.1">
<defs>
<linearGradient id="linear0" gradientUnits="userSpaceOnUse" x1="6.49" y1="17.38" x2="6.49" y2="0.44" gradientTransform="matrix(3.888889,0,0,3.888889,0,0)">
<stop offset="0" style="stop-color:rgb(58.039216%,58.039216%,58.039216%);stop-opacity:1;"/>
<stop offset="0.53" style="stop-color:rgb(63.529412%,63.529412%,63.529412%);stop-opacity:1;"/>
<stop offset="1" style="stop-color:rgb(70.196078%,70.196078%,70.196078%);stop-opacity:1;"/>
</linearGradient>
<linearGradient id="linear1" gradientUnits="userSpaceOnUse" x1="10.06" y1="13.89" x2="16.48" y2="13.89" gradientTransform="matrix(3.888889,0,0,3.888889,0,0)">
<stop offset="0" style="stop-color:rgb(0%,35.686275%,63.137255%);stop-opacity:1;"/>
<stop offset="0.07" style="stop-color:rgb(0%,37.647059%,66.27451%);stop-opacity:1;"/>
<stop offset="0.36" style="stop-color:rgb(0%,44.313725%,78.431373%);stop-opacity:1;"/>
<stop offset="0.52" style="stop-color:rgb(0%,47.058824%,83.137255%);stop-opacity:1;"/>
<stop offset="0.64" style="stop-color:rgb(0%,45.490196%,80.392157%);stop-opacity:1;"/>
<stop offset="0.82" style="stop-color:rgb(0%,41.568627%,73.333333%);stop-opacity:1;"/>
<stop offset="1" style="stop-color:rgb(0%,35.686275%,63.137255%);stop-opacity:1;"/>
</linearGradient>
</defs>
<g id="surface1">
<path style=" stroke:none;fill-rule:nonzero;fill:rgb(9.803922%,54.117647%,70.196078%);fill-opacity:1;" d="M 42.777344 37.214844 C 47.71875 45 48.191406 54.816406 44.023438 63.039063 L 69.535156 63.039063 Z M 42.777344 37.214844 "/>
<path style=" stroke:none;fill-rule:nonzero;fill:url(#linear0);" d="M 44.605469 65.371094 C 26.554688 64.761719 12.414063 49.628906 13.027344 31.578125 C 13.640625 13.527344 28.769531 -0.613281 46.820313 0 L 12.601563 0 C 13.445313 0.5 13.851563 1.503906 13.59375 2.449219 C 13.332031 3.394531 12.472656 4.050781 11.492188 4.050781 C 10.511719 4.050781 9.648438 3.394531 9.390625 2.449219 C 9.132813 1.503906 9.539063 0.5 10.382813 0 L 10.382813 3.890625 C 9.449219 4.398438 8.289063 4.175781 7.609375 3.355469 C 6.933594 2.535156 6.933594 1.351563 7.609375 0.53125 C 8.289063 -0.285156 9.449219 -0.511719 10.382813 0 L 44.605469 0 C 44.605469 9.449219 36.945313 17.109375 27.496094 17.109375 C 18.042969 17.109375 10.382813 9.449219 10.382813 0 Z M 44.605469 65.371094 "/>
<path style=" stroke:none;fill-rule:nonzero;fill:rgb(0%,18.823529%,40.392157%);fill-opacity:1;" d="M 11.667969 24.8125 C 4.816406 28.03125 -3.351563 25.089844 -6.570313 18.238281 C -9.792969 11.386719 -6.851563 3.222656 0 0 L 35 0 C 35 9.664063 27.164063 17.5 17.5 17.5 C 7.835938 17.5 0 9.664063 0 0 L 15.789063 0 C 15.789063 4.359375 12.253906 7.894531 7.894531 7.894531 C 3.535156 7.894531 0 4.359375 0 0 Z M 11.667969 12.328125 C 8.261719 15.550781 2.890625 15.402344 -0.332031 11.996094 C -3.550781 8.59375 -3.402344 3.222656 0 0 L 35 0 C 35 9.664063 27.164063 17.5 17.5 17.5 C 7.835938 17.5 0 9.664063 0 0 L 15.789063 0 C 15.789063 4.359375 12.253906 7.894531 7.894531 7.894531 C 3.535156 7.894531 0 4.359375 0 0 Z M 11.667969 12.328125 "/>
<path style=" stroke:none;fill-rule:nonzero;fill:rgb(31.372549%,90.196078%,100%);fill-opacity:1;" d="M 18.820313 12.328125 C 18.820313 13.894531 17.550781 15.167969 15.984375 15.167969 C 14.414063 15.167969 13.144531 13.894531 13.144531 12.328125 C 13.144531 10.761719 14.414063 9.488281 15.984375 9.488281 C 17.550781 9.488281 18.820313 10.761719 18.820313 12.328125 Z M 18.820313 12.328125 "/>
<path style=" stroke:none;fill-rule:nonzero;fill:rgb(31.372549%,90.196078%,100%);fill-opacity:1;" d="M 18.820313 24.8125 C 18.820313 26.378906 17.550781 27.648438 15.984375 27.648438 C 14.414063 27.648438 13.144531 26.378906 13.144531 24.8125 C 13.144531 23.242188 14.414063 21.972656 15.984375 21.972656 C 17.550781 21.972656 18.820313 23.242188 18.820313 24.8125 Z M 18.820313 24.8125 "/>
<path style=" stroke:none;fill-rule:nonzero;fill:url(#linear1);" d="M 51.605469 44.253906 C 44.722656 44.253906 39.121094 42.195313 39.121094 39.707031 L 39.121094 63.777344 C 39.121094 66.226563 44.644531 68.25 51.449219 68.289063 C 58.371094 68.289063 63.933594 66.265625 63.933594 63.777344 L 63.933594 39.707031 C 64.089844 42.195313 58.527344 44.253906 51.605469 44.253906 Z M 51.605469 44.253906 "/>
<path style=" stroke:none;fill-rule:nonzero;fill:rgb(90.196078%,90.196078%,90.196078%);fill-opacity:1;" d="M 64.089844 39.707031 C 64.089844 42.195313 58.527344 44.253906 51.605469 44.253906 C 44.683594 44.253906 39.121094 42.195313 39.121094 39.707031 C 39.121094 37.214844 44.722656 35.195313 51.605469 35.195313 C 58.488281 35.195313 64.089844 37.214844 64.089844 39.707031 "/>
<path style=" stroke:none;fill-rule:nonzero;fill:rgb(31.372549%,90.196078%,100%);fill-opacity:1;" d="M 61.171875 39.355469 C 61.171875 40.949219 56.894531 42.234375 51.605469 42.234375 C 46.316406 42.234375 42.039063 40.949219 42.039063 39.355469 C 42.039063 37.761719 46.316406 36.476563 51.605469 36.476563 C 56.894531 36.476563 61.171875 37.761719 61.171875 39.355469 M 53.199219 33.679688 L 61.484375 25.394531 C 54.472656 25.597656 48.621094 20.078125 48.417969 13.066406 C 48.210938 6.054688 53.730469 0.203125 60.746094 0 L 55.921875 0 C 55.921875 -9.996094 50.59375 -19.949219 40.988281 -19.949219 C 46.496094 -3.121094 37.320313 14.984375 20.496094 20.496094 C 3.667969 26.003906 -14.441406 16.828125 -19.949219 0 L -24.539063 0 C -24.460938 -0.132813 -24.320313 -0.210938 -24.167969 -0.210938 C -24.015625 -0.210938 -23.875 -0.132813 -23.800781 0 L -15.515625 8.285156 C -13.230469 5.996094 -13.230469 2.289063 -15.515625 0 C -17.804688 -2.289063 -21.511719 -2.289063 -23.800781 0 Z M 53.199219 33.679688 "/>
</g>
</svg>
