<?xml version="1.0" encoding="UTF-8"?>
<svg xmlns="http://www.w3.org/2000/svg" xmlns:xlink="http://www.w3.org/1999/xlink" width="70pt" height="70pt" viewBox="0 0 70 70" version="1.1">
<g id="surface1">
<path style=" stroke:none;fill-rule:nonzero;fill:rgb(0%,0%,0%);fill-opacity:1;" d="M 56 9.332031 L 56 14 L 65.332031 14 L 65.332031 65.332031 L 4.667969 65.332031 L 4.667969 14 L 14 14 L 14 9.332031 L 0 9.332031 L 0 70 L 70 70 L 70 9.332031 Z M 56 9.332031 "/>
<path style=" stroke:none;fill-rule:nonzero;fill:rgb(0%,0%,0%);fill-opacity:1;" d="M 60.667969 0 C 38.734375 0 35 4.667969 35 4.667969 C 35 4.667969 31.265625 0 9.332031 0 L 9.332031 60.667969 C 32.667969 60.667969 32.667969 70 32.667969 70 L 37.332031 70 C 37.332031 70 37.332031 60.667969 60.667969 60.667969 Z M 37.332031 61.132813 L 37.332031 9.332031 C 37.332031 9.332031 42 4.667969 55.535156 4.667969 L 56 4.667969 L 56 56 C 48.089844 48.429688 44.066406 37.664063 45.0625 26.761719 C 46.0625 15.859375 51.980469 6.007813 61.132813 0 Z M 32.667969 61.132813 C 16.8125 59.816406 3.707031 48.230469 0.460938 32.65625 C -2.785156 17.078125 4.597656 1.222656 18.609375 -6.316406 C 32.621094 -13.859375 49.921875 -11.289063 61.132813 0 L 61.132813 4.667969 L 61.601563 4.667969 C 28 4.667969 32.667969 9.332031 32.667969 9.332031 Z M 32.667969 61.132813 "/>
</g>
</svg>
