<?xml version="1.0" encoding="UTF-8"?>
<svg xmlns="http://www.w3.org/2000/svg" xmlns:xlink="http://www.w3.org/1999/xlink" width="70pt" height="70pt" viewBox="0 0 70 70" version="1.1">
<defs>
<linearGradient id="linear0" gradientUnits="userSpaceOnUse" x1="9" y1="16.79" x2="9" y2="1.21" gradientTransform="matrix(3.888889,0,0,3.888889,0,0)">
<stop offset="0" style="stop-color:rgb(0%,47.058824%,83.137255%);stop-opacity:1;"/>
<stop offset="0.06" style="stop-color:rgb(3.921569%,48.627451%,84.313725%);stop-opacity:1;"/>
<stop offset="0.34" style="stop-color:rgb(18.039216%,54.901961%,88.235294%);stop-opacity:1;"/>
<stop offset="0.59" style="stop-color:rgb(28.235294%,59.215686%,91.372549%);stop-opacity:1;"/>
<stop offset="0.82" style="stop-color:rgb(34.509804%,61.960784%,92.941176%);stop-opacity:1;"/>
<stop offset="1" style="stop-color:rgb(36.862745%,62.745098%,93.72549%);stop-opacity:1;"/>
</linearGradient>
<filter id="alpha" filterUnits="objectBoundingBox" x="0%" y="0%" width="100%" height="100%">
  <feColorMatrix type="matrix" in="SourceGraphic" values="0 0 0 0 1 0 0 0 0 1 0 0 0 0 1 0 0 0 1 0"/>
</filter>
<mask id="mask0">
  <g filter="url(#alpha)">
<rect x="0" y="0" width="70" height="70" style="fill:rgb(0%,0%,0%);fill-opacity:0.501961;stroke:none;"/>
  </g>
</mask>
<clipPath id="clip1">
  <rect x="0" y="0" width="70" height="70"/>
</clipPath>
<g id="surface5" clip-path="url(#clip1)">
<path style=" stroke:none;fill-rule:nonzero;fill:rgb(100%,83.137255%,0%);fill-opacity:1;" d="M 46.082031 29.789063 L 23.917969 29.789063 C 15.691406 29.703125 9.09375 22.964844 9.179688 14.738281 C 9.265625 6.511719 16 -0.0859375 24.226563 0 L 48.027344 16.179688 C 43.558594 22.75 34.609375 24.457031 28.039063 19.988281 C 21.464844 15.523438 19.761719 6.570313 24.226563 0 L 24.226563 31.109375 C 15.636719 31.476563 8.375 24.808594 8.011719 16.214844 C 7.644531 7.625 14.316406 0.363281 22.90625 0 Z M 46.082031 29.789063 "/>
</g>
</defs>
<g id="surface1">
<path style=" stroke:none;fill-rule:nonzero;fill:rgb(0%,47.058824%,83.137255%);fill-opacity:1;" d="M 62.535156 32.820313 C 62.535156 50.59375 40.679688 64.90625 35.894531 67.820313 C 17.164063 67.820313 1.984375 52.640625 1.984375 33.910156 C 1.984375 15.183594 17.164063 0 35.894531 0 C 31.109375 -2.878906 9.253906 -17.1875 9.253906 -35 L 9.253906 -56.390625 C 24.828125 -44.167969 27.542969 -21.636719 15.320313 -6.066406 C 3.101563 9.503906 -19.429688 12.222656 -35 0 C 26.171875 9.292969 22.246094 1.945313 35 1.945313 C 47.753906 1.945313 43.828125 9.292969 60.859375 9.722656 C 58.175781 25.992188 42.8125 37.003906 26.542969 34.320313 C 10.273438 31.632813 -0.742188 16.269531 1.945313 0 Z M 62.535156 32.820313 "/>
<path style=" stroke:none;fill-rule:nonzero;fill:url(#linear0);" d="M 60.277344 32.976563 C 60.277344 49.3125 40.210938 62.417969 35.816406 65.0625 C 17.851563 65.0625 3.285156 50.496094 3.285156 32.53125 C 3.285156 14.5625 17.851563 0 35.816406 0 C 31.421875 -2.644531 11.355469 -15.75 11.355469 -32.082031 L 11.355469 -51.527344 C 25.585938 -39.53125 27.394531 -18.273438 15.398438 -4.042969 C 3.40625 10.183594 -17.855469 11.996094 -32.082031 0 C 26.910156 11.394531 23.332031 4.707031 35 4.707031 C 46.667969 4.707031 43.089844 11.394531 58.722656 11.667969 C 55.5 26.582031 40.796875 36.0625 25.878906 32.839844 C 10.964844 29.621094 1.484375 14.917969 4.707031 0 Z M 60.277344 32.976563 "/>
<path style=" stroke:none;fill-rule:nonzero;fill:rgb(100%,74.117647%,0.784314%);fill-opacity:1;" d="M 46.082031 29.789063 L 44.527344 29.789063 L 44.527344 24.265625 C 44.328125 28.503906 41.523438 32.175781 37.488281 33.484375 L 47.640625 43.632813 L 47.640625 49.15625 L 46.082031 49.15625 C 44.558594 48.789063 43.617188 47.257813 43.984375 45.734375 C 44.347656 44.207031 45.878906 43.269531 47.40625 43.632813 L 47.40625 57.945313 C 43.453125 57.945313 40.25 54.742188 40.25 50.789063 C 40.25 46.835938 43.453125 43.632813 47.40625 43.632813 L 69.570313 43.632813 C 69.570313 49.753906 64.609375 54.714844 58.488281 54.714844 C 52.367188 54.714844 47.40625 49.753906 47.40625 43.632813 L 47.40625 31.109375 C 50.863281 31.476563 53.371094 34.574219 53.003906 38.035156 C 52.640625 41.492188 49.542969 44 46.082031 43.632813 Z M 40.054688 29.789063 L 29.945313 29.789063 L 29.945313 24.1875 C 29.570313 21.808594 30.769531 19.460938 32.914063 18.367188 C 35.0625 17.273438 37.667969 17.6875 39.371094 19.390625 C 41.074219 21.09375 41.484375 23.699219 40.394531 25.847656 C 39.300781 27.992188 36.953125 29.191406 34.570313 28.816406 L 34.570313 33.328125 C 34.714844 27.394531 35.515625 22.582031 36.367188 22.582031 C 37.214844 22.582031 37.785156 27.394531 37.644531 33.328125 Z M 40.054688 29.789063 "/>
<path style=" stroke:none;fill-rule:nonzero;fill:rgb(100%,89.411765%,32.156863%);fill-opacity:1;" d="M 23.917969 29.789063 L 46.082031 29.789063 C 37.855469 42.515625 20.871094 46.160156 8.148438 37.9375 C -4.578125 29.710938 -8.226563 12.726563 0 0 L 23.101563 46.277344 C 10.320313 46.535156 -0.246094 36.386719 -0.503906 23.605469 C -0.761719 10.828125 9.386719 0.257813 22.167969 0 L 22.167969 31.109375 C 13.574219 31.109375 6.609375 24.148438 6.609375 15.554688 C 6.609375 6.964844 13.574219 0 22.167969 0 Z M 23.917969 29.789063 "/>
<use xlink:href="#surface5" mask="url(#mask0)"/>
</g>
</svg>
