<?xml version="1.0" encoding="UTF-8"?>
<svg xmlns="http://www.w3.org/2000/svg" xmlns:xlink="http://www.w3.org/1999/xlink" width="70pt" height="70pt" viewBox="0 0 70 70" version="1.1">
<defs>
<radialGradient id="radial0" gradientUnits="userSpaceOnUse" cx="13428.81" cy="3518.86" fx="13428.81" fy="3518.86" r="56.67" gradientTransform="matrix(0.583333,0,0,0.583333,-7798.505556,-2017.672222)">
<stop offset="0.18" style="stop-color:rgb(36.862745%,62.745098%,93.72549%);stop-opacity:1;"/>
<stop offset="1" style="stop-color:rgb(0%,47.058824%,83.137255%);stop-opacity:1;"/>
</radialGradient>
<filter id="alpha" filterUnits="objectBoundingBox" x="0%" y="0%" width="100%" height="100%">
  <feColorMatrix type="matrix" in="SourceGraphic" values="0 0 0 0 1 0 0 0 0 1 0 0 0 0 1 0 0 0 1 0"/>
</filter>
<mask id="mask0">
  <g filter="url(#alpha)">
<rect x="0" y="0" width="70" height="70" style="fill:rgb(0%,0%,0%);fill-opacity:0.6;stroke:none;"/>
  </g>
</mask>
<clipPath id="clip1">
  <rect x="0" y="0" width="70" height="70"/>
</clipPath>
<g id="surface5" clip-path="url(#clip1)">
<path style=" stroke:none;fill-rule:nonzero;fill:rgb(100%,100%,100%);fill-opacity:1;" d="M 26.015625 28.117188 C 18.984375 5.898438 28.046875 -18.246094 47.960938 -30.347656 C 67.878906 -42.449219 93.484375 -39.367188 109.960938 -22.890625 C 126.441406 -6.414063 129.519531 19.195313 117.417969 39.109375 C 105.320313 59.023438 81.171875 68.089844 58.957031 61.054688 L 114.722656 61.054688 C 113.457031 69.457031 122.3125 77.226563 134.503906 78.410156 C 146.691406 79.589844 157.597656 73.734375 158.859375 65.332031 Z M 9.644531 41.417969 C 15.367188 50.621094 18.855469 61.035156 19.832031 71.828125 C 20.535156 72.722656 21.195313 73.539063 21.972656 74.355469 C -1.222656 45.460938 2.21875 3.472656 29.808594 -21.265625 C 57.398438 -46 99.507813 -44.851563 125.710938 -18.648438 C 151.914063 7.550781 153.058594 49.664063 128.324219 77.253906 C 103.589844 104.84375 61.601563 108.285156 32.707031 85.089844 Z M 9.644531 41.417969 "/>
</g>
<mask id="mask1">
  <g filter="url(#alpha)">
<rect x="0" y="0" width="70" height="70" style="fill:rgb(0%,0%,0%);fill-opacity:0.54902;stroke:none;"/>
  </g>
</mask>
<clipPath id="clip2">
  <rect x="0" y="0" width="70" height="70"/>
</clipPath>
<g id="surface8" clip-path="url(#clip2)">
<path style=" stroke:none;fill-rule:nonzero;fill:rgb(94.901961%,94.901961%,94.901961%);fill-opacity:1;" d="M 13.457031 23.761719 C 28.195313 6.804688 52.925781 2.757813 72.304688 14.132813 C 91.679688 25.507813 100.199219 49.074219 92.574219 70.210938 C 84.949219 91.347656 63.347656 104.046875 41.171875 100.433594 C 18.996094 96.820313 2.542969 77.917969 2.023438 55.457031 Z M 13.457031 23.761719 "/>
</g>
<linearGradient id="linear0" gradientUnits="userSpaceOnUse" x1="4.4" y1="11.48" x2="4.37" y2="7.53" gradientTransform="matrix(3.888889,0,0,3.888889,0,0)">
<stop offset="0" style="stop-color:rgb(80%,80%,80%);stop-opacity:1;"/>
<stop offset="1" style="stop-color:rgb(98.823529%,98.823529%,98.823529%);stop-opacity:1;"/>
</linearGradient>
<mask id="mask2">
  <g filter="url(#alpha)">
<rect x="0" y="0" width="70" height="70" style="fill:rgb(0%,0%,0%);fill-opacity:0.54902;stroke:none;"/>
  </g>
</mask>
<clipPath id="clip3">
  <rect x="0" y="0" width="70" height="70"/>
</clipPath>
<g id="surface11" clip-path="url(#clip3)">
<path style=" stroke:none;fill-rule:nonzero;fill:rgb(94.901961%,94.901961%,94.901961%);fill-opacity:1;" d="M 32.511719 53.160156 C 45.269531 40.402344 65.953125 40.402344 78.710938 53.160156 C 91.46875 65.917969 91.46875 86.601563 78.710938 99.359375 L 89.367188 99.359375 C 90.230469 97.039063 92.027344 95.863281 93.742188 96.496094 C 95.457031 97.128906 96.652344 99.414063 96.652344 102.050781 C 96.652344 104.691406 95.457031 107.015625 93.742188 107.710938 C 92.027344 108.40625 90.230469 107.289063 89.367188 105 C 93.832031 93.539063 95.851563 96.4375 94.226563 111.960938 Z M 57.011719 53.976563 C 73.179688 34.160156 102.289063 31.050781 122.277344 47.007813 C 142.269531 62.960938 145.691406 92.03125 129.957031 112.195313 C 114.21875 132.355469 85.1875 136.09375 64.855469 120.578125 C 44.523438 105.0625 40.472656 76.070313 55.765625 55.570313 L 62.570313 55.570313 C 69.769531 55.6875 75.605469 58.757813 75.605469 62.429688 C 75.605469 66.105469 69.769531 68.988281 62.570313 68.871094 C 37.898438 68.796875 17.949219 48.753906 17.984375 24.082031 C 18.023438 -0.589844 38.035156 -20.570313 62.707031 -20.570313 C 87.382813 -20.570313 107.394531 -0.589844 107.429688 24.082031 C 107.46875 48.753906 87.515625 68.796875 62.84375 68.871094 Z M 57.011719 53.976563 "/>
</g>
<linearGradient id="linear1" gradientUnits="userSpaceOnUse" x1="10.13" y1="15.45" x2="10.13" y2="11.9" gradientTransform="matrix(3.888889,0,0,3.888889,0,0)">
<stop offset="0" style="stop-color:rgb(80%,80%,80%);stop-opacity:1;"/>
<stop offset="1" style="stop-color:rgb(98.823529%,98.823529%,98.823529%);stop-opacity:1;"/>
</linearGradient>
<mask id="mask3">
  <g filter="url(#alpha)">
<rect x="0" y="0" width="70" height="70" style="fill:rgb(0%,0%,0%);fill-opacity:0.701961;stroke:none;"/>
  </g>
</mask>
<clipPath id="clip4">
  <rect x="0" y="0" width="70" height="70"/>
</clipPath>
<g id="surface14" clip-path="url(#clip4)">
<path style=" stroke:none;fill-rule:nonzero;fill:rgb(94.901961%,94.901961%,94.901961%);fill-opacity:1;" d="M 47.910156 34.726563 C 75.296875 7.34375 119.695313 7.34375 147.078125 34.726563 C 174.460938 62.113281 174.460938 106.511719 147.078125 133.894531 L 212.839844 133.894531 C 206.21875 133.046875 202.722656 135.125 205.03125 138.542969 C 207.339844 141.957031 214.578125 145.414063 221.199219 146.261719 Z M 47.910156 34.726563 "/>
</g>
<linearGradient id="linear2" gradientUnits="userSpaceOnUse" x1="14.18" y1="11.15" x2="14.18" y2="7.38" gradientTransform="matrix(3.888889,0,0,3.888889,0,0)">
<stop offset="0" style="stop-color:rgb(80%,80%,80%);stop-opacity:1;"/>
<stop offset="1" style="stop-color:rgb(98.823529%,98.823529%,98.823529%);stop-opacity:1;"/>
</linearGradient>
<mask id="mask4">
  <g filter="url(#alpha)">
<rect x="0" y="0" width="70" height="70" style="fill:rgb(0%,0%,0%);fill-opacity:0.54902;stroke:none;"/>
  </g>
</mask>
<clipPath id="clip5">
  <rect x="0" y="0" width="70" height="70"/>
</clipPath>
<g id="surface17" clip-path="url(#clip5)">
<path style=" stroke:none;fill-rule:nonzero;fill:rgb(94.901961%,94.901961%,94.901961%);fill-opacity:1;" d="M 67.472656 40.988281 L 66.109375 40.328125 L 64.945313 39.707031 L 64.710938 39.707031 L 63.699219 38.890625 L 63.429688 38.890625 L 62.222656 38.109375 C 51.699219 37.125 43.96875 27.789063 44.957031 17.265625 C 45.945313 6.742188 55.277344 -0.988281 65.800781 0 C 66.265625 0.3125 66.773438 0.582031 67.277344 0.855469 L 67.589844 1.050781 L 68.949219 1.789063 L 72.292969 3.539063 C 71.316406 23.265625 54.53125 38.464844 34.804688 37.488281 C 15.078125 36.511719 -0.121094 19.726563 0.855469 0 Z M 67.472656 40.988281 "/>
</g>
<linearGradient id="linear3" gradientUnits="userSpaceOnUse" x1="4.4" y1="11.48" x2="4.37" y2="7.53" gradientTransform="matrix(3.888889,0,0,3.888889,0,0)">
<stop offset="0" style="stop-color:rgb(80%,80%,80%);stop-opacity:1;"/>
<stop offset="1" style="stop-color:rgb(98.823529%,98.823529%,98.823529%);stop-opacity:1;"/>
</linearGradient>
<linearGradient id="linear4" gradientUnits="userSpaceOnUse" x1="10.13" y1="15.45" x2="10.13" y2="11.9" gradientTransform="matrix(3.888889,0,0,3.888889,0,0)">
<stop offset="0" style="stop-color:rgb(80%,80%,80%);stop-opacity:1;"/>
<stop offset="1" style="stop-color:rgb(98.823529%,98.823529%,98.823529%);stop-opacity:1;"/>
</linearGradient>
</defs>
<g id="surface1">
<path style=" stroke:none;fill-rule:nonzero;fill:url(#radial0);" d="M 55.261719 61.132813 C 38.378906 76.394531 12.324219 75.078125 -2.9375 58.195313 C -18.195313 41.316406 -16.882813 15.261719 0 0 L 0.351563 -0.234375 C 15.570313 -10.242188 36.015625 -6.050781 46.074219 9.136719 C 56.128906 24.328125 52.003906 44.785156 36.847656 54.890625 C 21.691406 64.996094 1.21875 60.933594 -8.933594 45.808594 C -19.085938 30.6875 -15.089844 10.199219 0 0 "/>
<use xlink:href="#surface5" mask="url(#mask0)"/>
<use xlink:href="#surface8" mask="url(#mask1)"/>
<path style=" stroke:none;fill-rule:nonzero;fill:url(#linear0);" d="M 27.648438 33.753906 C 27.648438 39.617188 22.898438 44.371094 17.035156 44.371094 C 11.167969 44.371094 6.417969 39.617188 6.417969 33.753906 C 6.417969 27.890625 11.167969 23.140625 17.035156 23.140625 C 22.898438 23.140625 27.648438 27.890625 27.648438 33.753906 Z M 27.648438 33.753906 "/>
<use xlink:href="#surface11" mask="url(#mask2)"/>
<path style=" stroke:none;fill-rule:nonzero;fill:url(#linear1);" d="M 46.316406 53.160156 C 46.316406 56.984375 43.21875 60.082031 39.394531 60.082031 C 35.570313 60.082031 32.472656 56.984375 32.472656 53.160156 C 32.472656 49.339844 35.570313 46.238281 39.394531 46.238281 C 43.21875 46.238281 46.316406 49.339844 46.316406 53.160156 Z M 46.316406 53.160156 "/>
<use xlink:href="#surface14" mask="url(#mask3)"/>
<path style=" stroke:none;fill-rule:nonzero;fill:url(#linear2);" d="M 62.496094 36.050781 C 62.496094 40.109375 59.203125 43.398438 55.144531 43.398438 C 51.085938 43.398438 47.792969 40.109375 47.792969 36.050781 C 47.792969 31.992188 51.085938 28.699219 55.144531 28.699219 C 59.203125 28.699219 62.496094 31.992188 62.496094 36.050781 Z M 62.496094 36.050781 "/>
<use xlink:href="#surface17" mask="url(#mask4)"/>
<path style=" stroke:none;fill-rule:nonzero;fill:url(#linear3);" d="M 27.648438 33.753906 C 27.648438 39.617188 22.898438 44.371094 17.035156 44.371094 C 11.167969 44.371094 6.417969 39.617188 6.417969 33.753906 C 6.417969 27.890625 11.167969 23.140625 17.035156 23.140625 C 22.898438 23.140625 27.648438 27.890625 27.648438 33.753906 Z M 27.648438 33.753906 "/>
<path style=" stroke:none;fill-rule:nonzero;fill:url(#linear4);" d="M 46.316406 53.160156 C 46.316406 56.984375 43.21875 60.082031 39.394531 60.082031 C 35.570313 60.082031 32.472656 56.984375 32.472656 53.160156 C 32.472656 49.339844 35.570313 46.238281 39.394531 46.238281 C 43.21875 46.238281 46.316406 49.339844 46.316406 53.160156 Z M 46.316406 53.160156 "/>
</g>
</svg>
