<?xml version="1.0" encoding="UTF-8"?>
<svg xmlns="http://www.w3.org/2000/svg" xmlns:xlink="http://www.w3.org/1999/xlink" width="70pt" height="70pt" viewBox="0 0 70 70" version="1.1">
<g id="surface1">
<path style=" stroke:none;fill-rule:nonzero;fill:rgb(0%,0%,0%);fill-opacity:1;" d="M 70 11.460938 C 70.890625 6.222656 75.167969 2.222656 80.457031 1.6875 C 85.746094 1.152344 90.738281 4.214844 92.660156 9.171875 C 94.582031 14.125 92.957031 19.753906 88.6875 22.921875 C 84.421875 26.09375 78.5625 26.019531 74.375 22.75 L 21.875 64.617188 L 0 70 L 5.382813 48.34375 L 50.398438 3.367188 C 50.691406 -2.71875 55.761719 -7.476563 61.855469 -7.378906 C 67.949219 -7.28125 72.863281 -2.367188 72.960938 3.726563 C 73.058594 9.820313 68.300781 14.890625 62.210938 15.179688 L 62.210938 63.304688 C 62.894531 53.714844 63.996094 48.523438 64.675781 51.714844 C 65.351563 54.902344 65.34375 65.265625 64.664063 74.855469 Z M 6.039063 63.960938 L 17.5 61.25 C 18.996094 65.839844 17.855469 70.878906 14.523438 74.375 L 27.648438 87.5 L 40.773438 87.5 Z M 11.15625 48.78125 C 21.847656 40.601563 37.144531 42.640625 45.324219 53.332031 C 53.503906 64.023438 51.46875 79.320313 40.773438 87.5 L 58.144531 21.875 L 48.125 11.855469 Z M 61.25 18.769531 L 62.914063 17.148438 C 60.074219 9.957031 62.671875 1.757813 69.140625 -2.484375 C 75.605469 -6.726563 84.160156 -5.847656 89.628906 -0.378906 C 95.097656 5.089844 95.976563 13.644531 91.734375 20.109375 C 87.492188 26.578125 79.292969 29.175781 72.101563 26.335938 L 72.101563 26.6875 C 72.003906 25.628906 71.804688 24.675781 71.53125 23.929688 C 72.117188 26.425781 71.234375 29.039063 69.257813 30.667969 L 75.554688 36.96875 L 82.46875 36.96875 C 83.230469 37.273438 84.277344 37.238281 84.898438 36.890625 C 85.515625 36.542969 85.515625 35.992188 84.898438 35.609375 C 84.277344 35.226563 83.230469 35.132813 82.46875 35.394531 L 80.851563 37.011719 Z M 61.25 18.769531 "/>
</g>
</svg>
