<?xml version="1.0" encoding="UTF-8"?>
<svg xmlns="http://www.w3.org/2000/svg" xmlns:xlink="http://www.w3.org/1999/xlink" width="70pt" height="70pt" viewBox="0 0 70 70" version="1.1">
<defs>
<linearGradient id="linear0" gradientUnits="userSpaceOnUse" x1="9" y1="17.826" x2="9" y2="0.826" gradientTransform="matrix(3.888889,0,0,3.888889,0,0)">
<stop offset="0" style="stop-color:rgb(9.803922%,54.117647%,70.196078%);stop-opacity:1;"/>
<stop offset="0.442" style="stop-color:rgb(15.686275%,71.764706%,85.882353%);stop-opacity:1;"/>
<stop offset="0.775" style="stop-color:rgb(19.607843%,83.137255%,96.078431%);stop-opacity:1;"/>
</linearGradient>
<linearGradient id="linear1" gradientUnits="userSpaceOnUse" x1="5.75" y1="-3114.591" x2="12.303" y2="-3119.908" gradientTransform="matrix(3.888889,0,0,3.888889,0,0)">
<stop offset="0" style="stop-color:rgb(100%,100%,100%);stop-opacity:0.901961;"/>
<stop offset="1" style="stop-color:rgb(100%,100%,100%);stop-opacity:0.8;"/>
</linearGradient>
</defs>
<g id="surface1">
<path style=" stroke:none;fill-rule:nonzero;fill:url(#linear0);" d="M 68.054688 36.269531 C 68.054688 54.523438 53.257813 69.324219 35 69.324219 C 16.742188 69.324219 1.945313 54.523438 1.945313 36.269531 C 1.945313 18.011719 16.742188 3.210938 35 3.210938 C 53.257813 3.210938 68.054688 18.011719 68.054688 36.269531 Z M 68.054688 36.269531 "/>
<path style=" stroke:none;fill-rule:nonzero;fill:url(#linear1);" d="M 34.261719 58.59375 C 30.476563 56.261719 18.117188 47.910156 18.117188 38.15625 L 18.117188 25.6875 L 19.445313 25.605469 C 12.375 20.4375 10.832031 10.515625 16 3.445313 C 21.167969 -3.625 31.085938 -5.167969 38.15625 0 L 39.480469 0.0820313 L 39.480469 12.554688 C 39.480469 22.308594 27.121094 30.660156 23.332031 32.988281 L 35 59.046875 Z M 34.261719 58.59375 "/>
<path style=" stroke:none;fill-rule:nonzero;fill:rgb(31.372549%,90.196078%,100%);fill-opacity:1;" d="M 35 56.945313 C 27.664063 52.390625 19.90625 45.109375 19.90625 38.15625 L 19.90625 27.367188 C 12.699219 25.335938 7.617188 18.898438 7.320313 11.414063 C 7.019531 3.933594 11.570313 -2.890625 18.59375 -5.492188 C 25.617188 -8.089844 33.511719 -5.875 38.15625 0 C 42.941406 -4.785156 50.703125 -4.785156 55.488281 0 C 60.273438 4.785156 60.273438 12.542969 55.488281 17.328125 L 55.488281 28.121094 C 55.488281 35.074219 47.726563 42.355469 40.394531 46.90625 Z M 35 56.945313 "/>
<path style=" stroke:none;fill-rule:nonzero;fill:rgb(100%,100%,100%);fill-opacity:1;" d="M 64.738281 54.765625 C 64.738281 57.5625 62.472656 59.832031 59.675781 59.832031 C 56.878906 59.832031 54.613281 57.5625 54.613281 54.765625 C 54.613281 51.972656 56.878906 49.703125 59.675781 49.703125 C 62.472656 49.703125 64.738281 51.972656 64.738281 54.765625 Z M 64.738281 54.765625 "/>
<path style=" stroke:none;fill-rule:nonzero;fill:rgb(70.196078%,70.196078%,70.196078%);fill-opacity:1;" d="M 59.675781 49.703125 C 59.675781 46.910156 61.9375 44.648438 64.730469 44.648438 C 67.523438 44.648438 69.785156 46.910156 69.785156 49.703125 C 69.785156 52.496094 67.523438 54.757813 64.730469 54.757813 M 64.730469 52.226563 C 64.734375 48.03125 68.136719 44.636719 72.332031 44.636719 C 76.527344 44.636719 79.925781 48.039063 79.929688 52.234375 C 79.929688 56.425781 76.53125 59.832031 72.335938 59.835938 Z M 64.730469 52.226563 "/>
<path style=" stroke:none;fill-rule:nonzero;fill:rgb(100%,100%,100%);fill-opacity:1;" d="M 15.386719 54.765625 C 15.386719 57.5625 13.121094 59.832031 10.324219 59.832031 C 7.527344 59.832031 5.261719 57.5625 5.261719 54.765625 C 5.261719 51.972656 7.527344 49.703125 10.324219 49.703125 C 13.121094 49.703125 15.386719 51.972656 15.386719 54.765625 Z M 15.386719 54.765625 "/>
<path style=" stroke:none;fill-rule:nonzero;fill:rgb(70.196078%,70.196078%,70.196078%);fill-opacity:1;" d="M 10.324219 49.703125 C 10.324219 46.910156 12.589844 44.648438 15.378906 44.648438 C 18.171875 44.648438 20.4375 46.910156 20.4375 49.703125 C 20.4375 52.496094 18.171875 54.757813 15.378906 54.757813 M 15.378906 52.226563 C 15.382813 48.03125 18.785156 44.632813 22.980469 44.632813 C 27.175781 44.632813 30.578125 48.035156 30.578125 52.230469 C 30.578125 56.425781 27.179688 59.828125 22.984375 59.832031 Z M 15.378906 52.226563 "/>
<path style=" stroke:none;fill-rule:nonzero;fill:rgb(100%,100%,100%);fill-opacity:1;" d="M 40.0625 8.277344 C 40.0625 11.070313 37.796875 13.339844 35 13.339844 C 32.203125 13.339844 29.9375 11.070313 29.9375 8.277344 C 29.9375 5.480469 32.203125 3.210938 35 3.210938 C 37.796875 3.210938 40.0625 5.480469 40.0625 8.277344 Z M 40.0625 8.277344 "/>
<path style=" stroke:none;fill-rule:nonzero;fill:rgb(70.196078%,70.196078%,70.196078%);fill-opacity:1;" d="M 35 3.210938 C 32.820313 3.0625 30.980469 1.53125 30.445313 -0.585938 C 29.90625 -2.703125 30.789063 -4.925781 32.632813 -6.097656 C 34.476563 -7.269531 36.863281 -7.125 38.554688 -5.738281 C 40.242188 -4.351563 40.847656 -2.035156 40.054688 0 M 40.054688 -2.535156 C 40.714844 -6.429688 44.246094 -9.171875 48.183594 -8.839844 C 52.121094 -8.507813 55.148438 -5.21875 55.148438 -1.269531 C 55.148438 2.683594 52.121094 5.972656 48.183594 6.304688 C 44.246094 6.636719 40.714844 3.894531 40.054688 0 Z M 40.054688 -2.535156 "/>
</g>
</svg>
