<?xml version="1.0" encoding="UTF-8"?>
<svg xmlns="http://www.w3.org/2000/svg" xmlns:xlink="http://www.w3.org/1999/xlink" width="70pt" height="70pt" viewBox="0 0 70 70" version="1.1">
<defs>
<linearGradient id="linear0" gradientUnits="userSpaceOnUse" x1="9" y1="15.7" x2="9" y2="5.66" gradientTransform="matrix(3.888889,0,0,3.888889,0,0)">
<stop offset="0" style="stop-color:rgb(19.607843%,74.509804%,86.666667%);stop-opacity:1;"/>
<stop offset="0.18" style="stop-color:rgb(19.607843%,79.215686%,91.764706%);stop-opacity:1;"/>
<stop offset="0.41" style="stop-color:rgb(19.607843%,82.352941%,94.901961%);stop-opacity:1;"/>
<stop offset="0.78" style="stop-color:rgb(19.607843%,83.137255%,96.078431%);stop-opacity:1;"/>
</linearGradient>
</defs>
<g id="surface1">
<path style=" stroke:none;fill-rule:nonzero;fill:url(#linear0);" d="M 1.945313 22.011719 L 68.054688 22.011719 L 68.054688 58.878906 C 51.796875 58.265625 39.113281 44.589844 39.726563 28.332031 C 40.335938 12.070313 54.011719 -0.613281 70.273438 0 L 4.160156 0 C 5.03125 0.5 5.453125 1.523438 5.195313 2.492188 C 4.933594 3.460938 4.054688 4.136719 3.054688 4.136719 C 2.050781 4.136719 1.171875 3.460938 0.910156 2.492188 C 0.652344 1.523438 1.074219 0.5 1.945313 0 Z M 1.945313 22.011719 "/>
<path style=" stroke:none;fill-rule:nonzero;fill:rgb(0%,47.058824%,83.137255%);fill-opacity:1;" d="M 4.160156 7.777344 L 65.839844 7.777344 C 63.691406 25.957031 47.210938 38.957031 29.03125 36.808594 C 10.851563 34.660156 -2.148438 18.179688 0 0 L 0 12.015625 L 1.945313 12.015625 L 1.945313 10.109375 C -0.847656 10.648438 -3.546875 8.820313 -4.082031 6.027344 C -4.621094 3.234375 -2.792969 0.535156 0 0 Z M 4.160156 7.777344 "/>
<path style=" stroke:none;fill-rule:nonzero;fill:rgb(94.901961%,94.901961%,94.901961%);fill-opacity:1;" d="M 55.222656 39.121094 C 55.222656 42.085938 52.820313 44.488281 49.855469 44.488281 C 46.890625 44.488281 44.488281 42.085938 44.488281 39.121094 C 44.488281 36.160156 46.890625 33.753906 49.855469 33.753906 C 52.820313 33.753906 55.222656 36.160156 55.222656 39.121094 Z M 55.222656 39.121094 "/>
<path style=" stroke:none;fill-rule:nonzero;fill:rgb(94.901961%,94.901961%,94.901961%);fill-opacity:1;" d="M 40.601563 39.121094 C 40.601563 42.085938 38.195313 44.488281 35.234375 44.488281 C 32.269531 44.488281 29.867188 42.085938 29.867188 39.121094 C 29.867188 36.160156 32.269531 33.753906 35.234375 33.753906 C 38.195313 33.753906 40.601563 36.160156 40.601563 39.121094 Z M 40.601563 39.121094 "/>
<path style=" stroke:none;fill-rule:nonzero;fill:rgb(94.901961%,94.901961%,94.901961%);fill-opacity:1;" d="M 25.511719 39.121094 C 25.511719 42.085938 23.109375 44.488281 20.144531 44.488281 C 17.179688 44.488281 14.777344 42.085938 14.777344 39.121094 C 14.777344 36.160156 17.179688 33.753906 20.144531 33.753906 C 23.109375 33.753906 25.511719 36.160156 25.511719 39.121094 Z M 25.511719 39.121094 "/>
<path style=" stroke:none;fill-rule:nonzero;fill:rgb(94.901961%,94.901961%,94.901961%);fill-opacity:1;" d="M 11.9375 12.132813 L 58.101563 12.132813 C 58.703125 12.132813 59.1875 12.621094 59.1875 13.222656 L 59.1875 16.722656 C 59.1875 17.324219 58.703125 17.8125 58.101563 17.8125 L 11.9375 17.8125 C 11.335938 17.8125 10.851563 17.324219 10.851563 16.722656 L 10.851563 13.222656 C 10.851563 12.621094 11.335938 12.132813 11.9375 12.132813 Z M 11.9375 12.132813 "/>
</g>
</svg>
