<?xml version="1.0" encoding="UTF-8"?>
<svg xmlns="http://www.w3.org/2000/svg" xmlns:xlink="http://www.w3.org/1999/xlink" width="70pt" height="70pt" viewBox="0 0 70 70" version="1.1">
<g id="surface1">
<path style=" stroke:none;fill-rule:nonzero;fill:rgb(0%,0%,0%);fill-opacity:1;" d="M 63.4375 13.125 L 59.0625 13.125 L 59.0625 63.4375 C 41.542969 62.710938 27.929688 47.925781 28.65625 30.40625 C 29.382813 12.886719 44.167969 -0.726563 61.6875 0 L 60.375 2.1875 L 58.1875 3.5 L 14.875 3.5 L 12.6875 2.1875 L 11.375 0 C 14.183594 0.664063 16.046875 3.328125 15.710938 6.195313 C 15.375 9.0625 12.949219 11.222656 10.0625 11.222656 C 7.175781 11.222656 4.75 9.0625 4.414063 6.195313 C 4.078125 3.328125 5.941406 0.664063 8.75 0 L 8.75 13.125 L 4.375 13.125 L 4.375 8.75 L 21.875 8.75 L 21.875 4.375 C 20.667969 8 16.75 9.957031 13.125 8.75 C 9.5 7.542969 7.542969 3.625 8.75 0 L 9.625 -1.3125 L 10.9375 -2.1875 L 27.5625 -2.1875 L 28.875 -1.3125 L 29.75 0 C 29.75 5.800781 25.050781 10.5 19.25 10.5 C 13.449219 10.5 8.75 5.800781 8.75 0 L 8.75 4.375 L 26.25 4.375 Z M 54.6875 13.125 L 15.3125 13.125 L 15.3125 63.4375 C -2.207031 65.25 -17.875 52.519531 -19.6875 35 C -21.5 17.480469 -8.769531 1.8125 8.75 0 L 47.25 0 C 47.25 10.632813 38.632813 19.25 28 19.25 C 17.367188 19.25 8.75 10.632813 8.75 0 Z M 28.4375 56.875 L 24.0625 56.875 L 24.0625 21.875 L 28.4375 21.875 Z M 28.4375 8.75 L 41.5625 8.75 L 41.5625 4.375 L 28.4375 4.375 Z M 37.1875 56.875 L 32.8125 56.875 L 32.8125 21.875 L 37.1875 21.875 Z M 45.9375 56.875 L 41.5625 56.875 L 41.5625 21.875 L 45.9375 21.875 Z M 45.9375 56.875 "/>
</g>
</svg>
