<?xml version="1.0" encoding="UTF-8"?>
<svg xmlns="http://www.w3.org/2000/svg" xmlns:xlink="http://www.w3.org/1999/xlink" width="70pt" height="70pt" viewBox="0 0 70 70" version="1.1">
<defs>
<linearGradient id="linear0" gradientUnits="userSpaceOnUse" x1="6.36" y1="22.03" x2="6.36" y2="-1.85" gradientTransform="matrix(3.888889,0,0,3.888889,0,0)">
<stop offset="0" style="stop-color:rgb(0%,47.058824%,83.137255%);stop-opacity:1;"/>
<stop offset="0.17" style="stop-color:rgb(10.980392%,51.764706%,86.27451%);stop-opacity:1;"/>
<stop offset="0.38" style="stop-color:rgb(22.352941%,56.470588%,89.411765%);stop-opacity:1;"/>
<stop offset="0.59" style="stop-color:rgb(30.196078%,60%,91.764706%);stop-opacity:1;"/>
<stop offset="0.8" style="stop-color:rgb(35.294118%,61.960784%,93.333333%);stop-opacity:1;"/>
<stop offset="1" style="stop-color:rgb(36.862745%,62.745098%,93.72549%);stop-opacity:1;"/>
</linearGradient>
<filter id="alpha" filterUnits="objectBoundingBox" x="0%" y="0%" width="100%" height="100%">
  <feColorMatrix type="matrix" in="SourceGraphic" values="0 0 0 0 1 0 0 0 0 1 0 0 0 0 1 0 0 0 1 0"/>
</filter>
<mask id="mask0">
  <g filter="url(#alpha)">
<rect x="0" y="0" width="70" height="70" style="fill:rgb(0%,0%,0%);fill-opacity:0.901961;stroke:none;"/>
  </g>
</mask>
<linearGradient id="linear1" gradientUnits="userSpaceOnUse" x1="6.36" y1="15.59" x2="6.36" y2="1.94" gradientTransform="matrix(3.888889,0,0,3.888889,0,0)">
<stop offset="0" style="stop-color:rgb(82.352941%,92.156863%,100%);stop-opacity:1;"/>
<stop offset="1" style="stop-color:rgb(94.117647%,100%,99.215686%);stop-opacity:1;"/>
</linearGradient>
<clipPath id="clip1">
  <rect x="0" y="0" width="70" height="70"/>
</clipPath>
<g id="surface5" clip-path="url(#clip1)">
<path style=" stroke:none;fill-rule:nonzero;fill:url(#linear1);" d="M 9.410156 7.542969 L 40.054688 7.542969 C 40.464844 7.542969 40.792969 7.875 40.792969 8.285156 L 40.792969 59.890625 C 40.792969 60.296875 40.464844 60.628906 40.054688 60.628906 L 9.410156 60.628906 C 9.003906 60.628906 8.671875 60.296875 8.671875 59.890625 L 8.671875 8.285156 C 8.671875 7.875 9.003906 7.542969 9.410156 7.542969 Z M 9.410156 7.542969 "/>
</g>
</defs>
<g id="surface1">
<path style=" stroke:none;fill-rule:nonzero;fill:url(#linear0);" d="M 6.960938 1.945313 L 42.542969 1.945313 C 43.640625 1.945313 44.527344 2.832031 44.527344 3.929688 L 44.527344 66.035156 C 44.527344 67.128906 43.640625 68.015625 42.542969 68.015625 L 6.960938 68.015625 C 5.867188 68.015625 4.976563 67.128906 4.976563 66.035156 L 4.976563 3.929688 C 4.976563 2.832031 5.867188 1.945313 6.960938 1.945313 Z M 6.960938 1.945313 "/>
<path style=" stroke:none;fill-rule:nonzero;fill:rgb(94.901961%,94.901961%,94.901961%);fill-opacity:1;" d="M 23.566406 62.882813 L 25.898438 62.882813 C 26.480469 62.882813 26.949219 63.351563 26.949219 63.933594 L 26.949219 65.605469 C 26.949219 66.183594 26.480469 66.65625 25.898438 66.65625 L 23.566406 66.65625 C 22.988281 66.65625 22.515625 66.183594 22.515625 65.605469 L 22.515625 63.933594 C 22.515625 63.351563 22.988281 62.882813 23.566406 62.882813 Z M 23.566406 62.882813 "/>
<path style=" stroke:none;fill-rule:nonzero;fill:rgb(94.901961%,94.901961%,94.901961%);fill-opacity:1;" d="M 20.765625 4.160156 L 28.699219 4.160156 C 29.023438 4.160156 29.285156 4.421875 29.285156 4.746094 L 29.285156 4.785156 C 29.285156 5.105469 29.023438 5.367188 28.699219 5.367188 L 20.765625 5.367188 C 20.445313 5.367188 20.183594 5.105469 20.183594 4.785156 L 20.183594 4.746094 C 20.183594 4.421875 20.445313 4.160156 20.765625 4.160156 Z M 20.765625 4.160156 "/>
<use xlink:href="#surface5" mask="url(#mask0)"/>
<path style=" stroke:none;fill-rule:nonzero;fill:rgb(46.27451%,73.72549%,17.647059%);fill-opacity:1;" d="M 36.867188 38.8125 L 63.933594 38.8125 C 64.535156 38.8125 65.023438 39.296875 65.023438 39.898438 L 65.023438 66.964844 C 65.023438 67.566406 64.535156 68.054688 63.933594 68.054688 L 36.867188 68.054688 C 36.265625 68.054688 35.777344 67.566406 35.777344 66.964844 L 35.777344 39.898438 C 35.777344 39.296875 36.265625 38.8125 36.867188 38.8125 Z M 36.867188 38.8125 "/>
<path style=" stroke:none;fill-rule:nonzero;fill:rgb(100%,100%,100%);fill-opacity:1;" d="M 48.902344 59.65625 L 47.222656 61.328125 C 30.289063 61.328125 16.558594 47.597656 16.558594 30.664063 C 16.558594 13.730469 30.289063 0 47.222656 0 L 40.511719 -6.703125 C 42.363281 -8.558594 45.367188 -8.558594 47.21875 -6.707031 C 49.074219 -4.855469 49.074219 -1.855469 47.222656 0 L 48.40625 -1.179688 C 48.078125 -1.503906 47.550781 -1.503906 47.226563 -1.179688 C 46.898438 -0.855469 46.898438 -0.328125 47.222656 0 L 54.457031 7.234375 Z M 48.902344 59.65625 "/>
<path style=" stroke:none;fill-rule:nonzero;fill:rgb(100%,100%,100%);fill-opacity:1;" d="M 46.332031 61.285156 L 44.65625 59.605469 L 60.054688 44.203125 C 72.261719 27.621094 68.714844 4.28125 52.128906 -7.925781 C 35.546875 -20.132813 12.207031 -16.585938 0 0 L 1.183594 1.183594 C 0.855469 1.507813 0.328125 1.507813 0 1.183594 C -0.328125 0.855469 -0.328125 0.328125 0 0 L -14.875 14.875 C -18.984375 14.875 -22.3125 11.546875 -22.3125 7.4375 C -22.3125 3.328125 -18.984375 0 -14.875 0 Z M 46.332031 61.285156 "/>
</g>
</svg>
