<?xml version="1.0" encoding="UTF-8"?>
<svg xmlns="http://www.w3.org/2000/svg" xmlns:xlink="http://www.w3.org/1999/xlink" width="70pt" height="70pt" viewBox="0 0 70 70" version="1.1">
<defs>
<linearGradient id="linear0" gradientUnits="userSpaceOnUse" x1="9" y1="10.3" x2="9" y2="13.2" gradientTransform="matrix(3.888889,0,0,3.888889,0,0)">
<stop offset="0" style="stop-color:rgb(0%,35.686275%,63.137255%);stop-opacity:1;"/>
<stop offset="0.26" style="stop-color:rgb(0%,34.509804%,61.568627%);stop-opacity:1;"/>
<stop offset="0.53" style="stop-color:rgb(0%,30.980392%,56.470588%);stop-opacity:1;"/>
<stop offset="0.8" style="stop-color:rgb(0%,24.705882%,48.627451%);stop-opacity:1;"/>
<stop offset="1" style="stop-color:rgb(0%,18.823529%,40.392157%);stop-opacity:1;"/>
</linearGradient>
<filter id="alpha" filterUnits="objectBoundingBox" x="0%" y="0%" width="100%" height="100%">
  <feColorMatrix type="matrix" in="SourceGraphic" values="0 0 0 0 1 0 0 0 0 1 0 0 0 0 1 0 0 0 1 0"/>
</filter>
<mask id="mask0">
  <g filter="url(#alpha)">
<rect x="0" y="0" width="70" height="70" style="fill:rgb(0%,0%,0%);fill-opacity:0.501961;stroke:none;"/>
  </g>
</mask>
<clipPath id="clip1">
  <rect x="0" y="0" width="70" height="70"/>
</clipPath>
<g id="surface5" clip-path="url(#clip1)">
<path style=" stroke:none;fill-rule:nonzero;fill:rgb(60%,60%,60%);fill-opacity:1;" d="M 4.160156 5.5625 L 9.179688 5.5625 L 9.179688 19.445313 C 3.808594 19.132813 -0.292969 14.527344 0.0195313 9.160156 C 0.332031 3.789063 4.9375 -0.3125 10.304688 0 L 3.070313 0 C 3.070313 -1.996094 4.691406 -3.617188 6.6875 -3.617188 C 8.6875 -3.617188 10.304688 -1.996094 10.304688 0 L 10.304688 7.777344 C 8.15625 7.777344 6.417969 6.035156 6.417969 3.890625 C 6.417969 1.742188 8.15625 0 10.304688 0 Z M 4.160156 5.5625 "/>
</g>
<mask id="mask1">
  <g filter="url(#alpha)">
<rect x="0" y="0" width="70" height="70" style="fill:rgb(0%,0%,0%);fill-opacity:0.501961;stroke:none;"/>
  </g>
</mask>
<clipPath id="clip2">
  <rect x="0" y="0" width="70" height="70"/>
</clipPath>
<g id="surface8" clip-path="url(#clip2)">
<path style=" stroke:none;fill-rule:nonzero;fill:rgb(60%,60%,60%);fill-opacity:1;" d="M 60.820313 5.5625 L 65.839844 5.5625 C 64.304688 23.742188 48.320313 37.234375 30.140625 35.699219 C 11.957031 34.164063 -1.535156 18.179688 0 0 L 0 11.667969 C -3.222656 11.355469 -5.582031 8.492188 -5.269531 5.269531 C -4.957031 2.046875 -2.09375 -0.3125 1.128906 0 L -3.890625 0 C -3.445313 0.253906 -3.230469 0.777344 -3.363281 1.269531 C -3.496094 1.761719 -3.941406 2.105469 -4.453125 2.105469 C -4.964844 2.105469 -5.410156 1.761719 -5.542969 1.269531 C -5.675781 0.777344 -5.457031 0.253906 -5.015625 0 L -5.015625 5.5625 Z M 60.820313 5.5625 "/>
</g>
<mask id="mask2">
  <g filter="url(#alpha)">
<rect x="0" y="0" width="70" height="70" style="fill:rgb(0%,0%,0%);fill-opacity:0.501961;stroke:none;"/>
  </g>
</mask>
<clipPath id="clip3">
  <rect x="0" y="0" width="70" height="70"/>
</clipPath>
<g id="surface11" clip-path="url(#clip3)">
<path style=" stroke:none;fill-rule:nonzero;fill:rgb(60%,60%,60%);fill-opacity:1;" d="M 3.070313 49.3125 L 8.089844 49.3125 C -5.527344 51.542969 -18.378906 42.316406 -20.609375 28.699219 C -22.84375 15.082031 -13.617188 2.234375 0 0 L 0 14 L -5.054688 14 C -8.921875 12.605469 -10.925781 8.339844 -9.527344 4.472656 C -8.132813 0.605469 -3.867188 -1.394531 0 0 L 0 -11.667969 C 3.222656 -11.667969 5.832031 -9.054688 5.832031 -5.832031 C 5.832031 -2.613281 3.222656 0 0 0 Z M 3.070313 49.3125 "/>
</g>
<mask id="mask3">
  <g filter="url(#alpha)">
<rect x="0" y="0" width="70" height="70" style="fill:rgb(0%,0%,0%);fill-opacity:0.501961;stroke:none;"/>
  </g>
</mask>
<clipPath id="clip4">
  <rect x="0" y="0" width="70" height="70"/>
</clipPath>
<g id="surface14" clip-path="url(#clip4)">
<path style=" stroke:none;fill-rule:nonzero;fill:rgb(60%,60%,60%);fill-opacity:1;" d="M 61.910156 49.3125 L 66.929688 49.3125 C 53.3125 67.792969 27.289063 71.738281 8.808594 58.121094 C -9.671875 44.503906 -13.617188 18.480469 0 0 L 0 11.667969 C -3.222656 11.054688 -5.335938 7.945313 -4.726563 4.726563 C -4.113281 1.503906 -1.003906 -0.613281 2.214844 0 L -2.800781 0 L -2.800781 50.554688 C -16.761719 49.171875 -26.953125 36.730469 -25.570313 22.769531 C -24.183594 8.808594 -11.742188 -1.386719 2.214844 0 Z M 61.910156 49.3125 "/>
</g>
</defs>
<g id="surface1">
<path style=" stroke:none;fill-rule:nonzero;fill:rgb(31.372549%,90.196078%,100%);fill-opacity:1;" d="M 52.070313 28.777344 L 52.035156 28.777344 L 52.035156 28.699219 L 51.957031 28.699219 L 35 17.148438 L 18.003906 28.699219 L 17.929688 28.699219 L 17.929688 51.332031 L 52.035156 51.332031 L 52.035156 28.777344 Z M 52.070313 28.777344 "/>
<path style=" stroke:none;fill-rule:nonzero;fill:rgb(19.607843%,74.509804%,86.666667%);fill-opacity:1;" d="M 17.929688 28.777344 L 17.929688 51.332031 L 35 40.054688 Z M 17.929688 28.777344 "/>
<path style=" stroke:none;fill-rule:nonzero;fill:rgb(9.803922%,54.117647%,70.196078%);fill-opacity:1;" d="M 52.035156 28.777344 L 35 40.054688 L 52.035156 51.332031 Z M 52.035156 28.777344 "/>
<path style=" stroke:none;fill-rule:nonzero;fill:url(#linear0);" d="M 34.960938 40.054688 L 17.929688 51.292969 L 17.929688 51.332031 L 52.035156 51.332031 L 52.035156 51.292969 Z M 34.960938 40.054688 "/>
<path style=" stroke:none;fill-rule:nonzero;fill:rgb(60%,60%,60%);fill-opacity:1;" d="M 4.160156 5.5625 L 9.179688 5.5625 L 9.179688 19.445313 C 3.808594 19.132813 -0.292969 14.527344 0.0195313 9.160156 C 0.332031 3.789063 4.9375 -0.3125 10.304688 0 L 3.070313 0 C 3.070313 -1.996094 4.691406 -3.617188 6.6875 -3.617188 C 8.6875 -3.617188 10.304688 -1.996094 10.304688 0 L 10.304688 7.777344 C 8.15625 7.777344 6.417969 6.035156 6.417969 3.890625 C 6.417969 1.742188 8.15625 0 10.304688 0 Z M 4.160156 5.5625 "/>
<use xlink:href="#surface5" mask="url(#mask0)"/>
<path style=" stroke:none;fill-rule:nonzero;fill:rgb(60%,60%,60%);fill-opacity:1;" d="M 60.820313 5.5625 L 65.839844 5.5625 C 64.304688 23.742188 48.320313 37.234375 30.140625 35.699219 C 11.957031 34.164063 -1.535156 18.179688 0 0 L 0 11.667969 C -3.222656 11.355469 -5.582031 8.492188 -5.269531 5.269531 C -4.957031 2.046875 -2.09375 -0.3125 1.128906 0 L -3.890625 0 C -3.445313 0.253906 -3.230469 0.777344 -3.363281 1.269531 C -3.496094 1.761719 -3.941406 2.105469 -4.453125 2.105469 C -4.964844 2.105469 -5.410156 1.761719 -5.542969 1.269531 C -5.675781 0.777344 -5.457031 0.253906 -5.015625 0 L -5.015625 5.5625 Z M 60.820313 5.5625 "/>
<use xlink:href="#surface8" mask="url(#mask1)"/>
<path style=" stroke:none;fill-rule:nonzero;fill:rgb(58.039216%,58.039216%,58.039216%);fill-opacity:1;" d="M 68.054688 7.777344 L 68.054688 12.640625 L 1.945313 12.640625 L 1.945313 7.777344 C -0.203125 8.316406 -2.378906 7.007813 -2.917969 4.859375 C -3.453125 2.714844 -2.148438 0.535156 0 0 L 61.714844 0 C 61.714844 17.042969 47.902344 30.859375 30.859375 30.859375 C 13.816406 30.859375 0 17.042969 0 0 Z M 68.054688 7.777344 "/>
<path style=" stroke:none;fill-rule:nonzero;fill:rgb(60%,60%,60%);fill-opacity:1;" d="M 3.070313 49.3125 L 8.089844 49.3125 C -5.527344 51.542969 -18.378906 42.316406 -20.609375 28.699219 C -22.84375 15.082031 -13.617188 2.234375 0 0 L 0 14 L -5.054688 14 C -8.921875 12.605469 -10.925781 8.339844 -9.527344 4.472656 C -8.132813 0.605469 -3.867188 -1.394531 0 0 L 0 -11.667969 C 3.222656 -11.667969 5.832031 -9.054688 5.832031 -5.832031 C 5.832031 -2.613281 3.222656 0 0 0 Z M 3.070313 49.3125 "/>
<use xlink:href="#surface11" mask="url(#mask2)"/>
<path style=" stroke:none;fill-rule:nonzero;fill:rgb(60%,60%,60%);fill-opacity:1;" d="M 61.910156 49.3125 L 66.929688 49.3125 C 53.3125 67.792969 27.289063 71.738281 8.808594 58.121094 C -9.671875 44.503906 -13.617188 18.480469 0 0 L 0 11.667969 C -3.222656 11.054688 -5.335938 7.945313 -4.726563 4.726563 C -4.113281 1.503906 -1.003906 -0.613281 2.214844 0 L -2.800781 0 L -2.800781 50.554688 C -16.761719 49.171875 -26.953125 36.730469 -25.570313 22.769531 C -24.183594 8.808594 -11.742188 -1.386719 2.214844 0 Z M 61.910156 49.3125 "/>
<use xlink:href="#surface14" mask="url(#mask3)"/>
<path style=" stroke:none;fill-rule:nonzero;fill:rgb(58.039216%,58.039216%,58.039216%);fill-opacity:1;" d="M 1.945313 62.222656 L 1.945313 57.359375 L 68.054688 57.359375 L 68.054688 62.222656 C 50.875 61.609375 37.441406 47.183594 38.054688 30.003906 C 38.664063 12.820313 53.089844 -0.613281 70.273438 0 L 4.160156 0 C 4.160156 -18.257813 18.960938 -33.054688 37.214844 -33.054688 C 55.472656 -33.054688 70.273438 -18.257813 70.273438 0 Z M 1.945313 62.222656 "/>
</g>
</svg>
