<?xml version="1.0" encoding="UTF-8"?>
<svg xmlns="http://www.w3.org/2000/svg" xmlns:xlink="http://www.w3.org/1999/xlink" width="70pt" height="70pt" viewBox="0 0 70 70" version="1.1">
<defs>
<linearGradient id="linear0" gradientUnits="userSpaceOnUse" x1="9" y1="1.36" x2="9" y2="17.87" gradientTransform="matrix(3.888889,0,0,3.888889,0,0)">
<stop offset="0" style="stop-color:rgb(41.960784%,72.54902%,94.901961%);stop-opacity:1;"/>
<stop offset="1" style="stop-color:rgb(10.588235%,57.647059%,92.156863%);stop-opacity:1;"/>
</linearGradient>
<filter id="alpha" filterUnits="objectBoundingBox" x="0%" y="0%" width="100%" height="100%">
  <feColorMatrix type="matrix" in="SourceGraphic" values="0 0 0 0 1 0 0 0 0 1 0 0 0 0 1 0 0 0 1 0"/>
</filter>
<mask id="mask0">
  <g filter="url(#alpha)">
<rect x="0" y="0" width="70" height="70" style="fill:rgb(0%,0%,0%);fill-opacity:0.2;stroke:none;"/>
  </g>
</mask>
<clipPath id="clip1">
  <rect x="0" y="0" width="70" height="70"/>
</clipPath>
<g id="surface5" clip-path="url(#clip1)">
<path style=" stroke:none;fill-rule:nonzero;fill:rgb(36.862745%,62.745098%,93.72549%);fill-opacity:1;" d="M 34.535156 28.894531 L 34.535156 36.710938 L 41.300781 32.785156 Z M 34.535156 28.894531 "/>
</g>
<mask id="mask1">
  <g filter="url(#alpha)">
<rect x="0" y="0" width="70" height="70" style="fill:rgb(0%,0%,0%);fill-opacity:0.2;stroke:none;"/>
  </g>
</mask>
<clipPath id="clip2">
  <rect x="0" y="0" width="70" height="70"/>
</clipPath>
<g id="surface8" clip-path="url(#clip2)">
<path style=" stroke:none;fill-rule:nonzero;fill:rgb(51.372549%,72.54902%,97.647059%);fill-opacity:1;" d="M 34.496094 28.972656 L 34.535156 29.011719 L 34.535156 36.828125 L 34.496094 36.828125 L 27.726563 32.898438 Z M 34.496094 28.972656 "/>
</g>
</defs>
<g id="surface1">
<path style=" stroke:none;fill-rule:nonzero;fill:rgb(10.588235%,57.647059%,92.156863%);fill-opacity:1;" d="M 63.621094 32.667969 C 63.621094 51.488281 40.871094 66.65625 35.933594 69.726563 C 16.679688 69.726563 1.070313 54.117188 1.070313 34.863281 C 1.070313 15.609375 16.679688 0 35.933594 0 C 30.996094 -3.070313 8.246094 -18.238281 8.246094 -37.0625 L 8.246094 10.035156 C 5.472656 22.542969 -6.914063 30.441406 -19.425781 27.667969 C -31.9375 24.898438 -39.832031 12.511719 -37.0625 0 C 25.820313 7.777344 21.738281 0 35 0 C 48.261719 0 44.179688 7.777344 61.871094 8.246094 C 59.59375 25.328125 43.898438 37.335938 26.8125 35.058594 C 9.726563 32.78125 -2.277344 17.085938 0 0 Z M 63.621094 32.667969 "/>
<path style=" stroke:none;fill-rule:nonzero;fill:url(#linear0);" d="M 61.25 32.859375 C 61.25 50.128906 40.40625 63.972656 35.855469 66.851563 C 17.394531 66.851563 2.429688 51.886719 2.429688 33.425781 C 2.429688 14.964844 17.394531 0 35.855469 0 C 31.304688 -2.800781 10.460938 -16.722656 10.460938 -33.988281 L 10.460938 12.09375 C 7.121094 24.367188 -5.535156 31.613281 -17.8125 28.273438 C -30.085938 24.933594 -37.328125 12.273438 -33.988281 0 C 26.5625 10.035156 22.828125 2.917969 35 2.917969 C 47.171875 2.917969 43.4375 10.035156 59.65625 10.460938 C 56.765625 26.128906 41.722656 36.488281 26.054688 33.601563 C 10.386719 30.710938 0.0273438 15.667969 2.917969 0 Z M 61.25 32.859375 "/>
<path style=" stroke:none;fill-rule:nonzero;fill:rgb(12.156863%,33.72549%,63.921569%);fill-opacity:1;" d="M 42.972656 50.320313 C 38.617188 49.738281 38.65625 46.898438 38.695313 42.542969 L 30.449219 42.542969 C 30.449219 47.09375 30.449219 49.933594 26.171875 50.320313 C 12.277344 49.765625 1.464844 38.046875 2.023438 24.148438 C 2.582031 10.253906 14.296875 -0.558594 28.195313 0 L 49.15625 0 C 48.519531 0.3125 47.769531 0.3125 47.132813 0 Z M 42.972656 50.320313 "/>
<path style=" stroke:none;fill-rule:nonzero;fill:rgb(7.843137%,56.470588%,87.45098%);fill-opacity:1;" d="M 16.917969 15.710938 L 52.148438 15.710938 C 52.859375 15.710938 53.433594 16.285156 53.433594 16.996094 L 53.433594 41.183594 C 53.433594 41.890625 52.859375 42.464844 52.148438 42.464844 L 16.917969 42.464844 C 16.207031 42.464844 15.632813 41.890625 15.632813 41.183594 L 15.632813 16.996094 C 15.632813 16.285156 16.207031 15.710938 16.917969 15.710938 Z M 16.917969 15.710938 "/>
<path style=" stroke:none;fill-rule:nonzero;fill:rgb(100%,100%,100%);fill-opacity:1;" d="M 18.433594 17.773438 L 50.59375 17.773438 C 50.9375 17.773438 51.214844 18.050781 51.214844 18.394531 L 51.214844 39.355469 C 51.214844 39.699219 50.9375 39.976563 50.59375 39.976563 L 18.433594 39.976563 C 18.089844 39.976563 17.8125 39.699219 17.8125 39.355469 L 17.8125 18.394531 C 17.8125 18.050781 18.089844 17.773438 18.433594 17.773438 Z M 18.433594 17.773438 "/>
<path style=" stroke:none;fill-rule:nonzero;fill:rgb(0%,47.058824%,83.137255%);fill-opacity:1;" d="M 41.300781 24.964844 L 41.339844 32.785156 L 34.535156 36.710938 L 34.535156 28.894531 Z M 41.300781 24.964844 "/>
<path style=" stroke:none;fill-rule:nonzero;fill:rgb(51.372549%,72.54902%,97.647059%);fill-opacity:1;" d="M 41.300781 24.964844 L 34.535156 28.894531 L 27.726563 24.964844 L 34.496094 21.039063 Z M 41.300781 24.964844 "/>
<path style=" stroke:none;fill-rule:nonzero;fill:rgb(36.862745%,62.745098%,93.72549%);fill-opacity:1;" d="M 34.535156 28.894531 L 34.496094 36.710938 L 27.726563 32.785156 L 27.726563 24.964844 Z M 34.535156 28.894531 "/>
<use xlink:href="#surface5" mask="url(#mask0)"/>
<use xlink:href="#surface8" mask="url(#mask1)"/>
</g>
</svg>
