<?xml version="1.0" encoding="UTF-8"?>
<svg xmlns="http://www.w3.org/2000/svg" xmlns:xlink="http://www.w3.org/1999/xlink" width="70pt" height="70pt" viewBox="0 0 70 70" version="1.1">
<defs>
<linearGradient id="linear0" gradientUnits="userSpaceOnUse" x1="-481.386" y1="-747.701" x2="-463.782" y2="-778.247" gradientTransform="matrix(1.944444,3.367877,-3.367877,1.944444,-1632.09334,3088.178587)">
<stop offset="0" style="stop-color:rgb(0%,35.686275%,63.137255%);stop-opacity:1;"/>
<stop offset="0.366" style="stop-color:rgb(0%,30.588235%,56.078431%);stop-opacity:1;"/>
<stop offset="1" style="stop-color:rgb(0%,18.823529%,40.392157%);stop-opacity:1;"/>
</linearGradient>
<linearGradient id="linear1" gradientUnits="userSpaceOnUse" x1="-1395.588" y1="671.239" x2="-1374.204" y2="633.738" gradientTransform="matrix(-1.944444,-3.367877,3.367877,-1.944444,-4858.090679,-3338.297739)">
<stop offset="0" style="stop-color:rgb(0%,35.686275%,63.137255%);stop-opacity:1;"/>
<stop offset="0.451" style="stop-color:rgb(0%,27.45098%,52.156863%);stop-opacity:1;"/>
<stop offset="1" style="stop-color:rgb(0%,18.823529%,40.392157%);stop-opacity:1;"/>
</linearGradient>
<linearGradient id="linear2" gradientUnits="userSpaceOnUse" x1="6.003" y1="14.447" x2="7.447" y2="6.204" gradientTransform="matrix(3.888889,0,0,3.888889,0,0)">
<stop offset="0.26" style="stop-color:rgb(31.372549%,90.196078%,100%);stop-opacity:1;"/>
<stop offset="0.42" style="stop-color:rgb(47.45098%,91.764706%,100%);stop-opacity:1;"/>
<stop offset="0.58" style="stop-color:rgb(60%,92.941176%,100%);stop-opacity:1;"/>
<stop offset="0.733" style="stop-color:rgb(69.019608%,93.72549%,100%);stop-opacity:1;"/>
<stop offset="0.876" style="stop-color:rgb(74.509804%,94.509804%,100%);stop-opacity:1;"/>
<stop offset="1" style="stop-color:rgb(76.470588%,94.509804%,100%);stop-opacity:1;"/>
</linearGradient>
</defs>
<g id="surface1">
<path style=" stroke:none;fill-rule:nonzero;fill:url(#linear0);" d="M 35.945313 15.273438 L 52.945313 25.050781 L 64.800781 18.207031 C 63.480469 31.816406 54.183594 43.328125 41.160156 47.484375 C 28.136719 51.640625 13.886719 47.636719 4.933594 37.304688 C -4.023438 26.972656 -5.960938 12.304688 0 0 Z M 35.945313 15.273438 "/>
<path style=" stroke:none;fill-rule:nonzero;fill:rgb(0%,47.058824%,83.137255%);fill-opacity:1;" d="M 52.726563 25.050781 L 52.457031 48.519531 L 64.777344 51.828125 C 50.464844 69.714844 24.363281 72.613281 6.476563 58.300781 C -11.414063 43.992188 -14.3125 17.886719 0 0 Z M 52.726563 25.050781 "/>
<path style=" stroke:none;fill-rule:nonzero;fill:rgb(36.862745%,62.745098%,93.72549%);fill-opacity:1;" d="M 52.703125 45.289063 L 35 55.519531 L 35.277344 69.128906 C 34.699219 55.042969 42.816406 42.046875 55.726563 36.382813 C 68.640625 30.722656 83.699219 33.558594 93.667969 43.527344 C 103.636719 53.496094 106.472656 68.558594 100.8125 81.46875 C 95.152344 94.378906 82.152344 102.496094 68.066406 101.921875 L 105.296875 101.921875 Z M 52.703125 45.289063 "/>
<path style=" stroke:none;fill-rule:nonzero;fill:url(#linear1);" d="M 35 55.519531 L 17.285156 45.289063 L 5.542969 52.335938 C -7.0625 65.21875 -27.507813 66.089844 -41.160156 54.320313 C -54.808594 42.554688 -56.964844 22.203125 -46.082031 7.839844 C -35.195313 -6.527344 -15.023438 -9.957031 0 0 Z M 35 55.519531 "/>
<path style=" stroke:none;fill-rule:nonzero;fill:rgb(0%,47.058824%,83.137255%);fill-opacity:1;" d="M 17.273438 45.289063 L 17.542969 21.035156 L 5.421875 17.84375 C 5.714844 34.800781 -6.535156 49.382813 -23.292969 52.019531 C -40.046875 54.65625 -56.183594 44.542969 -61.113281 28.3125 C -66.046875 12.085938 -58.261719 -5.296875 -42.871094 -12.425781 C -27.484375 -19.554688 -9.191406 -14.253906 0 0 C 2.90625 -17.285156 18.339844 -29.621094 35.835938 -28.648438 C 53.335938 -27.675781 67.308594 -13.707031 68.28125 3.792969 C 69.253906 21.292969 56.914063 36.726563 39.632813 39.632813 Z M 17.273438 45.289063 "/>
<path style=" stroke:none;fill-rule:nonzero;fill:rgb(36.862745%,62.745098%,93.72549%);fill-opacity:1;" d="M 17.890625 24.5 L 35 14.609375 C 32.480469 10.089844 30.839844 5.132813 30.160156 0 Z M 17.890625 24.5 "/>
<path style=" stroke:none;fill-rule:nonzero;fill:rgb(76.470588%,94.509804%,100%);fill-opacity:1;" d="M 52.703125 45.289063 L 52.703125 24.835938 L 34.988281 14.609375 L 17.273438 24.835938 L 17.273438 45.289063 L 34.988281 55.519531 Z M 52.703125 45.289063 "/>
<path style=" stroke:none;fill-rule:nonzero;fill:url(#linear2);" d="M 35.011719 35.277344 L 35.011719 55.519531 L 17.273438 45.289063 L 17.273438 24.90625 Z M 35.011719 35.277344 "/>
<path style=" stroke:none;fill-rule:nonzero;fill:rgb(31.372549%,90.196078%,100%);fill-opacity:1;" d="M 34.988281 35.277344 L 34.988281 55.519531 L 52.726563 45.289063 L 52.726563 24.90625 Z M 34.988281 35.277344 "/>
</g>
</svg>
