<?xml version="1.0" encoding="UTF-8"?>
<svg xmlns="http://www.w3.org/2000/svg" xmlns:xlink="http://www.w3.org/1999/xlink" width="70pt" height="70pt" viewBox="0 0 70 70" version="1.1">
<defs>
<linearGradient id="linear0" gradientUnits="userSpaceOnUse" x1="4.76" y1="9.66" x2="4.76" y2="17.06" gradientTransform="matrix(3.888889,0,0,3.888889,0,0)">
<stop offset="0" style="stop-color:rgb(0%,54.509804%,94.509804%);stop-opacity:1;"/>
<stop offset="1" style="stop-color:rgb(0%,30.196078%,68.235294%);stop-opacity:1;"/>
</linearGradient>
<linearGradient id="linear1" gradientUnits="userSpaceOnUse" x1="4.83" y1="1.06" x2="4.83" y2="6.38" gradientTransform="matrix(3.888889,0,0,3.888889,0,0)">
<stop offset="0" style="stop-color:rgb(46.27451%,73.72549%,17.647059%);stop-opacity:1;"/>
<stop offset="1" style="stop-color:rgb(36.862745%,58.823529%,14.117647%);stop-opacity:1;"/>
</linearGradient>
<linearGradient id="linear2" gradientUnits="userSpaceOnUse" x1="14.4" y1="10.64" x2="14.4" y2="15.95" gradientTransform="matrix(3.888889,0,0,3.888889,0,0)">
<stop offset="0" style="stop-color:rgb(46.27451%,73.72549%,17.647059%);stop-opacity:1;"/>
<stop offset="1" style="stop-color:rgb(36.862745%,58.823529%,14.117647%);stop-opacity:1;"/>
</linearGradient>
</defs>
<g id="surface1">
<path style=" stroke:none;fill-rule:nonzero;fill:rgb(58.039216%,58.039216%,58.039216%);fill-opacity:1;" d="M 20.84375 49.660156 L 20.84375 24.8125 L 16.761719 24.8125 L 16.761719 53.746094 L 49.195313 53.746094 L 49.195313 49.660156 Z M 20.84375 49.660156 "/>
<path style=" stroke:none;fill-rule:nonzero;fill:url(#linear0);" d="M 17.035156 38.1875 L 4.746094 50.554688 C -9.214844 51.867188 -21.59375 41.609375 -22.90625 27.648438 C -24.214844 13.691406 -13.960938 1.308594 0 0 L 12.289063 12.171875 C 15.648438 8.777344 15.625 3.304688 12.230469 -0.0585938 C 8.835938 -3.417969 3.359375 -3.394531 0 0 L 12.289063 -12.289063 C 15.683594 -8.894531 15.683594 -3.394531 12.289063 0 C 8.894531 3.394531 3.394531 3.394531 0 0 L 20.027344 38.1875 C 9.480469 38.1875 0.933594 29.640625 0.933594 19.09375 C 0.933594 8.550781 9.480469 0 20.027344 0 Z M 17.035156 38.1875 "/>
<path style=" stroke:none;fill-rule:nonzero;fill:url(#linear1);" d="M 29.128906 22.710938 L 29.128906 6.222656 C 27.410156 14.265625 19.496094 19.394531 11.453125 17.675781 C 3.410156 15.957031 -1.71875 8.042969 0 0 L 10.539063 0 C 11.1875 -0.375 11.988281 -0.375 12.640625 0 L 12.640625 16.488281 C 8.085938 16.488281 4.394531 12.796875 4.394531 8.246094 C 4.394531 3.691406 8.085938 0 12.640625 0 L 27.222656 0 C 27.222656 4.027344 23.957031 7.292969 19.929688 7.292969 C 15.902344 7.292969 12.640625 4.027344 12.640625 0 Z M 29.128906 22.710938 "/>
<path style=" stroke:none;fill-rule:nonzero;fill:url(#linear2);" d="M 45.65625 43.476563 L 45.65625 59.929688 C 29.105469 72.535156 5.472656 69.339844 -7.136719 52.792969 C -19.742188 36.242188 -16.546875 12.609375 0 0 L 16.488281 0 C 16.488281 4.554688 12.796875 8.246094 8.246094 8.246094 C 3.691406 8.246094 0 4.554688 0 0 L 0 -16.449219 C 4.542969 -15.871094 7.753906 -11.71875 7.175781 -7.175781 C 6.59375 -2.632813 2.441406 0.578125 -2.101563 0 L -18.589844 0 C -17.9375 -0.375 -17.136719 -0.375 -16.488281 0 Z M 45.65625 43.476563 "/>
</g>
</svg>
