<?xml version="1.0" encoding="UTF-8"?>
<svg xmlns="http://www.w3.org/2000/svg" xmlns:xlink="http://www.w3.org/1999/xlink" width="53pt" height="70pt" viewBox="0 0 53 70" version="1.1">
<g id="surface1">
<path style=" stroke:none;fill-rule:nonzero;fill:rgb(0%,0%,0%);fill-opacity:1;" d="M 11.007813 30.058594 L 5.707031 24.707031 L 26.09375 4.117188 L 40.769531 4.117188 L 40.769531 12.351563 L 44.847656 12.351563 L 44.847656 0 L 24.460938 0 L 0 24.707031 L 8.152344 32.941406 Z M 32.617188 24.707031 L 8.152344 49.410156 L 28.539063 70 L 53 45.292969 L 53 24.707031 Z M 48.921875 43.648438 L 28.539063 64.234375 L 13.863281 49.410156 L 34.246094 28.824219 L 48.921875 28.824219 Z M 48.921875 43.648438 "/>
<path style=" stroke:none;fill-rule:nonzero;fill:rgb(0%,0%,0%);fill-opacity:1;" d="M 15.085938 42.410156 L 9.785156 37.058594 L 30.167969 16.46875 L 44.847656 16.46875 L 44.847656 24.707031 L 48.921875 24.707031 L 48.921875 12.351563 L 28.539063 12.351563 L 4.078125 37.058594 L 12.230469 45.292969 Z M 15.085938 42.410156 "/>
<path style=" stroke:none;fill-rule:nonzero;fill:rgb(0%,0%,0%);fill-opacity:1;" d="M 44.847656 35 C 44.847656 36.136719 43.933594 37.058594 42.808594 37.058594 C 41.683594 37.058594 40.769531 36.136719 40.769531 35 C 40.769531 33.863281 41.683594 32.941406 42.808594 32.941406 C 43.933594 32.941406 44.847656 33.863281 44.847656 35 Z M 44.847656 35 "/>
</g>
</svg>
