<?xml version="1.0" encoding="UTF-8"?>
<svg xmlns="http://www.w3.org/2000/svg" xmlns:xlink="http://www.w3.org/1999/xlink" width="70pt" height="70pt" viewBox="0 0 70 70" version="1.1">
<defs>
<linearGradient id="linear0" gradientUnits="userSpaceOnUse" x1="8.22" y1="8.09" x2="8.22" y2="4.71" gradientTransform="matrix(3.888889,0,0,3.888889,0,0)">
<stop offset="0" style="stop-color:rgb(46.666667%,22.745098%,86.27451%);stop-opacity:1;"/>
<stop offset="1" style="stop-color:rgb(71.764706%,47.843137%,95.686275%);stop-opacity:1;"/>
</linearGradient>
<linearGradient id="linear1" gradientUnits="userSpaceOnUse" x1="2.36" y1="12.63" x2="2.36" y2="9.25" gradientTransform="matrix(3.888889,0,0,3.888889,0,0)">
<stop offset="0" style="stop-color:rgb(46.666667%,22.745098%,86.27451%);stop-opacity:1;"/>
<stop offset="1" style="stop-color:rgb(71.764706%,47.843137%,95.686275%);stop-opacity:1;"/>
</linearGradient>
<linearGradient id="linear2" gradientUnits="userSpaceOnUse" x1="8.22" y1="17.5" x2="8.22" y2="14.12" gradientTransform="matrix(3.888889,0,0,3.888889,0,0)">
<stop offset="0" style="stop-color:rgb(46.666667%,22.745098%,86.27451%);stop-opacity:1;"/>
<stop offset="1" style="stop-color:rgb(71.764706%,47.843137%,95.686275%);stop-opacity:1;"/>
</linearGradient>
<linearGradient id="linear3" gradientUnits="userSpaceOnUse" x1="14.08" y1="0.5" x2="14.08" y2="11.54" gradientTransform="matrix(3.888889,0,0,3.888889,0,0)">
<stop offset="0" style="stop-color:rgb(71.764706%,47.843137%,95.686275%);stop-opacity:1;"/>
<stop offset="0.62" style="stop-color:rgb(54.901961%,30.980392%,89.411765%);stop-opacity:1;"/>
<stop offset="1" style="stop-color:rgb(46.666667%,22.745098%,86.27451%);stop-opacity:1;"/>
</linearGradient>
</defs>
<g id="surface1">
<path style=" stroke:none;fill-rule:nonzero;fill:rgb(61.176471%,92.156863%,100%);fill-opacity:1;" d="M 59.964844 42.542969 C 59.964844 45.421875 57.632813 47.753906 54.753906 47.753906 C 51.878906 47.753906 49.542969 45.421875 49.542969 42.542969 C 49.542969 39.667969 51.878906 37.332031 54.753906 37.332031 C 57.632813 37.332031 59.964844 39.667969 59.964844 42.542969 Z M 59.964844 42.542969 "/>
<path style=" stroke:none;fill-rule:nonzero;fill:rgb(31.372549%,90.196078%,100%);fill-opacity:1;" d="M 54.753906 33.289063 C 45.5625 32.816406 38.496094 24.980469 38.964844 15.789063 C 39.4375 6.597656 47.273438 -0.472656 56.464844 0 L 31.964844 22.828125 L 4.199219 42.542969 L 31.964844 63.621094 L 49.582031 50.246094 C 49.519531 46.410156 51.789063 42.921875 55.320313 41.425781 C 58.851563 39.929688 62.9375 40.722656 65.648438 43.433594 C 68.359375 46.148438 69.15625 50.230469 67.65625 53.761719 C 66.160156 57.292969 62.671875 59.5625 58.839844 59.5 Z M 48.496094 35.738281 Z M 31.964844 58.566406 L 11.003906 42.777344 L 31.964844 27.765625 L 46.667969 38.1875 C 49.925781 40.085938 51.664063 43.804688 51.023438 47.523438 Z M 47.792969 36.4375 Z M 47.171875 37.253906 Z M 47.988281 48.921875 Z M 47.367188 48.183594 Z M 48.726563 49.621094 Z M 54.753906 47.871094 C 54.753906 44.972656 57.105469 42.621094 60.003906 42.621094 C 62.90625 42.621094 65.253906 44.972656 65.253906 47.871094 C 65.253906 50.773438 62.90625 53.121094 60.003906 53.121094 Z M 54.753906 47.871094 "/>
<path style=" stroke:none;fill-rule:nonzero;fill:url(#linear0);" d="M 38.539063 24.890625 C 38.539063 28.519531 35.597656 31.460938 31.964844 31.460938 C 28.335938 31.460938 25.394531 28.519531 25.394531 24.890625 C 25.394531 21.257813 28.335938 18.316406 31.964844 18.316406 C 35.597656 18.316406 38.539063 21.257813 38.539063 24.890625 Z M 38.539063 24.890625 "/>
<path style=" stroke:none;fill-rule:nonzero;fill:url(#linear1);" d="M 15.75 42.542969 C 15.75 46.175781 12.808594 49.117188 9.179688 49.117188 C 5.546875 49.117188 2.605469 46.175781 2.605469 42.542969 C 2.605469 38.914063 5.546875 35.972656 9.179688 35.972656 C 12.808594 35.972656 15.75 38.914063 15.75 42.542969 Z M 15.75 42.542969 "/>
<path style=" stroke:none;fill-rule:nonzero;fill:url(#linear2);" d="M 38.539063 61.484375 C 38.539063 65.113281 35.597656 68.054688 31.964844 68.054688 C 28.335938 68.054688 25.394531 65.113281 25.394531 61.484375 C 25.394531 57.855469 28.335938 54.910156 31.964844 54.910156 C 35.597656 54.910156 38.539063 57.855469 38.539063 61.484375 Z M 38.539063 61.484375 "/>
<path style=" stroke:none;fill-rule:nonzero;fill:url(#linear3);" d="M 54.753906 1.945313 C 54.21875 17.066406 41.527344 28.886719 26.40625 28.351563 C 11.285156 27.8125 -0.535156 15.121094 0 0 C 0 5.949219 7.542969 19.871094 10.964844 28.195313 C 18.753906 32.953125 28.921875 30.496094 33.679688 22.710938 C 38.433594 14.925781 35.980469 4.757813 28.195313 0 C 31.65625 -8.398438 39.199219 -22.4375 39.199219 -28.195313 C 46.984375 -9.582031 38.210938 11.8125 19.601563 19.601563 C 0.988281 27.386719 -20.410156 18.609375 -28.195313 0 Z M 54.753906 20.378906 C 54.738281 18.089844 56.109375 16.019531 58.21875 15.136719 C 60.328125 14.253906 62.765625 14.734375 64.382813 16.351563 C 66 17.96875 66.480469 20.402344 65.597656 22.515625 C 64.714844 24.625 62.644531 25.992188 60.355469 25.976563 Z M 54.753906 20.378906 "/>
</g>
</svg>
