<?xml version="1.0" encoding="UTF-8"?>
<svg xmlns="http://www.w3.org/2000/svg" xmlns:xlink="http://www.w3.org/1999/xlink" width="70pt" height="70pt" viewBox="0 0 70 70" version="1.1">
<defs>
<linearGradient id="linear0" gradientUnits="userSpaceOnUse" x1="7.82" y1="17.847" x2="7.82" y2="4.529" gradientTransform="matrix(3.888889,0,0,3.888889,0,0)">
<stop offset="0" style="stop-color:rgb(19.607843%,74.509804%,86.666667%);stop-opacity:1;"/>
<stop offset="0.372" style="stop-color:rgb(23.137255%,78.823529%,90.588235%);stop-opacity:1;"/>
<stop offset="1" style="stop-color:rgb(31.372549%,90.196078%,100%);stop-opacity:1;"/>
</linearGradient>
<filter id="alpha" filterUnits="objectBoundingBox" x="0%" y="0%" width="100%" height="100%">
  <feColorMatrix type="matrix" in="SourceGraphic" values="0 0 0 0 1 0 0 0 0 1 0 0 0 0 1 0 0 0 1 0"/>
</filter>
<mask id="mask0">
  <g filter="url(#alpha)">
<rect x="0" y="0" width="70" height="70" style="fill:rgb(0%,0%,0%);fill-opacity:0.501961;stroke:none;"/>
  </g>
</mask>
<clipPath id="clip1">
  <rect x="0" y="0" width="70" height="70"/>
</clipPath>
<g id="surface5" clip-path="url(#clip1)">
<path style=" stroke:none;fill-rule:nonzero;fill:rgb(90.196078%,90.196078%,90.196078%);fill-opacity:1;" d="M 40.054688 42.910156 L 19.328125 42 C 7.730469 41.917969 -1.605469 32.445313 -1.519531 20.847656 C -1.4375 9.25 8.03125 -0.0820313 19.632813 0 L 40.863281 62.222656 C 23.683594 68.085938 5 58.910156 -0.863281 41.726563 C -6.726563 24.546875 2.449219 5.863281 19.632813 0 L 19.632813 -16.753906 C 24.257813 -16.335938 27.667969 -12.246094 27.25 -7.621094 C 26.832031 -2.992188 22.746094 0.417969 18.117188 0 Z M 40.054688 42.910156 "/>
</g>
<mask id="mask1">
  <g filter="url(#alpha)">
<rect x="0" y="0" width="70" height="70" style="fill:rgb(0%,0%,0%);fill-opacity:0.2;stroke:none;"/>
  </g>
</mask>
<clipPath id="clip2">
  <rect x="0" y="0" width="70" height="70"/>
</clipPath>
<g id="surface8" clip-path="url(#clip2)">
<path style=" stroke:none;fill-rule:nonzero;fill:rgb(70.196078%,70.196078%,70.196078%);fill-opacity:1;" d="M 19.347656 42 L 40.066406 42.910156 C 28.21875 53.972656 9.644531 53.335938 -1.421875 41.488281 C -12.484375 29.640625 -11.847656 11.0625 0 0 L -22.246094 16.488281 C -26.796875 16.78125 -30.726563 13.324219 -31.015625 8.769531 C -31.308594 4.21875 -27.851563 0.292969 -23.296875 0 L -23.296875 -15.4375 C -19.035156 -15.4375 -15.578125 -11.984375 -15.578125 -7.71875 C -15.578125 -3.457031 -19.035156 0 -23.296875 0 Z M 19.347656 42 "/>
</g>
</defs>
<g id="surface1">
<path style=" stroke:none;fill-rule:nonzero;fill:rgb(31.372549%,90.196078%,100%);fill-opacity:1;" d="M 59.816406 17.613281 L 55.640625 17.613281 L 55.640625 69.40625 L 59.816406 61.628906 Z M 59.816406 17.613281 "/>
<path style=" stroke:none;fill-rule:nonzero;fill:rgb(61.176471%,92.156863%,100%);fill-opacity:1;" d="M 59.847656 61.5625 L 59.816406 61.621094 L 55.640625 69.398438 L 59.816406 66.179688 L 64.816406 62.328125 Z M 59.847656 61.5625 "/>
<path style=" stroke:none;fill-rule:nonzero;fill:rgb(63.921569%,63.921569%,63.921569%);fill-opacity:1;" d="M 33.265625 9.902344 C 30.53125 19.085938 20.867188 24.316406 11.683594 21.582031 C 2.496094 18.847656 -2.734375 9.1875 0 0 L 0 7.707031 L 3.164063 7.707031 L 3.164063 9.902344 C 3.167969 15.078125 -0.960938 19.308594 -6.136719 19.4375 L -6.136719 27.144531 L -2.980469 27.144531 Z M 33.265625 9.902344 "/>
<path style=" stroke:none;fill-rule:nonzero;fill:rgb(46.27451%,46.27451%,46.27451%);fill-opacity:1;" d="M 23.582031 9.902344 C 20.847656 16.414063 13.351563 19.476563 6.839844 16.742188 C 0.328125 14.007813 -2.734375 6.511719 0 0 L 0 7.707031 L 3.152344 7.707031 L 3.152344 9.902344 C 2.035156 13.972656 -1.625 16.820313 -5.84375 16.90625 C -10.066406 16.992188 -13.839844 14.289063 -15.121094 10.269531 C -16.398438 6.246094 -14.882813 1.863281 -11.394531 -0.507813 C -7.902344 -2.878906 -3.265625 -2.671875 0 0 C 2.890625 -1.617188 6.410156 -1.617188 9.300781 0 L 9.300781 7.707031 L 12.460938 7.707031 Z M 23.582031 9.902344 "/>
<path style=" stroke:none;fill-rule:nonzero;fill:url(#linear0);" d="M 55.640625 17.613281 L 55.640625 69.40625 L 5.183594 65.410156 L 6.710938 17.613281 Z M 55.640625 17.613281 "/>
<path style=" stroke:none;fill-rule:nonzero;fill:rgb(19.607843%,74.509804%,86.666667%);fill-opacity:1;" d="M 59.816406 17.613281 L 59.816406 61.621094 L 64.816406 62.335938 L 63.289063 17.613281 Z M 59.816406 17.613281 "/>
<path style=" stroke:none;fill-rule:nonzero;fill:rgb(100%,100%,100%);fill-opacity:1;" d="M 40 42.910156 L 38.25 42.832031 L 38.25 36.445313 C 28.1875 38.691406 18.207031 32.351563 15.964844 22.289063 C 13.71875 12.222656 20.058594 2.246094 30.125 0 C 31.238281 -0.253906 32.394531 -0.253906 33.511719 0 L 33.511719 6 L 32.226563 5.941406 C 30.585938 5.585938 29.542969 3.96875 29.898438 2.328125 C 30.253906 0.6875 31.875 -0.355469 33.515625 0 L 33.554688 15.980469 C 29.140625 15.988281 25.554688 12.421875 25.542969 8.007813 C 25.535156 3.597656 29.101563 0.0117188 33.515625 0 L 54.167969 1.660156 C 53.710938 7.363281 48.714844 11.617188 43.011719 11.15625 C 37.308594 10.699219 33.054688 5.703125 33.515625 0 L 33.515625 44.410156 C 21.25 44.824219 10.972656 35.21875 10.558594 22.957031 C 10.144531 10.691406 19.75 0.414063 32.011719 0 Z M 33.957031 42.640625 L 24.5 42.226563 L 24.5 36.042969 C 23.339844 32.996094 24.460938 29.554688 27.195313 27.785156 C 29.929688 26.011719 33.53125 26.390625 35.835938 28.695313 C 38.140625 31 38.519531 34.601563 36.75 37.335938 C 34.976563 40.070313 31.535156 41.195313 28.488281 40.03125 L 28.488281 47.164063 C 29.265625 48.265625 29.640625 51.144531 29.371094 53.957031 Z M 33.957031 42.640625 "/>
<use xlink:href="#surface5" mask="url(#mask0)"/>
<use xlink:href="#surface8" mask="url(#mask1)"/>
</g>
</svg>
