<?xml version="1.0" encoding="UTF-8"?>
<svg xmlns="http://www.w3.org/2000/svg" xmlns:xlink="http://www.w3.org/1999/xlink" width="70pt" height="70pt" viewBox="0 0 70 70" version="1.1">
<defs>
<linearGradient id="linear0" gradientUnits="userSpaceOnUse" x1="8.59" y1="-7.79" x2="9.12" y2="20.05" gradientTransform="matrix(3.888889,0,0,3.888889,0,0)">
<stop offset="0.22" style="stop-color:rgb(19.607843%,83.137255%,96.078431%);stop-opacity:1;"/>
<stop offset="0.47" style="stop-color:rgb(19.215686%,81.960784%,95.294118%);stop-opacity:1;"/>
<stop offset="0.63" style="stop-color:rgb(18.039216%,78.823529%,92.156863%);stop-opacity:1;"/>
<stop offset="0.77" style="stop-color:rgb(16.078431%,72.941176%,87.058824%);stop-opacity:1;"/>
<stop offset="0.89" style="stop-color:rgb(13.333333%,64.705882%,79.607843%);stop-opacity:1;"/>
<stop offset="1" style="stop-color:rgb(9.803922%,54.117647%,70.196078%);stop-opacity:1;"/>
<stop offset="1" style="stop-color:rgb(9.803922%,54.117647%,70.196078%);stop-opacity:1;"/>
</linearGradient>
<filter id="alpha" filterUnits="objectBoundingBox" x="0%" y="0%" width="100%" height="100%">
  <feColorMatrix type="matrix" in="SourceGraphic" values="0 0 0 0 1 0 0 0 0 1 0 0 0 0 1 0 0 0 1 0"/>
</filter>
<mask id="mask0">
  <g filter="url(#alpha)">
<rect x="0" y="0" width="70" height="70" style="fill:rgb(0%,0%,0%);fill-opacity:0.2;stroke:none;"/>
  </g>
</mask>
<clipPath id="clip1">
  <rect x="0" y="0" width="70" height="70"/>
</clipPath>
<g id="surface5" clip-path="url(#clip1)">
<path style=" stroke:none;fill-rule:nonzero;fill:rgb(100%,100%,100%);fill-opacity:1;" d="M 11.433594 33.714844 L 58.722656 33.714844 C 49.410156 49.933594 28.71875 55.53125 12.503906 46.21875 C -3.714844 36.910156 -9.3125 16.214844 0 0 L -50.789063 35 C -60.453125 35.558594 -68.742188 28.175781 -69.300781 18.511719 C -69.859375 8.847656 -62.476563 0.558594 -52.8125 0 L -52.8125 -31.109375 C -44.21875 -31.109375 -37.253906 -24.148438 -37.253906 -15.554688 C -37.253906 -6.964844 -44.21875 0 -52.8125 0 Z M 11.433594 33.714844 "/>
</g>
</defs>
<g id="surface1">
<path style=" stroke:none;fill-rule:nonzero;fill:url(#linear0);" d="M 58.566406 33.714844 L 54.679688 33.714844 L 54.679688 21.738281 C 45.425781 18.558594 39.273438 9.78125 39.433594 0 C 46.527344 5.007813 49.21875 14.25 45.929688 22.285156 L 45.929688 34.261719 L 42.777344 34.261719 C 39.46875 33.519531 37.390625 30.238281 38.128906 26.929688 C 38.871094 23.621094 42.152344 21.542969 45.460938 22.285156 L 45.460938 53.394531 C 36.871094 53.394531 29.90625 46.429688 29.90625 37.839844 C 29.90625 29.246094 36.871094 22.285156 45.460938 22.285156 L 92.710938 22.285156 C 92.710938 35.332031 82.132813 45.910156 69.085938 45.910156 C 56.039063 45.910156 45.460938 35.332031 45.460938 22.285156 L 45.460938 -8.828125 C 54.050781 -8.085938 60.414063 -0.523438 59.675781 8.070313 C 58.933594 16.660156 51.367188 23.023438 42.777344 22.285156 Z M 45.460938 33.714844 L 23.839844 33.714844 L 23.839844 21.542969 C 19.828125 16.367188 20.554688 8.957031 25.488281 4.65625 C 30.425781 0.351563 37.863281 0.640625 42.449219 5.316406 C 47.035156 9.992188 47.179688 17.433594 42.777344 22.285156 C 42.84375 16.921875 47.21875 12.617188 52.578125 12.640625 C 57.9375 12.660156 62.277344 17 62.300781 22.363281 C 62.320313 27.722656 58.015625 32.097656 52.65625 32.160156 L 52.65625 37.292969 C 53.3125 24.515625 55.332031 14.160156 57.167969 14.160156 C 59.003906 14.160156 59.960938 24.515625 59.304688 37.292969 Z M 45.460938 33.714844 "/>
<path style=" stroke:none;fill-rule:nonzero;fill:rgb(31.372549%,90.196078%,100%);fill-opacity:1;" d="M 58.683594 33.714844 L 11.355469 33.714844 C 2.046875 33.535156 -5.355469 25.839844 -5.171875 16.527344 C -4.988281 7.21875 2.707031 -0.183594 12.015625 0 L 62.765625 35 C 53.101563 49.015625 33.90625 52.539063 19.890625 42.875 C 5.878906 33.210938 2.351563 14.015625 12.015625 0 L 12.015625 -31.109375 C 20.609375 -30.414063 27.007813 -22.882813 26.308594 -14.292969 C 25.609375 -5.699219 18.078125 0.699219 9.488281 0 Z M 58.683594 33.714844 "/>
<use xlink:href="#surface5" mask="url(#mask0)"/>
<path style=" stroke:none;fill-rule:nonzero;fill:rgb(100%,100%,100%);fill-opacity:1;" d="M 30.332031 41.222656 L 35 36.554688 C 45.09375 26.890625 45.441406 10.871094 35.777344 0.777344 C 26.113281 -9.316406 10.09375 -9.664063 0 0 L 4.628906 4.667969 C 3.339844 5.945313 1.257813 5.9375 -0.0195313 4.648438 C -1.296875 3.359375 -1.289063 1.277344 0 0 L -2.722656 0 C -2.648438 -0.0429688 -2.5625 -0.0429688 -2.488281 0 L -2.488281 5.988281 C -4.144531 5.925781 -5.429688 4.53125 -5.367188 2.878906 C -5.300781 1.222656 -3.910156 -0.0625 -2.253906 0 L -5.328125 0 C -5.261719 0.0507813 -5.234375 0.136719 -5.261719 0.21875 C -5.285156 0.296875 -5.359375 0.351563 -5.445313 0.351563 C -5.527344 0.351563 -5.601563 0.296875 -5.628906 0.21875 C -5.65625 0.136719 -5.628906 0.0507813 -5.5625 0 L -5.5625 -5.988281 C -3.90625 -5.925781 -2.617188 -4.53125 -2.683594 -2.878906 C -2.746094 -1.222656 -4.140625 0.0625 -5.792969 0 L -8.515625 0 C -8.453125 0.0976563 -8.46875 0.226563 -8.558594 0.304688 C -8.644531 0.382813 -8.777344 0.382813 -8.863281 0.304688 C -8.953125 0.226563 -8.96875 0.0976563 -8.90625 0 Z M 39.9375 62.535156 L 35.3125 67.160156 C 16.765625 67.160156 1.730469 52.125 1.730469 33.582031 C 1.730469 15.035156 16.765625 0 35.3125 0 L 30.332031 62.535156 C 13.066406 61.160156 0.179688 46.046875 1.554688 28.777344 C 2.929688 11.507813 18.042969 -1.375 35.3125 0 L 38.035156 0 C 38.035156 0.75 37.425781 1.359375 36.671875 1.359375 C 35.921875 1.359375 35.3125 0.75 35.3125 0 L 35.3125 -6.027344 C 36.976563 -6.027344 38.324219 -4.679688 38.324219 -3.015625 C 38.324219 -1.347656 36.976563 0 35.3125 0 L 38.1875 0 C 38.1875 0.792969 37.542969 1.4375 36.75 1.4375 C 35.957031 1.4375 35.3125 0.792969 35.3125 0 L 35.3125 6.027344 C 33.648438 6.027344 32.296875 4.679688 32.296875 3.015625 C 32.296875 1.347656 33.648438 0 35.3125 0 L 38.035156 0 C 38.035156 0.75 37.425781 1.359375 36.671875 1.359375 C 35.921875 1.359375 35.3125 0.75 35.3125 0 Z M 21.660156 56.503906 L 21.660156 53.785156 C 6.808594 53.847656 -5.28125 41.859375 -5.347656 27.007813 C -5.410156 12.15625 6.574219 0.0625 21.429688 0 L 15.554688 0 C 15.648438 0.0546875 15.691406 0.160156 15.664063 0.261719 C 15.636719 0.363281 15.542969 0.433594 15.4375 0.433594 C 15.332031 0.433594 15.242188 0.363281 15.214844 0.261719 C 15.1875 0.160156 15.230469 0.0546875 15.320313 0 L 15.320313 50.554688 C 1.363281 50.554688 -9.957031 39.238281 -9.957031 25.277344 C -9.957031 11.316406 1.363281 0 15.320313 0 L 21.195313 0 C 21.195313 1.621094 19.878906 2.9375 18.257813 2.9375 C 16.636719 2.9375 15.320313 1.621094 15.320313 0 L 15.320313 -2.722656 C 16.074219 -2.722656 16.683594 -2.113281 16.683594 -1.359375 C 16.683594 -0.609375 16.074219 0 15.320313 0 L 19.949219 4.667969 C 18.660156 5.945313 16.582031 5.9375 15.304688 4.648438 C 14.023438 3.359375 14.035156 1.277344 15.320313 0 L 10.695313 4.667969 C 9.40625 4.71875 8.316406 3.71875 8.265625 2.429688 C 8.210938 1.140625 9.210938 0.0546875 10.5 0 Z M 48.609375 47.25 L 48.609375 49.972656 C 34.8125 60.496094 15.09375 57.839844 4.570313 44.042969 C -5.953125 30.242188 -3.300781 10.523438 10.5 0 L 16.488281 0 C 16.488281 0 16.761719 0 16.761719 0.234375 L 16.761719 3.109375 C 15.902344 3.046875 15.257813 2.296875 15.320313 1.4375 C 15.386719 0.578125 16.136719 -0.0625 16.996094 0 L 11.003906 0 C 11.078125 -0.0429688 11.167969 -0.0429688 11.238281 0 L 11.238281 2.722656 C 10.488281 2.667969 9.921875 2.015625 9.976563 1.265625 C 10.027344 0.511719 10.679688 -0.0546875 11.433594 0 L 6.804688 -4.667969 L 6.804688 -4.976563 L 11.433594 -9.644531 C 11.433594 -9.644531 11.820313 -9.683594 11.820313 -9.449219 Z M 48.609375 47.25 "/>
</g>
</svg>
