<?xml version="1.0" encoding="UTF-8"?>
<svg xmlns="http://www.w3.org/2000/svg" xmlns:xlink="http://www.w3.org/1999/xlink" width="70pt" height="70pt" viewBox="0 0 70 70" version="1.1">
<defs>
<linearGradient id="linear0" gradientUnits="userSpaceOnUse" x1="7.89" y1="6.9" x2="7.89" y2="19.35" gradientTransform="matrix(3.888889,0,0,3.888889,0,0)">
<stop offset="0.22" style="stop-color:rgb(19.607843%,83.137255%,96.078431%);stop-opacity:1;"/>
<stop offset="1" style="stop-color:rgb(9.803922%,54.117647%,70.196078%);stop-opacity:1;"/>
</linearGradient>
<filter id="alpha" filterUnits="objectBoundingBox" x="0%" y="0%" width="100%" height="100%">
  <feColorMatrix type="matrix" in="SourceGraphic" values="0 0 0 0 1 0 0 0 0 1 0 0 0 0 1 0 0 0 1 0"/>
</filter>
<mask id="mask0">
  <g filter="url(#alpha)">
<rect x="0" y="0" width="70" height="70" style="fill:rgb(0%,0%,0%);fill-opacity:0.8;stroke:none;"/>
  </g>
</mask>
<clipPath id="clip1">
  <rect x="0" y="0" width="70" height="70"/>
</clipPath>
<g id="surface5" clip-path="url(#clip1)">
<path style=" stroke:none;fill-rule:nonzero;fill:rgb(100%,100%,100%);fill-opacity:1;" d="M 30.722656 35 C 21.058594 35.71875 12.640625 28.46875 11.917969 18.804688 C 11.199219 9.136719 18.453125 0.71875 28.117188 0 L 36.867188 22.90625 L 45.578125 0.15625 C 51.613281 4.089844 54.332031 11.53125 52.25 18.429688 C 50.167969 25.328125 43.785156 30.023438 36.582031 29.957031 C 29.375 29.894531 23.078125 25.085938 21.121094 18.152344 C 19.160156 11.21875 22.011719 3.824219 28.117188 0 Z M 30.722656 35 "/>
</g>
<linearGradient id="linear1" gradientUnits="userSpaceOnUse" x1="7.53" y1="0.22" x2="8.44" y2="11.53" gradientTransform="matrix(3.888889,0,0,3.888889,0,0)">
<stop offset="0.22" style="stop-color:rgb(19.607843%,83.137255%,96.078431%);stop-opacity:1;"/>
<stop offset="1" style="stop-color:rgb(9.803922%,54.117647%,70.196078%);stop-opacity:1;"/>
</linearGradient>
<radialGradient id="radial0" gradientUnits="userSpaceOnUse" cx="-19.24" cy="6.51" fx="-19.24" fy="6.51" r="6.13" gradientTransform="matrix(3.655556,0,0,3.655556,124.561111,24.344444)">
<stop offset="0.27" style="stop-color:rgb(100%,84.313725%,5.882353%);stop-opacity:1;"/>
<stop offset="1" style="stop-color:rgb(99.607843%,63.137255%,10.588235%);stop-opacity:1;"/>
</radialGradient>
<mask id="mask1">
  <g filter="url(#alpha)">
<rect x="0" y="0" width="70" height="70" style="fill:rgb(0%,0%,0%);fill-opacity:0.74902;stroke:none;"/>
  </g>
</mask>
<clipPath id="clip2">
  <rect x="0" y="0" width="70" height="70"/>
</clipPath>
<g id="surface8" clip-path="url(#clip2)">
<path style=" stroke:none;fill-rule:nonzero;fill:rgb(100%,57.647059%,0%);fill-opacity:1;" d="M 54.445313 63.699219 C 36.855469 78.734375 10.40625 76.664063 -4.628906 59.070313 C -19.664063 41.480469 -17.589844 15.035156 0 0 L 0 -9.527344 C -0.03125 -9.253906 -0.234375 -9.035156 -0.503906 -8.984375 L -0.503906 0.582031 C -3.148438 0.582031 -5.289063 -1.558594 -5.289063 -4.199219 C -5.289063 -6.839844 -3.148438 -8.984375 -0.503906 -8.984375 Z M 54.445313 63.699219 "/>
</g>
<mask id="mask2">
  <g filter="url(#alpha)">
<rect x="0" y="0" width="70" height="70" style="fill:rgb(0%,0%,0%);fill-opacity:0.74902;stroke:none;"/>
  </g>
</mask>
<clipPath id="clip3">
  <rect x="0" y="0" width="70" height="70"/>
</clipPath>
<g id="surface11" clip-path="url(#clip3)">
<path style=" stroke:none;fill-rule:nonzero;fill:rgb(100%,57.647059%,0%);fill-opacity:1;" d="M 50.394531 41.515625 L 50.398438 41.359375 C 50.398438 40.992188 50.695313 40.699219 51.0625 40.703125 L 62.222656 40.769531 C 62.589844 40.773438 62.882813 41.070313 62.878906 41.433594 L 62.878906 41.589844 C 62.875 41.957031 62.578125 42.25 62.214844 42.246094 L 51.054688 42.179688 C 50.6875 42.175781 50.394531 41.878906 50.394531 41.515625 Z M 50.394531 41.515625 "/>
</g>
<mask id="mask3">
  <g filter="url(#alpha)">
<rect x="0" y="0" width="70" height="70" style="fill:rgb(0%,0%,0%);fill-opacity:0.74902;stroke:none;"/>
  </g>
</mask>
<clipPath id="clip4">
  <rect x="0" y="0" width="70" height="70"/>
</clipPath>
<g id="surface14" clip-path="url(#clip4)">
<path style=" stroke:none;fill-rule:nonzero;fill:rgb(100%,57.647059%,0%);fill-opacity:1;" d="M 50.355469 43.941406 L 50.359375 43.785156 C 50.359375 43.421875 50.65625 43.125 51.023438 43.128906 L 62.183594 43.195313 C 62.550781 43.199219 62.84375 43.496094 62.839844 43.863281 L 62.839844 44.015625 C 62.835938 44.382813 62.539063 44.675781 62.175781 44.675781 L 51.015625 44.605469 C 50.648438 44.605469 50.355469 44.304688 50.355469 43.941406 Z M 50.355469 43.941406 "/>
</g>
</defs>
<g id="surface1">
<path style=" stroke:none;fill-rule:nonzero;fill:url(#linear0);" d="M 54.640625 66.539063 C 53.816406 64.242188 54.695313 61.683594 56.757813 60.378906 C 58.816406 59.074219 61.503906 59.375 63.230469 61.097656 C 64.953125 62.820313 65.253906 65.511719 63.949219 67.570313 C 62.644531 69.628906 60.085938 70.511719 57.789063 69.6875 C 57.789063 44.410156 48.496094 31.109375 30.722656 31.109375 C 12.949219 31.109375 3.34375 42.390625 1.554688 60.785156 C 4.015625 52.621094 12.625 48 20.785156 50.457031 C 28.949219 52.917969 33.570313 61.527344 31.109375 69.6875 L 79.566406 69.6875 Z M 54.640625 66.539063 "/>
<use xlink:href="#surface5" mask="url(#mask0)"/>
<path style=" stroke:none;fill-rule:nonzero;fill:url(#linear1);" d="M 47.09375 18.667969 C 47.09375 27.707031 39.765625 35.039063 30.722656 35.039063 C 21.679688 35.039063 14.351563 27.707031 14.351563 18.667969 C 14.351563 9.625 21.679688 2.292969 30.722656 2.292969 C 39.765625 2.292969 47.09375 9.625 47.09375 18.667969 Z M 47.09375 18.667969 "/>
<path style=" stroke:none;fill-rule:nonzero;fill:url(#radial0);" d="M 67.160156 44.527344 C 54.863281 63.074219 29.863281 68.140625 11.316406 55.84375 C -7.230469 43.546875 -12.296875 18.546875 0 0 L -7.542969 -7.777344 C -6.078125 -7.039063 -5.148438 -5.53125 -5.148438 -3.890625 C -5.148438 -2.246094 -6.078125 -0.742188 -7.542969 0 L -15.320313 7.542969 C -17.40625 5.398438 -17.351563 1.964844 -15.207031 -0.117188 C -13.058594 -2.199219 -9.628906 -2.148438 -7.542969 0 L -1.285156 6.378906 C -3.042969 8.105469 -5.875 8.082031 -7.601563 6.320313 C -9.332031 4.558594 -9.304688 1.730469 -7.542969 0 L -7.542969 11.667969 C -10.765625 11.667969 -13.378906 9.054688 -13.378906 5.832031 C -13.378906 2.613281 -10.765625 0 -7.542969 0 L -4.707031 2.917969 C -3.898438 2.132813 -3.882813 0.84375 -4.667969 0.0390625 C -5.449219 -0.765625 -6.738281 -0.785156 -7.542969 0 L -4.746094 -2.800781 L -3.109375 -4.472656 C -1.875 -3.246094 -1.867188 -1.253906 -3.089844 -0.0195313 C -4.316406 1.214844 -6.308594 1.222656 -7.542969 0 L -8.75 -1.207031 C -8.417969 -1.539063 -7.878906 -1.539063 -7.542969 -1.207031 C -7.210938 -0.871094 -7.210938 -0.332031 -7.542969 0 L -6.339844 -1.207031 C -6.007813 -0.871094 -6.007813 -0.332031 -6.339844 0 C -6.671875 0.332031 -7.210938 0.332031 -7.542969 0 L -8.710938 -1.207031 C -8.378906 -1.527344 -7.847656 -1.519531 -7.523438 -1.1875 C -7.203125 -0.851563 -7.210938 -0.320313 -7.542969 0 L -6.339844 -1.207031 C -6.007813 -0.871094 -6.007813 -0.332031 -6.339844 0 C -6.671875 0.332031 -7.210938 0.332031 -7.542969 0 L -9.179688 -1.671875 L -9.179688 -2.101563 Z M 56.542969 32.433594 C 56.496094 31.375 57.105469 30.398438 58.074219 29.96875 C 59.042969 29.542969 60.175781 29.753906 60.921875 30.503906 C 61.671875 31.253906 61.882813 32.386719 61.457031 33.355469 C 61.03125 34.324219 60.050781 34.929688 58.996094 34.882813 L 61.523438 34.882813 Z M 56.542969 32.433594 "/>
<use xlink:href="#surface8" mask="url(#mask1)"/>
<use xlink:href="#surface11" mask="url(#mask2)"/>
<use xlink:href="#surface14" mask="url(#mask3)"/>
</g>
</svg>
