<?xml version="1.0" encoding="UTF-8"?>
<svg xmlns="http://www.w3.org/2000/svg" xmlns:xlink="http://www.w3.org/1999/xlink" width="70pt" height="70pt" viewBox="0 0 70 70" version="1.1">
<defs>
<linearGradient id="linear0" gradientUnits="userSpaceOnUse" x1="13.18" y1="13.01" x2="8.63" y2="4.38" gradientTransform="matrix(3.888889,0,0,3.888889,0,0)">
<stop offset="0" style="stop-color:rgb(9.803922%,53.333333%,85.098039%);stop-opacity:1;"/>
<stop offset="0.9" style="stop-color:rgb(32.941176%,68.235294%,94.117647%);stop-opacity:1;"/>
</linearGradient>
<linearGradient id="linear1" gradientUnits="userSpaceOnUse" x1="11.22" y1="10.5" x2="14.37" y2="15.93" gradientTransform="matrix(3.888889,0,0,3.888889,0,0)">
<stop offset="0.1" style="stop-color:rgb(32.941176%,68.235294%,94.117647%);stop-opacity:1;"/>
<stop offset="0.29" style="stop-color:rgb(30.980392%,67.058824%,93.333333%);stop-opacity:1;"/>
<stop offset="0.51" style="stop-color:rgb(25.490196%,63.529412%,91.372549%);stop-opacity:1;"/>
<stop offset="0.74" style="stop-color:rgb(16.470588%,57.647059%,87.843137%);stop-opacity:1;"/>
<stop offset="0.88" style="stop-color:rgb(9.803922%,53.333333%,85.098039%);stop-opacity:1;"/>
</linearGradient>
<filter id="alpha" filterUnits="objectBoundingBox" x="0%" y="0%" width="100%" height="100%">
  <feColorMatrix type="matrix" in="SourceGraphic" values="0 0 0 0 1 0 0 0 0 1 0 0 0 0 1 0 0 0 1 0"/>
</filter>
<mask id="mask0">
  <g filter="url(#alpha)">
<rect x="0" y="0" width="70" height="70" style="fill:rgb(0%,0%,0%);fill-opacity:0.74902;stroke:none;"/>
  </g>
</mask>
<clipPath id="clip1">
  <rect x="0" y="0" width="70" height="70"/>
</clipPath>
<g id="surface5" clip-path="url(#clip1)">
<path style=" stroke:none;fill-rule:nonzero;fill:rgb(100%,57.647059%,0%);fill-opacity:1;" d="M 50.554688 66.109375 C 32.300781 80.070313 6.183594 76.589844 -7.777344 58.332031 C -21.738281 40.078125 -18.257813 13.960938 0 0 L 0 -9.957031 C -0.03125 -9.683594 -0.234375 -9.460938 -0.503906 -9.410156 L -0.503906 0.351563 C -3.199219 0.351563 -5.386719 -1.835938 -5.386719 -4.53125 C -5.386719 -7.226563 -3.199219 -9.410156 -0.503906 -9.410156 Z M 50.554688 66.109375 "/>
</g>
<mask id="mask1">
  <g filter="url(#alpha)">
<rect x="0" y="0" width="70" height="70" style="fill:rgb(0%,0%,0%);fill-opacity:0.74902;stroke:none;"/>
  </g>
</mask>
<clipPath id="clip2">
  <rect x="0" y="0" width="70" height="70"/>
</clipPath>
<g id="surface8" clip-path="url(#clip2)">
<path style=" stroke:none;fill-rule:nonzero;fill:rgb(100%,57.647059%,0%);fill-opacity:1;" d="M 46.976563 42.390625 L 58.371094 42.390625 C 58.757813 42.390625 59.070313 42.703125 59.070313 43.089844 L 59.070313 43.207031 C 59.070313 43.59375 58.757813 43.90625 58.371094 43.90625 L 46.976563 43.90625 C 46.589844 43.90625 46.277344 43.59375 46.277344 43.207031 L 46.277344 43.089844 C 46.277344 42.703125 46.589844 42.390625 46.976563 42.390625 Z M 46.976563 42.390625 "/>
</g>
<mask id="mask2">
  <g filter="url(#alpha)">
<rect x="0" y="0" width="70" height="70" style="fill:rgb(0%,0%,0%);fill-opacity:0.74902;stroke:none;"/>
  </g>
</mask>
<clipPath id="clip3">
  <rect x="0" y="0" width="70" height="70"/>
</clipPath>
<g id="surface11" clip-path="url(#clip3)">
<path style=" stroke:none;fill-rule:nonzero;fill:rgb(100%,57.647059%,0%);fill-opacity:1;" d="M 46.976563 44.839844 L 58.371094 44.839844 C 58.757813 44.839844 59.070313 45.152344 59.070313 45.539063 L 59.070313 45.65625 C 59.070313 46.042969 58.757813 46.355469 58.371094 46.355469 L 46.976563 46.355469 C 46.589844 46.355469 46.277344 46.042969 46.277344 45.65625 L 46.277344 45.539063 C 46.277344 45.152344 46.589844 44.839844 46.976563 44.839844 Z M 46.976563 44.839844 "/>
</g>
</defs>
<g id="surface1">
<path style=" stroke:none;fill-rule:nonzero;fill:rgb(31.372549%,90.196078%,100%);fill-opacity:1;" d="M 4.472656 39.746094 L 34.726563 59.382813 L 65.527344 39.707031 L 69.417969 44.179688 L 34.726563 66.539063 L 0.582031 44.214844 Z M 4.472656 39.746094 "/>
<path style=" stroke:none;fill-rule:nonzero;fill:rgb(100%,100%,100%);fill-opacity:1;" d="M 6.726563 37.253906 L 34.726563 3.890625 L 63.3125 37.292969 L 34.726563 55.339844 Z M 6.726563 37.253906 "/>
<path style=" stroke:none;fill-rule:nonzero;fill:rgb(31.372549%,90.196078%,100%);fill-opacity:1;" d="M 34.726563 3.890625 L 34.726563 55.339844 L 6.726563 37.253906 Z M 34.726563 3.890625 "/>
<path style=" stroke:none;fill-rule:nonzero;fill:url(#linear0);" d="M 34.726563 3.890625 L 34.726563 55.339844 L 63.3125 37.292969 Z M 34.726563 3.890625 "/>
<path style=" stroke:none;fill-rule:nonzero;fill:rgb(32.54902%,69.411765%,87.843137%);fill-opacity:1;" d="M 34.726563 30.449219 L 63.3125 37.292969 L 34.726563 55.339844 Z M 34.726563 30.449219 "/>
<path style=" stroke:none;fill-rule:nonzero;fill:rgb(61.176471%,92.156863%,100%);fill-opacity:1;" d="M 34.726563 55.339844 L 6.726563 37.253906 L 34.726563 30.449219 Z M 34.726563 55.339844 "/>
<path style=" stroke:none;fill-rule:nonzero;fill:url(#linear1);" d="M 34.726563 66.539063 L 69.417969 44.179688 L 65.527344 39.707031 L 34.726563 59.382813 Z M 34.726563 66.539063 "/>
<path style=" stroke:none;fill-rule:nonzero;fill:rgb(100%,79.215686%,0%);fill-opacity:1;" d="M 63.464844 46.199219 C 50.707031 63.726563 26.160156 67.589844 8.632813 54.832031 C -8.890625 42.074219 -12.757813 17.527344 0 0 L -7.777344 -7.777344 C -6.398438 -6.96875 -5.554688 -5.488281 -5.554688 -3.890625 C -5.554688 -2.289063 -6.398438 -0.808594 -7.777344 0 L -15.554688 7.777344 C -17.703125 5.628906 -17.703125 2.148438 -15.554688 0 C -13.40625 -2.148438 -9.925781 -2.148438 -7.777344 0 L -1.285156 6.496094 C -3.078125 8.289063 -5.984375 8.289063 -7.777344 6.496094 C -9.570313 4.699219 -9.570313 1.792969 -7.777344 0 L -7.777344 12.054688 C -11.105469 12.054688 -13.804688 9.355469 -13.804688 6.027344 C -13.804688 2.699219 -11.105469 0 -7.777344 0 L -4.820313 2.957031 C -4.007813 2.140625 -4.007813 0.816406 -4.820313 0 C -5.636719 -0.816406 -6.960938 -0.816406 -7.777344 0 L -3.226563 -4.550781 C -1.972656 -3.292969 -1.972656 -1.257813 -3.226563 0 C -4.484375 1.257813 -6.519531 1.257813 -7.777344 0 L -8.984375 -1.207031 C -8.652344 -1.539063 -8.109375 -1.539063 -7.777344 -1.207031 C -7.445313 -0.871094 -7.445313 -0.332031 -7.777344 0 L -6.570313 -1.207031 C -6.238281 -0.871094 -6.238281 -0.332031 -6.570313 0 C -6.90625 0.332031 -7.445313 0.332031 -7.777344 0 L -8.984375 -1.207031 C -8.652344 -1.539063 -8.109375 -1.539063 -7.777344 -1.207031 C -7.445313 -0.871094 -7.445313 -0.332031 -7.777344 0 L -6.570313 -1.246094 C -6.230469 -0.910156 -6.21875 -0.363281 -6.554688 -0.0195313 C -6.886719 0.324219 -7.433594 0.332031 -7.777344 0 L -9.488281 -1.710938 L -9.488281 -2.332031 Z M 52.5 33.871094 C 52.5 32.453125 53.648438 31.304688 55.066406 31.304688 C 56.484375 31.304688 57.632813 32.453125 57.632813 33.871094 C 57.632813 35.289063 56.484375 36.4375 55.066406 36.4375 Z M 52.5 33.871094 "/>
<use xlink:href="#surface5" mask="url(#mask0)"/>
<use xlink:href="#surface8" mask="url(#mask1)"/>
<use xlink:href="#surface11" mask="url(#mask2)"/>
</g>
</svg>
