<?xml version="1.0" encoding="UTF-8"?>
<svg xmlns="http://www.w3.org/2000/svg" xmlns:xlink="http://www.w3.org/1999/xlink" width="70pt" height="70pt" viewBox="0 0 70 70" version="1.1">
<defs>
<linearGradient id="linear0" gradientUnits="userSpaceOnUse" x1="9.13" y1="18.81" x2="8.85" y2="-8.1" gradientTransform="matrix(3.888889,0,0,3.888889,0,0)">
<stop offset="0" style="stop-color:rgb(9.803922%,54.117647%,70.196078%);stop-opacity:1;"/>
<stop offset="0" style="stop-color:rgb(9.803922%,54.117647%,70.196078%);stop-opacity:1;"/>
<stop offset="0.09" style="stop-color:rgb(13.333333%,64.705882%,79.607843%);stop-opacity:1;"/>
<stop offset="0.19" style="stop-color:rgb(16.078431%,72.941176%,87.058824%);stop-opacity:1;"/>
<stop offset="0.29" style="stop-color:rgb(18.039216%,78.823529%,92.156863%);stop-opacity:1;"/>
<stop offset="0.42" style="stop-color:rgb(19.215686%,81.960784%,95.294118%);stop-opacity:1;"/>
<stop offset="0.62" style="stop-color:rgb(19.607843%,83.137255%,96.078431%);stop-opacity:1;"/>
</linearGradient>
</defs>
<g id="surface1">
<path style=" stroke:none;fill-rule:nonzero;fill:rgb(100%,100%,100%);fill-opacity:1;" d="M 51.996094 32.820313 C 51.996094 37.054688 48.5625 40.484375 44.332031 40.484375 C 40.101563 40.484375 36.671875 37.054688 36.671875 32.820313 C 36.671875 28.589844 40.101563 25.160156 44.332031 25.160156 C 48.5625 25.160156 51.996094 28.589844 51.996094 32.820313 Z M 51.996094 32.820313 "/>
<path style=" stroke:none;fill-rule:nonzero;fill:rgb(100%,100%,100%);fill-opacity:1;" d="M 63.195313 55.609375 C 63.195313 58.941406 60.496094 61.640625 57.167969 61.640625 C 53.835938 61.640625 51.140625 58.941406 51.140625 55.609375 C 51.140625 52.28125 53.835938 49.582031 57.167969 49.582031 C 60.496094 49.582031 63.195313 52.28125 63.195313 55.609375 Z M 63.195313 55.609375 "/>
<path style=" stroke:none;fill-rule:nonzero;fill:rgb(100%,100%,100%);fill-opacity:1;" d="M 38.5 51.488281 C 38.5 54.34375 36.183594 56.660156 33.328125 56.660156 C 30.472656 56.660156 28.15625 54.34375 28.15625 51.488281 C 28.15625 48.632813 30.472656 46.316406 33.328125 46.316406 C 36.183594 46.316406 38.5 48.632813 38.5 51.488281 Z M 38.5 51.488281 "/>
<path style=" stroke:none;fill-rule:nonzero;fill:rgb(100%,100%,100%);fill-opacity:1;" d="M 36.011719 12.09375 C 36.011719 15.636719 33.136719 18.511719 29.59375 18.511719 C 26.050781 18.511719 23.179688 15.636719 23.179688 12.09375 C 23.179688 8.550781 26.050781 5.679688 29.59375 5.679688 C 33.136719 5.679688 36.011719 8.550781 36.011719 12.09375 Z M 36.011719 12.09375 "/>
<path style=" stroke:none;fill-rule:nonzero;fill:rgb(100%,100%,100%);fill-opacity:1;" d="M 17.578125 35.738281 C 17.578125 38.59375 15.261719 40.910156 12.40625 40.910156 C 9.550781 40.910156 7.234375 38.59375 7.234375 35.738281 C 7.234375 32.882813 9.550781 30.566406 12.40625 30.566406 C 15.261719 30.566406 17.578125 32.882813 17.578125 35.738281 Z M 17.578125 35.738281 "/>
<path style=" stroke:none;fill-rule:nonzero;fill:rgb(58.039216%,58.039216%,58.039216%);fill-opacity:1;" d="M 58.566406 54.40625 L 45.617188 31.734375 L 44.332031 32.472656 L 45.382813 31.695313 L 30.722656 10.851563 L 28.039063 12.792969 L 41.027344 31.265625 L 12.25 33.640625 L 12.523438 36.984375 L 41.027344 34.609375 L 31.578125 50.320313 L 34.417969 52.035156 L 44.140625 35.855469 L 55.6875 56.039063 Z M 68.171875 4.785156 C 66.851563 23.609375 50.519531 37.796875 31.695313 36.476563 C 12.871094 35.15625 -1.320313 18.824219 0 0 L 50.554688 0 C 50.988281 -0.25 51.523438 -0.25 51.957031 0 L 51.957031 5.484375 C 50.441406 5.484375 49.214844 4.253906 49.214844 2.742188 C 49.214844 1.226563 50.441406 0 51.957031 0 L 61.09375 0 L 61.09375 8.945313 C 58.625 11.46875 54.578125 11.511719 52.054688 9.042969 C 49.527344 6.570313 49.484375 2.523438 51.957031 0 L 57.398438 0 C 57.398438 1.503906 56.179688 2.722656 54.679688 2.722656 C 53.175781 2.722656 51.957031 1.503906 51.957031 0 L 51.957031 -14.390625 Z M 19.445313 59.773438 L 10.148438 59.773438 L 10.148438 50.828125 C -3.886719 51.226563 -15.585938 40.167969 -15.984375 26.132813 C -16.378906 12.097656 -5.324219 0.398438 8.710938 0 L 3.265625 0 C 3.714844 -0.25 4.257813 -0.25 4.707031 0 L 4.707031 14.390625 C 0.730469 14.390625 -2.488281 11.167969 -2.488281 7.195313 C -2.488281 3.222656 0.730469 0 4.707031 0 L 19.445313 0 C 19.445313 4.070313 16.144531 7.371094 12.074219 7.371094 C 8.003906 7.371094 4.707031 4.070313 4.707031 0 L 4.707031 -5.445313 C 6.210938 -5.058594 7.113281 -3.527344 6.726563 -2.023438 C 6.339844 -0.519531 4.808594 0.386719 3.304688 0 Z M 19.445313 59.773438 "/>
<path style=" stroke:none;fill-rule:nonzero;fill:url(#linear0);" d="M 44.332031 25.238281 C 44.335938 22.074219 46.25 19.226563 49.179688 18.035156 C 52.113281 16.84375 55.472656 17.546875 57.679688 19.8125 C 59.886719 22.078125 60.503906 25.453125 59.238281 28.351563 C 57.972656 31.25 55.078125 33.097656 51.917969 33.015625 Z M 23.332031 12.09375 C 29.109375 4.203125 40.191406 2.488281 48.085938 8.265625 C 55.980469 14.042969 57.695313 25.125 51.917969 33.015625 Z M 7.234375 35.699219 C 7.234375 32.84375 9.550781 30.527344 12.40625 30.527344 C 15.261719 30.527344 17.578125 32.84375 17.578125 35.699219 C 17.578125 38.554688 15.261719 40.871094 12.40625 40.871094 Z M 28.15625 51.449219 C 28.140625 49.335938 29.402344 47.421875 31.355469 46.605469 C 33.304688 45.789063 35.554688 46.230469 37.050781 47.726563 C 38.546875 49.222656 38.988281 51.472656 38.171875 53.421875 C 37.355469 55.375 35.441406 56.636719 33.328125 56.621094 Z M 51.179688 55.609375 C 51.144531 53.160156 52.601563 50.933594 54.863281 49.980469 C 57.121094 49.027344 59.734375 49.539063 61.46875 51.273438 C 63.203125 53.003906 63.710938 55.617188 62.757813 57.875 C 61.804688 60.136719 59.578125 61.59375 57.128906 61.5625 Z M 51.179688 55.609375 "/>
</g>
</svg>
