<?xml version="1.0" encoding="UTF-8"?>
<svg xmlns="http://www.w3.org/2000/svg" xmlns:xlink="http://www.w3.org/1999/xlink" width="70pt" height="70pt" viewBox="0 0 70 70" version="1.1">
<g id="surface1">
<path style=" stroke:none;fill-rule:nonzero;fill:rgb(46.666667%,22.745098%,86.27451%);fill-opacity:1;" d="M 57.089844 16.0625 L 57.089844 41.609375 L 35.15625 54.40625 L 35.15625 28.855469 Z M 57.089844 16.0625 "/>
<path style=" stroke:none;fill-rule:nonzero;fill:rgb(71.764706%,58.823529%,97.647059%);fill-opacity:1;" d="M 57.089844 16.0625 L 35.15625 28.894531 L 13.222656 16.0625 L 35.15625 3.226563 Z M 57.089844 16.0625 "/>
<path style=" stroke:none;fill-rule:nonzero;fill:rgb(65.098039%,47.843137%,95.686275%);fill-opacity:1;" d="M 35.15625 28.894531 L 35.15625 54.40625 L 13.222656 41.609375 L 13.222656 16.0625 Z M 35.15625 28.894531 "/>
<path style=" stroke:none;fill-rule:nonzero;fill:rgb(46.666667%,22.745098%,86.27451%);fill-opacity:1;" d="M 23.566406 29.246094 C 20.6875 27.609375 18.355469 28.933594 18.355469 32.238281 C 9.453125 28.40625 5.34375 18.082031 9.179688 9.179688 C 13.011719 0.273438 23.335938 -3.832031 32.238281 0 C 35.078125 1.671875 37.449219 0.351563 37.449219 -2.957031 C 34.996094 -0.734375 31.71875 0.339844 28.429688 0 Z M 23.566406 29.246094 "/>
<path style=" stroke:none;fill-rule:nonzero;fill:rgb(19.607843%,74.509804%,86.666667%);fill-opacity:1;" d="M 70 55.804688 L 59.929688 45.695313 C 47.308594 45.695313 37.082031 35.464844 37.082031 22.847656 C 37.082031 10.230469 47.308594 0 59.929688 0 L 59.929688 7.777344 L 13.066406 7.777344 C 10.917969 -5.164063 19.667969 -17.394531 32.609375 -19.542969 C 45.546875 -21.6875 57.78125 -12.941406 59.929688 0 L 69.222656 0 C 69.207031 -1.078125 69.84375 -2.054688 70.835938 -2.472656 C 71.828125 -2.894531 72.976563 -2.667969 73.734375 -1.910156 C 74.496094 -1.148438 74.722656 0 74.300781 0.992188 C 73.882813 1.984375 72.902344 2.621094 71.828125 2.605469 L 13.066406 2.605469 C 13.066406 -13.621094 26.222656 -26.773438 42.445313 -26.773438 C 58.671875 -26.773438 71.828125 -13.621094 71.828125 2.605469 L 117.714844 2.605469 L 117.714844 10.382813 C 119.863281 -2.289063 111.332031 -14.300781 98.660156 -16.449219 C 85.988281 -18.597656 73.976563 -10.066406 71.828125 2.605469 L 70 56.503906 C 55.117188 56 43.460938 43.527344 43.964844 28.640625 C 44.46875 13.757813 56.945313 2.101563 71.828125 2.605469 Z M 70 55.804688 "/>
</g>
</svg>
