<?xml version="1.0" encoding="UTF-8"?>
<svg xmlns="http://www.w3.org/2000/svg" xmlns:xlink="http://www.w3.org/1999/xlink" width="70pt" height="70pt" viewBox="0 0 70 70" version="1.1">
<defs>
<linearGradient id="linear0" gradientUnits="userSpaceOnUse" x1="9" y1="11.69" x2="9" y2="0.5" gradientTransform="matrix(3.888889,0,0,3.888889,0,0)">
<stop offset="0" style="stop-color:rgb(0%,47.058824%,83.137255%);stop-opacity:1;"/>
<stop offset="0.16" style="stop-color:rgb(7.45098%,50.196078%,85.490196%);stop-opacity:1;"/>
<stop offset="0.53" style="stop-color:rgb(23.529412%,56.862745%,89.803922%);stop-opacity:1;"/>
<stop offset="0.82" style="stop-color:rgb(33.333333%,61.176471%,92.54902%);stop-opacity:1;"/>
<stop offset="1" style="stop-color:rgb(36.862745%,62.745098%,93.72549%);stop-opacity:1;"/>
</linearGradient>
<linearGradient id="linear1" gradientUnits="userSpaceOnUse" x1="4.86" y1="13.29" x2="13.22" y2="13.29" gradientTransform="matrix(3.888889,0,0,3.888889,0,0)">
<stop offset="0" style="stop-color:rgb(19.607843%,74.509804%,86.666667%);stop-opacity:1;"/>
<stop offset="0.06" style="stop-color:rgb(21.568627%,77.254902%,89.019608%);stop-opacity:1;"/>
<stop offset="0.3" style="stop-color:rgb(28.627451%,86.666667%,96.862745%);stop-opacity:1;"/>
<stop offset="0.45" style="stop-color:rgb(31.372549%,90.196078%,100%);stop-opacity:1;"/>
<stop offset="0.55" style="stop-color:rgb(31.372549%,90.196078%,100%);stop-opacity:1;"/>
<stop offset="0.7" style="stop-color:rgb(28.627451%,86.666667%,96.862745%);stop-opacity:1;"/>
<stop offset="0.94" style="stop-color:rgb(21.568627%,77.254902%,89.019608%);stop-opacity:1;"/>
<stop offset="1" style="stop-color:rgb(19.607843%,74.509804%,86.666667%);stop-opacity:1;"/>
</linearGradient>
</defs>
<g id="surface1">
<path style=" stroke:none;fill-rule:nonzero;fill:url(#linear0);" d="M 65.683594 31.8125 C 56.898438 35.472656 46.808594 31.320313 43.148438 22.535156 C 39.484375 13.75 43.636719 3.660156 52.421875 0 C 59.339844 2.542969 63.976563 9.082031 64.089844 16.449219 L 80.8125 33.171875 L 110.328125 33.171875 C 106.472656 37.027344 106.472656 43.277344 110.328125 47.132813 C 114.183594 50.988281 120.433594 50.988281 124.289063 47.132813 Z M 65.683594 31.8125 "/>
<path style=" stroke:none;fill-rule:nonzero;fill:url(#linear1);" d="M 35 40.484375 C 26.054688 40.484375 18.746094 38.148438 18.746094 35.3125 L 18.746094 62.882813 C 18.746094 65.722656 25.9375 68.015625 34.804688 68.054688 L 35 68.054688 C 43.984375 68.054688 51.253906 65.722656 51.253906 62.882813 L 51.253906 35.3125 C 51.410156 38.148438 44.140625 40.484375 35 40.484375 Z M 35 40.484375 "/>
<path style=" stroke:none;fill-rule:nonzero;fill:rgb(90.980392%,90.980392%,90.980392%);fill-opacity:1;" d="M 51.410156 35.3125 C 51.410156 38.148438 44.140625 40.484375 35.15625 40.484375 C 26.171875 40.484375 18.898438 38.148438 18.898438 35.3125 C 18.898438 32.472656 26.210938 30.140625 35 30.140625 C 43.789063 30.140625 51.253906 32.433594 51.253906 35.3125 "/>
<path style=" stroke:none;fill-rule:nonzero;fill:rgb(31.372549%,90.196078%,100%);fill-opacity:1;" d="M 47.640625 35 C 47.640625 36.828125 42.039063 38.304688 35.15625 38.304688 C 28.273438 38.304688 22.710938 36.710938 22.710938 35 C 22.710938 33.289063 28.3125 31.578125 35 31.578125 C 41.6875 31.578125 47.484375 33.054688 47.484375 34.882813 "/>
<path style=" stroke:none;fill-rule:nonzero;fill:rgb(19.607843%,74.509804%,86.666667%);fill-opacity:1;" d="M 35 35.660156 C 28.480469 24.535156 28.964844 10.644531 36.246094 0 Z M 35 35.660156 "/>
<path style=" stroke:none;fill-rule:nonzero;fill:rgb(94.901961%,94.901961%,94.901961%);fill-opacity:1;" d="M 24.421875 19.445313 L 34.496094 9.332031 C 37.070313 -0.191406 31.4375 -10.003906 21.914063 -12.582031 C 12.386719 -15.15625 2.578125 -9.523438 0 0 L 46.277344 19.445313 C 40.910156 19.199219 36.753906 14.644531 37.003906 9.273438 C 37.25 3.90625 41.804688 -0.246094 47.171875 0 L 40.988281 0 C 41.15625 -0.0976563 41.363281 -0.0976563 41.535156 0 L 41.535156 12.523438 C 38.074219 12.402344 35.367188 9.503906 35.484375 6.046875 C 35.605469 2.589844 38.503906 -0.117188 41.960938 0 L 31.964844 0 C 32.109375 0.09375 32.175781 0.273438 32.125 0.4375 C 32.074219 0.601563 31.925781 0.714844 31.753906 0.714844 C 31.582031 0.714844 31.429688 0.601563 31.378906 0.4375 C 31.332031 0.273438 31.394531 0.09375 31.539063 0 L 31.539063 20.84375 C 25.78125 20.84375 21.117188 16.179688 21.117188 10.421875 C 21.117188 4.667969 25.78125 0 31.539063 0 L 24.8125 0 C 24.988281 0.222656 24.960938 0.542969 24.753906 0.738281 C 24.542969 0.929688 24.222656 0.929688 24.015625 0.738281 C 23.804688 0.542969 23.78125 0.222656 23.957031 0 Z M 24.421875 19.445313 "/>
</g>
</svg>
