<?xml version="1.0" encoding="UTF-8"?>
<svg xmlns="http://www.w3.org/2000/svg" xmlns:xlink="http://www.w3.org/1999/xlink" width="70pt" height="70pt" viewBox="0 0 70 70" version="1.1">
<g id="surface1">
<path style=" stroke:none;fill-rule:nonzero;fill:rgb(46.666667%,22.745098%,86.27451%);fill-opacity:1;" d="M 47.054688 7.972656 L 47.054688 22.75 L 34.609375 30.140625 L 34.609375 15.359375 Z M 47.054688 7.972656 "/>
<path style=" stroke:none;fill-rule:nonzero;fill:rgb(33.333333%,18.431373%,60%);fill-opacity:1;" d="M 41.609375 15.796875 C 43.316406 14.773438 44.332031 15.453125 44.332031 17.503906 C 39.5 16.183594 36.652344 11.199219 37.96875 6.363281 C 39.289063 1.53125 44.273438 -1.320313 49.109375 0 C 47.742188 1.023438 46.386719 0.34375 46.386719 -1.707031 C 46.859375 11.574219 36.472656 22.722656 23.191406 23.191406 C 9.914063 23.664063 -1.234375 13.28125 -1.707031 0 Z M 41.609375 15.796875 "/>
<path style=" stroke:none;fill-rule:nonzero;fill:rgb(71.764706%,58.823529%,97.647059%);fill-opacity:1;" d="M 47.054688 7.972656 L 34.609375 15.359375 L 21.777344 7.972656 L 34.609375 0.582031 Z M 47.054688 7.972656 "/>
<path style=" stroke:none;fill-rule:nonzero;fill:rgb(65.098039%,47.843137%,95.686275%);fill-opacity:1;" d="M 34.609375 15.359375 L 34.609375 30.140625 L 21.777344 22.75 L 21.777344 7.972656 Z M 34.609375 15.359375 "/>
<path style=" stroke:none;fill-rule:nonzero;fill:rgb(46.666667%,22.745098%,86.27451%);fill-opacity:1;" d="M 27.671875 15.75 C 26.117188 14.972656 24.5625 15.75 24.5625 17.304688 C 19.785156 19.308594 14.285156 17.058594 12.28125 12.28125 C 10.277344 7.503906 12.527344 2.003906 17.304688 0 C 18.859375 0.777344 20.417969 0 20.417969 -1.554688 C 19.03125 -0.335938 17.191406 0.230469 15.359375 0 Z M 27.671875 15.75 "/>
<path style=" stroke:none;fill-rule:nonzero;fill:rgb(36.862745%,58.823529%,14.117647%);fill-opacity:1;" d="M 69.222656 27.417969 L 69.222656 42.195313 L 56.777344 49.582031 L 56.777344 34.804688 Z M 69.222656 27.417969 "/>
<path style=" stroke:none;fill-rule:nonzero;fill:rgb(46.27451%,73.72549%,17.647059%);fill-opacity:1;" d="M 56.777344 34.804688 L 56.777344 49.582031 L 44.332031 42.195313 L 44.332031 27.417969 Z M 56.777344 34.804688 "/>
<path style=" stroke:none;fill-rule:nonzero;fill:rgb(36.862745%,58.823529%,14.117647%);fill-opacity:1;" d="M 50.945313 35.972656 C 49.390625 35.195313 47.832031 35.972656 47.832031 37.527344 C 37.46875 40.375 26.761719 34.28125 23.917969 23.917969 C 21.070313 13.554688 27.164063 2.847656 37.527344 0 C 39.082031 0.777344 40.640625 0 40.640625 -1.554688 C 39.253906 -0.335938 37.414063 0.230469 35.582031 0 Z M 50.945313 35.972656 "/>
<path style=" stroke:none;fill-rule:nonzero;fill:rgb(19.607843%,74.509804%,86.666667%);fill-opacity:1;" d="M 51.089844 23.617188 C 44.566406 37.726563 27.84375 43.875 13.734375 37.351563 C -0.371094 30.832031 -6.523438 14.109375 0 0 C 0.683594 0.316406 1.132813 0.984375 1.167969 1.734375 L 17.71875 1.734375 Z M 51.078125 31.417969 C 51.148438 31.648438 51.273438 31.851563 51.332031 32.082031 L 51.800781 31.851563 Z M 51.078125 31.417969 "/>
<path style=" stroke:none;fill-rule:nonzero;fill:rgb(14.509804%,50.980392%,46.666667%);fill-opacity:1;" d="M 26.054688 28.195313 L 26.054688 42.582031 L 13.222656 49.972656 L 13.222656 35.582031 Z M 26.054688 28.195313 "/>
<path style=" stroke:none;fill-rule:nonzero;fill:rgb(21.568627%,76.078431%,69.411765%);fill-opacity:1;" d="M 13.222656 35.582031 L 13.222656 49.972656 L 0.777344 42.582031 L 0.777344 28.195313 Z M 13.222656 35.582031 "/>
<path style=" stroke:none;fill-rule:nonzero;fill:rgb(19.607843%,74.509804%,86.666667%);fill-opacity:1;" d="M 28.777344 19.25 C 35.867188 19.570313 41.351563 25.578125 41.027344 32.667969 C 40.707031 39.753906 34.699219 45.238281 27.609375 44.917969 L 31.726563 47.273438 C 25.652344 39.8125 26.488281 28.902344 33.628906 22.457031 C 40.769531 16.007813 51.710938 16.289063 58.511719 23.089844 C 65.316406 29.894531 65.59375 40.832031 59.148438 47.972656 C 52.703125 55.113281 41.792969 55.953125 34.332031 49.878906 Z M 28.777344 19.25 "/>
<path style=" stroke:none;fill-rule:nonzero;fill:rgb(81.960784%,34.901961%,0%);fill-opacity:1;" d="M 48.222656 47.25 L 48.222656 62.027344 L 35.777344 69.417969 L 35.777344 54.640625 Z M 48.222656 47.25 "/>
<path style=" stroke:none;fill-rule:nonzero;fill:rgb(96.862745%,55.294118%,11.764706%);fill-opacity:1;" d="M 35.777344 54.640625 L 35.777344 69.417969 L 23.332031 62.027344 L 23.332031 47.25 Z M 35.777344 54.640625 "/>
<path style=" stroke:none;fill-rule:nonzero;fill:rgb(19.607843%,74.509804%,86.666667%);fill-opacity:1;" d="M 51.332031 39.082031 C 56.980469 38.976563 61.648438 43.46875 61.753906 49.117188 C 61.863281 54.765625 57.371094 59.429688 51.722656 59.539063 L 55.480469 61.765625 C 65.503906 69.070313 68.023438 82.957031 61.199219 93.316406 C 54.378906 103.671875 40.621094 106.839844 29.957031 100.515625 C 19.289063 94.1875 15.476563 80.597656 21.292969 69.644531 C 27.113281 58.691406 40.507813 54.242188 51.722656 59.539063 C 51.335938 60 50.765625 60.265625 50.167969 60.265625 C 49.566406 60.265625 48.996094 60 48.609375 59.539063 Z M 51.332031 39.082031 "/>
<path style=" stroke:none;fill-rule:nonzero;fill:rgb(12.54902%,43.921569%,40.392157%);fill-opacity:1;" d="M 20.269531 35.730469 C 22.042969 34.761719 23.332031 35.570313 23.332031 37.503906 C 12.976563 36.035156 5.773438 26.449219 7.242188 16.09375 C 8.710938 5.734375 18.296875 -1.46875 28.652344 0 C 26.882813 0.96875 25.59375 0.160156 25.59375 -1.773438 C 26.082031 5.785156 20.351563 12.308594 12.796875 12.796875 C 5.238281 13.285156 -1.285156 7.558594 -1.773438 0 Z M 20.269531 35.730469 "/>
<path style=" stroke:none;fill-rule:nonzero;fill:rgb(19.607843%,74.509804%,86.666667%);fill-opacity:1;" d="M 28.867188 43.964844 C 16.726563 51.933594 0.421875 48.554688 -7.546875 36.414063 C -15.519531 24.273438 -12.140625 7.972656 0 0 C 0.253906 0.707031 0.105469 1.492188 -0.390625 2.058594 L 21.09375 23.539063 Z M 28.867188 43.964844 "/>
<path style=" stroke:none;fill-rule:nonzero;fill:rgb(100%,70.196078%,30.196078%);fill-opacity:1;" d="M 48.222656 47.25 L 35.777344 54.640625 L 23.332031 47.25 L 35.777344 39.859375 Z M 48.222656 47.25 "/>
<path style=" stroke:none;fill-rule:nonzero;fill:rgb(25.882353%,90.980392%,79.215686%);fill-opacity:1;" d="M 26.054688 28.195313 L 13.222656 35.582031 L 0.777344 28.195313 L 13.222656 20.804688 Z M 26.054688 28.195313 "/>
<path style=" stroke:none;fill-rule:nonzero;fill:rgb(70.588235%,92.54902%,21.176471%);fill-opacity:1;" d="M 69.222656 27.417969 L 56.777344 34.804688 L 44.332031 27.417969 L 56.777344 20.417969 Z M 69.222656 27.417969 "/>
</g>
</svg>
