<?xml version="1.0" encoding="UTF-8"?>
<svg xmlns="http://www.w3.org/2000/svg" xmlns:xlink="http://www.w3.org/1999/xlink" width="70pt" height="70pt" viewBox="0 0 70 70" version="1.1">
<defs>
<linearGradient id="linear0" gradientUnits="userSpaceOnUse" x1="9.03" y1="13.38" x2="9.03" y2="4.63" gradientTransform="matrix(3.888889,0,0,3.888889,0,0)">
<stop offset="0" style="stop-color:rgb(9.803922%,54.117647%,70.196078%);stop-opacity:1;"/>
<stop offset="0.4" style="stop-color:rgb(14.509804%,68.235294%,82.745098%);stop-opacity:1;"/>
<stop offset="0.78" style="stop-color:rgb(18.431373%,79.215686%,92.54902%);stop-opacity:1;"/>
<stop offset="1" style="stop-color:rgb(19.607843%,83.137255%,96.078431%);stop-opacity:1;"/>
</linearGradient>
</defs>
<g id="surface1">
<path style=" stroke:none;fill-rule:nonzero;fill:url(#linear0);" d="M 19.679688 18.003906 L 50.515625 18.003906 C 51.398438 18.003906 52.109375 18.71875 52.109375 19.601563 L 52.109375 50.4375 C 52.109375 51.320313 51.398438 52.035156 50.515625 52.035156 L 19.679688 52.035156 C 18.796875 52.035156 18.082031 51.320313 18.082031 50.4375 L 18.082031 19.601563 C 18.082031 18.71875 18.796875 18.003906 19.679688 18.003906 Z M 19.679688 18.003906 "/>
<path style=" stroke:none;fill-rule:nonzero;fill:rgb(76.470588%,94.509804%,100%);fill-opacity:1;" d="M 45.8125 47.367188 L 62.84375 35.429688 C 53.0625 52.78125 31.0625 58.917969 13.707031 49.136719 C -3.644531 39.351563 -9.78125 17.355469 0 0 L -17.035156 -11.898438 C -13.746094 -12.019531 -10.988281 -9.449219 -10.871094 -6.164063 C -10.75 -2.878906 -13.320313 -0.117188 -16.605469 0 L -16.605469 29.945313 L 18.082031 29.945313 L 18.082031 40.054688 L 44.996094 40.054688 L 44.996094 46.9375 C 32.03125 63.949219 7.734375 67.230469 -9.273438 54.269531 C -26.285156 41.308594 -29.566406 17.011719 -16.605469 0 Z M 45.8125 47.367188 "/>
<path style=" stroke:none;fill-rule:nonzero;fill:rgb(58.039216%,58.039216%,58.039216%);fill-opacity:1;" d="M 66.109375 68.445313 L 3.890625 68.445313 C -15.011719 69.003906 -30.785156 54.132813 -31.34375 35.234375 C -31.902344 16.332031 -17.035156 0.558594 1.867188 0 L 1.867188 3.578125 C 1.015625 4.027344 -0.0351563 3.8125 -0.640625 3.070313 C -1.25 2.324219 -1.25 1.253906 -0.640625 0.507813 C -0.0351563 -0.234375 1.015625 -0.449219 1.867188 0 L 64.089844 0 C 64.089844 17.183594 50.160156 31.109375 32.976563 31.109375 C 15.796875 31.109375 1.867188 17.183594 1.867188 0 L 1.867188 23.332031 C -4.578125 23.097656 -9.609375 17.683594 -9.371094 11.238281 C -9.136719 4.796875 -3.722656 -0.234375 2.722656 0 L -1.167969 -2.722656 C -0.414063 -3.796875 1.066406 -4.058594 2.140625 -3.304688 C 3.210938 -2.554688 3.472656 -1.074219 2.722656 0 L 2.722656 7.777344 L 8.011719 7.777344 L 8.011719 62.222656 L 61.988281 62.222656 L 61.988281 49.777344 C 48.242188 66.144531 23.832031 68.269531 7.464844 54.523438 C -8.898438 40.777344 -11.023438 16.367188 2.722656 0 L 6.609375 -2.839844 C 7.394531 -1.765625 7.160156 -0.257813 6.085938 0.523438 C 5.011719 1.308594 3.507813 1.074219 2.722656 0 L 2.722656 19.445313 C -2.648438 18.886719 -6.546875 14.082031 -5.988281 8.710938 C -5.429688 3.339844 -0.625 -0.558594 4.746094 0 Z M 66.109375 68.445313 "/>
<path style=" stroke:none;fill-rule:nonzero;fill:rgb(46.27451%,46.27451%,46.27451%);fill-opacity:1;" d="M 61.988281 7.777344 L 61.988281 20.417969 C 56.351563 37.535156 37.902344 46.839844 20.785156 41.203125 C 3.667969 35.566406 -5.636719 17.117188 0 0 L 3.890625 2.722656 C 3.136719 3.796875 1.65625 4.058594 0.582031 3.304688 C -0.492188 2.554688 -0.75 1.074219 0 0 L 0 7.777344 Z M 61.988281 62.222656 L 61.988281 49.582031 C 48.296875 66.699219 23.320313 69.476563 6.203125 55.785156 C -10.914063 42.09375 -13.691406 17.117188 0 0 L 3.890625 -2.761719 C 4.652344 -1.6875 4.398438 -0.199219 3.324219 0.5625 C 2.25 1.328125 0.761719 1.074219 0 0 L 0 15.554688 Z M 61.988281 62.222656 "/>
</g>
</svg>
