<?xml version="1.0" encoding="UTF-8"?>
<svg xmlns="http://www.w3.org/2000/svg" xmlns:xlink="http://www.w3.org/1999/xlink" width="70pt" height="70pt" viewBox="0 0 70 70" version="1.1">
<defs>
<linearGradient id="linear0" gradientUnits="userSpaceOnUse" x1="9" y1="15.92" x2="9" y2="3.58" gradientTransform="matrix(3.888889,0,0,3.888889,0,0)">
<stop offset="0" style="stop-color:rgb(88.627451%,47.45098%,3.137255%);stop-opacity:1;"/>
<stop offset="0.3" style="stop-color:rgb(89.803922%,49.411765%,3.921569%);stop-opacity:1;"/>
<stop offset="0.64" style="stop-color:rgb(92.941176%,54.509804%,6.666667%);stop-opacity:1;"/>
<stop offset="1" style="stop-color:rgb(98.039216%,63.529412%,11.372549%);stop-opacity:1;"/>
<stop offset="1" style="stop-color:rgb(98.039216%,63.529412%,11.372549%);stop-opacity:1;"/>
</linearGradient>
</defs>
<g id="surface1">
<path style=" stroke:none;fill-rule:nonzero;fill:rgb(93.72549%,44.313725%,0%);fill-opacity:1;" d="M 66.5 14 L 37.683594 14 C 33.816406 14.074219 30.621094 11.003906 30.546875 7.136719 C 30.472656 3.269531 33.546875 0.0742188 37.410156 0 L 28.582031 8.246094 C 26.308594 8.308594 24.410156 6.515625 24.34375 4.238281 C 24.28125 1.960938 26.074219 0.0625 28.351563 0 L 3.5 0 C 3.972656 -0.261719 4.546875 -0.261719 5.015625 0 L 5.015625 50.945313 C -9.050781 50.945313 -20.457031 39.539063 -20.457031 25.472656 C -20.457031 11.40625 -9.050781 0 5.015625 0 L 68.015625 0 C 68.015625 17.398438 53.914063 31.5 36.515625 31.5 C 19.121094 31.5 5.015625 17.398438 5.015625 0 L 5.015625 15.554688 C 0.722656 15.984375 -3.109375 12.851563 -3.539063 8.554688 C -3.96875 4.261719 -0.835938 0.429688 3.460938 0 Z M 66.5 14 "/>
<path style=" stroke:none;fill-rule:nonzero;fill:rgb(100%,100%,100%);fill-opacity:1;" d="M 8.59375 10.964844 L 22.359375 10.964844 C 22.703125 10.964844 22.984375 11.246094 22.984375 11.589844 L 22.984375 13.339844 C 22.984375 13.683594 22.703125 13.960938 22.359375 13.960938 L 8.59375 13.960938 C 8.25 13.960938 7.972656 13.683594 7.972656 13.339844 L 7.972656 11.589844 C 7.972656 11.246094 8.25 10.964844 8.59375 10.964844 Z M 8.59375 10.964844 "/>
<path style=" stroke:none;fill-rule:nonzero;fill:rgb(81.960784%,34.901961%,0%);fill-opacity:1;" d="M 8.398438 10.964844 L 10.539063 10.964844 C 10.773438 10.964844 10.964844 11.15625 10.964844 11.394531 L 10.964844 13.535156 C 10.964844 13.769531 10.773438 13.960938 10.539063 13.960938 L 8.398438 13.960938 C 8.164063 13.960938 7.972656 13.769531 7.972656 13.535156 L 7.972656 11.394531 C 7.972656 11.15625 8.164063 10.964844 8.398438 10.964844 Z M 8.398438 10.964844 "/>
<path style=" stroke:none;fill-rule:nonzero;fill:url(#linear0);" d="M 66.5 13.921875 L 35 13.921875 C 31.15625 13.792969 28.144531 10.574219 28.273438 6.726563 C 28.402344 2.882813 31.621094 -0.128906 35.464844 0 L 28.660156 19.445313 C 23.292969 19.328125 19.035156 14.878906 19.152344 9.507813 C 19.269531 4.140625 23.71875 -0.117188 29.089844 0 L 3.5 0 C 3.980469 -0.277344 4.574219 -0.277344 5.054688 0 L 5.054688 38.890625 C -5.683594 38.890625 -14.390625 30.183594 -14.390625 19.445313 C -14.390625 8.707031 -5.683594 0 5.054688 0 L 68.054688 0 C 68.054688 17.398438 53.953125 31.5 36.554688 31.5 C 19.160156 31.5 5.054688 17.398438 5.054688 0 L 5.054688 15.554688 C 0.761719 16.007813 -3.085938 12.890625 -3.539063 8.59375 C -3.988281 4.300781 -0.875 0.449219 3.421875 0 Z M 66.5 13.921875 "/>
<path style=" stroke:none;fill-rule:nonzero;fill:rgb(100%,79.215686%,0%);fill-opacity:1;" d="M 49.933594 31.226563 L 49.933594 47.484375 L 35.972656 55.648438 L 35.972656 39.355469 Z M 49.933594 31.226563 "/>
<path style=" stroke:none;fill-rule:nonzero;fill:rgb(100%,89.411765%,32.156863%);fill-opacity:1;" d="M 49.933594 31.226563 L 35.972656 39.394531 L 21.972656 31.226563 L 35.972656 23.023438 Z M 49.933594 31.226563 "/>
<path style=" stroke:none;fill-rule:nonzero;fill:rgb(100%,83.137255%,0%);fill-opacity:1;" d="M 35.972656 39.394531 L 35.972656 55.648438 L 21.972656 47.484375 L 21.972656 31.226563 Z M 35.972656 39.394531 "/>
</g>
</svg>
