<?xml version="1.0" encoding="UTF-8"?>
<svg xmlns="http://www.w3.org/2000/svg" xmlns:xlink="http://www.w3.org/1999/xlink" width="70pt" height="70pt" viewBox="0 0 70 70" version="1.1">
<defs>
<linearGradient id="linear0" gradientUnits="userSpaceOnUse" x1="9.01" y1="16.5" x2="9.01" y2="1.5" gradientTransform="matrix(3.888889,0,0,3.888889,0,0)">
<stop offset="0" style="stop-color:rgb(36.862745%,58.823529%,25.490196%);stop-opacity:1;"/>
<stop offset="0.34" style="stop-color:rgb(41.960784%,66.666667%,25.882353%);stop-opacity:1;"/>
<stop offset="0.67" style="stop-color:rgb(45.098039%,71.764706%,26.27451%);stop-opacity:1;"/>
<stop offset="1" style="stop-color:rgb(46.27451%,73.333333%,26.27451%);stop-opacity:1;"/>
</linearGradient>
</defs>
<g id="surface1">
<path style=" stroke:none;fill-rule:nonzero;fill:rgb(100%,79.215686%,0%);fill-opacity:1;" d="M 61.792969 11.316406 L 66.734375 11.316406 C 63.609375 29.746094 46.136719 42.148438 27.707031 39.023438 C 9.28125 35.898438 -3.125 18.429688 0 0 L 0 13.609375 C -3.757813 13.246094 -6.507813 9.902344 -6.144531 6.144531 C -5.78125 2.386719 -2.4375 -0.363281 1.320313 0 L -3.617188 0 L -3.617188 11.316406 Z M 61.792969 35 L 66.734375 35 C 57.066406 53.0625 34.589844 59.871094 16.527344 50.207031 C -1.535156 40.539063 -8.34375 18.0625 1.320313 0 L 1.320313 22.789063 C -4.972656 22.421875 -9.777344 17.027344 -9.410156 10.734375 C -9.046875 4.441406 -3.648438 -0.363281 2.644531 0 L -2.292969 0 L -2.292969 35 Z M 61.792969 35 "/>
<path style=" stroke:none;fill-rule:nonzero;fill:url(#linear0);" d="M 10.964844 5.832031 L 59.109375 5.832031 C 60.59375 5.832031 61.792969 7.035156 61.792969 8.515625 L 61.792969 61.484375 C 61.792969 62.964844 60.59375 64.167969 59.109375 64.167969 L 10.964844 64.167969 C 9.484375 64.167969 8.285156 62.964844 8.285156 61.484375 L 8.285156 8.515625 C 8.285156 7.035156 9.484375 5.832031 10.964844 5.832031 Z M 10.964844 5.832031 "/>
<path style=" stroke:none;fill-rule:nonzero;fill:rgb(70.588235%,92.54902%,21.176471%);fill-opacity:1;" d="M 22.945313 50.167969 L 20.183594 50.167969 C 6.332031 50.390625 -5.082031 39.34375 -5.308594 25.492188 C -5.535156 11.636719 5.511719 0.226563 19.367188 0 L 19.367188 16.878906 C 14.707031 16.878906 10.929688 13.097656 10.929688 8.4375 C 10.929688 3.777344 14.707031 0 19.367188 0 L 26.871094 0 C 26.894531 -0.398438 27.226563 -0.707031 27.625 -0.699219 C 28.019531 -0.691406 28.339844 -0.371094 28.347656 0.0273438 C 28.355469 0.425781 28.046875 0.757813 27.648438 0.777344 L 20.921875 0.777344 L 20.921875 31.617188 L 22.945313 31.617188 C 22.964844 31.199219 23.316406 30.871094 23.734375 30.878906 C 24.152344 30.886719 24.492188 31.222656 24.5 31.644531 C 24.507813 32.0625 24.179688 32.410156 23.761719 32.433594 Z M 22.945313 50.167969 "/>
<path style=" stroke:none;fill-rule:nonzero;fill:rgb(70.588235%,92.54902%,21.176471%);fill-opacity:1;" d="M 23.332031 54.132813 L 17.109375 54.132813 C 2.164063 54.359375 -10.136719 42.421875 -10.363281 27.476563 C -10.589844 12.527344 1.347656 0.226563 16.292969 0 L 15.867188 13.144531 C 15.804688 12.808594 15.96875 12.472656 16.269531 12.3125 C 16.570313 12.15625 16.941406 12.210938 17.179688 12.453125 C 17.421875 12.691406 17.476563 13.0625 17.320313 13.363281 C 17.160156 13.667969 16.824219 13.828125 16.488281 13.765625 L 27.570313 13.765625 L 27.570313 15.359375 L 17.382813 15.359375 L 17.851563 53.9375 L 23.332031 53.9375 Z M 46.667969 50.554688 L 40.484375 50.554688 C 40.746094 50.347656 41.113281 50.34375 41.378906 50.542969 C 41.648438 50.742188 41.75 51.09375 41.628906 51.402344 C 41.507813 51.714844 41.195313 51.90625 40.863281 51.871094 C 40.53125 51.835938 40.265625 51.585938 40.210938 51.253906 L 40.210938 30.722656 C 45.882813 30.722656 50.476563 35.320313 50.476563 40.988281 C 50.476563 46.660156 45.882813 51.253906 40.210938 51.253906 L 43.75 51.253906 L 43.75 21.195313 L 45.226563 21.195313 L 45.226563 30.683594 C 50.910156 30.457031 55.695313 34.878906 55.921875 40.5625 C 56.148438 46.242188 51.726563 51.03125 46.042969 51.253906 L 42.503906 51.253906 L 42.503906 68.445313 L 46.667969 68.445313 Z M 46.667969 50.554688 "/>
<path style=" stroke:none;fill-rule:nonzero;fill:rgb(21.176471%,33.72549%,8.235294%);fill-opacity:1;" d="M 28.503906 8.90625 L 50.359375 8.90625 C 50.917969 8.90625 51.371094 9.359375 51.371094 9.917969 L 51.371094 19.988281 C 51.371094 20.546875 50.917969 21 50.359375 21 L 28.503906 21 C 27.945313 21 27.496094 20.546875 27.496094 19.988281 L 27.496094 9.917969 C 27.496094 9.359375 27.945313 8.90625 28.503906 8.90625 Z M 28.503906 8.90625 "/>
<path style=" stroke:none;fill-rule:nonzero;fill:rgb(21.176471%,33.72549%,8.235294%);fill-opacity:1;" d="M 34.417969 42.972656 L 34.417969 60.003906 C 34.417969 60.5625 33.964844 61.015625 33.40625 61.015625 L 31.1875 61.015625 C 30.628906 61.015625 30.179688 60.5625 30.179688 60.003906 L 30.179688 42.972656 C 30.179688 42.414063 30.628906 41.960938 31.1875 41.960938 L 33.40625 41.960938 C 33.964844 41.960938 34.417969 42.414063 34.417969 42.972656 Z M 34.417969 42.972656 "/>
<path style=" stroke:none;fill-rule:nonzero;fill:rgb(21.176471%,33.72549%,8.235294%);fill-opacity:1;" d="M 27.183594 43.050781 L 27.183594 60.082031 C 27.183594 60.640625 26.730469 61.09375 26.171875 61.09375 L 23.957031 61.09375 C 23.398438 61.09375 22.945313 60.640625 22.945313 60.082031 L 22.945313 43.050781 C 22.945313 42.492188 23.398438 42.039063 23.957031 42.039063 L 26.171875 42.039063 C 26.730469 42.039063 27.183594 42.492188 27.183594 43.050781 Z M 27.183594 43.050781 "/>
<path style=" stroke:none;fill-rule:nonzero;fill:rgb(94.901961%,94.901961%,94.901961%);fill-opacity:1;" d="M 50.4375 43.050781 L 50.4375 60.082031 C 50.4375 60.640625 49.984375 61.09375 49.429688 61.09375 L 47.210938 61.09375 C 46.652344 61.09375 46.199219 60.640625 46.199219 60.082031 L 46.199219 43.050781 C 46.199219 42.492188 46.652344 42.039063 47.210938 42.039063 L 49.429688 42.039063 C 49.984375 42.039063 50.4375 42.492188 50.4375 43.050781 Z M 50.4375 43.050781 "/>
<path style=" stroke:none;fill-rule:nonzero;fill:rgb(94.901961%,94.901961%,94.901961%);fill-opacity:1;" d="M 35.582031 31.34375 C 35.582031 28.9375 33.773438 26.988281 31.539063 26.988281 C 29.304688 26.988281 27.496094 28.9375 27.496094 31.34375 C 27.496094 33.75 29.304688 35.699219 31.539063 35.699219 C 33.773438 35.699219 35.582031 33.75 35.582031 31.34375 Z M 35.582031 31.34375 "/>
<path style=" stroke:none;fill-rule:nonzero;fill:rgb(23.137255%,23.137255%,23.137255%);fill-opacity:1;" d="M 8.207031 47.640625 L 3.265625 47.640625 C -9.886719 47.960938 -20.8125 37.558594 -21.136719 24.402344 C -21.457031 11.246094 -11.054688 0.320313 2.101563 0 L 2.101563 23.683594 C -4.441406 23.683594 -9.742188 18.382813 -9.742188 11.839844 C -9.742188 5.300781 -4.441406 0 2.101563 0 L 7.039063 0 L 7.039063 25.277344 Z M 8.207031 47.640625 "/>
</g>
</svg>
