<?xml version="1.0" encoding="UTF-8"?>
<svg xmlns="http://www.w3.org/2000/svg" xmlns:xlink="http://www.w3.org/1999/xlink" width="70pt" height="70pt" viewBox="0 0 70 70" version="1.1">
<defs>
<radialGradient id="radial0" gradientUnits="userSpaceOnUse" cx="8.95" cy="6.18" fx="8.95" fy="6.18" r="5.51" gradientTransform="matrix(3.888889,0,0,3.888889,0,0)">
<stop offset="0" style="stop-color:rgb(41.960784%,72.54902%,94.901961%);stop-opacity:1;"/>
<stop offset="0.2" style="stop-color:rgb(39.607843%,71.372549%,94.509804%);stop-opacity:1;"/>
<stop offset="0.45" style="stop-color:rgb(33.333333%,68.235294%,94.117647%);stop-opacity:1;"/>
<stop offset="0.74" style="stop-color:rgb(22.745098%,63.529412%,93.333333%);stop-opacity:1;"/>
<stop offset="1" style="stop-color:rgb(10.588235%,57.647059%,92.156863%);stop-opacity:1;"/>
</radialGradient>
<linearGradient id="linear0" gradientUnits="userSpaceOnUse" x1="5.67" y1="-0.43" x2="5.67" y2="12.53" gradientTransform="matrix(3.888889,0,0,3.888889,0,0)">
<stop offset="0" style="stop-color:rgb(100%,100%,100%);stop-opacity:1;"/>
<stop offset="1" style="stop-color:rgb(80%,80%,80%);stop-opacity:1;"/>
</linearGradient>
</defs>
<g id="surface1">
<path style=" stroke:none;fill-rule:nonzero;fill:rgb(63.921569%,63.921569%,63.921569%);fill-opacity:1;" d="M 42.234375 64.128906 L 38.929688 67.589844 C 20.261719 67.460938 5.238281 52.226563 5.367188 33.5625 C 5.496094 14.898438 20.730469 -0.128906 39.394531 0 L 32.199219 0 C 33.003906 0.121094 33.578125 0.84375 33.519531 1.65625 C 33.457031 2.464844 32.78125 3.09375 31.964844 3.09375 C 31.152344 3.09375 30.476563 2.464844 30.414063 1.65625 C 30.355469 0.84375 30.929688 0.121094 31.734375 0 L 28.429688 -3.460938 C 29.382813 -3.140625 29.898438 -2.101563 29.574219 -1.148438 C 29.253906 -0.191406 28.21875 0.320313 27.261719 0 L 27.261719 54.832031 L 42.816406 54.832031 L 42.816406 62.960938 C 25.429688 62.640625 11.597656 48.285156 11.917969 30.898438 C 12.242188 13.511719 26.597656 -0.320313 43.984375 0 Z M 42.234375 64.128906 "/>
<path style=" stroke:none;fill-rule:nonzero;fill:url(#radial0);" d="M 35 1.945313 C 42.132813 11.609375 40.523438 25.152344 31.324219 32.875 C 22.128906 40.597656 8.511719 39.84375 0.226563 31.148438 C -8.058594 22.453125 -8.160156 8.8125 0 0 C 1.050781 9.527344 10.148438 13.960938 12.714844 26.054688 C 5.523438 22.371094 2.675781 13.554688 6.359375 6.359375 C 10.042969 -0.835938 18.859375 -3.683594 26.054688 0 L 42.621094 0 C 42.621094 4.574219 38.914063 8.285156 34.339844 8.285156 C 29.765625 8.285156 26.054688 4.574219 26.054688 0 C 28.621094 -12.09375 37.722656 -16.527344 38.773438 -26.054688 C 45.96875 -8.152344 37.289063 12.191406 19.386719 19.386719 C 1.484375 26.582031 -18.859375 17.902344 -26.054688 0 Z M 27.457031 54.832031 "/>
<path style=" stroke:none;fill-rule:nonzero;fill:rgb(94.901961%,94.901961%,94.901961%);fill-opacity:1;" d="M 51.839844 10.035156 L 47.949219 13.921875 C 44.105469 13.921875 40.988281 10.804688 40.988281 6.960938 C 40.988281 3.117188 44.105469 0 47.949219 0 L 42.933594 -1.671875 C 43.394531 -1.769531 43.847656 -1.472656 43.945313 -1.011719 C 44.042969 -0.550781 43.746094 -0.0976563 43.285156 0 L 42.777344 1.515625 C 42.359375 1.378906 42.132813 0.925781 42.273438 0.503906 C 42.410156 0.0859375 42.863281 -0.140625 43.285156 0 L 46.667969 16.722656 C 42.050781 17.65625 37.546875 14.671875 36.613281 10.054688 C 35.679688 5.433594 38.664063 0.933594 43.285156 0 L 45.035156 5.25 C 43.582031 5.734375 42.015625 4.949219 41.535156 3.5 C 41.050781 2.050781 41.832031 0.484375 43.285156 0 L 44.800781 -0.503906 C 44.941406 -0.0859375 44.714844 0.367188 44.292969 0.503906 C 43.875 0.644531 43.421875 0.417969 43.285156 0 L 41.609375 -5.015625 C 42.996094 -5.476563 44.492188 -4.730469 44.957031 -3.34375 C 45.417969 -1.960938 44.667969 -0.460938 43.285156 0 L 47.171875 -3.890625 C 51.671875 -8.386719 58.96875 -8.386719 63.464844 -3.890625 C 67.964844 0.609375 67.964844 7.90625 63.464844 12.40625 L 64.011719 12.40625 Z M 41.609375 45.851563 L 41.378906 45.382813 C 32.269531 45.511719 24.785156 38.234375 24.65625 29.128906 C 24.527344 20.019531 31.804688 12.535156 40.910156 12.40625 L 37.683594 14.15625 L 37.683594 27.222656 L 42.15625 25.003906 C 38.675781 25.347656 35.578125 22.808594 35.234375 19.328125 C 34.890625 15.847656 37.433594 12.75 40.910156 12.40625 L 40.679688 11.9375 C 40.5625 12.144531 40.386719 12.308594 40.171875 12.40625 L 36.945313 14.039063 L 36.945313 3.539063 C 42.636719 -2.152344 51.863281 -2.152344 57.554688 3.539063 C 63.246094 9.230469 63.246094 18.457031 57.554688 24.148438 L 59.1875 24.148438 L 59.1875 44.839844 L 55.960938 43.207031 C 50.699219 43.066406 46.546875 38.6875 46.6875 33.425781 C 46.824219 28.164063 51.203125 24.011719 56.464844 24.148438 L 56.234375 24.617188 C 55.875 25.035156 55.261719 25.121094 54.804688 24.820313 C 54.34375 24.515625 54.183594 23.917969 54.429688 23.421875 C 54.675781 22.929688 55.25 22.699219 55.769531 22.886719 C 56.289063 23.070313 56.585938 23.613281 56.464844 24.148438 L 33.328125 27.222656 L 33.328125 46.667969 L 30.101563 45.035156 C 24.332031 44.90625 19.761719 40.125 19.890625 34.359375 C 20.019531 28.589844 24.800781 24.019531 30.566406 24.148438 L 30.332031 24.617188 C 29.976563 25.035156 29.363281 25.121094 28.902344 24.820313 C 28.445313 24.515625 28.285156 23.917969 28.53125 23.421875 C 28.777344 22.929688 29.351563 22.699219 29.871094 22.886719 C 30.390625 23.070313 30.6875 23.613281 30.566406 24.148438 L 35.039063 26.367188 L 35.039063 30.253906 C 33.351563 29.859375 32.308594 28.167969 32.707031 26.484375 C 33.101563 24.796875 34.792969 23.753906 36.476563 24.148438 L 41.457031 24.148438 C 42.136719 24.484375 42.5 25.246094 42.328125 25.984375 C 42.15625 26.726563 41.496094 27.25 40.734375 27.25 C 39.976563 27.25 39.316406 26.726563 39.144531 25.984375 C 38.972656 25.246094 39.335938 24.484375 40.015625 24.148438 L 40.015625 20.261719 L 44.488281 18.042969 C 46.175781 19.28125 46.539063 21.648438 45.304688 23.332031 C 44.070313 25.019531 41.703125 25.386719 40.015625 24.148438 Z M 41.609375 45.851563 "/>
<path style=" stroke:none;fill-rule:nonzero;fill:url(#linear0);" d="M 26.40625 12.601563 L 22.207031 14 C 18.339844 14.074219 15.144531 11.003906 15.070313 7.136719 C 14.996094 3.269531 18.066406 0.0742188 21.933594 0 L 19.09375 -2.839844 C 19.878906 -2.839844 20.515625 -2.203125 20.515625 -1.417969 C 20.515625 -0.636719 19.878906 0 19.09375 0 L 18.785156 0.390625 C 18.855469 0.238281 18.964844 0.105469 19.09375 0 L 21.972656 2.839844 C 21.1875 3.632813 19.910156 3.640625 19.113281 2.859375 C 18.320313 2.074219 18.308594 0.792969 19.09375 0 L 17.695313 4.160156 C 16.546875 3.773438 15.925781 2.53125 16.3125 1.378906 C 16.699219 0.230469 17.945313 -0.386719 19.09375 0 L 19.5625 0 C 20.125 0.121094 20.507813 0.644531 20.449219 1.21875 C 20.390625 1.796875 19.90625 2.230469 19.328125 2.230469 C 18.75 2.230469 18.265625 1.796875 18.207031 1.21875 C 18.144531 0.644531 18.53125 0.121094 19.09375 0 L 20.570313 -4.472656 C 21.808594 -4.0625 22.476563 -2.730469 22.070313 -1.496094 C 21.660156 -0.261719 20.328125 0.40625 19.09375 0 L 27.222656 15.167969 C 23.035156 17.410156 17.820313 15.835938 15.574219 11.648438 C 13.332031 7.460938 14.90625 2.246094 19.09375 0 L 19.09375 -0.464844 C 18.933594 -0.222656 18.679688 -0.0546875 18.394531 0 Z M 26.40625 12.601563 "/>
<path style=" stroke:none;fill-rule:nonzero;fill:rgb(94.901961%,94.901961%,94.901961%);fill-opacity:1;" d="M 48.882813 33.601563 L 48.339844 27.570313 L 45.65625 27.84375 L 46.199219 34.144531 L 41.496094 38.382813 L 43.320313 40.40625 L 48.027344 36.167969 L 52.964844 38.070313 C 53.511719 37.292969 54.015625 36.515625 54.523438 35.738281 Z M 27.6875 37.644531 L 24.1875 34.535156 C 14.652344 34.792969 6.714844 27.269531 6.457031 17.734375 C 6.199219 8.195313 13.71875 0.257813 23.253906 0 L 23.644531 -4.667969 C 24.933594 -4.558594 25.890625 -3.425781 25.785156 -2.140625 C 25.675781 -0.851563 24.542969 0.105469 23.253906 0 L 22.671875 0 C 22.988281 -0.164063 23.367188 -0.164063 23.683594 0 L 23.292969 4.199219 C 22.132813 3.941406 21.402344 2.792969 21.660156 1.632813 C 21.917969 0.472656 23.066406 -0.257813 24.226563 0 L 20.339844 1.4375 C 19.941406 0.988281 19.984375 0.300781 20.4375 -0.0976563 C 20.886719 -0.496094 21.574219 -0.449219 21.972656 0 L 22.246094 0.429688 C 22.445313 0.988281 22.195313 1.609375 21.664063 1.871094 C 21.128906 2.132813 20.484375 1.953125 20.164063 1.453125 C 19.84375 0.949219 19.953125 0.289063 20.417969 -0.0859375 C 20.882813 -0.457031 21.550781 -0.421875 21.972656 0 L 25.472656 -1.359375 C 25.847656 -0.394531 25.371094 0.695313 24.402344 1.070313 C 23.4375 1.445313 22.347656 0.964844 21.972656 0 L 25.355469 3.035156 C 26.191406 2.097656 26.113281 0.664063 25.179688 -0.175781 C 24.246094 -1.011719 22.808594 -0.933594 21.972656 0 L 22.320313 -0.390625 C 22.777344 -0.699219 23.390625 -0.617188 23.753906 -0.203125 C 24.117188 0.210938 24.109375 0.832031 23.742188 1.242188 C 23.375 1.648438 22.757813 1.71875 22.308594 1.402344 C 21.855469 1.089844 21.714844 0.484375 21.972656 0 Z M 27.6875 37.644531 "/>
<path style=" stroke:none;fill-rule:nonzero;fill:rgb(90.196078%,90.196078%,90.196078%);fill-opacity:1;" d="M 42.777344 59.539063 L 27.222656 62.726563 L 27.222656 62.960938 C 9.835938 70.476563 -10.351563 62.476563 -17.871094 45.089844 C -25.386719 27.707031 -17.386719 7.515625 0 0 L 15.089844 -2.917969 Z M 27.261719 60.550781 L 42.699219 57.359375 L 42.699219 55.6875 L 27.261719 58.878906 Z M 27.261719 60.550781 "/>
</g>
</svg>
