<?xml version="1.0" encoding="UTF-8"?>
<svg xmlns="http://www.w3.org/2000/svg" xmlns:xlink="http://www.w3.org/1999/xlink" width="70pt" height="70pt" viewBox="0 0 70 70" version="1.1">
<defs>
<radialGradient id="radial0" gradientUnits="userSpaceOnUse" cx="125.5" cy="123.98" fx="125.5" fy="123.98" r="11.18" gradientTransform="matrix(3.655556,0,0,3.655556,-429.177778,-421.555556)">
<stop offset="0.27" style="stop-color:rgb(100%,84.313725%,5.882353%);stop-opacity:1;"/>
<stop offset="0.49" style="stop-color:rgb(100%,79.607843%,7.058824%);stop-opacity:1;"/>
<stop offset="0.88" style="stop-color:rgb(99.607843%,67.45098%,9.803922%);stop-opacity:1;"/>
<stop offset="1" style="stop-color:rgb(99.607843%,63.137255%,10.588235%);stop-opacity:1;"/>
</radialGradient>
<filter id="alpha" filterUnits="objectBoundingBox" x="0%" y="0%" width="100%" height="100%">
  <feColorMatrix type="matrix" in="SourceGraphic" values="0 0 0 0 1 0 0 0 0 1 0 0 0 0 1 0 0 0 1 0"/>
</filter>
<mask id="mask0">
  <g filter="url(#alpha)">
<rect x="0" y="0" width="70" height="70" style="fill:rgb(0%,0%,0%);fill-opacity:0.74902;stroke:none;"/>
  </g>
</mask>
<clipPath id="clip1">
  <rect x="0" y="0" width="70" height="70"/>
</clipPath>
<g id="surface5" clip-path="url(#clip1)">
<path style=" stroke:none;fill-rule:nonzero;fill:rgb(100%,57.647059%,0%);fill-opacity:1;" d="M 31.382813 62.726563 C 14.0625 71.394531 -7.007813 64.378906 -15.671875 47.054688 C -24.339844 29.734375 -17.320313 8.667969 0 0 L 0 -17.382813 C 0.0234375 -16.882813 -0.355469 -16.453125 -0.855469 -16.410156 L -0.855469 0.972656 C -5.65625 0.972656 -9.546875 -2.917969 -9.546875 -7.71875 C -9.546875 -12.519531 -5.65625 -16.410156 -0.855469 -16.410156 Z M 31.382813 62.726563 "/>
</g>
<mask id="mask1">
  <g filter="url(#alpha)">
<rect x="0" y="0" width="70" height="70" style="fill:rgb(0%,0%,0%);fill-opacity:0.74902;stroke:none;"/>
  </g>
</mask>
<clipPath id="clip2">
  <rect x="0" y="0" width="70" height="70"/>
</clipPath>
<g id="surface8" clip-path="url(#clip2)">
<path style=" stroke:none;fill-rule:nonzero;fill:rgb(100%,57.647059%,0%);fill-opacity:1;" d="M 25.160156 20.882813 L 45.460938 20.882813 C 46.148438 20.882813 46.707031 21.441406 46.707031 22.128906 L 46.707031 22.320313 C 46.707031 23.007813 46.148438 23.566406 45.460938 23.566406 L 25.160156 23.566406 C 24.472656 23.566406 23.917969 23.007813 23.917969 22.320313 L 23.917969 22.128906 C 23.917969 21.441406 24.472656 20.882813 25.160156 20.882813 Z M 25.160156 20.882813 "/>
</g>
<mask id="mask2">
  <g filter="url(#alpha)">
<rect x="0" y="0" width="70" height="70" style="fill:rgb(0%,0%,0%);fill-opacity:0.74902;stroke:none;"/>
  </g>
</mask>
<clipPath id="clip3">
  <rect x="0" y="0" width="70" height="70"/>
</clipPath>
<g id="surface11" clip-path="url(#clip3)">
<path style=" stroke:none;fill-rule:nonzero;fill:rgb(100%,57.647059%,0%);fill-opacity:1;" d="M 25.160156 25.238281 L 45.460938 25.238281 C 46.148438 25.238281 46.707031 25.796875 46.707031 26.484375 L 46.707031 26.679688 C 46.707031 27.363281 46.148438 27.921875 45.460938 27.921875 L 25.160156 27.921875 C 24.472656 27.921875 23.917969 27.363281 23.917969 26.679688 L 23.917969 26.484375 C 23.917969 25.796875 24.472656 25.238281 25.160156 25.238281 Z M 25.160156 25.238281 "/>
</g>
</defs>
<g id="surface1">
<path style=" stroke:none;fill-rule:nonzero;fill:url(#radial0);" d="M 54.445313 27.609375 C 46.820313 42.644531 28.449219 48.652344 13.417969 41.027344 C -1.617188 33.402344 -7.625 15.035156 0 0 L 40.679688 2.371094 C 40.558594 1.585938 40.558594 0.785156 40.679688 0 L 15.554688 16.253906 C 11.066406 9.316406 13.050781 0.0546875 19.988281 -4.433594 C 26.925781 -8.921875 36.1875 -6.9375 40.679688 0 L 52.34375 11.667969 C 49.121094 14.886719 43.898438 14.886719 40.679688 11.667969 C 37.457031 8.445313 37.457031 3.222656 40.679688 0 L 40.679688 62.222656 C 23.496094 62.222656 9.566406 48.292969 9.566406 31.109375 C 9.566406 13.929688 23.496094 0 40.679688 0 L 45.929688 5.25 C 47.378906 3.800781 47.378906 1.449219 45.929688 0 C 44.476563 -1.449219 42.128906 -1.449219 40.679688 0 L 45.773438 -5.09375 L 48.765625 -8.128906 C 51.011719 -5.894531 51.019531 -2.265625 48.785156 -0.0195313 C 46.550781 2.226563 42.921875 2.234375 40.679688 0 L 38.539063 -2.140625 C 39.128906 -2.730469 40.085938 -2.730469 40.679688 -2.140625 C 41.269531 -1.546875 41.269531 -0.589844 40.679688 0 L 42.816406 -2.179688 C 43.417969 -1.585938 43.425781 -0.621094 42.835938 -0.0195313 C 42.246094 0.582031 41.277344 0.589844 40.679688 0 L 38.539063 -2.179688 C 39.140625 -2.769531 40.105469 -2.757813 40.695313 -2.160156 C 41.289063 -1.558594 41.277344 -0.589844 40.679688 0 L 42.816406 -2.179688 C 43.417969 -1.585938 43.425781 -0.621094 42.835938 -0.0195313 C 42.246094 0.582031 41.277344 0.589844 40.679688 0 L 37.683594 -3.035156 L 37.683594 -4.121094 Z M 35 5.714844 C 32.625 5.664063 30.683594 3.808594 30.523438 1.441406 C 30.363281 -0.929688 32.035156 -3.027344 34.378906 -3.402344 C 36.722656 -3.777344 38.964844 -2.300781 39.550781 0 Z M 35 5.714844 "/>
<use xlink:href="#surface5" mask="url(#mask0)"/>
<use xlink:href="#surface8" mask="url(#mask1)"/>
<use xlink:href="#surface11" mask="url(#mask2)"/>
</g>
</svg>
