<?xml version="1.0" encoding="UTF-8"?>
<svg xmlns="http://www.w3.org/2000/svg" xmlns:xlink="http://www.w3.org/1999/xlink" width="70pt" height="70pt" viewBox="0 0 70 70" version="1.1">
<defs>
<linearGradient id="linear0" gradientUnits="userSpaceOnUse" x1="9" y1="12.43" x2="9" y2="1.26" gradientTransform="matrix(3.888889,0,0,3.888889,0,0)">
<stop offset="0" style="stop-color:rgb(0%,47.058824%,83.137255%);stop-opacity:1;"/>
<stop offset="0.82" style="stop-color:rgb(36.862745%,62.745098%,93.72549%);stop-opacity:1;"/>
</linearGradient>
<linearGradient id="linear1" gradientUnits="userSpaceOnUse" x1="9" y1="16.74" x2="9" y2="12.43" gradientTransform="matrix(3.888889,0,0,3.888889,0,0)">
<stop offset="0.15" style="stop-color:rgb(80%,80%,80%);stop-opacity:1;"/>
<stop offset="1" style="stop-color:rgb(43.921569%,43.921569%,43.921569%);stop-opacity:1;"/>
</linearGradient>
</defs>
<g id="surface1">
<path style=" stroke:none;fill-rule:nonzero;fill:url(#linear0);" d="M 4.589844 4.898438 L 65.371094 4.898438 C 66.574219 4.898438 67.550781 5.875 67.550781 7.078125 L 67.550781 46.160156 C 67.550781 47.363281 66.574219 48.339844 65.371094 48.339844 L 4.589844 48.339844 C 3.386719 48.339844 2.410156 47.363281 2.410156 46.160156 L 2.410156 7.078125 C 2.410156 5.875 3.386719 4.898438 4.589844 4.898438 Z M 4.589844 4.898438 "/>
<path style=" stroke:none;fill-rule:nonzero;fill:rgb(31.372549%,90.196078%,100%);fill-opacity:1;" d="M 45.851563 24.65625 L 45.851563 37.292969 L 35 43.632813 L 35 30.996094 Z M 45.851563 24.65625 "/>
<path style=" stroke:none;fill-rule:nonzero;fill:rgb(61.176471%,92.156863%,100%);fill-opacity:1;" d="M 35 30.996094 L 35 43.632813 L 24.148438 37.292969 L 24.148438 24.65625 Z M 35 30.996094 "/>
<path style=" stroke:none;fill-rule:nonzero;fill:rgb(76.470588%,94.509804%,100%);fill-opacity:1;" d="M 24.148438 37.292969 L 35 30.996094 L 35 43.632813 Z M 24.148438 37.292969 "/>
<path style=" stroke:none;fill-rule:nonzero;fill:rgb(61.176471%,92.156863%,100%);fill-opacity:1;" d="M 45.851563 37.292969 L 35 30.996094 L 35 43.632813 Z M 45.851563 37.292969 "/>
<path style=" stroke:none;fill-rule:nonzero;fill:url(#linear1);" d="M 48.066406 61.484375 C 41.609375 60.472656 41.378906 55.804688 41.378906 48.339844 L 28.621094 48.339844 C 28.621094 55.804688 28.390625 60.472656 21.933594 61.484375 C 4.957031 60.484375 -8 45.910156 -7 28.933594 C -6 11.957031 8.570313 -1 25.550781 0 L 58.140625 0 C 57.007813 0.59375 55.65625 0.59375 54.523438 0 Z M 48.066406 61.484375 "/>
<path style=" stroke:none;fill-rule:nonzero;fill:rgb(76.470588%,94.509804%,100%);fill-opacity:1;" d="M 43.285156 24.1875 C 37.167969 28.414063 28.855469 27.410156 23.925781 21.84375 C 18.996094 16.28125 18.996094 7.910156 23.925781 2.34375 C 28.855469 -3.21875 37.167969 -4.226563 43.285156 0 L 35 23.996094 L 34.261719 24.265625 C 28.5 27.648438 21.148438 26.449219 16.761719 21.414063 C 12.375 16.378906 12.195313 8.929688 16.335938 3.691406 C 20.476563 -1.550781 27.761719 -3.101563 33.679688 0 L 31.890625 1.050781 L 35 31.109375 L 45.851563 24.734375 L 44.371094 23.878906 Z M 43.285156 24.1875 "/>
<path style=" stroke:none;fill-rule:nonzero;fill:rgb(100%,79.215686%,0%);fill-opacity:1;" d="M 48.535156 19.445313 C 48.183594 18.316406 46.785156 16.722656 41.417969 18.355469 C 46.222656 22.535156 47.792969 29.332031 45.304688 35.195313 L 40.601563 34.960938 L 42.234375 31.8125 C 45.800781 31.867188 49.257813 33.050781 52.109375 35.195313 L 52.109375 35.699219 C 51.972656 48.300781 41.679688 58.421875 29.082031 58.351563 C 16.480469 58.28125 6.300781 48.046875 6.300781 35.445313 C 6.300781 22.847656 16.480469 12.613281 29.082031 12.542969 C 41.679688 12.472656 51.972656 22.59375 52.109375 35.195313 L 53.707031 39.394531 L 19.871094 39.394531 C 15.308594 28.476563 19.101563 15.855469 28.929688 9.265625 C 38.757813 2.675781 51.875 3.953125 60.242188 12.324219 C 68.613281 20.691406 69.894531 33.808594 63.300781 43.636719 C 56.710938 53.464844 44.089844 57.257813 33.171875 52.695313 L 41.921875 52.695313 C 41.457031 53.785156 41.535156 55.921875 46.707031 57.984375 C 40.273438 57.8125 34.800781 53.242188 33.484375 46.945313 C 32.171875 40.644531 35.355469 34.265625 41.179688 31.535156 C 47.007813 28.804688 53.945313 30.433594 57.949219 35.472656 C 61.949219 40.511719 61.964844 47.640625 57.984375 52.695313 L 35 23.996094 L 35.3125 23.996094 C 28.839844 21.746094 21.671875 24.265625 18.03125 30.074219 C 14.390625 35.878906 15.246094 43.429688 20.09375 48.273438 C 24.9375 53.121094 32.488281 53.976563 38.292969 50.335938 C 44.101563 46.695313 46.621094 39.527344 44.371094 33.054688 L 44.371094 33.210938 Z M 26.832031 22.050781 C 23.800781 20.84375 22.710938 19.601563 22.945313 18.976563 C 26.875 20.074219 29.171875 24.148438 28.078125 28.078125 C 26.980469 32.007813 22.910156 34.304688 18.976563 33.210938 C 19.367188 33.210938 20.609375 32.859375 23.449219 34.027344 C 24.03125 27.898438 29.277344 23.273438 35.433594 23.46875 C 41.585938 23.664063 46.53125 28.605469 46.726563 34.761719 C 46.917969 40.917969 42.296875 46.164063 36.167969 46.746094 Z M 46.667969 20.300781 C 49.445313 17.460938 53.910156 17.171875 57.03125 19.625 C 60.152344 22.078125 60.925781 26.492188 58.824219 29.859375 C 56.722656 33.226563 52.417969 34.46875 48.84375 32.746094 L 61.832031 45.734375 C 64.945313 44.761719 66.539063 45.035156 66.773438 45.734375 C 66.480469 45.613281 66.316406 45.304688 66.375 44.992188 C 66.4375 44.683594 66.710938 44.460938 67.023438 44.460938 C 67.339844 44.460938 67.613281 44.683594 67.671875 44.992188 C 67.734375 45.304688 67.570313 45.613281 67.277344 45.734375 Z M 46.667969 20.300781 "/>
</g>
</svg>
