<?xml version="1.0" encoding="UTF-8"?>
<svg xmlns="http://www.w3.org/2000/svg" xmlns:xlink="http://www.w3.org/1999/xlink" width="70pt" height="70pt" viewBox="0 0 70 70" version="1.1">
<defs>
<linearGradient id="linear0" gradientUnits="userSpaceOnUse" x1="9" y1="5.38" x2="9" y2="0" gradientTransform="matrix(3.888889,0,0,3.888889,0,0)">
<stop offset="0.199" style="stop-color:rgb(0%,35.686275%,63.137255%);stop-opacity:1;"/>
<stop offset="1" style="stop-color:rgb(0%,47.058824%,83.137255%);stop-opacity:1;"/>
</linearGradient>
<linearGradient id="linear1" gradientUnits="userSpaceOnUse" x1="9" y1="12.713" x2="9" y2="5.287" gradientTransform="matrix(3.888889,0,0,3.888889,0,0)">
<stop offset="0" style="stop-color:rgb(9.803922%,54.117647%,70.196078%);stop-opacity:1;"/>
<stop offset="0.172" style="stop-color:rgb(19.607843%,74.509804%,86.666667%);stop-opacity:1;"/>
<stop offset="0.5" style="stop-color:rgb(31.372549%,90.196078%,100%);stop-opacity:1;"/>
<stop offset="0.5" style="stop-color:rgb(30.980392%,89.411765%,99.215686%);stop-opacity:1;"/>
<stop offset="0.5" style="stop-color:rgb(29.411765%,86.666667%,97.254902%);stop-opacity:1;"/>
<stop offset="0.5" style="stop-color:rgb(26.666667%,82.352941%,93.333333%);stop-opacity:1;"/>
<stop offset="0.5" style="stop-color:rgb(22.745098%,75.686275%,87.843137%);stop-opacity:1;"/>
<stop offset="0.5" style="stop-color:rgb(17.647059%,67.058824%,80.784314%);stop-opacity:1;"/>
<stop offset="0.5" style="stop-color:rgb(11.372549%,56.470588%,72.156863%);stop-opacity:1;"/>
<stop offset="0.5" style="stop-color:rgb(9.803922%,54.117647%,70.196078%);stop-opacity:1;"/>
<stop offset="0.662" style="stop-color:rgb(19.607843%,74.509804%,86.666667%);stop-opacity:1;"/>
<stop offset="0.975" style="stop-color:rgb(31.372549%,90.196078%,100%);stop-opacity:1;"/>
</linearGradient>
</defs>
<g id="surface1">
<path style=" stroke:none;fill-rule:nonzero;fill:rgb(0%,47.058824%,83.137255%);fill-opacity:1;" d="M 35 0 L 4.472656 17.460938 L 4.472656 52.34375 L 35 70 L 65.527344 52.539063 L 65.527344 17.539063 Z M 59.890625 48.882813 L 35 63.273438 L 10.109375 49.035156 L 10.109375 20.921875 L 35 6.535156 L 59.890625 20.960938 Z M 59.890625 48.882813 "/>
<path style=" stroke:none;fill-rule:nonzero;fill:url(#linear0);" d="M 35 0 L 4.472656 17.460938 L 10.109375 20.921875 L 35 6.535156 L 59.890625 20.921875 L 65.527344 17.460938 Z M 35 0 "/>
<path style=" stroke:none;fill-rule:nonzero;fill:rgb(31.372549%,90.196078%,100%);fill-opacity:1;" d="M 49.542969 40.734375 C 55.8125 41.042969 60.640625 46.371094 60.335938 52.636719 C 60.027344 58.902344 54.699219 63.734375 48.433594 63.429688 L 56.0625 12.054688 L 50.207031 8.695313 L 21.519531 25.277344 C 21.417969 24.058594 22.085938 22.902344 23.199219 22.386719 C 24.308594 21.871094 25.625 22.101563 26.488281 22.96875 C 27.355469 23.835938 27.589844 25.148438 27.074219 26.261719 C 26.554688 27.371094 25.402344 28.042969 24.179688 27.9375 L 24.667969 29.972656 C 26.222656 38.910156 20.398438 47.46875 11.511719 49.300781 C 2.628906 51.132813 -6.105469 45.578125 -8.214844 36.757813 C -10.324219 27.933594 -5.046875 19.027344 3.707031 16.644531 C 12.460938 14.261719 21.527344 19.261719 24.179688 27.9375 L -4.398438 44.453125 L 1.433594 47.820313 L 30.03125 31.289063 C 29.105469 32.90625 27.042969 33.464844 25.429688 32.539063 C 23.8125 31.613281 23.253906 29.554688 24.179688 27.9375 L 24.472656 27.867188 C 24.445313 27.753906 24.402344 27.652344 24.375 27.542969 C 23.609375 28.113281 22.605469 28.261719 21.703125 27.9375 Z M 49.542969 40.734375 "/>
<path style=" stroke:none;fill-rule:nonzero;fill:url(#linear1);" d="M 47.019531 35.050781 C 47.019531 31.078125 50.242188 27.855469 54.214844 27.855469 C 58.1875 27.855469 61.410156 31.078125 61.410156 35.050781 C 61.410156 39.023438 58.1875 42.246094 54.214844 42.246094 Z M 22.980469 20.484375 C 22.980469 16.507813 26.199219 13.289063 30.175781 13.289063 C 34.148438 13.289063 37.367188 16.507813 37.367188 20.484375 C 37.367188 24.457031 34.148438 27.675781 30.175781 27.675781 Z M 22.980469 20.484375 "/>
</g>
</svg>
