<?xml version="1.0" encoding="UTF-8"?>
<svg xmlns="http://www.w3.org/2000/svg" xmlns:xlink="http://www.w3.org/1999/xlink" width="61pt" height="70pt" viewBox="0 0 61 70" version="1.1">
<g id="surface1">
<path style=" stroke:none;fill-rule:nonzero;fill:rgb(0%,0%,0%);fill-opacity:1;" d="M 40.085938 10.0625 L 48.363281 14.4375 C 38.828125 -8.898438 47.011719 -35.746094 67.917969 -49.726563 C 88.828125 -63.703125 116.65625 -60.929688 134.417969 -43.09375 C 152.179688 -25.257813 154.945313 2.683594 141.023438 23.675781 C 127.101563 44.671875 100.359375 52.890625 77.121094 43.3125 C 79.925781 17.265625 101 -2.96875 127.042969 -4.613281 C 153.082031 -6.257813 176.515625 11.167969 182.546875 36.660156 C 188.574219 62.148438 175.445313 88.292969 151.449219 98.582031 C 127.457031 108.871094 99.566406 100.3125 85.398438 78.3125 L 101.957031 94.9375 L 118.515625 94.9375 L 111.542969 98.4375 L 30.5 70 L 22.222656 69.125 L 15.25 65.625 C 22.691406 63.289063 30.746094 66.476563 34.59375 73.285156 C 38.441406 80.09375 37.039063 88.675781 31.226563 93.890625 C 25.410156 99.105469 16.761719 99.542969 10.457031 94.9375 C 20.691406 96.753906 27.84375 106.117188 26.9375 116.511719 C 26.03125 126.90625 17.363281 134.878906 6.972656 134.878906 C -3.417969 134.878906 -12.085938 126.90625 -12.996094 116.511719 C -13.902344 106.117188 -6.746094 96.753906 3.484375 94.9375 C 5.667969 82.472656 16.800781 73.621094 29.386719 74.355469 C 41.96875 75.089844 52.011719 85.171875 52.742188 97.804688 C 53.472656 110.441406 44.660156 121.625 32.242188 123.8125 L 32.242188 174.5625 L 40.519531 170.1875 L 42.265625 174.5625 C 49.246094 180.914063 50.878906 191.296875 46.1875 199.5 L 81.042969 234.5 L 83.65625 240.625 C 83.65625 230.960938 91.460938 223.125 101.085938 223.125 C 110.710938 223.125 118.515625 230.960938 118.515625 240.625 C 118.515625 250.289063 110.710938 258.125 101.085938 258.125 L 107.1875 260.75 L 30.5 65.625 L 37.472656 64.75 L 43.570313 62.125 C 43.570313 52.460938 51.375 44.625 61 44.625 C 70.625 44.625 78.429688 52.460938 78.429688 62.125 C 78.429688 71.789063 70.625 79.625 61 79.625 L 63.613281 73.5 C 72.347656 57.554688 92.003906 51.292969 108.292969 59.269531 C 124.582031 67.246094 131.773438 86.65625 124.632813 103.382813 C 117.492188 120.109375 98.539063 128.269531 81.550781 121.925781 C 64.5625 115.582031 55.519531 96.972656 61 79.625 C 64.542969 85.363281 65.660156 92.285156 64.105469 98.851563 C 62.550781 105.421875 58.453125 111.097656 52.722656 114.625 L 77.558594 139.5625 L 97.601563 139.5625 Z M 32.679688 35 L 28.320313 35 L 28.320313 0 L 32.679688 0 Z M 32.679688 35 "/>
</g>
</svg>
