<?xml version="1.0" encoding="UTF-8"?>
<svg xmlns="http://www.w3.org/2000/svg" xmlns:xlink="http://www.w3.org/1999/xlink" width="70pt" height="70pt" viewBox="0 0 70 70" version="1.1">
<defs>
<linearGradient id="linear0" gradientUnits="userSpaceOnUse" x1="9" y1="17.4" x2="9" y2="0.4" gradientTransform="matrix(3.888889,0,0,3.888889,0,0)">
<stop offset="0" style="stop-color:rgb(0%,47.058824%,83.137255%);stop-opacity:1;"/>
<stop offset="0.82" style="stop-color:rgb(36.862745%,62.745098%,93.72549%);stop-opacity:1;"/>
</linearGradient>
</defs>
<g id="surface1">
<path style=" stroke:none;fill-rule:nonzero;fill:url(#linear0);" d="M 54.445313 18.667969 C 54.371094 28.621094 46.238281 36.628906 36.285156 36.554688 C 26.328125 36.480469 18.320313 28.347656 18.394531 18.394531 L 0 3.382813 L 11.394531 3.382813 L 11.394531 13.609375 C 8.570313 13.472656 6.394531 11.070313 6.535156 8.246094 C 6.671875 5.421875 9.074219 3.242188 11.898438 3.382813 L 26.367188 3.382813 C 26.460938 3.238281 26.621094 3.148438 26.792969 3.148438 C 26.96875 3.148438 27.128906 3.238281 27.222656 3.382813 L 36.828125 12.988281 C 39.480469 10.335938 39.480469 6.035156 36.828125 3.382813 C 34.175781 0.730469 29.875 0.730469 27.222656 3.382813 L 36.828125 -6.222656 C 39.480469 -5.984375 41.4375 -3.644531 41.203125 -0.992188 C 40.964844 1.660156 38.625 3.621094 35.972656 3.382813 L 30.214844 3.382813 C 30.390625 3.496094 30.46875 3.707031 30.410156 3.90625 C 30.351563 4.105469 30.171875 4.242188 29.964844 4.242188 C 29.757813 4.242188 29.574219 4.105469 29.515625 3.90625 C 29.457031 3.707031 29.539063 3.496094 29.710938 3.382813 L 29.710938 46.277344 L 41.609375 46.277344 C 37.648438 50.242188 37.648438 56.664063 41.609375 60.628906 C 45.574219 64.589844 52 64.589844 55.960938 60.628906 Z M 54.445313 18.667969 "/>
<path style=" stroke:none;fill-rule:nonzero;fill:rgb(100%,100%,100%);fill-opacity:1;" d="M 18.9375 31.8125 L 28.542969 22.246094 C 34.6875 14.363281 33.277344 2.992188 25.394531 -3.148438 C 17.511719 -9.292969 6.144531 -7.882813 0 0 L 9.605469 9.566406 C 6.964844 9.332031 5.015625 6.996094 5.25 4.355469 C 5.484375 1.714844 7.820313 -0.234375 10.460938 0 L 33.09375 0 C 33.25 -0.0898438 33.445313 -0.0898438 33.601563 0 L 33.601563 13.105469 L 25.550781 13.105469 L 25.550781 33.171875 C 16.390625 33.3125 8.851563 26 8.710938 16.839844 C 8.570313 7.679688 15.882813 0.140625 25.042969 0 L 19.445313 0 C 19.578125 0.210938 19.535156 0.488281 19.347656 0.652344 C 19.15625 0.816406 18.875 0.816406 18.6875 0.652344 C 18.496094 0.488281 18.457031 0.210938 18.589844 0 Z M 18.9375 31.8125 "/>
</g>
</svg>
