<?xml version="1.0" encoding="UTF-8"?>
<svg xmlns="http://www.w3.org/2000/svg" xmlns:xlink="http://www.w3.org/1999/xlink" width="70pt" height="70pt" viewBox="0 0 70 70" version="1.1">
<g id="surface1">
<path style=" stroke:none;fill-rule:nonzero;fill:rgb(0%,0%,0%);fill-opacity:1;" d="M 35 68.5 C 32 68.5 29 68 26 67.5 C 23 66.5 20.5 65.5 18 64 C 15.5 62.5 13 61 11 59 C 9 57 7.5 54.5 6 52 C 4.5 49.5 3 47 2.5 44 C 1.5 41 1.5 38 1.5 35 C 1.5 32 2 29 2.5 26 C 3.5 23 4.5 20.5 6 18 C 7.5 15.5 9 13 11 11 C 13 9 15.5 7.5 18 6 C 20.5 4.5 23 3 26 2.5 C 29 1.5 32 1.5 35 1.5 C 38 1.5 41 2 44 2.5 C 47 3.5 49.5 4.5 52 6 C 54.5 7.5 57 9 59 11 C 61 13 62.5 15.5 64 18 C 65.5 20.5 66.5 23 67.5 26 C 68.5 29 69 32 69 35 C 69 38 68.5 41 68 44 C 67 47 66 49.5 64.5 52 C 63 54.5 61.5 57 59.5 59 C 57.5 61 55 62.5 52.5 64 C 50 65.5 47.5 66.5 44.5 67.5 C 41 68 38 68.5 35 68.5 Z M 35 5.5 C 32.5 5.5 30 6 27 6.5 C 25 7.5 22.5 8.5 20 9.5 C 18 11 16 12.5 14 14.5 L 9.5 20.5 C 8.5 22.5 7.5 25 7 27.5 C 6 30 5.5 32.5 5.5 35 C 5.5 37.5 6 40 6.5 42.5 L 9.5 50 C 12 54.5 15.5 58 20 60.5 C 24.5 63 29.5 64.5 35 64.5 C 37.5 64.5 40 64 42.5 63.5 C 45 63 47.5 62 49.5 60.5 C 54 58 57.5 54.5 60 50 C 62.5 45.5 64 40.5 64 35 C 64 32.5 63.5 30 63 27.5 C 62.5 25 61.5 22.5 60 20.5 C 57.5 16 54 12.5 49.5 10 C 45.5 7 40 5.5 35 5.5 Z M 32.5 28.5 L 37 28.5 L 37 51 L 32.5 51 Z M 32.5 19 L 37 19 L 37 23.5 L 32.5 23.5 Z M 32.5 19 "/>
</g>
</svg>
