<?xml version="1.0" encoding="UTF-8"?>
<svg xmlns="http://www.w3.org/2000/svg" xmlns:xlink="http://www.w3.org/1999/xlink" width="43pt" height="70pt" viewBox="0 0 43 70" version="1.1">
<g id="surface1">
<path style=" stroke:none;fill-rule:nonzero;fill:rgb(0%,0%,0%);fill-opacity:1;" d="M 10.75 0 L 15.050781 0.875 L 18.488281 3.0625 C 18.726563 -5.277344 25.480469 -11.886719 33.679688 -11.804688 C 41.878906 -11.726563 48.503906 -4.984375 48.582031 3.359375 C 48.664063 11.699219 42.164063 18.570313 33.96875 18.8125 L 33.96875 23.1875 C 34.085938 27.535156 35.144531 30.371094 36.332031 29.527344 C 37.519531 28.679688 38.386719 24.472656 38.269531 20.125 L 38.269531 63.875 C 26.394531 63.148438 17.347656 52.769531 18.058594 40.6875 C 18.773438 28.605469 28.976563 19.398438 40.851563 20.125 L 39.558594 22.3125 L 37.410156 23.625 L 8.171875 23.625 L 6.019531 22.3125 L 4.730469 20.125 C 7.488281 20.789063 9.320313 23.453125 8.992188 26.320313 C 8.664063 29.1875 6.277344 31.347656 3.441406 31.347656 C 0.605469 31.347656 -1.78125 29.1875 -2.113281 26.320313 C -2.441406 23.453125 -0.609375 20.789063 2.148438 20.125 L 2.148438 -23.625 C 14.023438 -22.539063 22.785156 -11.863281 21.714844 0.21875 C 20.644531 12.300781 10.152344 21.210938 -1.71875 20.125 L 1.71875 17.9375 Z M 12.898438 17.0625 L 14.621094 16.1875 L 15.910156 14.875 C 16.148438 13.078125 17.695313 11.765625 19.472656 11.847656 C 21.25 11.929688 22.675781 13.378906 22.753906 15.1875 C 22.835938 16.996094 21.542969 18.570313 19.78125 18.8125 C 19.78125 18.375 19.351563 17.9375 18.921875 17.0625 L 17.628906 15.75 L 15.910156 14.875 L 15.910156 21 L 13.761719 23.1875 L 11.609375 21 L 11.609375 4.8125 C 15.410156 4.570313 18.683594 7.507813 18.921875 11.375 C 19.15625 15.242188 16.269531 18.570313 12.46875 18.8125 L 11.179688 20.125 C 10.75 21 10.320313 21.4375 10.320313 21.875 C 11.777344 22.601563 12.636719 24.171875 12.46875 25.8125 L 15.910156 25.8125 L 17.199219 27.125 L 18.921875 28 L 18.921875 74.375 C 5.738281 75.21875 -5.617188 65.035156 -6.449219 51.625 C -7.28125 38.214844 2.730469 26.65625 15.910156 25.8125 L 19.351563 25.8125 C 20.148438 26.539063 20.421875 27.6875 20.039063 28.707031 C 19.660156 29.722656 18.699219 30.394531 17.628906 30.394531 C 16.558594 30.394531 15.601563 29.722656 15.21875 28.707031 C 14.839844 27.6875 15.113281 26.539063 15.910156 25.8125 Z M 43 39.375 L 38.699219 39.375 L 38.699219 63.4375 C 28.488281 62.710938 20.789063 53.703125 21.5 43.3125 C 22.210938 32.921875 31.066406 25.085938 41.28125 25.8125 L 39.988281 28 L 37.839844 29.3125 L 29.671875 29.3125 L 27.519531 28 L 26.230469 25.8125 C 28.988281 26.476563 30.820313 29.140625 30.492188 32.007813 C 30.164063 34.875 27.777344 37.035156 24.941406 37.035156 C 22.105469 37.035156 19.71875 34.875 19.386719 32.007813 C 19.058594 29.140625 20.890625 26.476563 23.648438 25.8125 L 23.648438 39.375 L 21.5 39.375 L 21.5 35 L 30.101563 35 L 30.101563 16.1875 L 25.800781 11.8125 L 25.800781 0 L 38.699219 0 L 38.699219 11.8125 L 34.398438 16.1875 L 34.398438 35 L 43 35 Z M 30.101563 10.0625 L 32.25 12.25 L 34.398438 10.0625 L 34.398438 4.375 L 30.101563 4.375 Z M 34.398438 39.375 L 30.101563 39.375 L 30.101563 63.4375 C 19.886719 65.25 10.167969 58.296875 8.386719 47.90625 C 6.605469 37.515625 13.4375 27.625 23.648438 25.8125 L 27.089844 25.8125 C 27.886719 26.539063 28.160156 27.6875 27.78125 28.707031 C 27.398438 29.722656 26.441406 30.394531 25.371094 30.394531 C 24.300781 30.394531 23.339844 29.722656 22.960938 28.707031 C 22.578125 27.6875 22.851563 26.539063 23.648438 25.8125 Z M 34.398438 39.375 "/>
</g>
</svg>
