<?xml version="1.0" encoding="UTF-8"?>
<svg xmlns="http://www.w3.org/2000/svg" xmlns:xlink="http://www.w3.org/1999/xlink" width="70pt" height="70pt" viewBox="0 0 70 70" version="1.1">
<defs>
<linearGradient id="linear0" gradientUnits="userSpaceOnUse" x1="9" y1="172.704" x2="9" y2="160.613" gradientTransform="matrix(3.888889,0,0,3.888889,0,-622.222222)">
<stop offset="0" style="stop-color:rgb(9.803922%,54.117647%,70.196078%);stop-opacity:1;"/>
<stop offset="0.11" style="stop-color:rgb(13.333333%,64.705882%,79.607843%);stop-opacity:1;"/>
<stop offset="0.23" style="stop-color:rgb(16.078431%,72.941176%,87.058824%);stop-opacity:1;"/>
<stop offset="0.37" style="stop-color:rgb(18.039216%,78.823529%,92.156863%);stop-opacity:1;"/>
<stop offset="0.53" style="stop-color:rgb(19.215686%,81.960784%,95.294118%);stop-opacity:1;"/>
<stop offset="0.78" style="stop-color:rgb(19.607843%,83.137255%,96.078431%);stop-opacity:1;"/>
</linearGradient>
</defs>
<g id="surface1">
<path style=" stroke:none;fill-rule:nonzero;fill:url(#linear0);" d="M 68.054688 34.609375 C 69.285156 39.105469 68.355469 43.921875 65.535156 47.632813 C 62.714844 51.34375 58.328125 53.53125 53.667969 53.554688 L 73.152344 73.042969 L 91.40625 73.042969 L 91.40625 91.707031 L 124.070313 91.707031 C 124.070313 100.726563 116.757813 108.042969 107.738281 108.042969 C 98.71875 108.042969 91.40625 100.726563 91.40625 91.707031 Z M 68.054688 34.609375 "/>
<path style=" stroke:none;fill-rule:nonzero;fill:rgb(94.901961%,94.901961%,94.901961%);fill-opacity:1;" d="M 52.109375 50.167969 C 52.109375 59.617188 44.449219 67.277344 35 67.277344 C 25.550781 67.277344 17.890625 59.617188 17.890625 50.167969 C 17.890625 40.714844 25.550781 33.054688 35 33.054688 C 44.449219 33.054688 52.109375 40.714844 52.109375 50.167969 Z M 52.109375 50.167969 "/>
<path style=" stroke:none;fill-rule:nonzero;fill:rgb(0%,47.058824%,83.137255%);fill-opacity:1;" d="M 49.390625 39.277344 C 51.515625 45.386719 50.175781 52.171875 45.890625 57.015625 L 63.609375 57.015625 Z M 19.832031 49 C 22.046875 36.910156 33.640625 28.90625 45.730469 31.117188 C 57.816406 33.332031 65.824219 44.925781 63.609375 57.015625 L 67.886719 57.015625 C 69.957031 56.800781 72.042969 56.800781 74.109375 57.015625 Z M 28 42.777344 L 33.832031 42.777344 L 33.832031 49 L 27.222656 49 C 19.730469 35.144531 24.136719 17.855469 37.347656 9.277344 C 50.558594 0.695313 68.144531 3.703125 77.753906 16.183594 C 87.367188 28.664063 85.78125 46.433594 74.109375 57.015625 Z M 36.167969 42.777344 L 42 42.777344 C 35.320313 31.464844 36.714844 17.128906 45.449219 7.3125 C 54.1875 -2.5 68.265625 -5.546875 80.277344 -0.222656 C 92.289063 5.105469 99.484375 17.582031 98.074219 30.648438 C 96.667969 43.710938 86.980469 54.371094 74.109375 57.015625 L 36.167969 57.015625 Z M 34.222656 50.945313 L 34.222656 57.167969 L 28 57.167969 L 26.832031 51.332031 Z M 36.167969 50.945313 L 43.167969 50.945313 C 30.144531 35.019531 31.824219 11.699219 46.996094 -2.195313 C 62.164063 -16.089844 85.539063 -15.71875 100.265625 -1.355469 C 114.988281 13.007813 115.933594 36.371094 102.417969 51.878906 C 88.902344 67.382813 65.628906 69.636719 49.390625 57.015625 L 36.167969 57.015625 Z M 45.5 50.945313 L 50.554688 50.945313 C 45.652344 43.085938 47.390625 32.804688 54.605469 26.996094 C 61.820313 21.183594 72.238281 21.679688 78.867188 28.148438 C 85.496094 34.617188 86.25 45.019531 80.621094 52.375 C 74.992188 59.734375 64.753906 61.722656 56.777344 57.015625 L 52.5 57.015625 C 36.265625 55.863281 23.855469 42.0625 24.433594 25.796875 C 25.007813 9.53125 38.363281 -3.359375 54.640625 -3.359375 C 70.914063 -3.359375 84.269531 9.53125 84.84375 25.796875 C 85.421875 42.0625 73.011719 55.863281 56.777344 57.015625 Z M 45.5 49 C 43.785156 51.933594 41.695313 54.628906 39.277344 57.015625 L 43.554688 57.015625 C 52.070313 58.140625 58.253906 65.679688 57.6875 74.253906 C 57.121094 82.824219 50.007813 89.488281 41.417969 89.488281 C 32.828125 89.488281 25.710938 82.824219 25.144531 74.253906 C 24.582031 65.679688 30.761719 58.140625 39.277344 57.015625 Z M 47.445313 40.445313 L 43.945313 40.445313 C 45.652344 46.605469 43.863281 53.207031 39.277344 57.664063 Z M 41.609375 40.445313 L 36.167969 40.445313 L 36.167969 35 C 42.425781 34.140625 48.195313 38.519531 49.054688 44.777344 C 49.914063 51.035156 45.535156 56.804688 39.277344 57.664063 Z M 34.222656 35 L 34.222656 40.832031 L 28.777344 40.832031 C 33.425781 37.933594 39.542969 39.351563 42.441406 44 C 45.34375 48.648438 43.925781 54.765625 39.277344 57.664063 Z M 25.667969 37.722656 C 21.824219 28.152344 25.242188 17.199219 33.847656 11.519531 C 42.453125 5.835938 53.871094 6.992188 61.160156 14.285156 C 68.453125 21.574219 69.609375 32.992188 63.925781 41.59375 C 58.242188 50.199219 47.292969 53.621094 37.722656 49.777344 L 34.222656 49.777344 C 28.839844 48.867188 25.050781 43.984375 25.507813 38.546875 C 25.964844 33.105469 30.511719 28.925781 35.972656 28.925781 C 41.429688 28.925781 45.980469 33.105469 46.433594 38.546875 C 46.890625 43.984375 43.105469 48.867188 37.722656 49.777344 Z M 19.832031 51.332031 L 24.890625 51.332031 C 4.753906 50.390625 -11.300781 34.175781 -12.042969 14.03125 C -12.789063 -6.113281 2.027344 -23.46875 22.039063 -25.894531 C 42.050781 -28.320313 60.582031 -15.007813 64.675781 4.730469 C 68.765625 24.46875 57.050781 44.050781 37.722656 49.777344 L 21.390625 49.777344 C 32.148438 51.40625 39.835938 61.054688 39.019531 71.90625 C 38.203125 82.757813 29.160156 91.148438 18.277344 91.148438 C 7.394531 91.148438 -1.648438 82.757813 -2.464844 71.90625 C -3.28125 61.054688 4.40625 51.40625 15.167969 49.777344 Z M 22.945313 59.5 L 26.445313 59.5 L 28.777344 64.167969 C 27.140625 69.914063 21.941406 73.914063 15.96875 74.023438 C 9.992188 74.132813 4.648438 70.324219 2.804688 64.636719 C 0.964844 58.953125 3.050781 52.734375 7.953125 49.316406 C 12.855469 45.898438 19.414063 46.085938 24.109375 49.777344 Z M 28.777344 59.5 L 33.832031 59.5 L 33.832031 65.332031 C 30.867188 68.761719 25.886719 69.609375 21.957031 67.347656 C 18.027344 65.085938 16.253906 60.355469 17.726563 56.070313 C 19.203125 51.78125 23.511719 49.144531 28 49.777344 Z M 36.167969 65.332031 L 36.167969 59.5 L 41.222656 59.5 C 37.171875 60.304688 33.210938 57.75 32.277344 53.730469 C 31.339844 49.707031 33.761719 45.667969 37.753906 44.601563 C 41.742188 43.535156 45.859375 45.824219 47.054688 49.777344 Z M 44.722656 62.222656 C 46.996094 58.613281 51.277344 56.800781 55.453125 57.683594 C 59.625 58.5625 62.808594 61.949219 63.433594 66.167969 C 64.058594 70.386719 61.992188 74.550781 58.25 76.601563 C 54.511719 78.652344 49.890625 78.15625 46.667969 75.363281 L 50.167969 75.363281 C 47.636719 74.679688 46.003906 72.226563 46.347656 69.628906 C 46.691406 67.03125 48.90625 65.089844 51.527344 65.089844 C 54.148438 65.089844 56.363281 67.03125 56.710938 69.628906 C 57.054688 72.226563 55.417969 74.679688 52.890625 75.363281 Z M 44.722656 62.222656 "/>
<path style=" stroke:none;fill-rule:nonzero;fill:rgb(90.196078%,90.196078%,90.196078%);fill-opacity:1;" d="M 19.832031 44.332031 C 26.378906 42.4375 33.394531 44.996094 37.1875 50.65625 C 40.980469 56.316406 40.675781 63.78125 36.433594 69.113281 C 32.195313 74.445313 24.992188 76.421875 18.621094 74 C 12.253906 71.578125 8.183594 65.316406 8.554688 58.511719 L 10.890625 56.566406 L 12.832031 58.902344 L 10.5 60.84375 C 13.269531 61.125 15.785156 62.570313 17.417969 64.820313 C 19.054688 67.074219 19.648438 69.914063 19.054688 72.632813 Z M 19.832031 44.332031 "/>
<path style=" stroke:none;fill-rule:nonzero;fill:rgb(94.901961%,94.901961%,94.901961%);fill-opacity:1;" d="M 24.890625 21 C 24.890625 23.363281 22.972656 25.277344 20.609375 25.277344 C 18.25 25.277344 16.332031 23.363281 16.332031 21 C 16.332031 18.636719 18.25 16.722656 20.609375 16.722656 C 22.972656 16.722656 24.890625 18.636719 24.890625 21 Z M 24.890625 21 "/>
<path style=" stroke:none;fill-rule:nonzero;fill:rgb(90.196078%,90.196078%,90.196078%);fill-opacity:1;" d="M 49.390625 44.332031 L 47.832031 41.609375 C 47.035156 36.203125 49.792969 30.894531 54.675781 28.4375 C 59.558594 25.980469 65.46875 26.933594 69.332031 30.796875 C 73.199219 34.664063 74.148438 40.570313 71.695313 45.453125 C 69.238281 50.335938 63.925781 53.097656 58.519531 52.296875 L 56.1875 50.742188 L 58.132813 48.410156 L 60.464844 49.964844 C 62.5625 45.007813 67.71875 42.066406 73.050781 42.78125 C 78.386719 43.5 82.582031 47.695313 83.300781 53.03125 C 84.015625 58.363281 81.074219 63.519531 76.117188 65.617188 Z M 49.390625 44.332031 "/>
<path style=" stroke:none;fill-rule:nonzero;fill:rgb(94.901961%,94.901961%,94.901961%);fill-opacity:1;" d="M 53.277344 21 C 53.277344 23.363281 51.363281 25.277344 49 25.277344 C 46.636719 25.277344 44.722656 23.363281 44.722656 21 C 44.722656 18.636719 46.636719 16.722656 49 16.722656 C 51.363281 16.722656 53.277344 18.636719 53.277344 21 Z M 53.277344 21 "/>
<path style=" stroke:none;fill-rule:nonzero;fill:rgb(80.784314%,45.490196%,71.372549%);fill-opacity:1;" d="M 24.890625 43.167969 C 24.890625 45.527344 22.972656 47.445313 20.609375 47.445313 C 18.25 47.445313 16.332031 45.527344 16.332031 43.167969 C 16.332031 40.804688 18.25 38.890625 20.609375 38.890625 C 22.972656 38.890625 24.890625 40.804688 24.890625 43.167969 Z M 24.890625 43.167969 "/>
<path style=" stroke:none;fill-rule:nonzero;fill:rgb(80.784314%,45.490196%,71.372549%);fill-opacity:1;" d="M 53.277344 43.167969 C 53.277344 45.527344 51.363281 47.445313 49 47.445313 C 46.636719 47.445313 44.722656 45.527344 44.722656 43.167969 C 44.722656 40.804688 46.636719 38.890625 49 38.890625 C 51.363281 38.890625 53.277344 40.804688 53.277344 43.167969 Z M 53.277344 43.167969 "/>
</g>
</svg>
