<?xml version="1.0" encoding="UTF-8"?>
<svg xmlns="http://www.w3.org/2000/svg" xmlns:xlink="http://www.w3.org/1999/xlink" width="70pt" height="70pt" viewBox="0 0 70 70" version="1.1">
<g id="surface1">
<path style=" stroke:none;fill-rule:nonzero;fill:rgb(36.470588%,70.196078%,0%);fill-opacity:1;" d="M 70 35 C 70 54.328125 54.328125 70 35 70 C 15.671875 70 0 54.328125 0 35 C 0 15.671875 15.671875 0 35 0 C 54.328125 0 70 15.671875 70 35 Z M 70 35 "/>
<path style=" stroke:none;fill-rule:nonzero;fill:rgb(100%,100%,100%);fill-opacity:1;" d="M 15.542969 36.273438 C 5.527344 40.566406 -6.070313 35.925781 -10.363281 25.910156 C -14.65625 15.890625 -10.015625 4.292969 0 0 L 3.652344 -3.378906 C 4.585938 -2.367188 4.523438 -0.792969 3.515625 0.136719 C 2.507813 1.070313 0.933594 1.007813 0 0 L 9.34375 10.027344 L 26 -11.300781 C 29.121094 -4.121094 25.832031 4.230469 18.652344 7.351563 C 11.472656 10.46875 3.121094 7.179688 0 0 L 3.964844 3.058594 C 4.71875 3.617188 4.882813 4.707031 4.3125 5.480469 L -16.984375 32.75 C -26.027344 32.710938 -33.328125 25.347656 -33.289063 16.304688 C -33.246094 7.257813 -25.882813 -0.0390625 -16.839844 0 Z M 15.542969 36.273438 "/>
</g>
</svg>
