<?xml version="1.0" encoding="UTF-8"?>
<svg xmlns="http://www.w3.org/2000/svg" xmlns:xlink="http://www.w3.org/1999/xlink" width="70pt" height="70pt" viewBox="0 0 70 70" version="1.1">
<g id="surface1">
<path style=" stroke:none;fill-rule:nonzero;fill:rgb(0%,0%,0%);fill-opacity:1;" d="M 21.875 4.375 L 70 4.375 L 70 8.75 L 21.875 8.75 Z M 21.875 26.25 L 21.875 21.875 L 61.25 21.875 L 61.25 26.25 Z M 52.5 39.375 L 52.5 43.75 L 21.875 43.75 L 21.875 39.375 Z M 21.875 61.25 L 21.875 56.875 L 61.25 56.875 L 61.25 61.25 Z M 0 4.375 L 8.75 4.375 L 8.75 13.125 L 0 13.125 Z M 0 21.875 L 8.75 21.875 L 8.75 30.625 L 0 30.625 Z M 0 39.375 L 8.75 39.375 L 8.75 48.125 L 0 48.125 Z M 0 56.875 L 8.75 56.875 L 8.75 65.625 L 0 65.625 Z M 0 56.875 "/>
</g>
</svg>
