<?xml version="1.0" encoding="UTF-8"?>
<svg xmlns="http://www.w3.org/2000/svg" xmlns:xlink="http://www.w3.org/1999/xlink" width="70pt" height="70pt" viewBox="0 0 70 70" version="1.1">
<defs>
<radialGradient id="radial0" gradientUnits="userSpaceOnUse" cx="8.81" cy="9" fx="8.81" fy="9" r="8.41" gradientTransform="matrix(3.888889,0,0,3.888889,0,0)">
<stop offset="0" style="stop-color:rgb(47.45098%,33.72549%,72.941176%);stop-opacity:1;"/>
<stop offset="0.69" style="stop-color:rgb(44.705882%,30.588235%,70.588235%);stop-opacity:1;"/>
<stop offset="0.87" style="stop-color:rgb(43.529412%,29.411765%,69.803922%);stop-opacity:1;"/>
</radialGradient>
<radialGradient id="radial1" gradientUnits="userSpaceOnUse" cx="8.8" cy="9.11" fx="8.8" fy="9.11" r="1.19" gradientTransform="matrix(3.888889,0,0,3.888889,0,0)">
<stop offset="0" style="stop-color:rgb(49.803922%,49.803922%,49.803922%);stop-opacity:1;"/>
<stop offset="1" style="stop-color:rgb(36.862745%,36.862745%,36.862745%);stop-opacity:1;"/>
</radialGradient>
</defs>
<g id="surface1">
<path style=" stroke:none;fill-rule:nonzero;fill:rgb(69.019608%,69.019608%,69.019608%);fill-opacity:1;" d="M 67.394531 35.3125 C 67.394531 53.566406 52.59375 68.367188 34.339844 68.367188 C 16.082031 68.367188 1.285156 53.566406 1.285156 35.3125 C 1.285156 17.054688 16.082031 2.253906 34.339844 2.253906 C 52.59375 2.253906 67.394531 17.054688 67.394531 35.3125 Z M 67.394531 35.3125 "/>
<path style=" stroke:none;fill-rule:nonzero;fill:rgb(100%,100%,100%);fill-opacity:1;" d="M 62.339844 35.195313 C 62.339844 50.703125 49.769531 63.273438 34.261719 63.273438 C 18.753906 63.273438 6.183594 50.703125 6.183594 35.195313 C 6.183594 19.6875 18.753906 7.117188 34.261719 7.117188 C 49.769531 7.117188 62.339844 19.6875 62.339844 35.195313 Z M 62.339844 35.195313 "/>
<path style=" stroke:none;fill-rule:nonzero;fill:rgb(47.843137%,47.843137%,47.843137%);fill-opacity:1;" d="M 47.554688 20.722656 L 51.046875 17.230469 L 52.171875 18.359375 L 48.679688 21.851563 Z M 53.707031 34.496094 L 58.644531 34.496094 L 58.644531 36.089844 L 53.707031 36.089844 Z M 47.304688 49.585938 L 48.433594 48.460938 L 51.921875 51.953125 L 50.792969 53.078125 Z M 33.367188 54.792969 L 34.960938 54.792969 L 34.960938 59.734375 L 33.367188 59.734375 Z M 15.945313 18.203125 L 17.070313 17.074219 L 20.566406 20.566406 L 19.441406 21.695313 Z M 16.171875 52.113281 L 19.664063 48.621094 L 20.789063 49.75 L 17.296875 53.242188 Z M 9.332031 34.496094 L 14.273438 34.496094 L 14.273438 36.089844 L 9.332031 36.089844 Z M 9.332031 34.496094 "/>
<path style=" stroke:none;fill-rule:nonzero;fill:url(#radial0);" d="M 34.378906 2.253906 C 35.027344 2.246094 35.652344 2.5 36.109375 2.964844 C 36.5625 3.425781 36.808594 4.054688 36.789063 4.707031 L 65.023438 4.707031 L 67.003906 7.582031 L 72.527344 -4.707031 L 59.226563 -3.148438 L 62.144531 0.738281 C 52.8125 -14.367188 57.101563 -34.152344 71.851563 -44.039063 C 86.601563 -53.925781 106.53125 -50.375 116.957031 -36 C 127.386719 -21.628906 124.578125 -1.582031 110.601563 9.375 C 96.625 20.328125 76.488281 18.265625 65.023438 4.707031 Z M 34.378906 2.253906 "/>
<path style=" stroke:none;fill-rule:nonzero;fill:rgb(47.843137%,47.843137%,47.843137%);fill-opacity:1;" d="M 34.261719 11.042969 L 34.648438 11.042969 C 35.765625 11.042969 36.671875 11.949219 36.671875 13.066406 L 36.671875 34.339844 C 36.671875 35.457031 35.765625 36.359375 34.648438 36.359375 L 34.261719 36.359375 C 33.144531 36.359375 32.238281 35.457031 32.238281 34.339844 L 32.238281 13.066406 C 32.238281 11.949219 33.144531 11.042969 34.261719 11.042969 Z M 34.261719 11.042969 "/>
<path style=" stroke:none;fill-rule:nonzero;fill:rgb(47.843137%,47.843137%,47.843137%);fill-opacity:1;" d="M 46.128906 47.078125 L 45.851563 47.351563 C 45.0625 48.144531 43.78125 48.144531 42.992188 47.351563 L 34.632813 38.992188 C 33.84375 38.203125 33.84375 36.921875 34.632813 36.132813 L 34.910156 35.859375 C 35.699219 35.070313 36.980469 35.070313 37.769531 35.859375 L 46.128906 44.21875 C 46.917969 45.007813 46.917969 46.289063 46.128906 47.078125 Z M 46.128906 47.078125 "/>
<path style=" stroke:none;fill-rule:nonzero;fill:url(#radial1);" d="M 38.929688 35.3125 C 38.929688 37.886719 36.839844 39.976563 34.261719 39.976563 C 31.683594 39.976563 29.59375 37.886719 29.59375 35.3125 C 29.59375 32.734375 31.683594 30.644531 34.261719 30.644531 C 36.839844 30.644531 38.929688 32.734375 38.929688 35.3125 Z M 38.929688 35.3125 "/>
</g>
</svg>
