<?xml version="1.0" encoding="UTF-8"?>
<svg xmlns="http://www.w3.org/2000/svg" xmlns:xlink="http://www.w3.org/1999/xlink" width="70pt" height="70pt" viewBox="0 0 70 70" version="1.1">
<g id="surface1">
<path style=" stroke:none;fill-rule:nonzero;fill:rgb(0%,0%,0%);fill-opacity:1;" d="M 40.863281 32.113281 C 31.996094 43.394531 15.660156 45.355469 4.375 36.488281 C -6.910156 27.621094 -8.867188 11.285156 0 0 C 0.605469 -2.792969 2.96875 -4.859375 5.820313 -5.085938 C 8.671875 -5.308594 11.332031 -3.636719 12.363281 -0.972656 C 13.398438 1.691406 12.5625 4.71875 10.308594 6.476563 C 8.054688 8.234375 4.914063 8.304688 2.582031 6.648438 L 9.1875 13.257813 L 15.835938 13.257813 C 31.128906 13.175781 43.527344 22.90625 43.527344 34.988281 C 43.527344 47.070313 31.128906 56.925781 15.835938 57.007813 C 14.714844 57.515625 13.492188 57.515625 12.382813 57.007813 L 48.125 18.679688 C 48.125 18.679688 50.882813 15.96875 52.5 17.5 C 54.117188 19.03125 51.320313 21.875 51.320313 21.875 L 40.90625 32.15625 Z M 35 37.1875 C 34.980469 36.3125 35.496094 35.515625 36.304688 35.171875 C 37.109375 34.828125 38.039063 35.007813 38.660156 35.628906 C 39.277344 36.246094 39.457031 37.179688 39.117188 37.984375 C 38.773438 38.789063 37.976563 39.304688 37.101563 39.289063 Z M 35 37.1875 "/>
<path style=" stroke:none;fill-rule:nonzero;fill:rgb(0%,0%,0%);fill-opacity:1;" d="M 35 2.1875 C 42.984375 -10.601563 58.65625 -16.300781 72.988281 -11.632813 C 87.324219 -6.96875 96.636719 6.867188 95.5625 21.902344 C 94.488281 36.941406 83.304688 49.3125 68.453125 51.894531 C 53.601563 54.476563 38.898438 46.605469 32.8125 32.8125 Z M 35 63.4375 C 29.308594 74.085938 17.511719 79.976563 5.578125 78.132813 C -6.351563 76.289063 -15.820313 67.109375 -18.03125 55.242188 C -20.246094 43.371094 -14.722656 31.398438 -4.257813 25.378906 C 6.207031 19.359375 19.332031 20.601563 28.480469 28.480469 Z M 35 63.4375 "/>
<path style=" stroke:none;fill-rule:nonzero;fill:rgb(0%,0%,0%);fill-opacity:1;" d="M 24.324219 21.21875 C 21.511719 28.128906 14.535156 32.40625 7.097656 31.785156 C -0.335938 31.160156 -6.503906 25.78125 -8.128906 18.5 C -9.753906 11.21875 -6.460938 3.726563 0 0 L 0 -4.375 C 1.796875 -3.160156 3.40625 -1.6875 4.769531 0 Z M 21.21875 45.675781 C 8.605469 48.019531 -3.519531 39.695313 -5.863281 27.082031 C -8.207031 14.46875 0.117188 2.34375 12.730469 0 L 8.355469 0 C -3.242188 -1.164063 -11.886719 -11.21875 -11.304688 -22.859375 C -10.71875 -34.5 -1.113281 -43.640625 10.542969 -43.640625 C 22.199219 -43.640625 31.808594 -34.5 32.390625 -22.859375 C 32.976563 -11.21875 24.328125 -1.164063 12.730469 0 Z M 17.71875 32.8125 C 11.175781 35.46875 3.675781 33.820313 -1.152344 28.667969 C -5.976563 23.511719 -7.132813 15.921875 -4.054688 9.566406 C -0.976563 3.210938 5.695313 -0.589844 12.730469 0 L 9.625 -3.105469 C 2.253906 -12.132813 3.253906 -25.351563 11.898438 -33.167969 C 20.542969 -40.984375 33.796875 -40.652344 42.035156 -32.410156 C 50.277344 -24.171875 50.609375 -10.917969 42.792969 -2.273438 C 34.976563 6.371094 21.757813 7.371094 12.730469 0 Z M 52.5 37.1875 C 42.230469 34.84375 35.804688 24.617188 38.148438 14.351563 C 40.492188 4.082031 50.71875 -2.34375 60.988281 0 L 64.09375 3.105469 C 71.464844 12.132813 70.464844 25.351563 61.820313 33.167969 C 53.175781 40.984375 39.921875 40.652344 31.683594 32.410156 C 23.441406 24.171875 23.109375 10.917969 30.925781 2.273438 C 38.742188 -6.371094 51.960938 -7.371094 60.988281 0 Z M 51.054688 28.21875 C 42.464844 30.242188 33.691406 25.648438 30.457031 17.4375 C 27.222656 9.222656 30.511719 -0.117188 38.175781 -4.496094 C 45.839844 -8.871094 55.558594 -6.957031 60.988281 0 L 65.363281 0 C 62.773438 0.457031 60.121094 0.457031 57.53125 0 Z M 51.054688 28.21875 "/>
</g>
</svg>
