<?xml version="1.0" encoding="UTF-8"?>
<svg xmlns="http://www.w3.org/2000/svg" xmlns:xlink="http://www.w3.org/1999/xlink" width="70pt" height="65pt" viewBox="0 0 70 65" version="1.1">
<g id="surface1">
<path style=" stroke:none;fill-rule:nonzero;fill:rgb(0%,0%,0%);fill-opacity:1;" d="M 70 56.332031 L 30.625 56.332031 C 30.417969 52.277344 33.078125 48.625 37.027344 47.539063 C 40.976563 46.457031 45.15625 48.230469 47.085938 51.8125 C 49.011719 55.394531 48.171875 59.824219 45.0625 62.46875 C 41.953125 65.113281 37.40625 65.265625 34.125 62.832031 L 31.0625 65 L 15.75 65 L 12.6875 62.832031 C 15.988281 63.5 18.242188 66.535156 17.902344 69.855469 C 17.566406 73.175781 14.742188 75.703125 11.375 75.703125 C 8.007813 75.703125 5.183594 73.175781 4.847656 69.855469 C 4.507813 66.535156 6.761719 63.5 10.0625 62.832031 L 0 62.832031 L 0 58.5 L 8.75 58.5 C 7.875 54.734375 9.621094 50.847656 13.035156 48.972656 C 16.449219 47.101563 20.703125 47.691406 23.464844 50.425781 C 26.222656 53.160156 26.820313 57.371094 24.929688 60.753906 C 23.039063 64.136719 19.117188 65.867188 15.3125 65 L 18.375 62.832031 L 26.25 62.832031 L 29.3125 65 C 30.554688 62.421875 33.351563 60.949219 36.207031 61.371094 C 39.058594 61.796875 41.296875 64.015625 41.722656 66.839844 C 42.152344 69.664063 40.664063 72.433594 38.0625 73.667969 L 77.4375 73.667969 Z M 19.6875 60.667969 L 22.3125 60.667969 L 24.5 59.367188 L 25.8125 57.199219 C 25.8125 54.089844 28.359375 51.566406 31.5 51.566406 C 34.640625 51.566406 37.1875 54.089844 37.1875 57.199219 C 37.1875 60.3125 34.640625 62.832031 31.5 62.832031 L 30.1875 60.667969 L 28 59.367188 L 17.0625 59.367188 L 14.875 60.667969 L 13.5625 62.832031 C 15.496094 64.023438 16.53125 66.238281 16.1875 68.464844 L 17.5 70.632813 L 19.6875 71.933594 Z M 70 13 L 30.625 13 C 30.417969 8.945313 33.078125 5.292969 37.027344 4.207031 C 40.976563 3.121094 45.15625 4.898438 47.085938 8.480469 C 49.011719 12.0625 48.171875 16.488281 45.0625 19.132813 C 41.953125 21.777344 37.40625 21.929688 34.125 19.5 L 31.0625 21.667969 L 15.75 21.667969 L 12.6875 19.5 C 15.988281 20.167969 18.242188 23.203125 17.902344 26.523438 C 17.566406 29.84375 14.742188 32.367188 11.375 32.367188 C 8.007813 32.367188 5.183594 29.84375 4.847656 26.523438 C 4.507813 23.203125 6.761719 20.167969 10.0625 19.5 L 0 19.5 L 0 8.667969 L 8.75 8.667969 C 7.875 4.898438 9.621094 1.011719 13.035156 -0.859375 C 16.449219 -2.734375 20.703125 -2.140625 23.464844 0.59375 C 26.222656 3.328125 26.820313 7.539063 24.929688 10.921875 C 23.039063 14.300781 19.117188 16.035156 15.3125 15.167969 L 18.375 13 L 26.25 13 L 29.3125 15.167969 C 29.3125 18.996094 26.179688 22.101563 22.3125 22.101563 C 18.445313 22.101563 15.3125 18.996094 15.3125 15.167969 L 54.6875 15.167969 Z M 19.6875 17.332031 L 22.3125 17.332031 L 24.5 16.035156 L 25.8125 13.867188 C 25.8125 10.753906 28.359375 8.234375 31.5 8.234375 C 34.640625 8.234375 37.1875 10.753906 37.1875 13.867188 C 37.1875 16.976563 34.640625 19.5 31.5 19.5 L 30.1875 17.332031 L 28 16.035156 L 17.0625 16.035156 L 14.875 17.332031 L 13.5625 19.5 C 15.496094 20.6875 16.53125 22.90625 16.1875 25.132813 L 17.5 27.300781 L 19.6875 28.601563 Z M 0 30.332031 L 39.375 30.332031 C 38.5 26.566406 40.246094 22.679688 43.660156 20.808594 C 47.074219 18.933594 51.328125 19.527344 54.089844 22.257813 C 56.847656 24.992188 57.445313 29.207031 55.554688 32.585938 C 53.664063 35.96875 49.742188 37.699219 45.9375 36.832031 L 49 34.667969 L 56.875 34.667969 L 59.9375 36.832031 C 61.179688 34.253906 63.976563 32.785156 66.832031 33.207031 C 69.683594 33.628906 71.921875 35.847656 72.347656 38.671875 C 72.777344 41.5 71.289063 44.269531 68.6875 45.5 L 77.4375 45.5 L 77.4375 49.832031 L 68.6875 49.832031 C 68.480469 45.777344 71.140625 42.125 75.089844 41.039063 C 79.039063 39.957031 83.21875 41.730469 85.148438 45.3125 C 87.074219 48.894531 86.234375 53.324219 83.125 55.96875 C 80.015625 58.613281 75.46875 58.765625 72.1875 56.332031 L 69.125 58.5 L 61.25 58.5 L 58.1875 56.332031 C 61.488281 57 63.742188 60.035156 63.402344 63.355469 C 63.066406 66.675781 60.242188 69.203125 56.875 69.203125 C 53.507813 69.203125 50.683594 66.675781 50.347656 63.355469 C 50.007813 60.035156 52.261719 57 55.5625 56.332031 L 0 56.332031 Z M 52.9375 38.566406 L 55.125 37.265625 L 56.4375 35.101563 C 56.4375 31.988281 58.984375 29.464844 62.125 29.464844 C 65.265625 29.464844 67.8125 31.988281 67.8125 35.101563 C 67.8125 38.210938 65.265625 40.734375 62.125 40.734375 L 60.8125 38.566406 L 58.625 37.265625 L 53.375 37.265625 L 51.1875 38.566406 L 49.875 40.734375 C 51.808594 41.921875 52.84375 44.136719 52.5 46.367188 L 53.8125 48.535156 L 56 49.832031 L 61.25 49.832031 Z M 52.9375 38.566406 "/>
</g>
</svg>
