<?xml version="1.0" encoding="UTF-8"?>
<svg xmlns="http://www.w3.org/2000/svg" xmlns:xlink="http://www.w3.org/1999/xlink" width="70pt" height="70pt" viewBox="0 0 70 70" version="1.1">
<g id="surface1">
<path style=" stroke:none;fill-rule:nonzero;fill:rgb(0%,0%,0%);fill-opacity:1;" d="M 70 24.386719 L 67.742188 26.644531 L 63.226563 29.355469 L 57.804688 29.355469 L 52.839844 33.871094 L 46.515625 33.871094 L 56.453125 24.386719 L 60.066406 24.386719 C 53.332031 40.972656 34.425781 48.960938 17.839844 42.226563 C 1.253906 35.492188 -6.734375 16.585938 0 0 L -17.613281 -16.710938 C -16.28125 -16.402344 -15.042969 -15.785156 -14 -14.902344 L -14 13.546875 L -13.546875 13.546875 L 28.453125 31.160156 L 18.066406 31.160156 L 14.453125 32.96875 L 31.613281 48.773438 L 31.613281 55.546875 L 24.839844 48.773438 L 4.96875 68.644531 L 0 70 L 1.804688 65.484375 L 21.675781 45.160156 L 8.128906 31.613281 L 9.484375 30.257813 C -2.988281 36.742188 -18.355469 31.890625 -24.839844 19.417969 C -31.324219 6.949219 -26.472656 -8.417969 -14 -14.902344 L -7.226563 -15.804688 L -4.515625 -15.804688 L -1.804688 -14.902344 L 11.742188 -28.453125 C 13.660156 -28.792969 15.546875 -27.730469 16.25 -25.914063 C 16.949219 -24.097656 16.261719 -22.039063 14.613281 -21.003906 C 12.960938 -19.972656 10.8125 -20.253906 9.484375 -21.675781 L 15.804688 -21.675781 L 17.613281 -23.933594 L 19.871094 -26.195313 Z M 51.933594 38.386719 C 35.347656 48.363281 13.816406 43.003906 3.839844 26.417969 C -6.136719 9.832031 -0.78125 -11.699219 15.804688 -21.675781 L 20.773438 -18.066406 C 27.515625 -11.1875 27.859375 -0.292969 21.566406 6.996094 C 15.273438 14.285156 4.445313 15.535156 -3.339844 9.871094 C -11.128906 4.207031 -13.273438 -6.480469 -8.277344 -14.710938 C -3.28125 -22.941406 7.1875 -25.96875 15.804688 -21.675781 C 18.207031 -27.128906 23.703125 -30.550781 29.652344 -30.296875 C 35.601563 -30.039063 40.785156 -26.164063 42.710938 -20.527344 C 44.632813 -14.890625 42.90625 -8.652344 38.351563 -4.8125 C 33.800781 -0.972656 27.359375 -0.316406 22.128906 -3.160156 L 17.160156 0.453125 C 20.28125 -5.753906 27.179688 -9.09375 33.984375 -7.6875 C 40.789063 -6.285156 45.800781 -0.488281 46.207031 6.445313 C 46.617188 13.382813 42.316406 19.726563 35.726563 21.917969 C 29.132813 24.109375 21.890625 21.605469 18.066406 15.804688 L 40.644531 65.484375 C 26.925781 66.855469 14.695313 56.847656 13.324219 43.128906 C 11.949219 29.410156 21.960938 17.179688 35.675781 15.804688 L 40.644531 12.195313 C 48.027344 8.78125 56.792969 11.523438 60.910156 18.535156 C 65.027344 25.546875 63.15625 34.539063 56.578125 39.324219 C 50 44.105469 40.867188 43.117188 35.464844 37.039063 C 30.0625 30.960938 30.15625 21.777344 35.675781 15.804688 Z M 40.644531 54.195313 C 39.199219 48.289063 41.859375 42.144531 47.15625 39.164063 C 52.453125 36.183594 59.085938 37.09375 63.382813 41.390625 C 67.683594 45.6875 68.59375 52.320313 65.609375 57.617188 C 62.628906 62.914063 56.484375 65.574219 50.582031 64.128906 L 54.195313 66.839844 L 61.871094 66.839844 C 61.121094 69.957031 57.988281 71.878906 54.871094 71.128906 C 51.753906 70.378906 49.832031 67.246094 50.582031 64.128906 L 34.773438 48.773438 L 33.417969 51.484375 C 35.554688 52.707031 37.097656 54.746094 37.695313 57.132813 C 38.292969 59.519531 37.890625 62.046875 36.582031 64.128906 Z M 61.417969 60.515625 L 62.773438 57.804688 C 64.5625 53.742188 68.835938 51.355469 73.238281 51.96875 C 77.636719 52.582031 81.097656 56.039063 81.707031 60.441406 C 82.320313 64.839844 79.9375 69.113281 75.871094 70.902344 L 85.804688 70.902344 L 82.195313 68.195313 L 77.675781 67.289063 L 74.515625 68.195313 C 75.300781 68.886719 75.785156 69.859375 75.871094 70.902344 Z M 61.417969 60.515625 "/>
</g>
</svg>
