<?xml version="1.0" encoding="UTF-8"?>
<svg xmlns="http://www.w3.org/2000/svg" xmlns:xlink="http://www.w3.org/1999/xlink" width="70pt" height="70pt" viewBox="0 0 70 70" version="1.1">
<g id="surface1">
<path style=" stroke:none;fill-rule:nonzero;fill:rgb(0%,0%,0%);fill-opacity:1;" d="M 45.9375 0 L 52.5 0.875 C 52.257813 15.371094 40.308594 26.929688 25.8125 26.6875 C 11.316406 26.445313 -0.242188 14.496094 0 0 L 4.8125 3.5 L 8.75 8.3125 C 10.691406 -7.273438 24.261719 -18.765625 39.953125 -18.117188 C 55.644531 -17.46875 68.21875 -4.894531 68.867188 10.796875 C 69.515625 26.488281 58.023438 40.058594 42.4375 42 L 42.4375 46.375 C 41.519531 54.777344 41.757813 61.097656 42.964844 60.492188 C 44.171875 59.890625 45.894531 52.589844 46.8125 44.1875 L 42.875 49 L 38.0625 52.9375 L 32.375 55.125 L 25.8125 56 C 31.816406 45.996094 43.867188 41.375 55.019531 44.800781 C 66.171875 48.226563 73.554688 58.816406 72.90625 70.464844 C 72.257813 82.113281 63.75 91.820313 52.289063 93.992188 C 40.824219 96.160156 29.359375 90.230469 24.5 79.625 L 3.9375 69.5625 L 0.4375 69.5625 C 3.214844 62.917969 10.855469 59.785156 17.5 62.5625 C 24.144531 65.339844 27.277344 72.980469 24.5 79.625 L 27.5625 39.375 C 38.332031 35.394531 50.402344 39.730469 56.175781 49.65625 C 61.949219 59.578125 59.753906 72.21875 50.96875 79.609375 C 42.183594 87.003906 29.355469 87.007813 20.5625 79.625 C 9.40625 80.359375 -0.914063 73.707031 -4.851563 63.242188 C -8.792969 52.78125 -5.417969 40.972656 3.453125 34.167969 C 12.324219 27.367188 24.605469 27.171875 33.6875 33.6875 C 35.148438 25.375 42.601563 19.476563 51.023438 19.964844 C 59.449219 20.453125 66.171875 27.175781 66.660156 35.601563 C 67.148438 44.023438 61.25 51.476563 52.9375 52.9375 L 33.6875 3.5 C 47.339844 -1.816406 62.714844 4.941406 68.03125 18.59375 C 73.347656 32.246094 66.589844 47.621094 52.9375 52.9375 Z M 45.9375 43.75 C 46.664063 34.710938 54.335938 27.820313 63.402344 28.0625 C 72.46875 28.304688 79.757813 35.59375 80 44.660156 C 80.242188 53.726563 73.351563 61.398438 64.3125 62.125 L 64.3125 66.0625 C 63.816406 70.574219 62.699219 74.636719 61.222656 77.351563 C 59.742188 80.066406 58.019531 81.199219 56.4375 80.5 L 73.0625 97.125 L 91.4375 97.125 C 100.652344 97.628906 108.121094 96.375 108.121094 94.320313 C 108.121094 92.265625 100.652344 90.191406 91.4375 89.6875 C 92.402344 73.222656 91.71875 60.753906 89.90625 61.84375 C 88.09375 62.929688 85.839844 77.160156 84.875 93.625 C 87.039063 93.1875 89.273438 93.1875 91.4375 93.625 C 92.164063 84.585938 99.835938 77.695313 108.902344 77.9375 C 117.96875 78.179688 125.257813 85.46875 125.5 94.535156 C 125.742188 103.601563 118.851563 111.273438 109.8125 112 L 109.8125 118.5625 C 110.414063 118.082031 111.011719 118.082031 111.5625 118.5625 Z M 45.9375 43.75 "/>
</g>
</svg>
