<?xml version="1.0" encoding="UTF-8"?>
<svg xmlns="http://www.w3.org/2000/svg" xmlns:xlink="http://www.w3.org/1999/xlink" width="70pt" height="70pt" viewBox="0 0 70 70" version="1.1">
<defs>
<linearGradient id="linear0" gradientUnits="userSpaceOnUse" x1="5.05" y1="10.55" x2="5.05" y2="13.48" gradientTransform="matrix(3.888889,0,0,3.888889,0,0)">
<stop offset="0" style="stop-color:rgb(46.27451%,73.72549%,17.647059%);stop-opacity:1;"/>
<stop offset="1" style="stop-color:rgb(36.862745%,58.823529%,14.117647%);stop-opacity:1;"/>
</linearGradient>
<linearGradient id="linear1" gradientUnits="userSpaceOnUse" x1="12.84" y1="10.57" x2="12.84" y2="13.5" gradientTransform="matrix(3.888889,0,0,3.888889,0,0)">
<stop offset="0" style="stop-color:rgb(46.27451%,73.72549%,17.647059%);stop-opacity:1;"/>
<stop offset="1" style="stop-color:rgb(36.862745%,58.823529%,14.117647%);stop-opacity:1;"/>
</linearGradient>
</defs>
<g id="surface1">
<path style=" stroke:none;fill-rule:nonzero;fill:rgb(58.039216%,58.039216%,58.039216%);fill-opacity:1;" d="M 12.40625 60.667969 C 14.960938 56.742188 19.960938 55.207031 24.277344 57.027344 C 28.59375 58.84375 30.992188 63.492188 29.96875 68.0625 C 28.949219 72.636719 24.800781 75.820313 20.121094 75.625 C 15.441406 75.433594 11.570313 71.917969 10.929688 67.277344 L 10.929688 53.550781 C 10.929688 51.292969 10.035156 50.089844 8.167969 50.089844 L 8.167969 46.667969 C 10.035156 46.667969 10.929688 45.460938 10.929688 43.089844 L 10.929688 16.214844 C 12.019531 13.175781 15.066406 11.285156 18.277344 11.65625 C 21.488281 12.027344 24.023438 14.5625 24.394531 17.773438 C 24.765625 20.984375 22.875 24.027344 19.832031 25.121094 L 19.832031 28.582031 C 17.851563 28.582031 16.761719 29.632813 16.761719 31.890625 L 16.761719 45.109375 C 16.761719 48.144531 15.867188 50.011719 13.882813 50.789063 C 6.796875 40.597656 9.3125 26.589844 19.503906 19.503906 C 29.695313 12.414063 43.703125 14.929688 50.789063 25.121094 L 50.789063 38.226563 C 50 36.085938 50.804688 33.683594 52.726563 32.449219 C 54.652344 31.21875 57.171875 31.492188 58.785156 33.109375 C 60.402344 34.722656 60.675781 37.242188 59.445313 39.164063 C 58.210938 41.089844 55.808594 41.894531 53.667969 41.105469 L 53.667969 44.566406 Z M 57.59375 9.332031 C 56.367188 5.089844 58.167969 0.550781 61.972656 -1.695313 C 65.777344 -3.941406 70.621094 -3.328125 73.742188 -0.203125 C 76.867188 2.917969 77.480469 7.761719 75.234375 11.566406 C 72.988281 15.371094 68.449219 17.171875 64.207031 15.945313 L 64.207031 29.671875 C 64.207031 31.929688 65.101563 33.132813 66.964844 33.132813 L 66.964844 36.554688 C 65.101563 36.554688 64.207031 37.761719 64.207031 40.132813 L 64.207031 53.472656 C 65.273438 49.855469 69.015625 47.734375 72.664063 48.675781 C 76.316406 49.617188 78.566406 53.28125 77.753906 56.964844 C 76.941406 60.644531 73.359375 63.023438 69.648438 62.339844 L 69.648438 58.878906 C 71.632813 58.878906 72.722656 57.828125 72.722656 55.570313 L 72.722656 42.351563 C 72.722656 39.316406 73.617188 37.449219 75.601563 36.671875 C 82.6875 38.238281 87.164063 45.257813 85.59375 52.34375 C 84.027344 59.433594 77.011719 63.90625 69.921875 62.339844 L 69.921875 16.214844 C 69.480469 17.503906 68.523438 18.546875 67.277344 19.09375 Z M 57.59375 9.332031 "/>
<path style=" stroke:none;fill-rule:nonzero;fill:rgb(0%,35.686275%,63.137255%);fill-opacity:1;" d="M 36.59375 32.472656 L 36.59375 27.535156 L 33.09375 27.535156 L 33.09375 32.472656 C 24.128906 32.277344 17.015625 24.851563 17.207031 15.886719 C 17.402344 6.917969 24.828125 -0.191406 33.792969 0 L 19.445313 0 C 19.878906 -0.25 20.410156 -0.25 20.84375 0 L 20.84375 6.417969 L 24.34375 6.417969 L 24.34375 2.878906 C 23.550781 3.84375 22.121094 3.984375 21.15625 3.1875 C 20.1875 2.394531 20.050781 0.964844 20.84375 0 L 46.277344 0 C 46.277344 7.023438 40.585938 12.714844 33.5625 12.714844 C 26.539063 12.714844 20.84375 7.023438 20.84375 0 L 20.84375 3.617188 L 24.304688 3.617188 L 24.304688 34.570313 C 14.757813 34.957031 6.707031 27.53125 6.320313 17.984375 C 5.933594 8.4375 13.359375 0.386719 22.90625 0 L 37.292969 0 C 37.570313 0.160156 37.703125 0.480469 37.621094 0.789063 C 37.539063 1.09375 37.261719 1.304688 36.945313 1.304688 C 36.628906 1.304688 36.351563 1.09375 36.269531 0.789063 C 36.1875 0.480469 36.320313 0.160156 36.59375 0 Z M 36.59375 32.472656 "/>
<path style=" stroke:none;fill-rule:nonzero;fill:rgb(0%,47.058824%,83.137255%);fill-opacity:1;" d="M 41.261719 12.484375 L 28.195313 12.484375 C 24.746094 12.085938 22.273438 8.96875 22.671875 5.523438 C 23.070313 2.074219 26.1875 -0.398438 29.632813 0 L 29.632813 13.066406 C 26.023438 13.066406 23.101563 10.140625 23.101563 6.535156 C 23.101563 2.925781 26.023438 0 29.632813 0 L 42.699219 0 C 42.699219 3.609375 39.773438 6.535156 36.167969 6.535156 C 32.558594 6.535156 29.632813 3.609375 29.632813 0 L 29.632813 13.921875 C 25.789063 14.320313 22.351563 11.523438 21.953125 7.679688 C 21.554688 3.835938 24.351563 0.398438 28.195313 0 Z M 40.015625 24.8125 C 33.164063 24.554688 27.820313 18.789063 28.078125 11.9375 C 28.335938 5.085938 34.097656 -0.257813 40.949219 0 L 30.371094 0 C 30.761719 0.214844 30.957031 0.664063 30.847656 1.09375 C 30.738281 1.523438 30.351563 1.824219 29.90625 1.824219 C 29.460938 1.824219 29.074219 1.523438 28.964844 1.09375 C 28.855469 0.664063 29.050781 0.214844 29.4375 0 L 29.4375 16.140625 C 24.980469 16.140625 21.371094 12.527344 21.371094 8.070313 C 21.371094 3.613281 24.980469 0 29.4375 0 L 38.890625 0 C 38.890625 2.609375 36.773438 4.726563 34.164063 4.726563 C 31.554688 4.726563 29.4375 2.609375 29.4375 0 Z M 40.015625 24.8125 "/>
<path style=" stroke:none;fill-rule:nonzero;fill:url(#linear0);" d="M 14.972656 41.027344 L 24.304688 41.027344 C 24.886719 41.027344 25.355469 41.496094 25.355469 42.078125 L 25.355469 51.410156 C 25.355469 51.992188 24.886719 52.460938 24.304688 52.460938 L 14.972656 52.460938 C 14.390625 52.460938 13.921875 51.992188 13.921875 51.410156 L 13.921875 42.078125 C 13.921875 41.496094 14.390625 41.027344 14.972656 41.027344 Z M 14.972656 41.027344 "/>
<path style=" stroke:none;fill-rule:nonzero;fill:url(#linear1);" d="M 45.304688 41.105469 L 54.640625 41.105469 C 55.21875 41.105469 55.6875 41.574219 55.6875 42.15625 L 55.6875 51.488281 C 55.6875 52.070313 55.21875 52.539063 54.640625 52.539063 L 45.304688 52.539063 C 44.726563 52.539063 44.253906 52.070313 44.253906 51.488281 L 44.253906 42.15625 C 44.253906 41.574219 44.726563 41.105469 45.304688 41.105469 Z M 45.304688 41.105469 "/>
</g>
</svg>
