<?xml version="1.0" encoding="UTF-8"?>
<svg xmlns="http://www.w3.org/2000/svg" xmlns:xlink="http://www.w3.org/1999/xlink" width="70pt" height="70pt" viewBox="0 0 70 70" version="1.1">
<g id="surface1">
<path style=" stroke:none;fill-rule:nonzero;fill:rgb(0%,0%,0%);fill-opacity:1;" d="M 35 0 C 32.890625 -14.191406 40.121094 -28.132813 52.933594 -34.585938 C 65.75 -41.039063 81.253906 -38.542969 91.398438 -28.398438 C 101.542969 -18.253906 104.039063 -2.75 97.585938 10.066406 C 91.132813 22.878906 77.191406 30.109375 63 28 L 63 79.1875 C 65.679688 65.355469 78.214844 55.671875 92.273438 56.566406 C 106.332031 57.464844 117.535156 68.667969 118.433594 82.726563 C 119.328125 96.785156 109.644531 109.320313 95.8125 112 L 95.8125 116.375 C 94.773438 119.675781 94.640625 123.410156 95.488281 125.648438 C 96.335938 127.886719 97.972656 128.121094 99.546875 126.230469 C 101.121094 124.339844 102.28125 120.75 102.425781 117.320313 C 102.574219 113.894531 101.671875 111.398438 100.1875 111.125 C 96.925781 118.644531 94.1875 120.578125 92.75 116.375 C 98.8125 105.878906 110.941406 100.476563 122.800781 102.988281 C 134.65625 105.503906 143.550781 115.359375 144.835938 127.410156 C 146.121094 139.464844 139.507813 150.976563 128.445313 155.933594 C 117.386719 160.890625 104.390625 158.167969 96.25 149.1875 L 124.25 177.1875 L 169.75 177.1875 C 179.148438 169.6875 192.285156 169.023438 202.390625 175.539063 C 212.492188 182.054688 217.3125 194.292969 214.359375 205.949219 C 211.40625 217.601563 201.34375 226.070313 189.355469 226.988281 C 177.367188 227.90625 166.128906 221.070313 161.4375 210 C 111.179688 246.847656 40.566406 235.976563 3.71875 185.71875 C -33.128906 135.460938 -22.257813 64.847656 28 28 L 0 78.75 Z M 35 65.625 L 43.3125 64.75 L 50.3125 61.25 C 50.3125 49.410156 59.910156 39.8125 71.75 39.8125 C 83.589844 39.8125 93.1875 49.410156 93.1875 61.25 C 93.1875 73.089844 83.589844 82.6875 71.75 82.6875 L 71.75 86.1875 C 73.078125 98.460938 70.140625 110.820313 63.4375 121.1875 L 84.875 142.625 C 91.078125 151.082031 89.746094 162.886719 81.8125 169.75 L 101.9375 189.875 L 123.375 189.875 C 132.652344 195.542969 135.75 207.550781 130.375 217 L 150.5 217 C 149.445313 219.152344 149.015625 222.375 149.433594 225.023438 C 149.851563 227.671875 151.019531 229.164063 152.347656 228.734375 C 153.675781 228.304688 154.867188 226.050781 155.3125 223.125 L 162.3125 226.625 Z M 35 52.5 L 39.8125 51.625 L 44.1875 49.875 C 92.027344 19.1875 155.6875 33.097656 186.375 80.9375 C 217.0625 128.777344 203.152344 192.4375 155.3125 223.125 L 158.375 219.1875 L 162.3125 220.9375 L 158.8125 226.1875 L 154 230.125 L 148.75 232.3125 L 35 56.875 L 28.875 56 L 23.625 53.8125 L 18.8125 49.875 L 15.3125 44.625 L 19.25 42.875 L 22.3125 46.8125 C 71 10.085938 140.242188 19.78125 176.96875 68.46875 C 213.695313 117.15625 204 186.398438 155.3125 223.125 L 159.6875 224.875 Z M 21.875 30.625 L 20.125 30.625 L 18.8125 29.75 L 17.9375 28.4375 C 71.699219 -9.496094 146.035156 3.332031 183.96875 57.09375 C 221.902344 110.855469 209.074219 185.191406 155.3125 223.125 L 156.1875 221.8125 L 157.5 220.9375 L 161 220.9375 L 162.3125 221.8125 L 163.1875 223.125 C 163.1875 225.300781 161.425781 227.0625 159.25 227.0625 C 157.074219 227.0625 155.3125 225.300781 155.3125 223.125 C 154.105469 222.699219 153.382813 221.464844 153.601563 220.207031 C 153.816406 218.945313 154.910156 218.023438 156.1875 218.023438 C 157.464844 218.023438 158.558594 218.945313 158.773438 220.207031 C 158.992188 221.464844 158.269531 222.699219 157.0625 223.125 L 156.1875 224.4375 L 154.875 225.3125 Z M 48.125 30.625 L 46.375 30.625 L 45.0625 29.75 L 44.1875 28.4375 C 97.949219 -2.730469 166.800781 15.582031 197.96875 69.34375 C 229.136719 123.105469 210.824219 191.957031 157.0625 223.125 L 157.9375 221.8125 L 159.25 220.9375 L 162.75 220.9375 L 164.0625 221.8125 L 164.9375 223.125 C 164.9375 221.675781 166.113281 220.5 167.5625 220.5 C 169.011719 220.5 170.1875 221.675781 170.1875 223.125 C 170.1875 224.574219 169.011719 225.75 167.5625 225.75 L 166.6875 227.0625 L 165.375 227.9375 Z M 48.125 30.625 "/>
</g>
</svg>
