<?xml version="1.0" encoding="UTF-8"?>
<svg xmlns="http://www.w3.org/2000/svg" xmlns:xlink="http://www.w3.org/1999/xlink" width="70pt" height="70pt" viewBox="0 0 70 70" version="1.1">
<defs>
<linearGradient id="linear0" gradientUnits="userSpaceOnUse" x1="9.09" y1="17.5" x2="9.09" y2="1.36" gradientTransform="matrix(3.888889,0,0,3.888889,0,0)">
<stop offset="0" style="stop-color:rgb(93.72549%,44.313725%,0%);stop-opacity:1;"/>
<stop offset="0.13" style="stop-color:rgb(94.901961%,49.019608%,2.745098%);stop-opacity:1;"/>
<stop offset="0.43" style="stop-color:rgb(96.470588%,56.862745%,7.45098%);stop-opacity:1;"/>
<stop offset="0.72" style="stop-color:rgb(97.647059%,61.960784%,10.588235%);stop-opacity:1;"/>
<stop offset="1" style="stop-color:rgb(98.039216%,63.529412%,11.372549%);stop-opacity:1;"/>
</linearGradient>
</defs>
<g id="surface1">
<path style=" stroke:none;fill-rule:nonzero;fill:url(#linear0);" d="M 52.382813 5.367188 C 55.25 2.21875 59.21875 0.296875 63.464844 0 C 2.917969 6.570313 2.101563 21.777344 2.332031 27.609375 C 2.449219 31.773438 3.265625 44.878906 35 67.667969 L 35 68.054688 L 35.273438 67.859375 L 35.542969 68.054688 L 35.542969 67.667969 C 67.433594 44.878906 68.25 31.539063 68.367188 27.222656 C 68.601563 21.542969 67.746094 6.570313 52.382813 5.367188 Z M 52.382813 5.367188 "/>
<path style=" stroke:none;fill-rule:nonzero;fill:rgb(100%,89.411765%,32.156863%);fill-opacity:1;" d="M 66.109375 14.777344 C 55.105469 18.324219 43.113281 13.789063 37.210938 3.847656 C 31.308594 -6.09375 33.066406 -18.796875 41.449219 -26.757813 C 49.832031 -34.722656 62.605469 -35.828125 72.230469 -29.421875 C 81.859375 -23.019531 85.773438 -10.808594 81.667969 0 C 78.246094 7.777344 70.777344 14 59.929688 18.589844 C 60.449219 20.539063 59.796875 22.613281 58.253906 23.917969 Z M 26.714844 46.433594 L 25.199219 47.988281 C 14.503906 37.449219 11.121094 29.089844 15.554688 24.734375 C 19.988281 20.378906 28.273438 23.761719 38.890625 34.339844 L 37.371094 35.894531 C 38.457031 35.914063 39.335938 36.792969 39.355469 37.878906 L 42.234375 35 C 42.824219 35.820313 42.734375 36.949219 42.019531 37.664063 C 41.304688 38.378906 40.175781 38.46875 39.355469 37.878906 L 37.917969 36.4375 C 30.722656 29.207031 18.472656 20.457031 10.695313 25.628906 C 16.105469 23.570313 22.222656 25.460938 25.523438 30.214844 C 28.828125 34.96875 28.464844 41.359375 24.648438 45.710938 C 20.832031 50.0625 14.539063 51.253906 9.398438 48.601563 C 4.253906 45.945313 1.582031 40.125 2.917969 34.496094 C -5.164063 36.476563 -13.371094 31.746094 -15.714844 23.761719 C -18.054688 15.777344 -13.699219 7.367188 -5.828125 4.671875 C 2.042969 1.972656 10.640625 5.945313 13.6875 13.6875 C 8.632813 21.464844 17.34375 33.679688 24.539063 40.910156 L 25.976563 42.390625 C 33.902344 46.511719 43.671875 43.429688 47.792969 35.503906 C 51.917969 27.582031 48.835938 17.8125 40.910156 13.6875 L 43.828125 10.773438 C 44.9375 10.792969 45.828125 11.6875 45.851563 12.792969 Z M 26.714844 46.433594 "/>
</g>
</svg>
