<?xml version="1.0" encoding="UTF-8"?>
<svg xmlns="http://www.w3.org/2000/svg" xmlns:xlink="http://www.w3.org/1999/xlink" width="70pt" height="70pt" viewBox="0 0 70 70" version="1.1">
<defs>
<radialGradient id="radial0" gradientUnits="userSpaceOnUse" cx="7.98" cy="6.94" fx="7.98" fy="6.94" r="6.17" gradientTransform="matrix(3.888889,0,0,3.888889,0,0)">
<stop offset="0.22" style="stop-color:rgb(0%,47.058824%,83.137255%);stop-opacity:1;"/>
<stop offset="0.42" style="stop-color:rgb(0%,45.882353%,81.176471%);stop-opacity:1;"/>
<stop offset="0.67" style="stop-color:rgb(0%,42.745098%,75.294118%);stop-opacity:1;"/>
<stop offset="0.94" style="stop-color:rgb(0%,36.862745%,65.490196%);stop-opacity:1;"/>
<stop offset="1" style="stop-color:rgb(0%,35.686275%,63.137255%);stop-opacity:1;"/>
</radialGradient>
</defs>
<g id="surface1">
<path style=" stroke:none;fill-rule:nonzero;fill:rgb(93.72549%,44.313725%,0%);fill-opacity:1;" d="M 32.746094 54.714844 L 30.023438 54.714844 C 14.914063 54.394531 2.925781 41.882813 3.246094 26.773438 C 3.570313 11.664063 16.078125 -0.320313 31.1875 0 C 31.773438 6.066406 28.039063 7.234375 21.816406 7.351563 C 19.785156 7.070313 18.367188 5.199219 18.648438 3.167969 C 18.925781 1.140625 20.796875 -0.277344 22.828125 0 L 22.828125 66.109375 C 4.570313 66.109375 -10.226563 51.3125 -10.226563 33.054688 C -10.226563 14.800781 4.570313 0 22.828125 0 L 45.382813 0 C 45.382813 6.230469 40.335938 11.277344 34.105469 11.277344 C 27.878906 11.277344 22.828125 6.230469 22.828125 0 L 22.828125 -1.828125 C 23.332031 -1.546875 23.515625 -0.914063 23.234375 -0.410156 C 22.957031 0.0976563 22.320313 0.277344 21.816406 0 C 15.671875 0 12.714844 -1.285156 13.378906 -7.351563 C 15.40625 -7.015625 16.78125 -5.101563 16.449219 -3.070313 C 16.117188 -1.042969 14.203125 0.332031 12.171875 0 Z M 32.746094 54.714844 "/>
<path style=" stroke:none;fill-rule:nonzero;fill:url(#radial0);" d="M 33.871094 42.777344 C 33.667969 41.367188 34.390625 39.988281 35.664063 39.351563 C 36.9375 38.714844 38.476563 38.960938 39.480469 39.96875 C 40.488281 40.976563 40.738281 42.511719 40.097656 43.785156 C 39.460938 45.058594 38.082031 45.78125 36.671875 45.578125 L 36.671875 50.632813 C 36.738281 46.875 36.972656 43.828125 37.199219 43.828125 C 37.425781 43.828125 37.554688 46.875 37.488281 50.632813 L 33.40625 37.917969 C 33.375 36.722656 34.074219 35.632813 35.167969 35.160156 C 36.265625 34.6875 37.539063 34.933594 38.382813 35.777344 C 39.226563 36.621094 39.472656 37.894531 39 38.992188 C 38.53125 40.089844 37.4375 40.785156 36.246094 40.753906 L 36.246094 46.746094 L 38.890625 35 L 39.859375 35.855469 L 42.15625 38.1875 C 40.9375 38.171875 39.832031 38.898438 39.359375 40.019531 C 38.882813 41.140625 39.136719 42.4375 40 43.300781 C 40.859375 44.160156 42.160156 44.414063 43.28125 43.941406 C 44.402344 43.46875 45.125 42.363281 45.109375 41.144531 L 42.816406 38.851563 L 41.535156 37.371094 L 35.582031 23.332031 C 35.550781 22.140625 36.25 21.046875 37.347656 20.578125 C 38.445313 20.105469 39.71875 20.351563 40.5625 21.195313 C 41.40625 22.039063 41.648438 23.3125 41.179688 24.40625 C 40.707031 25.503906 39.617188 26.203125 38.421875 26.171875 L 38.421875 32.160156 L 41.496094 35.234375 C 41.539063 33.601563 42.882813 32.304688 44.515625 32.316406 C 46.148438 32.332031 47.46875 33.652344 47.480469 35.285156 C 47.496094 36.917969 46.199219 38.261719 44.566406 38.304688 L 52.34375 46.277344 C 58.601563 56.738281 56.039063 70.226563 46.382813 77.660156 C 36.726563 85.097656 23.03125 84.125 14.519531 75.402344 C 6.007813 66.675781 5.375 52.960938 13.046875 43.492188 C 20.71875 34.019531 34.265625 31.789063 44.566406 38.304688 L 48.144531 41.882813 C 48.144531 39.734375 49.886719 37.996094 52.035156 37.996094 C 54.179688 37.996094 55.921875 39.734375 55.921875 41.882813 C 55.921875 44.03125 54.179688 45.773438 52.035156 45.773438 L 55.6875 45.773438 L 53.238281 43.359375 C 54.796875 43.886719 55.855469 45.335938 55.882813 46.976563 L 28.738281 19.445313 C 28.707031 17.953125 29.585938 16.589844 30.960938 16.003906 C 32.332031 15.417969 33.921875 15.726563 34.976563 16.78125 C 36.035156 17.839844 36.339844 19.429688 35.757813 20.800781 C 35.171875 22.175781 33.808594 23.054688 32.316406 23.023438 L 36.207031 23.023438 L 18.160156 19.445313 C 18.355469 17.597656 19.945313 16.210938 21.804688 16.277344 C 23.660156 16.34375 25.152344 17.832031 25.21875 19.691406 C 25.28125 21.546875 23.898438 23.140625 22.050781 23.332031 L 25.9375 23.332031 L 29.828125 27.222656 C 29.976563 25.304688 31.605469 23.839844 33.527344 23.890625 C 35.453125 23.941406 37 25.488281 37.046875 27.410156 C 37.097656 29.335938 35.632813 30.960938 33.714844 31.109375 L 37.605469 31.109375 C 39.191406 30.886719 40.894531 31.207031 41.847656 31.914063 C 42.800781 32.621094 42.800781 33.558594 41.847656 34.253906 C 40.894531 34.945313 39.191406 35.246094 37.605469 35 C 39.796875 35.238281 42.441406 35.109375 43.515625 34.710938 C 44.589844 34.3125 43.683594 33.800781 41.496094 33.5625 C 41.414063 37.644531 41.082031 40.769531 40.75 40.542969 C 40.417969 40.316406 40.210938 36.828125 40.289063 32.746094 L 36.710938 29.167969 C 28.675781 19.226563 29.824219 4.738281 39.324219 -3.808594 C 48.828125 -12.359375 63.355469 -11.976563 72.394531 -2.9375 C 81.429688 6.097656 81.816406 20.628906 73.265625 30.128906 C 64.71875 39.632813 50.226563 40.78125 40.289063 32.746094 L 36.945313 29.246094 C 37.21875 27.734375 38.585938 26.675781 40.113281 26.789063 C 41.644531 26.90625 42.839844 28.15625 42.882813 29.6875 C 42.929688 31.222656 41.808594 32.539063 40.289063 32.746094 Z M 33.871094 42.777344 "/>
<path style=" stroke:none;fill-rule:nonzero;fill:rgb(61.176471%,92.156863%,100%);fill-opacity:1;" d="M 54.988281 25.785156 L 47.210938 18.003906 C 47.476563 19.074219 47.148438 20.199219 46.355469 20.960938 L 49.3125 23.917969 L 46.238281 20.84375 C 46.472656 21.882813 46.132813 22.96875 45.34375 23.683594 L 42.777344 30.179688 L 44.214844 31.617188 L 46.511719 33.910156 C 46.53125 32.289063 47.855469 30.988281 49.480469 30.996094 C 51.101563 31 52.414063 32.316406 52.421875 33.9375 C 52.429688 35.558594 51.128906 36.882813 49.503906 36.90625 L 47.210938 34.609375 L 38.890625 35 L 37.644531 33.753906 C 37.878906 34.792969 37.539063 35.878906 36.75 36.59375 L 39.667969 39.511719 L 38.070313 42.777344 C 38.417969 43.902344 38.066406 45.121094 37.179688 45.890625 L 43.515625 52.226563 C 43.375 42.351563 49.234375 33.375 58.335938 29.527344 C 67.433594 25.683594 77.953125 27.734375 84.941406 34.722656 C 91.925781 41.707031 93.980469 52.226563 90.132813 61.328125 C 86.289063 70.425781 77.3125 76.285156 67.433594 76.144531 L 67.433594 77.699219 Z M 15.945313 32.9375 C 15.851563 31.234375 16.820313 29.644531 18.378906 28.949219 C 19.9375 28.25 21.765625 28.589844 22.976563 29.796875 C 24.183594 31.003906 24.519531 32.832031 23.824219 34.394531 C 23.125 35.953125 21.539063 36.921875 19.832031 36.828125 C 19.871094 37.492188 20 37.863281 20.132813 37.695313 C 20.269531 37.53125 20.367188 36.882813 20.367188 36.167969 C 20.367188 35.457031 20.269531 34.902344 20.132813 34.859375 C 20 34.820313 19.871094 35.3125 19.832031 36.011719 L 15.945313 32.121094 C 16.183594 30.105469 17.929688 28.613281 19.957031 28.691406 C 21.988281 28.769531 23.613281 30.394531 23.691406 32.425781 C 23.773438 34.453125 22.277344 36.203125 20.261719 36.4375 L 20.261719 38.070313 L 19.640625 41.339844 L 23.332031 24.851563 C 27.886719 25.871094 30.75 30.386719 29.730469 34.941406 C 28.710938 39.496094 24.191406 42.359375 19.640625 41.339844 L 23.957031 14.738281 C 25.539063 14.207031 27.285156 14.746094 28.292969 16.074219 C 29.300781 17.40625 29.347656 19.230469 28.410156 20.613281 C 27.472656 21.992188 25.757813 22.621094 24.148438 22.171875 C 22.539063 21.722656 21.398438 20.296875 21.3125 18.628906 L 23.761719 21.039063 C 23.730469 19.546875 24.609375 18.183594 25.980469 17.597656 C 27.355469 17.015625 28.945313 17.320313 30 18.378906 C 31.054688 19.433594 31.363281 21.023438 30.777344 22.394531 C 30.191406 23.769531 28.832031 24.648438 27.339844 24.617188 L 27.339844 25.746094 C 27.265625 24.671875 26.851563 23.703125 26.210938 23.101563 L 33.445313 2.996094 C 46.183594 1.609375 57.773438 10.449219 59.8125 23.101563 L 63.351563 26.679688 C 63.257813 25.066406 64.167969 23.5625 65.640625 22.902344 C 67.113281 22.242188 68.839844 22.558594 69.980469 23.703125 C 71.125 24.84375 71.441406 26.570313 70.78125 28.042969 C 70.121094 29.515625 68.617188 30.425781 67.003906 30.332031 L 67.003906 31.773438 C 66.941406 35.1875 66.707031 37.953125 66.484375 37.953125 C 66.257813 37.953125 66.125 35.1875 66.1875 31.773438 Z M 15.945313 32.9375 "/>
<path style=" stroke:none;fill-rule:nonzero;fill:rgb(98.039216%,63.529412%,11.372549%);fill-opacity:1;" d="M 31.109375 58.957031 C 47.640625 58.082031 62.050781 70.089844 64.175781 86.503906 C 66.300781 102.917969 55.417969 118.199219 39.210938 121.5625 C 23.003906 124.925781 6.945313 115.234375 2.363281 99.328125 C -2.21875 83.421875 6.226563 66.675781 21.738281 60.898438 L 23.839844 63 L 23.839844 101.890625 C 23.839844 102.753906 23.546875 103.507813 23.140625 103.679688 L 30.101563 103.679688 C 37.777344 96 50.226563 96 57.90625 103.679688 C 65.582031 111.355469 65.582031 123.804688 57.90625 131.484375 C 58.699219 132.191406 59.453125 132.945313 60.160156 133.738281 L 62.261719 133.738281 C 61.265625 134.335938 61.414063 135.105469 62.625 135.664063 C 63.839844 136.222656 65.859375 136.445313 67.671875 136.226563 C 69.484375 136.007813 70.695313 135.386719 70.703125 134.683594 C 70.710938 133.976563 69.511719 133.332031 67.707031 133.078125 C 76.554688 124.230469 90.902344 124.230469 99.75 133.078125 C 108.597656 141.925781 108.597656 156.273438 99.75 165.121094 Z M 31.109375 58.957031 "/>
</g>
</svg>
