<?xml version="1.0" encoding="UTF-8"?>
<svg xmlns="http://www.w3.org/2000/svg" xmlns:xlink="http://www.w3.org/1999/xlink" width="70pt" height="70pt" viewBox="0 0 70 70" version="1.1">
<defs>
<linearGradient id="linear0" gradientUnits="userSpaceOnUse" x1="9" y1="11.84" x2="9" y2="0" gradientTransform="matrix(3.888889,0,0,3.888889,0,0)">
<stop offset="0" style="stop-color:rgb(0%,47.058824%,83.137255%);stop-opacity:1;"/>
<stop offset="0.16" style="stop-color:rgb(7.45098%,50.196078%,85.490196%);stop-opacity:1;"/>
<stop offset="0.53" style="stop-color:rgb(23.529412%,56.862745%,89.803922%);stop-opacity:1;"/>
<stop offset="0.82" style="stop-color:rgb(33.333333%,61.176471%,92.54902%);stop-opacity:1;"/>
<stop offset="1" style="stop-color:rgb(36.862745%,62.745098%,93.72549%);stop-opacity:1;"/>
</linearGradient>
<linearGradient id="linear1" gradientUnits="userSpaceOnUse" x1="4.62" y1="13.54" x2="13.47" y2="13.54" gradientTransform="matrix(3.888889,0,0,3.888889,0,0)">
<stop offset="0" style="stop-color:rgb(19.607843%,74.509804%,86.666667%);stop-opacity:1;"/>
<stop offset="0.06" style="stop-color:rgb(21.568627%,77.254902%,89.019608%);stop-opacity:1;"/>
<stop offset="0.3" style="stop-color:rgb(28.627451%,86.666667%,96.862745%);stop-opacity:1;"/>
<stop offset="0.45" style="stop-color:rgb(31.372549%,90.196078%,100%);stop-opacity:1;"/>
<stop offset="0.55" style="stop-color:rgb(31.372549%,90.196078%,100%);stop-opacity:1;"/>
<stop offset="0.7" style="stop-color:rgb(28.627451%,86.666667%,96.862745%);stop-opacity:1;"/>
<stop offset="0.94" style="stop-color:rgb(21.568627%,77.254902%,89.019608%);stop-opacity:1;"/>
<stop offset="1" style="stop-color:rgb(19.607843%,74.509804%,86.666667%);stop-opacity:1;"/>
</linearGradient>
</defs>
<g id="surface1">
<path style=" stroke:none;fill-rule:nonzero;fill:url(#linear0);" d="M 67.472656 31.617188 C 58.742188 35.484375 48.53125 31.539063 44.664063 22.808594 C 40.796875 14.078125 44.742188 3.867188 53.472656 0 C 57.453125 -1.367188 61.777344 -1.367188 65.761719 0 L 96.871094 0 C 92.78125 4.089844 92.78125 10.726563 96.871094 14.816406 C 100.964844 18.90625 107.597656 18.90625 111.6875 14.816406 Z M 67.472656 31.617188 "/>
<path style=" stroke:none;fill-rule:nonzero;fill:url(#linear1);" d="M 35.195313 40.792969 C 25.667969 40.792969 17.964844 38.34375 17.964844 35.3125 L 17.964844 64.515625 C 17.964844 67.511719 25.746094 69.960938 34.960938 70 L 35.195313 70 C 44.683594 70 52.382813 67.550781 52.382813 64.515625 L 52.382813 35.3125 C 52.382813 38.34375 44.683594 40.792969 35.195313 40.792969 Z M 35.195313 40.792969 "/>
<path style=" stroke:none;fill-rule:nonzero;fill:rgb(90.980392%,90.980392%,90.980392%);fill-opacity:1;" d="M 52.382813 35.3125 C 52.382813 38.34375 44.605469 40.792969 35.195313 40.792969 C 25.785156 40.792969 17.964844 38.34375 17.964844 35.3125 C 17.964844 32.277344 25.746094 29.828125 35.195313 29.828125 C 44.644531 29.828125 52.382813 32.277344 52.382813 35.3125 "/>
<path style=" stroke:none;fill-rule:nonzero;fill:rgb(31.372549%,90.196078%,100%);fill-opacity:1;" d="M 48.378906 35 C 48.378906 36.90625 42.464844 38.5 35.195313 38.5 C 27.921875 38.5 21.972656 36.90625 21.972656 35 C 21.972656 33.09375 27.882813 31.5 35.195313 31.5 C 42.503906 31.5 48.378906 33.054688 48.378906 35 "/>
<path style=" stroke:none;fill-rule:nonzero;fill:rgb(19.607843%,74.509804%,86.666667%);fill-opacity:1;" d="M 35.195313 35.699219 C 41.757813 46.324219 42.261719 59.613281 36.515625 70.699219 L 71.867188 70.699219 C 93.507813 74.15625 111.050781 74.613281 111.050781 71.726563 C 111.050781 68.835938 93.507813 63.695313 71.867188 60.238281 Z M 35.195313 35.699219 "/>
<path style=" stroke:none;fill-rule:nonzero;fill:rgb(94.901961%,94.901961%,94.901961%);fill-opacity:1;" d="M 24.460938 19.445313 L 34.535156 9.253906 C 37.089844 -0.28125 31.429688 -10.082031 21.894531 -12.640625 C 12.359375 -15.195313 2.554688 -9.535156 0 0 L 46.277344 19.445313 C 40.910156 19.199219 36.753906 14.644531 37.003906 9.273438 C 37.25 3.90625 41.804688 -0.246094 47.171875 0 L 40.988281 0 C 41.15625 -0.0976563 41.363281 -0.0976563 41.535156 0 L 41.535156 12.484375 C 38.085938 12.363281 35.386719 9.476563 35.503906 6.027344 C 35.625 2.582031 38.515625 -0.117188 41.960938 0 L 31.964844 0 C 32.132813 0.0976563 32.214844 0.292969 32.164063 0.480469 C 32.117188 0.667969 31.945313 0.796875 31.753906 0.796875 C 31.558594 0.796875 31.390625 0.667969 31.339844 0.480469 C 31.289063 0.292969 31.371094 0.0976563 31.539063 0 L 31.539063 20.765625 C 25.804688 20.765625 21.15625 16.117188 21.15625 10.382813 C 21.15625 4.648438 25.804688 0 31.539063 0 L 24.8125 0 C 24.980469 0.207031 24.964844 0.507813 24.769531 0.691406 C 24.574219 0.875 24.269531 0.875 24.074219 0.691406 C 23.882813 0.507813 23.863281 0.207031 24.035156 0 Z M 24.460938 19.445313 "/>
</g>
</svg>
