<?xml version="1.0" encoding="UTF-8"?>
<svg xmlns="http://www.w3.org/2000/svg" xmlns:xlink="http://www.w3.org/1999/xlink" width="70pt" height="70pt" viewBox="0 0 70 70" version="1.1">
<g id="surface1">
<path style=" stroke:none;fill-rule:nonzero;fill:rgb(0.392157%,36.078431%,85.490196%);fill-opacity:1;" d="M 35 67.375 C 17.148438 67.375 2.625 52.855469 2.625 35 C 2.625 17.148438 17.148438 2.625 35 2.625 C 52.855469 2.625 67.375 17.148438 67.375 35 C 67.375 52.855469 52.855469 67.375 35 67.375 Z M 35 67.375 "/>
<path style=" stroke:none;fill-rule:nonzero;fill:rgb(100%,100%,100%);fill-opacity:1;" d="M 35 4.433594 C 44.824219 13.421875 47.699219 27.738281 42.105469 39.824219 C 36.511719 51.910156 23.734375 58.980469 10.523438 57.308594 C -2.6875 55.636719 -13.296875 45.601563 -15.703125 32.503906 C -18.105469 19.40625 -11.753906 6.257813 0 0 M 35 0 C 15.703125 0 0 15.703125 0 35 C 0 54.296875 15.703125 70 35 70 C 54.296875 70 70 54.296875 70 35 C 70 15.703125 54.296875 0 35 0 Z M 35 0 "/>
<path style=" stroke:none;fill-rule:nonzero;fill:rgb(100%,100%,100%);fill-opacity:1;" d="M 34.3125 16.597656 L 34.109375 16.597656 C 32.75 10.761719 34.183594 4.625 37.992188 0 L 16.175781 14 L 16.175781 31.070313 L 33.242188 31.070313 L 26.800781 24.625 C 20 21.535156 16.992188 13.519531 20.082031 6.71875 C 23.171875 -0.0820313 31.191406 -3.089844 37.992188 0 C 44.398438 0 49.707031 4.507813 50.824219 10.394531 L 56.453125 10.394531 C 49.65625 10.09375 43.558594 6.109375 40.554688 0 Z M 53.625 38.886719 L 36.757813 38.886719 L 36.84375 38.929688 L 36.757813 38.929688 L 42.996094 45.167969 C 40.878906 46.652344 38.355469 47.441406 35.484375 47.441406 C 29.707031 47.441406 24.789063 43.535156 23.109375 38.273438 L 17.203125 38.273438 C 6.632813 32.453125 2.78125 19.167969 8.601563 8.601563 C 14.417969 -1.96875 27.703125 -5.816406 38.273438 0 L 38.472656 0 C 42.6875 0 46.601563 -1.453125 49.789063 -3.769531 L 56.613281 3.054688 L 56.613281 38.886719 Z M 53.625 38.886719 "/>
</g>
</svg>
