<?xml version="1.0" encoding="UTF-8"?>
<svg xmlns="http://www.w3.org/2000/svg" xmlns:xlink="http://www.w3.org/1999/xlink" width="61pt" height="70pt" viewBox="0 0 61 70" version="1.1">
<g id="surface1">
<path style=" stroke:none;fill-rule:nonzero;fill:rgb(0%,0%,0%);fill-opacity:1;" d="M 40.957031 41.125 C 42.40625 25.230469 55.921875 13.214844 71.8125 13.703125 C 87.699219 14.1875 100.464844 27.003906 100.945313 42.957031 C 101.429688 58.910156 89.464844 72.484375 73.636719 73.9375 L 73.636719 82.25 L 69.277344 82.25 C 73.929688 94.425781 69.59375 108.214844 58.820313 115.5 L 91.9375 148.75 L 84.964844 149.625 L 78.429688 152.25 L 73.199219 156.1875 L 69.277344 161.4375 L 66.664063 168 C 51.25 170.554688 36.085938 162.226563 29.914063 147.816406 C 23.738281 133.402344 28.144531 116.625 40.59375 107.144531 C 53.039063 97.660156 70.320313 97.921875 82.476563 107.773438 C 94.636719 117.625 98.539063 134.53125 91.9375 148.75 L 0 148.75 C -3.316406 133.019531 4.058594 116.972656 18.132813 109.308594 C 32.210938 101.640625 49.628906 104.179688 60.953125 115.546875 C 72.273438 126.917969 74.800781 144.410156 67.167969 158.542969 C 59.53125 172.671875 43.550781 180.082031 27.886719 176.75 L 27.886719 226.625 L 36.164063 222.25 L 31.371094 218.75 L 27.886719 214.375 C 35.179688 206.488281 47.101563 205.101563 55.996094 211.105469 C 64.894531 217.105469 68.121094 228.714844 63.609375 238.472656 C 59.09375 248.234375 48.179688 253.25 37.875 250.296875 C 27.566406 247.347656 20.929688 237.308594 22.222656 226.625 C 21.695313 219.15625 25.84375 212.144531 32.625 209.039063 C 39.410156 205.929688 47.402344 207.378906 52.671875 212.671875 C 57.945313 217.96875 59.386719 225.992188 56.292969 232.804688 C 53.199219 239.613281 46.214844 243.777344 38.777344 243.25 C -23.1875 249.050781 -78.101563 203.3125 -83.875 141.09375 C -89.648438 78.875 -44.101563 23.738281 17.863281 17.9375 C 17.335938 10.46875 21.484375 3.457031 28.269531 0.351563 C 35.050781 -2.757813 43.042969 -1.308594 48.316406 3.984375 C 53.589844 9.28125 55.03125 17.304688 51.9375 24.117188 C 48.839844 30.925781 41.859375 35.089844 34.421875 34.5625 L 34.421875 83.125 C 37.160156 73.441406 46.019531 66.796875 56.046875 66.910156 C 66.070313 67.023438 74.78125 73.863281 77.304688 83.605469 C 79.828125 93.351563 75.539063 103.582031 66.835938 108.585938 C 58.136719 113.585938 47.175781 112.117188 40.085938 105 L 36.601563 109.375 Z M 13.070313 21.875 C 11.847656 14.195313 15.6875 6.597656 22.585938 3.0625 C 29.484375 -0.472656 37.867188 0.855469 43.34375 6.355469 C 48.820313 11.851563 50.144531 20.269531 46.621094 27.195313 C 43.097656 34.121094 35.535156 37.980469 27.886719 36.75 L 27.886719 42 C 26.660156 34.320313 30.503906 26.722656 37.402344 23.1875 C 44.300781 19.652344 52.679688 20.980469 58.15625 26.480469 C 63.632813 31.976563 64.957031 40.394531 61.433594 47.320313 C 57.914063 54.246094 50.347656 58.105469 42.699219 56.875 L 42.699219 60.8125 C 42.910156 66.609375 40.3125 72.152344 35.730469 75.6875 L 50.542969 90.5625 C 53.109375 95.09375 53.589844 100.523438 51.851563 105.4375 L 66.664063 120.3125 Z M 13.070313 21.875 "/>
</g>
</svg>
