<?xml version="1.0" encoding="UTF-8"?>
<svg xmlns="http://www.w3.org/2000/svg" xmlns:xlink="http://www.w3.org/1999/xlink" width="70pt" height="70pt" viewBox="0 0 70 70" version="1.1">
<defs>
<linearGradient id="linear0" gradientUnits="userSpaceOnUse" x1="9" y1="16.21" x2="9" y2="0.62" gradientTransform="matrix(3.888889,0,0,3.888889,0,0)">
<stop offset="0" style="stop-color:rgb(10.588235%,57.647059%,92.156863%);stop-opacity:1;"/>
<stop offset="0.21" style="stop-color:rgb(12.54902%,58.431373%,92.156863%);stop-opacity:1;"/>
<stop offset="0.44" style="stop-color:rgb(18.039216%,61.176471%,92.941176%);stop-opacity:1;"/>
<stop offset="0.69" style="stop-color:rgb(27.058824%,65.490196%,93.72549%);stop-opacity:1;"/>
<stop offset="0.95" style="stop-color:rgb(39.215686%,71.372549%,94.509804%);stop-opacity:1;"/>
<stop offset="1" style="stop-color:rgb(41.960784%,72.54902%,94.901961%);stop-opacity:1;"/>
</linearGradient>
<filter id="alpha" filterUnits="objectBoundingBox" x="0%" y="0%" width="100%" height="100%">
  <feColorMatrix type="matrix" in="SourceGraphic" values="0 0 0 0 1 0 0 0 0 1 0 0 0 0 1 0 0 0 1 0"/>
</filter>
<mask id="mask0">
  <g filter="url(#alpha)">
<rect x="0" y="0" width="70" height="70" style="fill:rgb(0%,0%,0%);fill-opacity:0.2;stroke:none;"/>
  </g>
</mask>
<clipPath id="clip1">
  <rect x="0" y="0" width="70" height="70"/>
</clipPath>
<g id="surface5" clip-path="url(#clip1)">
<path style=" stroke:none;fill-rule:nonzero;fill:rgb(36.862745%,62.745098%,93.72549%);fill-opacity:1;" d="M 34.570313 29.207031 L 34.535156 29.246094 L 34.535156 36.632813 L 40.949219 32.898438 Z M 34.570313 29.207031 "/>
</g>
<mask id="mask1">
  <g filter="url(#alpha)">
<rect x="0" y="0" width="70" height="70" style="fill:rgb(0%,0%,0%);fill-opacity:0.2;stroke:none;"/>
  </g>
</mask>
<clipPath id="clip2">
  <rect x="0" y="0" width="70" height="70"/>
</clipPath>
<g id="surface8" clip-path="url(#clip2)">
<path style=" stroke:none;fill-rule:nonzero;fill:rgb(51.372549%,72.54902%,97.647059%);fill-opacity:1;" d="M 34.496094 29.320313 L 34.535156 29.320313 L 34.535156 36.710938 L 28.117188 33.015625 Z M 34.496094 29.320313 "/>
</g>
</defs>
<g id="surface1">
<path style=" stroke:none;fill-rule:nonzero;fill:rgb(10.588235%,57.647059%,92.156863%);fill-opacity:1;" d="M 62.222656 32.820313 C 62.222656 50.59375 40.714844 64.90625 36.050781 67.820313 C 17.320313 67.820313 2.140625 52.640625 2.140625 33.910156 C 2.140625 15.183594 17.320313 0 36.050781 0 C 29.4375 64.90625 7.777344 50.554688 7.777344 32.820313 L 7.777344 11.433594 C 4.621094 4.515625 7.667969 -3.648438 14.582031 -6.804688 C 21.5 -9.960938 29.664063 -6.914063 32.820313 0 C 26.328125 9.292969 22.476563 1.945313 35 1.945313 C 47.523438 1.945313 43.671875 9.292969 60.394531 9.722656 C 57.710938 25.863281 42.449219 36.769531 26.308594 34.085938 C 10.167969 31.402344 -0.742188 16.140625 1.945313 0 Z M 62.222656 32.820313 "/>
<path style=" stroke:none;fill-rule:nonzero;fill:url(#linear0);" d="M 59.8125 32.976563 C 59.8125 49.3125 40.09375 62.417969 35.816406 65.0625 C 17.851563 65.0625 3.285156 50.496094 3.285156 32.53125 C 3.285156 14.5625 17.851563 0 35.816406 0 C 31.539063 -2.644531 11.820313 -15.75 11.820313 -32.082031 L 11.820313 -51.527344 C 26.050781 -39.402344 27.757813 -18.039063 15.632813 -3.8125 C 3.507813 10.417969 -17.855469 12.125 -32.082031 0 C -16.761719 -0.429688 -20.417969 -7.117188 -8.75 -7.117188 C 2.917969 -7.117188 42.972656 11.394531 58.332031 11.667969 C 55.113281 29.738281 37.847656 41.78125 19.773438 38.558594 C 1.703125 35.335938 -10.339844 18.074219 -7.117188 0 Z M 59.8125 32.976563 "/>
<path style=" stroke:none;fill-rule:nonzero;fill:rgb(12.156863%,33.72549%,63.921569%);fill-opacity:1;" d="M 42.542969 49.464844 C 38.382813 48.921875 38.65625 46.238281 38.65625 41.921875 L 30.878906 41.921875 C 30.878906 46.238281 30.878906 48.921875 26.988281 49.464844 C 13.328125 48.941406 2.683594 37.441406 3.207031 23.78125 C 3.734375 10.121094 15.234375 -0.527344 28.894531 0 L 48.726563 0 C 48.125 0.292969 47.421875 0.292969 46.820313 0 Z M 42.542969 49.464844 "/>
<path style=" stroke:none;fill-rule:nonzero;fill:rgb(7.843137%,56.470588%,87.45098%);fill-opacity:1;" d="M 17.929688 16.761719 L 51.214844 16.761719 C 51.882813 16.761719 52.421875 17.300781 52.421875 17.964844 L 52.421875 40.832031 C 52.421875 41.5 51.882813 42.039063 51.214844 42.039063 L 17.929688 42.039063 C 17.261719 42.039063 16.722656 41.5 16.722656 40.832031 L 16.722656 17.964844 C 16.722656 17.300781 17.261719 16.761719 17.929688 16.761719 Z M 17.929688 16.761719 "/>
<path style=" stroke:none;fill-rule:nonzero;fill:rgb(100%,100%,100%);fill-opacity:1;" d="M 19.40625 18.746094 L 49.699219 18.746094 C 50.042969 18.746094 50.320313 19.023438 50.320313 19.367188 L 50.320313 39.082031 C 50.320313 39.425781 50.042969 39.707031 49.699219 39.707031 L 19.40625 39.707031 C 19.0625 39.707031 18.785156 39.425781 18.785156 39.082031 L 18.785156 19.367188 C 18.785156 19.023438 19.0625 18.746094 19.40625 18.746094 Z M 19.40625 18.746094 "/>
<path style=" stroke:none;fill-rule:nonzero;fill:rgb(0%,47.058824%,83.137255%);fill-opacity:1;" d="M 40.949219 25.550781 L 40.988281 32.898438 L 34.535156 36.632813 L 34.570313 29.246094 Z M 40.949219 25.550781 "/>
<path style=" stroke:none;fill-rule:nonzero;fill:rgb(51.372549%,72.54902%,97.647059%);fill-opacity:1;" d="M 40.949219 25.511719 L 34.570313 29.246094 L 28.15625 25.511719 L 34.535156 21.816406 Z M 40.949219 25.511719 "/>
<path style=" stroke:none;fill-rule:nonzero;fill:rgb(36.862745%,62.745098%,93.72549%);fill-opacity:1;" d="M 34.570313 29.246094 L 34.535156 36.632813 L 28.117188 32.898438 L 28.117188 25.511719 Z M 34.570313 29.246094 "/>
<use xlink:href="#surface5" mask="url(#mask0)"/>
<use xlink:href="#surface8" mask="url(#mask1)"/>
</g>
</svg>
