<?xml version="1.0" encoding="UTF-8"?>
<svg xmlns="http://www.w3.org/2000/svg" xmlns:xlink="http://www.w3.org/1999/xlink" width="70pt" height="70pt" viewBox="0 0 70 70" version="1.1">
<g id="surface1">
<path style=" stroke:none;fill-rule:nonzero;fill:rgb(58.039216%,58.039216%,58.039216%);fill-opacity:1;" d="M 0 60.667969 C -16.753906 60.667969 -30.332031 47.085938 -30.332031 30.332031 C -30.332031 13.582031 -16.753906 0 0 0 L 4.746094 2.722656 L 12.792969 7.390625 C 10.753906 10.921875 6.234375 12.132813 2.703125 10.089844 C -0.832031 8.050781 -2.039063 3.53125 0 0 L 2.722656 -4.746094 C 4.03125 -3.992188 4.484375 -2.320313 3.734375 -1.011719 C 2.980469 0.300781 1.308594 0.75 0 0 L -9.722656 -5.523438 C -8.199219 -5.359375 -7.089844 -3.996094 -7.253906 -2.46875 C -7.414063 -0.945313 -8.78125 0.160156 -10.304688 0 L -10.304688 13.300781 C -13.976563 13.300781 -16.957031 10.324219 -16.957031 6.648438 C -16.957031 2.976563 -13.976563 0 -10.304688 0 L -0.855469 -5.445313 C 0.648438 -2.835938 -0.25 0.5 -2.859375 2.003906 C -5.46875 3.507813 -8.800781 2.609375 -10.304688 0 L 14.078125 1.554688 C 13.648438 1.621094 13.246094 1.324219 13.183594 0.894531 C 13.117188 0.464844 13.414063 0.0625 13.84375 0 L 6.066406 4.589844 L 1.011719 7.429688 C -1.039063 7.265625 -2.570313 5.472656 -2.410156 3.421875 C -2.25 1.371094 -0.457031 -0.160156 1.59375 0 Z M 0 60.667969 "/>
<path style=" stroke:none;fill-rule:nonzero;fill:rgb(63.921569%,63.921569%,63.921569%);fill-opacity:1;" d="M 16.722656 6.339844 L 14.078125 1.554688 C 14.035156 1.734375 13.921875 1.886719 13.765625 1.984375 L 5.988281 6.570313 L 0.933594 9.488281 L 0 8.945313 L 0 9.253906 L 6.765625 13.144531 C 3.683594 11.210938 2.753906 7.144531 4.6875 4.0625 C 6.617188 0.980469 10.683594 0.0507813 13.765625 1.984375 L 23.214844 -3.460938 C 24.71875 -0.851563 23.824219 2.484375 21.214844 3.984375 C 18.605469 5.488281 15.269531 4.59375 13.765625 1.984375 Z M 16.722656 63.660156 L 14 68.40625 C -4.34375 68.320313 -19.140625 53.382813 -19.054688 35.039063 C -18.96875 16.695313 -4.03125 1.898438 14.3125 1.984375 L 14 1.984375 L 6.222656 -2.605469 L 1.167969 -5.523438 L 0.933594 -5.753906 L 0.933594 -6.066406 L 7.699219 -9.957031 C 10.996094 -11.78125 15.148438 -10.589844 16.976563 -7.292969 C 18.800781 -3.996094 17.609375 0.15625 14.3125 1.984375 L 23.761719 7.429688 C 22.257813 10.039063 18.921875 10.933594 16.3125 9.429688 C 13.703125 7.925781 12.808594 4.59375 14.3125 1.984375 Z M 16.722656 63.660156 "/>
<path style=" stroke:none;fill-rule:nonzero;fill:rgb(58.039216%,58.039216%,58.039216%);fill-opacity:1;" d="M 70 9.332031 C 67.421875 9.496094 65.203125 7.535156 65.042969 4.957031 C 64.878906 2.382813 66.839844 0.160156 69.417969 0 L 64.671875 -2.722656 L 56.621094 -7.390625 C 58.664063 -7.453125 60.367188 -5.851563 60.433594 -3.8125 C 60.496094 -1.769531 58.894531 -0.0625 56.855469 0 L 54.132813 4.746094 C 52.824219 3.992188 52.371094 2.320313 53.121094 1.011719 C 53.875 -0.300781 55.546875 -0.75 56.855469 0 L 66.304688 5.445313 C 64.800781 8.054688 61.46875 8.949219 58.859375 7.445313 C 56.25 5.945313 55.351563 2.609375 56.855469 0 L 56.855469 43.4375 C 44.859375 43.277344 35.265625 33.421875 35.429688 21.429688 C 35.589844 9.433594 45.445313 -0.160156 57.4375 0 L 47.988281 5.445313 C 46.484375 5.207031 45.457031 3.796875 45.695313 2.292969 C 45.929688 0.789063 47.339844 -0.234375 48.84375 0 L 51.566406 4.746094 C 50.257813 5.496094 48.585938 5.042969 47.832031 3.734375 C 47.082031 2.421875 47.535156 0.75 48.84375 0 L 56.621094 -4.589844 L 61.523438 -7.429688 C 63.574219 -3.925781 62.398438 0.574219 58.898438 2.625 C 55.394531 4.675781 50.894531 3.5 48.84375 0 L 48.84375 9.332031 Z M 70 9.332031 "/>
<path style=" stroke:none;fill-rule:nonzero;fill:rgb(63.921569%,63.921569%,63.921569%);fill-opacity:1;" d="M 53.277344 63.660156 L 56 68.40625 C 37.109375 83.871094 9.261719 81.09375 -6.203125 62.203125 C -21.667969 43.3125 -18.890625 15.464844 0 0 L 0.3125 0 L 8.089844 -4.589844 L 12.988281 -7.429688 L 13.378906 -7.660156 C 15.492188 -3.96875 14.214844 0.742188 10.519531 2.859375 C 6.824219 4.972656 2.117188 3.695313 0 0 L -6.765625 -3.890625 C -5.691406 -4.050781 -4.691406 -3.308594 -4.53125 -2.234375 C -4.371094 -1.164063 -5.109375 -0.160156 -6.183594 0 L -15.632813 5.445313 C -17.136719 5.242188 -18.191406 3.855469 -17.984375 2.351563 C -17.78125 0.847656 -16.398438 -0.203125 -14.894531 0 Z M 53.277344 6.339844 L 56 1.554688 C 55.890625 1.246094 56.011719 0.90625 56.289063 0.730469 C 56.5625 0.554688 56.925781 0.597656 57.15625 0.828125 C 57.386719 1.058594 57.425781 1.417969 57.253906 1.695313 C 57.078125 1.972656 56.734375 2.09375 56.429688 1.984375 L 64.207031 6.570313 L 69.105469 9.410156 L 69.496094 9.644531 C 67.378906 13.253906 62.738281 14.460938 59.128906 12.347656 C 55.523438 10.230469 54.3125 5.589844 56.429688 1.984375 L 49.660156 5.871094 C 48.585938 6.035156 47.585938 5.292969 47.425781 4.21875 C 47.265625 3.144531 48.003906 2.144531 49.078125 1.984375 L 39.628906 -3.34375 C 41.097656 -3.109375 42.101563 -1.722656 41.863281 -0.253906 C 41.628906 1.21875 40.242188 2.21875 38.773438 1.984375 Z M 53.277344 6.339844 "/>
<path style=" stroke:none;fill-rule:nonzero;fill:rgb(60%,60%,60%);fill-opacity:1;" d="M 33.132813 50.167969 C 19.28125 49.855469 8.300781 38.371094 8.613281 24.519531 C 8.925781 10.667969 20.40625 -0.3125 34.261719 0 L 13.105469 0 C 13.578125 0.25 13.824219 0.792969 13.695313 1.3125 C 13.566406 1.832031 13.097656 2.199219 12.5625 2.199219 C 12.023438 2.199219 11.558594 1.832031 11.429688 1.3125 C 11.300781 0.792969 11.542969 0.25 12.015625 0 L 12.015625 19.679688 C 6.582031 19.679688 2.179688 15.273438 2.179688 9.839844 C 2.179688 4.40625 6.582031 0 12.015625 0 L 31.890625 0 C 31.890625 5.488281 27.441406 9.9375 21.953125 9.9375 C 16.464844 9.9375 12.015625 5.488281 12.015625 0 Z M 33.132813 50.167969 "/>
<path style=" stroke:none;fill-rule:nonzero;fill:rgb(0%,18.823529%,40.392157%);fill-opacity:1;" d="M 15.011719 32.550781 C 6.023438 36.695313 -4.625 32.769531 -8.769531 23.78125 C -12.914063 14.792969 -8.988281 4.144531 0 0 L 10.578125 0 C 10.578125 -1.351563 11.675781 -2.449219 13.027344 -2.449219 C 14.382813 -2.449219 15.476563 -1.351563 15.476563 0 C 15.476563 1.351563 14.382813 2.449219 13.027344 2.449219 L 17.304688 2.449219 C 18.25 3.019531 18.695313 4.144531 18.402344 5.203125 C 18.109375 6.265625 17.140625 7 16.042969 7 C 14.941406 7 13.976563 6.265625 13.679688 5.203125 C 13.386719 4.144531 13.835938 3.019531 14.777344 2.449219 Z M 15.011719 25.003906 C 8.78125 25.070313 3.679688 20.074219 3.617188 13.84375 C 3.550781 7.617188 8.550781 2.515625 14.777344 2.449219 L 25.355469 2.449219 C 25.355469 1.097656 26.453125 0 27.804688 0 C 29.160156 0 30.253906 1.097656 30.253906 2.449219 C 30.253906 3.804688 29.160156 4.898438 27.804688 4.898438 L 17.304688 4.898438 C 18.25 5.46875 18.695313 6.59375 18.402344 7.65625 C 18.109375 8.714844 17.140625 9.449219 16.042969 9.449219 C 14.941406 9.449219 13.976563 8.714844 13.679688 7.65625 C 13.386719 6.59375 13.835938 5.46875 14.777344 4.898438 Z M 15.011719 25.003906 "/>
<path style=" stroke:none;fill-rule:nonzero;fill:rgb(31.372549%,90.196078%,100%);fill-opacity:1;" d="M 19.679688 25.003906 C 19.679688 25.949219 18.910156 26.714844 17.964844 26.714844 C 17.023438 26.714844 16.253906 25.949219 16.253906 25.003906 C 16.253906 24.058594 17.023438 23.292969 17.964844 23.292969 C 18.910156 23.292969 19.679688 24.058594 19.679688 25.003906 Z M 19.679688 25.003906 "/>
<path style=" stroke:none;fill-rule:nonzero;fill:rgb(31.372549%,90.196078%,100%);fill-opacity:1;" d="M 19.679688 32.550781 C 19.679688 33.496094 18.910156 34.261719 17.964844 34.261719 C 17.023438 34.261719 16.253906 33.496094 16.253906 32.550781 C 16.253906 31.605469 17.023438 30.839844 17.964844 30.839844 C 18.910156 30.839844 19.679688 31.605469 19.679688 32.550781 Z M 19.679688 32.550781 "/>
<path style=" stroke:none;fill-rule:nonzero;fill:rgb(60%,60%,60%);fill-opacity:1;" d="M 58.644531 50.167969 C 44.792969 49.855469 33.8125 38.371094 34.125 24.519531 C 34.4375 10.667969 45.917969 -0.3125 59.773438 0 L 38.617188 0 C 39.089844 0.25 39.332031 0.792969 39.203125 1.3125 C 39.074219 1.832031 38.609375 2.199219 38.070313 2.199219 C 37.535156 2.199219 37.070313 1.832031 36.941406 1.3125 C 36.8125 0.792969 37.054688 0.25 37.527344 0 L 37.527344 19.679688 C 32.09375 19.679688 27.6875 15.273438 27.6875 9.839844 C 27.6875 4.40625 32.09375 0 37.527344 0 L 56.351563 0 C 56.351563 5.199219 52.136719 9.410156 46.9375 9.410156 C 41.742188 9.410156 37.527344 5.199219 37.527344 0 Z M 58.644531 50.167969 "/>
<path style=" stroke:none;fill-rule:nonzero;fill:rgb(0%,18.823529%,40.392157%);fill-opacity:1;" d="M 40.445313 32.550781 C 31.457031 43.71875 15.117188 45.484375 3.945313 36.496094 C -7.222656 27.507813 -8.988281 11.167969 0 0 L 10.578125 0 C 10.578125 -1.351563 11.675781 -2.449219 13.027344 -2.449219 C 14.382813 -2.449219 15.476563 -1.351563 15.476563 0 C 15.476563 1.351563 14.382813 2.449219 13.027344 2.449219 L 42.777344 2.449219 C 43.710938 3.023438 44.148438 4.148438 43.851563 5.203125 C 43.554688 6.257813 42.589844 6.988281 41.496094 6.988281 C 40.398438 6.988281 39.433594 6.257813 39.136719 5.203125 C 38.839844 4.148438 39.277344 3.023438 40.210938 2.449219 Z M 40.445313 25.003906 C 34.214844 25.070313 29.113281 20.074219 29.050781 13.84375 C 28.984375 7.617188 33.984375 2.515625 40.210938 2.449219 L 50.789063 2.449219 C 50.789063 1.097656 51.886719 0 53.238281 0 C 54.59375 0 55.6875 1.097656 55.6875 2.449219 C 55.6875 3.804688 54.59375 4.898438 53.238281 4.898438 L 42.777344 4.898438 C 43.746094 5.46875 44.210938 6.617188 43.914063 7.699219 C 43.621094 8.78125 42.636719 9.53125 41.515625 9.53125 C 40.390625 9.53125 39.40625 8.78125 39.113281 7.699219 C 38.816406 6.617188 39.28125 5.46875 40.25 4.898438 Z M 40.445313 25.003906 "/>
<path style=" stroke:none;fill-rule:nonzero;fill:rgb(31.372549%,90.196078%,100%);fill-opacity:1;" d="M 45.1875 25.003906 C 45.1875 25.949219 44.421875 26.714844 43.476563 26.714844 C 42.53125 26.714844 41.765625 25.949219 41.765625 25.003906 C 41.765625 24.058594 42.53125 23.292969 43.476563 23.292969 C 44.421875 23.292969 45.1875 24.058594 45.1875 25.003906 Z M 45.1875 25.003906 "/>
<path style=" stroke:none;fill-rule:nonzero;fill:rgb(31.372549%,90.196078%,100%);fill-opacity:1;" d="M 45.1875 32.550781 C 45.1875 33.496094 44.421875 34.261719 43.476563 34.261719 C 42.53125 34.261719 41.765625 33.496094 41.765625 32.550781 C 41.765625 31.605469 42.53125 30.839844 43.476563 30.839844 C 44.421875 30.839844 45.1875 31.605469 45.1875 32.550781 Z M 45.1875 32.550781 "/>
</g>
</svg>
