<?xml version="1.0" encoding="UTF-8"?>
<svg xmlns="http://www.w3.org/2000/svg" xmlns:xlink="http://www.w3.org/1999/xlink" width="70pt" height="70pt" viewBox="0 0 70 70" version="1.1">
<defs>
<linearGradient id="linear0" gradientUnits="userSpaceOnUse" x1="9" y1="13.25" x2="9" y2="1.2" gradientTransform="matrix(3.888889,0,0,3.888889,0,0)">
<stop offset="0" style="stop-color:rgb(0%,47.058824%,83.137255%);stop-opacity:1;"/>
<stop offset="0.16" style="stop-color:rgb(7.45098%,50.196078%,85.490196%);stop-opacity:1;"/>
<stop offset="0.53" style="stop-color:rgb(23.529412%,56.862745%,89.803922%);stop-opacity:1;"/>
<stop offset="0.82" style="stop-color:rgb(33.333333%,61.176471%,92.54902%);stop-opacity:1;"/>
<stop offset="1" style="stop-color:rgb(36.862745%,62.745098%,93.72549%);stop-opacity:1;"/>
</linearGradient>
</defs>
<g id="surface1">
<path style=" stroke:none;fill-rule:nonzero;fill:url(#linear0);" d="M 68.054688 36.828125 C 69.25 41.277344 68.3125 46.027344 65.519531 49.6875 C 62.722656 53.351563 58.390625 55.511719 53.785156 55.535156 L 72.957031 74.707031 L 104.726563 74.707031 C 100.570313 78.863281 100.570313 85.601563 104.726563 89.753906 C 108.882813 93.910156 115.621094 93.910156 119.777344 89.753906 Z M 68.054688 36.828125 "/>
<path style=" stroke:none;fill-rule:nonzero;fill:rgb(9.803922%,54.117647%,70.196078%);fill-opacity:1;" d="M 36.945313 62.027344 L 50.359375 62.027344 C 50.960938 62.027344 51.449219 62.515625 51.449219 63.117188 L 51.449219 64.246094 C 51.449219 64.847656 50.960938 65.332031 50.359375 65.332031 L 36.945313 65.332031 C 36.34375 65.332031 35.855469 64.847656 35.855469 64.246094 L 35.855469 63.117188 C 35.855469 62.515625 36.34375 62.027344 36.945313 62.027344 Z M 36.945313 62.027344 "/>
<path style=" stroke:none;fill-rule:nonzero;fill:rgb(19.607843%,74.509804%,86.666667%);fill-opacity:1;" d="M 36.945313 55.027344 L 50.359375 55.027344 C 50.960938 55.027344 51.449219 55.515625 51.449219 56.117188 L 51.449219 57.246094 C 51.449219 57.847656 50.960938 58.332031 50.359375 58.332031 L 36.945313 58.332031 C 36.34375 58.332031 35.855469 57.847656 35.855469 57.246094 L 35.855469 56.117188 C 35.855469 55.515625 36.34375 55.027344 36.945313 55.027344 Z M 36.945313 55.027344 "/>
<path style=" stroke:none;fill-rule:nonzero;fill:rgb(31.372549%,90.196078%,100%);fill-opacity:1;" d="M 36.945313 48.027344 L 50.359375 48.027344 C 50.960938 48.027344 51.449219 48.515625 51.449219 49.117188 L 51.449219 50.246094 C 51.449219 50.847656 50.960938 51.332031 50.359375 51.332031 L 36.945313 51.332031 C 36.34375 51.332031 35.855469 50.847656 35.855469 50.246094 L 35.855469 49.117188 C 35.855469 48.515625 36.34375 48.027344 36.945313 48.027344 Z M 36.945313 48.027344 "/>
<path style=" stroke:none;fill-rule:nonzero;fill:rgb(94.901961%,94.901961%,94.901961%);fill-opacity:1;" d="M 21.234375 30.605469 L 34.648438 30.605469 C 35.25 30.605469 35.738281 31.09375 35.738281 31.695313 L 35.738281 32.820313 C 35.738281 33.421875 35.25 33.910156 34.648438 33.910156 L 21.234375 33.910156 C 20.632813 33.910156 20.144531 33.421875 20.144531 32.820313 L 20.144531 31.695313 C 20.144531 31.09375 20.632813 30.605469 21.234375 30.605469 Z M 21.234375 30.605469 "/>
<path style=" stroke:none;fill-rule:nonzero;fill:rgb(94.901961%,94.901961%,94.901961%);fill-opacity:1;" d="M 21.234375 37.023438 L 34.648438 37.023438 C 35.25 37.023438 35.738281 37.507813 35.738281 38.109375 L 35.738281 39.238281 C 35.738281 39.839844 35.25 40.328125 34.648438 40.328125 L 21.234375 40.328125 C 20.632813 40.328125 20.144531 39.839844 20.144531 39.238281 L 20.144531 38.109375 C 20.144531 37.507813 20.632813 37.023438 21.234375 37.023438 Z M 21.234375 37.023438 "/>
<path style=" stroke:none;fill-rule:nonzero;fill:rgb(94.901961%,94.901961%,94.901961%);fill-opacity:1;" d="M 21.234375 43.476563 L 34.648438 43.476563 C 35.25 43.476563 35.738281 43.964844 35.738281 44.566406 L 35.738281 45.695313 C 35.738281 46.296875 35.25 46.785156 34.648438 46.785156 L 21.234375 46.785156 C 20.632813 46.785156 20.144531 46.296875 20.144531 45.695313 L 20.144531 44.566406 C 20.144531 43.964844 20.632813 43.476563 21.234375 43.476563 Z M 21.234375 43.476563 "/>
</g>
</svg>
