<?xml version="1.0" encoding="UTF-8"?>
<svg xmlns="http://www.w3.org/2000/svg" xmlns:xlink="http://www.w3.org/1999/xlink" width="70pt" height="70pt" viewBox="0 0 70 70" version="1.1">
<defs>
<linearGradient id="linear0" gradientUnits="userSpaceOnUse" x1="13.23" y1="12.83" x2="8.6" y2="4.06" gradientTransform="matrix(3.888889,0,0,3.888889,0,0)">
<stop offset="0" style="stop-color:rgb(9.803922%,53.333333%,85.098039%);stop-opacity:1;"/>
<stop offset="0.9" style="stop-color:rgb(32.941176%,68.235294%,94.117647%);stop-opacity:1;"/>
</linearGradient>
<linearGradient id="linear1" gradientUnits="userSpaceOnUse" x1="11.23" y1="10.28" x2="14.44" y2="15.8" gradientTransform="matrix(3.888889,0,0,3.888889,0,0)">
<stop offset="0.1" style="stop-color:rgb(32.941176%,68.235294%,94.117647%);stop-opacity:1;"/>
<stop offset="0.29" style="stop-color:rgb(30.980392%,67.058824%,93.333333%);stop-opacity:1;"/>
<stop offset="0.51" style="stop-color:rgb(25.490196%,63.529412%,91.372549%);stop-opacity:1;"/>
<stop offset="0.74" style="stop-color:rgb(16.470588%,57.647059%,87.843137%);stop-opacity:1;"/>
<stop offset="0.88" style="stop-color:rgb(9.803922%,53.333333%,85.098039%);stop-opacity:1;"/>
</linearGradient>
</defs>
<g id="surface1">
<path style=" stroke:none;fill-rule:nonzero;fill:rgb(31.372549%,90.196078%,100%);fill-opacity:1;" d="M 3.851563 38.890625 L 34.609375 58.878906 L 65.957031 38.8125 L 69.882813 43.398438 L 34.609375 66.109375 L -0.117188 43.398438 Z M 3.851563 38.890625 "/>
<path style=" stroke:none;fill-rule:nonzero;fill:rgb(100%,100%,100%);fill-opacity:1;" d="M 6.144531 36.320313 L 34.609375 2.410156 L 63.660156 36.359375 L 34.609375 54.714844 Z M 6.144531 36.320313 "/>
<path style=" stroke:none;fill-rule:nonzero;fill:rgb(31.372549%,90.196078%,100%);fill-opacity:1;" d="M 34.609375 2.410156 L 34.609375 54.714844 L 6.144531 36.320313 Z M 34.609375 2.410156 "/>
<path style=" stroke:none;fill-rule:nonzero;fill:url(#linear0);" d="M 34.609375 2.410156 L 34.609375 54.714844 L 63.660156 36.359375 Z M 34.609375 2.410156 "/>
<path style=" stroke:none;fill-rule:nonzero;fill:rgb(32.54902%,69.411765%,87.843137%);fill-opacity:1;" d="M 34.609375 29.4375 L 63.660156 36.359375 L 34.609375 54.714844 Z M 34.609375 29.4375 "/>
<path style=" stroke:none;fill-rule:nonzero;fill:rgb(61.176471%,92.156863%,100%);fill-opacity:1;" d="M 34.609375 54.714844 L 6.144531 36.320313 L 34.609375 29.4375 Z M 34.609375 54.714844 "/>
<path style=" stroke:none;fill-rule:nonzero;fill:url(#linear1);" d="M 34.609375 66.109375 L 69.882813 43.398438 L 65.957031 38.8125 L 34.609375 58.878906 Z M 34.609375 66.109375 "/>
<path style=" stroke:none;fill-rule:nonzero;fill:rgb(94.117647%,25.098039%,28.627451%);fill-opacity:1;" d="M 52.578125 67.589844 C 69.609375 55.378906 70 48.417969 70 46.238281 C 70 43.128906 69.6875 35.039063 61.5625 34.570313 C 65.265625 35.863281 67.671875 39.445313 67.472656 43.359375 C 35.429688 35 35 43.128906 35 46.238281 C 35 48.417969 35.503906 55.378906 52.382813 67.472656 "/>
<path style=" stroke:none;fill-rule:nonzero;fill:rgb(100%,100%,100%);fill-opacity:1;" d="M 70 44.996094 L 62.222656 44.996094 C 49.796875 44.910156 39.792969 34.765625 39.878906 22.339844 C 39.964844 9.917969 50.109375 -0.0859375 62.535156 0 L 60.082031 4.160156 C 58.933594 4.160156 58.003906 3.230469 58.003906 2.082031 C 58.003906 0.929688 58.933594 0 60.082031 0 L 54.988281 42.777344 C 43.175781 42.777344 33.601563 33.203125 33.601563 21.390625 C 33.601563 9.574219 43.175781 0 54.988281 0 L 50.554688 52.890625 C 35.949219 52.890625 24.109375 41.050781 24.109375 26.445313 C 24.109375 11.839844 35.949219 0 50.554688 0 L 47.601563 -6.804688 C 49.480469 -6.804688 51.003906 -5.28125 51.003906 -3.402344 C 51.003906 -1.523438 49.480469 0 47.601563 0 L 43.710938 7.078125 C 41.757813 6.980469 40.25 5.320313 40.347656 3.363281 C 40.445313 1.410156 42.105469 -0.0976563 44.0625 0 L 40.328125 0 C 25.410156 -1.007813 13.980469 -13.65625 14.480469 -28.597656 C 14.984375 -43.539063 27.246094 -55.394531 42.195313 -55.394531 C 57.144531 -55.394531 69.402344 -43.539063 69.90625 -28.597656 C 70.410156 -13.65625 58.976563 -1.007813 44.0625 0 L 42.777344 0 C 42.710938 -0.265625 42.816406 -0.546875 43.042969 -0.703125 C 43.269531 -0.859375 43.570313 -0.859375 43.796875 -0.703125 C 44.019531 -0.546875 44.128906 -0.265625 44.0625 0 L 46.820313 -5.132813 L 50.710938 3.382813 C 51.644531 1.546875 50.914063 -0.699219 49.078125 -1.632813 C 47.242188 -2.566406 44.996094 -1.835938 44.0625 0 L 47.949219 -11.394531 L 51.253906 -4.9375 C 49.890625 -6.925781 47.175781 -7.429688 45.1875 -6.066406 C 43.203125 -4.703125 42.699219 -1.988281 44.0625 0 L 47.949219 -6.300781 C 49.691406 -5.226563 50.230469 -2.945313 49.15625 -1.207031 C 48.082031 0.535156 45.800781 1.074219 44.0625 0 L 70 0 "/>
</g>
</svg>
