<?xml version="1.0" encoding="UTF-8"?>
<svg xmlns="http://www.w3.org/2000/svg" xmlns:xlink="http://www.w3.org/1999/xlink" width="70pt" height="70pt" viewBox="0 0 70 70" version="1.1">
<defs>
<linearGradient id="linear0" gradientUnits="userSpaceOnUse" x1="14.415" y1="13.555" x2="11.867" y2="9.096" gradientTransform="matrix(3.888889,0,0,3.888889,0,0)">
<stop offset="0.101" style="stop-color:rgb(46.666667%,22.745098%,86.27451%);stop-opacity:1;"/>
<stop offset="1" style="stop-color:rgb(25.098039%,20.392157%,34.117647%);stop-opacity:1;"/>
</linearGradient>
</defs>
<g id="surface1">
<path style=" stroke:none;fill-rule:nonzero;fill:rgb(46.666667%,22.745098%,86.27451%);fill-opacity:1;" d="M 63.386719 18.378906 L 63.386719 51.621094 L 35 68.054688 L 35 35.1875 Z M 63.386719 18.378906 "/>
<path style=" stroke:none;fill-rule:nonzero;fill:url(#linear0);" d="M 50.84375 35.390625 C 54.953125 33.132813 57.945313 35 57.945313 39.484375 C 47.042969 36.082031 40.960938 24.484375 44.363281 13.578125 C 47.769531 2.675781 59.363281 -3.402344 70.269531 0 C 66.160156 2.238281 63.171875 0.390625 63.171875 -4.105469 C 64.304688 14.472656 50.164063 30.453125 31.585938 31.585938 C 13.007813 32.71875 -2.972656 18.578125 -4.105469 0 Z M 50.84375 35.390625 "/>
<path style=" stroke:none;fill-rule:nonzero;fill:rgb(71.764706%,58.823529%,97.647059%);fill-opacity:1;" d="M 63.386719 18.378906 L 35 35.1875 L 6.613281 18.378906 L 35 1.945313 Z M 63.386719 18.378906 "/>
<path style=" stroke:none;fill-rule:nonzero;fill:rgb(65.098039%,47.843137%,95.686275%);fill-opacity:1;" d="M 35 35.1875 L 35 68.054688 L 6.613281 51.621094 L 6.613281 18.378906 Z M 35 35.1875 "/>
</g>
</svg>
