<?xml version="1.0" encoding="UTF-8"?>
<svg xmlns="http://www.w3.org/2000/svg" xmlns:xlink="http://www.w3.org/1999/xlink" width="70pt" height="70pt" viewBox="0 0 70 70" version="1.1">
<defs>
<linearGradient id="linear0" gradientUnits="userSpaceOnUse" x1="8.15" y1="17.5" x2="8.15" y2="2.1" gradientTransform="matrix(3.888889,0,0,3.888889,0,0)">
<stop offset="0" style="stop-color:rgb(46.666667%,22.745098%,86.27451%);stop-opacity:1;"/>
<stop offset="0.25" style="stop-color:rgb(57.254902%,33.333333%,90.196078%);stop-opacity:1;"/>
<stop offset="0.5" style="stop-color:rgb(65.098039%,41.176471%,93.333333%);stop-opacity:1;"/>
<stop offset="0.76" style="stop-color:rgb(70.196078%,46.27451%,94.901961%);stop-opacity:1;"/>
<stop offset="1" style="stop-color:rgb(71.764706%,47.843137%,95.686275%);stop-opacity:1;"/>
</linearGradient>
<filter id="alpha" filterUnits="objectBoundingBox" x="0%" y="0%" width="100%" height="100%">
  <feColorMatrix type="matrix" in="SourceGraphic" values="0 0 0 0 1 0 0 0 0 1 0 0 0 0 1 0 0 0 1 0"/>
</filter>
<mask id="mask0">
  <g filter="url(#alpha)">
<rect x="0" y="0" width="70" height="70" style="fill:rgb(0%,0%,0%);fill-opacity:0.8;stroke:none;"/>
  </g>
</mask>
<clipPath id="clip1">
  <rect x="0" y="0" width="70" height="70"/>
</clipPath>
<g id="surface5" clip-path="url(#clip1)">
<path style=" stroke:none;fill-rule:nonzero;fill:rgb(100%,100%,100%);fill-opacity:1;" d="M 27.222656 31.109375 L 33.328125 27.804688 L 39.550781 31.109375 L 33.484375 34.417969 L 27.222656 31.109375 M 19.445313 26.714844 L 25.355469 23.332031 L 25.550781 23.332031 L 31.5 26.601563 C 24.15625 35.296875 11.148438 36.394531 2.449219 29.050781 C -6.25 21.703125 -7.34375 8.699219 0 0 L -6.027344 3.304688 L 19.445313 26.949219 M 35.3125 26.832031 L 41.378906 23.332031 L 47.328125 26.601563 L 41.300781 29.90625 L 41.105469 29.90625 L 35.390625 27.222656 M 27.222656 22.554688 L 33.289063 19.289063 L 33.484375 19.289063 L 39.511719 22.515625 L 33.40625 25.785156 L 27.222656 22.789063 "/>
</g>
<mask id="mask1">
  <g filter="url(#alpha)">
<rect x="0" y="0" width="70" height="70" style="fill:rgb(0%,0%,0%);fill-opacity:0.6;stroke:none;"/>
  </g>
</mask>
<clipPath id="clip2">
  <rect x="0" y="0" width="70" height="70"/>
</clipPath>
<g id="surface8" clip-path="url(#clip2)">
<path style=" stroke:none;fill-rule:nonzero;fill:rgb(100%,100%,100%);fill-opacity:1;" d="M 34.300781 43.476563 L 40.40625 40.09375 L 40.40625 33.054688 L 34.261719 36.4375 L 34.261719 43.246094 Z M 48.417969 28.464844 L 42.273438 31.851563 L 42.273438 38.890625 L 42.464844 38.890625 L 48.570313 35.503906 L 48.570313 28.621094 C 48.570313 28.621094 48.496094 28.464844 48.417969 28.464844 Z M 35 47.445313 C 36.246094 47.445313 37.527344 47.832031 37.605469 49.390625 C 23.96875 46.136719 15.550781 32.441406 18.804688 18.804688 C 22.058594 5.164063 35.75 -3.253906 49.390625 0 L 52.5 -1.285156 L 52.5 -8.285156 L 46.355469 -4.898438 L 46.355469 -2.839844 Z M 48.222656 37.410156 L 42.078125 40.792969 L 42.078125 47.601563 L 42.273438 47.601563 L 48.378906 44.214844 L 48.378906 37.605469 Z M 48.222656 37.410156 "/>
</g>
</defs>
<g id="surface1">
<path style=" stroke:none;fill-rule:nonzero;fill:rgb(46.666667%,22.745098%,86.27451%);fill-opacity:1;" d="M 7.503906 8.167969 L 12.25 2.722656 C 11.5 6.105469 8.148438 8.238281 4.765625 7.484375 C 1.382813 6.734375 -0.75 3.382813 0 0 L 45.109375 0 C 45.109375 12.457031 35.011719 22.554688 22.554688 22.554688 C 10.097656 22.554688 0 12.457031 0 0 L 0 56.390625 C -15.570313 55.917969 -27.8125 42.910156 -27.339844 27.339844 C -26.867188 11.765625 -13.859375 -0.472656 1.710938 0 L -3.34375 4.667969 L 10.578125 4.667969 L 7.464844 3.34375 Z M 7.503906 8.167969 "/>
<path style=" stroke:none;fill-rule:nonzero;fill:rgb(100%,100%,100%);fill-opacity:1;" d="M 11.277344 8.167969 L 14.15625 4.859375 C 12.8125 8.769531 8.554688 10.851563 4.648438 9.507813 C 0.738281 8.164063 -1.34375 3.910156 0 0 L 42.3125 0 C 42.3125 11.683594 32.839844 21.15625 21.15625 21.15625 C 9.472656 21.15625 0 11.683594 0 0 L 0 53.589844 C -14.796875 53.171875 -26.453125 40.835938 -26.035156 26.035156 C -25.617188 11.238281 -13.28125 -0.417969 1.515625 0 L -2.957031 4.082031 Z M 11.277344 8.167969 "/>
<path style=" stroke:none;fill-rule:nonzero;fill:url(#linear0);" d="M 54.445313 8.167969 L 7.582031 8.167969 L 7.582031 66.5 C -10.78125 68.59375 -27.363281 55.40625 -29.457031 37.042969 C -31.550781 18.679688 -18.363281 2.09375 0 0 L 54.445313 0 C 54.445313 15.035156 42.257813 27.222656 27.222656 27.222656 C 12.1875 27.222656 0 15.035156 0 0 L 0 9.644531 C -2.664063 9.644531 -4.820313 7.484375 -4.820313 4.820313 C -4.820313 2.160156 -2.664063 0 0 0 Z M 54.445313 8.167969 "/>
<path style=" stroke:none;fill-rule:nonzero;fill:rgb(100%,100%,100%);fill-opacity:1;" d="M 32.472656 43.476563 L 26.25 40.054688 L 26.25 33.054688 L 32.355469 36.4375 L 32.355469 43.246094 M 24.5 38.890625 L 18.277344 35.582031 L 18.277344 28.582031 L 24.382813 31.964844 L 24.382813 38.890625 "/>
<use xlink:href="#surface5" mask="url(#mask0)"/>
<use xlink:href="#surface8" mask="url(#mask1)"/>
<path style=" stroke:none;fill-rule:nonzero;fill:rgb(100%,100%,100%);fill-opacity:1;" d="M 28.464844 46.277344 C 28.855469 46.859375 29.246094 47.445313 29.632813 47.523438 L 32.667969 47.523438 L 32.667969 45.421875 L 26.445313 41.921875 L 26.445313 43.867188 C 14.332031 38.046875 9.230469 23.507813 15.050781 11.394531 C 20.871094 -0.71875 35.410156 -5.820313 47.523438 0 Z M 23.917969 43.320313 C 35.878906 49.839844 50.863281 45.425781 57.378906 33.464844 C 63.898438 21.5 59.484375 6.519531 47.523438 0 L 47.523438 -2.527344 L 41.300781 -5.910156 L 41.300781 0.621094 C 45.980469 -4.058594 53.574219 -4.058594 58.253906 0.621094 C 62.9375 5.304688 62.9375 12.894531 58.253906 17.578125 Z M 23.917969 43.320313 "/>
<path style=" stroke:none;fill-rule:nonzero;fill:rgb(100%,100%,100%);fill-opacity:1;" d="M 46.199219 50.554688 L 42.3125 52.890625 L 38.035156 55.417969 C 22.730469 55.296875 10.421875 42.796875 10.539063 27.496094 C 10.65625 12.191406 23.160156 -0.117188 38.460938 0 L 37.179688 0 L 33.289063 0.195313 L 31.226563 0.195313 C 29.554688 0.195313 27.105469 -1.554688 25.785156 -2.761719 L 25.121094 -3.382813 C 26.054688 4.316406 20.570313 11.316406 12.871094 12.25 C 5.171875 13.183594 -1.828125 7.699219 -2.761719 0 L -5.015625 0 L -5.015625 -5.714844 L 18.277344 -5.714844 C 22.875 -10.3125 30.324219 -10.3125 34.921875 -5.714844 C 39.519531 -1.121094 39.519531 6.332031 34.921875 10.929688 L 34.921875 53.707031 C 35.464844 54.484375 35.933594 55.144531 36.59375 55.261719 C 37.253906 55.378906 38.851563 55.261719 40.289063 55.261719 L 35 55.261719 C 36.554688 55.261719 36.867188 55.726563 36.945313 56.429688 C 39.53125 56.074219 41.917969 57.882813 42.273438 60.472656 C 42.625 63.058594 40.816406 65.445313 38.226563 65.800781 C 36.945313 65.800781 33.5625 66.1875 32.707031 65.410156 L 30.371094 63.351563 L 29.90625 63.933594 L 32.238281 65.957031 C 32.195313 56.796875 39.585938 49.335938 48.746094 49.292969 C 57.90625 49.25 65.367188 56.640625 65.410156 65.800781 C 66.035156 65.800781 67.511719 65.800781 68.328125 65.605469 C 63.582031 60.605469 63.738281 52.71875 68.675781 47.90625 C 73.613281 43.097656 81.503906 43.148438 86.378906 48.023438 C 91.253906 52.898438 91.304688 60.785156 86.492188 65.722656 C 81.683594 70.664063 73.796875 70.816406 68.792969 66.070313 C 69.027344 66.070313 74.238281 63.738281 75.679688 63.078125 C 77.117188 62.417969 79.566406 62.222656 79.761719 63.078125 C 79.957031 63.933594 79.371094 64.476563 78.207031 65.101563 Z M 46.199219 50.554688 "/>
</g>
</svg>
