<?xml version="1.0" encoding="UTF-8"?>
<svg xmlns="http://www.w3.org/2000/svg" xmlns:xlink="http://www.w3.org/1999/xlink" width="70pt" height="70pt" viewBox="0 0 70 70" version="1.1">
<defs>
<linearGradient id="linear0" gradientUnits="userSpaceOnUse" x1="9" y1="16.795" x2="9" y2="1.205" gradientTransform="matrix(3.888889,0,0,3.888889,0,0)">
<stop offset="0" style="stop-color:rgb(36.862745%,58.823529%,14.117647%);stop-opacity:1;"/>
<stop offset="0.321" style="stop-color:rgb(38.823529%,61.568627%,14.901961%);stop-opacity:1;"/>
<stop offset="0.794" style="stop-color:rgb(43.529412%,69.411765%,16.470588%);stop-opacity:1;"/>
<stop offset="0.999" style="stop-color:rgb(46.27451%,73.72549%,17.647059%);stop-opacity:1;"/>
</linearGradient>
<filter id="alpha" filterUnits="objectBoundingBox" x="0%" y="0%" width="100%" height="100%">
  <feColorMatrix type="matrix" in="SourceGraphic" values="0 0 0 0 1 0 0 0 0 1 0 0 0 0 1 0 0 0 1 0"/>
</filter>
<mask id="mask0">
  <g filter="url(#alpha)">
<rect x="0" y="0" width="70" height="70" style="fill:rgb(0%,0%,0%);fill-opacity:0.14902;stroke:none;"/>
  </g>
</mask>
<clipPath id="clip1">
  <rect x="0" y="0" width="70" height="70"/>
</clipPath>
<g id="surface5" clip-path="url(#clip1)">
<path style=" stroke:none;fill-rule:nonzero;fill:rgb(70.196078%,70.196078%,70.196078%);fill-opacity:1;" d="M 23.910156 29.78125 L 46.09375 29.78125 C 37.871094 42.511719 20.886719 46.160156 8.15625 37.9375 C -4.570313 29.714844 -8.222656 12.730469 0 0 L 23.09375 46.277344 C 10.3125 46.535156 -0.257813 36.386719 -0.515625 23.609375 C -0.773438 10.828125 9.375 0.257813 22.15625 0 L 22.15625 -14.3125 C 26.105469 -14.3125 29.3125 -11.109375 29.3125 -7.15625 C 29.3125 -3.203125 26.105469 0 22.15625 0 Z M 23.910156 29.78125 "/>
</g>
<mask id="mask1">
  <g filter="url(#alpha)">
<rect x="0" y="0" width="70" height="70" style="fill:rgb(0%,0%,0%);fill-opacity:0.0901961;stroke:none;"/>
  </g>
</mask>
<clipPath id="clip2">
  <rect x="0" y="0" width="70" height="70"/>
</clipPath>
<g id="surface8" clip-path="url(#clip2)">
<path style=" stroke:none;fill-rule:nonzero;fill:rgb(63.921569%,63.921569%,63.921569%);fill-opacity:1;" d="M 46.09375 29.78125 L 23.90625 29.78125 C 15.679688 29.695313 9.085938 22.957031 9.171875 14.734375 C 9.257813 6.511719 15.992188 -0.0859375 24.214844 0 L 48.03125 16.1875 C 43.5625 22.761719 34.609375 24.46875 28.03125 20 C 21.453125 15.53125 19.746094 6.578125 24.214844 0 L 24.214844 -14.3125 C 28.167969 -13.964844 31.09375 -10.484375 30.746094 -6.53125 C 30.402344 -2.578125 26.917969 0.34375 22.96875 0 Z M 46.09375 29.78125 "/>
</g>
</defs>
<g id="surface1">
<path style=" stroke:none;fill-rule:nonzero;fill:rgb(46.27451%,73.72549%,17.647059%);fill-opacity:1;" d="M 62.546875 32.8125 C 62.546875 50.589844 40.667969 64.898438 35.90625 67.8125 C 17.179688 67.8125 2 52.632813 2 33.90625 C 2 15.179688 17.179688 0 35.90625 0 C 31.144531 -2.90625 9.265625 -17.210938 9.265625 -35 L 9.265625 -56.390625 C 24.839844 -44.164063 27.550781 -21.632813 15.328125 -6.0625 C 3.105469 9.511719 -19.429688 12.222656 -35 0 C 26.164063 9.277344 22.246094 1.945313 35 1.945313 C 47.753906 1.945313 43.835938 9.277344 60.855469 9.722656 C 58.171875 25.992188 42.808594 37.003906 26.539063 34.316406 C 10.269531 31.632813 -0.742188 16.269531 1.945313 0 Z M 62.546875 32.8125 "/>
<path style=" stroke:none;fill-rule:nonzero;fill:url(#linear0);" d="M 60.277344 32.996094 C 60.277344 49.296875 40.210938 62.421875 35.847656 65.082031 C 17.875 65.082031 3.308594 50.511719 3.308594 32.539063 C 3.308594 14.570313 17.875 0 35.847656 0 C 31.46875 -2.660156 11.386719 -15.785156 11.386719 -32.082031 L 11.386719 13.382813 C 7.691406 25.386719 -5.035156 32.121094 -17.039063 28.425781 C -29.042969 24.730469 -35.777344 12.003906 -32.082031 0 C 26.894531 11.414063 23.300781 4.6875 35 4.6875 C 46.699219 4.6875 43.105469 11.414063 58.722656 11.828125 C 55.457031 26.75 40.710938 36.199219 25.789063 32.933594 C 10.867188 29.667969 1.417969 14.921875 4.6875 0 Z M 60.277344 32.996094 "/>
<path style=" stroke:none;fill-rule:nonzero;fill:rgb(100%,100%,100%);fill-opacity:1;" d="M 46.09375 29.789063 L 44.507813 29.789063 L 44.507813 24.277344 C 44.257813 28.484375 41.472656 32.117188 37.472656 33.449219 L 47.609375 43.582031 L 47.609375 29.789063 L 45.992188 29.789063 C 49.804688 29.445313 53.167969 32.253906 53.511719 36.0625 C 53.855469 39.871094 51.046875 43.238281 47.238281 43.582031 L 47.238281 57.902344 C 43.285156 57.902344 40.078125 54.695313 40.078125 50.742188 C 40.078125 46.789063 43.285156 43.582031 47.238281 43.582031 L 69.429688 43.582031 C 69.429688 49.710938 64.460938 54.679688 58.332031 54.679688 C 52.207031 54.679688 47.238281 49.710938 47.238281 43.582031 L 47.238281 31.035156 C 50.703125 31.378906 53.234375 34.464844 52.890625 37.929688 C 52.546875 41.394531 49.460938 43.925781 45.992188 43.582031 Z M 40.070313 29.789063 L 29.945313 29.789063 L 29.945313 24.183594 C 29.578125 21.800781 30.785156 19.453125 32.9375 18.363281 C 35.085938 17.273438 37.695313 17.691406 39.398438 19.394531 C 41.105469 21.101563 41.519531 23.707031 40.429688 25.859375 C 39.34375 28.011719 36.996094 29.21875 34.609375 28.851563 L 34.609375 33.335938 C 34.761719 27.203125 35.574219 22.230469 36.425781 22.230469 C 37.273438 22.230469 37.839844 27.203125 37.6875 33.335938 Z M 40.070313 29.789063 "/>
<use xlink:href="#surface5" mask="url(#mask0)"/>
<use xlink:href="#surface8" mask="url(#mask1)"/>
</g>
</svg>
