<?xml version="1.0" encoding="UTF-8"?>
<svg xmlns="http://www.w3.org/2000/svg" xmlns:xlink="http://www.w3.org/1999/xlink" width="56pt" height="70pt" viewBox="0 0 56 70" version="1.1">
<g id="surface1">
<path style=" stroke:none;fill-rule:nonzero;fill:rgb(0%,0%,0%);fill-opacity:1;" d="M 34.890625 45.5 C 22.519531 55.285156 4.679688 53.035156 -4.953125 40.46875 C -14.589844 27.902344 -12.371094 9.785156 0 0 C 3.246094 5.523438 3.246094 12.414063 0 17.9375 L 4.308594 17.9375 C 4.308594 5.855469 13.949219 -3.9375 25.847656 -3.9375 C 37.742188 -3.9375 47.382813 5.855469 47.382813 17.9375 C 47.382813 30.019531 37.742188 39.8125 25.847656 39.8125 L 30.152344 39.8125 C 22.625 43.933594 13.558594 43.933594 6.03125 39.8125 Z M 12.921875 30.625 C 12.921875 23.617188 18.515625 17.9375 25.414063 17.9375 C 32.316406 17.9375 37.90625 23.617188 37.90625 30.625 C 37.90625 37.632813 32.316406 43.3125 25.414063 43.3125 L 25.414063 47.6875 C 26.75 53.390625 31.648438 57.503906 37.417969 57.765625 C 43.183594 58.023438 48.421875 54.367188 50.25 48.800781 C 52.074219 43.238281 50.046875 37.121094 45.277344 33.816406 C 40.511719 30.507813 34.160156 30.8125 29.722656 34.5625 Z M 12.921875 30.625 "/>
<path style=" stroke:none;fill-rule:nonzero;fill:rgb(0%,0%,0%);fill-opacity:1;" d="M 56 30.625 C 54.636719 46.363281 41.394531 58.277344 25.847656 57.75 L 28 59.9375 L 28 66.5 L 32.308594 66.5 C 31.117188 67.707031 29.191406 67.707031 28 66.5 C 26.808594 65.292969 26.808594 63.332031 28 62.125 L 49.539063 62.125 C 49.539063 68.164063 44.71875 73.0625 38.769531 73.0625 C 32.820313 73.0625 28 68.164063 28 62.125 Z M 56 30.625 "/>
</g>
</svg>
