<?xml version="1.0" encoding="UTF-8"?>
<svg xmlns="http://www.w3.org/2000/svg" xmlns:xlink="http://www.w3.org/1999/xlink" width="70pt" height="70pt" viewBox="0 0 70 70" version="1.1">
<defs>
<linearGradient id="linear0" gradientUnits="userSpaceOnUse" x1="6.49" y1="6.29" x2="6.49" y2="18.38" gradientTransform="matrix(3.888889,0,0,3.888889,0,0)">
<stop offset="0.1" style="stop-color:rgb(32.941176%,68.235294%,94.117647%);stop-opacity:1;"/>
<stop offset="1" style="stop-color:rgb(9.803922%,53.333333%,85.098039%);stop-opacity:1;"/>
</linearGradient>
<filter id="alpha" filterUnits="objectBoundingBox" x="0%" y="0%" width="100%" height="100%">
  <feColorMatrix type="matrix" in="SourceGraphic" values="0 0 0 0 1 0 0 0 0 1 0 0 0 0 1 0 0 0 1 0"/>
</filter>
<mask id="mask0">
  <g filter="url(#alpha)">
<rect x="0" y="0" width="70" height="70" style="fill:rgb(0%,0%,0%);fill-opacity:0.8;stroke:none;"/>
  </g>
</mask>
<clipPath id="clip1">
  <rect x="0" y="0" width="70" height="70"/>
</clipPath>
<g id="surface5" clip-path="url(#clip1)">
<path style=" stroke:none;fill-rule:nonzero;fill:rgb(100%,100%,100%);fill-opacity:1;" d="M 29.089844 32.433594 C 20.132813 33.132813 12.304688 26.4375 11.609375 17.480469 C 10.910156 8.523438 17.605469 0.699219 26.5625 0 L 35.078125 22.207031 L 43.515625 0.117188 C 35.164063 -0.128906 28.496094 -6.929688 28.417969 -15.285156 C 28.339844 -23.640625 34.875 -30.566406 43.222656 -30.96875 C 51.566406 -31.375 58.742188 -25.109375 59.46875 -16.785156 C 60.195313 -8.460938 54.21875 -1.050781 45.929688 0 Z M 29.089844 32.433594 "/>
</g>
<linearGradient id="linear1" gradientUnits="userSpaceOnUse" x1="7.13" y1="-0.19" x2="8.01" y2="10.79" gradientTransform="matrix(3.888889,0,0,3.888889,0,0)">
<stop offset="0.1" style="stop-color:rgb(32.941176%,68.235294%,94.117647%);stop-opacity:1;"/>
<stop offset="1" style="stop-color:rgb(9.803922%,53.333333%,85.098039%);stop-opacity:1;"/>
</linearGradient>
<linearGradient id="linear2" gradientUnits="userSpaceOnUse" x1="13.76" y1="18.05" x2="13.76" y2="10.25" gradientTransform="matrix(3.888889,0,0,3.888889,0,0)">
<stop offset="0" style="stop-color:rgb(46.27451%,73.72549%,17.647059%);stop-opacity:1;"/>
<stop offset="0.6" style="stop-color:rgb(50.588235%,80.784314%,19.215686%);stop-opacity:1;"/>
<stop offset="0.82" style="stop-color:rgb(52.54902%,83.921569%,20%);stop-opacity:1;"/>
</linearGradient>
</defs>
<g id="surface1">
<path style=" stroke:none;fill-rule:nonzero;fill:url(#linear0);" d="M 36.359375 40.09375 C 25.289063 50.136719 8.175781 49.300781 -1.867188 38.226563 C -11.90625 27.15625 -11.070313 10.039063 0 0 L 11.394531 0 C 8.273438 0.589844 5.066406 0.589844 1.945313 0 C 11.667969 28.660156 2.527344 39.589844 0.777344 57.4375 C -15.082031 41.792969 -15.257813 16.25 0.390625 0.390625 C 16.035156 -15.472656 41.578125 -15.648438 57.4375 0 L 88.550781 0 Z M 36.359375 40.09375 "/>
<use xlink:href="#surface5" mask="url(#mask0)"/>
<path style=" stroke:none;fill-rule:nonzero;fill:url(#linear1);" d="M 44.957031 16.527344 C 44.957031 25.289063 37.851563 32.394531 29.089844 32.394531 C 20.324219 32.394531 13.222656 25.289063 13.222656 16.527344 C 13.222656 7.765625 20.324219 0.660156 29.089844 0.660156 C 37.851563 0.660156 44.957031 7.765625 44.957031 16.527344 Z M 44.957031 16.527344 "/>
<path style=" stroke:none;fill-rule:nonzero;fill:url(#linear2);" d="M 48.960938 61.09375 L 58.0625 61.09375 L 58.0625 70.195313 L 48.960938 70.195313 Z M 38.34375 48.960938 L 47.445313 48.960938 L 47.445313 39.859375 L 39.667969 39.859375 C 28.660156 39.507813 20.023438 30.296875 20.378906 19.289063 C 20.730469 8.28125 29.941406 -0.355469 40.949219 0 Z M 39.628906 70.195313 L 47.40625 70.195313 L 47.40625 61.09375 L 38.34375 61.09375 L 38.34375 68.871094 C 19.324219 68.152344 4.492188 52.152344 5.210938 33.132813 C 5.929688 14.113281 21.929688 -0.71875 40.949219 0 Z M 38.34375 59.578125 L 47.445313 59.578125 L 47.445313 50.554688 L 38.34375 50.554688 Z M 59.539063 70.195313 L 67.316406 70.195313 C 47.933594 77.476563 26.316406 67.664063 19.035156 48.28125 C 11.753906 28.898438 21.566406 7.28125 40.949219 0 L 40.949219 -7.777344 L 31.929688 -7.777344 Z M 48.960938 59.578125 L 58.0625 59.578125 L 58.0625 50.554688 L 48.960938 50.554688 Z M 59.539063 59.578125 L 68.640625 59.578125 L 68.640625 50.554688 L 59.539063 50.554688 Z M 59.539063 39.859375 L 59.539063 48.960938 L 68.640625 48.960938 L 68.640625 41.183594 C 57.265625 41.539063 47.761719 32.605469 47.40625 21.234375 C 47.050781 9.859375 55.984375 0.355469 67.355469 0 Z M 48.960938 48.960938 L 58.0625 48.960938 L 58.0625 39.859375 L 48.960938 39.859375 Z M 48.960938 48.960938 "/>
</g>
</svg>
