<?xml version="1.0" encoding="UTF-8"?>
<svg xmlns="http://www.w3.org/2000/svg" xmlns:xlink="http://www.w3.org/1999/xlink" width="70pt" height="70pt" viewBox="0 0 70 70" version="1.1">
<defs>
<linearGradient id="linear0" gradientUnits="userSpaceOnUse" x1="9" y1="0.31" x2="9" y2="17.69" gradientTransform="matrix(3.888889,0,0,3.888889,0,0)">
<stop offset="0" style="stop-color:rgb(77.647059%,60.392157%,92.156863%);stop-opacity:1;"/>
<stop offset="0.09" style="stop-color:rgb(73.333333%,56.470588%,89.411765%);stop-opacity:1;"/>
<stop offset="0.49" style="stop-color:rgb(57.254902%,41.960784%,78.823529%);stop-opacity:1;"/>
<stop offset="0.81" style="stop-color:rgb(47.058824%,32.941176%,72.156863%);stop-opacity:1;"/>
<stop offset="1" style="stop-color:rgb(43.529412%,29.411765%,69.803922%);stop-opacity:1;"/>
</linearGradient>
</defs>
<g id="surface1">
<path style=" stroke:none;fill-rule:nonzero;fill:url(#linear0);" d="M 68.679688 11.121094 L 59.382813 1.90625 C 58.859375 1.417969 58.601563 0.710938 58.683594 0 L 41.457031 0.660156 C 41.621094 0.390625 41.847656 0.164063 42.117188 0 L 1.320313 39.9375 C -9.707031 28.671875 -9.515625 10.601563 1.75 -0.429688 C 13.015625 -11.457031 31.085938 -11.265625 42.117188 0 L 67.160156 24.929688 C 74.042969 18.011719 74.019531 6.824219 67.101563 -0.0585938 C 60.1875 -6.941406 49 -6.914063 42.117188 0 L 79.800781 -37.449219 C 90.140625 -27.042969 90.089844 -10.226563 79.683594 0.117188 C 69.277344 10.457031 52.457031 10.40625 42.117188 0 L 43.476563 -16.292969 C 47.976563 -15.800781 51.222656 -11.753906 50.730469 -7.253906 C 50.238281 -2.753906 46.1875 0.492188 41.6875 0 Z M 57.476563 17.226563 C 57.460938 15.523438 58.480469 13.976563 60.050781 13.316406 C 61.625 12.65625 63.441406 13.011719 64.648438 14.21875 C 65.855469 15.425781 66.210938 17.242188 65.550781 18.8125 C 64.890625 20.386719 63.34375 21.40625 61.640625 21.390625 Z M 57.476563 17.226563 "/>
<path style=" stroke:none;fill-rule:nonzero;fill:rgb(33.333333%,18.431373%,60%);fill-opacity:1;" d="M 57.476563 5.601563 C 57.5 1.488281 60.84375 -1.835938 64.957031 -1.828125 C 69.070313 -1.820313 72.402344 1.511719 72.410156 5.625 C 72.417969 9.738281 69.097656 13.085938 64.984375 13.105469 Z M 61.601563 13.882813 C 63.78125 14.273438 65.28125 16.289063 65.035156 18.492188 C 64.785156 20.691406 62.867188 22.320313 60.65625 22.210938 C 58.445313 22.105469 56.695313 20.296875 56.660156 18.082031 Z M 61.601563 13.882813 "/>
</g>
</svg>
