<?xml version="1.0" encoding="UTF-8"?>
<svg xmlns="http://www.w3.org/2000/svg" xmlns:xlink="http://www.w3.org/1999/xlink" width="70pt" height="70pt" viewBox="0 0 70 70" version="1.1">
<defs>
<linearGradient id="linear0" gradientUnits="userSpaceOnUse" x1="8.8" y1="12.87" x2="8.8" y2="0.87" gradientTransform="matrix(3.888889,0,0,3.888889,0,0)">
<stop offset="0" style="stop-color:rgb(0%,47.058824%,83.137255%);stop-opacity:1;"/>
<stop offset="0.82" style="stop-color:rgb(36.862745%,62.745098%,93.72549%);stop-opacity:1;"/>
</linearGradient>
<linearGradient id="linear1" gradientUnits="userSpaceOnUse" x1="8.81" y1="17.5" x2="8.81" y2="12.87" gradientTransform="matrix(3.888889,0,0,3.888889,0,0)">
<stop offset="0" style="stop-color:rgb(7.843137%,56.470588%,87.45098%);stop-opacity:1;"/>
<stop offset="0.98" style="stop-color:rgb(12.156863%,33.72549%,63.921569%);stop-opacity:1;"/>
</linearGradient>
</defs>
<g id="surface1">
<path style=" stroke:none;fill-rule:nonzero;fill:url(#linear0);" d="M 1.554688 3.382813 L 66.890625 3.382813 C 68.175781 3.382813 69.222656 4.429688 69.222656 5.714844 L 69.222656 47.714844 C 69.222656 49.003906 68.175781 50.050781 66.890625 50.050781 L 1.554688 50.050781 C 0.265625 50.050781 -0.777344 49.003906 -0.777344 47.714844 L -0.777344 5.714844 C -0.777344 4.429688 0.265625 3.382813 1.554688 3.382813 Z M 1.554688 3.382813 "/>
<path style=" stroke:none;fill-rule:nonzero;fill:rgb(31.372549%,90.196078%,100%);fill-opacity:1;" d="M 45.890625 19.910156 L 45.890625 33.484375 L 34.222656 40.328125 L 34.222656 26.714844 Z M 45.890625 19.910156 "/>
<path style=" stroke:none;fill-rule:nonzero;fill:rgb(76.470588%,94.509804%,100%);fill-opacity:1;" d="M 45.890625 19.910156 L 34.261719 26.753906 L 22.554688 19.910156 L 34.261719 13.105469 Z M 45.890625 19.910156 "/>
<path style=" stroke:none;fill-rule:nonzero;fill:rgb(61.176471%,92.156863%,100%);fill-opacity:1;" d="M 34.222656 26.753906 L 34.222656 40.328125 L 22.554688 33.484375 L 22.554688 19.910156 Z M 34.222656 26.753906 "/>
<path style=" stroke:none;fill-rule:nonzero;fill:rgb(76.470588%,94.509804%,100%);fill-opacity:1;" d="M 22.554688 33.484375 L 34.222656 26.714844 L 34.222656 40.328125 Z M 22.554688 33.484375 "/>
<path style=" stroke:none;fill-rule:nonzero;fill:rgb(61.176471%,92.156863%,100%);fill-opacity:1;" d="M 45.890625 33.484375 L 34.222656 26.714844 L 34.222656 40.328125 Z M 45.890625 33.484375 "/>
<path style=" stroke:none;fill-rule:nonzero;fill:url(#linear1);" d="M 48.261719 64.167969 C 41.339844 63.078125 41.066406 58.101563 41.105469 50.050781 L 27.222656 50.050781 C 27.222656 58.101563 27.222656 63.078125 20.183594 64.167969 C 2.464844 63.09375 -11.03125 47.859375 -9.957031 30.140625 C -8.882813 12.417969 6.351563 -1.074219 24.070313 0 L 59.070313 0 C 57.855469 0.648438 56.398438 0.648438 55.183594 0 Z M 48.261719 64.167969 "/>
<path style=" stroke:none;fill-rule:nonzero;fill:rgb(100%,100%,100%);fill-opacity:1;" d="M 18.199219 8.050781 L 7.503906 8.050781 C 5.28125 7.339844 4.054688 4.964844 4.765625 2.742188 C 5.472656 0.519531 7.847656 -0.707031 10.070313 0 L 10.070313 10.734375 C 7.109375 10.734375 4.707031 8.332031 4.707031 5.367188 C 4.707031 2.402344 7.109375 0 10.070313 0 L 10.929688 0 C 11.515625 0.207031 11.871094 0.8125 11.765625 1.425781 C 11.660156 2.042969 11.125 2.492188 10.5 2.492188 C 9.875 2.492188 9.339844 2.042969 9.234375 1.425781 C 9.128906 0.8125 9.484375 0.207031 10.070313 0 L 10.070313 11.433594 L 19.910156 11.433594 C 16.753906 14.148438 11.992188 13.792969 9.273438 10.636719 C 6.558594 7.480469 6.914063 2.71875 10.070313 0 L 10.070313 9.332031 C 7.496094 9.6875 5.117188 7.886719 4.765625 5.308594 C 4.410156 2.730469 6.210938 0.355469 8.789063 0 Z M 18.199219 41.726563 L 8.320313 41.726563 L 8.320313 31.890625 C -0.484375 32.242188 -7.910156 25.390625 -8.265625 16.585938 C -8.617188 7.78125 -1.765625 0.355469 7.039063 0 L 6.222656 0 C 6.621094 -0.230469 7.109375 -0.230469 7.503906 0 L 7.503906 42.777344 C -4.308594 42.777344 -13.882813 33.203125 -13.882813 21.390625 C -13.882813 9.574219 -4.308594 0 7.503906 0 L 18.199219 0 C 18.199219 2.953125 15.804688 5.347656 12.851563 5.347656 C 9.898438 5.347656 7.503906 2.953125 7.503906 0 L 7.503906 -0.855469 C 7.316406 -0.316406 6.792969 0.03125 6.222656 0 Z M 61.09375 8.167969 L 50.554688 8.167969 C 48.300781 7.8125 46.757813 5.695313 47.113281 3.441406 C 47.46875 1.1875 49.582031 -0.355469 51.839844 0 L 51.839844 0.816406 C 51.640625 1.414063 51.035156 1.777344 50.414063 1.675781 C 49.792969 1.574219 49.339844 1.039063 49.339844 0.410156 C 49.339844 -0.21875 49.792969 -0.757813 50.414063 -0.859375 C 51.035156 -0.960938 51.640625 -0.597656 51.839844 0 L 61.679688 0 L 61.679688 9.761719 C 58.980469 12.476563 54.59375 12.496094 51.878906 9.800781 C 49.160156 7.105469 49.144531 2.71875 51.839844 0 L 52.734375 0 C 53.316406 0.214844 53.660156 0.820313 53.550781 1.429688 C 53.4375 2.042969 52.90625 2.484375 52.285156 2.484375 C 51.664063 2.484375 51.132813 2.042969 51.023438 1.429688 C 50.914063 0.820313 51.257813 0.214844 51.839844 0 L 51.839844 10.734375 C 48.875 11.441406 45.898438 9.613281 45.1875 6.648438 C 44.480469 3.6875 46.308594 0.707031 49.273438 0 Z M 62.417969 30.683594 L 61.601563 30.683594 C 53.128906 30.328125 46.546875 23.171875 46.898438 14.699219 C 47.253906 6.226563 54.410156 -0.355469 62.882813 0 L 62.882813 9.878906 L 50.554688 9.878906 C 47.828125 9.523438 45.902344 7.023438 46.257813 4.296875 C 46.613281 1.570313 49.109375 -0.355469 51.839844 0 L 51.839844 0.855469 C 51.628906 1.445313 51.027344 1.796875 50.410156 1.691406 C 49.796875 1.585938 49.34375 1.054688 49.34375 0.429688 C 49.34375 -0.195313 49.796875 -0.730469 50.410156 -0.835938 C 51.027344 -0.941406 51.628906 -0.589844 51.839844 0 L 62.535156 0 C 62.535156 2.953125 60.140625 5.347656 57.1875 5.347656 C 54.234375 5.347656 51.839844 2.953125 51.839844 0 L 51.839844 31.964844 C 43.011719 32.320313 35.566406 25.453125 35.214844 16.625 C 34.859375 7.796875 41.726563 0.355469 50.554688 0 Z M 62.417969 30.683594 "/>
</g>
</svg>
