<?xml version="1.0" encoding="UTF-8"?>
<svg xmlns="http://www.w3.org/2000/svg" xmlns:xlink="http://www.w3.org/1999/xlink" width="70pt" height="70pt" viewBox="0 0 70 70" version="1.1">
<defs>
<linearGradient id="linear0" gradientUnits="userSpaceOnUse" x1="7.86" y1="17.94" x2="7.86" y2="5.72" gradientTransform="matrix(3.888889,0,0,3.888889,0,0)">
<stop offset="0" style="stop-color:rgb(46.666667%,22.745098%,86.27451%);stop-opacity:1;"/>
<stop offset="1" style="stop-color:rgb(71.764706%,47.843137%,95.686275%);stop-opacity:1;"/>
</linearGradient>
<linearGradient id="linear1" gradientUnits="userSpaceOnUse" x1="7.87" y1="9.28" x2="7.87" y2="-1.85" gradientTransform="matrix(3.888889,0,0,3.888889,0,0)">
<stop offset="0" style="stop-color:rgb(46.666667%,22.745098%,86.27451%);stop-opacity:1;"/>
<stop offset="1" style="stop-color:rgb(71.764706%,47.843137%,95.686275%);stop-opacity:1;"/>
</linearGradient>
</defs>
<g id="surface1">
<path style=" stroke:none;fill-rule:nonzero;fill:url(#linear0);" d="M 54.054688 65.527344 C 35.960938 80.453125 9.191406 77.886719 -5.734375 59.792969 C -20.664063 41.695313 -18.09375 14.925781 0 0 L 0 -0.621094 C -2.023438 -16.605469 -11.121094 -29.632813 -28.542969 -29.632813 C -45.964844 -29.632813 3.890625 41.84375 1.984375 59.890625 C -14.554688 68.621094 -35.039063 62.289063 -43.769531 45.753906 C -52.5 29.214844 -46.171875 8.730469 -29.632813 0 L 54.054688 0 Z M 54.054688 65.527344 "/>
<path style=" stroke:none;fill-rule:nonzero;fill:rgb(100%,100%,100%);fill-opacity:1;" d="M 30.605469 34.609375 C 21.046875 35.308594 12.734375 28.128906 12.035156 18.570313 C 11.339844 9.011719 18.519531 0.699219 28.078125 0 L 30.527344 54.445313 L 38.890625 32.199219 C 29.996094 31.535156 23.328125 23.785156 23.996094 14.894531 C 24.660156 6.003906 32.410156 -0.664063 41.300781 0 Z M 30.605469 34.609375 "/>
<path style=" stroke:none;fill-rule:nonzero;fill:url(#linear1);" d="M 46.667969 18.589844 C 46.667969 27.460938 39.476563 34.648438 30.605469 34.648438 C 21.734375 34.648438 14.542969 27.460938 14.542969 18.589844 C 14.542969 9.71875 21.734375 2.527344 30.605469 2.527344 C 39.476563 2.527344 46.667969 9.71875 46.667969 18.589844 Z M 46.667969 18.589844 "/>
<path style=" stroke:none;fill-rule:nonzero;fill:rgb(31.372549%,90.196078%,100%);fill-opacity:1;" d="M 37.488281 51.332031 L 65.878906 51.332031 C 67.082031 51.332031 68.054688 52.308594 68.054688 53.511719 L 68.054688 65.292969 C 68.054688 66.496094 67.082031 67.472656 65.878906 67.472656 L 37.488281 67.472656 C 36.285156 67.472656 35.3125 66.496094 35.3125 65.292969 L 35.3125 53.511719 C 35.3125 52.308594 36.285156 51.332031 37.488281 51.332031 Z M 37.488281 51.332031 "/>
<path style=" stroke:none;fill-rule:nonzero;fill:rgb(19.607843%,74.509804%,86.666667%);fill-opacity:1;" d="M 51.683594 51.332031 L 37.488281 51.332031 C 23.3125 50.730469 12.308594 38.753906 12.910156 24.578125 C 13.511719 10.402344 25.492188 -0.601563 39.667969 0 L 39.667969 11.667969 C 36.445313 11.667969 33.832031 9.054688 33.832031 5.832031 C 33.832031 2.613281 36.445313 0 39.667969 0 L 53.859375 0 Z M 51.683594 51.332031 "/>
<path style=" stroke:none;fill-rule:nonzero;fill:rgb(100%,100%,100%);fill-opacity:1;" d="M 49.3125 55.84375 L 48.960938 55.457031 C 33.648438 55.457031 21.234375 43.042969 21.234375 27.726563 C 21.234375 12.414063 33.648438 0 48.960938 0 L 41.339844 62.222656 L 38.890625 59.773438 C 22.382813 59.773438 9.003906 46.390625 9.003906 29.886719 C 9.003906 13.378906 22.382813 0 38.890625 0 L 38.539063 0.390625 C 38.574219 0.203125 38.710938 0.0546875 38.890625 0 L 42.15625 3.304688 L 42.351563 3.304688 C 43.261719 2.351563 43.226563 0.835938 42.273438 -0.078125 C 41.316406 -0.992188 39.800781 -0.957031 38.890625 0 L 46.472656 -7.777344 C 48.621094 -7.605469 50.222656 -5.726563 50.050781 -3.578125 C 49.878906 -1.429688 47.996094 0.171875 45.851563 0 Z M 49.3125 55.84375 "/>
<path style=" stroke:none;fill-rule:nonzero;fill:rgb(94.901961%,94.901961%,94.901961%);fill-opacity:1;" d="M 64.207031 63.078125 L 60.9375 59.851563 L 64.167969 56.621094 C 48.53125 74.339844 21.492188 76.03125 3.773438 60.394531 C -13.945313 44.757813 -15.636719 17.71875 0 0 L -0.429688 -0.429688 C -0.359375 -0.292969 -0.359375 -0.132813 -0.429688 0 L -3.65625 3.226563 L -6.84375 0.0390625 C -6.84375 0.0273438 -6.84375 0.0117188 -6.84375 0 L -7.234375 0.351563 C -7.171875 0.175781 -7.023438 0.0429688 -6.84375 0 L -3.617188 3.265625 L -6.804688 6.457031 C -8.589844 6.464844 -10.042969 5.03125 -10.054688 3.246094 C -10.0625 1.464844 -8.628906 0.0117188 -6.84375 0 L -6.457031 0.351563 C -6.273438 0.363281 -6.101563 0.261719 -6.03125 0.0898438 C -5.957031 -0.078125 -6 -0.273438 -6.136719 -0.394531 C -6.273438 -0.515625 -6.472656 -0.539063 -6.632813 -0.449219 C -6.792969 -0.359375 -6.878906 -0.179688 -6.84375 0 L -3.578125 -3.226563 L -0.3125 0 C -0.3125 -1.804688 -1.773438 -3.265625 -3.578125 -3.265625 C -5.382813 -3.265625 -6.84375 -1.804688 -6.84375 0 L -6.417969 -0.429688 C -6.460938 -0.210938 -6.628906 -0.0429688 -6.84375 0 Z M 64.207031 63.078125 "/>
</g>
</svg>
