<?xml version="1.0" encoding="UTF-8"?>
<svg xmlns="http://www.w3.org/2000/svg" xmlns:xlink="http://www.w3.org/1999/xlink" width="70pt" height="70pt" viewBox="0 0 70 70" version="1.1">
<g id="surface1">
<path style=" stroke:none;fill-rule:nonzero;fill:rgb(0%,0%,0%);fill-opacity:1;" d="M 72.011719 49.832031 L 72.011719 45.5 C 72.011719 38.632813 66.585938 33.03125 59.761719 32.550781 C 58.929688 30.757813 57.835938 29.136719 56.523438 27.648438 C 62.429688 26.382813 66.894531 21.175781 66.894531 14.917969 L 66.894531 10.542969 L 62.519531 10.542969 L 62.519531 14.875 C 62.519531 19.644531 58.582031 23.539063 53.769531 23.539063 L 52.105469 23.539063 C 50.574219 22.488281 48.824219 21.699219 47.03125 21.085938 C 48.5625 19.46875 49.523438 17.28125 49.523438 14.832031 C 49.523438 13.386719 49.175781 12.074219 48.5625 10.894531 L 53.988281 5.46875 L 50.925781 2.40625 L 45.804688 7.523438 C 44.273438 6.429688 42.4375 5.773438 40.425781 5.773438 L 37.40625 5.773438 C 35.394531 5.773438 33.511719 6.476563 32.023438 7.570313 L 26.863281 2.40625 L 23.800781 5.46875 L 29.226563 10.9375 C 28.613281 12.117188 28.261719 13.476563 28.261719 14.875 C 28.261719 17.414063 29.3125 19.6875 30.976563 21.351563 C 29.445313 21.960938 28 22.664063 26.644531 23.582031 L 25.070313 23.582031 C 20.210938 23.582031 16.273438 19.6875 16.273438 14.917969 L 16.273438 10.542969 L 11.898438 10.542969 L 11.898438 14.875 C 11.898438 21.085938 16.320313 26.292969 22.179688 27.5625 C 21 29.09375 19.90625 30.710938 19.074219 32.460938 C 11.898438 32.550781 6.082031 38.324219 6.082031 45.5 L 6.082031 49.832031 L 10.457031 49.832031 L 10.457031 45.5 C 10.457031 41.300781 13.476563 37.800781 17.5 37.011719 C 17.0625 38.585938 16.84375 40.25 16.84375 41.957031 L 16.84375 52.542969 C 16.84375 52.851563 16.929688 53.15625 16.929688 53.417969 L 16.320313 53.855469 C 13.476563 55.914063 11.59375 58.929688 10.980469 62.34375 C 10.414063 65.800781 11.199219 69.257813 13.210938 72.054688 L 15.75 75.601563 L 19.292969 73.0625 L 16.800781 69.5625 C 15.445313 67.679688 14.917969 65.40625 15.3125 63.085938 C 15.617188 61.292969 16.492188 59.675781 17.71875 58.40625 C 20.300781 67.769531 28.832031 74.679688 38.980469 74.679688 L 39.726563 74.679688 C 49.832031 74.679688 58.320313 67.8125 60.945313 58.539063 C 63.742188 61.511719 64.179688 66.148438 61.730469 69.5625 L 59.195313 73.105469 L 62.738281 75.644531 L 65.273438 72.101563 C 69.476563 66.28125 68.074219 58.101563 62.210938 53.855469 L 61.773438 53.550781 C 61.773438 53.199219 61.863281 52.894531 61.863281 52.542969 L 61.863281 41.957031 C 61.863281 40.335938 61.644531 38.761719 61.335938 37.230469 C 64.96875 38.324219 67.59375 41.605469 67.59375 45.5 L 67.59375 49.832031 Z M 32.332031 14.875 C 32.332031 12.074219 34.605469 9.800781 37.40625 9.800781 L 40.425781 9.800781 C 43.226563 9.800781 45.5 12.074219 45.5 14.875 C 45.5 17.542969 43.398438 19.730469 40.730469 19.90625 C 40.382813 19.90625 40.074219 19.820313 39.769531 19.820313 L 38.980469 19.820313 C 38.414063 19.820313 37.929688 19.949219 37.363281 19.992188 C 34.605469 19.949219 32.332031 17.675781 32.332031 14.875 Z M 57.53125 52.542969 C 57.53125 62.34375 49.570313 70.304688 39.769531 70.304688 L 38.980469 70.304688 C 29.179688 70.304688 21.21875 62.34375 21.21875 52.542969 L 21.21875 41.957031 C 21.21875 32.15625 29.179688 24.195313 38.980469 24.195313 L 39.726563 24.195313 C 49.523438 24.195313 57.488281 32.15625 57.488281 41.957031 L 57.488281 52.542969 Z M 57.53125 52.542969 "/>
</g>
</svg>
