<?xml version="1.0" encoding="UTF-8"?>
<svg xmlns="http://www.w3.org/2000/svg" xmlns:xlink="http://www.w3.org/1999/xlink" width="70pt" height="70pt" viewBox="0 0 70 70" version="1.1">
<defs>
<radialGradient id="radial0" gradientUnits="userSpaceOnUse" cx="9" cy="9" fx="9" fy="9" r="8.5" gradientTransform="matrix(3.888889,0,0,3.888889,0,0)">
<stop offset="0.18" style="stop-color:rgb(36.862745%,62.745098%,93.72549%);stop-opacity:1;"/>
<stop offset="1" style="stop-color:rgb(0%,47.058824%,83.137255%);stop-opacity:1;"/>
</radialGradient>
<clipPath id="clip1">
  <path d="M 0 0 L 56 0 L 56 69 L 0 69 Z M 0 0 "/>
</clipPath>
<clipPath id="clip2">
  <path d="M 55.261719 61.132813 C 38.378906 76.394531 12.324219 75.078125 -2.9375 58.195313 C -18.195313 41.316406 -16.882813 15.261719 0 0 L 0.351563 -0.234375 C 15.570313 -10.242188 36.015625 -6.050781 46.074219 9.136719 C 56.128906 24.328125 52.003906 44.785156 36.847656 54.890625 C 21.691406 64.996094 1.21875 60.933594 -8.933594 45.808594 C -19.085938 30.6875 -15.089844 10.199219 0 0 "/>
</clipPath>
</defs>
<g id="surface1">
<path style=" stroke:none;fill-rule:nonzero;fill:url(#radial0);" d="M 55.261719 61.132813 C 38.378906 76.394531 12.324219 75.078125 -2.9375 58.195313 C -18.195313 41.316406 -16.882813 15.261719 0 0 L 0.351563 -0.234375 C 15.570313 -10.242188 36.015625 -6.050781 46.074219 9.136719 C 56.128906 24.328125 52.003906 44.785156 36.847656 54.890625 C 21.691406 64.996094 1.21875 60.933594 -8.933594 45.808594 C -19.085938 30.6875 -15.089844 10.199219 0 0 "/>
<g clip-path="url(#clip1)" clip-rule="nonzero">
<g clip-path="url(#clip2)" clip-rule="nonzero">
<path style=" stroke:none;fill-rule:nonzero;fill:rgb(94.901961%,94.901961%,94.901961%);fill-opacity:1;" d="M 16.0625 27.417969 C 8.488281 31.851563 -1.242188 29.308594 -5.679688 21.738281 C -10.113281 14.167969 -7.570313 4.433594 0 0 L 23.800781 0 C 23.800781 6.570313 18.472656 11.898438 11.898438 11.898438 C 5.328125 11.898438 0 6.570313 0 0 C -0.28125 -2.640625 1.132813 -5.167969 3.527344 -6.3125 C 5.921875 -7.457031 8.777344 -6.96875 10.652344 -5.09375 C 12.53125 -3.214844 13.019531 -0.359375 11.875 2.035156 C 10.730469 4.429688 8.199219 5.84375 5.5625 5.5625 L 32.820313 5.5625 C 32.898438 5.53125 32.980469 5.53125 33.054688 5.5625 L 30.371094 46.667969 C 29.90625 47.792969 29.398438 48.960938 28.933594 50.128906 C 16.625 44.273438 11.394531 29.554688 17.246094 17.246094 C 23.101563 4.941406 37.820313 -0.292969 50.128906 5.5625 L 35 56.3125 L 45.070313 66.382813 L 46.859375 68.289063 L 55.183594 63.660156 L 53.355469 62.222656 L 47.792969 56.621094 L 41.765625 50.554688 L 41.496094 50.554688 L 43.515625 50.285156 C 31.167969 48.457031 22.636719 36.964844 24.460938 24.617188 C 26.285156 12.265625 37.777344 3.734375 50.128906 5.5625 C 54.207031 5.476563 58.144531 7.058594 61.027344 9.941406 C 63.914063 12.828125 65.496094 16.765625 65.410156 20.84375 L 79.683594 20.84375 L 68.015625 20.84375 L 68.015625 15.75 C 69.421875 12.527344 73.175781 11.058594 76.398438 12.464844 C 79.617188 13.871094 81.089844 17.621094 79.683594 20.84375 Z M 16.0625 27.417969 "/>
</g>
</g>
</g>
</svg>
