<?xml version="1.0" encoding="UTF-8"?>
<svg xmlns="http://www.w3.org/2000/svg" xmlns:xlink="http://www.w3.org/1999/xlink" width="70pt" height="70pt" viewBox="0 0 70 70" version="1.1">
<defs>
<radialGradient id="radial0" gradientUnits="userSpaceOnUse" cx="-0.62" cy="217.97" fx="-0.62" fy="217.97" r="6.4" gradientTransform="matrix(3.655556,0,0,3.655556,46.2,-774.394444)">
<stop offset="0" style="stop-color:rgb(36.862745%,62.745098%,93.72549%);stop-opacity:1;"/>
<stop offset="0.28" style="stop-color:rgb(35.686275%,62.352941%,93.333333%);stop-opacity:1;"/>
<stop offset="0.47" style="stop-color:rgb(32.156863%,60.784314%,92.54902%);stop-opacity:1;"/>
<stop offset="0.64" style="stop-color:rgb(26.27451%,58.039216%,90.588235%);stop-opacity:1;"/>
<stop offset="0.79" style="stop-color:rgb(17.647059%,54.509804%,88.235294%);stop-opacity:1;"/>
<stop offset="0.93" style="stop-color:rgb(6.666667%,49.803922%,85.098039%);stop-opacity:1;"/>
<stop offset="1" style="stop-color:rgb(0%,47.058824%,83.137255%);stop-opacity:1;"/>
</radialGradient>
</defs>
<g id="surface1">
<path style=" stroke:none;fill-rule:nonzero;fill:rgb(9.803922%,54.117647%,70.196078%);fill-opacity:1;" d="M 2.65625 63.640625 L 15.390625 50.910156 C 16.347656 49.953125 17.898438 49.953125 18.855469 50.910156 L 19.074219 51.128906 C 20.03125 52.085938 20.03125 53.636719 19.074219 54.59375 L 6.34375 67.328125 C 5.386719 68.285156 3.835938 68.285156 2.878906 67.328125 L 2.65625 67.105469 C 1.699219 66.152344 1.699219 64.597656 2.65625 63.640625 Z M 2.65625 63.640625 "/>
<path style=" stroke:none;fill-rule:nonzero;fill:url(#radial0);" d="M 66.109375 16.917969 C 61.441406 35.171875 42.851563 46.183594 24.597656 41.515625 C 6.339844 36.84375 -4.671875 18.257813 0 0 C -1.601563 0.160156 -3.21875 0.160156 -4.820313 0 L -5.054688 0.195313 C -0.839844 -1.054688 3.640625 -1.121094 7.894531 0 C 7.894531 0.855469 7.503906 1.710938 7.390625 2.566406 C 18.015625 9.863281 21.097656 24.191406 14.410156 35.210938 C 7.722656 46.234375 -6.410156 50.117188 -17.789063 44.058594 C -29.171875 38 -33.839844 24.113281 -28.433594 12.410156 C -23.027344 0.707031 -9.421875 -4.738281 2.566406 0 L 3.421875 0.699219 C 12.71875 8.699219 13.855469 22.683594 5.972656 32.078125 C -1.90625 41.472656 -15.878906 42.785156 -25.371094 35.019531 C -34.863281 27.253906 -36.34375 13.296875 -28.695313 3.710938 C -21.046875 -5.875 -7.113281 -7.527344 2.566406 0 L 2.957031 0.234375 L 3.617188 0.503906 L 4.160156 0.777344 L 4.746094 1.011719 L 5.367188 1.246094 L 5.910156 1.4375 L 6.6875 1.671875 L 7.117188 1.671875 L 8.246094 1.984375 L 9.488281 2.253906 L 9.800781 2.253906 C 13.03125 1.476563 15.347656 -1.363281 15.457031 -4.683594 C 15.566406 -8.007813 13.445313 -10.992188 10.269531 -11.980469 C 7.097656 -12.972656 3.65625 -11.71875 1.855469 -8.925781 C 0.0585938 -6.128906 0.347656 -2.476563 2.566406 0 L 8.476563 0 C 10.867188 -9.390625 19.6875 -15.679688 29.34375 -14.875 C 39 -14.070313 46.660156 -6.410156 47.464844 3.246094 C 48.265625 12.898438 41.976563 21.722656 32.589844 24.109375 L 32.589844 28.503906 Z M 60.472656 13.300781 L 55.726563 13.300781 C 57.1875 20.867188 54.765625 28.660156 49.273438 34.066406 Z M 45.265625 5.523438 C 53.148438 4.417969 60.4375 9.910156 61.542969 17.792969 C 62.648438 25.675781 57.15625 32.960938 49.273438 34.066406 L 42.273438 34.066406 Z M 45.265625 16.566406 L 53.316406 16.566406 C 61.664063 0.535156 80.628906 -6.789063 97.582031 -0.53125 C 114.539063 5.726563 124.195313 23.613281 120.128906 41.226563 C 116.058594 58.835938 99.527344 70.671875 81.546875 68.855469 C 63.566406 67.039063 49.738281 52.132813 49.273438 34.066406 L 39.9375 34.066406 Z M 45.265625 27.882813 L 54.601563 27.882813 C 41.320313 14.546875 40.597656 -6.785156 52.945313 -20.992188 C 65.292969 -35.195313 86.515625 -37.453125 101.574219 -26.160156 C 116.628906 -14.867188 120.40625 6.140625 110.226563 21.972656 C 100.046875 37.800781 79.367188 43.082031 62.84375 34.066406 L 54.910156 34.066406 L 54.910156 27.726563 Z M 33.132813 22.320313 C 23.042969 10.453125 22.328125 -6.761719 31.398438 -19.429688 C 40.46875 -32.097656 56.992188 -36.964844 71.480469 -31.238281 C 85.96875 -25.511719 94.699219 -10.65625 92.660156 4.785156 C 90.617188 20.230469 78.324219 32.304688 62.84375 34.066406 L 70.894531 34.066406 L 70.894531 42.273438 L 32.976563 42.273438 C 33.015625 41.496094 33.054688 40.714844 33.132813 39.976563 Z M 42.273438 5.367188 L 42.273438 13.144531 L 35.3125 13.144531 C 39.753906 8.855469 46.652344 8.429688 51.589844 12.140625 C 56.523438 15.851563 58.027344 22.601563 55.136719 28.058594 C 52.25 33.515625 45.820313 36.0625 39.976563 34.066406 Z M 30.878906 9.488281 C 31.5 -2.714844 41.6875 -12.230469 53.90625 -12.023438 C 66.125 -11.816406 75.980469 -1.960938 76.1875 10.261719 C 76.398438 22.480469 66.882813 32.664063 54.679688 33.289063 L 27.222656 33.289063 C 19.859375 27.449219 17 17.589844 20.089844 8.714844 C 23.183594 -0.160156 31.550781 -6.105469 40.949219 -6.105469 C 50.347656 -6.105469 58.714844 -0.160156 61.808594 8.714844 C 64.902344 17.589844 62.039063 27.449219 54.679688 33.289063 Z M 25.082031 16.410156 L 31.109375 16.410156 C 34.246094 21.507813 36.039063 27.3125 36.320313 33.289063 C 36.320313 34.261719 36.128906 35.273438 36.128906 36.285156 L 22.75 36.285156 C 10.25 35.511719 0.230469 25.652344 -0.746094 13.167969 C -1.722656 0.683594 6.644531 -10.613281 18.871094 -13.320313 C 31.097656 -16.023438 43.453125 -9.3125 47.832031 2.417969 C 52.214844 14.148438 47.289063 27.316406 36.285156 33.289063 Z M 22.75 27.726563 L 29.867188 27.726563 C 16.886719 13.503906 17.246094 -8.371094 30.6875 -22.160156 C 44.128906 -35.949219 65.988281 -36.871094 80.539063 -24.257813 C 95.089844 -11.648438 97.289063 10.121094 85.550781 25.386719 C 73.8125 40.648438 52.207031 44.113281 36.285156 33.289063 L 25.082031 33.289063 C 35.582031 35.40625 42.765625 45.136719 41.703125 55.792969 C 40.636719 66.449219 31.671875 74.566406 20.960938 74.566406 C 10.25 74.566406 1.285156 66.449219 0.21875 55.792969 C -0.84375 45.136719 6.339844 35.40625 16.839844 33.289063 Z M 27.222656 39.160156 L 31.929688 39.160156 C 40.214844 46.585938 42.007813 58.875 36.183594 68.359375 C 30.359375 77.839844 18.585938 81.800781 8.21875 77.765625 C -2.152344 73.726563 -8.152344 62.851563 -6.035156 51.929688 C -3.917969 41.003906 5.710938 33.15625 16.839844 33.289063 Z M 42.351563 46.9375 C 41.511719 52.207031 37.441406 56.367188 32.195313 57.324219 C 26.949219 58.28125 21.671875 55.820313 19.03125 51.183594 C 16.390625 46.550781 16.964844 40.757813 20.460938 36.730469 C 23.957031 32.703125 29.613281 31.324219 34.570313 33.289063 L 41.535156 33.289063 Z M 42.351563 35.894531 L 34.222656 35.894531 C 51.523438 43.761719 59.707031 63.738281 52.898438 81.480469 C 46.089844 99.222656 26.644531 108.59375 8.523438 102.867188 C -9.597656 97.140625 -20.128906 78.296875 -15.503906 59.863281 C -10.878906 41.429688 7.300781 29.785156 25.976563 33.289063 L 35.273438 33.289063 L 35.273438 41.609375 Z M 48.300781 45.304688 C 44.804688 47.40625 40.28125 46.457031 37.933594 43.121094 C 35.582031 39.789063 36.207031 35.210938 39.359375 32.625 C 42.511719 30.042969 47.128906 30.332031 49.933594 33.289063 L 49.933594 25.511719 L 56.933594 25.511719 C 53.738281 17.566406 56.851563 8.480469 64.25 4.160156 C 71.644531 -0.15625 81.085938 1.597656 86.4375 8.285156 C 91.789063 14.972656 91.425781 24.570313 85.589844 30.839844 C 79.753906 37.105469 70.207031 38.148438 63.15625 33.289063 Z M 56.777344 42.777344 C 60.976563 35.035156 69.710938 30.914063 78.355469 32.589844 C 87.003906 34.261719 93.566406 41.351563 94.570313 50.101563 C 95.574219 58.847656 90.789063 67.238281 82.75 70.832031 C 74.710938 74.421875 65.269531 72.386719 59.421875 65.800781 L 64.285156 65.800781 C 53.210938 64.78125 44.894531 55.234375 45.40625 44.128906 C 45.914063 33.019531 55.070313 24.277344 66.1875 24.277344 C 77.308594 24.277344 86.460938 33.019531 86.972656 44.128906 C 87.480469 55.234375 79.167969 64.78125 68.09375 65.800781 Z M 62.535156 35.855469 L 56.699219 35.855469 C 57.367188 16.164063 71.828125 -0.324219 91.265625 -3.558594 C 110.699219 -6.789063 129.71875 4.128906 136.726563 22.542969 C 143.734375 40.957031 136.785156 61.757813 120.117188 72.265625 C 103.449219 82.769531 81.683594 80.066406 68.09375 65.800781 L 75.132813 65.800781 C 64.847656 63.65625 57.851563 54.085938 58.925781 43.636719 C 60.003906 33.183594 68.808594 25.242188 79.3125 25.242188 C 89.820313 25.242188 98.625 33.183594 99.699219 43.636719 C 100.777344 54.085938 93.777344 63.65625 83.496094 65.800781 Z M 57.828125 24.617188 C 62.777344 38.816406 59.636719 54.582031 49.621094 65.800781 L 55.496094 65.800781 C 66.714844 67.34375 74.824219 77.3125 74.050781 88.613281 C 73.277344 99.917969 63.886719 108.6875 52.558594 108.6875 C 41.230469 108.6875 31.835938 99.917969 31.0625 88.613281 C 30.289063 77.3125 38.398438 67.34375 49.621094 65.800781 Z M 57.828125 24.617188 "/>
<path style=" stroke:none;fill-rule:nonzero;fill:rgb(31.372549%,90.196078%,100%);fill-opacity:1;" d="M 40.445313 42.542969 C 40.445313 51.222656 33.410156 58.253906 24.734375 58.253906 C 16.054688 58.253906 9.023438 51.222656 9.023438 42.542969 C 9.023438 33.867188 16.054688 26.832031 24.734375 26.832031 C 33.410156 26.832031 40.445313 33.867188 40.445313 42.542969 Z M 40.445313 42.542969 "/>
<path style=" stroke:none;fill-rule:nonzero;fill:rgb(100%,100%,100%);fill-opacity:1;" d="M 37.023438 42.273438 C 37.023438 49.082031 31.503906 54.601563 24.695313 54.601563 C 17.886719 54.601563 12.367188 49.082031 12.367188 42.273438 C 12.367188 35.464844 17.886719 29.945313 24.695313 29.945313 C 31.503906 29.945313 37.023438 35.464844 37.023438 42.273438 Z M 37.023438 42.273438 "/>
<path style=" stroke:none;fill-rule:nonzero;fill:rgb(46.27451%,73.72549%,17.647059%);fill-opacity:1;" d="M 18.355469 42.542969 L 21.464844 49.777344 L 24.617188 40.484375 L 27.222656 45.773438 L 30.449219 40.328125 L 35.464844 40.328125 C 24.332031 50.121094 7.363281 49.035156 -2.429688 37.898438 C -12.222656 26.761719 -11.136719 9.792969 0 0 L 29.59375 0 L 27.496094 3.539063 L 24.265625 -2.605469 L 21.273438 6.222656 L 18.550781 -0.0390625 L 15.207031 6.066406 L 13.417969 6.066406 C 15.109375 11.203125 12.40625 16.753906 7.316406 18.59375 C 2.230469 20.429688 -3.394531 17.886719 -5.375 12.851563 C -7.359375 7.820313 -4.976563 2.125 0 0 L 2.253906 0 Z M 18.355469 42.542969 "/>
</g>
</svg>
