<?xml version="1.0" encoding="UTF-8"?>
<svg xmlns="http://www.w3.org/2000/svg" xmlns:xlink="http://www.w3.org/1999/xlink" width="70pt" height="70pt" viewBox="0 0 70 70" version="1.1">
<defs>
<linearGradient id="linear0" gradientUnits="userSpaceOnUse" x1="9.01" y1="11.69" x2="9.01" y2="2.48" gradientTransform="matrix(3.888889,0,0,3.888889,0,0)">
<stop offset="0" style="stop-color:rgb(0%,47.058824%,83.137255%);stop-opacity:1;"/>
<stop offset="0.54" style="stop-color:rgb(20.784314%,55.686275%,89.019608%);stop-opacity:1;"/>
<stop offset="1" style="stop-color:rgb(36.862745%,62.745098%,93.72549%);stop-opacity:1;"/>
</linearGradient>
</defs>
<g id="surface1">
<path style=" stroke:none;fill-rule:nonzero;fill:rgb(46.27451%,73.72549%,17.647059%);fill-opacity:1;" d="M 58.644531 43.246094 C 58.644531 37.898438 48.074219 33.5625 35.039063 33.5625 C 22 33.5625 11.433594 37.898438 11.433594 43.246094 C 11.433594 48.59375 22 52.929688 35.039063 52.929688 C 48.074219 52.929688 58.644531 48.59375 58.644531 43.246094 Z M 58.644531 43.246094 "/>
<path style=" stroke:none;fill-rule:nonzero;fill:rgb(36.862745%,58.823529%,14.117647%);fill-opacity:1;" d="M 43.476563 43.167969 C 43.476563 41.984375 39.960938 41.027344 35.621094 41.027344 C 31.285156 41.027344 27.765625 41.984375 27.765625 43.167969 C 27.765625 44.347656 31.285156 45.304688 35.621094 45.304688 C 39.960938 45.304688 43.476563 44.347656 43.476563 43.167969 Z M 43.476563 43.167969 "/>
<path style=" stroke:none;fill-rule:nonzero;fill:url(#linear0);" d="M 58.644531 21.738281 C 58.644531 16.390625 48.074219 12.054688 35.039063 12.054688 C 22 12.054688 11.433594 16.390625 11.433594 21.738281 C 11.433594 27.085938 22 31.421875 35.039063 31.421875 C 48.074219 31.421875 58.644531 27.085938 58.644531 21.738281 Z M 58.644531 21.738281 "/>
<path style=" stroke:none;fill-rule:nonzero;fill:rgb(0%,35.686275%,63.137255%);fill-opacity:1;" d="M 43.476563 21.621094 C 43.476563 20.441406 39.960938 19.484375 35.621094 19.484375 C 31.285156 19.484375 27.765625 20.441406 27.765625 21.621094 C 27.765625 22.804688 31.285156 23.761719 35.621094 23.761719 C 39.960938 23.761719 43.476563 22.804688 43.476563 21.621094 Z M 43.476563 21.621094 "/>
<path style=" stroke:none;fill-rule:nonzero;fill:rgb(58.039216%,58.039216%,58.039216%);fill-opacity:1;" d="M 15.128906 0.464844 L 3.460938 0.464844 C 4.078125 -0.105469 4.964844 -0.285156 5.753906 0 L 5.753906 11.667969 C 2.535156 11.667969 -0.078125 9.054688 -0.078125 5.832031 C -0.078125 2.613281 2.535156 0 5.753906 0 L 7.039063 0 C 7.445313 0.28125 7.621094 0.792969 7.472656 1.261719 C 7.328125 1.734375 6.890625 2.054688 6.398438 2.054688 C 5.902344 2.054688 5.46875 1.734375 5.320313 1.261719 C 5.171875 0.792969 5.351563 0.28125 5.753906 0 L 5.753906 3.890625 L 16.179688 3.890625 C 15.105469 6.765625 11.898438 8.230469 9.023438 7.15625 C 6.144531 6.082031 4.683594 2.878906 5.753906 0 L 5.753906 1.632813 C 5.335938 1.695313 4.917969 1.515625 4.671875 1.171875 C 4.425781 0.828125 4.394531 0.375 4.589844 0 Z M 66.109375 0.464844 L 54.445313 0.464844 C 54.710938 0.0976563 55.164063 -0.0859375 55.609375 0 L 55.609375 1.246094 C 55.335938 1.683594 54.800781 1.886719 54.300781 1.742188 C 53.800781 1.597656 53.457031 1.140625 53.457031 0.621094 C 53.457031 0.101563 53.800781 -0.355469 54.300781 -0.5 C 54.800781 -0.644531 55.335938 -0.441406 55.609375 0 L 66.070313 0 L 66.070313 10.5 C 63.171875 13.390625 58.480469 13.378906 55.589844 10.480469 C 52.703125 7.582031 52.710938 2.890625 55.609375 0 L 56.894531 0 C 57.300781 0.28125 57.476563 0.792969 57.328125 1.261719 C 57.183594 1.734375 56.746094 2.054688 56.253906 2.054688 C 55.757813 2.054688 55.324219 1.734375 55.175781 1.261719 C 55.027344 0.792969 55.207031 0.28125 55.609375 0 L 55.609375 -11.667969 C 58.832031 -11.667969 61.445313 -9.054688 61.445313 -5.832031 C 61.445313 -2.613281 58.832031 0 55.609375 0 Z M 15.128906 66.929688 L 4.707031 66.929688 L 4.707031 56.429688 C -10.875 56.738281 -23.761719 44.359375 -24.070313 28.777344 C -24.382813 13.195313 -12.003906 0.3125 3.578125 0 L 2.253906 0 C 2.605469 -0.203125 3.035156 -0.203125 3.382813 0 L 3.382813 11.667969 C 0.160156 11.667969 -2.449219 9.054688 -2.449219 5.832031 C -2.449219 2.613281 0.160156 0 3.382813 0 L 15.050781 0 C 15.050781 3.222656 12.4375 5.832031 9.214844 5.832031 C 5.996094 5.832031 3.382813 3.222656 3.382813 0 L 3.382813 -1.246094 C 3.40625 -0.933594 3.300781 -0.628906 3.097656 -0.394531 C 2.894531 -0.164063 2.605469 -0.0195313 2.292969 0 Z M 67.238281 55.300781 L 66.109375 55.300781 C 50.839844 54.988281 38.714844 42.355469 39.023438 27.085938 C 39.335938 11.816406 51.96875 -0.3125 67.238281 0 L 67.238281 10.5 L 54.445313 10.5 C 51.546875 10.179688 49.457031 7.566406 49.777344 4.667969 C 50.101563 1.765625 52.710938 -0.320313 55.609375 0 L 55.609375 1.246094 C 55.335938 1.683594 54.800781 1.886719 54.300781 1.742188 C 53.800781 1.597656 53.457031 1.140625 53.457031 0.621094 C 53.457031 0.101563 53.800781 -0.355469 54.300781 -0.5 C 54.800781 -0.644531 55.335938 -0.441406 55.609375 0 L 67.277344 0 C 67.277344 3.222656 64.667969 5.832031 61.445313 5.832031 C 58.222656 5.832031 55.609375 3.222656 55.609375 0 L 55.609375 -11.667969 C 58.832031 -11.332031 61.175781 -8.453125 60.839844 -5.230469 C 60.507813 -2.007813 57.628906 0.332031 54.40625 0 Z M 67.238281 55.300781 "/>
<path style=" stroke:none;fill-rule:nonzero;fill:rgb(36.862745%,58.823529%,14.117647%);fill-opacity:1;" d="M 35 52.734375 C 48.027344 52.734375 58.605469 48.417969 58.605469 43.050781 L 58.605469 48.765625 C 58.332031 53.976563 47.792969 58.332031 35 58.332031 C 22.207031 58.332031 11.394531 53.976563 11.394531 48.648438 L 11.394531 43.050781 C 11.433594 48.417969 22.011719 52.734375 35 52.734375 Z M 35 52.734375 "/>
<path style=" stroke:none;fill-rule:nonzero;fill:rgb(0%,47.058824%,83.137255%);fill-opacity:1;" d="M 35 31.109375 C 48.027344 31.109375 58.605469 26.753906 58.605469 21.429688 L 58.605469 27.222656 C 58.332031 32.472656 47.792969 36.632813 35 36.632813 C 22.207031 36.632813 11.433594 32.277344 11.433594 26.910156 L 11.433594 21.542969 C 11.433594 26.871094 22.011719 31.109375 35 31.109375 Z M 35 31.109375 "/>
</g>
</svg>
