<?xml version="1.0" encoding="UTF-8"?>
<svg xmlns="http://www.w3.org/2000/svg" xmlns:xlink="http://www.w3.org/1999/xlink" width="70pt" height="70pt" viewBox="0 0 70 70" version="1.1">
<defs>
<filter id="alpha" filterUnits="objectBoundingBox" x="0%" y="0%" width="100%" height="100%">
  <feColorMatrix type="matrix" in="SourceGraphic" values="0 0 0 0 1 0 0 0 0 1 0 0 0 0 1 0 0 0 1 0"/>
</filter>
<mask id="mask0">
  <g filter="url(#alpha)">
<rect x="0" y="0" width="70" height="70" style="fill:rgb(0%,0%,0%);fill-opacity:0.501961;stroke:none;"/>
  </g>
</mask>
<clipPath id="clip1">
  <rect x="0" y="0" width="70" height="70"/>
</clipPath>
<g id="surface5" clip-path="url(#clip1)">
<path style=" stroke:none;fill-rule:nonzero;fill:rgb(60%,60%,60%);fill-opacity:1;" d="M 4.160156 5.871094 L 9.179688 5.871094 L 9.179688 19.871094 C 3.691406 19.5625 -0.507813 14.859375 -0.195313 9.371094 C 0.117188 3.882813 4.816406 -0.3125 10.304688 0 L 3.070313 0 C 3.515625 0.253906 3.730469 0.777344 3.597656 1.269531 C 3.464844 1.761719 3.019531 2.105469 2.507813 2.105469 C 1.996094 2.105469 1.550781 1.761719 1.417969 1.269531 C 1.285156 0.777344 1.503906 0.253906 1.945313 0 L 1.945313 -11.667969 C 5.167969 -11.667969 7.777344 -9.054688 7.777344 -5.832031 C 7.777344 -2.613281 5.167969 0 1.945313 0 Z M 4.160156 5.871094 "/>
</g>
<mask id="mask1">
  <g filter="url(#alpha)">
<rect x="0" y="0" width="70" height="70" style="fill:rgb(0%,0%,0%);fill-opacity:0.501961;stroke:none;"/>
  </g>
</mask>
<clipPath id="clip2">
  <rect x="0" y="0" width="70" height="70"/>
</clipPath>
<g id="surface8" clip-path="url(#clip2)">
<path style=" stroke:none;fill-rule:nonzero;fill:rgb(60%,60%,60%);fill-opacity:1;" d="M 60.820313 5.871094 L 65.839844 5.871094 C 64.21875 24.054688 48.164063 37.476563 29.984375 35.855469 C 11.800781 34.234375 -1.621094 18.179688 0 0 L 0 11.667969 C -3.222656 11.355469 -5.582031 8.492188 -5.269531 5.269531 C -4.957031 2.046875 -2.09375 -0.3125 1.128906 0 L -3.890625 0 C -3.445313 0.253906 -3.230469 0.777344 -3.363281 1.269531 C -3.496094 1.761719 -3.941406 2.105469 -4.453125 2.105469 C -4.964844 2.105469 -5.410156 1.761719 -5.542969 1.269531 C -5.675781 0.777344 -5.457031 0.253906 -5.015625 0 L -5.015625 5.871094 Z M 60.820313 5.871094 "/>
</g>
<mask id="mask2">
  <g filter="url(#alpha)">
<rect x="0" y="0" width="70" height="70" style="fill:rgb(0%,0%,0%);fill-opacity:0.501961;stroke:none;"/>
  </g>
</mask>
<clipPath id="clip3">
  <rect x="0" y="0" width="70" height="70"/>
</clipPath>
<g id="surface11" clip-path="url(#clip3)">
<path style=" stroke:none;fill-rule:nonzero;fill:rgb(60%,60%,60%);fill-opacity:1;" d="M 3.070313 49.621094 L 8.089844 49.621094 C -5.613281 51.855469 -18.53125 42.558594 -20.765625 28.855469 C -23 15.152344 -13.703125 2.234375 0 0 L 0 14 L -5.054688 14 C -8.921875 14.613281 -12.550781 11.972656 -13.164063 8.109375 C -13.777344 4.242188 -11.136719 0.613281 -7.273438 0 L -7.273438 50.554688 C -21.234375 50.554688 -32.550781 39.238281 -32.550781 25.277344 C -32.550781 11.316406 -21.234375 0 -7.273438 0 Z M 3.070313 49.621094 "/>
</g>
<mask id="mask3">
  <g filter="url(#alpha)">
<rect x="0" y="0" width="70" height="70" style="fill:rgb(0%,0%,0%);fill-opacity:0.501961;stroke:none;"/>
  </g>
</mask>
<clipPath id="clip4">
  <rect x="0" y="0" width="70" height="70"/>
</clipPath>
<g id="surface14" clip-path="url(#clip4)">
<path style=" stroke:none;fill-rule:nonzero;fill:rgb(60%,60%,60%);fill-opacity:1;" d="M 61.910156 49.621094 L 66.929688 49.621094 C 53.226563 68.105469 27.132813 71.976563 8.652344 58.273438 C -9.828125 44.570313 -13.703125 18.480469 0 0 L 0 11.667969 C -3.222656 11.054688 -5.335938 7.945313 -4.726563 4.726563 C -4.113281 1.503906 -1.003906 -0.613281 2.214844 0 L -2.800781 0 L -2.800781 50.554688 C -16.761719 49.171875 -26.953125 36.730469 -25.570313 22.769531 C -24.183594 8.808594 -11.742188 -1.386719 2.214844 0 Z M 61.910156 49.621094 "/>
</g>
</defs>
<g id="surface1">
<path style=" stroke:none;fill-rule:nonzero;fill:rgb(46.27451%,73.72549%,17.647059%);fill-opacity:1;" d="M 42.117188 32.746094 C 33.074219 32.453125 25.980469 24.890625 26.269531 15.847656 C 26.558594 6.804688 34.125 -0.289063 43.167969 0 L 33.054688 0 C 33.46875 0.214844 33.683594 0.683594 33.570313 1.136719 C 33.460938 1.589844 33.054688 1.90625 32.589844 1.90625 C 32.121094 1.90625 31.71875 1.589844 31.605469 1.136719 C 31.496094 0.683594 31.707031 0.214844 32.121094 0 L 32.121094 26.792969 C 24.722656 26.792969 18.726563 20.796875 18.726563 13.398438 C 18.726563 6 24.722656 0 32.121094 0 L 40.25 0 C 40.25 2.246094 38.429688 4.0625 36.1875 4.0625 C 33.941406 4.0625 32.121094 2.246094 32.121094 0 L 32.121094 6.066406 Z M 56.542969 38.890625 C 45.804688 38.597656 37.335938 29.660156 37.625 18.917969 C 37.914063 8.179688 46.855469 -0.289063 57.59375 0 L 49.464844 0 C 49.878906 0.214844 50.09375 0.683594 49.980469 1.136719 C 49.871094 1.589844 49.464844 1.90625 49 1.90625 C 48.535156 1.90625 48.128906 1.589844 48.019531 1.136719 C 47.90625 0.683594 48.121094 0.214844 48.535156 0 L 48.535156 32.976563 C 39.425781 32.976563 32.042969 25.59375 32.042969 16.488281 C 32.042969 7.382813 39.425781 0 48.535156 0 L 56.660156 0 C 56.660156 2.246094 54.839844 4.0625 52.597656 4.0625 C 50.351563 4.0625 48.535156 2.246094 48.535156 0 L 48.535156 38.890625 Z M 42.117188 45.109375 C 29.660156 44.820313 19.796875 34.488281 20.085938 22.03125 C 20.375 9.574219 30.710938 -0.289063 43.167969 0 L 33.054688 0 C 33.46875 0.214844 33.683594 0.683594 33.570313 1.136719 C 33.460938 1.589844 33.054688 1.90625 32.589844 1.90625 C 32.121094 1.90625 31.71875 1.589844 31.605469 1.136719 C 31.496094 0.683594 31.707031 0.214844 32.121094 0 L 32.121094 -6.066406 C 33.796875 -6.066406 35.15625 -4.707031 35.15625 -3.035156 C 35.15625 -1.359375 33.796875 0 32.121094 0 L 40.25 0 C 40.25 2.246094 38.429688 4.0625 36.1875 4.0625 C 33.941406 4.0625 32.121094 2.246094 32.121094 0 L 32.121094 6.066406 Z M 42.117188 45.109375 "/>
<path style=" stroke:none;fill-rule:nonzero;fill:rgb(52.54902%,83.921569%,20%);fill-opacity:1;" d="M 27.6875 26.601563 C 20.34375 26.320313 14.617188 20.140625 14.894531 12.792969 C 15.171875 5.449219 21.355469 -0.277344 28.699219 0 L 18.433594 0 C 18.855469 0.207031 19.078125 0.679688 18.972656 1.136719 C 18.863281 1.59375 18.457031 1.917969 17.984375 1.917969 C 17.515625 1.917969 17.109375 1.59375 17 1.136719 C 16.894531 0.679688 17.117188 0.207031 17.539063 0 L 17.539063 20.417969 C 11.902344 20.417969 7.332031 15.847656 7.332031 10.207031 C 7.332031 4.570313 11.902344 0 17.539063 0 L 26.445313 0 C 27.300781 0 27.6875 0.429688 27.6875 1.050781 Z M 27.6875 26.601563 "/>
<path style=" stroke:none;fill-rule:nonzero;fill:rgb(46.27451%,73.72549%,17.647059%);fill-opacity:1;" d="M 27.6875 38.890625 C 16.949219 38.597656 8.480469 29.660156 8.769531 18.917969 C 9.058594 8.179688 18 -0.289063 28.738281 0 L 18.433594 0 C 18.820313 0.234375 19.003906 0.699219 18.882813 1.136719 C 18.757813 1.574219 18.363281 1.875 17.910156 1.875 C 17.453125 1.875 17.058594 1.574219 16.933594 1.136719 C 16.8125 0.699219 16.996094 0.234375 17.382813 0 L 17.382813 32.746094 C 8.339844 32.746094 1.011719 25.414063 1.011719 16.371094 C 1.011719 7.332031 8.339844 0 17.382813 0 L 26.445313 0 C 27.300781 0 27.6875 0.429688 27.6875 1.011719 Z M 27.6875 51.292969 C 13.523438 51.003906 2.277344 39.285156 2.566406 25.121094 C 2.855469 10.957031 14.574219 -0.289063 28.738281 0 L 18.433594 0 C 18.847656 0.214844 19.058594 0.683594 18.949219 1.136719 C 18.839844 1.589844 18.433594 1.90625 17.964844 1.90625 C 17.5 1.90625 17.09375 1.589844 16.984375 1.136719 C 16.875 0.683594 17.085938 0.214844 17.5 0 L 17.5 45.109375 C 5.042969 45.109375 -5.054688 35.011719 -5.054688 22.554688 C -5.054688 10.097656 5.042969 0 17.5 0 L 26.445313 0 C 27.300781 0 27.6875 0.390625 27.6875 1.011719 Z M 27.6875 51.292969 "/>
<path style=" stroke:none;fill-rule:nonzero;fill:rgb(60%,60%,60%);fill-opacity:1;" d="M 4.160156 5.871094 L 9.179688 5.871094 L 9.179688 19.871094 C 3.691406 19.5625 -0.507813 14.859375 -0.195313 9.371094 C 0.117188 3.882813 4.816406 -0.3125 10.304688 0 L 3.070313 0 C 3.515625 0.253906 3.730469 0.777344 3.597656 1.269531 C 3.464844 1.761719 3.019531 2.105469 2.507813 2.105469 C 1.996094 2.105469 1.550781 1.761719 1.417969 1.269531 C 1.285156 0.777344 1.503906 0.253906 1.945313 0 L 1.945313 -11.667969 C 5.167969 -11.667969 7.777344 -9.054688 7.777344 -5.832031 C 7.777344 -2.613281 5.167969 0 1.945313 0 Z M 4.160156 5.871094 "/>
<use xlink:href="#surface5" mask="url(#mask0)"/>
<path style=" stroke:none;fill-rule:nonzero;fill:rgb(60%,60%,60%);fill-opacity:1;" d="M 60.820313 5.871094 L 65.839844 5.871094 C 64.21875 24.054688 48.164063 37.476563 29.984375 35.855469 C 11.800781 34.234375 -1.621094 18.179688 0 0 L 0 11.667969 C -3.222656 11.355469 -5.582031 8.492188 -5.269531 5.269531 C -4.957031 2.046875 -2.09375 -0.3125 1.128906 0 L -3.890625 0 C -3.445313 0.253906 -3.230469 0.777344 -3.363281 1.269531 C -3.496094 1.761719 -3.941406 2.105469 -4.453125 2.105469 C -4.964844 2.105469 -5.410156 1.761719 -5.542969 1.269531 C -5.675781 0.777344 -5.457031 0.253906 -5.015625 0 L -5.015625 5.871094 Z M 60.820313 5.871094 "/>
<use xlink:href="#surface8" mask="url(#mask1)"/>
<path style=" stroke:none;fill-rule:nonzero;fill:rgb(58.039216%,58.039216%,58.039216%);fill-opacity:1;" d="M 68.054688 8.089844 L 68.054688 12.949219 L 1.945313 12.949219 L 1.945313 8.089844 C -0.289063 8.625 -2.535156 7.25 -3.070313 5.015625 C -3.609375 2.78125 -2.234375 0.535156 0 0 L 61.714844 0 C 61.714844 17.042969 47.902344 30.859375 30.859375 30.859375 C 13.816406 30.859375 0 17.042969 0 0 Z M 68.054688 8.089844 "/>
<path style=" stroke:none;fill-rule:nonzero;fill:rgb(60%,60%,60%);fill-opacity:1;" d="M 3.070313 49.621094 L 8.089844 49.621094 C -5.613281 51.855469 -18.53125 42.558594 -20.765625 28.855469 C -23 15.152344 -13.703125 2.234375 0 0 L 0 14 L -5.054688 14 C -8.921875 14.613281 -12.550781 11.972656 -13.164063 8.109375 C -13.777344 4.242188 -11.136719 0.613281 -7.273438 0 L -7.273438 50.554688 C -21.234375 50.554688 -32.550781 39.238281 -32.550781 25.277344 C -32.550781 11.316406 -21.234375 0 -7.273438 0 Z M 3.070313 49.621094 "/>
<use xlink:href="#surface11" mask="url(#mask2)"/>
<path style=" stroke:none;fill-rule:nonzero;fill:rgb(60%,60%,60%);fill-opacity:1;" d="M 61.910156 49.621094 L 66.929688 49.621094 C 53.226563 68.105469 27.132813 71.976563 8.652344 58.273438 C -9.828125 44.570313 -13.703125 18.480469 0 0 L 0 11.667969 C -3.222656 11.054688 -5.335938 7.945313 -4.726563 4.726563 C -4.113281 1.503906 -1.003906 -0.613281 2.214844 0 L -2.800781 0 L -2.800781 50.554688 C -16.761719 49.171875 -26.953125 36.730469 -25.570313 22.769531 C -24.183594 8.808594 -11.742188 -1.386719 2.214844 0 Z M 61.910156 49.621094 "/>
<use xlink:href="#surface14" mask="url(#mask3)"/>
<path style=" stroke:none;fill-rule:nonzero;fill:rgb(58.039216%,58.039216%,58.039216%);fill-opacity:1;" d="M 1.945313 62.535156 L 1.945313 57.671875 L 68.054688 57.671875 L 68.054688 62.535156 C 50.789063 61.921875 37.285156 47.425781 37.898438 30.160156 C 38.507813 12.890625 53.003906 -0.613281 70.273438 0 L 4.160156 0 C 5.03125 0.5 5.453125 1.523438 5.195313 2.492188 C 4.933594 3.460938 4.054688 4.136719 3.054688 4.136719 C 2.050781 4.136719 1.171875 3.460938 0.910156 2.492188 C 0.652344 1.523438 1.074219 0.5 1.945313 0 Z M 1.945313 62.535156 "/>
</g>
</svg>
