<?xml version="1.0" encoding="UTF-8"?>
<svg xmlns="http://www.w3.org/2000/svg" xmlns:xlink="http://www.w3.org/1999/xlink" width="70pt" height="70pt" viewBox="0 0 70 70" version="1.1">
<defs>
<radialGradient id="radial0" gradientUnits="userSpaceOnUse" cx="-80.08" cy="-34.121" fx="-80.08" fy="-34.121" r="5.954" gradientTransform="matrix(4.028889,0,0,3.993889,357.497778,168.898333)">
<stop offset="0.183" style="stop-color:rgb(36.862745%,62.745098%,93.72549%);stop-opacity:1;"/>
<stop offset="1" style="stop-color:rgb(0%,47.058824%,83.137255%);stop-opacity:1;"/>
</radialGradient>
<clipPath id="clip1">
  <path d="M 40 26 L 70 26 L 70 70 L 40 70 Z M 40 26 "/>
</clipPath>
<clipPath id="clip2">
  <path d="M 58.210938 27.109375 C 68.015625 24.480469 78.410156 28.339844 84.121094 36.730469 C 89.835938 45.121094 89.613281 56.207031 83.574219 64.363281 C 77.53125 72.523438 66.992188 75.964844 57.300781 72.949219 C 47.609375 69.933594 40.886719 61.117188 40.542969 50.972656 Z M 58.210938 27.109375 "/>
</clipPath>
</defs>
<g id="surface1">
<path style=" stroke:none;fill-rule:nonzero;fill:rgb(31.372549%,90.196078%,100%);fill-opacity:1;" d="M 11.488281 18.304688 C 6.433594 18.492188 2.183594 14.550781 1.992188 9.496094 C 1.804688 4.441406 5.75 0.1875 10.804688 0 C 11.183594 -0.00390625 11.492188 0.304688 11.496094 0.683594 C 11.496094 1.066406 11.191406 1.375 10.8125 1.375 C 10.429688 1.378906 10.121094 1.074219 10.117188 0.691406 C 10.117188 0.3125 10.425781 0.0078125 10.804688 0.0078125 C 11.179688 0.0078125 11.488281 0.3125 11.488281 0.691406 C 11.488281 1.070313 11.179688 1.375 10.804688 1.375 L 10.804688 9.1875 C 12.410156 9.394531 12.671875 9.65625 11.492188 9.875 C 11.21875 9.71875 11.085938 9.398438 11.164063 9.09375 C 11.246094 8.792969 11.519531 8.578125 11.832031 8.578125 C 12.148438 8.578125 12.421875 8.792969 12.503906 9.09375 C 12.582031 9.398438 12.449219 9.71875 12.175781 9.875 Z M 60.710938 65.722656 C 62.4375 65.875 63.714844 67.398438 63.5625 69.125 C 63.414063 70.851563 61.890625 72.132813 60.160156 71.980469 L 60.710938 72.527344 L 61.257813 72.527344 C 75.632813 73.140625 88.683594 72.230469 90.410156 70.5 C 92.136719 68.773438 81.882813 66.875 67.507813 66.261719 C 67.507813 65.960938 67.753906 65.714844 68.054688 65.714844 C 68.359375 65.714844 68.605469 65.960938 68.605469 66.261719 C 68.605469 66.566406 68.359375 66.8125 68.054688 66.8125 L 68.054688 73.0625 C 87.738281 73.082031 103.941406 74.5 104.246094 76.226563 C 104.546875 77.957031 88.835938 79.339844 69.152344 79.316406 L 69.699219 79.867188 Z M 60.710938 65.722656 "/>
<path style=" stroke:none;fill-rule:nonzero;fill:url(#radial0);" d="M 58.210938 27.109375 C 68.015625 24.480469 78.410156 28.339844 84.121094 36.730469 C 89.835938 45.121094 89.613281 56.207031 83.574219 64.363281 C 77.53125 72.523438 66.992188 75.964844 57.300781 72.949219 C 47.609375 69.933594 40.886719 61.117188 40.542969 50.972656 Z M 58.210938 27.109375 "/>
<g clip-path="url(#clip1)" clip-rule="nonzero">
<g clip-path="url(#clip2)" clip-rule="nonzero">
<path style=" stroke:none;fill-rule:nonzero;fill:rgb(94.901961%,94.901961%,94.901961%);fill-opacity:1;" d="M 22.203125 48.828125 C 21.683594 46.082031 23.019531 43.320313 25.488281 42.019531 C 27.957031 40.714844 30.992188 41.171875 32.964844 43.148438 C 34.941406 45.121094 35.398438 48.15625 34.09375 50.625 C 32.792969 53.09375 30.03125 54.429688 27.285156 53.910156 L 11.011719 53.910156 C -0.144531 49.953125 -6.828125 38.53125 -4.820313 26.863281 C -2.808594 15.195313 7.308594 6.671875 19.148438 6.671875 C 30.988281 6.671875 41.109375 15.195313 43.117188 26.863281 C 45.125 38.53125 38.441406 49.953125 27.285156 53.910156 Z M 58.507813 28.214844 C 58.507813 28.160156 58.507813 28.101563 58.480469 28.042969 C 55.464844 31.300781 51.578125 33.625 47.28125 34.746094 L 54.304688 41.769531 L 61.054688 41.769531 L 61.054688 43.875 L 68.949219 43.875 C 96.933594 45.996094 118.234375 69.863281 117.171875 97.910156 C 116.113281 125.953125 93.066406 148.140625 65.003906 148.140625 C 36.9375 148.140625 13.894531 125.953125 12.832031 97.910156 C 11.769531 69.863281 33.070313 45.996094 61.054688 43.875 Z M 58.507813 28.214844 "/>
</g>
</g>
<path style=" stroke:none;fill-rule:nonzero;fill:rgb(31.372549%,90.196078%,100%);fill-opacity:1;" d="M 66.855469 12.726563 C 64.40625 8.652344 58.6875 7.066406 50.695313 8.261719 C 53.15625 16.441406 53.753906 25.070313 52.449219 33.515625 C 53.386719 33.308594 54.328125 33.0625 55.230469 32.929688 C 68.222656 37.914063 75.886719 51.382813 73.53125 65.097656 C 71.175781 78.816406 59.460938 88.957031 45.546875 89.320313 C 31.636719 89.683594 19.40625 80.167969 16.335938 66.59375 C 13.269531 53.023438 20.214844 39.171875 32.929688 33.515625 C 34.421875 35.996094 33.164063 40.242188 29.484375 45.179688 C -0.558594 61.050781 -37.753906 51.09375 -55.851563 22.339844 C -73.945313 -6.417969 -66.832031 -44.261719 -39.527344 -64.480469 C -12.222656 -84.699219 26.046875 -80.46875 48.277344 -54.773438 C 70.503906 -29.078125 69.179688 9.40625 45.238281 33.515625 C 39.15625 34.425781 34.808594 33.515625 33.320313 31.046875 C 31.832031 28.574219 33.085938 24.316406 36.765625 19.398438 C 37.21875 18.785156 37.332031 18.484375 37.851563 17.875 C 50.25 5.476563 70.351563 5.476563 82.746094 17.875 C 95.144531 30.269531 95.144531 50.371094 82.746094 62.769531 C 2.011719 40.898438 0.703125 46.695313 3.144531 50.765625 C 12.34375 41.570313 27.25 41.570313 36.445313 50.765625 C 45.640625 59.960938 45.640625 74.871094 36.445313 84.066406 L 36.445313 108.25 C 41.28125 101.796875 42.585938 96 40.144531 91.929688 Z M 66.855469 12.726563 "/>
</g>
</svg>
