<?xml version="1.0" encoding="UTF-8"?>
<svg xmlns="http://www.w3.org/2000/svg" xmlns:xlink="http://www.w3.org/1999/xlink" width="70pt" height="70pt" viewBox="0 0 70 70" version="1.1">
<g id="surface1">
<path style=" stroke:none;fill-rule:nonzero;fill:rgb(0%,0%,0%);fill-opacity:1;" d="M 58.625 4.375 C 57.417969 20.5625 43.3125 32.707031 27.125 31.5 C 10.9375 30.292969 -1.207031 16.1875 0 0 C 5.25 5.25 -1.3125 23.625 -17.9375 39.8125 C -34.5625 56 19.25 65.625 11.375 65.625 C -6.746094 66.109375 -21.828125 51.808594 -22.3125 33.6875 C -22.796875 15.566406 -8.496094 0.484375 9.625 0 C 4.375 -5.25 10.9375 -23.625 27.5625 -39.8125 C 44.1875 -56 50.75 4.375 58.625 4.375 M 58.625 0 C 48.5625 0 33.6875 7.875 21 21 C 8.3125 34.125 -4.8125 59.0625 3.0625 66.9375 C -15.421875 61.984375 -26.390625 42.984375 -21.4375 24.5 C -16.484375 6.015625 2.515625 -4.953125 21 0 C 31.0625 0 45.9375 -7.875 58.625 -21 C 71.3125 -34.125 74.8125 10.9375 66.9375 3.0625 C 65.722656 2.257813 64.679688 1.214844 63.875 0 Z M 58.625 0 "/>
<path style=" stroke:none;fill-rule:nonzero;fill:rgb(0%,0%,0%);fill-opacity:1;" d="M 11.375 4.375 C 19.25 4.375 32.8125 10.5 45.9375 24.0625 C 59.0625 37.625 69.125 58.625 63.875 63.875 C 46.238281 63.390625 32.328125 48.699219 32.8125 31.0625 C 33.296875 13.425781 47.988281 -0.484375 65.625 0 C 57.75 0 44.1875 -6.125 31.0625 -19.6875 C 17.9375 -33.25 0.875 11.375 6.125 6.125 C 4.433594 13.253906 -2.714844 17.660156 -9.84375 15.96875 C -16.972656 14.277344 -21.378906 7.128906 -19.6875 0 M -19.6875 -4.375 C -18.566406 -9.875 -13.457031 -13.632813 -7.871094 -13.070313 C -2.285156 -12.503906 1.964844 -7.800781 1.964844 -2.1875 C 1.964844 3.425781 -2.285156 8.128906 -7.871094 8.695313 C -13.457031 9.257813 -18.566406 5.5 -19.6875 0 C -27.5625 7.875 -19.6875 28.4375 -1.75 45.9375 C 16.1875 63.4375 25.8125 66.9375 35.875 66.9375 C 17.390625 64.160156 4.660156 46.921875 7.4375 28.4375 C 10.214844 9.953125 27.453125 -2.777344 45.9375 0 C 53.8125 -7.875 45.9375 -28.4375 28 -45.9375 C 10.0625 -63.4375 21.4375 0 11.375 0 Z M -19.6875 -4.375 "/>
<path style=" stroke:none;fill-rule:nonzero;fill:rgb(0%,0%,0%);fill-opacity:1;" d="M 42.4375 35 C 42.4375 39.109375 39.109375 42.4375 35 42.4375 C 30.890625 42.4375 27.5625 39.109375 27.5625 35 C 27.5625 30.890625 30.890625 27.5625 35 27.5625 C 39.109375 27.5625 42.4375 30.890625 42.4375 35 Z M 42.4375 35 "/>
</g>
</svg>
