<?xml version="1.0" encoding="UTF-8"?>
<svg xmlns="http://www.w3.org/2000/svg" xmlns:xlink="http://www.w3.org/1999/xlink" width="70pt" height="70pt" viewBox="0 0 70 70" version="1.1">
<defs>
<linearGradient id="linear0" gradientUnits="userSpaceOnUse" x1="8.88" y1="17.09" x2="8.88" y2="1.09" gradientTransform="matrix(3.888889,0,0,3.888889,0,0)">
<stop offset="0" style="stop-color:rgb(36.862745%,58.823529%,14.117647%);stop-opacity:1;"/>
<stop offset="0.01" style="stop-color:rgb(36.862745%,59.215686%,14.117647%);stop-opacity:1;"/>
<stop offset="0.35" style="stop-color:rgb(42.352941%,67.058824%,16.078431%);stop-opacity:1;"/>
<stop offset="0.68" style="stop-color:rgb(45.098039%,72.156863%,17.254902%);stop-opacity:1;"/>
<stop offset="1" style="stop-color:rgb(46.27451%,73.72549%,17.647059%);stop-opacity:1;"/>
</linearGradient>
</defs>
<g id="surface1">
<path style=" stroke:none;fill-rule:nonzero;fill:url(#linear0);" d="M 25.199219 47.792969 L 43.867188 47.792969 L 43.867188 66.460938 L 25.199219 66.460938 Z M 3.421875 22.90625 L 22.089844 22.90625 L 22.089844 4.238281 L 6.027344 4.238281 C 5.277344 3.378906 5.171875 2.132813 5.769531 1.160156 C 6.367188 0.1875 7.527344 -0.28125 8.632813 0 Z M 6.027344 66.460938 L 22.089844 66.460938 L 22.089844 47.792969 L 3.421875 47.792969 L 3.421875 63.855469 C -14.210938 62.417969 -27.339844 46.957031 -25.898438 29.320313 C -24.460938 11.6875 -9 -1.4375 8.632813 0 Z M 3.421875 44.683594 L 22.089844 44.683594 L 22.089844 26.015625 L 3.421875 26.015625 Z M 46.976563 66.460938 L 63.078125 66.460938 C 44.726563 81.496094 17.660156 78.804688 2.625 60.453125 C -12.410156 42.101563 -9.71875 15.035156 8.632813 0 L 8.632813 -16.0625 L -10.035156 -16.0625 Z M 25.199219 44.683594 L 43.867188 44.683594 L 43.867188 26.015625 L 25.199219 26.015625 Z M 46.976563 44.683594 L 65.644531 44.683594 L 65.644531 26.015625 L 46.976563 26.015625 Z M 46.976563 4.238281 L 46.976563 22.90625 L 65.644531 22.90625 L 65.644531 6.84375 C 63.753906 7.5625 61.640625 6.613281 60.917969 4.726563 C 60.199219 2.835938 61.148438 0.71875 63.039063 0 Z M 25.199219 22.90625 L 43.867188 22.90625 L 43.867188 4.238281 L 25.199219 4.238281 Z M 25.199219 22.90625 "/>
</g>
</svg>
