<?xml version="1.0" encoding="UTF-8"?>
<svg xmlns="http://www.w3.org/2000/svg" xmlns:xlink="http://www.w3.org/1999/xlink" width="70pt" height="70pt" viewBox="0 0 70 70" version="1.1">
<defs>
<linearGradient id="linear0" gradientUnits="userSpaceOnUse" x1="9" y1="15.83" x2="9" y2="5.79" gradientTransform="matrix(3.888889,0,0,3.888889,0,0)">
<stop offset="0" style="stop-color:rgb(19.607843%,74.509804%,86.666667%);stop-opacity:1;"/>
<stop offset="0.18" style="stop-color:rgb(19.607843%,79.215686%,91.764706%);stop-opacity:1;"/>
<stop offset="0.41" style="stop-color:rgb(19.607843%,82.352941%,94.901961%);stop-opacity:1;"/>
<stop offset="0.78" style="stop-color:rgb(19.607843%,83.137255%,96.078431%);stop-opacity:1;"/>
</linearGradient>
</defs>
<g id="surface1">
<path style=" stroke:none;fill-rule:nonzero;fill:url(#linear0);" d="M 1.945313 22.515625 L 68.054688 22.515625 L 68.054688 59.382813 C 51.65625 58.769531 38.859375 44.980469 39.472656 28.582031 C 40.085938 12.183594 53.875 -0.613281 70.273438 0 L 4.160156 0 C 5.03125 0.5 5.453125 1.523438 5.195313 2.492188 C 4.933594 3.460938 4.054688 4.136719 3.054688 4.136719 C 2.050781 4.136719 1.171875 3.460938 0.910156 2.492188 C 0.652344 1.523438 1.074219 0.5 1.945313 0 Z M 1.945313 22.515625 "/>
<path style=" stroke:none;fill-rule:nonzero;fill:rgb(9.803922%,54.117647%,70.196078%);fill-opacity:1;" d="M 4.160156 8.4375 L 65.839844 8.4375 C 63.507813 26.621094 46.882813 39.46875 28.699219 37.140625 C 10.519531 34.808594 -2.332031 18.179688 0 0 L 0 11.859375 L 1.945313 11.859375 L 1.945313 10.617188 C -0.988281 11.152344 -3.800781 9.210938 -4.335938 6.28125 C -4.875 3.347656 -2.933594 0.535156 0 0 Z M 4.160156 8.4375 "/>
<path style=" stroke:none;fill-rule:nonzero;fill:rgb(100%,100%,100%);fill-opacity:1;" d="M 10.929688 26.792969 L 59.035156 26.792969 C 51.632813 43.097656 32.421875 50.3125 16.121094 42.914063 C -0.183594 35.515625 -7.398438 16.300781 0 0 L 0 5.445313 C -1.503906 5.15625 -2.488281 3.699219 -2.195313 2.195313 C -1.90625 0.695313 -0.453125 -0.289063 1.050781 0 L 10.929688 0 C 11.339844 0.238281 11.539063 0.722656 11.417969 1.179688 C 11.292969 1.640625 10.878906 1.960938 10.402344 1.960938 C 9.925781 1.960938 9.511719 1.640625 9.386719 1.179688 C 9.265625 0.722656 9.464844 0.238281 9.878906 0 L 9.878906 -5.445313 C 11.382813 -5.445313 12.601563 -4.226563 12.601563 -2.722656 C 12.601563 -1.21875 11.382813 0 9.878906 0 Z M 10.929688 26.792969 "/>
<path style=" stroke:none;fill-rule:nonzero;fill:rgb(61.176471%,92.156863%,100%);fill-opacity:1;" d="M 10.964844 37.644531 L 59.070313 37.644531 C 48.675781 53.957031 27.027344 58.753906 10.714844 48.359375 C -5.597656 37.964844 -10.394531 16.3125 0 0 L 0 5.484375 C -1.515625 5.195313 -2.507813 3.730469 -2.214844 2.214844 C -1.925781 0.703125 -0.464844 -0.289063 1.050781 0 L 10.964844 0 C 11.378906 0.238281 11.578125 0.722656 11.457031 1.179688 C 11.332031 1.640625 10.917969 1.960938 10.441406 1.960938 C 9.964844 1.960938 9.550781 1.640625 9.425781 1.179688 C 9.304688 0.722656 9.503906 0.238281 9.917969 0 L 9.917969 38.890625 C -0.820313 38.890625 -9.527344 30.183594 -9.527344 19.445313 C -9.527344 8.707031 -0.820313 0 9.917969 0 Z M 10.964844 37.644531 "/>
<path style=" stroke:none;fill-rule:nonzero;fill:rgb(31.372549%,90.196078%,100%);fill-opacity:1;" d="M 10.964844 48.609375 L 59.070313 48.609375 C 45.648438 64.921875 21.542969 67.265625 5.230469 53.839844 C -11.082031 40.417969 -13.421875 16.3125 0 0 L 0 5.484375 C -1.515625 5.195313 -2.507813 3.730469 -2.214844 2.214844 C -1.925781 0.703125 -0.464844 -0.289063 1.050781 0 L 10.964844 0 C 11.378906 0.238281 11.578125 0.722656 11.457031 1.179688 C 11.332031 1.640625 10.917969 1.960938 10.441406 1.960938 C 9.964844 1.960938 9.550781 1.640625 9.425781 1.179688 C 9.304688 0.722656 9.503906 0.238281 9.917969 0 L 9.917969 -5.484375 C 11.429688 -5.484375 12.660156 -4.253906 12.660156 -2.742188 C 12.660156 -1.226563 11.429688 0 9.917969 0 Z M 10.964844 48.609375 "/>
</g>
</svg>
