<?xml version="1.0" encoding="UTF-8"?>
<svg xmlns="http://www.w3.org/2000/svg" xmlns:xlink="http://www.w3.org/1999/xlink" width="70pt" height="52pt" viewBox="0 0 70 52" version="1.1">
<g id="surface1">
<path style=" stroke:none;fill-rule:nonzero;fill:rgb(0%,0%,0%);fill-opacity:1;" d="M 6.582031 6.875 L 13.523438 0 L 16.558594 3.007813 L 6.582031 13.324219 L 0.507813 7.304688 L 3.542969 4.296875 Z M 6.582031 19.769531 L 13.523438 12.890625 L 16.558594 15.902344 L 6.582031 26.214844 L 0.507813 20.199219 L 3.542969 17.191406 Z M 6.582031 32.660156 L 13.523438 25.785156 L 16.558594 28.792969 L 6.582031 39.109375 L 0.507813 33.089844 L 3.542969 30.082031 Z M 6.582031 45.554688 L 13.523438 38.675781 L 16.558594 41.6875 L 6.582031 52 L 0.507813 45.984375 L 3.542969 42.976563 Z M 21.765625 4.296875 L 69.492188 4.296875 L 69.492188 8.59375 L 21.765625 8.59375 Z M 21.765625 21.488281 L 21.765625 17.191406 L 69.492188 17.191406 L 69.492188 21.488281 Z M 21.765625 34.378906 L 21.765625 30.082031 L 69.492188 30.082031 L 69.492188 34.378906 Z M 21.765625 47.273438 L 21.765625 42.976563 L 69.492188 42.976563 L 69.492188 47.273438 Z M 21.765625 47.273438 "/>
</g>
</svg>
