<?xml version="1.0" encoding="UTF-8"?>
<svg xmlns="http://www.w3.org/2000/svg" xmlns:xlink="http://www.w3.org/1999/xlink" width="70pt" height="70pt" viewBox="0 0 70 70" version="1.1">
<defs>
<linearGradient id="linear0" gradientUnits="userSpaceOnUse" x1="5.23" y1="17.45" x2="5.23" y2="8.09" gradientTransform="matrix(3.888889,0,0,3.888889,0,0)">
<stop offset="0" style="stop-color:rgb(9.803922%,53.333333%,85.098039%);stop-opacity:1;"/>
<stop offset="0.9" style="stop-color:rgb(32.941176%,68.235294%,94.117647%);stop-opacity:1;"/>
</linearGradient>
<linearGradient id="linear1" gradientUnits="userSpaceOnUse" x1="11.5" y1="12.45" x2="11.5" y2="0.55" gradientTransform="matrix(3.888889,0,0,3.888889,0,0)">
<stop offset="0" style="stop-color:rgb(9.803922%,54.117647%,70.196078%);stop-opacity:1;"/>
<stop offset="0.01" style="stop-color:rgb(9.803922%,54.509804%,70.588235%);stop-opacity:1;"/>
<stop offset="0.44" style="stop-color:rgb(15.294118%,69.803922%,84.313725%);stop-opacity:1;"/>
<stop offset="0.79" style="stop-color:rgb(18.431373%,79.607843%,92.941176%);stop-opacity:1;"/>
<stop offset="1" style="stop-color:rgb(19.607843%,83.137255%,96.078431%);stop-opacity:1;"/>
</linearGradient>
</defs>
<g id="surface1">
<path style=" stroke:none;fill-rule:nonzero;fill:url(#linear0);" d="M 21.738281 51.0625 L 38.539063 51.0625 L 38.539063 67.859375 L 21.738281 67.859375 Z M 4.472656 67.859375 L 18.9375 67.859375 L 18.9375 51.0625 L 2.140625 51.0625 L 2.140625 65.527344 C -15.957031 66.117188 -31.105469 51.929688 -31.695313 33.832031 C -32.285156 15.738281 -18.09375 0.589844 0 0 Z M 2.140625 48.417969 L 18.9375 48.417969 L 18.9375 31.460938 L 2.140625 31.460938 Z M 2.140625 48.417969 "/>
<path style=" stroke:none;fill-rule:evenodd;fill:url(#linear1);" d="M 44.722656 2.140625 C 44.722656 -10.511719 54.976563 -20.765625 67.628906 -20.765625 C 80.277344 -20.765625 90.535156 -10.511719 90.535156 2.140625 C 90.535156 14.789063 80.277344 25.042969 67.628906 25.042969 L 21.582031 25.042969 L 21.582031 1.710938 C 28.027344 -11.003906 43.558594 -16.085938 56.273438 -9.644531 C 68.988281 -3.199219 74.070313 12.328125 67.628906 25.042969 Z M 44.722656 2.140625 "/>
<path style=" stroke:none;fill-rule:nonzero;fill:rgb(100%,100%,100%);fill-opacity:1;" d="M 29.515625 21.972656 L 34.804688 21.972656 L 34.804688 37.839844 L 29.515625 37.839844 Z M 40.09375 27.261719 L 45.382813 27.261719 L 45.382813 37.839844 L 40.09375 37.839844 Z M 50.671875 16.683594 L 55.960938 16.683594 L 55.960938 37.839844 L 50.671875 37.839844 Z M 50.671875 16.683594 "/>
</g>
</svg>
