<?xml version="1.0" encoding="UTF-8"?>
<svg xmlns="http://www.w3.org/2000/svg" xmlns:xlink="http://www.w3.org/1999/xlink" width="70pt" height="70pt" viewBox="0 0 70 70" version="1.1">
<defs>
<linearGradient id="linear0" gradientUnits="userSpaceOnUse" x1="9.252" y1="14.005" x2="9.252" y2="-0.028" gradientTransform="matrix(3.888889,0,0,3.888889,0,7.777778)">
<stop offset="0" style="stop-color:rgb(70.196078%,70.588235%,70.588235%);stop-opacity:1;"/>
<stop offset="0.33" style="stop-color:rgb(70.196078%,70.588235%,70.588235%);stop-opacity:1;"/>
<stop offset="0.82" style="stop-color:rgb(80%,80%,79.607843%);stop-opacity:1;"/>
<stop offset="1" style="stop-color:rgb(80%,80%,79.607843%);stop-opacity:1;"/>
</linearGradient>
<linearGradient id="linear1" gradientUnits="userSpaceOnUse" x1="10.558" y1="15.244" x2="10.439" y2="17.218" gradientTransform="matrix(3.888889,0,0,3.888889,0,0)">
<stop offset="0.317" style="stop-color:rgb(20%,74.509804%,86.666667%);stop-opacity:1;"/>
<stop offset="1" style="stop-color:rgb(45.490196%,81.176471%,92.156863%);stop-opacity:1;"/>
</linearGradient>
<linearGradient id="linear2" gradientUnits="userSpaceOnUse" x1="9" y1="14.113" x2="9" y2="3.938" gradientTransform="matrix(3.888889,0,0,3.888889,0,0)">
<stop offset="0" style="stop-color:rgb(38.039216%,38.431373%,38.039216%);stop-opacity:1;"/>
<stop offset="1" style="stop-color:rgb(71.372549%,72.156863%,72.941176%);stop-opacity:1;"/>
</linearGradient>
</defs>
<g id="surface1">
<path style=" stroke:none;fill-rule:nonzero;fill:rgb(45.490196%,81.176471%,92.156863%);fill-opacity:1;" d="M 43.425781 68.902344 L 4.230469 51.265625 C -9.925781 53.433594 -23.15625 43.710938 -25.324219 29.554688 C -27.488281 15.398438 -17.765625 2.164063 -3.609375 0 L 18.734375 4.230469 C 17.5625 10.402344 11.617188 14.453125 5.445313 13.285156 C -0.722656 12.117188 -4.777344 6.167969 -3.609375 0 L 35.585938 17.636719 C 30.71875 28.460938 17.996094 33.285156 7.171875 28.417969 C -3.652344 23.546875 -8.480469 10.824219 -3.609375 0 L -21.246094 39.195313 C -32.070313 38.332031 -40.140625 28.855469 -39.277344 18.03125 C -38.410156 7.207031 -28.933594 -0.867188 -18.109375 0 Z M 43.425781 68.902344 "/>
<path style=" stroke:none;fill-rule:nonzero;fill:url(#linear0);" d="M 61.832031 19.910156 L 51.265625 9.332031 C 49.183594 8.949219 47.566406 7.300781 47.21875 5.210938 C 46.867188 3.121094 47.867188 1.039063 49.710938 0 L 14.03125 0 C 14.03125 -9.851563 22.019531 -17.839844 31.871094 -17.839844 C 41.722656 -17.839844 49.710938 -9.851563 49.710938 0 L 49.710938 43.507813 C 37.695313 43.507813 27.957031 33.769531 27.957031 21.753906 C 27.957031 9.738281 37.695313 0 49.710938 0 L 57.945313 0 C 59.757813 2.175781 59.566406 5.390625 57.5 7.332031 C 55.4375 9.277344 52.21875 9.277344 50.15625 7.332031 C 48.089844 5.390625 47.898438 2.175781 49.710938 0 L 49.710938 23.832031 C 43.132813 24.914063 36.917969 20.457031 35.835938 13.875 C 34.753906 7.292969 39.210938 1.082031 45.792969 0 Z M 61.832031 19.910156 "/>
<path style=" stroke:none;fill-rule:nonzero;fill:url(#linear1);" d="M 28.96875 62.242188 L 43.355469 68.667969 C 47.890625 71.3125 51.675781 65.644531 52.808594 62.242188 "/>
<path style=" stroke:none;fill-rule:nonzero;fill:url(#linear2);" d="M 54.78125 37.234375 L 54.78125 32.726563 L 54.152344 32.488281 L 49.324219 30.90625 L 48.058594 27.816406 L 50.507813 22.59375 L 47.34375 19.445313 L 46.714844 19.757813 L 42.203125 22.058594 L 39.113281 20.789063 L 37.136719 15.34375 L 32.628906 15.34375 L 32.386719 15.945313 L 30.804688 20.773438 L 27.71875 22.042969 L 22.574219 19.589844 L 19.410156 22.753906 L 19.726563 23.386719 L 22.023438 27.894531 L 20.753906 30.984375 L 15.21875 32.960938 L 15.21875 37.472656 L 15.847656 37.710938 L 20.675781 39.292969 L 21.941406 42.378906 L 19.492188 47.601563 L 22.65625 50.765625 L 23.285156 50.449219 L 27.796875 48.15625 L 30.886719 49.421875 L 32.863281 54.863281 L 37.371094 54.863281 L 37.613281 54.230469 L 39.195313 49.402344 L 42.28125 48.136719 L 47.503906 50.589844 L 50.667969 47.425781 L 50.351563 46.792969 L 48.058594 42.28125 L 49.324219 39.191406 Z M 54.78125 37.234375 "/>
<path style=" stroke:none;fill-rule:nonzero;fill:rgb(100%,100%,100%);fill-opacity:1;" d="M 37.535156 24.46875 C 37.667969 24.632813 37.644531 24.871094 37.484375 25.007813 L 28 37.671875 C 28.132813 37.679688 28.257813 37.742188 28.347656 37.839844 C 28.433594 37.941406 28.480469 38.070313 28.46875 38.203125 L 33.828125 38.203125 L 31.324219 46.277344 C 31.296875 46.109375 31.378906 45.945313 31.527344 45.863281 C 31.679688 45.785156 31.863281 45.816406 31.984375 45.933594 C 32.101563 46.054688 32.132813 46.238281 32.054688 46.390625 C 31.972656 46.539063 31.808594 46.621094 31.640625 46.59375 L 31.640625 46.957031 L 40.878906 33.734375 C 40.929688 33.632813 40.980469 33.582031 40.980469 33.476563 C 44.703125 33.605469 47.617188 36.730469 47.488281 40.453125 C 47.355469 44.175781 44.234375 47.089844 40.511719 46.957031 L 35.445313 46.957031 L 37.746094 39.234375 C 39.878906 39.378906 41.492188 41.222656 41.347656 43.355469 C 41.203125 45.488281 39.355469 47.101563 37.222656 46.957031 Z M 37.535156 24.46875 "/>
</g>
</svg>
