<?xml version="1.0" encoding="UTF-8"?>
<svg xmlns="http://www.w3.org/2000/svg" xmlns:xlink="http://www.w3.org/1999/xlink" width="70pt" height="70pt" viewBox="0 0 70 70" version="1.1">
<defs>
<linearGradient id="linear0" gradientUnits="userSpaceOnUse" x1="9" y1="14.633" x2="9" y2="1.875" gradientTransform="matrix(3.888889,0,0,3.888889,0,0)">
<stop offset="0" style="stop-color:rgb(0%,47.058824%,83.137255%);stop-opacity:1;"/>
<stop offset="1" style="stop-color:rgb(36.862745%,62.745098%,93.72549%);stop-opacity:1;"/>
</linearGradient>
<linearGradient id="linear1" gradientUnits="userSpaceOnUse" x1="11.443" y1="9.184" x2="11.443" y2="15.325" gradientTransform="matrix(3.888889,0,0,3.888889,0,0)">
<stop offset="0" style="stop-color:rgb(100%,100%,100%);stop-opacity:1;"/>
<stop offset="1" style="stop-color:rgb(94.901961%,94.901961%,94.901961%);stop-opacity:1;"/>
</linearGradient>
</defs>
<g id="surface1">
<path style=" stroke:none;fill-rule:nonzero;fill:url(#linear0);" d="M 70 41.367188 C 71.277344 46.082031 70.289063 51.121094 67.328125 55.007813 C 64.367188 58.890625 59.769531 61.179688 54.882813 61.199219 L 75.21875 81.535156 C 75.804688 81.535156 76.386719 81.507813 76.957031 81.460938 L 108.875 81.460938 C 108.894531 89.03125 102.773438 95.183594 95.203125 95.203125 C 87.632813 95.222656 81.480469 89.105469 81.460938 81.535156 Z M 70 41.367188 "/>
<path style=" stroke:none;fill-rule:nonzero;fill:rgb(31.372549%,90.196078%,100%);fill-opacity:1;" d="M 44.496094 32.222656 C 59.515625 32.222656 68.6875 43.398438 69.425781 58.667969 C 53.222656 57.546875 41 43.507813 42.117188 27.304688 C 43.238281 11.105469 57.28125 -1.121094 73.480469 0 L 23.433594 0 C 24.921875 0.910156 25.621094 2.695313 25.148438 4.371094 C 24.675781 6.046875 23.144531 7.207031 21.40625 7.207031 C 19.664063 7.207031 18.132813 6.046875 17.660156 4.371094 C 17.1875 2.695313 17.890625 0.910156 19.375 0 C 20.125 -15.265625 29.304688 -26.441406 44.292969 -26.441406 Z M 44.496094 32.222656 "/>
<path style=" stroke:none;fill-rule:nonzero;fill:url(#linear1);" d="M 23.433594 60.132813 C 23.859375 59.765625 24.476563 59.722656 24.945313 60.027344 C 25.417969 60.332031 25.628906 60.914063 25.46875 61.449219 C 25.304688 61.988281 24.804688 62.351563 24.242188 62.34375 C 23.679688 62.335938 23.191406 61.957031 23.046875 61.414063 C 23.765625 46.820313 33.808594 37.433594 45.394531 37.433594 C 56.980469 37.433594 67.050781 46.820313 67.753906 61.414063 C 67.761719 60.867188 68.117188 60.390625 68.632813 60.21875 C 69.152344 60.050781 69.722656 60.226563 70.050781 60.660156 C 70.378906 61.097656 70.398438 61.691406 70.097656 62.144531 C 69.792969 62.597656 69.238281 62.8125 68.707031 62.671875 Z M 23.433594 60.132813 "/>
<path style=" stroke:none;fill-rule:nonzero;fill:rgb(61.176471%,92.156863%,100%);fill-opacity:1;" d="M 56.582031 42.855469 C 44.75 44.128906 34.125 35.566406 32.851563 23.730469 C 31.578125 11.898438 40.140625 1.273438 51.976563 0 L 51.976563 46.667969 C 39.089844 46.667969 28.640625 36.21875 28.640625 23.332031 C 28.640625 10.445313 39.089844 0 51.976563 0 Z M 56.582031 42.855469 "/>
<path style=" stroke:none;fill-rule:nonzero;fill:rgb(31.372549%,90.196078%,100%);fill-opacity:1;" d="M 32.414063 42.855469 L 38.191406 48.796875 C 24.71875 59.34375 5.246094 56.96875 -5.300781 43.496094 C -15.847656 30.019531 -13.476563 10.546875 0 0 L 0 38.246094 C -10.5625 36.976563 -18.09375 27.382813 -16.820313 16.820313 C -15.546875 6.257813 -5.953125 -1.273438 4.609375 0 Z M 32.414063 42.855469 "/>
<path style=" stroke:none;fill-rule:nonzero;fill:rgb(61.176471%,92.156863%,100%);fill-opacity:1;" d="M 52.625 50.667969 C 38.632813 65.199219 15.511719 65.636719 0.976563 51.644531 C -13.554688 37.65625 -13.992188 14.53125 0 0 L 8.167969 0 C 4.546875 1.097656 0.679688 1.097656 -2.941406 0 Z M 52.625 50.667969 "/>
<path style=" stroke:none;fill-rule:nonzero;fill:rgb(19.607843%,74.509804%,86.666667%);fill-opacity:1;" d="M 36.375 50.667969 L 30.59375 44.722656 C 18.246094 41.65625 10.71875 29.160156 13.785156 16.808594 C 16.851563 4.460938 29.347656 -3.066406 41.695313 0 L 49.863281 0 C 54.570313 1.949219 57.242188 6.949219 56.25 11.945313 C 55.257813 16.941406 50.875 20.539063 45.78125 20.539063 C 40.6875 20.539063 36.304688 16.941406 35.308594 11.945313 C 34.316406 6.949219 36.992188 1.949219 41.695313 0 Z M 59.539063 48.824219 C 46.054688 49.027344 34.960938 38.261719 34.761719 24.777344 C 34.558594 11.296875 45.324219 0.203125 58.808594 0 L 46.753906 4.808594 L 47.6875 7.203125 L 59.746094 2.398438 C 59.308594 2.605469 58.792969 2.550781 58.410156 2.257813 C 58.027344 1.964844 57.835938 1.484375 57.921875 1.007813 C 58.003906 0.53125 58.347656 0.144531 58.808594 0 Z M 59.539063 48.824219 "/>
<path style=" stroke:none;fill-rule:nonzero;fill:rgb(46.27451%,46.27451%,46.27451%);fill-opacity:1;" d="M 48.011719 54.636719 C 48.011719 56.578125 46.4375 58.152344 44.496094 58.152344 C 42.554688 58.152344 40.980469 56.578125 40.980469 54.636719 C 40.980469 52.695313 42.554688 51.121094 44.496094 51.121094 C 46.4375 51.121094 48.011719 52.695313 48.011719 54.636719 Z M 48.011719 54.636719 "/>
</g>
</svg>
