<?xml version="1.0" encoding="UTF-8"?>
<svg xmlns="http://www.w3.org/2000/svg" xmlns:xlink="http://www.w3.org/1999/xlink" width="70pt" height="65pt" viewBox="0 0 70 65" version="1.1">
<g id="surface1">
<path style=" stroke:none;fill-rule:nonzero;fill:rgb(0%,0%,0%);fill-opacity:1;" d="M 26.25 26 L 30.625 26 L 30.625 30.332031 L 26.25 30.332031 Z M 39.375 52 L 43.75 52 L 43.75 56.332031 L 39.375 56.332031 Z M 52.5 26 L 56.875 26 L 56.875 30.332031 L 52.5 30.332031 Z M 39.375 26 L 43.75 26 L 43.75 30.332031 L 39.375 30.332031 Z M 26.25 34.667969 L 30.625 34.667969 L 30.625 39 L 26.25 39 Z M 13.125 34.667969 L 17.5 34.667969 L 17.5 39 L 13.125 39 Z M 52.5 34.667969 L 56.875 34.667969 L 56.875 39 L 52.5 39 Z M 39.375 34.667969 L 43.75 34.667969 L 43.75 39 L 39.375 39 Z M 26.25 43.332031 L 30.625 43.332031 L 30.625 47.667969 L 26.25 47.667969 Z M 13.125 43.332031 L 17.5 43.332031 L 17.5 47.667969 L 13.125 47.667969 Z M 52.5 43.332031 L 56.875 43.332031 L 56.875 47.667969 L 52.5 47.667969 Z M 39.375 43.332031 L 43.75 43.332031 L 43.75 47.667969 L 39.375 47.667969 Z M 26.25 52 L 30.625 52 L 30.625 56.332031 L 26.25 56.332031 Z M 13.125 52 L 17.5 52 L 17.5 56.332031 L 13.125 56.332031 Z M 70 4.332031 L 70 65 L 0 65 L 0 4.332031 L 13.125 4.332031 L 13.125 0 L 17.5 0 L 17.5 4.332031 L 52.5 4.332031 L 52.5 0 L 56.875 0 L 56.875 4.332031 Z M 4.375 8.667969 L 4.375 17.332031 L 65.625 17.332031 L 65.625 8.667969 L 56.875 8.667969 L 56.875 13 L 52.5 13 L 52.5 8.667969 L 17.5 8.667969 L 17.5 13 L 13.125 13 L 13.125 8.667969 Z M 65.625 60.667969 L 65.625 21.667969 L 4.375 21.667969 L 4.375 60.667969 Z M 65.625 60.667969 "/>
</g>
</svg>
