<?xml version="1.0" encoding="UTF-8"?>
<svg xmlns="http://www.w3.org/2000/svg" xmlns:xlink="http://www.w3.org/1999/xlink" width="70pt" height="70pt" viewBox="0 0 70 70" version="1.1">
<defs>
<linearGradient id="linear0" gradientUnits="userSpaceOnUse" x1="3.44" y1="14.22" x2="3.44" y2="10.54" gradientTransform="matrix(3.888889,0,0,3.888889,0,0)">
<stop offset="0.09" style="stop-color:rgb(19.607843%,74.509804%,86.666667%);stop-opacity:1;"/>
<stop offset="1" style="stop-color:rgb(31.372549%,90.196078%,100%);stop-opacity:1;"/>
</linearGradient>
<linearGradient id="linear1" gradientUnits="userSpaceOnUse" x1="14.51" y1="14.22" x2="14.51" y2="10.54" gradientTransform="matrix(3.888889,0,0,3.888889,0,0)">
<stop offset="0.09" style="stop-color:rgb(19.607843%,74.509804%,86.666667%);stop-opacity:1;"/>
<stop offset="1" style="stop-color:rgb(31.372549%,90.196078%,100%);stop-opacity:1;"/>
</linearGradient>
<linearGradient id="linear2" gradientUnits="userSpaceOnUse" x1="8.98" y1="4.4" x2="8.98" y2="0.71" gradientTransform="matrix(3.888889,0,0,3.888889,0,0)">
<stop offset="0.09" style="stop-color:rgb(19.607843%,74.509804%,86.666667%);stop-opacity:1;"/>
<stop offset="1" style="stop-color:rgb(31.372549%,90.196078%,100%);stop-opacity:1;"/>
</linearGradient>
</defs>
<g id="surface1">
<path style=" stroke:none;fill-rule:nonzero;fill:rgb(0%,47.058824%,83.137255%);fill-opacity:1;" d="M 28.464844 46.042969 L 41.339844 46.042969 C 45.3125 42.070313 51.753906 42.070313 55.726563 46.042969 C 59.699219 50.019531 59.699219 56.460938 55.726563 60.433594 L 55.726563 60.707031 L 49.039063 49.039063 C 52.261719 49.15625 54.777344 51.863281 54.660156 55.085938 C 54.539063 58.308594 51.832031 60.824219 48.609375 60.707031 C 35.671875 70.304688 17.398438 67.597656 7.796875 54.660156 C -1.804688 41.71875 0.902344 23.445313 13.84375 13.84375 C 14.011719 13.804688 14.183594 13.804688 14.351563 13.84375 L 7.660156 25.511719 C 11.632813 21.539063 18.078125 21.539063 22.050781 25.511719 C 26.023438 29.484375 26.023438 35.925781 22.050781 39.898438 L 22.050781 40.949219 Z M 20.6875 9.917969 L 12.910156 9.917969 C 21.480469 9.765625 28.550781 16.589844 28.699219 25.160156 C 28.851563 33.730469 22.023438 40.800781 13.457031 40.949219 L 2.101563 27.457031 C 5.828125 24.320313 11.390625 24.796875 14.523438 28.523438 C 17.660156 32.25 17.183594 37.8125 13.457031 40.949219 L 17.070313 47.171875 C 20.960938 43.285156 27.261719 43.285156 31.148438 47.171875 C 35.039063 51.058594 35.039063 57.363281 31.148438 61.25 L 31.148438 66.695313 L 30.605469 66.695313 L 33.679688 61.445313 L 23.722656 19.988281 C 27.640625 16.070313 33.996094 16.070313 37.917969 19.988281 C 41.835938 23.910156 41.835938 30.261719 37.917969 34.183594 Z M 58.101563 10.460938 C 64.652344 10.613281 69.839844 16.042969 69.6875 22.59375 C 69.539063 29.144531 64.105469 34.332031 57.554688 34.183594 L 49.777344 34.183594 C 43.417969 31.226563 40.148438 24.089844 42.0625 17.339844 C 43.980469 10.59375 50.515625 6.238281 57.480469 7.070313 C 64.445313 7.898438 69.773438 13.664063 70.054688 20.671875 C 70.335938 27.679688 65.480469 33.851563 58.605469 35.234375 L 63.273438 43.285156 L 66.34375 48.609375 C 62.648438 50.75 57.921875 49.484375 55.785156 45.792969 C 53.648438 42.097656 54.910156 37.371094 58.605469 35.234375 L 60.082031 35.234375 C 54.753906 29.332031 55.097656 20.257813 60.859375 14.777344 C 66.625 9.300781 75.707031 9.414063 81.328125 15.039063 C 86.953125 20.660156 87.066406 29.742188 81.589844 35.503906 C 76.109375 41.269531 67.035156 41.613281 61.132813 36.285156 L 64.75 30.023438 C 66.480469 31.019531 67.070313 33.230469 66.070313 34.960938 C 65.074219 36.691406 62.863281 37.28125 61.132813 36.285156 Z M 41.882813 52.265625 L 27.921875 52.265625 C 31.832031 52.074219 35.15625 55.085938 35.351563 58.996094 C 35.542969 62.902344 32.53125 66.230469 28.621094 66.421875 L 29.75 67.550781 L 32.820313 72.839844 C 31.363281 73.6875 29.488281 73.191406 28.640625 71.730469 C 27.792969 70.269531 28.289063 68.398438 29.75 67.550781 L 49.390625 67.550781 C 49.390625 72.972656 44.992188 77.371094 39.570313 77.371094 C 34.144531 77.371094 29.75 72.972656 29.75 67.550781 L 32.785156 62.300781 C 36.734375 62.707031 39.609375 66.242188 39.199219 70.195313 C 38.792969 74.144531 35.257813 77.019531 31.304688 76.609375 L 32.394531 77.699219 Z M 41.882813 52.265625 "/>
<path style=" stroke:none;fill-rule:nonzero;fill:url(#linear0);" d="M 20.570313 48.144531 C 20.570313 52.117188 17.351563 55.339844 13.378906 55.339844 C 9.40625 55.339844 6.183594 52.117188 6.183594 48.144531 C 6.183594 44.171875 9.40625 40.949219 13.378906 40.949219 C 17.351563 40.949219 20.570313 44.171875 20.570313 48.144531 Z M 20.570313 48.144531 "/>
<path style=" stroke:none;fill-rule:nonzero;fill:url(#linear1);" d="M 63.621094 48.144531 C 63.621094 52.117188 60.402344 55.339844 56.429688 55.339844 C 52.453125 55.339844 49.234375 52.117188 49.234375 48.144531 C 49.234375 44.171875 52.453125 40.949219 56.429688 40.949219 C 60.402344 40.949219 63.621094 44.171875 63.621094 48.144531 Z M 63.621094 48.144531 "/>
<path style=" stroke:none;fill-rule:nonzero;fill:url(#linear2);" d="M 42.117188 9.917969 C 42.117188 13.890625 38.894531 17.109375 34.921875 17.109375 C 30.949219 17.109375 27.726563 13.890625 27.726563 9.917969 C 27.726563 5.941406 30.949219 2.722656 34.921875 2.722656 C 38.894531 2.722656 42.117188 5.941406 42.117188 9.917969 Z M 42.117188 9.917969 "/>
<path style=" stroke:none;fill-rule:nonzero;fill:rgb(36.862745%,62.745098%,93.72549%);fill-opacity:1;" d="M 56.429688 24.964844 C 51.835938 17.167969 52.230469 7.402344 57.4375 0 L 58.605469 2.023438 L 61.679688 7.351563 C 59.648438 8.519531 57.054688 7.824219 55.882813 5.792969 C 54.710938 3.765625 55.410156 1.171875 57.4375 0 L 58.917969 0 C 53.585938 -5.902344 53.929688 -14.976563 59.695313 -20.453125 C 65.457031 -25.933594 74.539063 -25.820313 80.164063 -20.195313 C 85.785156 -14.574219 85.902344 -5.492188 80.421875 0.273438 C 74.941406 6.035156 65.867188 6.382813 59.964844 1.050781 L 63.039063 -4.238281 L 63.855469 -5.679688 C 63.132813 -3.269531 62.015625 -0.996094 60.550781 1.050781 Z M 42.390625 45.1875 C 37.164063 39.394531 37.507813 30.492188 43.167969 25.121094 C 48.824219 19.746094 57.730469 19.863281 63.25 25.378906 C 68.765625 30.894531 68.882813 39.804688 63.507813 45.460938 C 58.136719 51.117188 49.234375 51.464844 43.4375 46.238281 L 39.550781 39.394531 C 46.070313 39.132813 52.402344 41.617188 57.011719 46.238281 L 65.023438 46.238281 C 65.023438 48.449219 63.230469 50.246094 61.015625 50.246094 C 58.804688 50.246094 57.011719 48.449219 57.011719 46.238281 Z M 42.933594 52.964844 C 41.074219 53.160156 39.414063 51.8125 39.21875 49.953125 C 39.027344 48.09375 40.375 46.433594 42.234375 46.238281 L 33.601563 46.238281 C 21.761719 44.011719 13.566406 33.136719 14.683594 21.140625 C 15.804688 9.144531 25.871094 -0.0234375 37.917969 -0.0234375 C 49.964844 -0.0234375 60.03125 9.144531 61.148438 21.140625 C 62.269531 33.136719 54.070313 44.011719 42.234375 46.238281 L 43.671875 46.238281 C 44.039063 46.542969 44.175781 47.042969 44.015625 47.488281 C 43.851563 47.9375 43.429688 48.234375 42.953125 48.234375 C 42.476563 48.234375 42.054688 47.9375 41.890625 47.488281 C 41.730469 47.042969 41.867188 46.542969 42.234375 46.238281 L 45.265625 40.988281 C 49.21875 41.398438 52.089844 44.929688 51.683594 48.882813 C 51.273438 52.835938 47.742188 55.707031 43.789063 55.300781 Z M 42.933594 52.964844 "/>
</g>
</svg>
