<?xml version="1.0" encoding="UTF-8"?>
<svg xmlns="http://www.w3.org/2000/svg" xmlns:xlink="http://www.w3.org/1999/xlink" width="70pt" height="70pt" viewBox="0 0 70 70" version="1.1">
<defs>
<linearGradient id="linear0" gradientUnits="userSpaceOnUse" x1="9" y1="13.51" x2="9" y2="0.76" gradientTransform="matrix(3.888889,0,0,3.888889,0,0)">
<stop offset="0" style="stop-color:rgb(96.862745%,55.294118%,11.764706%);stop-opacity:1;"/>
<stop offset="0.44" style="stop-color:rgb(97.254902%,56.862745%,11.764706%);stop-opacity:1;"/>
<stop offset="0.85" style="stop-color:rgb(97.647059%,61.176471%,11.372549%);stop-opacity:1;"/>
<stop offset="1" style="stop-color:rgb(98.039216%,63.529412%,11.372549%);stop-opacity:1;"/>
</linearGradient>
</defs>
<g id="surface1">
<path style=" stroke:none;fill-rule:nonzero;fill:url(#linear0);" d="M 2.332031 2.957031 L 67.667969 2.957031 C 68.957031 2.957031 70 4 70 5.289063 L 70 50.207031 C 70 51.496094 68.957031 52.539063 67.667969 52.539063 L 2.332031 52.539063 C 1.042969 52.539063 0 51.496094 0 50.207031 L 0 5.289063 C 0 4 1.042969 2.957031 2.332031 2.957031 Z M 2.332031 2.957031 "/>
<path style=" stroke:none;fill-rule:nonzero;fill:rgb(100%,100%,100%);fill-opacity:1;" d="M 5.25 7.3125 L 64.75 7.3125 C 65.394531 7.3125 65.917969 7.832031 65.917969 8.476563 L 65.917969 46.976563 C 65.917969 47.621094 65.394531 48.144531 64.75 48.144531 L 5.25 48.144531 C 4.605469 48.144531 4.082031 47.621094 4.082031 46.976563 L 4.082031 8.476563 C 4.082031 7.832031 4.605469 7.3125 5.25 7.3125 Z M 5.25 7.3125 "/>
<path style=" stroke:none;fill-rule:nonzero;fill:rgb(81.960784%,34.901961%,0%);fill-opacity:1;" d="M 58.101563 36.320313 C 48.070313 36.011719 40.191406 27.628906 40.503906 17.597656 C 40.8125 7.566406 49.199219 -0.3125 59.226563 0 L 33.949219 0 C 33.949219 -6.980469 39.609375 -12.640625 46.589844 -12.640625 C 53.570313 -12.640625 59.226563 -6.980469 59.226563 0 L 84.503906 0 C 84.503906 6.980469 78.847656 12.640625 71.867188 12.640625 C 64.886719 12.640625 59.226563 6.980469 59.226563 0 M 59.226563 -7 C 61.160156 -7.3125 62.980469 -5.996094 63.292969 -4.0625 C 63.601563 -2.132813 62.289063 -0.3125 60.355469 0 L 35.078125 0 C 35.078125 -6.980469 40.738281 -12.640625 47.714844 -12.640625 C 54.695313 -12.640625 60.355469 -6.980469 60.355469 0 L 85.632813 0 C 85.632813 6.980469 79.976563 12.640625 72.996094 12.640625 C 66.015625 12.640625 60.355469 6.980469 60.355469 0 M 60.355469 -10.148438 C 63.160156 -10.460938 65.683594 -8.441406 65.996094 -5.640625 C 66.304688 -2.835938 64.285156 -0.3125 61.484375 0 L 14.660156 0 C 14.660156 -12.929688 25.144531 -23.410156 38.070313 -23.410156 C 51 -23.410156 61.484375 -12.929688 61.484375 0 L 103.832031 0 C 103.832031 11.695313 94.351563 21.175781 82.660156 21.175781 C 70.964844 21.175781 61.484375 11.695313 61.484375 0 "/>
<path style=" stroke:none;fill-rule:nonzero;fill:rgb(70.196078%,10.588235%,10.588235%);fill-opacity:1;" d="M 19.949219 49.351563 C 6.324219 49.351563 -4.726563 38.300781 -4.726563 24.675781 C -4.726563 11.046875 6.324219 0 19.949219 0 L 19.132813 16.292969 C 14.632813 16.070313 11.167969 12.238281 11.394531 7.738281 C 11.621094 3.238281 15.449219 -0.226563 19.949219 0 L 25.003906 -5.132813 L 30.101563 0.0390625 C 30.089844 2.839844 27.808594 5.105469 25.003906 5.09375 C 22.203125 5.082031 19.9375 2.804688 19.949219 0 Z M 19.949219 49.351563 "/>
<path style=" stroke:none;fill-rule:nonzero;fill:rgb(90.196078%,13.72549%,13.72549%);fill-opacity:1;" d="M 25.238281 40.988281 C 25.238281 34.503906 20 29.246094 13.535156 29.246094 C 7.070313 29.246094 1.828125 34.503906 1.828125 40.988281 C 1.828125 47.476563 7.070313 52.734375 13.535156 52.734375 C 20 52.734375 25.238281 47.476563 25.238281 40.988281 Z M 25.238281 40.988281 "/>
<path style=" stroke:none;fill-rule:nonzero;fill:rgb(100%,70.196078%,30.196078%);fill-opacity:1;" d="M 22.4375 40.988281 C 22.4375 45.90625 18.453125 49.894531 13.535156 49.894531 C 8.613281 49.894531 4.628906 45.90625 4.628906 40.988281 C 4.628906 36.070313 8.613281 32.082031 13.535156 32.082031 C 18.453125 32.082031 22.4375 36.070313 22.4375 40.988281 Z M 22.4375 40.988281 "/>
</g>
</svg>
