<?xml version="1.0" encoding="UTF-8"?>
<svg xmlns="http://www.w3.org/2000/svg" xmlns:xlink="http://www.w3.org/1999/xlink" width="70pt" height="70pt" viewBox="0 0 70 70" version="1.1">
<defs>
<linearGradient id="linear0" gradientUnits="userSpaceOnUse" x1="9" y1="15.83" x2="9" y2="5.79" gradientTransform="matrix(3.888889,0,0,3.888889,0,0)">
<stop offset="0" style="stop-color:rgb(19.607843%,74.509804%,86.666667%);stop-opacity:1;"/>
<stop offset="0.18" style="stop-color:rgb(19.607843%,79.215686%,91.764706%);stop-opacity:1;"/>
<stop offset="0.41" style="stop-color:rgb(19.607843%,82.352941%,94.901961%);stop-opacity:1;"/>
<stop offset="0.78" style="stop-color:rgb(19.607843%,83.137255%,96.078431%);stop-opacity:1;"/>
</linearGradient>
</defs>
<g id="surface1">
<path style=" stroke:none;fill-rule:nonzero;fill:url(#linear0);" d="M 1.945313 22.515625 L 68.054688 22.515625 L 68.054688 59.382813 C 51.65625 58.769531 38.859375 44.980469 39.472656 28.582031 C 40.085938 12.183594 53.875 -0.613281 70.273438 0 L 4.160156 0 C 5.03125 0.5 5.453125 1.523438 5.195313 2.492188 C 4.933594 3.460938 4.054688 4.136719 3.054688 4.136719 C 2.050781 4.136719 1.171875 3.460938 0.910156 2.492188 C 0.652344 1.523438 1.074219 0.5 1.945313 0 Z M 1.945313 22.515625 "/>
<path style=" stroke:none;fill-rule:nonzero;fill:rgb(0%,35.686275%,63.137255%);fill-opacity:1;" d="M 4.160156 8.4375 L 65.839844 8.4375 C 63.507813 26.621094 46.882813 39.46875 28.699219 37.140625 C 10.519531 34.808594 -2.332031 18.179688 0 0 L 0 11.859375 L 1.945313 11.859375 L 1.945313 10.617188 C -0.988281 11.152344 -3.800781 9.210938 -4.335938 6.28125 C -4.875 3.347656 -2.933594 0.535156 0 0 Z M 4.160156 8.4375 "/>
<path style=" stroke:none;fill-rule:nonzero;fill:rgb(94.901961%,94.901961%,94.901961%);fill-opacity:1;" d="M 11.9375 12.640625 L 58.101563 12.640625 C 58.703125 12.640625 59.1875 13.125 59.1875 13.726563 L 59.1875 17.226563 C 59.1875 17.828125 58.703125 18.316406 58.101563 18.316406 L 11.9375 18.316406 C 11.335938 18.316406 10.851563 17.828125 10.851563 17.226563 L 10.851563 13.726563 C 10.851563 13.125 11.335938 12.640625 11.9375 12.640625 Z M 11.9375 12.640625 "/>
<path style=" stroke:none;fill-rule:nonzero;fill:rgb(100%,100%,100%);fill-opacity:1;" d="M 25.976563 35 L 22.476563 46.667969 L 19.679688 46.667969 L 17.539063 38.890625 C 17.382813 37.097656 18.363281 35.398438 19.992188 34.640625 C 21.621094 33.878906 23.554688 34.21875 24.824219 35.492188 C 26.097656 36.761719 26.4375 38.695313 25.675781 40.324219 C 24.917969 41.953125 23.21875 42.933594 21.429688 42.777344 L 14.777344 46.667969 L 12.015625 46.667969 L 8.554688 35 L 11.316406 35 L 13.457031 43.515625 C 13.28125 41.199219 14.570313 39.019531 16.683594 38.050781 C 18.796875 37.082031 21.289063 37.527344 22.933594 39.171875 C 24.578125 40.816406 25.023438 43.308594 24.054688 45.421875 C 23.089844 47.535156 20.90625 48.824219 18.589844 48.648438 L 16.253906 35 L 18.785156 35 L 20.921875 43.554688 C 20.796875 41.003906 22.253906 38.636719 24.59375 37.597656 C 26.929688 36.5625 29.664063 37.070313 31.46875 38.878906 C 33.277344 40.6875 33.785156 43.421875 32.75 45.757813 C 31.714844 48.09375 29.347656 49.554688 26.792969 49.429688 L 23.332031 35 Z M 43.867188 35 L 40.367188 46.667969 L 37.566406 46.667969 L 35.429688 38.890625 C 38.339844 41.273438 38.765625 45.566406 36.378906 48.476563 C 33.996094 51.386719 29.703125 51.8125 26.792969 49.429688 L 24.460938 57.207031 L 21.738281 57.207031 L 18.238281 45.539063 L 21 45.539063 L 23.179688 54.054688 C 20.632813 55.136719 17.675781 54.363281 15.992188 52.167969 C 14.308594 49.972656 14.320313 46.917969 16.023438 44.738281 C 17.726563 42.558594 20.6875 41.804688 23.226563 42.910156 C 25.761719 44.015625 27.230469 46.695313 26.792969 49.429688 C 26.792969 49.117188 26.792969 48.765625 26.988281 48.417969 L 34.183594 35 L 36.671875 35 L 38.8125 43.554688 C 38.6875 41.003906 40.144531 38.636719 42.480469 37.597656 C 44.816406 36.5625 47.550781 37.070313 49.359375 38.878906 C 51.167969 40.6875 51.675781 43.421875 50.640625 45.757813 C 49.605469 48.09375 47.238281 49.554688 44.683594 49.429688 L 47.210938 40.871094 Z M 61.792969 35 L 58.332031 46.667969 L 55.535156 46.667969 L 53.316406 38.890625 C 51.878906 35.582031 52.996094 31.722656 55.976563 29.691406 C 58.953125 27.660156 62.957031 28.039063 65.507813 30.589844 C 68.054688 33.136719 68.433594 37.140625 66.402344 40.121094 C 64.375 43.101563 60.511719 44.214844 57.207031 42.777344 L 50.554688 46.667969 L 47.832031 46.667969 L 44.332031 35 L 47.132813 35 L 49.273438 43.515625 C 49.023438 41.171875 50.277344 38.925781 52.402344 37.910156 C 54.53125 36.890625 57.066406 37.328125 58.734375 38.992188 C 60.402344 40.660156 60.835938 43.199219 59.820313 45.324219 C 58.800781 47.453125 56.554688 48.707031 54.210938 48.457031 L 52.070313 35 L 54.445313 35 L 56.542969 43.554688 C 56.695313 40.214844 59.472656 37.601563 62.8125 37.652344 C 66.15625 37.703125 68.855469 40.398438 68.902344 43.742188 C 68.953125 47.082031 66.339844 49.859375 63 50.011719 L 65.683594 41.457031 Z M 61.792969 35 "/>
</g>
</svg>
