<?xml version="1.0" encoding="UTF-8"?>
<svg xmlns="http://www.w3.org/2000/svg" xmlns:xlink="http://www.w3.org/1999/xlink" width="70pt" height="70pt" viewBox="0 0 70 70" version="1.1">
<g id="surface1">
<path style=" stroke:none;fill-rule:nonzero;fill:rgb(0.392157%,36.078431%,85.490196%);fill-opacity:1;" d="M 65.625 35 C 65.625 51.914063 51.914063 65.625 35 65.625 C 18.085938 65.625 4.375 51.914063 4.375 35 C 4.375 18.085938 18.085938 4.375 35 4.375 C 51.914063 4.375 65.625 18.085938 65.625 35 Z M 65.625 35 "/>
<path style=" stroke:none;fill-rule:nonzero;fill:rgb(100%,100%,100%);fill-opacity:1;" d="M 35 4.433594 C 44.824219 13.421875 47.699219 27.738281 42.105469 39.824219 C 36.511719 51.910156 23.734375 58.980469 10.523438 57.308594 C -2.6875 55.636719 -13.296875 45.601563 -15.703125 32.503906 C -18.105469 19.40625 -11.753906 6.257813 0 0 M 35 0 C 15.703125 0 0 15.703125 0 35 C 0 54.296875 15.703125 70 35 70 C 54.296875 70 70 54.296875 70 35 C 70 15.703125 54.296875 0 35 0 Z M 35 0 "/>
<path style=" stroke:none;fill-rule:nonzero;fill:rgb(100%,100%,100%);fill-opacity:1;" d="M 40.535156 20.15625 C 40.535156 23.210938 38.054688 25.691406 35 25.691406 C 31.945313 25.691406 29.464844 23.210938 29.464844 20.15625 C 29.464844 17.097656 31.945313 14.621094 35 14.621094 C 38.054688 14.621094 40.535156 17.097656 40.535156 20.15625 Z M 40.535156 20.15625 "/>
<path style=" stroke:none;fill-rule:nonzero;fill:rgb(100%,100%,100%);fill-opacity:1;" d="M 39.203125 57.875 L 39.203125 31.128906 L 30.835938 31.128906 L 30.796875 57.875 Z M 39.203125 57.875 "/>
</g>
</svg>
