<?xml version="1.0" encoding="UTF-8"?>
<svg xmlns="http://www.w3.org/2000/svg" xmlns:xlink="http://www.w3.org/1999/xlink" width="70pt" height="70pt" viewBox="0 0 70 70" version="1.1">
<defs>
<filter id="alpha" filterUnits="objectBoundingBox" x="0%" y="0%" width="100%" height="100%">
  <feColorMatrix type="matrix" in="SourceGraphic" values="0 0 0 0 1 0 0 0 0 1 0 0 0 0 1 0 0 0 1 0"/>
</filter>
<mask id="mask0">
  <g filter="url(#alpha)">
<rect x="0" y="0" width="70" height="70" style="fill:rgb(0%,0%,0%);fill-opacity:0.8;stroke:none;"/>
  </g>
</mask>
<clipPath id="clip1">
  <rect x="0" y="0" width="70" height="70"/>
</clipPath>
<g id="surface5" clip-path="url(#clip1)">
<path style=" stroke:none;fill-rule:nonzero;fill:rgb(100%,100%,100%);fill-opacity:1;" d="M 52.695313 35.351563 C 42.933594 35.78125 34.671875 28.214844 34.242188 18.453125 C 33.8125 8.691406 41.378906 0.429688 51.140625 0 L 56.390625 13.6875 L 61.5625 0.117188 C 56.246094 0.15625 51.851563 -4.011719 51.617188 -9.324219 C 51.378906 -14.632813 55.390625 -19.175781 60.6875 -19.605469 C 65.984375 -20.035156 70.671875 -16.195313 71.292969 -10.917969 C 71.917969 -5.640625 68.25 -0.816406 63 0 Z M 52.695313 35.351563 "/>
</g>
<linearGradient id="linear0" gradientUnits="userSpaceOnUse" x1="6.7" y1="7.26" x2="6.7" y2="18.36" gradientTransform="matrix(3.888889,0,0,3.888889,0,0)">
<stop offset="0.22" style="stop-color:rgb(19.607843%,83.137255%,96.078431%);stop-opacity:1;"/>
<stop offset="1" style="stop-color:rgb(9.803922%,54.117647%,70.196078%);stop-opacity:1;"/>
</linearGradient>
<mask id="mask1">
  <g filter="url(#alpha)">
<rect x="0" y="0" width="70" height="70" style="fill:rgb(0%,0%,0%);fill-opacity:0.8;stroke:none;"/>
  </g>
</mask>
<clipPath id="clip2">
  <rect x="0" y="0" width="70" height="70"/>
</clipPath>
<g id="surface8" clip-path="url(#clip2)">
<path style=" stroke:none;fill-rule:nonzero;fill:rgb(100%,100%,100%);fill-opacity:1;" d="M 26.328125 35.542969 C 16.511719 36.1875 8.035156 28.753906 7.390625 18.9375 C 6.746094 9.125 14.179688 0.644531 23.996094 0 L 31.773438 20.417969 L 39.550781 0.15625 C 31.578125 0.136719 25.050781 -6.183594 24.777344 -14.152344 C 24.503906 -22.117188 30.582031 -28.871094 38.53125 -29.441406 C 46.480469 -30.007813 53.457031 -24.183594 54.316406 -16.261719 C 55.175781 -8.335938 49.613281 -1.152344 41.726563 0 Z M 26.328125 35.542969 "/>
</g>
<linearGradient id="linear1" gradientUnits="userSpaceOnUse" x1="6.42" y1="1.32" x2="7.23" y2="11.39" gradientTransform="matrix(3.888889,0,0,3.888889,0,0)">
<stop offset="0.22" style="stop-color:rgb(19.607843%,83.137255%,96.078431%);stop-opacity:1;"/>
<stop offset="1" style="stop-color:rgb(9.803922%,54.117647%,70.196078%);stop-opacity:1;"/>
</linearGradient>
</defs>
<g id="surface1">
<path style=" stroke:none;fill-rule:nonzero;fill:rgb(0%,47.058824%,83.137255%);fill-opacity:1;" d="M 66.964844 54.132813 C 52.019531 72.625 24.910156 75.5 6.417969 60.550781 C -12.074219 45.601563 -14.949219 18.492188 0 0 C -1.207031 -9.722656 -6.765625 -17.65625 -17.34375 -17.65625 C -27.921875 -17.65625 36.359375 39.746094 35.273438 50.554688 C 21.3125 65.171875 -1.855469 65.703125 -16.46875 51.742188 C -31.085938 37.78125 -31.617188 14.617188 -17.65625 0 L 11.238281 0 Z M 66.964844 54.132813 "/>
<use xlink:href="#surface5" mask="url(#mask0)"/>
<path style=" stroke:none;fill-rule:nonzero;fill:rgb(0%,47.058824%,83.137255%);fill-opacity:1;" d="M 62.457031 25.589844 C 62.457031 30.980469 58.085938 35.351563 52.695313 35.351563 C 47.304688 35.351563 42.933594 30.980469 42.933594 25.589844 C 42.933594 20.199219 47.304688 15.828125 52.695313 15.828125 C 58.085938 15.828125 62.457031 20.199219 62.457031 25.589844 Z M 62.457031 25.589844 "/>
<path style=" stroke:none;fill-rule:nonzero;fill:url(#linear0);" d="M 47.40625 63.621094 C 46.585938 61.582031 47.3125 59.246094 49.148438 58.035156 C 50.980469 56.820313 53.417969 57.066406 54.972656 58.621094 C 56.527344 60.179688 56.773438 62.613281 55.558594 64.445313 C 54.347656 66.28125 52.011719 67.007813 49.972656 66.1875 C 48.144531 51.644531 39.859375 39.820313 24.070313 39.820313 C 8.285156 39.820313 1.710938 42.117188 0 58.332031 C 2.167969 47.335938 12.84375 40.179688 23.839844 42.351563 C 34.835938 44.519531 41.992188 55.191406 39.820313 66.1875 L 82.988281 66.1875 Z M 47.40625 63.621094 "/>
<use xlink:href="#surface8" mask="url(#mask1)"/>
<path style=" stroke:none;fill-rule:nonzero;fill:url(#linear1);" d="M 40.792969 20.960938 C 40.792969 29.015625 34.265625 35.542969 26.210938 35.542969 C 18.15625 35.542969 11.628906 29.015625 11.628906 20.960938 C 11.628906 12.90625 18.15625 6.378906 26.210938 6.378906 C 34.265625 6.378906 40.792969 12.90625 40.792969 20.960938 Z M 40.792969 20.960938 "/>
</g>
</svg>
