<?xml version="1.0" encoding="UTF-8"?>
<svg xmlns="http://www.w3.org/2000/svg" xmlns:xlink="http://www.w3.org/1999/xlink" width="70pt" height="70pt" viewBox="0 0 70 70" version="1.1">
<defs>
<linearGradient id="linear0" gradientUnits="userSpaceOnUse" x1="10.98" y1="23.3" x2="10.98" y2="6.01" gradientTransform="matrix(3.888889,0,0,3.888889,0,0)">
<stop offset="0" style="stop-color:rgb(9.803922%,54.117647%,70.196078%);stop-opacity:1;"/>
<stop offset="0.23" style="stop-color:rgb(11.372549%,58.431373%,74.117647%);stop-opacity:1;"/>
<stop offset="0.62" style="stop-color:rgb(15.294118%,69.803922%,84.313725%);stop-opacity:1;"/>
<stop offset="1" style="stop-color:rgb(19.607843%,83.137255%,96.078431%);stop-opacity:1;"/>
</linearGradient>
<linearGradient id="linear1" gradientUnits="userSpaceOnUse" x1="7.75" y1="17.66" x2="7.75" y2="0.37" gradientTransform="matrix(3.888889,0,0,3.888889,0,0)">
<stop offset="0" style="stop-color:rgb(0%,35.686275%,63.137255%);stop-opacity:1;"/>
<stop offset="0.02" style="stop-color:rgb(0.784314%,36.862745%,63.529412%);stop-opacity:1;"/>
<stop offset="0.18" style="stop-color:rgb(4.705882%,44.705882%,66.666667%);stop-opacity:1;"/>
<stop offset="0.37" style="stop-color:rgb(7.45098%,49.803922%,68.627451%);stop-opacity:1;"/>
<stop offset="0.59" style="stop-color:rgb(9.411765%,53.333333%,69.803922%);stop-opacity:1;"/>
<stop offset="1" style="stop-color:rgb(9.803922%,54.117647%,70.196078%);stop-opacity:1;"/>
</linearGradient>
<linearGradient id="linear2" gradientUnits="userSpaceOnUse" x1="5.5" y1="23.3" x2="5.5" y2="6.01" gradientTransform="matrix(3.888889,0,0,3.888889,0,0)">
<stop offset="0" style="stop-color:rgb(9.803922%,54.117647%,70.196078%);stop-opacity:1;"/>
<stop offset="0.23" style="stop-color:rgb(11.372549%,58.431373%,74.117647%);stop-opacity:1;"/>
<stop offset="0.62" style="stop-color:rgb(15.294118%,69.803922%,84.313725%);stop-opacity:1;"/>
<stop offset="1" style="stop-color:rgb(19.607843%,83.137255%,96.078431%);stop-opacity:1;"/>
</linearGradient>
</defs>
<g id="surface1">
<path style=" stroke:none;fill-rule:nonzero;fill:url(#linear0);" d="M 54.445313 28.078125 L 53.550781 28.078125 L 51.566406 27.222656 C 52.066406 32.832031 50.699219 38.449219 47.679688 43.207031 L 48.417969 43.207031 L 48.105469 43.207031 C 51.640625 50.023438 52.039063 58.042969 49.195313 65.179688 L 50.285156 65.179688 L 49.894531 65.179688 C 53.328125 69.179688 55.472656 74.128906 56.039063 79.371094 L 56.582031 79.371094 C 104.375 86.359375 143.117188 91.148438 143.117188 90.078125 C 143.117188 89.003906 104.375 82.46875 56.582031 75.484375 L 58.332031 75.484375 C 121.113281 75.964844 171.683594 127.121094 171.441406 189.902344 C 171.199219 252.679688 120.238281 303.445313 57.457031 303.445313 C -5.320313 303.445313 -56.28125 252.679688 -56.523438 189.902344 C -56.765625 127.121094 -6.195313 75.964844 56.582031 75.484375 C 57.011719 75.484375 57.945313 74.859375 58.292969 74.394531 C 60.160156 72.101563 58.566406 59.929688 44.101563 55.804688 Z M 54.445313 28.078125 "/>
<path style=" stroke:none;fill-rule:nonzero;fill:url(#linear1);" d="M 16.878906 45.109375 C 4.421875 49.773438 -9.457031 43.453125 -14.117188 30.996094 C -18.777344 18.539063 -12.457031 4.660156 0 0 L 1.75 0 C 63.132813 0.480469 112.570313 50.503906 112.328125 111.890625 C 112.089844 173.273438 62.257813 222.90625 0.875 222.90625 C -60.507813 222.90625 -110.339844 173.273438 -110.578125 111.890625 C -110.820313 50.503906 -61.382813 0.480469 0 0 C 0.429688 0 1.359375 -0.582031 1.710938 -1.089844 C 3.5 -3.617188 1.710938 -15.789063 -12.5625 -19.910156 L -13.457031 -19.910156 C -14.117188 -20.105469 -14.777344 -20.222656 -15.4375 -20.378906 C -15.085938 -14.988281 -16.445313 -9.625 -19.328125 -5.054688 L -18.628906 -5.054688 L -18.859375 -5.054688 C -15.144531 1.828125 -14.757813 10.027344 -17.8125 17.226563 L -16.722656 17.226563 C -22.753906 18.121094 -12.460938 19.15625 6.777344 19.59375 C 26.015625 20.03125 47.558594 19.71875 55.949219 18.878906 C 64.34375 18.039063 56.691406 16.964844 38.480469 16.421875 C 20.273438 15.882813 -2.207031 16.066406 -12.832031 16.839844 C -18.691406 10.664063 -18.496094 0.929688 -12.398438 -5.007813 C -6.300781 -10.945313 3.433594 -10.882813 9.453125 -4.863281 C 15.472656 1.152344 15.535156 10.890625 9.597656 16.988281 C 3.660156 23.085938 -6.074219 23.277344 -12.25 17.421875 L -12.25 22.167969 L -12.25 21.660156 C -12.109375 4.054688 2.238281 -10.121094 19.84375 -10.050781 C 37.449219 -9.984375 51.683594 4.308594 51.683594 21.914063 C 51.683594 39.519531 37.449219 53.8125 19.84375 53.878906 C 2.238281 53.949219 -12.109375 39.769531 -12.25 22.167969 Z M 16.878906 45.109375 "/>
<path style=" stroke:none;fill-rule:nonzero;fill:url(#linear2);" d="M 16.878906 45.109375 C 12.425781 37.160156 11.578125 27.6875 14.546875 19.070313 C 17.519531 10.453125 24.027344 3.515625 32.433594 0 L 32.433594 0.503906 C 27.640625 -13.195313 32.960938 -28.386719 45.25 -36.109375 C 57.539063 -43.832031 73.535156 -42.027344 83.796875 -31.765625 C 94.0625 -21.503906 95.863281 -5.507813 88.144531 6.785156 C 80.421875 19.074219 65.226563 24.390625 51.527344 19.601563 C 61.070313 21.960938 67.351563 31.070313 66.164063 40.828125 C 64.976563 50.585938 56.691406 57.921875 46.859375 57.921875 C 37.03125 57.921875 28.746094 50.585938 27.558594 40.828125 C 26.371094 31.070313 32.652344 21.960938 42.195313 19.601563 Z M 16.878906 45.109375 "/>
<path style=" stroke:none;fill-rule:nonzero;fill:rgb(100%,100%,100%);fill-opacity:1;" d="M 43.59375 16.644531 L 48.457031 18.859375 C 44.105469 18.574219 40.355469 15.691406 38.960938 11.5625 C 37.5625 7.433594 38.792969 2.867188 42.078125 0 Z M 56.15625 38.890625 L 61.015625 41.144531 C 49.65625 42.90625 39.015625 35.121094 37.253906 23.761719 C 35.496094 12.398438 43.277344 1.761719 54.640625 0 Z M 56.15625 38.890625 "/>
</g>
</svg>
