<?xml version="1.0" encoding="UTF-8"?>
<svg xmlns="http://www.w3.org/2000/svg" xmlns:xlink="http://www.w3.org/1999/xlink" width="70pt" height="70pt" viewBox="0 0 70 70" version="1.1">
<defs>
<linearGradient id="linear0" gradientUnits="userSpaceOnUse" x1="9.01" y1="0.75" x2="9.01" y2="17.25" gradientTransform="matrix(3.888889,0,0,3.888889,0,0)">
<stop offset="0" style="stop-color:rgb(36.862745%,62.745098%,93.72549%);stop-opacity:1;"/>
<stop offset="0.18" style="stop-color:rgb(33.333333%,61.176471%,92.54902%);stop-opacity:1;"/>
<stop offset="0.47" style="stop-color:rgb(23.529412%,56.862745%,89.803922%);stop-opacity:1;"/>
<stop offset="0.84" style="stop-color:rgb(7.45098%,50.196078%,85.490196%);stop-opacity:1;"/>
<stop offset="1" style="stop-color:rgb(0%,47.058824%,83.137255%);stop-opacity:1;"/>
</linearGradient>
</defs>
<g id="surface1">
<path style=" stroke:none;fill-rule:nonzero;fill:rgb(0%,47.058824%,83.137255%);fill-opacity:1;" d="M 63.621094 32.667969 C 63.621094 51.488281 40.871094 66.65625 35.933594 69.726563 C 16.679688 69.726563 1.070313 54.117188 1.070313 34.863281 C 1.070313 15.609375 16.679688 0 35.933594 0 C 30.996094 -3.070313 8.246094 -18.238281 8.246094 -37.0625 L 8.246094 10.035156 C 5.472656 22.542969 -6.914063 30.441406 -19.425781 27.667969 C -31.9375 24.898438 -39.832031 12.511719 -37.0625 0 C 25.820313 7.777344 21.738281 0 35 0 C 48.261719 0 44.179688 7.777344 61.871094 8.246094 C 59.59375 25.328125 43.898438 37.335938 26.8125 35.058594 C 9.726563 32.78125 -2.277344 17.085938 0 0 Z M 63.621094 32.667969 "/>
<path style=" stroke:none;fill-rule:nonzero;fill:rgb(41.960784%,72.54902%,94.901961%);fill-opacity:1;" d="M 61.25 32.859375 C 61.25 50.128906 40.40625 63.972656 35.855469 66.851563 C 17.394531 66.851563 2.429688 51.886719 2.429688 33.425781 C 2.429688 14.964844 17.394531 0 35.855469 0 C 31.304688 -2.800781 10.460938 -16.722656 10.460938 -33.988281 L 10.460938 12.09375 C 7.121094 24.367188 -5.535156 31.613281 -17.8125 28.273438 C -30.085938 24.933594 -37.328125 12.273438 -33.988281 0 C 26.5625 10.035156 22.828125 2.917969 35 2.917969 C 47.171875 2.917969 43.4375 10.035156 59.65625 10.460938 C 56.765625 26.128906 41.722656 36.488281 26.054688 33.601563 C 10.386719 30.710938 0.0273438 15.667969 2.917969 0 Z M 61.25 32.859375 "/>
<path style=" stroke:none;fill-rule:nonzero;fill:url(#linear0);" d="M 35 35 L 35 2.917969 C 47.171875 2.917969 43.4375 10.035156 59.65625 10.460938 C 56.765625 24.046875 43.414063 32.714844 29.828125 29.828125 C 16.242188 26.9375 7.574219 13.585938 10.460938 0 L 10.460938 20.765625 C 5.867188 27.816406 -2.820313 31.007813 -10.886719 28.613281 C -18.953125 26.214844 -24.488281 18.800781 -24.488281 10.382813 C -24.488281 1.964844 -18.953125 -5.449219 -10.886719 -7.847656 C -2.820313 -10.242188 5.867188 -7.050781 10.460938 0 Z M 35 35 L 8.867188 35 C 10.421875 51.253906 29.789063 64.167969 34.144531 66.851563 C 15.683594 57.820313 8.039063 35.53125 17.070313 17.070313 C 26.105469 -1.386719 48.390625 -9.03125 66.851563 0 L 35 0 Z M 35 35 "/>
<path style=" stroke:none;fill-rule:nonzero;fill:rgb(31.372549%,90.196078%,100%);fill-opacity:1;" d="M 10.34375 10.460938 C 26.5625 10.035156 22.828125 2.917969 35 2.917969 L 35 35 L 8.867188 35 C 1.566406 39.328125 -7.714844 38.296875 -13.886719 32.472656 C -20.058594 26.648438 -21.621094 17.441406 -17.722656 9.902344 C -13.824219 2.367188 -5.402344 -1.671875 2.917969 0 L 2.917969 12.132813 C -0.433594 12.132813 -3.148438 9.417969 -3.148438 6.066406 C -3.148438 2.714844 -0.433594 0 2.917969 0 Z M 61.132813 35 L 35 35 L 35 67.082031 C 16.476563 75.941406 -5.722656 68.109375 -14.582031 49.582031 C -23.441406 31.058594 -15.609375 8.859375 2.917969 0 C 7.429688 -2.683594 26.792969 -15.59375 28.351563 -31.851563 Z M 61.132813 35 "/>
</g>
</svg>
