<?xml version="1.0" encoding="UTF-8"?>
<svg xmlns="http://www.w3.org/2000/svg" xmlns:xlink="http://www.w3.org/1999/xlink" width="70pt" height="61pt" viewBox="0 0 70 61" version="1.1">
<g id="surface1">
<path style=" stroke:none;fill-rule:nonzero;fill:rgb(0%,0%,0%);fill-opacity:1;" d="M 32.8125 0 C 48.59375 7.617188 57 25.082031 53.078125 42.101563 C 49.15625 59.125 33.945313 71.191406 16.40625 71.191406 C -1.132813 71.191406 -16.34375 59.125 -20.265625 42.101563 C -24.1875 25.082031 -15.78125 7.617188 0 0 L 4.8125 1.742188 L 70 1.742188 L 70 34.855469 L 55.5625 34.855469 L 51.625 35.730469 L 48.125 37.90625 L 26.6875 59.257813 L 24.9375 60.5625 L 21 60.5625 L 19.25 59.257813 L 17.9375 57.515625 C 24.339844 57.996094 29.140625 63.554688 28.65625 69.933594 C 28.171875 76.308594 22.589844 81.089844 16.1875 80.605469 L 18.375 75.8125 C 25.816406 62.902344 42.132813 58.089844 55.4375 64.886719 C 68.738281 71.679688 74.335938 87.683594 68.148438 101.238281 C 61.960938 114.792969 46.175781 121.113281 32.289063 115.601563 C 18.402344 110.089844 11.3125 94.683594 16.1875 80.605469 L 3.9375 80.605469 L 1.75 78.863281 L 0.4375 76.6875 C 2.710938 75.285156 5.660156 75.652344 7.519531 77.566406 C 9.375 79.484375 9.644531 82.429688 8.160156 84.644531 C 6.675781 86.863281 3.84375 87.75 1.351563 86.777344 C -1.136719 85.804688 -2.609375 83.238281 -2.1875 80.605469 L 6.5625 54.464844 C 6.210938 51.160156 7.988281 47.992188 11 46.558594 C 14.011719 45.128906 17.601563 45.742188 19.960938 48.089844 C 22.320313 50.441406 22.9375 54.015625 21.5 57.015625 C 20.0625 60.015625 16.882813 61.785156 13.5625 61.4375 Z M 65.625 8.714844 L 54.6875 8.714844 C 65.859375 -1.617188 82.191406 -4.214844 96.039063 2.144531 C 109.882813 8.5 118.511719 22.546875 117.882813 37.71875 C 117.253906 52.890625 107.492188 66.1875 93.164063 71.382813 C 78.839844 76.578125 62.777344 72.652344 52.5 61.4375 L 14 61.4375 L 13.125 62.742188 C 13.824219 62.257813 14.554688 61.820313 15.3125 61.4375 L 14 64.484375 L 12.6875 68.84375 C 1.308594 82.085938 -18.433594 84.273438 -32.460938 73.847656 C -46.484375 63.425781 -49.996094 43.953125 -40.488281 29.320313 C -30.980469 14.6875 -11.710938 9.898438 3.585938 18.371094 C 18.882813 26.839844 24.964844 45.671875 17.5 61.4375 L 16.1875 65.792969 L 14.875 69.714844 C 14.679688 66.648438 15.789063 63.640625 17.9375 61.4375 L 17.9375 62.742188 C 17.605469 64.015625 16.375 64.847656 15.066406 64.683594 C 13.753906 64.515625 12.769531 63.40625 12.769531 62.089844 C 12.769531 60.773438 13.753906 59.660156 15.066406 59.496094 C 16.375 59.328125 17.605469 60.160156 17.9375 61.4375 L 26.25 61.4375 L 26.25 64.921875 C 26.25 65.792969 25.8125 66.664063 25.8125 67.972656 C 25.257813 65.117188 26.800781 62.273438 29.5 61.167969 C 32.199219 60.066406 35.304688 61.011719 36.921875 63.425781 C 38.539063 65.84375 38.222656 69.0625 36.160156 71.121094 C 34.097656 73.175781 30.867188 73.5 28.4375 71.894531 L 27.125 76.25 C 28.226563 74.480469 29.722656 72.988281 31.5 71.894531 L 33.25 71.894531 L 45.0625 34.855469 L 47.25 33.113281 L 49.875 31.808594 C 60.988281 36.859375 65.886719 49.929688 60.8125 61 C 55.738281 72.070313 42.613281 76.945313 31.5 71.894531 L 65.625 71.894531 Z M 65.625 8.714844 "/>
</g>
</svg>
