<?xml version="1.0" encoding="UTF-8"?>
<svg xmlns="http://www.w3.org/2000/svg" xmlns:xlink="http://www.w3.org/1999/xlink" width="70pt" height="70pt" viewBox="0 0 70 70" version="1.1">
<defs>
<linearGradient id="linear0" gradientUnits="userSpaceOnUse" x1="9" y1="16.007" x2="9" y2="5.707" gradientTransform="matrix(3.888889,0,0,3.888889,0,0)">
<stop offset="0" style="stop-color:rgb(19.607843%,74.509804%,86.666667%);stop-opacity:1;"/>
<stop offset="0.175" style="stop-color:rgb(19.607843%,79.215686%,91.764706%);stop-opacity:1;"/>
<stop offset="0.41" style="stop-color:rgb(19.607843%,82.352941%,94.901961%);stop-opacity:1;"/>
<stop offset="0.775" style="stop-color:rgb(19.607843%,83.137255%,96.078431%);stop-opacity:1;"/>
</linearGradient>
</defs>
<g id="surface1">
<path style=" stroke:none;fill-rule:nonzero;fill:url(#linear0);" d="M 1.109375 22.195313 L 68.890625 22.195313 L 68.890625 61.394531 C 51.9375 61.15625 38.386719 47.222656 38.621094 30.269531 C 38.859375 13.316406 52.792969 -0.234375 69.746094 0 L 1.964844 0 C 2.300781 0.195313 2.460938 0.589844 2.363281 0.960938 C 2.261719 1.335938 1.921875 1.597656 1.535156 1.597656 C 1.148438 1.597656 0.808594 1.335938 0.710938 0.960938 C 0.609375 0.589844 0.773438 0.195313 1.109375 0 Z M 1.109375 22.195313 "/>
<path style=" stroke:none;fill-rule:nonzero;fill:rgb(0%,47.058824%,83.137255%);fill-opacity:1;" d="M 1.980469 7.75 L 68.019531 7.75 C 65.878906 26.535156 48.917969 40.027344 30.136719 37.886719 C 11.351563 35.746094 -2.140625 18.785156 0 0 L 0 13.585938 L 1.125 13.585938 L 1.125 8.605469 C -1.253906 8.917969 -3.429688 7.242188 -3.742188 4.863281 C -4.050781 2.488281 -2.375 0.308594 0 0 Z M 1.980469 7.75 "/>
<path style=" stroke:none;fill-rule:nonzero;fill:rgb(0%,47.058824%,83.137255%);fill-opacity:1;" d="M 55.738281 39.738281 C 55.738281 42.777344 53.273438 45.242188 50.234375 45.242188 C 47.191406 45.242188 44.726563 42.777344 44.726563 39.738281 C 44.726563 36.695313 47.191406 34.230469 50.234375 34.230469 C 53.273438 34.230469 55.738281 36.695313 55.738281 39.738281 Z M 55.738281 39.738281 "/>
<path style=" stroke:none;fill-rule:nonzero;fill:rgb(0%,47.058824%,83.137255%);fill-opacity:1;" d="M 40.730469 39.738281 C 40.730469 42.777344 38.265625 45.242188 35.226563 45.242188 C 32.183594 45.242188 29.71875 42.777344 29.71875 39.738281 C 29.71875 36.695313 32.183594 34.230469 35.226563 34.230469 C 38.265625 34.230469 40.730469 36.695313 40.730469 39.738281 Z M 40.730469 39.738281 "/>
<path style=" stroke:none;fill-rule:nonzero;fill:rgb(0%,47.058824%,83.137255%);fill-opacity:1;" d="M 25.273438 39.738281 C 25.273438 42.777344 22.808594 45.242188 19.765625 45.242188 C 16.726563 45.242188 14.261719 42.777344 14.261719 39.738281 C 14.261719 36.695313 16.726563 34.230469 19.765625 34.230469 C 22.808594 34.230469 25.273438 36.695313 25.273438 39.738281 Z M 25.273438 39.738281 "/>
<path style=" stroke:none;fill-rule:nonzero;fill:rgb(94.901961%,94.901961%,94.901961%);fill-opacity:1;" d="M 10.65625 12.0625 L 59.339844 12.0625 C 59.578125 12.0625 59.769531 12.253906 59.769531 12.492188 L 59.769531 17.453125 C 59.769531 17.691406 59.578125 17.882813 59.339844 17.882813 L 10.65625 17.882813 C 10.417969 17.882813 10.226563 17.691406 10.226563 17.453125 L 10.226563 12.492188 C 10.226563 12.253906 10.417969 12.0625 10.65625 12.0625 Z M 10.65625 12.0625 "/>
</g>
</svg>
