<?xml version="1.0" encoding="UTF-8"?>
<svg xmlns="http://www.w3.org/2000/svg" xmlns:xlink="http://www.w3.org/1999/xlink" width="70pt" height="70pt" viewBox="0 0 70 70" version="1.1">
<defs>
<linearGradient id="linear0" gradientUnits="userSpaceOnUse" x1="9" y1="1.48" x2="9" y2="17.07" gradientTransform="matrix(3.888889,0,0,3.888889,0,0)">
<stop offset="0" style="stop-color:rgb(46.27451%,73.72549%,17.647059%);stop-opacity:1;"/>
<stop offset="0.32" style="stop-color:rgb(45.098039%,72.156863%,17.254902%);stop-opacity:1;"/>
<stop offset="0.65" style="stop-color:rgb(42.352941%,67.058824%,16.078431%);stop-opacity:1;"/>
<stop offset="0.99" style="stop-color:rgb(36.862745%,59.215686%,14.117647%);stop-opacity:1;"/>
<stop offset="1" style="stop-color:rgb(36.862745%,58.823529%,14.117647%);stop-opacity:1;"/>
</linearGradient>
<filter id="alpha" filterUnits="objectBoundingBox" x="0%" y="0%" width="100%" height="100%">
  <feColorMatrix type="matrix" in="SourceGraphic" values="0 0 0 0 1 0 0 0 0 1 0 0 0 0 1 0 0 0 1 0"/>
</filter>
<mask id="mask0">
  <g filter="url(#alpha)">
<rect x="0" y="0" width="70" height="70" style="fill:rgb(0%,0%,0%);fill-opacity:0.901961;stroke:none;"/>
  </g>
</mask>
<clipPath id="clip1">
  <rect x="0" y="0" width="70" height="70"/>
</clipPath>
<g id="surface5" clip-path="url(#clip1)">
<path style=" stroke:none;fill-rule:nonzero;fill:rgb(100%,100%,100%);fill-opacity:1;" d="M 35.273438 18.707031 C 30.105469 28.445313 18.023438 32.152344 8.285156 26.988281 C -1.457031 21.824219 -5.164063 9.738281 0 0 C -1.761719 0 -3.1875 1.425781 -3.1875 3.1875 C -3.1875 4.949219 -1.761719 6.378906 0 6.378906 C 1.761719 6.378906 3.1875 4.949219 3.1875 3.1875 Z M 32.082031 56.621094 C 30.320313 56.621094 28.894531 58.050781 28.894531 59.8125 C 28.894531 61.574219 30.320313 63 32.082031 63 C 33.84375 63 35.273438 61.574219 35.273438 59.8125 Z M 35.351563 46.121094 C 39.128906 46.144531 42.175781 49.226563 42.15625 53.003906 C 42.132813 56.785156 39.050781 59.832031 35.273438 59.8125 L 29.632813 60.898438 C 24.457031 60.441406 20.410156 56.242188 20.144531 51.050781 C 19.878906 45.863281 23.476563 41.269531 28.578125 40.285156 C 33.679688 39.300781 38.726563 42.222656 40.410156 47.136719 C 42.097656 52.054688 39.90625 57.457031 35.273438 59.8125 C 41.84375 59.8125 46.589844 56.351563 46.589844 51.527344 C 46.71875 55.960938 43.242188 59.664063 38.8125 59.8125 C 36.207031 59.1875 34.535156 57.75 34.535156 55.921875 C 35.605469 50.015625 41.265625 46.097656 47.171875 47.171875 C 53.078125 48.246094 56.996094 53.90625 55.921875 59.8125 L 60.785156 58.253906 C 65.777344 58.003906 70.183594 61.496094 71.082031 66.414063 C 71.976563 71.335938 69.082031 76.15625 64.320313 77.679688 C 59.558594 79.203125 54.402344 76.957031 52.277344 72.433594 C 50.148438 67.90625 51.710938 62.503906 55.921875 59.8125 C 51.332031 59.8125 46.003906 61.832031 46.003906 67.589844 C 46.003906 74.628906 50.320313 76.027344 56.464844 77.234375 C 57.90625 77.503906 61.25 78.476563 61.25 81.121094 C 61.09375 82.601563 59.8125 84.738281 56.273438 84.738281 Z M 35.351563 46.121094 "/>
</g>
</defs>
<g id="surface1">
<path style=" stroke:none;fill-rule:nonzero;fill:url(#linear0);" d="M 48.027344 5.753906 L 21.972656 5.753906 C 22.292969 3.332031 23.734375 1.199219 25.859375 0 L 2.253906 32.199219 C -6.636719 25.679688 -8.558594 13.1875 -2.042969 4.296875 C 4.476563 -4.59375 16.96875 -6.519531 25.859375 0 L 38.851563 22.515625 C 32.632813 26.101563 24.683594 23.96875 21.097656 17.753906 C 17.511719 11.535156 19.644531 3.585938 25.859375 0 L 51.917969 0 C 51.917969 7.195313 46.082031 13.027344 38.890625 13.027344 C 31.695313 13.027344 25.859375 7.195313 25.859375 0 L 38.851563 -22.515625 C 45.066406 -18.929688 47.199219 -10.980469 43.613281 -4.765625 C 40.027344 1.453125 32.078125 3.585938 25.859375 0 L 12.871094 -22.554688 C 19.101563 -21.480469 23.28125 -15.5625 22.207031 -9.332031 C 21.132813 -3.105469 15.210938 1.074219 8.984375 0 Z M 48.027344 5.753906 "/>
<use xlink:href="#surface5" mask="url(#mask0)"/>
</g>
</svg>
