<?xml version="1.0" encoding="UTF-8"?>
<svg xmlns="http://www.w3.org/2000/svg" xmlns:xlink="http://www.w3.org/1999/xlink" width="70pt" height="70pt" viewBox="0 0 70 70" version="1.1">
<g id="surface1">
<path style=" stroke:none;fill-rule:nonzero;fill:rgb(0%,0%,0%);fill-opacity:1;" d="M 17.0625 47.6875 L 4.15625 47.6875 L 4.15625 4.375 L 40.03125 4.375 L 40.03125 24.0625 C 38.625 35.746094 29.4375 44.964844 17.757813 46.40625 C 6.078125 47.851563 -5.078125 41.144531 -9.28125 30.152344 C -13.488281 19.164063 -9.65625 6.722656 0 0 L -0.21875 0 L -0.21875 52.0625 L 17.9375 52.0625 C 8.1875 64.65625 -8.289063 69.976563 -23.5625 65.460938 C -38.835938 60.945313 -49.773438 47.519531 -51.105469 31.648438 C -52.4375 15.777344 -43.898438 0.71875 -29.59375 -6.285156 C -15.285156 -13.285156 1.847656 -10.789063 13.5625 0 Z M 17.0625 47.6875 "/>
<path style=" stroke:none;fill-rule:nonzero;fill:rgb(0%,0%,0%);fill-opacity:1;" d="M 9.1875 9.84375 L 35.4375 9.84375 L 35.4375 14.21875 L 9.1875 14.21875 Z M 9.1875 20.78125 L 35.4375 20.78125 L 35.4375 25.15625 L 9.1875 25.15625 Z M 62.34375 66.28125 L 49.21875 53.8125 C 34.359375 67.402344 11.292969 66.375 -2.296875 51.515625 C -15.886719 36.65625 -14.859375 13.589844 0 0 C 5.082031 -2.335938 11.019531 -1.808594 15.605469 1.390625 C 20.195313 4.589844 22.746094 9.976563 22.3125 15.554688 L 37.40625 15.554688 L 49.875 28.679688 C 49.875 27.46875 50.855469 26.492188 52.0625 26.492188 C 53.269531 26.492188 54.25 27.46875 54.25 28.679688 C 54.25 29.886719 53.269531 30.867188 52.0625 30.867188 Z M 28.875 52.0625 C 28.832031 47.449219 31.582031 43.269531 35.832031 41.484375 C 40.085938 39.699219 44.996094 40.664063 48.253906 43.925781 C 51.515625 47.1875 52.480469 52.097656 50.695313 56.347656 C 48.910156 60.601563 44.730469 63.351563 40.117188 63.304688 L 40.117188 93.273438 C 42.390625 77.214844 47.804688 66.796875 52.214844 70.003906 C 56.621094 73.210938 58.359375 88.832031 56.085938 104.890625 Z M 28.875 52.0625 "/>
</g>
</svg>
