<?xml version="1.0" encoding="UTF-8"?>
<svg xmlns="http://www.w3.org/2000/svg" xmlns:xlink="http://www.w3.org/1999/xlink" width="70pt" height="70pt" viewBox="0 0 70 70" version="1.1">
<defs>
<linearGradient id="linear0" gradientUnits="userSpaceOnUse" x1="5.055" y1="-1401.772" x2="5.055" y2="-1395.802" gradientTransform="matrix(3.888889,0,0,-3.888889,0,-5411.941111)">
<stop offset="0" style="stop-color:rgb(19.607843%,74.509804%,86.666667%);stop-opacity:1;"/>
<stop offset="0.18" style="stop-color:rgb(19.607843%,79.215686%,91.764706%);stop-opacity:1;"/>
<stop offset="0.41" style="stop-color:rgb(19.607843%,82.352941%,94.901961%);stop-opacity:1;"/>
<stop offset="0.78" style="stop-color:rgb(19.607843%,83.137255%,96.078431%);stop-opacity:1;"/>
</linearGradient>
<linearGradient id="linear1" gradientUnits="userSpaceOnUse" x1="9" y1="-1404.702" x2="9" y2="-1398.732" gradientTransform="matrix(3.888889,0,0,-3.888889,0,-5411.941111)">
<stop offset="0" style="stop-color:rgb(19.607843%,74.509804%,86.666667%);stop-opacity:1;"/>
<stop offset="0.18" style="stop-color:rgb(19.607843%,79.215686%,91.764706%);stop-opacity:1;"/>
<stop offset="0.41" style="stop-color:rgb(19.607843%,82.352941%,94.901961%);stop-opacity:1;"/>
<stop offset="0.78" style="stop-color:rgb(19.607843%,83.137255%,96.078431%);stop-opacity:1;"/>
</linearGradient>
<linearGradient id="linear2" gradientUnits="userSpaceOnUse" x1="12.945" y1="-1407.632" x2="12.945" y2="-1401.662" gradientTransform="matrix(3.888889,0,0,-3.888889,0,-5411.941111)">
<stop offset="0" style="stop-color:rgb(19.607843%,74.509804%,86.666667%);stop-opacity:1;"/>
<stop offset="0.18" style="stop-color:rgb(19.607843%,79.215686%,91.764706%);stop-opacity:1;"/>
<stop offset="0.41" style="stop-color:rgb(19.607843%,82.352941%,94.901961%);stop-opacity:1;"/>
<stop offset="0.78" style="stop-color:rgb(19.607843%,83.137255%,96.078431%);stop-opacity:1;"/>
</linearGradient>
</defs>
<g id="surface1">
<path style=" stroke:none;fill-rule:nonzero;fill:url(#linear0);" d="M 0 16.179688 L 39.316406 16.179688 L 39.316406 38.109375 C 28.792969 37.746094 20.558594 28.917969 20.921875 18.394531 C 21.289063 7.871094 30.113281 -0.363281 40.640625 0 L 1.320313 0 C 1.320313 -10.855469 10.125 -19.660156 20.980469 -19.660156 C 31.835938 -19.660156 40.640625 -10.855469 40.640625 0 L 40.640625 16.179688 Z M 0 16.179688 "/>
<path style=" stroke:none;fill-rule:nonzero;fill:rgb(46.27451%,46.27451%,46.27451%);fill-opacity:1;" d="M 1.320313 7.777344 L 37.996094 7.777344 C 35.847656 18.269531 25.601563 25.035156 15.109375 22.886719 C 4.617188 20.738281 -2.148438 10.492188 0 0 L 0 9.101563 C -2.511719 9.101563 -4.550781 7.0625 -4.550781 4.550781 C -4.550781 2.035156 -2.511719 0 0 0 Z M 1.320313 7.777344 "/>
<path style=" stroke:none;fill-rule:nonzero;fill:rgb(94.901961%,94.901961%,94.901961%);fill-opacity:1;" d="M 5.949219 10.304688 L 33.367188 10.304688 C 33.730469 10.304688 34.027344 10.601563 34.027344 10.964844 L 34.027344 13.027344 C 34.027344 13.394531 33.730469 13.6875 33.367188 13.6875 L 5.949219 13.6875 C 5.585938 13.6875 5.289063 13.394531 5.289063 13.027344 L 5.289063 10.964844 C 5.289063 10.601563 5.585938 10.304688 5.949219 10.304688 Z M 5.949219 10.304688 "/>
<path style=" stroke:none;fill-rule:nonzero;fill:url(#linear1);" d="M 15.320313 27.535156 L 54.679688 27.535156 L 54.679688 49.464844 C 41.019531 49.101563 30.242188 37.730469 30.605469 24.070313 C 30.96875 10.414063 42.339844 -0.363281 56 0 L 16.644531 0 C 17.164063 0.300781 17.414063 0.910156 17.261719 1.488281 C 17.105469 2.066406 16.582031 2.46875 15.984375 2.46875 C 15.386719 2.46875 14.859375 2.066406 14.707031 1.488281 C 14.550781 0.910156 14.804688 0.300781 15.320313 0 Z M 15.320313 27.535156 "/>
<path style=" stroke:none;fill-rule:nonzero;fill:rgb(46.27451%,46.27451%,46.27451%);fill-opacity:1;" d="M 16.644531 19.171875 L 53.316406 19.171875 C 48.023438 33.894531 31.796875 41.539063 17.070313 36.246094 C 2.347656 30.949219 -5.292969 14.722656 0 0 L 0 7.039063 L 15.359375 7.039063 L 15.359375 20.496094 C 9.703125 24.734375 1.675781 23.585938 -2.566406 17.929688 C -6.808594 12.269531 -5.660156 4.242188 0 0 Z M 16.644531 19.171875 "/>
<path style=" stroke:none;fill-rule:nonzero;fill:rgb(94.901961%,94.901961%,94.901961%);fill-opacity:1;" d="M 21.273438 21.699219 L 48.6875 21.699219 C 49.054688 21.699219 49.351563 21.996094 49.351563 22.359375 L 49.351563 24.421875 C 49.351563 24.789063 49.054688 25.082031 48.6875 25.082031 L 21.273438 25.082031 C 20.90625 25.082031 20.609375 24.789063 20.609375 24.421875 L 20.609375 22.359375 C 20.609375 21.996094 20.90625 21.699219 21.273438 21.699219 Z M 21.273438 21.699219 "/>
<path style=" stroke:none;fill-rule:nonzero;fill:url(#linear2);" d="M 30.683594 38.964844 L 70 38.964844 L 70 60.898438 C 53.183594 60.535156 39.847656 46.605469 40.210938 29.789063 C 40.578125 12.972656 54.503906 -0.363281 71.320313 0 L 32.003906 0 C 32.523438 0.300781 32.777344 0.910156 32.621094 1.488281 C 32.464844 2.066406 31.941406 2.46875 31.34375 2.46875 C 30.746094 2.46875 30.222656 2.066406 30.066406 1.488281 C 29.914063 0.910156 30.164063 0.300781 30.683594 0 Z M 30.683594 38.964844 "/>
<path style=" stroke:none;fill-rule:nonzero;fill:rgb(46.27451%,46.27451%,46.27451%);fill-opacity:1;" d="M 32.003906 30.566406 L 68.679688 30.566406 C 60.238281 49.53125 38.019531 58.0625 19.054688 49.621094 C 0.0898438 41.179688 -8.441406 18.964844 0 0 L 0 7.078125 L 30.683594 7.078125 L 30.683594 31.890625 C 21.878906 40.363281 7.871094 40.09375 -0.601563 31.285156 C -9.074219 22.480469 -8.804688 8.472656 0 0 Z M 32.003906 30.566406 "/>
<path style=" stroke:none;fill-rule:nonzero;fill:rgb(94.901961%,94.901961%,94.901961%);fill-opacity:1;" d="M 62.378906 49.15625 C 62.378906 50.917969 60.949219 52.34375 59.1875 52.34375 C 57.425781 52.34375 56 50.917969 56 49.15625 C 56 47.394531 57.425781 45.964844 59.1875 45.964844 C 60.949219 45.964844 62.378906 47.394531 62.378906 49.15625 Z M 62.378906 49.15625 "/>
<path style=" stroke:none;fill-rule:nonzero;fill:rgb(94.901961%,94.901961%,94.901961%);fill-opacity:1;" d="M 53.667969 49.15625 C 53.667969 50.917969 52.238281 52.34375 50.476563 52.34375 C 48.714844 52.34375 47.289063 50.917969 47.289063 49.15625 C 47.289063 47.394531 48.714844 45.964844 50.476563 45.964844 C 52.238281 45.964844 53.667969 47.394531 53.667969 49.15625 Z M 53.667969 49.15625 "/>
<path style=" stroke:none;fill-rule:nonzero;fill:rgb(94.901961%,94.901961%,94.901961%);fill-opacity:1;" d="M 44.683594 49.15625 C 44.683594 50.917969 43.253906 52.34375 41.496094 52.34375 C 39.734375 52.34375 38.304688 50.917969 38.304688 49.15625 C 38.304688 47.394531 39.734375 45.964844 41.496094 45.964844 C 43.253906 45.964844 44.683594 47.394531 44.683594 49.15625 Z M 44.683594 49.15625 "/>
<path style=" stroke:none;fill-rule:nonzero;fill:rgb(94.901961%,94.901961%,94.901961%);fill-opacity:1;" d="M 36.632813 33.09375 L 64.050781 33.09375 C 64.414063 33.09375 64.710938 33.390625 64.710938 33.753906 L 64.710938 35.816406 C 64.710938 36.183594 64.414063 36.476563 64.050781 36.476563 L 36.632813 36.476563 C 36.269531 36.476563 35.972656 36.183594 35.972656 35.816406 L 35.972656 33.753906 C 35.972656 33.390625 36.269531 33.09375 36.632813 33.09375 Z M 36.632813 33.09375 "/>
</g>
</svg>
