<?xml version="1.0" encoding="UTF-8"?>
<svg xmlns="http://www.w3.org/2000/svg" xmlns:xlink="http://www.w3.org/1999/xlink" width="70pt" height="70pt" viewBox="0 0 70 70" version="1.1">
<defs>
<radialGradient id="radial0" gradientUnits="userSpaceOnUse" cx="46.42" cy="43.21" fx="46.42" fy="43.21" r="9" gradientTransform="matrix(3.655556,0,0,3.655556,-135.488889,-123.705556)">
<stop offset="0.18" style="stop-color:rgb(36.862745%,62.745098%,93.72549%);stop-opacity:1;"/>
<stop offset="0.56" style="stop-color:rgb(36.078431%,62.352941%,93.333333%);stop-opacity:1;"/>
<stop offset="0.69" style="stop-color:rgb(33.333333%,61.176471%,92.941176%);stop-opacity:1;"/>
<stop offset="0.78" style="stop-color:rgb(29.019608%,59.215686%,91.372549%);stop-opacity:1;"/>
<stop offset="0.86" style="stop-color:rgb(22.352941%,56.470588%,89.411765%);stop-opacity:1;"/>
<stop offset="0.93" style="stop-color:rgb(13.72549%,52.941176%,87.058824%);stop-opacity:1;"/>
<stop offset="0.99" style="stop-color:rgb(3.137255%,48.235294%,83.921569%);stop-opacity:1;"/>
<stop offset="1" style="stop-color:rgb(0%,47.058824%,83.137255%);stop-opacity:1;"/>
</radialGradient>
<clipPath id="clip1">
  <path d="M 34 17 L 51 17 L 51 47 L 34 47 Z M 34 17 "/>
</clipPath>
<clipPath id="clip2">
  <path d="M 41.144531 32.433594 L 50.554688 42.464844 C 38.828125 56.425781 18.003906 58.238281 4.042969 46.511719 C -9.917969 34.785156 -11.726563 13.960938 0 0 L -1.828125 1.90625 C -2.355469 1.90625 -2.78125 1.480469 -2.78125 0.953125 C -2.78125 0.425781 -2.355469 0 -1.828125 0 L 35 32.433594 C 26.042969 42.601563 10.539063 43.585938 0.371094 34.628906 C -9.800781 25.675781 -10.785156 10.167969 -1.828125 0 L 10.421875 -12.910156 C 6.855469 -16.292969 1.222656 -16.144531 -2.160156 -12.582031 C -5.542969 -9.015625 -5.394531 -3.382813 -1.828125 0 L 0 1.90625 C -0.527344 2.410156 -1.363281 2.394531 -1.867188 1.867188 C -2.371094 1.339844 -2.355469 0.503906 -1.828125 0 L 41.144531 31.109375 C 32.554688 42.976563 15.96875 45.632813 4.101563 37.042969 C -7.765625 28.449219 -10.417969 11.867188 -1.828125 0 Z M 41.144531 32.433594 "/>
</clipPath>
<clipPath id="clip3">
  <path d="M 37 31 L 51 31 L 51 47 L 37 47 Z M 37 31 "/>
</clipPath>
<clipPath id="clip4">
  <path d="M 41.144531 32.433594 L 50.554688 42.464844 C 38.828125 56.425781 18.003906 58.238281 4.042969 46.511719 C -9.917969 34.785156 -11.726563 13.960938 0 0 L -1.828125 1.90625 C -2.355469 1.90625 -2.78125 1.480469 -2.78125 0.953125 C -2.78125 0.425781 -2.355469 0 -1.828125 0 L 35 32.433594 C 26.042969 42.601563 10.539063 43.585938 0.371094 34.628906 C -9.800781 25.675781 -10.785156 10.167969 -1.828125 0 L 10.421875 -12.910156 C 6.855469 -16.292969 1.222656 -16.144531 -2.160156 -12.582031 C -5.542969 -9.015625 -5.394531 -3.382813 -1.828125 0 L 0 1.90625 C -0.527344 2.410156 -1.363281 2.394531 -1.867188 1.867188 C -2.371094 1.339844 -2.355469 0.503906 -1.828125 0 L 41.144531 31.109375 C 32.554688 42.976563 15.96875 45.632813 4.101563 37.042969 C -7.765625 28.449219 -10.417969 11.867188 -1.828125 0 Z M 41.144531 32.433594 "/>
</clipPath>
<clipPath id="clip5">
  <path d="M 17 23 L 31 23 L 31 51 L 17 51 Z M 17 23 "/>
</clipPath>
<clipPath id="clip6">
  <path d="M 27.648438 38.539063 L 18.199219 48.535156 C 4.796875 53.558594 -10.140625 46.769531 -15.167969 33.367188 C -20.191406 19.964844 -13.402344 5.027344 0 0 L 1.828125 1.90625 C 2.355469 1.402344 2.371094 0.566406 1.867188 0.0390625 C 1.363281 -0.488281 0.527344 -0.503906 0 0 L 12.445313 -13.105469 C 16.0625 -9.667969 16.210938 -3.949219 12.773438 -0.332031 C 9.339844 3.289063 3.617188 3.4375 0 0 L 21.390625 24.460938 C 14.632813 24.460938 9.160156 18.984375 9.160156 12.230469 C 9.160156 5.476563 14.632813 0 21.390625 0 L 19.5625 1.90625 C 19.035156 1.402344 19.015625 0.566406 19.523438 0.0390625 C 20.027344 -0.488281 20.863281 -0.503906 21.390625 0 L 30.644531 9.839844 C 27.925781 12.394531 23.652344 12.265625 21.097656 9.546875 C 18.542969 6.832031 18.671875 2.554688 21.390625 0 Z M 27.648438 38.539063 "/>
</clipPath>
<clipPath id="clip7">
  <path d="M 17 37 L 31 37 L 31 51 L 17 51 Z M 17 37 "/>
</clipPath>
<clipPath id="clip8">
  <path d="M 27.648438 38.539063 L 18.199219 48.535156 C 4.796875 53.558594 -10.140625 46.769531 -15.167969 33.367188 C -20.191406 19.964844 -13.402344 5.027344 0 0 L 1.828125 1.90625 C 2.355469 1.402344 2.371094 0.566406 1.867188 0.0390625 C 1.363281 -0.488281 0.527344 -0.503906 0 0 L 12.445313 -13.105469 C 16.0625 -9.667969 16.210938 -3.949219 12.773438 -0.332031 C 9.339844 3.289063 3.617188 3.4375 0 0 L 21.390625 24.460938 C 14.632813 24.460938 9.160156 18.984375 9.160156 12.230469 C 9.160156 5.476563 14.632813 0 21.390625 0 L 19.5625 1.90625 C 19.035156 1.402344 19.015625 0.566406 19.523438 0.0390625 C 20.027344 -0.488281 20.863281 -0.503906 21.390625 0 L 30.644531 9.839844 C 27.925781 12.394531 23.652344 12.265625 21.097656 9.546875 C 18.542969 6.832031 18.671875 2.554688 21.390625 0 Z M 27.648438 38.539063 "/>
</clipPath>
</defs>
<g id="surface1">
<path style=" stroke:none;fill-rule:nonzero;fill:url(#radial0);" d="M 68.054688 35 C 68.054688 53.257813 53.257813 68.054688 35 68.054688 C 16.742188 68.054688 1.945313 53.257813 1.945313 35 C 1.945313 16.742188 16.742188 1.945313 35 1.945313 C 53.257813 1.945313 68.054688 16.742188 68.054688 35 Z M 68.054688 35 "/>
<path style=" stroke:none;fill-rule:nonzero;fill:rgb(100%,100%,100%);fill-opacity:1;" d="M 63.777344 35 C 63.777344 50.894531 50.894531 63.777344 35 63.777344 C 19.105469 63.777344 6.222656 50.894531 6.222656 35 C 6.222656 19.105469 19.105469 6.222656 35 6.222656 C 50.894531 6.222656 63.777344 19.105469 63.777344 35 Z M 63.777344 35 "/>
<g clip-path="url(#clip1)" clip-rule="nonzero">
<g clip-path="url(#clip2)" clip-rule="nonzero">
<path style=" stroke:none;fill-rule:nonzero;fill:rgb(36.862745%,58.823529%,14.117647%);fill-opacity:1;" d="M 40.5625 31.851563 L 51.179688 43.050781 L 48.183594 46.160156 L 34.570313 31.851563 L 47.988281 17.734375 L 50.984375 20.84375 Z M 40.5625 31.851563 "/>
</g>
</g>
<g clip-path="url(#clip3)" clip-rule="nonzero">
<g clip-path="url(#clip4)" clip-rule="nonzero">
<path style=" stroke:none;fill-rule:nonzero;fill:rgb(52.54902%,83.921569%,20%);fill-opacity:1;" d="M 51.179688 43.050781 L 40.5625 31.851563 L 37.605469 34.960938 L 48.183594 46.160156 Z M 51.179688 43.050781 "/>
</g>
</g>
<g clip-path="url(#clip5)" clip-rule="nonzero">
<g clip-path="url(#clip6)" clip-rule="nonzero">
<path style=" stroke:none;fill-rule:nonzero;fill:rgb(36.862745%,58.823529%,14.117647%);fill-opacity:1;" d="M 28.234375 37.957031 L 17.65625 49.15625 L 20.609375 52.265625 L 34.222656 37.957031 L 20.804688 23.839844 L 17.8125 26.949219 Z M 28.234375 37.957031 "/>
</g>
</g>
<g clip-path="url(#clip7)" clip-rule="nonzero">
<g clip-path="url(#clip8)" clip-rule="nonzero">
<path style=" stroke:none;fill-rule:nonzero;fill:rgb(52.54902%,83.921569%,20%);fill-opacity:1;" d="M 17.65625 49.15625 L 28.234375 37.957031 L 31.1875 41.066406 L 20.609375 52.265625 Z M 17.65625 49.15625 "/>
</g>
</g>
</g>
</svg>
