<?xml version="1.0" encoding="UTF-8"?>
<svg xmlns="http://www.w3.org/2000/svg" xmlns:xlink="http://www.w3.org/1999/xlink" width="70pt" height="70pt" viewBox="0 0 70 70" version="1.1">
<defs>
<linearGradient id="linear0" gradientUnits="userSpaceOnUse" x1="9" y1="11.95" x2="9" y2="0" gradientTransform="matrix(3.888889,0,0,3.888889,0,0)">
<stop offset="0" style="stop-color:rgb(0%,47.058824%,83.137255%);stop-opacity:1;"/>
<stop offset="0.16" style="stop-color:rgb(7.45098%,50.196078%,85.490196%);stop-opacity:1;"/>
<stop offset="0.53" style="stop-color:rgb(23.529412%,56.862745%,89.803922%);stop-opacity:1;"/>
<stop offset="0.82" style="stop-color:rgb(33.333333%,61.176471%,92.54902%);stop-opacity:1;"/>
<stop offset="1" style="stop-color:rgb(36.862745%,62.745098%,93.72549%);stop-opacity:1;"/>
</linearGradient>
<filter id="alpha" filterUnits="objectBoundingBox" x="0%" y="0%" width="100%" height="100%">
  <feColorMatrix type="matrix" in="SourceGraphic" values="0 0 0 0 1 0 0 0 0 1 0 0 0 0 1 0 0 0 1 0"/>
</filter>
<mask id="mask0">
  <g filter="url(#alpha)">
<rect x="0" y="0" width="70" height="70" style="fill:rgb(0%,0%,0%);fill-opacity:0.74902;stroke:none;"/>
  </g>
</mask>
<clipPath id="clip1">
  <rect x="0" y="0" width="70" height="70"/>
</clipPath>
<g id="surface5" clip-path="url(#clip1)">
<path style=" stroke:none;fill-rule:nonzero;fill:rgb(71.764706%,47.843137%,95.686275%);fill-opacity:1;" d="M 26.910156 42.464844 L 26.910156 65.0625 L 33.015625 66.035156 L 33.015625 41.417969 Z M 19.367188 43.710938 L 19.367188 63.464844 L 24.695313 64.554688 L 24.695313 42.816406 Z M 19.367188 43.710938 "/>
</g>
</defs>
<g id="surface1">
<path style=" stroke:none;fill-rule:nonzero;fill:url(#linear0);" d="M 67.785156 31.929688 C 58.964844 35.835938 48.652344 31.859375 44.742188 23.042969 C 40.832031 14.226563 44.8125 3.910156 53.628906 0 C 60.984375 2.75 65.90625 9.726563 66.035156 17.578125 L 98.351563 17.578125 C 98.351563 26.5 91.117188 33.734375 82.191406 33.734375 C 73.269531 33.734375 66.035156 26.5 66.035156 17.578125 Z M 67.785156 31.929688 "/>
<path style=" stroke:none;fill-rule:nonzero;fill:rgb(94.901961%,94.901961%,94.901961%);fill-opacity:1;" d="M 24.734375 25.121094 L 35 15.050781 C 39.15625 5.386719 34.691406 -5.820313 25.023438 -9.976563 C 15.359375 -14.132813 4.15625 -9.664063 0 0 L 46.667969 25.121094 C 39.730469 24.875 34.304688 19.050781 34.554688 12.113281 C 34.800781 5.175781 40.625 -0.246094 47.5625 0 L 41.261719 0 C 41.429688 -0.0898438 41.636719 -0.0898438 41.804688 0 L 41.804688 12.601563 C 38.324219 12.480469 35.601563 9.566406 35.71875 6.085938 C 35.835938 2.605469 38.753906 -0.117188 42.234375 0 L 32.238281 0 C 32.40625 0.0976563 32.488281 0.292969 32.4375 0.480469 C 32.386719 0.667969 32.21875 0.796875 32.023438 0.796875 C 31.832031 0.796875 31.660156 0.667969 31.613281 0.480469 C 31.5625 0.292969 31.644531 0.0976563 31.8125 0 L 31.8125 26.5625 C 24.476563 26.710938 18.410156 20.886719 18.257813 13.554688 C 18.109375 6.21875 23.933594 0.148438 31.265625 0 L 25.042969 0 C 25.15625 0.210938 25.101563 0.476563 24.917969 0.628906 C 24.730469 0.78125 24.464844 0.78125 24.277344 0.628906 C 24.089844 0.476563 24.039063 0.210938 24.148438 0 Z M 24.734375 25.121094 "/>
<path style=" stroke:none;fill-rule:nonzero;fill:rgb(65.098039%,47.843137%,95.686275%);fill-opacity:1;" d="M 54.445313 44.214844 C 42.234375 44.355469 32.222656 34.570313 32.082031 22.359375 C 31.945313 10.152344 41.730469 0.140625 53.9375 0 L 35.621094 37.527344 L 35 37.527344 L 35 70 L 35.503906 70 L 53.820313 62.6875 C 36.511719 62.65625 22.503906 48.597656 22.535156 31.285156 C 22.566406 13.976563 36.628906 -0.03125 53.9375 0 Z M 54.445313 44.214844 "/>
<path style=" stroke:none;fill-rule:nonzero;fill:rgb(33.333333%,18.431373%,60%);fill-opacity:1;" d="M 35 37.644531 L 17.460938 40.871094 C 6.175781 40.734375 -2.863281 31.46875 -2.722656 20.183594 C -2.582031 8.898438 6.679688 -0.140625 17.964844 0 L 17.964844 24.226563 C 11.277344 24.226563 5.851563 18.804688 5.851563 12.113281 C 5.851563 5.421875 11.277344 0 17.964844 0 L 35 70 C 15.671875 74.703125 -3.8125 62.847656 -8.515625 43.515625 C -13.21875 24.1875 -1.363281 4.703125 17.964844 0 L 17.964844 -31.109375 C 26.558594 -31.109375 33.523438 -24.148438 33.523438 -15.554688 C 33.523438 -6.964844 26.558594 0 17.964844 0 Z M 35 37.644531 "/>
<use xlink:href="#surface5" mask="url(#mask0)"/>
</g>
</svg>
