<?xml version="1.0" encoding="UTF-8"?>
<svg xmlns="http://www.w3.org/2000/svg" xmlns:xlink="http://www.w3.org/1999/xlink" width="70pt" height="70pt" viewBox="0 0 70 70" version="1.1">
<defs>
<radialGradient id="radial0" gradientUnits="userSpaceOnUse" cx="-3179.5" cy="28295.77" fx="-3179.5" fy="28295.77" r="40.52" gradientTransform="matrix(0.505556,0,0,0.505556,1694.505556,-14720.144444)">
<stop offset="0.18" style="stop-color:rgb(36.862745%,62.745098%,93.72549%);stop-opacity:1;"/>
<stop offset="0.56" style="stop-color:rgb(36.078431%,62.352941%,93.333333%);stop-opacity:1;"/>
<stop offset="0.69" style="stop-color:rgb(33.333333%,61.176471%,92.941176%);stop-opacity:1;"/>
<stop offset="0.78" style="stop-color:rgb(29.019608%,59.215686%,91.372549%);stop-opacity:1;"/>
<stop offset="0.86" style="stop-color:rgb(22.352941%,56.470588%,89.411765%);stop-opacity:1;"/>
<stop offset="0.93" style="stop-color:rgb(13.72549%,52.941176%,87.058824%);stop-opacity:1;"/>
<stop offset="0.99" style="stop-color:rgb(3.137255%,48.235294%,83.921569%);stop-opacity:1;"/>
<stop offset="1" style="stop-color:rgb(0%,47.058824%,83.137255%);stop-opacity:1;"/>
</radialGradient>
</defs>
<g id="surface1">
<path style=" stroke:none;fill-rule:nonzero;fill:url(#radial0);" d="M 57.632813 35 C 57.632813 46.664063 48.179688 56.117188 36.515625 56.117188 C 24.855469 56.117188 15.398438 46.664063 15.398438 35 C 15.398438 23.335938 24.855469 13.882813 36.515625 13.882813 C 48.179688 13.882813 57.632813 23.335938 57.632813 35 Z M 57.632813 35 "/>
<path style=" stroke:none;fill-rule:nonzero;fill:rgb(100%,100%,100%);fill-opacity:1;" d="M 54.988281 35 C 54.988281 45.160156 46.753906 53.394531 36.59375 53.394531 C 26.433594 53.394531 18.199219 45.160156 18.199219 35 C 18.199219 24.839844 26.433594 16.605469 36.59375 16.605469 C 46.753906 16.605469 54.988281 24.839844 54.988281 35 Z M 54.988281 35 "/>
<path style=" stroke:none;fill-rule:nonzero;fill:rgb(47.843137%,47.843137%,47.843137%);fill-opacity:1;" d="M 45.160156 25.714844 L 47.390625 23.488281 L 48.105469 24.199219 L 45.878906 26.429688 Z M 49.078125 34.496094 L 52.226563 34.496094 L 52.226563 35.503906 L 49.078125 35.503906 Z M 44.988281 44.109375 L 45.703125 43.390625 L 47.929688 45.621094 L 47.214844 46.335938 Z M 36.089844 47.40625 L 37.101563 47.40625 L 37.101563 50.554688 L 36.089844 50.554688 Z M 25 24.117188 L 25.71875 23.402344 L 27.945313 25.632813 L 27.230469 26.347656 Z M 25.144531 45.726563 L 27.375 43.5 L 28.089844 44.214844 L 25.859375 46.441406 Z M 20.804688 34.496094 L 23.957031 34.496094 L 23.957031 35.503906 L 20.804688 35.503906 Z M 44.214844 40.679688 L 38.890625 35.3125 C 29.136719 46.050781 12.527344 46.851563 1.789063 37.101563 C -8.949219 27.347656 -9.75 10.738281 0 0 L 0 20.726563 C -5.722656 20.726563 -10.363281 16.085938 -10.363281 10.363281 C -10.363281 4.640625 -5.722656 0 0 0 L -0.273438 0 C 0.125 -0.230469 0.613281 -0.230469 1.011719 0 L 1.011719 13.609375 C -2.746094 13.609375 -5.792969 10.5625 -5.792969 6.804688 C -5.792969 3.046875 -2.746094 0 1.011719 0 L 1.207031 0 C 1.140625 0.00390625 1.074219 0.00390625 1.011719 0 L 6.417969 5.445313 C 5.707031 5.445313 5.132813 6.019531 5.132813 6.726563 C 5.132813 7.4375 5.707031 8.011719 6.417969 8.011719 C 7.125 8.011719 7.699219 7.4375 7.699219 6.726563 Z M 44.214844 40.679688 "/>
<path style=" stroke:none;fill-rule:nonzero;fill:rgb(30.980392%,30.980392%,30.980392%);fill-opacity:1;" d="M 39.628906 35 C 39.628906 36.652344 38.289063 37.996094 36.632813 37.996094 C 34.980469 37.996094 33.640625 36.652344 33.640625 35 C 33.640625 33.347656 34.980469 32.003906 36.632813 32.003906 C 38.289063 32.003906 39.628906 33.347656 39.628906 35 Z M 39.628906 35 "/>
<path style=" stroke:none;fill-rule:nonzero;fill:rgb(58.039216%,58.039216%,58.039216%);fill-opacity:1;" d="M 1.945313 58.644531 C -14.25 59.179688 -27.8125 46.488281 -28.351563 30.292969 C -28.886719 14.101563 -16.195313 0.535156 0 0 L 4.511719 2.527344 L 14.390625 66.109375 C -3.867188 70.085938 -21.886719 58.507813 -25.859375 40.25 C -29.835938 21.992188 -18.257813 3.972656 0 0 L 2.566406 -4.355469 C 3.769531 -4.128906 4.5625 -2.972656 4.335938 -1.769531 C 4.109375 -0.566406 2.953125 0.226563 1.75 0 L -7.195313 -5.054688 C -5.796875 -4.90625 -4.789063 -3.652344 -4.9375 -2.253906 C -5.089844 -0.859375 -6.34375 0.148438 -7.738281 0 L -7.738281 14.972656 C -11.875 14.972656 -15.226563 11.621094 -15.226563 7.484375 C -15.226563 3.351563 -11.875 0 -7.738281 0 L 1.207031 -5.054688 C 2.601563 -2.585938 1.730469 0.546875 -0.738281 1.945313 C -3.207031 3.339844 -6.34375 2.46875 -7.738281 0 L -10.304688 -4.355469 C -9.101563 -5.0625 -7.554688 -4.664063 -6.84375 -3.460938 C -6.136719 -2.257813 -6.535156 -0.707031 -7.738281 0 L 6.921875 8.207031 L 2.253906 10.8125 C -0.730469 10.660156 -3.027344 8.117188 -2.878906 5.132813 C -2.726563 2.148438 -0.183594 -0.148438 2.800781 0 L 2.800781 47.289063 Z M 1.945313 58.644531 "/>
<path style=" stroke:none;fill-rule:nonzero;fill:rgb(63.921569%,63.921569%,63.921569%);fill-opacity:1;" d="M 8.320313 14.660156 L 8.554688 14.429688 L 17.5 9.371094 C 14.910156 14.203125 8.894531 16.023438 4.0625 13.4375 C -0.769531 10.847656 -2.589844 4.832031 0 0 L 15.167969 4.199219 C 14.007813 8.386719 9.671875 10.84375 5.484375 9.683594 C 1.296875 8.523438 -1.160156 4.1875 0 0 L 6.804688 8.207031 L 2.179688 10.8125 C 2.179688 10.8125 1.984375 10.8125 1.945313 11.042969 L 5.445313 13.027344 Z M 17.5 60.628906 L 8.554688 55.570313 C -6.789063 55.667969 -19.308594 43.308594 -19.40625 27.960938 C -19.503906 12.617188 -7.140625 0.0976563 8.207031 0 L 1.90625 3.890625 L 2.101563 3.890625 L 6.570313 6.417969 L 14.351563 10.734375 C 11.386719 12.429688 7.609375 11.402344 5.910156 8.4375 C 4.214844 5.476563 5.242188 1.695313 8.207031 0 L 10.773438 -4.355469 C 11.976563 -4.152344 12.785156 -3.011719 12.582031 -1.808594 C 12.375 -0.605469 11.234375 0.203125 10.035156 0 Z M 17.5 60.628906 "/>
<path style=" stroke:none;fill-rule:nonzero;fill:rgb(58.039216%,58.039216%,58.039216%);fill-opacity:1;" d="M 68.09375 58.644531 C 51.898438 58.492188 38.894531 45.246094 39.042969 29.050781 C 39.195313 12.855469 52.445313 -0.148438 68.640625 0 L 64.128906 2.527344 L 56.351563 6.84375 C 54.460938 6.910156 52.875 5.429688 52.8125 3.539063 C 52.746094 1.648438 54.226563 0.0625 56.117188 0 L 53.550781 -4.355469 C 54.753906 -5.0625 56.300781 -4.664063 57.011719 -3.460938 C 57.71875 -2.257813 57.320313 -0.707031 56.117188 0 L 65.0625 -5.054688 C 66.457031 -2.585938 65.585938 0.546875 63.117188 1.945313 C 60.648438 3.339844 57.511719 2.46875 56.117188 0 L 56.117188 14.972656 C 51.980469 15.121094 48.507813 11.894531 48.359375 7.757813 C 48.207031 3.625 51.4375 0.148438 55.570313 0 L 46.628906 -5.054688 C 48.023438 -4.828125 48.972656 -3.515625 48.746094 -2.121094 C 48.523438 -0.722656 47.207031 0.226563 45.8125 0 L 48.378906 -4.355469 C 49.582031 -3.648438 49.980469 -2.097656 49.273438 -0.894531 C 48.5625 0.308594 47.015625 0.707031 45.8125 0 L 53.277344 4.238281 L 57.945313 6.84375 C 56.054688 10.195313 51.804688 11.378906 48.457031 9.488281 C 45.105469 7.597656 43.921875 3.351563 45.8125 0 L 45.8125 47.367188 Z M 68.09375 58.644531 "/>
<path style=" stroke:none;fill-rule:nonzero;fill:rgb(63.921569%,63.921569%,63.921569%);fill-opacity:1;" d="M 61.714844 14.660156 L 61.484375 14.429688 L 52.539063 9.371094 C 49.949219 9.597656 47.671875 7.683594 47.445313 5.09375 C 47.21875 2.507813 49.132813 0.226563 51.722656 0 L 54.289063 -4.355469 C 55.492188 -3.648438 55.890625 -2.097656 55.183594 -0.894531 C 54.472656 0.308594 52.925781 0.707031 51.722656 0 L 59.226563 4.238281 L 63.855469 6.84375 C 63.855469 6.84375 64.050781 6.84375 64.089844 7.078125 L 60.589844 9.0625 Z M 52.539063 60.628906 L 61.484375 55.570313 C 46.136719 58.269531 31.511719 48.011719 28.816406 32.667969 C 26.121094 17.320313 36.375 2.695313 51.722656 0 L 58.023438 3.890625 L 57.828125 3.890625 L 53.355469 6.417969 L 45.578125 10.734375 C 42.613281 10.796875 40.160156 8.445313 40.09375 5.484375 C 40.03125 2.519531 42.378906 0.0625 45.34375 0 L 42.777344 -4.355469 C 43.980469 -5.0625 45.53125 -4.664063 46.238281 -3.460938 C 46.949219 -2.257813 46.546875 -0.707031 45.34375 0 Z M 52.539063 60.628906 "/>
<path style=" stroke:none;fill-rule:nonzero;fill:rgb(46.27451%,73.72549%,17.647059%);fill-opacity:1;" d="M 30.878906 13.027344 C 27.28125 13.351563 24.101563 10.695313 23.78125 7.097656 C 23.457031 3.5 26.113281 0.320313 29.710938 0 L 28.390625 1.789063 C 27.894531 1.421875 27.789063 0.726563 28.15625 0.234375 C 28.519531 -0.261719 29.21875 -0.363281 29.710938 0 L 37.023438 0.503906 C 36.882813 2.523438 35.132813 4.046875 33.113281 3.910156 C 31.09375 3.769531 29.570313 2.019531 29.710938 0 L 26.640625 -6.378906 C 28.398438 -6.378906 29.828125 -4.949219 29.828125 -3.1875 C 29.828125 -1.425781 28.398438 0 26.640625 0 L 25.898438 1.011719 C 19.070313 9.777344 6.472656 11.4375 -2.394531 4.746094 C -11.265625 -1.945313 -13.121094 -14.519531 -6.566406 -23.488281 C -0.0117188 -32.460938 12.53125 -34.511719 21.601563 -28.09375 C 30.671875 -21.675781 32.914063 -9.167969 26.640625 0 C 18.851563 -8.777344 19.449219 -22.152344 27.988281 -30.199219 C 36.53125 -38.242188 49.917969 -38.042969 58.214844 -29.746094 C 66.511719 -21.449219 66.710938 -8.0625 58.664063 0.476563 C 50.617188 9.015625 37.242188 9.617188 28.464844 1.828125 Z M 30.878906 13.027344 "/>
</g>
</svg>
