<?xml version="1.0" encoding="UTF-8"?>
<svg xmlns="http://www.w3.org/2000/svg" xmlns:xlink="http://www.w3.org/1999/xlink" width="70pt" height="70pt" viewBox="0 0 70 70" version="1.1">
<defs>
<linearGradient id="linear0" gradientUnits="userSpaceOnUse" x1="9" y1="177.9" x2="9" y2="160.1" gradientTransform="matrix(3.888889,0,0,3.888889,0,-622.222222)">
<stop offset="0" style="stop-color:rgb(0%,47.058824%,83.137255%);stop-opacity:1;"/>
<stop offset="0.064" style="stop-color:rgb(3.921569%,48.627451%,84.313725%);stop-opacity:1;"/>
<stop offset="0.338" style="stop-color:rgb(18.039216%,54.901961%,88.235294%);stop-opacity:1;"/>
<stop offset="0.594" style="stop-color:rgb(28.235294%,59.215686%,91.372549%);stop-opacity:1;"/>
<stop offset="0.822" style="stop-color:rgb(34.509804%,61.960784%,92.941176%);stop-opacity:1;"/>
<stop offset="1" style="stop-color:rgb(36.862745%,62.745098%,93.72549%);stop-opacity:1;"/>
</linearGradient>
<linearGradient id="linear1" gradientUnits="userSpaceOnUse" x1="-26.189" y1="-295.6" x2="-26.189" y2="-311.105" gradientTransform="matrix(4.495556,0,0,4.001667,153.319444,1250.705556)">
<stop offset="0" style="stop-color:rgb(99.607843%,63.137255%,10.588235%);stop-opacity:1;"/>
<stop offset="0.284" style="stop-color:rgb(99.607843%,64.705882%,10.196078%);stop-opacity:1;"/>
<stop offset="0.547" style="stop-color:rgb(99.607843%,69.019608%,9.411765%);stop-opacity:1;"/>
<stop offset="0.8" style="stop-color:rgb(100%,76.470588%,7.843137%);stop-opacity:1;"/>
<stop offset="1" style="stop-color:rgb(100%,84.313725%,5.882353%);stop-opacity:1;"/>
</linearGradient>
</defs>
<g id="surface1">
<path style=" stroke:none;fill-rule:nonzero;fill:url(#linear0);" d="M 69.609375 38.890625 L 69.609375 31.109375 L 68.445313 30.722656 L 59.890625 28 L 57.554688 22.554688 L 62.222656 13.222656 L 56.390625 7.777344 L 55.222656 8.167969 L 47.445313 12.054688 L 42 9.722656 L 38.890625 0.390625 L 31.109375 0.390625 L 30.332031 1.554688 L 27.609375 10.109375 L 22.167969 12.054688 L 13.222656 7.777344 L 7.777344 13.609375 L 8.167969 14.777344 L 12.054688 22.554688 L 10.109375 28 L 0.390625 31.109375 L 0.390625 38.890625 L 1.554688 39.277344 L 10.109375 42 L 12.445313 47.445313 L 7.777344 56.777344 L 13.609375 62.222656 L 14.777344 61.832031 L 22.554688 57.945313 L 28 60.277344 L 31.109375 69.609375 L 38.890625 69.609375 L 39.277344 68.445313 L 42 59.890625 L 47.445313 57.554688 L 56.390625 61.832031 L 61.832031 56.390625 L 61.445313 55.222656 L 57.554688 47.445313 L 59.890625 42 Z M 35 50.167969 C 25.273438 55.707031 12.898438 52.3125 7.359375 42.582031 C 1.820313 32.855469 5.214844 20.480469 14.941406 14.941406 L 0 439.054688 C 5.660156 436.066406 14.230469 434.375 23.707031 434.375 C 33.1875 434.375 42.75 436.066406 50.167969 439.054688 Z M 35 50.167969 "/>
<path style=" stroke:none;fill-rule:nonzero;fill:url(#linear1);" d="M 33.054688 40.832031 L 19.054688 40.832031 C 7.78125 41.046875 -1.535156 32.082031 -1.75 20.804688 C -1.964844 9.53125 7.003906 0.214844 18.277344 0 L 18.277344 -0.390625 L 35 6.609375 C 35 6.222656 35.390625 6.222656 35.777344 6.222656 L 52.109375 6.222656 C 50.394531 18.894531 38.726563 27.773438 26.054688 26.054688 C 13.382813 24.335938 4.503906 12.671875 6.222656 0 L 6.222656 0.390625 L 33.054688 33.445313 L 52.109375 33.445313 C 51.933594 33.078125 52.046875 32.636719 52.378906 32.398438 C 52.710938 32.164063 53.167969 32.199219 53.457031 32.488281 C 53.742188 32.777344 53.78125 33.230469 53.546875 33.566406 C 53.308594 33.898438 52.867188 34.011719 52.5 33.832031 L 20.609375 66.890625 C 20.222656 66.890625 18.277344 68.832031 19.054688 66.109375 Z M 33.054688 40.832031 "/>
</g>
</svg>
