<?xml version="1.0" encoding="UTF-8"?>
<svg xmlns="http://www.w3.org/2000/svg" xmlns:xlink="http://www.w3.org/1999/xlink" width="70pt" height="70pt" viewBox="0 0 70 70" version="1.1">
<g id="surface1">
<path style=" stroke:none;fill-rule:nonzero;fill:rgb(0%,0%,0%);fill-opacity:1;" d="M 35 7.65625 L 10.9375 19.6875 L 10.9375 50.3125 L 35 62.34375 L 59.0625 50.3125 L 59.0625 19.6875 Z M 35 12.554688 L 53.636719 21.875 L 35 31.195313 L 16.363281 21.875 Z M 15.3125 26.25 L 32.8125 35 L 32.8125 56.351563 L 15.3125 47.601563 Z M 54.6875 47.601563 L 37.1875 56.351563 L 37.1875 35 L 54.6875 26.25 Z M 24.0625 0 L 2.1875 0 L 2.1875 21.875 L 6.5625 21.875 L 6.5625 4.375 L 24.0625 4.375 Z M 45.9375 70 L 67.8125 70 L 67.8125 48.125 L 63.4375 48.125 L 63.4375 65.625 L 45.9375 65.625 Z M 67.8125 21.875 L 67.8125 0 L 45.9375 0 L 45.9375 4.375 L 63.4375 4.375 L 63.4375 21.875 Z M 2.1875 48.125 L 2.1875 70 L 24.0625 70 L 24.0625 65.625 L 6.5625 65.625 L 6.5625 48.125 Z M 2.1875 48.125 "/>
</g>
</svg>
