<?xml version="1.0" encoding="UTF-8"?>
<svg xmlns="http://www.w3.org/2000/svg" xmlns:xlink="http://www.w3.org/1999/xlink" width="65pt" height="70pt" viewBox="0 0 65 70" version="1.1">
<g id="surface1">
<path style=" stroke:none;fill-rule:nonzero;fill:rgb(0%,0%,0%);fill-opacity:1;" d="M 34.667969 43.75 C 22.699219 53.414063 5.238281 51.457031 -4.332031 39.375 C -13.90625 27.292969 -11.964844 9.664063 0 0 L 30.332031 39.375 C 34.464844 32.042969 43.097656 28.609375 51.070313 31.125 C 59.046875 33.636719 64.207031 41.421875 63.472656 49.824219 C 62.738281 58.222656 56.304688 64.972656 48.019531 66.039063 C 39.730469 67.105469 31.828125 62.199219 29.035156 54.25 L 43.765625 69.125 C 42.546875 61.445313 46.371094 53.847656 53.230469 50.3125 C 60.089844 46.777344 68.425781 48.105469 73.871094 53.605469 C 79.320313 59.101563 80.636719 67.519531 77.132813 74.445313 C 73.628906 81.371094 66.105469 85.230469 58.5 84 L 58.5 133 C 57.28125 125.320313 61.101563 117.722656 67.964844 114.1875 C 74.824219 110.652344 83.160156 111.980469 88.605469 117.480469 C 94.050781 122.976563 95.371094 131.394531 91.867188 138.320313 C 88.363281 145.246094 80.839844 149.105469 73.234375 147.875 L 73.234375 156.1875 C 68.386719 155.28125 65.023438 150.796875 65.472656 145.84375 C 65.921875 140.890625 70.039063 137.097656 74.964844 137.097656 C 79.894531 137.097656 84.011719 140.890625 84.460938 145.84375 C 84.910156 150.796875 81.546875 155.28125 76.699219 156.1875 L 81.464844 155.3125 L 81.464844 21.875 C 82 28.53125 78.828125 34.9375 73.234375 38.5 C 67.609375 53.964844 50.632813 61.898438 35.316406 56.21875 C 20 50.539063 12.140625 33.402344 17.765625 17.9375 C 21.023438 22.851563 21.671875 29.070313 19.5 34.5625 L 35.964844 51.1875 C 35.792969 42.085938 41.109375 33.789063 49.40625 30.222656 C 57.703125 26.660156 67.3125 28.539063 73.691406 34.976563 C 80.066406 41.414063 81.929688 51.117188 78.398438 59.492188 C 74.867188 67.867188 66.648438 73.238281 57.632813 73.0625 L 61.101563 77.4375 L 65.867188 80.9375 L 57.632813 85.3125 C 54.519531 100.714844 40.355469 111.238281 24.863281 109.65625 C 9.371094 108.078125 -2.421875 94.910156 -2.421875 79.1875 C -2.421875 63.464844 9.371094 50.296875 24.863281 48.71875 C 40.355469 47.136719 54.519531 57.660156 57.632813 73.0625 C 60.21875 72.691406 62.847656 72.691406 65.433594 73.0625 L 69.765625 73.0625 C 87.972656 74.242188 101.96875 89.800781 101.382813 108.210938 C 100.796875 126.621094 85.84375 141.242188 67.601563 141.242188 C 49.355469 141.242188 34.402344 126.621094 33.816406 108.210938 C 33.230469 89.800781 47.226563 74.242188 65.433594 73.0625 L 68.035156 66.5 L 71.933594 61.25 L 77.132813 57.3125 L 83.632813 54.6875 L 30.332031 43.75 Z M 54.167969 32.8125 L 58.5 33.6875 L 61.964844 35.875 C 62.207031 27.535156 69.011719 20.925781 77.273438 21.007813 C 85.535156 21.085938 92.214844 27.828125 92.292969 36.171875 C 92.371094 44.511719 85.824219 51.382813 77.566406 51.625 L 77.566406 56 L 75.832031 58.625 L 73.667969 61.25 L 71.5 63 L 69.765625 65.1875 C 68.507813 63.734375 68.0625 61.734375 68.589844 59.878906 C 69.113281 58.023438 70.535156 56.5625 72.367188 56 L 72.367188 58.1875 L 68.035156 58.1875 L 68.035156 56 C 64.054688 54.902344 61.492188 51.003906 62.039063 46.878906 C 62.585938 42.75 66.074219 39.667969 70.199219 39.667969 C 74.324219 39.667969 77.8125 42.75 78.359375 46.878906 C 78.90625 51.003906 76.347656 54.902344 72.367188 56 L 74.101563 53.375 L 76.265625 50.75 L 78.433594 49 L 80.167969 46.8125 C 80.167969 43.671875 82.6875 41.125 85.800781 41.125 C 88.910156 41.125 91.433594 43.671875 91.433594 46.8125 C 91.433594 49.953125 88.910156 52.5 85.800781 52.5 L 84.5 50.3125 L 82.332031 49 L 77.132813 49 L 74.964844 50.3125 L 73.667969 52.5 C 74.519531 52.296875 75.410156 52.296875 76.265625 52.5 L 71.933594 52.5 C 71.757813 46.054688 75.492188 40.152344 81.359375 37.601563 C 87.226563 35.050781 94.042969 36.371094 98.558594 40.929688 C 103.074219 45.492188 104.382813 52.371094 101.855469 58.292969 C 99.332031 64.21875 93.484375 67.988281 87.101563 67.8125 L 90.566406 65.625 Z M 52 65.625 L 56.332031 65.625 L 56.332031 70 L 52 70 Z M 52 65.625 "/>
</g>
</svg>
