<?xml version="1.0" encoding="UTF-8"?>
<svg xmlns="http://www.w3.org/2000/svg" xmlns:xlink="http://www.w3.org/1999/xlink" width="70pt" height="70pt" viewBox="0 0 70 70" version="1.1">
<defs>
<linearGradient id="linear0" gradientUnits="userSpaceOnUse" x1="13.8" y1="4.27" x2="13.8" y2="9.34" gradientTransform="matrix(3.888889,0,0,-3.888889,0,77.777778)">
<stop offset="0" style="stop-color:rgb(0%,47.058824%,83.137255%);stop-opacity:1;"/>
<stop offset="0.16" style="stop-color:rgb(7.45098%,50.196078%,85.490196%);stop-opacity:1;"/>
<stop offset="0.53" style="stop-color:rgb(23.529412%,56.862745%,89.803922%);stop-opacity:1;"/>
<stop offset="0.82" style="stop-color:rgb(33.333333%,61.176471%,92.54902%);stop-opacity:1;"/>
<stop offset="1" style="stop-color:rgb(36.862745%,62.745098%,93.72549%);stop-opacity:1;"/>
</linearGradient>
</defs>
<g id="surface1">
<path style=" stroke:none;fill-rule:nonzero;fill:rgb(58.039216%,58.039216%,58.039216%);fill-opacity:1;" d="M 51.449219 9.683594 L 51.449219 28.503906 L 35.3125 37.957031 L 35.3125 19.09375 Z M 51.449219 9.683594 "/>
<path style=" stroke:none;fill-rule:nonzero;fill:rgb(70.196078%,70.196078%,70.196078%);fill-opacity:1;" d="M 51.449219 9.683594 L 35.3125 19.132813 L 19.171875 9.683594 L 35.3125 0.273438 Z M 51.449219 9.683594 "/>
<path style=" stroke:none;fill-rule:nonzero;fill:rgb(90.196078%,90.196078%,90.196078%);fill-opacity:1;" d="M 35.3125 19.132813 L 35.3125 37.957031 L 19.171875 28.503906 L 19.171875 9.683594 Z M 35.3125 19.132813 "/>
<path style=" stroke:none;fill-rule:nonzero;fill:rgb(58.039216%,58.039216%,58.039216%);fill-opacity:1;" d="M 33.484375 41.496094 L 33.484375 60.238281 L 17.382813 69.6875 L 17.382813 50.90625 Z M 33.484375 41.496094 "/>
<path style=" stroke:none;fill-rule:nonzero;fill:rgb(70.196078%,70.196078%,70.196078%);fill-opacity:1;" d="M 33.484375 41.496094 L 17.382813 50.945313 L 1.207031 41.496094 L 17.382813 32.042969 Z M 33.484375 41.496094 "/>
<path style=" stroke:none;fill-rule:nonzero;fill:rgb(90.196078%,90.196078%,90.196078%);fill-opacity:1;" d="M 17.382813 50.945313 L 17.382813 69.6875 L 1.207031 60.238281 L 1.207031 41.496094 Z M 17.382813 50.945313 "/>
<path style=" stroke:none;fill-rule:nonzero;fill:rgb(31.372549%,90.196078%,100%);fill-opacity:1;" d="M 53.433594 32.003906 L 37.292969 41.457031 L 37.292969 60.316406 L 53.433594 69.726563 L 69.609375 60.316406 L 69.609375 41.457031 Z M 53.433594 32.003906 "/>
<path style=" stroke:none;fill-rule:nonzero;fill:url(#linear0);" d="M 65.140625 61.210938 L 42.351563 61.210938 C 25.445313 61.832031 11.238281 48.636719 10.617188 31.734375 C 9.992188 14.832031 23.191406 0.621094 40.09375 0 L 40.09375 -15.359375 C 44.335938 -15.359375 47.773438 -11.921875 47.773438 -7.679688 C 47.773438 -3.4375 44.335938 0 40.09375 0 L 63.078125 0 C 63.078125 6.347656 57.933594 11.492188 51.585938 11.492188 C 45.238281 11.492188 40.09375 6.347656 40.09375 0 L 40.09375 15.167969 C 35.90625 14.53125 33.023438 10.625 33.660156 6.4375 C 34.292969 2.246094 38.199219 -0.632813 42.390625 0 L 42.039063 0 Z M 65.140625 61.210938 "/>
<path style=" stroke:none;fill-rule:nonzero;fill:rgb(94.901961%,94.901961%,94.901961%);fill-opacity:1;" d="M 49.933594 57.476563 L 43.828125 51.449219 C 29.621094 63.550781 8.292969 61.847656 -3.8125 47.640625 C -15.914063 33.429688 -14.207031 12.101563 0 0 L 6.222656 -5.792969 C 4.621094 -7.511719 1.933594 -7.609375 0.214844 -6.007813 C -1.503906 -4.410156 -1.601563 -1.71875 0 0 L 0.542969 0.542969 C 0.558594 0.785156 0.425781 1.011719 0.203125 1.113281 C -0.0195313 1.214844 -0.277344 1.167969 -0.449219 0.996094 C -0.621094 0.824219 -0.667969 0.5625 -0.570313 0.339844 C -0.46875 0.121094 -0.242188 -0.015625 0 0 L 46.667969 50.554688 C 32.707031 63.441406 10.941406 62.570313 -1.945313 48.609375 C -14.832031 34.652344 -13.960938 12.886719 0 0 L 4.707031 4.820313 C 3.375 6.121094 1.242188 6.09375 -0.0585938 4.765625 C -1.359375 3.433594 -1.332031 1.300781 0 0 L -0.390625 0.390625 C -0.484375 0.679688 -0.777344 0.855469 -1.078125 0.808594 C -1.378906 0.761719 -1.601563 0.5 -1.601563 0.195313 C -1.601563 -0.109375 -1.378906 -0.371094 -1.078125 -0.421875 C -0.777344 -0.46875 -0.484375 -0.289063 -0.390625 0 Z M 57.246094 57.476563 L 63.3125 51.449219 C 49.105469 69.039063 23.328125 71.78125 5.734375 57.574219 C -11.855469 43.367188 -14.597656 17.589844 -0.390625 0 L -6.765625 -5.792969 C -5.167969 -5.792969 -3.871094 -4.496094 -3.871094 -2.898438 C -3.871094 -1.296875 -5.167969 0 -6.765625 0 L -7.195313 0.464844 C -7.148438 0.246094 -6.984375 0.0664063 -6.765625 0 L 60.472656 50.554688 C 46.511719 69.125 20.140625 72.859375 1.574219 58.898438 C -16.992188 44.9375 -20.726563 18.566406 -6.765625 0 L -11.394531 4.746094 C -12.703125 3.464844 -12.730469 1.367188 -11.453125 0.0585938 C -10.175781 -1.25 -8.078125 -1.277344 -6.765625 0 L -6.417969 0.351563 C -6.375 0.0742188 -6.128906 -0.125 -5.851563 -0.109375 C -5.570313 -0.09375 -5.347656 0.128906 -5.335938 0.40625 C -5.320313 0.683594 -5.519531 0.929688 -5.792969 0.972656 Z M 57.246094 57.476563 "/>
</g>
</svg>
