<?xml version="1.0" encoding="UTF-8"?>
<svg xmlns="http://www.w3.org/2000/svg" xmlns:xlink="http://www.w3.org/1999/xlink" width="70pt" height="70pt" viewBox="0 0 70 70" version="1.1">
<defs>
<filter id="alpha" filterUnits="objectBoundingBox" x="0%" y="0%" width="100%" height="100%">
  <feColorMatrix type="matrix" in="SourceGraphic" values="0 0 0 0 1 0 0 0 0 1 0 0 0 0 1 0 0 0 1 0"/>
</filter>
<mask id="mask0">
  <g filter="url(#alpha)">
<rect x="0" y="0" width="70" height="70" style="fill:rgb(0%,0%,0%);fill-opacity:0.501961;stroke:none;"/>
  </g>
</mask>
<clipPath id="clip1">
  <rect x="0" y="0" width="70" height="70"/>
</clipPath>
<g id="surface5" clip-path="url(#clip1)">
<path style=" stroke:none;fill-rule:nonzero;fill:rgb(70.196078%,70.196078%,70.196078%);fill-opacity:1;" d="M 35.699219 32.042969 L 38.226563 32.042969 L 38.226563 39.082031 C 27.433594 38.933594 18.808594 30.0625 18.957031 19.269531 C 19.109375 8.476563 27.980469 -0.148438 38.773438 0 L 35 0 C 35.214844 0.125 35.316406 0.375 35.253906 0.613281 C 35.191406 0.851563 34.972656 1.015625 34.726563 1.015625 C 34.480469 1.015625 34.265625 0.851563 34.203125 0.613281 C 34.136719 0.375 34.242188 0.125 34.457031 0 L 34.457031 33.171875 C 25.296875 33.171875 17.871094 25.746094 17.871094 16.585938 C 17.871094 7.425781 25.296875 0 34.457031 0 Z M 35.699219 32.042969 "/>
</g>
<mask id="mask1">
  <g filter="url(#alpha)">
<rect x="0" y="0" width="70" height="70" style="fill:rgb(0%,0%,0%);fill-opacity:0.501961;stroke:none;"/>
  </g>
</mask>
<clipPath id="clip2">
  <rect x="0" y="0" width="70" height="70"/>
</clipPath>
<g id="surface8" clip-path="url(#clip2)">
<path style=" stroke:none;fill-rule:nonzero;fill:rgb(70.196078%,70.196078%,70.196078%);fill-opacity:1;" d="M 64.398438 32.042969 L 66.929688 32.042969 C 58.078125 50.527344 35.921875 58.335938 17.441406 49.484375 C -1.039063 40.636719 -8.847656 18.480469 0 0 L 0 5.949219 C -1.644531 5.800781 -2.851563 4.347656 -2.703125 2.703125 C -2.550781 1.058594 -1.097656 -0.148438 0.542969 0 L -2.023438 0 C -1.808594 0.125 -1.703125 0.375 -1.769531 0.613281 C -1.832031 0.851563 -2.046875 1.015625 -2.292969 1.015625 C -2.539063 1.015625 -2.757813 0.851563 -2.820313 0.613281 C -2.882813 0.375 -2.78125 0.125 -2.566406 0 L -2.566406 32.042969 Z M 64.398438 32.042969 "/>
</g>
<mask id="mask2">
  <g filter="url(#alpha)">
<rect x="0" y="0" width="70" height="70" style="fill:rgb(0%,0%,0%);fill-opacity:0.501961;stroke:none;"/>
  </g>
</mask>
<clipPath id="clip3">
  <rect x="0" y="0" width="70" height="70"/>
</clipPath>
<g id="surface11" clip-path="url(#clip3)">
<path style=" stroke:none;fill-rule:nonzero;fill:rgb(70.196078%,70.196078%,70.196078%);fill-opacity:1;" d="M 35 54.445313 L 37.527344 54.445313 C 22.492188 64.808594 1.90625 61.019531 -8.457031 45.984375 C -18.820313 30.953125 -15.035156 10.363281 0 0 L 0 7.039063 L -2.371094 7.039063 C -4.316406 7.351563 -6.144531 6.027344 -6.457031 4.082031 C -6.765625 2.140625 -5.445313 0.3125 -3.5 0 L -3.5 -6.027344 C -1.835938 -6.027344 -0.484375 -4.679688 -0.484375 -3.015625 C -0.484375 -1.347656 -1.835938 0 -3.5 0 Z M 35 54.445313 "/>
</g>
<mask id="mask3">
  <g filter="url(#alpha)">
<rect x="0" y="0" width="70" height="70" style="fill:rgb(0%,0%,0%);fill-opacity:0.501961;stroke:none;"/>
  </g>
</mask>
<clipPath id="clip4">
  <rect x="0" y="0" width="70" height="70"/>
</clipPath>
<g id="surface14" clip-path="url(#clip4)">
<path style=" stroke:none;fill-rule:nonzero;fill:rgb(70.196078%,70.196078%,70.196078%);fill-opacity:1;" d="M 64.945313 54.445313 L 67.472656 54.445313 C 52.4375 73.078125 25.144531 75.992188 6.515625 60.957031 C -12.117188 45.925781 -15.035156 18.632813 0 0 L 0 5.949219 C -1.644531 5.636719 -2.722656 4.054688 -2.410156 2.410156 C -2.101563 0.769531 -0.515625 -0.3125 1.128906 0 L -1.398438 0 L -1.398438 -7.195313 C 0.585938 -7.890625 2.761719 -6.847656 3.460938 -4.859375 C 4.160156 -2.875 3.113281 -0.699219 1.128906 0 Z M 64.945313 54.445313 "/>
</g>
</defs>
<g id="surface1">
<path style=" stroke:none;fill-rule:nonzero;fill:rgb(70.196078%,70.196078%,70.196078%);fill-opacity:1;" d="M 35.699219 32.042969 L 38.226563 32.042969 L 38.226563 39.082031 C 27.433594 38.933594 18.808594 30.0625 18.957031 19.269531 C 19.109375 8.476563 27.980469 -0.148438 38.773438 0 L 35 0 C 35.214844 0.125 35.316406 0.375 35.253906 0.613281 C 35.191406 0.851563 34.972656 1.015625 34.726563 1.015625 C 34.480469 1.015625 34.265625 0.851563 34.203125 0.613281 C 34.136719 0.375 34.242188 0.125 34.457031 0 L 34.457031 33.171875 C 25.296875 33.171875 17.871094 25.746094 17.871094 16.585938 C 17.871094 7.425781 25.296875 0 34.457031 0 Z M 35.699219 32.042969 "/>
<use xlink:href="#surface5" mask="url(#mask0)"/>
<path style=" stroke:none;fill-rule:nonzero;fill:rgb(70.196078%,70.196078%,70.196078%);fill-opacity:1;" d="M 64.398438 32.042969 L 66.929688 32.042969 C 58.078125 50.527344 35.921875 58.335938 17.441406 49.484375 C -1.039063 40.636719 -8.847656 18.480469 0 0 L 0 5.949219 C -1.644531 5.800781 -2.851563 4.347656 -2.703125 2.703125 C -2.550781 1.058594 -1.097656 -0.148438 0.542969 0 L -2.023438 0 C -1.808594 0.125 -1.703125 0.375 -1.769531 0.613281 C -1.832031 0.851563 -2.046875 1.015625 -2.292969 1.015625 C -2.539063 1.015625 -2.757813 0.851563 -2.820313 0.613281 C -2.882813 0.375 -2.78125 0.125 -2.566406 0 L -2.566406 32.042969 Z M 64.398438 32.042969 "/>
<use xlink:href="#surface8" mask="url(#mask1)"/>
<path style=" stroke:none;fill-rule:nonzero;fill:rgb(70.196078%,70.196078%,70.196078%);fill-opacity:1;" d="M 68.054688 33.054688 L 68.054688 35.503906 L 34.609375 35.503906 L 34.609375 33.054688 C 25.484375 42.613281 10.335938 42.960938 0.777344 33.832031 C -8.78125 24.707031 -9.128906 9.558594 0 0 L 31.109375 0 C 31.109375 8.589844 24.148438 15.554688 15.554688 15.554688 C 6.964844 15.554688 0 8.589844 0 0 Z M 68.054688 33.054688 "/>
<path style=" stroke:none;fill-rule:nonzero;fill:rgb(70.196078%,70.196078%,70.196078%);fill-opacity:1;" d="M 35 54.445313 L 37.527344 54.445313 C 22.492188 64.808594 1.90625 61.019531 -8.457031 45.984375 C -18.820313 30.953125 -15.035156 10.363281 0 0 L 0 7.039063 L -2.371094 7.039063 C -4.316406 7.351563 -6.144531 6.027344 -6.457031 4.082031 C -6.765625 2.140625 -5.445313 0.3125 -3.5 0 L -3.5 -6.027344 C -1.835938 -6.027344 -0.484375 -4.679688 -0.484375 -3.015625 C -0.484375 -1.347656 -1.835938 0 -3.5 0 Z M 35 54.445313 "/>
<use xlink:href="#surface11" mask="url(#mask2)"/>
<path style=" stroke:none;fill-rule:nonzero;fill:rgb(70.196078%,70.196078%,70.196078%);fill-opacity:1;" d="M 64.945313 54.445313 L 67.472656 54.445313 C 52.4375 73.078125 25.144531 75.992188 6.515625 60.957031 C -12.117188 45.925781 -15.035156 18.632813 0 0 L 0 5.949219 C -1.644531 5.636719 -2.722656 4.054688 -2.410156 2.410156 C -2.101563 0.769531 -0.515625 -0.3125 1.128906 0 L -1.398438 0 L -1.398438 -7.195313 C 0.585938 -7.890625 2.761719 -6.847656 3.460938 -4.859375 C 4.160156 -2.875 3.113281 -0.699219 1.128906 0 Z M 64.945313 54.445313 "/>
<use xlink:href="#surface14" mask="url(#mask3)"/>
<path style=" stroke:none;fill-rule:nonzero;fill:rgb(70.196078%,70.196078%,70.196078%);fill-opacity:1;" d="M 34.609375 60.9375 L 34.609375 58.488281 L 68.09375 58.488281 L 68.09375 60.9375 C 51.265625 60.628906 37.878906 46.734375 38.1875 29.90625 C 38.5 13.078125 52.394531 -0.3125 69.222656 0 L 38.109375 0 C 38.554688 0.253906 38.769531 0.777344 38.636719 1.269531 C 38.503906 1.761719 38.058594 2.105469 37.546875 2.105469 C 37.035156 2.105469 36.589844 1.761719 36.457031 1.269531 C 36.324219 0.777344 36.542969 0.253906 36.984375 0 Z M 34.609375 60.9375 "/>
<path style=" stroke:none;fill-rule:nonzero;fill:rgb(46.27451%,73.72549%,17.647059%);fill-opacity:1;" d="M 54.792969 45.65625 C 42.1875 45.515625 32.078125 35.183594 32.21875 22.574219 C 32.359375 9.96875 42.691406 -0.140625 55.300781 0 L 50.554688 0 C 50.738281 0.105469 50.828125 0.320313 50.773438 0.523438 C 50.71875 0.730469 50.535156 0.871094 50.320313 0.871094 C 50.109375 0.871094 49.925781 0.730469 49.871094 0.523438 C 49.816406 0.320313 49.90625 0.105469 50.089844 0 L 50.089844 42.777344 C 38.277344 42.777344 28.699219 33.203125 28.699219 21.390625 C 28.699219 9.574219 38.277344 0 50.089844 0 L 53.976563 0 C 53.976563 1.074219 53.105469 1.945313 52.035156 1.945313 C 50.960938 1.945313 50.089844 1.074219 50.089844 0 Z M 54.792969 45.65625 "/>
<path style=" stroke:none;fill-rule:nonzero;fill:rgb(36.862745%,58.823529%,14.117647%);fill-opacity:1;" d="M 61.753906 48.609375 C 48.332031 48.472656 37.5625 37.476563 37.703125 24.054688 C 37.84375 10.628906 48.835938 -0.140625 62.261719 0 L 58.371094 0 C 58.554688 0.105469 58.644531 0.320313 58.589844 0.523438 C 58.535156 0.730469 58.351563 0.871094 58.140625 0.871094 C 57.925781 0.871094 57.742188 0.730469 57.6875 0.523438 C 57.632813 0.320313 57.722656 0.105469 57.90625 0 L 57.90625 -2.878906 C 58.699219 -2.878906 59.34375 -2.234375 59.34375 -1.4375 C 59.34375 -0.644531 58.699219 0 57.90625 0 L 61.792969 0 C 61.792969 1.074219 60.925781 1.945313 59.851563 1.945313 C 58.777344 1.945313 57.90625 1.074219 57.90625 0 Z M 54.792969 51.566406 C 40.554688 51.425781 29.125 39.769531 29.265625 25.53125 C 29.402344 11.289063 41.058594 -0.140625 55.300781 0 L 50.554688 0 C 50.746094 0.0976563 50.847656 0.316406 50.796875 0.523438 C 50.746094 0.734375 50.558594 0.882813 50.339844 0.882813 C 50.125 0.882813 49.9375 0.734375 49.886719 0.523438 C 49.835938 0.316406 49.9375 0.0976563 50.128906 0 L 50.128906 -2.917969 C 50.933594 -2.917969 51.585938 -2.265625 51.585938 -1.457031 C 51.585938 -0.652344 50.933594 0 50.128906 0 L 54.015625 0 C 54.015625 1.074219 53.144531 1.945313 52.070313 1.945313 C 51 1.945313 50.128906 1.074219 50.128906 0 L 50.128906 2.917969 Z M 54.792969 51.566406 "/>
<path style=" stroke:none;fill-rule:nonzero;fill:rgb(52.54902%,83.921569%,20%);fill-opacity:1;" d="M 47.832031 42.777344 C 36.019531 42.648438 26.550781 32.96875 26.679688 21.15625 C 26.808594 9.34375 36.488281 -0.128906 48.300781 0 L 44.410156 0 C 44.410156 -1.074219 45.28125 -1.945313 46.355469 -1.945313 C 47.429688 -1.945313 48.300781 -1.074219 48.300781 0 L 48.300781 -2.996094 C 49.125 -2.996094 49.796875 -2.324219 49.796875 -1.496094 C 49.796875 -0.671875 49.125 0 48.300781 0 L 52.1875 0 C 52.578125 0 52.773438 0.195313 52.773438 0.464844 Z M 47.832031 42.777344 "/>
<path style=" stroke:none;fill-rule:nonzero;fill:rgb(46.27451%,73.72549%,17.647059%);fill-opacity:1;" d="M 47.832031 48.609375 C 34.410156 48.472656 23.640625 37.476563 23.78125 24.054688 C 23.921875 10.628906 34.914063 -0.140625 48.339844 0 L 44.449219 0 C 44.632813 0.105469 44.722656 0.320313 44.667969 0.523438 C 44.613281 0.730469 44.429688 0.871094 44.214844 0.871094 C 44.003906 0.871094 43.820313 0.730469 43.765625 0.523438 C 43.710938 0.320313 43.800781 0.105469 43.984375 0 L 43.984375 -2.957031 C 44.800781 -2.957031 45.460938 -2.292969 45.460938 -1.476563 C 45.460938 -0.660156 44.800781 0 43.984375 0 L 47.871094 0 C 48.261719 0 48.457031 0.195313 48.457031 0.503906 Z M 47.832031 48.609375 "/>
<path style=" stroke:none;fill-rule:nonzero;fill:rgb(36.862745%,58.823529%,14.117647%);fill-opacity:1;" d="M 47.832031 54.445313 C 32.800781 54.304688 20.722656 42.003906 20.863281 26.96875 C 21.003906 11.933594 33.304688 -0.140625 48.339844 0 L 44.449219 0 C 44.449219 -1.074219 45.320313 -1.945313 46.394531 -1.945313 C 47.46875 -1.945313 48.339844 -1.074219 48.339844 0 L 48.339844 -3.035156 C 49.175781 -3.035156 49.855469 -2.355469 49.855469 -1.515625 C 49.855469 -0.679688 49.175781 0 48.339844 0 L 52.226563 0 C 52.226563 1.074219 51.355469 1.945313 50.285156 1.945313 C 49.210938 1.945313 48.339844 1.074219 48.339844 0 Z M 47.832031 54.445313 "/>
<path style=" stroke:none;fill-rule:nonzero;fill:rgb(58.039216%,58.039216%,58.039216%);fill-opacity:1;" d="M 51.761719 22.554688 C 45.53125 22.855469 40.238281 18.050781 39.9375 11.820313 C 39.636719 5.59375 44.445313 0.300781 50.671875 0 L 19.445313 0 C 19.78125 -0.195313 20.195313 -0.195313 20.535156 0 L 20.535156 5.949219 C 18.890625 5.949219 17.558594 4.617188 17.558594 2.976563 C 17.558594 1.332031 18.890625 0 20.535156 0 L 23.023438 0 C 23.023438 0.6875 22.464844 1.246094 21.777344 1.246094 C 21.089844 1.246094 20.535156 0.6875 20.535156 0 L 20.535156 -3.5 L 46.667969 -3.5 L 46.667969 0 C 46.667969 7.214844 40.816406 13.066406 33.601563 13.066406 C 26.382813 13.066406 20.535156 7.214844 20.535156 0 L 23.0625 0 C 23.0625 0.699219 22.496094 1.265625 21.796875 1.265625 C 21.097656 1.265625 20.535156 0.699219 20.535156 0 L 20.535156 22.554688 Z M 21.933594 44.023438 C 9.777344 44.171875 -0.199219 34.441406 -0.351563 22.285156 C -0.5 10.125 9.234375 0.148438 21.390625 0 L 18.859375 0 C 19.03125 -0.0898438 19.234375 -0.0898438 19.40625 0 L 19.40625 5.949219 C 17.761719 5.949219 16.429688 4.617188 16.429688 2.976563 C 16.429688 1.332031 17.761719 0 19.40625 0 L 32.9375 0 L 32.9375 -3.539063 L 21.933594 -3.539063 Z M 35.429688 9.179688 C 32.894531 9.488281 30.585938 7.6875 30.273438 5.152344 C 29.964844 2.617188 31.765625 0.3125 34.300781 0 L 3.1875 0 C 3.539063 -0.203125 3.96875 -0.203125 4.316406 0 L 4.316406 5.949219 C 2.671875 5.949219 1.339844 4.617188 1.339844 2.976563 C 1.339844 1.332031 2.671875 0 4.316406 0 L 6.882813 0 C 6.882813 0.707031 6.308594 1.285156 5.601563 1.285156 C 4.890625 1.285156 4.316406 0.707031 4.316406 0 L 4.316406 11.667969 L 30.449219 11.667969 L 30.449219 15.207031 C 26.25 22.421875 16.996094 24.867188 9.78125 20.667969 C 2.5625 16.46875 0.117188 7.214844 4.316406 0 L 35 0 C 35 8.472656 28.132813 15.339844 19.660156 15.339844 C 11.183594 15.339844 4.316406 8.472656 4.316406 0 L 4.316406 -5.832031 Z M 5.601563 30.644531 C -2.863281 30.804688 -9.851563 24.074219 -10.015625 15.613281 C -10.175781 7.152344 -3.445313 0.160156 5.015625 0 L 2.488281 0 C 2.667969 -0.105469 2.890625 -0.105469 3.070313 0 L 3.070313 36.554688 C 3.070313 37.140625 3.460938 37.644531 3.890625 37.644531 L 17.421875 37.644531 L 17.421875 34.144531 L 5.601563 34.144531 Z M 5.601563 30.644531 "/>
<path style=" stroke:none;fill-rule:nonzero;fill:rgb(46.27451%,73.72549%,17.647059%);fill-opacity:1;" d="M 30.410156 32.355469 C 21.476563 32.226563 14.335938 24.878906 14.464844 15.945313 C 14.59375 7.007813 21.941406 -0.128906 30.878906 0 L 26.988281 0 C 27.15625 0.0976563 27.238281 0.292969 27.1875 0.480469 C 27.136719 0.667969 26.96875 0.796875 26.773438 0.796875 C 26.582031 0.796875 26.410156 0.667969 26.363281 0.480469 C 26.3125 0.292969 26.394531 0.0976563 26.5625 0 L 26.5625 -2.996094 C 27.386719 -2.996094 28.058594 -2.324219 28.058594 -1.496094 C 28.058594 -0.671875 27.386719 0 26.5625 0 L 30.449219 0 C 30.839844 0 31.035156 0.195313 31.035156 0.503906 Z M 30.410156 35.3125 C 30.410156 35 30.214844 35 29.828125 35 L 25.9375 35 C 16.273438 34.859375 8.550781 26.914063 8.691406 17.246094 C 8.832031 7.582031 16.78125 -0.140625 26.445313 0 L 26.445313 3.035156 C 25.605469 3.035156 24.929688 2.355469 24.929688 1.515625 C 24.929688 0.679688 25.605469 0 26.445313 0 L 30.332031 0 C 30.332031 1.074219 29.460938 1.945313 28.390625 1.945313 C 27.316406 1.945313 26.445313 1.074219 26.445313 0 Z M 30.410156 41.222656 C 30.410156 40.949219 30.214844 40.753906 29.828125 40.753906 L 25.9375 40.753906 C 14.683594 40.625 5.664063 31.398438 5.792969 20.144531 C 5.921875 8.890625 15.152344 -0.128906 26.40625 0 L 26.40625 3.035156 C 25.566406 3.035156 24.890625 2.355469 24.890625 1.515625 C 24.890625 0.679688 25.566406 0 26.40625 0 L 30.292969 0 C 30.292969 1.074219 29.425781 1.945313 28.351563 1.945313 C 27.277344 1.945313 26.40625 1.074219 26.40625 0 Z M 14.078125 15.984375 C 9.664063 12.578125 8.847656 6.242188 12.25 1.828125 C 15.652344 -2.585938 21.992188 -3.402344 26.40625 0 L 22.515625 0 C 22.671875 -0.0976563 22.867188 -0.0976563 23.023438 0 L 23.023438 3.035156 C 22.183594 3.035156 21.503906 2.355469 21.503906 1.515625 C 21.503906 0.679688 22.183594 0 23.023438 0 L 26.910156 0 C 26.910156 1.074219 26.039063 1.945313 24.964844 1.945313 C 23.894531 1.945313 23.023438 1.074219 23.023438 0 Z M 14.078125 21.894531 C 14.078125 21.621094 13.882813 21.429688 13.496094 21.429688 L 9.605469 21.429688 C 3.6875 21.300781 -1.003906 16.398438 -0.875 10.480469 C -0.746094 4.5625 4.15625 -0.128906 10.070313 0 L 10.070313 2.996094 C 9.246094 2.996094 8.574219 2.324219 8.574219 1.496094 C 8.574219 0.671875 9.246094 0 10.070313 0 L 13.960938 0 C 13.960938 1.074219 13.089844 1.945313 12.015625 1.945313 C 10.941406 1.945313 10.070313 1.074219 10.070313 0 Z M 14.078125 27.84375 C 14.078125 27.535156 13.882813 27.339844 13.496094 27.339844 L 9.605469 27.339844 C 2.054688 27.199219 -3.949219 20.964844 -3.8125 13.417969 C -3.671875 5.867188 2.5625 -0.140625 10.109375 0 L 10.109375 2.957031 C 9.296875 2.957031 8.632813 2.292969 8.632813 1.476563 C 8.632813 0.660156 9.296875 0 10.109375 0 L 14 0 C 14 1.074219 13.128906 1.945313 12.054688 1.945313 C 10.980469 1.945313 10.109375 1.074219 10.109375 0 Z M 14.078125 27.84375 "/>
</g>
</svg>
