<?xml version="1.0" encoding="UTF-8"?>
<svg xmlns="http://www.w3.org/2000/svg" xmlns:xlink="http://www.w3.org/1999/xlink" width="70pt" height="70pt" viewBox="0 0 70 70" version="1.1">
<g id="surface1">
<path style=" stroke:none;fill-rule:nonzero;fill:rgb(47.843137%,47.843137%,47.843137%);fill-opacity:1;" d="M 70 35 C 70 54.328125 54.328125 70 35 70 C 15.671875 70 0 54.328125 0 35 C 0 15.671875 15.671875 0 35 0 C 54.328125 0 70 15.671875 70 35 Z M 70 35 "/>
<path style=" stroke:none;fill-rule:nonzero;fill:rgb(100%,100%,100%);fill-opacity:1;" d="M 46.667969 24.65625 C 46.667969 28.15625 44.800781 31.425781 41.300781 34.457031 C 39.898438 35.625 38.730469 36.558594 38.269531 37.488281 C 37.800781 38.1875 37.566406 39.359375 37.566406 40.519531 L 37.566406 41.921875 L 31.03125 41.921875 L 31.03125 39.820313 C 31.03125 36.789063 32.199219 34.222656 34.765625 32.121094 C 36.398438 30.957031 37.332031 29.789063 37.800781 29.089844 C 38.269531 28.390625 38.730469 27.222656 38.730469 26.058594 C 38.730469 24.894531 38.269531 24.1875 37.566406 23.488281 C 31.082031 23.875 25.511719 18.929688 25.125 12.445313 C 24.738281 5.957031 29.683594 0.386719 36.167969 0 C 33.367188 0 30.800781 1.167969 28.234375 3.269531 L 28.234375 17.890625 C 30.804688 16.257813 33.835938 15.558594 37.105469 15.558594 C 40.605469 15.558594 43.636719 16.488281 45.503906 18.125 C 47.601563 19.519531 48.535156 21.859375 48.535156 24.65625 Z M 38.890625 50.867188 C 38.890625 52.035156 38.421875 53.199219 37.488281 53.898438 C 36.558594 54.601563 35.390625 55.066406 34.222656 55.066406 C 32.820313 55.066406 31.890625 54.601563 30.953125 53.898438 C 30.019531 53.199219 29.554688 52.03125 29.554688 50.867188 C 29.554688 49.699219 30.019531 48.535156 30.953125 47.835938 C 31.878906 47.136719 33.054688 46.667969 34.453125 46.667969 C 35.851563 46.667969 37.019531 47.136719 37.722656 47.835938 C 38.421875 48.53125 38.890625 49.699219 38.890625 50.867188 Z M 38.890625 50.867188 "/>
</g>
</svg>
