<?xml version="1.0" encoding="UTF-8"?>
<svg xmlns="http://www.w3.org/2000/svg" xmlns:xlink="http://www.w3.org/1999/xlink" width="70pt" height="70pt" viewBox="0 0 70 70" version="1.1">
<g id="surface1">
<path style=" stroke:none;fill-rule:nonzero;fill:rgb(0%,0%,0%);fill-opacity:1;" d="M 35 0 C 32.890625 -14.191406 40.121094 -28.132813 52.933594 -34.585938 C 65.75 -41.039063 81.253906 -38.542969 91.398438 -28.398438 C 101.542969 -18.253906 104.039063 -2.75 97.585938 10.066406 C 91.132813 22.878906 77.191406 30.109375 63 28 L 63 79.1875 C 65.679688 65.355469 78.214844 55.671875 92.273438 56.566406 C 106.332031 57.464844 117.535156 68.667969 118.433594 82.726563 C 119.328125 96.785156 109.644531 109.320313 95.8125 112 L 95.8125 116.375 C 94.773438 119.675781 94.640625 123.410156 95.488281 125.648438 C 96.335938 127.886719 97.972656 128.121094 99.546875 126.230469 C 101.121094 124.339844 102.28125 120.75 102.425781 117.320313 C 102.574219 113.894531 101.671875 111.398438 100.1875 111.125 C 96.925781 118.644531 94.1875 120.578125 92.75 116.375 C 98.8125 105.878906 110.941406 100.476563 122.800781 102.988281 C 134.65625 105.503906 143.550781 115.359375 144.835938 127.410156 C 146.121094 139.464844 139.507813 150.976563 128.445313 155.933594 C 117.386719 160.890625 104.390625 158.167969 96.25 149.1875 L 124.25 177.1875 L 169.75 177.1875 C 179.148438 169.6875 192.285156 169.023438 202.390625 175.539063 C 212.492188 182.054688 217.3125 194.292969 214.359375 205.949219 C 211.40625 217.601563 201.34375 226.070313 189.355469 226.988281 C 177.367188 227.90625 166.128906 221.070313 161.4375 210 C 111.179688 246.847656 40.566406 235.976563 3.71875 185.71875 C -33.128906 135.460938 -22.257813 64.847656 28 28 L 0 78.75 Z M 35 65.625 L 43.3125 64.75 L 50.3125 61.25 C 50.3125 49.410156 59.910156 39.8125 71.75 39.8125 C 83.589844 39.8125 93.1875 49.410156 93.1875 61.25 C 93.1875 73.089844 83.589844 82.6875 71.75 82.6875 L 71.75 86.1875 C 73.078125 98.460938 70.140625 110.820313 63.4375 121.1875 L 84.875 142.625 C 91.078125 151.082031 89.746094 162.886719 81.8125 169.75 L 101.9375 189.875 L 123.375 189.875 C 132.652344 195.542969 135.75 207.550781 130.375 217 L 150.5 217 C 149.445313 219.152344 149.015625 222.375 149.433594 225.023438 C 149.851563 227.671875 151.019531 229.164063 152.347656 228.734375 C 153.675781 228.304688 154.867188 226.050781 155.3125 223.125 L 162.3125 226.625 Z M 35 43.75 L 40.25 43.75 L 45.0625 45.5 L 49.4375 48.125 C 97.761719 18.886719 160.636719 34.363281 189.875 82.6875 C 219.113281 131.011719 203.636719 193.886719 155.3125 223.125 L 151.375 224.875 L 149.1875 221.8125 L 145.6875 220.0625 C 145.503906 221.175781 145.050781 222.226563 144.375 223.125 L 31.0625 223.125 L 27.125 224 L 23.625 226.1875 C 24.339844 224.902344 25.402344 223.839844 26.6875 223.125 L 22.75 221.8125 C 18.300781 219.210938 16.539063 213.667969 18.667969 208.972656 C 20.796875 204.28125 26.125 201.953125 31.015625 203.582031 C 35.902344 205.210938 38.769531 210.269531 37.65625 215.304688 C 36.542969 220.335938 31.808594 223.710938 26.6875 223.125 L 31.0625 220.5 L 35.875 218.75 Z M 35 43.75 "/>
<path style=" stroke:none;fill-rule:nonzero;fill:rgb(0%,0%,0%);fill-opacity:1;" d="M 21.875 30.625 L 20.125 30.625 L 18.8125 29.75 L 17.9375 28.4375 C 10.085938 33.390625 -0.296875 31.039063 -5.25 23.1875 C -10.203125 15.335938 -7.851563 4.953125 0 0 L 0.875 -1.3125 L 2.1875 -2.1875 L 5.6875 -2.1875 L 7 -1.3125 L 7.875 0 C 7.875 2.175781 6.113281 3.9375 3.9375 3.9375 C 1.761719 3.9375 0 2.175781 0 0 C -1.207031 -0.425781 -1.929688 -1.660156 -1.710938 -2.917969 C -1.496094 -4.179688 -0.402344 -5.101563 0.875 -5.101563 C 2.152344 -5.101563 3.246094 -4.179688 3.460938 -2.917969 C 3.679688 -1.660156 2.957031 -0.425781 1.75 0 L 0.875 1.3125 L -0.4375 2.1875 Z M 48.125 30.625 L 46.375 30.625 L 45.0625 29.75 L 44.1875 28.4375 C 36.335938 40.15625 20.46875 43.289063 8.75 35.4375 C -2.96875 27.585938 -6.101563 11.71875 1.75 0 L 2.625 -1.3125 L 3.9375 -2.1875 L 7.4375 -2.1875 L 8.75 -1.3125 L 9.625 0 C 9.625 -1.449219 10.800781 -2.625 12.25 -2.625 C 13.699219 -2.625 14.875 -1.449219 14.875 0 C 14.875 1.449219 13.699219 2.625 12.25 2.625 L 11.375 3.9375 L 10.0625 4.8125 Z M 48.125 30.625 "/>
</g>
</svg>
