<?xml version="1.0" encoding="UTF-8"?>
<svg xmlns="http://www.w3.org/2000/svg" xmlns:xlink="http://www.w3.org/1999/xlink" width="70pt" height="65pt" viewBox="0 0 70 65" version="1.1">
<g id="surface1">
<path style=" stroke:none;fill-rule:nonzero;fill:rgb(0%,0%,0%);fill-opacity:1;" d="M 62.5625 4.332031 L 43.75 4.332031 L 43.75 0 L 70 0 L 70 26 L 65.625 26 L 65.625 7.367188 L 30.625 42.035156 L 27.5625 39 Z M 62.5625 4.332031 "/>
<path style=" stroke:none;fill-rule:nonzero;fill:rgb(0%,0%,0%);fill-opacity:1;" d="M 48.125 34.667969 L 48.125 56.332031 C 32.417969 55.136719 20.667969 41.554688 21.875 26 C 23.082031 10.445313 36.792969 -1.195313 52.5 0 L 8.75 0 C 10.191406 0.953125 10.832031 2.730469 10.332031 4.375 C 9.828125 6.019531 8.296875 7.144531 6.5625 7.144531 C 4.828125 7.144531 3.296875 6.019531 2.792969 4.375 C 2.292969 2.730469 2.933594 0.953125 4.375 0 L 4.375 26 C -2.875 26 -8.75 20.179688 -8.75 13 C -8.75 5.820313 -2.875 0 4.375 0 L 30.625 0 L 35 -4.332031 L 8.75 -4.332031 C 12.285156 -4.789063 15.746094 -3.074219 17.5 0 L 17.5 30.332031 C 9.042969 30.332031 2.1875 23.542969 2.1875 15.167969 C 2.1875 6.789063 9.042969 0 17.5 0 L 52.5 0 C 52.5 9.574219 44.664063 17.332031 35 17.332031 C 25.335938 17.332031 17.5 9.574219 17.5 0 L 17.5 30.332031 Z M 48.125 34.667969 "/>
</g>
</svg>
