<?xml version="1.0" encoding="UTF-8"?>
<svg xmlns="http://www.w3.org/2000/svg" xmlns:xlink="http://www.w3.org/1999/xlink" width="70pt" height="61pt" viewBox="0 0 70 61" version="1.1">
<g id="surface1">
<path style=" stroke:none;fill-rule:nonzero;fill:rgb(0%,0%,0%);fill-opacity:1;" d="M 62.125 21.351563 L 59.0625 17.863281 L 56 21.351563 L 48.125 28.757813 L 51.1875 32.242188 L 56.875 26.578125 L 56.875 30.5 C 47.410156 33.945313 36.859375 29.710938 32.433594 20.695313 C 28.007813 11.679688 31.132813 0.789063 39.671875 -4.535156 C 48.214844 -9.863281 59.414063 -7.902344 65.625 0 L 43.3125 0 C 40.148438 -23.519531 52.390625 -46.433594 73.75 -56.953125 C 95.105469 -67.472656 120.824219 -63.261719 137.671875 -46.480469 C 154.519531 -29.699219 158.75 -4.089844 148.1875 17.179688 C 137.621094 38.453125 114.617188 50.644531 91 47.492188 L 113.75 47.492188 L 116.8125 44.441406 C 127.449219 32.207031 126.453125 13.78125 114.554688 2.757813 C 102.660156 -8.269531 84.136719 -7.9375 72.644531 3.503906 C 61.152344 14.949219 60.820313 33.398438 71.890625 45.246094 C 82.964844 57.09375 101.464844 58.085938 113.75 47.492188 C 130.664063 47.492188 144.375 61.148438 144.375 77.992188 L 175 77.992188 L 175 74.070313 L 180.6875 79.734375 L 183.75 76.25 Z M 30.625 56.644531 C 28.4375 56.644531 25.375 51.851563 23.1875 43.570313 L 38.0625 43.570313 C 35.875 51.851563 32.8125 56.644531 30.625 56.644531 Z M 22.3125 39.214844 C 22.3125 36.601563 21.875 33.550781 21.875 30.5 C 21.875 27.449219 22.3125 24.398438 22.3125 21.785156 L 38.9375 21.785156 C 38.9375 24.398438 39.375 27.449219 39.375 30.5 C 39.375 33.550781 38.9375 36.601563 38.9375 39.214844 Z M 38.0625 17.429688 L 23.1875 17.429688 C 25.375 9.148438 28.4375 4.355469 30.625 4.355469 C 32.8125 4.355469 35.875 9.148438 38.0625 17.429688 Z M 23.1875 5.664063 C 41.628906 5.390625 57.484375 18.621094 60.445313 36.75 C 63.40625 54.878906 52.578125 72.429688 35 77.992188 L 7.875 77.992188 C -1.945313 71.953125 -6.546875 60.15625 -3.394531 49.101563 C -0.242188 38.042969 9.898438 30.414063 21.4375 30.414063 C 32.976563 30.414063 43.117188 38.042969 46.269531 49.101563 C 49.421875 60.15625 44.820313 71.953125 35 77.992188 Z M 4.375 30.5 C 17.542969 22.078125 35.074219 25.882813 43.53125 38.996094 C 51.988281 52.109375 48.167969 69.570313 35 77.992188 L 46.8125 77.992188 C 76.183594 81.121094 97.960938 106.585938 96.390625 135.960938 C 94.816406 165.335938 70.445313 188.351563 40.90625 188.351563 C 11.367188 188.351563 -13.003906 165.335938 -14.578125 135.960938 C -16.148438 106.585938 5.628906 81.121094 35 77.992188 L 6.125 77.992188 C -1.136719 70.191406 -0.828125 58.050781 6.816406 50.625 C 14.464844 43.199219 26.660156 43.199219 34.308594 50.625 C 41.953125 58.050781 42.261719 70.191406 35 77.992188 Z M 7.875 43.570313 L 18.8125 43.570313 C 20.496094 27 33.082031 13.585938 49.570313 10.789063 C 66.058594 7.992188 82.394531 16.507813 89.488281 31.589844 C 96.582031 46.675781 92.691406 64.621094 79.980469 75.449219 C 67.265625 86.273438 48.863281 87.316406 35 77.992188 Z M 38.0625 55.335938 C 45.980469 38.910156 64.71875 30.660156 82.246094 35.882813 C 99.773438 41.105469 110.882813 58.246094 108.441406 76.304688 C 106 94.363281 90.734375 107.96875 72.445313 108.390625 C 54.15625 108.808594 38.273438 95.917969 35 77.992188 L 45.9375 77.992188 C 33.179688 75.007813 24.695313 62.972656 26.203125 50.007813 C 27.710938 37.042969 38.738281 27.261719 51.84375 27.261719 C 64.949219 27.261719 75.976563 37.042969 77.484375 50.007813 C 78.992188 62.972656 70.507813 75.007813 57.75 77.992188 Z M 38.0625 55.335938 "/>
</g>
</svg>
