<?xml version="1.0" encoding="UTF-8"?>
<svg xmlns="http://www.w3.org/2000/svg" xmlns:xlink="http://www.w3.org/1999/xlink" width="70pt" height="70pt" viewBox="0 0 70 70" version="1.1">
<defs>
<linearGradient id="linear0" gradientUnits="userSpaceOnUse" x1="6050.2" y1="-3638.83" x2="6038.28" y2="-3638.83" gradientTransform="matrix(0.000000000000000238,3.888889,-3.888889,0.000000000000000238,-14116.005556,-23467.927778)">
<stop offset="0" style="stop-color:rgb(9.803922%,54.117647%,70.196078%);stop-opacity:1;"/>
<stop offset="0" style="stop-color:rgb(9.803922%,54.117647%,70.196078%);stop-opacity:1;"/>
<stop offset="0.11" style="stop-color:rgb(13.333333%,64.705882%,79.607843%);stop-opacity:1;"/>
<stop offset="0.23" style="stop-color:rgb(16.078431%,72.941176%,87.058824%);stop-opacity:1;"/>
<stop offset="0.37" style="stop-color:rgb(18.039216%,78.823529%,92.156863%);stop-opacity:1;"/>
<stop offset="0.53" style="stop-color:rgb(19.215686%,81.960784%,95.294118%);stop-opacity:1;"/>
<stop offset="0.78" style="stop-color:rgb(19.607843%,83.137255%,96.078431%);stop-opacity:1;"/>
</linearGradient>
</defs>
<g id="surface1">
<path style=" stroke:none;fill-rule:nonzero;fill:rgb(9.803922%,54.117647%,70.196078%);fill-opacity:1;" d="M 58.957031 52.539063 C 44.449219 68.820313 19.488281 70.253906 3.207031 55.746094 C -13.070313 41.238281 -14.507813 16.28125 0 0 C 1.128906 0.496094 1.753906 1.714844 1.5 2.921875 C 1.246094 4.125 0.183594 4.988281 -1.050781 4.988281 C -2.28125 4.988281 -3.347656 4.125 -3.601563 2.921875 C -3.851563 1.714844 -3.226563 0.496094 -2.101563 0 L -2.101563 52.5 Z M 58.957031 52.539063 "/>
<path style=" stroke:none;fill-rule:nonzero;fill:url(#linear0);" d="M 68.015625 52.5 L 68.015625 17.5 C 63.183594 19.9375 57.289063 17.996094 54.851563 13.164063 C 52.414063 8.332031 54.355469 2.4375 59.1875 0 L 1.984375 0 L 1.984375 35 C -7.683594 19.203125 -2.710938 -1.4375 13.085938 -11.101563 C 28.882813 -20.769531 49.523438 -15.796875 59.1875 0 L 97.765625 0 C 148.375 -9.929688 183.175781 -56.660156 178.1875 -107.992188 C 173.199219 -159.324219 130.050781 -198.480469 78.476563 -198.480469 C 26.902344 -198.480469 -16.242188 -159.324219 -21.230469 -107.992188 C -26.21875 -56.660156 8.582031 -9.929688 59.1875 0 C 66.964844 1.246094 65.566406 9.605469 65.566406 9.605469 C 77 23.585938 78.546875 43.195313 69.453125 58.796875 C 60.359375 74.402344 42.535156 82.71875 24.738281 79.664063 C 6.9375 76.609375 -7.09375 62.824219 -10.464844 45.082031 C -13.835938 27.339844 -5.835938 9.367188 9.605469 0 Z M 68.015625 52.5 "/>
<path style=" stroke:none;fill-rule:nonzero;fill:rgb(9.803922%,54.117647%,70.196078%);fill-opacity:1;" d="M 1.945313 44.410156 L 1.945313 44.140625 C -0.511719 41.203125 -0.222656 36.851563 2.601563 34.265625 C 5.425781 31.683594 9.785156 31.777344 12.492188 34.488281 C 15.199219 37.195313 15.296875 41.550781 12.710938 44.378906 C 10.125 47.203125 5.773438 47.492188 2.839844 45.035156 L 2.839844 9.644531 C 4.902344 8.492188 7.480469 8.851563 9.152344 10.523438 C 10.824219 12.195313 11.183594 14.773438 10.035156 16.839844 L 13.609375 16.839844 Z M 1.945313 44.410156 "/>
<path style=" stroke:none;fill-rule:nonzero;fill:rgb(100%,100%,100%);fill-opacity:1;" d="M 47.988281 32.976563 C 38.882813 33.277344 31.257813 26.140625 30.957031 17.035156 C 30.65625 7.925781 37.792969 0.300781 46.898438 0 L 43.011719 0 C 42.777344 -0.542969 42.582031 -1.128906 42.351563 -1.671875 C 41.496094 -3.890625 40.5625 -6.105469 39.667969 -8.285156 L 39.355469 -9.023438 C 41.601563 -10.46875 44.566406 -10.042969 46.316406 -8.027344 C 48.066406 -6.007813 48.066406 -3.011719 46.316406 -0.996094 C 44.566406 1.023438 41.601563 1.445313 39.355469 0 L 39.003906 0.777344 C 38.035156 2.957031 37.101563 5.171875 36.167969 7.390625 L 35.464844 9.101563 L 31.578125 9.101563 C 32.164063 9.101563 32.644531 9.5625 32.667969 10.148438 L 35.777344 10.148438 C 38.984375 10.371094 42.1875 10.667969 45.382813 11.042969 C 46.589844 8.945313 47.714844 6.804688 48.804688 4.707031 C 49.503906 3.382813 50.167969 2.0625 50.828125 0.816406 L 55.726563 0.816406 L 57.59375 4.707031 C 58.683594 6.84375 59.773438 8.984375 60.898438 11.082031 C 60.890625 24.839844 49.730469 35.984375 35.972656 35.972656 C 22.214844 35.960938 11.074219 24.800781 11.082031 11.042969 C 10.382813 8.75 9.605469 6.496094 8.828125 4.238281 L 7.777344 1.398438 L 10.65625 1.398438 C 13.320313 3.171875 14.042969 6.765625 12.269531 9.429688 C 10.496094 12.09375 6.902344 12.816406 4.238281 11.042969 Z M 35 17.65625 C 33.261719 17.65625 31.851563 19.066406 31.851563 20.804688 C 31.851563 22.546875 33.261719 23.957031 35 23.957031 C 36.738281 23.957031 38.148438 22.546875 38.148438 20.804688 Z M 36.671875 31.890625 L 36.671875 31.617188 L 37.957031 28.816406 L 39.199219 31.578125 L 39.199219 31.890625 Z M 36.671875 31.890625 "/>
</g>
</svg>
