<?xml version="1.0" encoding="UTF-8"?>
<svg xmlns="http://www.w3.org/2000/svg" xmlns:xlink="http://www.w3.org/1999/xlink" width="70pt" height="70pt" viewBox="0 0 70 70" version="1.1">
<defs>
<radialGradient id="radial0" gradientUnits="userSpaceOnUse" cx="-6811.4" cy="6729.69" fx="-6811.4" fy="6729.69" r="17" gradientTransform="matrix(1.944444,0,0,-1.944444,13280.205556,13121.305556)">
<stop offset="0.18" style="stop-color:rgb(36.862745%,62.745098%,93.72549%);stop-opacity:1;"/>
<stop offset="1" style="stop-color:rgb(0%,47.058824%,83.137255%);stop-opacity:1;"/>
</radialGradient>
</defs>
<g id="surface1">
<path style=" stroke:none;fill-rule:nonzero;fill:url(#radial0);" d="M 55.261719 61.132813 C 38.378906 76.394531 12.324219 75.078125 -2.9375 58.195313 C -18.195313 41.316406 -16.882813 15.261719 0 0 L 0.351563 -0.234375 C 15.570313 -10.242188 36.015625 -6.050781 46.074219 9.136719 C 56.128906 24.328125 52.003906 44.785156 36.847656 54.890625 C 21.691406 64.996094 1.21875 60.933594 -8.933594 45.808594 C -19.085938 30.6875 -15.089844 10.199219 0 0 "/>
<path style=" stroke:none;fill-rule:nonzero;fill:rgb(36.862745%,62.745098%,93.72549%);fill-opacity:1;" d="M 35 5.09375 C 43.351563 -6.15625 58.398438 -10.101563 71.195313 -4.390625 C 83.996094 1.316406 91.113281 15.148438 88.316406 28.882813 C 85.523438 42.613281 73.570313 52.5625 59.558594 52.820313 C 45.546875 53.074219 33.238281 43.566406 29.945313 29.945313 Z M 55.027344 15.167969 C 55.875 0.835938 67.195313 -10.660156 81.515625 -11.722656 C 95.832031 -12.785156 108.726563 -3.09375 111.683594 10.957031 C 114.644531 25.003906 106.75 39.074219 93.21875 43.871094 C 79.6875 48.671875 64.691406 42.71875 58.140625 29.945313 Z M 35 6.765625 C 36.921875 -6.28125 48.429688 -15.738281 61.601563 -15.097656 C 74.773438 -14.453125 85.308594 -3.917969 85.953125 9.253906 C 86.59375 22.425781 77.136719 33.933594 64.089844 35.855469 L 64.089844 39.746094 L 108.851563 28.3125 Z M 27.222656 7.777344 C 33.234375 13.492188 36.941406 21.214844 37.644531 29.476563 Z M 14.464844 54.445313 C 18.476563 46.503906 27.152344 42.058594 35.941406 43.4375 C 44.730469 44.820313 51.625 51.714844 53.003906 60.503906 C 54.386719 69.289063 49.941406 77.964844 42 81.976563 Z M 39.394531 63 C 45.359375 51.941406 58.054688 46.320313 70.25 49.34375 C 82.445313 52.367188 91.050781 63.261719 91.160156 75.828125 C 91.269531 88.390625 82.859375 99.4375 70.71875 102.671875 C 58.578125 105.910156 45.785156 100.515625 39.628906 89.5625 L 62.960938 112.894531 L 120.246094 112.894531 L 124.132813 106.320313 Z M 42.234375 62.378906 C 41.527344 50.875 48.011719 40.132813 58.519531 35.398438 C 69.027344 30.664063 81.367188 32.925781 89.515625 41.074219 C 97.664063 49.222656 99.921875 61.5625 95.1875 72.070313 C 90.453125 82.578125 79.714844 89.0625 68.210938 88.355469 Z M 47.988281 49.855469 C 48.300781 48.457031 48.570313 47.015625 48.765625 45.5 L 46.976563 45.929688 C 46.785156 47.132813 46.589844 48.339844 46.316406 49.464844 C 50.695313 62.058594 50.695313 75.761719 46.316406 88.355469 C 46.042969 87.304688 45.851563 86.179688 45.65625 85.011719 C 46.578125 74.144531 56.136719 66.082031 67.003906 67.003906 C 77.875 67.929688 85.933594 77.488281 85.011719 88.355469 L 83.222656 87.851563 C 83.835938 87.957031 84.433594 88.125 85.011719 88.355469 C 85.011719 89.601563 85.4375 90.765625 85.671875 91.894531 C 93.132813 99.394531 94.5 111.023438 88.976563 120.050781 L 113.4375 120.050781 C 113.167969 120.984375 112.933594 121.996094 112.738281 123.003906 C 112.542969 124.015625 112.738281 123.976563 112.429688 124.445313 L 114.253906 124.015625 L 114.253906 123.355469 C 114.488281 122.34375 114.722656 121.371094 114.996094 120.4375 C 83.554688 121.199219 57.257813 96.726563 55.757813 65.3125 C 54.253906 33.902344 78.101563 7.03125 109.46875 4.792969 C 140.839844 2.550781 168.261719 25.757813 171.242188 57.0625 C 174.21875 88.371094 151.667969 116.332031 120.4375 120.050781 C 120.710938 121.101563 120.984375 122.226563 121.214844 123.355469 L 123.003906 123.785156 C 122.71875 122.382813 122.410156 121.085938 122.070313 119.894531 C 121.273438 107.410156 128.289063 95.734375 139.6875 90.582031 C 151.082031 85.425781 164.484375 87.871094 173.328125 96.714844 C 182.171875 105.5625 184.617188 118.960938 179.460938 130.359375 C 174.308594 141.757813 162.632813 148.773438 150.148438 147.972656 Z M 47.988281 49.855469 "/>
<path style=" stroke:none;fill-rule:nonzero;fill:rgb(100%,100%,100%);fill-opacity:1;" d="M 14.351563 27.222656 C 5.929688 13.964844 8.835938 -3.503906 21.089844 -13.324219 C 33.34375 -23.144531 51.023438 -22.171875 62.128906 -11.066406 C 73.234375 0.0351563 74.207031 17.71875 64.382813 29.972656 C 54.5625 42.226563 37.097656 45.128906 23.839844 36.710938 L 23.839844 42.894531 C 23.695313 45.414063 22.828125 47.746094 21.464844 49.273438 C 31.3125 48.617188 39.828125 56.070313 40.484375 65.917969 C 41.136719 75.765625 33.6875 84.277344 23.839844 84.933594 Z M 16.488281 41.726563 C 9.695313 38.058594 1.238281 39.933594 -3.375 46.125 C -7.988281 52.316406 -7.359375 60.957031 -1.898438 66.414063 C 3.5625 71.875 12.199219 72.503906 18.390625 67.890625 C 24.585938 63.28125 26.457031 54.824219 22.789063 48.027344 Z M 30.566406 43.207031 L 30.566406 26.832031 L 32.859375 26.832031 L 38.109375 35 C 59.457031 23.59375 85.96875 30.117188 99.589844 50.121094 C 113.207031 70.128906 109.554688 97.1875 91.113281 112.863281 C 72.675781 128.539063 45.386719 127.796875 27.828125 111.136719 C 10.273438 94.476563 8.097656 67.261719 22.789063 48.027344 C 22.59375 45.851563 22.554688 43.867188 22.554688 41.300781 L 22.554688 26.832031 L 24.5 26.832031 L 24.5 43.207031 L 22.359375 43.207031 L 35.503906 35 C 34.378906 33.171875 33.289063 31.109375 32.433594 29.554688 L 32.433594 43.320313 Z M 46.238281 40.640625 C 48.277344 45.246094 46.199219 50.632813 41.589844 52.675781 C 36.984375 54.714844 31.597656 52.632813 29.554688 48.027344 C 31.734375 48.027344 32.976563 46.898438 32.976563 45.226563 C 32.976563 43.554688 32.121094 42.816406 29.90625 42 C 27.6875 41.183594 25.550781 39.667969 25.550781 37.332031 C 27.699219 35.1875 31.179688 35.1875 33.328125 37.332031 C 35.476563 39.480469 35.476563 42.964844 33.328125 45.109375 L 32.707031 46.859375 C 32.359375 46.320313 32.097656 45.730469 31.929688 45.109375 C 29.671875 45.109375 28.816406 46.433594 28.816406 47.5625 C 28.816406 48.6875 29.828125 49.855469 32.082031 50.710938 C 34.339844 51.566406 36.285156 53.121094 36.285156 55.535156 C 36.285156 57.945313 34.417969 60.238281 30.527344 60.238281 C 27.121094 62.164063 22.839844 61.480469 20.199219 58.597656 C 17.558594 55.710938 17.257813 51.386719 19.476563 48.164063 C 21.691406 44.941406 25.839844 43.675781 29.476563 45.109375 Z M 46.238281 40.640625 "/>
</g>
</svg>
