<?xml version="1.0" encoding="UTF-8"?>
<svg xmlns="http://www.w3.org/2000/svg" xmlns:xlink="http://www.w3.org/1999/xlink" width="70pt" height="70pt" viewBox="0 0 70 70" version="1.1">
<defs>
<linearGradient id="linear0" gradientUnits="userSpaceOnUse" x1="8.63" y1="17.59" x2="8.63" y2="0.59" gradientTransform="matrix(3.888889,0,0,3.888889,0,0)">
<stop offset="0" style="stop-color:rgb(0%,47.058824%,83.137255%);stop-opacity:1;"/>
<stop offset="0.82" style="stop-color:rgb(36.862745%,62.745098%,93.72549%);stop-opacity:1;"/>
</linearGradient>
</defs>
<g id="surface1">
<path style=" stroke:none;fill-rule:nonzero;fill:rgb(100%,100%,100%);fill-opacity:1;" d="M 37.292969 2.800781 L 9.179688 2.800781 C 8.972656 2.117188 9.113281 1.378906 9.554688 0.820313 C 9.996094 0.265625 10.683594 -0.0429688 11.394531 0 L 11.394531 60.667969 C -5.359375 60.667969 -18.9375 47.085938 -18.9375 30.332031 C -18.9375 13.582031 -5.359375 0 11.394531 0 L 60.121094 0 C 60.121094 13.457031 49.214844 24.363281 35.757813 24.363281 C 22.300781 24.363281 11.394531 13.457031 11.394531 0 L 11.394531 25.511719 C 4.351563 26.113281 -1.847656 20.890625 -2.449219 13.84375 C -3.050781 6.800781 2.171875 0.601563 9.214844 0 L -6.960938 0 C -6.09375 0.5 -5.667969 1.523438 -5.929688 2.492188 C -6.1875 3.460938 -7.066406 4.136719 -8.070313 4.136719 C -9.074219 4.136719 -9.949219 3.460938 -10.210938 2.492188 C -10.46875 1.523438 -10.046875 0.5 -9.179688 0 L -9.179688 5.015625 C -10.5625 5.628906 -12.183594 5.003906 -12.792969 3.617188 C -13.40625 2.230469 -12.78125 0.613281 -11.394531 0 Z M 37.292969 2.800781 "/>
<path style=" stroke:none;fill-rule:nonzero;fill:url(#linear0);" d="M 36.285156 5.640625 L 36.285156 20.882813 C 30.515625 30.902344 17.71875 34.351563 7.699219 28.582031 C -2.320313 22.816406 -5.765625 10.019531 0 0 L 15.554688 0 L 15.554688 38.617188 L 9.878906 38.617188 L 9.878906 5.640625 L 36.285156 5.640625 M 37.332031 2.292969 L 8.789063 2.292969 C 8.777344 1.691406 9.011719 1.105469 9.4375 0.675781 C 9.859375 0.242188 10.4375 0 11.042969 0 L 11.042969 66.109375 C -7.210938 66.109375 -22.011719 51.3125 -22.011719 33.054688 C -22.011719 14.800781 -7.210938 0 11.042969 0 L 58.332031 0 C 58.332031 13.058594 47.746094 23.644531 34.6875 23.644531 C 21.628906 23.644531 11.042969 13.058594 11.042969 0 L 11.042969 25.394531 C 4.03125 25.394531 -1.652344 19.710938 -1.652344 12.695313 C -1.652344 5.683594 4.03125 0 11.042969 0 L -5.445313 0 C -4.558594 0.511719 -4.128906 1.550781 -4.394531 2.539063 C -4.65625 3.523438 -5.550781 4.207031 -6.570313 4.207031 C -7.59375 4.207031 -8.488281 3.523438 -8.75 2.539063 C -9.015625 1.550781 -8.585938 0.511719 -7.699219 0 L -7.699219 4.550781 C -8.957031 4.550781 -9.976563 3.53125 -9.976563 2.273438 C -9.976563 1.019531 -8.957031 0 -7.699219 0 Z M 37.332031 2.292969 "/>
<path style=" stroke:none;fill-rule:nonzero;fill:rgb(0%,47.058824%,83.137255%);fill-opacity:1;" d="M 59.695313 23.566406 L 38.890625 2.800781 L 38.890625 19.714844 C 33.445313 30.457031 20.324219 34.746094 9.585938 29.304688 C -1.152344 23.859375 -5.445313 10.738281 0 0 Z M 59.695313 23.566406 "/>
<path style=" stroke:none;fill-rule:nonzero;fill:rgb(36.862745%,62.745098%,93.72549%);fill-opacity:1;" d="M 20.496094 41.066406 C 20.023438 38.992188 21 36.859375 22.878906 35.863281 C 24.761719 34.871094 27.074219 35.257813 28.523438 36.8125 C 29.976563 38.371094 30.203125 40.703125 29.078125 42.511719 C 27.953125 44.316406 25.757813 45.144531 23.722656 44.527344 L 27.609375 48.417969 L 27.609375 42.777344 C 29.167969 42.777344 30.429688 44.039063 30.429688 45.597656 C 30.429688 47.15625 29.167969 48.417969 27.609375 48.417969 C 28.660156 48.417969 29.207031 47.601563 29.207031 46.003906 L 29.207031 34.726563 L 31.578125 34.726563 Z M 22.285156 44.957031 L 22.285156 42.621094 C 22.140625 40.503906 23.328125 38.519531 25.261719 37.644531 C 27.195313 36.765625 29.46875 37.179688 30.96875 38.679688 C 32.46875 40.183594 32.882813 42.457031 32.003906 44.386719 C 31.128906 46.320313 29.144531 47.507813 27.027344 47.367188 L 27.804688 47.367188 L 28.390625 47.132813 C 28.9375 47.351563 29.277344 47.910156 29.214844 48.5 C 29.152344 49.089844 28.707031 49.566406 28.121094 49.664063 C 27.539063 49.765625 26.960938 49.464844 26.707031 48.929688 C 26.449219 48.394531 26.582031 47.757813 27.027344 47.367188 C 27.273438 47.324219 27.527344 47.40625 27.703125 47.585938 C 27.882813 47.761719 27.964844 48.011719 27.921875 48.261719 C 28.132813 48.386719 28.417969 48.359375 28.589844 48.199219 C 28.761719 48.035156 28.761719 47.792969 28.589844 47.628906 C 28.417969 47.464844 28.132813 47.4375 27.921875 47.5625 L 27.027344 47.171875 C 28.65625 45.410156 31.324219 45.097656 33.316406 46.4375 C 35.304688 47.777344 36.019531 50.367188 35 52.539063 C 33.976563 54.710938 31.523438 55.808594 29.222656 55.128906 C 26.921875 54.449219 25.460938 52.195313 25.785156 49.816406 L 29.167969 53.199219 L 29.167969 57.828125 C 29.324219 58.984375 29.351563 60.539063 29.242188 61.972656 C 29.132813 63.40625 28.902344 64.53125 28.621094 64.984375 L 36.59375 64.984375 L 41.648438 65.292969 L 41.648438 67.472656 C 41.804688 68.0625 41.691406 68.6875 41.339844 69.183594 L 27.222656 36.4375 L 25.746094 36.4375 C 25.871094 36.695313 25.953125 36.972656 25.976563 37.253906 L 27.027344 38.304688 L 27.027344 38.734375 L 27.648438 39.082031 L 28.464844 39.472656 C 27.347656 36.050781 28.722656 32.3125 31.789063 30.429688 C 34.855469 28.546875 38.816406 29.011719 41.359375 31.558594 C 43.902344 34.101563 44.371094 38.058594 42.488281 41.125 C 40.605469 44.191406 36.863281 45.566406 33.445313 44.449219 L 33.445313 48.882813 C 33.703125 48.484375 33.984375 48.582031 34.207031 49.148438 C 34.429688 49.714844 34.5625 50.683594 34.570313 51.761719 L 37.214844 54.40625 L 40.832031 54.40625 C 43.992188 54.410156 46.550781 55.289063 46.550781 56.363281 C 46.550781 57.433594 43.992188 58.300781 40.832031 58.292969 L 44.722656 56.660156 L 43.476563 56.273438 Z M 35.582031 45.578125 C 37.226563 44.199219 39.574219 44.050781 41.378906 45.207031 C 43.183594 46.367188 44.027344 48.566406 43.457031 50.632813 C 42.886719 52.699219 41.039063 54.15625 38.894531 54.230469 C 36.753906 54.300781 34.8125 52.96875 34.105469 50.945313 L 39.859375 56.699219 L 39.859375 99.476563 C 40.316406 99.441406 40.742188 100.023438 41.027344 101.070313 C 41.3125 102.117188 41.425781 103.523438 41.339844 104.921875 L 46.898438 104.921875 C 49.800781 104.964844 52.152344 105.871094 52.152344 106.945313 C 52.152344 108.019531 49.800781 108.855469 46.898438 108.8125 Z M 35.582031 36.75 C 36.675781 36.789063 37.597656 37.570313 37.816406 38.640625 C 38.039063 39.707031 37.5 40.789063 36.515625 41.261719 L 38.929688 41.261719 C 38.945313 41.75 39.800781 42.148438 40.84375 42.15625 C 41.886719 42.160156 42.730469 41.773438 42.738281 41.285156 C 42.746094 40.792969 41.914063 40.386719 40.871094 40.367188 C 40.871094 38.21875 42.613281 36.476563 44.761719 36.476563 C 46.910156 36.476563 48.648438 38.21875 48.648438 40.367188 C 48.648438 42.515625 46.910156 44.253906 44.761719 44.253906 L 47.132813 44.253906 Z M 51.839844 45.382813 L 49.429688 45.382813 L 45.109375 38.773438 C 47.121094 34.765625 51.75 32.816406 56.019531 34.183594 C 60.289063 35.550781 62.929688 39.824219 62.238281 44.253906 C 61.546875 48.683594 57.730469 51.949219 53.246094 51.949219 C 48.765625 51.949219 44.949219 48.683594 44.253906 44.253906 L 44.253906 51.722656 L 42.039063 51.722656 L 42.039063 34.726563 L 44.605469 34.726563 L 48.726563 41.105469 L 49.273438 41.960938 C 54.074219 41.273438 58.65625 44.214844 60.023438 48.871094 C 61.390625 53.527344 59.132813 58.480469 54.71875 60.5 C 50.304688 62.519531 45.078125 60.988281 42.453125 56.910156 C 39.824219 52.828125 40.59375 47.4375 44.253906 44.253906 L 44.253906 34.726563 L 46.511719 34.726563 Z M 51.839844 45.382813 "/>
</g>
</svg>
