<?xml version="1.0" encoding="UTF-8"?>
<svg xmlns="http://www.w3.org/2000/svg" xmlns:xlink="http://www.w3.org/1999/xlink" width="70pt" height="70pt" viewBox="0 0 70 70" version="1.1">
<defs>
<linearGradient id="linear0" gradientUnits="userSpaceOnUse" x1="9.118" y1="15.936" x2="9.118" y2="8.804" gradientTransform="matrix(3.888889,0,0,3.888889,0,0)">
<stop offset="0.26" style="stop-color:rgb(65.098039%,47.843137%,95.686275%);stop-opacity:1;"/>
<stop offset="0.87" style="stop-color:rgb(46.666667%,22.745098%,86.27451%);stop-opacity:1;"/>
</linearGradient>
</defs>
<g id="surface1">
<path style=" stroke:none;fill-rule:nonzero;fill:url(#linear0);" d="M 56.1875 34.222656 L 14.3125 34.222656 L 14.3125 53.0625 C 14.3125 57.960938 23.6875 61.957031 35.457031 61.957031 C 47.230469 61.957031 56.609375 57.960938 56.609375 53.0625 Z M 56.1875 34.222656 "/>
<path style=" stroke:none;fill-rule:nonzero;fill:rgb(65.098039%,47.843137%,95.686275%);fill-opacity:1;" d="M 32.640625 8.382813 L 1.480469 24.285156 C 2.328125 24.007813 3.253906 24.144531 3.980469 24.660156 C 4.707031 25.171875 5.152344 26 5.171875 26.886719 L 36.328125 40.457031 C 40.078125 31.851563 36.140625 21.839844 27.535156 18.09375 C 18.929688 14.347656 8.917969 18.285156 5.171875 26.886719 L 68.445313 28.960938 C 68.375 27.796875 69.03125 26.710938 70.097656 26.234375 C 71.160156 25.753906 72.410156 25.984375 73.234375 26.808594 C 74.058594 27.632813 74.285156 28.882813 73.808594 29.945313 C 73.332031 31.007813 72.246094 31.667969 71.082031 31.597656 L 38.167969 15.769531 C 42.539063 15.75 46.101563 19.277344 46.121094 23.644531 C 46.140625 28.015625 42.613281 31.578125 38.242188 31.597656 Z M 32.640625 8.382813 "/>
<path style=" stroke:none;fill-rule:nonzero;fill:rgb(31.372549%,90.196078%,100%);fill-opacity:1;" d="M 61.445313 39.074219 C 66.3125 45.136719 65.683594 53.929688 59.996094 59.234375 L 37.363281 23.15625 L 33.054688 26.398438 L 46.667969 32.199219 C 55.210938 23.65625 69.0625 23.65625 77.605469 32.199219 C 86.152344 40.742188 86.152344 54.597656 77.605469 63.140625 L 79.863281 59.902344 L 81.90625 62.542969 C 78.847656 63.390625 75.644531 63.59375 72.5 63.140625 Z M 61.445313 39.074219 "/>
<path style=" stroke:none;fill-rule:nonzero;fill:rgb(33.333333%,18.431373%,60%);fill-opacity:1;" d="M 39.96875 25.117188 C 39.96875 23.664063 37.636719 22.480469 34.753906 22.480469 C 31.875 22.480469 29.539063 23.664063 29.539063 25.117188 C 29.539063 26.574219 31.875 27.753906 34.753906 27.753906 C 37.636719 27.753906 39.96875 26.574219 39.96875 25.117188 Z M 39.96875 25.117188 "/>
</g>
</svg>
