<?xml version="1.0" encoding="UTF-8"?>
<svg xmlns="http://www.w3.org/2000/svg" xmlns:xlink="http://www.w3.org/1999/xlink" width="70pt" height="70pt" viewBox="0 0 70 70" version="1.1">
<defs>
<radialGradient id="radial0" gradientUnits="userSpaceOnUse" cx="8.38" cy="445.94" fx="8.38" fy="445.94" r="4.05" gradientTransform="matrix(3.888889,0,0,6.183333,0,-2741.627778)">
<stop offset="0" style="stop-color:rgb(36.862745%,62.745098%,93.72549%);stop-opacity:1;"/>
<stop offset="0.11" style="stop-color:rgb(31.764706%,60.392157%,92.156863%);stop-opacity:1;"/>
<stop offset="0.51" style="stop-color:rgb(14.509804%,53.333333%,87.45098%);stop-opacity:1;"/>
<stop offset="0.82" style="stop-color:rgb(3.921569%,48.627451%,84.313725%);stop-opacity:1;"/>
<stop offset="1" style="stop-color:rgb(0%,47.058824%,83.137255%);stop-opacity:1;"/>
</radialGradient>
<filter id="alpha" filterUnits="objectBoundingBox" x="0%" y="0%" width="100%" height="100%">
  <feColorMatrix type="matrix" in="SourceGraphic" values="0 0 0 0 1 0 0 0 0 1 0 0 0 0 1 0 0 0 1 0"/>
</filter>
<mask id="mask0">
  <g filter="url(#alpha)">
<rect x="0" y="0" width="70" height="70" style="fill:rgb(0%,0%,0%);fill-opacity:0.74902;stroke:none;"/>
  </g>
</mask>
<clipPath id="clip1">
  <rect x="0" y="0" width="70" height="70"/>
</clipPath>
<g id="surface5" clip-path="url(#clip1)">
<path style=" stroke:none;fill-rule:nonzero;fill:rgb(76.470588%,94.509804%,100%);fill-opacity:1;" d="M 49.195313 58.722656 C 48.980469 58.691406 48.765625 58.800781 48.671875 58.996094 C 48.574219 59.191406 48.609375 59.425781 48.765625 59.578125 C 48.917969 59.734375 49.152344 59.773438 49.347656 59.675781 C 49.542969 59.578125 49.652344 59.367188 49.621094 59.148438 L 49.621094 50.398438 C 49.582031 50.632813 49.417969 50.824219 49.195313 50.90625 L 49.464844 51.179688 L 49.464844 58.332031 C 47.492188 58.332031 45.890625 56.730469 45.890625 54.753906 C 45.890625 52.78125 47.492188 51.179688 49.464844 51.179688 Z M 49.195313 58.722656 "/>
</g>
<mask id="mask1">
  <g filter="url(#alpha)">
<rect x="0" y="0" width="70" height="70" style="fill:rgb(0%,0%,0%);fill-opacity:0.74902;stroke:none;"/>
  </g>
</mask>
<clipPath id="clip2">
  <rect x="0" y="0" width="70" height="70"/>
</clipPath>
<g id="surface8" clip-path="url(#clip2)">
<path style=" stroke:none;fill-rule:nonzero;fill:rgb(76.470588%,94.509804%,100%);fill-opacity:1;" d="M 46.121094 38.070313 L 56.117188 38.070313 C 56.460938 38.070313 56.738281 38.351563 56.738281 38.695313 L 56.738281 38.773438 C 56.738281 39.117188 56.460938 39.394531 56.117188 39.394531 L 46.121094 39.394531 C 45.777344 39.394531 45.5 39.117188 45.5 38.773438 L 45.5 38.695313 C 45.5 38.351563 45.777344 38.070313 46.121094 38.070313 Z M 46.121094 38.070313 "/>
</g>
<mask id="mask2">
  <g filter="url(#alpha)">
<rect x="0" y="0" width="70" height="70" style="fill:rgb(0%,0%,0%);fill-opacity:0.74902;stroke:none;"/>
  </g>
</mask>
<clipPath id="clip3">
  <rect x="0" y="0" width="70" height="70"/>
</clipPath>
<g id="surface11" clip-path="url(#clip3)">
<path style=" stroke:none;fill-rule:nonzero;fill:rgb(76.470588%,94.509804%,100%);fill-opacity:1;" d="M 46.121094 40.25 L 56.117188 40.25 C 56.460938 40.25 56.738281 40.527344 56.738281 40.871094 L 56.738281 40.949219 C 56.738281 41.292969 56.460938 41.570313 56.117188 41.570313 L 46.121094 41.570313 C 45.777344 41.570313 45.5 41.292969 45.5 40.949219 L 45.5 40.871094 C 45.5 40.527344 45.777344 40.25 46.121094 40.25 Z M 46.121094 40.25 "/>
</g>
</defs>
<g id="surface1">
<path style=" stroke:none;fill-rule:nonzero;fill:rgb(0%,47.058824%,83.137255%);fill-opacity:1;" d="M 8.246094 1.945313 L 15.945313 1.945313 L 15.945313 4.160156 L 8.246094 4.160156 Z M 64.632813 4.160156 L 65.878906 4.160156 L 65.878906 5.328125 L 68.015625 5.328125 L 68.015625 1.945313 L 64.632813 1.945313 Z M 5.445313 65.722656 L 4.355469 65.722656 L 4.355469 64.476563 L 1.945313 64.476563 L 1.945313 68.09375 L 5.445313 68.09375 Z M 65.917969 64.554688 L 65.917969 65.722656 L 64.671875 65.722656 L 64.671875 68.054688 L 68.054688 68.054688 L 68.054688 64.554688 Z M 4.394531 5.289063 L 4.394531 4.121094 L 5.484375 4.121094 L 5.484375 1.945313 L 1.945313 1.945313 L 1.945313 5.289063 Z M 19.714844 1.945313 L 27.378906 1.945313 L 27.378906 4.160156 L 19.714844 4.160156 Z M 31.109375 1.945313 L 38.773438 1.945313 L 38.773438 4.160156 L 31.109375 4.160156 Z M 42.621094 1.945313 L 50.285156 1.945313 L 50.285156 4.160156 L 42.621094 4.160156 Z M 54.054688 1.945313 L 61.714844 1.945313 L 61.714844 4.160156 L 54.054688 4.160156 Z M 8.320313 65.722656 L 15.945313 65.722656 L 15.945313 67.9375 L 8.320313 67.9375 Z M 19.753906 65.722656 L 27.417969 65.722656 L 27.417969 67.9375 L 19.753906 67.9375 Z M 31.226563 65.722656 L 38.890625 65.722656 L 38.890625 67.9375 L 31.226563 67.9375 Z M 42.699219 65.722656 L 50.359375 65.722656 L 50.359375 67.9375 L 42.699219 67.9375 Z M 54.132813 65.722656 L 61.792969 65.722656 L 61.792969 67.9375 L 54.132813 67.9375 Z M 65.800781 7.972656 L 68.015625 7.972656 L 68.015625 15.632813 L 65.800781 15.632813 Z M 65.800781 19.445313 L 68.015625 19.445313 L 68.015625 27.105469 L 65.800781 27.105469 Z M 65.800781 30.878906 L 68.015625 30.878906 L 68.015625 38.5 L 65.800781 38.5 Z M 65.800781 42.3125 L 68.015625 42.3125 L 68.015625 49.972656 L 65.800781 49.972656 Z M 65.800781 53.785156 L 68.015625 53.785156 L 68.015625 61.445313 L 65.800781 61.445313 Z M 1.945313 7.894531 L 4.160156 7.894531 L 4.160156 15.554688 L 1.945313 15.554688 Z M 1.945313 19.367188 L 4.160156 19.367188 L 4.160156 27.027344 L 1.945313 27.027344 Z M 1.945313 30.800781 L 4.160156 30.800781 L 4.160156 38.5 L 1.945313 38.5 Z M 1.945313 42.273438 L 4.160156 42.273438 L 4.160156 49.933594 L 1.945313 49.933594 Z M 1.945313 53.667969 L 4.160156 53.667969 L 4.160156 61.328125 L 1.945313 61.328125 Z M 1.945313 53.667969 "/>
<path style=" stroke:none;fill-rule:nonzero;fill:rgb(46.27451%,73.72549%,17.647059%);fill-opacity:1;" d="M 40.054688 42.777344 C 28.242188 53.839844 9.699219 53.230469 -1.359375 41.417969 C -12.421875 29.605469 -11.8125 11.0625 0 0 L 2.957031 -2.957031 C 2.613281 -1.957031 2.238281 -0.972656 1.828125 0 C -10.109375 0 -19.753906 3.890625 -19.753906 8.867188 C -19.753906 13.84375 20.609375 48.222656 32.589844 48.222656 C 29.277344 67.914063 13.640625 83.222656 -6.117188 86.117188 C -25.878906 89.007813 -45.246094 78.820313 -54.0625 60.902344 C -62.875 42.984375 -59.125 21.425781 -44.773438 7.535156 C -30.425781 -6.351563 -8.753906 -9.394531 8.867188 0 Z M 40.054688 42.777344 "/>
<path style=" stroke:none;fill-rule:nonzero;fill:url(#radial0);" d="M 54.132813 19.640625 C 54.132813 14.742188 44.488281 10.773438 32.589844 10.773438 C 20.691406 10.773438 11.042969 14.742188 11.042969 19.640625 C 11.042969 24.535156 20.691406 28.503906 32.589844 28.503906 C 44.488281 28.503906 54.132813 24.535156 54.132813 19.640625 Z M 54.132813 19.640625 "/>
<path style=" stroke:none;fill-rule:nonzero;fill:rgb(0%,35.686275%,63.137255%);fill-opacity:1;" d="M 40.25 19.523438 C 40.25 18.449219 37.046875 17.578125 33.09375 17.578125 C 29.140625 17.578125 25.9375 18.449219 25.9375 19.523438 C 25.9375 20.597656 29.140625 21.464844 33.09375 21.464844 C 37.046875 21.464844 40.25 20.597656 40.25 19.523438 Z M 40.25 19.523438 "/>
<path style=" stroke:none;fill-rule:nonzero;fill:rgb(0%,47.058824%,83.137255%);fill-opacity:1;" d="M 60.589844 41.417969 C 49.152344 58.148438 26.316406 62.441406 9.585938 51.003906 C -7.144531 39.566406 -11.4375 16.730469 0 0 L -6.84375 -6.882813 C -5.566406 -6.210938 -4.765625 -4.886719 -4.765625 -3.441406 C -4.765625 -1.996094 -5.566406 -0.671875 -6.84375 0 L 41.300781 35.777344 C 31.421875 49.074219 12.632813 51.839844 -0.660156 41.960938 C -13.957031 32.082031 -16.722656 13.292969 -6.84375 0 L -1.128906 5.832031 C -2.738281 7.410156 -5.324219 7.386719 -6.902344 5.773438 C -8.480469 4.164063 -8.457031 1.578125 -6.84375 0 L -6.84375 10.617188 C -9.777344 10.617188 -12.152344 8.238281 -12.152344 5.308594 C -12.152344 2.375 -9.777344 0 -6.84375 0 L -4.238281 2.605469 C -3.519531 1.886719 -3.519531 0.71875 -4.238281 0 C -4.957031 -0.71875 -6.125 -0.71875 -6.84375 0 L -2.878906 -3.964844 C -1.78125 -2.871094 -1.78125 -1.09375 -2.878906 0 C -3.972656 1.09375 -5.75 1.09375 -6.84375 0 L -8.011719 -1.089844 C -7.710938 -1.410156 -7.207031 -1.429688 -6.882813 -1.128906 C -6.5625 -0.828125 -6.542969 -0.320313 -6.84375 0 L -5.792969 -1.089844 C -5.492188 -0.800781 -5.484375 -0.320313 -5.773438 -0.0195313 C -6.066406 0.28125 -6.542969 0.289063 -6.84375 0 L -7.894531 -1.050781 C -7.605469 -1.339844 -7.132813 -1.339844 -6.84375 -1.050781 C -6.554688 -0.761719 -6.554688 -0.289063 -6.84375 0 L -5.792969 -1.050781 C -5.503906 -0.761719 -5.503906 -0.289063 -5.792969 0 C -6.085938 0.289063 -6.554688 0.289063 -6.84375 0 L -8.320313 -1.554688 L -8.320313 -2.0625 Z M 50.945313 30.605469 C 50.945313 29.359375 51.953125 28.351563 53.199219 28.351563 C 54.445313 28.351563 55.457031 29.359375 55.457031 30.605469 C 55.457031 31.851563 54.445313 32.859375 53.199219 32.859375 Z M 50.945313 30.605469 "/>
<path style=" stroke:none;fill-rule:nonzero;fill:rgb(0%,47.058824%,83.137255%);fill-opacity:1;" d="M 46.859375 27.609375 C 47.078125 24.523438 49.679688 22.148438 52.777344 22.222656 C 55.871094 22.292969 58.363281 24.785156 58.433594 27.878906 C 58.507813 30.972656 56.132813 33.578125 53.042969 33.792969 L 53.042969 34.457031 L 53.042969 19.445313 C 53.042969 24.304688 43.398438 28.273438 31.5 28.273438 C 19.601563 28.273438 10.109375 24.382813 10.109375 19.445313 L 10.109375 24.34375 C 10.109375 29.246094 19.753906 33.210938 31.695313 33.210938 C 11.183594 15.6875 8.613281 -15.089844 25.933594 -35.773438 C 43.253906 -56.457031 74 -59.332031 94.855469 -42.222656 C 115.710938 -25.109375 118.894531 5.609375 101.992188 26.632813 C 85.085938 47.660156 54.402344 51.148438 33.210938 34.457031 Z M 46.859375 27.609375 "/>
<use xlink:href="#surface5" mask="url(#mask0)"/>
<use xlink:href="#surface8" mask="url(#mask1)"/>
<use xlink:href="#surface11" mask="url(#mask2)"/>
<path style=" stroke:none;fill-rule:nonzero;fill:rgb(36.862745%,58.823529%,14.117647%);fill-opacity:1;" d="M 45.5 48.300781 L 43.867188 46.667969 C 32.730469 65.148438 10.535156 73.796875 -10.167969 67.726563 C -30.875 61.652344 -44.878906 42.386719 -44.269531 20.816406 C -43.660156 -0.75 -28.582031 -19.195313 -7.566406 -24.085938 C 13.449219 -28.976563 35.117188 -19.082031 45.1875 0 C 33.25 0 23.605469 -3.890625 23.605469 -8.867188 L 23.605469 -3.929688 C 23.605469 0.972656 33.25 4.9375 45.1875 4.9375 C 62.851563 16.589844 70.171875 38.867188 62.867188 58.726563 C 55.558594 78.582031 35.542969 90.800781 14.542969 88.222656 C -6.460938 85.644531 -22.929688 68.953125 -25.21875 47.917969 C -27.507813 26.878906 -15.019531 7.035156 4.9375 0 Z M 38.382813 37.878906 C 28.828125 36.832031 21.539063 28.84375 21.371094 19.230469 C 21.203125 9.617188 28.207031 1.378906 37.722656 0 C 33.832031 0 30.566406 0.894531 30.566406 1.945313 C 30.566406 2.996094 33.792969 3.890625 37.722656 3.890625 C 32.648438 -4.320313 34.53125 -15.03125 42.101563 -21.019531 C 49.667969 -27.007813 60.523438 -26.378906 67.347656 -19.554688 C 74.171875 -12.726563 74.800781 -1.875 68.8125 5.695313 C 62.824219 13.261719 52.117188 15.144531 43.90625 10.070313 Z M 38.382813 37.878906 "/>
</g>
</svg>
