<?xml version="1.0" encoding="UTF-8"?>
<svg xmlns="http://www.w3.org/2000/svg" xmlns:xlink="http://www.w3.org/1999/xlink" width="70pt" height="70pt" viewBox="0 0 70 70" version="1.1">
<defs>
<linearGradient id="linear0" gradientUnits="userSpaceOnUse" x1="9" y1="0.36" x2="9" y2="18.31" gradientTransform="matrix(3.888889,0,0,3.888889,0,0)">
<stop offset="0.18" style="stop-color:rgb(36.862745%,62.745098%,93.72549%);stop-opacity:1;"/>
<stop offset="1" style="stop-color:rgb(0%,47.058824%,83.137255%);stop-opacity:1;"/>
</linearGradient>
</defs>
<g id="surface1">
<path style=" stroke:none;fill-rule:nonzero;fill:url(#linear0);" d="M 70 44.023438 C 71.242188 48.828125 70.183594 53.9375 67.140625 57.855469 C 64.097656 61.777344 59.40625 64.0625 54.445313 64.050781 L 74.859375 84.464844 L 108.5 84.464844 C 108.5 75.175781 100.96875 67.648438 91.679688 67.648438 C 82.390625 67.648438 74.859375 75.175781 74.859375 84.464844 Z M 70 44.023438 "/>
<path style=" stroke:none;fill-rule:nonzero;fill:rgb(94.901961%,94.901961%,94.901961%);fill-opacity:1;" d="M 47.949219 25.628906 C 51.324219 28.746094 52.609375 33.527344 51.253906 37.917969 L 42.15625 47.132813 C 43.820313 47.15625 45.167969 48.5 45.1875 50.167969 L 45.1875 52.34375 L 54.25 43.167969 C 54.15625 38.1875 57.097656 33.648438 61.679688 31.699219 C 66.261719 29.75 71.570313 30.777344 75.09375 34.300781 C 78.617188 37.824219 79.644531 43.132813 77.695313 47.714844 C 75.746094 52.296875 71.207031 55.238281 66.226563 55.144531 Z M 45.851563 33.792969 C 45.3125 30.148438 47.214844 26.578125 50.542969 24.992188 C 53.867188 23.402344 57.839844 24.167969 60.335938 26.878906 C 62.835938 29.589844 63.273438 33.609375 61.421875 36.792969 C 59.570313 39.980469 55.855469 41.585938 52.265625 40.753906 L 59.539063 48.027344 L 67.820313 48.027344 C 69.457031 47.554688 71.449219 47.78125 72.597656 48.570313 C 73.75 49.363281 73.75 50.503906 72.597656 51.308594 C 71.449219 52.113281 69.457031 52.367188 67.820313 51.917969 C 67.617188 48.199219 69.730469 44.742188 73.128906 43.222656 C 76.527344 41.703125 80.511719 42.441406 83.144531 45.074219 C 85.777344 47.707031 86.511719 51.6875 84.996094 55.089844 C 83.476563 58.488281 80.019531 60.597656 76.300781 60.394531 L 76.300781 65.253906 Z M 45.851563 33.792969 "/>
<path style=" stroke:none;fill-rule:nonzero;fill:rgb(51.372549%,72.54902%,97.647059%);fill-opacity:1;" d="M 46.042969 31.8125 C 46.042969 27.171875 42.300781 23.410156 37.683594 23.410156 C 33.066406 23.410156 29.320313 27.171875 29.320313 31.8125 C 29.320313 36.449219 33.066406 40.210938 37.683594 40.210938 C 42.300781 40.210938 46.042969 36.449219 46.042969 31.8125 Z M 46.042969 31.8125 "/>
</g>
</svg>
