<?xml version="1.0" encoding="UTF-8"?>
<svg xmlns="http://www.w3.org/2000/svg" xmlns:xlink="http://www.w3.org/1999/xlink" width="70pt" height="70pt" viewBox="0 0 70 70" version="1.1">
<defs>
<linearGradient id="linear0" gradientUnits="userSpaceOnUse" x1="11.13" y1="10.95" x2="11.13" y2="1.21" gradientTransform="matrix(3.888889,0,0,3.888889,0,0)">
<stop offset="0" style="stop-color:rgb(0%,47.058824%,83.137255%);stop-opacity:1;"/>
<stop offset="0.16" style="stop-color:rgb(7.45098%,50.196078%,85.490196%);stop-opacity:1;"/>
<stop offset="0.53" style="stop-color:rgb(23.529412%,56.862745%,89.803922%);stop-opacity:1;"/>
<stop offset="0.82" style="stop-color:rgb(33.333333%,61.176471%,92.54902%);stop-opacity:1;"/>
<stop offset="1" style="stop-color:rgb(36.862745%,62.745098%,93.72549%);stop-opacity:1;"/>
</linearGradient>
<linearGradient id="linear1" gradientUnits="userSpaceOnUse" x1="7.06" y1="16.79" x2="7.06" y2="6.78" gradientTransform="matrix(3.888889,0,0,3.888889,0,0)">
<stop offset="0" style="stop-color:rgb(9.803922%,54.117647%,70.196078%);stop-opacity:1;"/>
<stop offset="0" style="stop-color:rgb(9.803922%,54.117647%,70.196078%);stop-opacity:1;"/>
<stop offset="0.11" style="stop-color:rgb(13.333333%,64.705882%,79.607843%);stop-opacity:1;"/>
<stop offset="0.23" style="stop-color:rgb(16.078431%,72.941176%,87.058824%);stop-opacity:1;"/>
<stop offset="0.37" style="stop-color:rgb(18.039216%,78.823529%,92.156863%);stop-opacity:1;"/>
<stop offset="0.53" style="stop-color:rgb(19.215686%,81.960784%,95.294118%);stop-opacity:1;"/>
<stop offset="0.78" style="stop-color:rgb(19.607843%,83.137255%,96.078431%);stop-opacity:1;"/>
</linearGradient>
</defs>
<g id="surface1">
<path style=" stroke:none;fill-rule:nonzero;fill:url(#linear0);" d="M 70 30.722656 C 70.96875 34.339844 70.195313 38.207031 67.910156 41.171875 C 65.621094 44.140625 62.078125 45.867188 58.332031 45.851563 C 62.632813 43.484375 67.839844 43.484375 72.140625 45.851563 L 98.464844 45.851563 C 98.464844 53.121094 92.574219 59.015625 85.304688 59.015625 C 78.03125 59.015625 72.140625 53.121094 72.140625 45.851563 Z M 70 30.722656 "/>
<path style=" stroke:none;fill-rule:nonzero;fill:rgb(100%,100%,100%);fill-opacity:1;" d="M 55.960938 20.300781 L 48.84375 13.378906 C 48.066406 12.601563 47.40625 12.871094 47.40625 14.078125 L 47.40625 17.1875 C 42.660156 16.953125 39.003906 12.914063 39.238281 8.167969 C 39.476563 3.421875 43.515625 -0.234375 48.261719 0 C 43.671875 0 30.878906 1.207031 30.410156 18.707031 C 25.246094 21.9375 18.4375 20.371094 15.207031 15.207031 C 11.972656 10.039063 13.539063 3.230469 18.707031 0 L 23.253906 0 C 23.253906 1.257813 22.238281 2.273438 20.980469 2.273438 C 19.722656 2.273438 18.707031 1.257813 18.707031 0 C 14.851563 -4.339844 15.144531 -10.957031 19.367188 -14.9375 C 23.589844 -18.921875 30.214844 -18.824219 34.320313 -14.71875 C 38.421875 -10.613281 38.519531 -3.992188 34.539063 0.234375 C 30.558594 4.457031 23.9375 4.75 19.601563 0.894531 L 19.601563 3.773438 C 19.601563 5.210938 20.066406 5.445313 21.039063 4.472656 L 28 -1.945313 C 28.785156 4.550781 24.152344 10.453125 17.65625 11.238281 C 11.160156 12.023438 5.257813 7.390625 4.472656 0.894531 Z M 55.960938 20.300781 "/>
<path style=" stroke:none;fill-rule:nonzero;fill:url(#linear1);" d="M 54.910156 53.121094 C 55.914063 56.820313 55.140625 60.777344 52.816406 63.824219 C 50.492188 66.871094 46.882813 68.667969 43.050781 68.679688 L 58.996094 84.621094 L 85.359375 84.621094 C 81.914063 88.070313 81.914063 93.660156 85.359375 97.105469 C 88.808594 100.550781 94.398438 100.550781 97.84375 97.105469 Z M 54.910156 53.121094 "/>
</g>
</svg>
