<?xml version="1.0" encoding="UTF-8"?>
<svg xmlns="http://www.w3.org/2000/svg" xmlns:xlink="http://www.w3.org/1999/xlink" width="70pt" height="70pt" viewBox="0 0 70 70" version="1.1">
<defs>
<linearGradient id="linear0" gradientUnits="userSpaceOnUse" x1="9" y1="1.36" x2="9" y2="17.87" gradientTransform="matrix(3.888889,0,0,3.888889,0,0)">
<stop offset="0.18" style="stop-color:rgb(36.862745%,62.745098%,93.72549%);stop-opacity:1;"/>
<stop offset="1" style="stop-color:rgb(0%,47.058824%,83.137255%);stop-opacity:1;"/>
</linearGradient>
</defs>
<g id="surface1">
<path style=" stroke:none;fill-rule:nonzero;fill:rgb(0%,47.058824%,83.137255%);fill-opacity:1;" d="M 63.621094 32.667969 C 63.621094 51.488281 40.871094 66.65625 35.933594 69.726563 C 16.679688 69.726563 1.070313 54.117188 1.070313 34.863281 C 1.070313 15.609375 16.679688 0 35.933594 0 C 30.996094 -3.070313 8.246094 -18.238281 8.246094 -37.0625 L 8.246094 10.035156 C 5.472656 22.542969 -6.914063 30.441406 -19.425781 27.667969 C -31.9375 24.898438 -39.832031 12.511719 -37.0625 0 C 25.820313 7.777344 21.738281 0 35 0 C 48.261719 0 44.179688 7.777344 61.871094 8.246094 C 59.59375 25.328125 43.898438 37.335938 26.8125 35.058594 C 9.726563 32.78125 -2.277344 17.085938 0 0 Z M 63.621094 32.667969 "/>
<path style=" stroke:none;fill-rule:nonzero;fill:url(#linear0);" d="M 61.25 32.859375 C 61.25 50.128906 40.40625 63.972656 35.855469 66.851563 C 17.394531 66.851563 2.429688 51.886719 2.429688 33.425781 C 2.429688 14.964844 17.394531 0 35.855469 0 C 31.304688 -2.800781 10.460938 -16.722656 10.460938 -33.988281 L 10.460938 12.09375 C 7.121094 24.367188 -5.535156 31.613281 -17.8125 28.273438 C -30.085938 24.933594 -37.328125 12.273438 -33.988281 0 C 26.5625 10.035156 22.828125 2.917969 35 2.917969 C 47.171875 2.917969 43.4375 10.035156 59.65625 10.460938 C 56.765625 26.128906 41.722656 36.488281 26.054688 33.601563 C 10.386719 30.710938 0.0273438 15.667969 2.917969 0 Z M 61.25 32.859375 "/>
<path style=" stroke:none;fill-rule:nonzero;fill:rgb(90.196078%,90.196078%,90.196078%);fill-opacity:1;" d="M 45.890625 48.6875 C 32.445313 48.171875 21.960938 36.855469 22.476563 23.410156 C 22.992188 9.964844 34.308594 -0.515625 47.753906 0 L 25.976563 0 C 26.710938 0.421875 27.066406 1.285156 26.847656 2.101563 C 26.628906 2.914063 25.890625 3.484375 25.042969 3.484375 C 24.199219 3.484375 23.460938 2.914063 23.242188 2.101563 C 23.023438 1.285156 23.378906 0.421875 24.109375 0 L 24.109375 15.320313 C 19.878906 15.320313 16.449219 11.890625 16.449219 7.660156 C 16.449219 3.429688 19.878906 0 24.109375 0 L 42.15625 0 C 42.15625 4.984375 38.117188 9.023438 33.132813 9.023438 C 28.152344 9.023438 24.109375 4.984375 24.109375 0 Z M 45.890625 48.6875 "/>
<path style=" stroke:none;fill-rule:nonzero;fill:rgb(0%,18.823529%,40.392157%);fill-opacity:1;" d="M 27.222656 19.445313 C 21.851563 26.960938 11.40625 28.703125 3.890625 23.332031 C -3.628906 17.964844 -5.371094 7.515625 0 0 L 10.890625 0 C 10.890625 -1.289063 11.933594 -2.332031 13.222656 -2.332031 C 14.511719 -2.332031 15.554688 -1.289063 15.554688 0 C 15.554688 1.289063 14.511719 2.332031 13.222656 2.332031 L 29.554688 2.332031 C 29.554688 6.84375 25.898438 10.5 21.390625 10.5 C 16.878906 10.5 13.222656 6.84375 13.222656 2.332031 Z M 27.222656 19.445313 "/>
<path style=" stroke:none;fill-rule:nonzero;fill:rgb(31.372549%,90.196078%,100%);fill-opacity:1;" d="M 31.265625 19.40625 C 31.265625 20.285156 30.554688 21 29.671875 21 C 28.792969 21 28.078125 20.285156 28.078125 19.40625 C 28.078125 18.523438 28.792969 17.8125 29.671875 17.8125 C 30.554688 17.8125 31.265625 18.523438 31.265625 19.40625 Z M 31.265625 19.40625 "/>
<path style=" stroke:none;fill-rule:nonzero;fill:rgb(0%,18.823529%,40.392157%);fill-opacity:1;" d="M 27.222656 26.832031 C 19.8125 34.351563 7.710938 34.4375 0.195313 27.027344 C -7.324219 19.617188 -7.410156 7.515625 0 0 L 10.890625 0 C 10.875 -0.964844 11.445313 -1.84375 12.335938 -2.222656 C 13.226563 -2.601563 14.253906 -2.398438 14.9375 -1.714844 C 15.621094 -1.03125 15.820313 -0.00390625 15.445313 0.886719 C 15.066406 1.777344 14.1875 2.347656 13.222656 2.332031 L 29.554688 2.332031 C 29.554688 6.84375 25.898438 10.5 21.390625 10.5 C 16.878906 10.5 13.222656 6.84375 13.222656 2.332031 Z M 27.222656 26.832031 "/>
<path style=" stroke:none;fill-rule:nonzero;fill:rgb(31.372549%,90.196078%,100%);fill-opacity:1;" d="M 31.265625 26.832031 C 31.265625 27.714844 30.554688 28.429688 29.671875 28.429688 C 28.792969 28.429688 28.078125 27.714844 28.078125 26.832031 C 28.078125 25.953125 28.792969 25.238281 29.671875 25.238281 C 30.554688 25.238281 31.265625 25.953125 31.265625 26.832031 Z M 31.265625 26.832031 "/>
</g>
</svg>
