<?xml version="1.0" encoding="UTF-8"?>
<svg xmlns="http://www.w3.org/2000/svg" xmlns:xlink="http://www.w3.org/1999/xlink" width="70pt" height="70pt" viewBox="0 0 70 70" version="1.1">
<defs>
<linearGradient id="linear0" gradientUnits="userSpaceOnUse" x1="7.93" y1="17.95" x2="7.93" y2="5.62" gradientTransform="matrix(3.888889,0,0,3.888889,0,0)">
<stop offset="0" style="stop-color:rgb(36.862745%,58.823529%,14.117647%);stop-opacity:1;"/>
<stop offset="1" style="stop-color:rgb(70.588235%,92.54902%,21.176471%);stop-opacity:1;"/>
</linearGradient>
<linearGradient id="linear1" gradientUnits="userSpaceOnUse" x1="7.95" y1="9.21" x2="7.95" y2="-2.02" gradientTransform="matrix(3.888889,0,0,3.888889,0,0)">
<stop offset="0" style="stop-color:rgb(36.862745%,58.823529%,14.117647%);stop-opacity:1;"/>
<stop offset="1" style="stop-color:rgb(70.588235%,92.54902%,21.176471%);stop-opacity:1;"/>
</linearGradient>
</defs>
<g id="surface1">
<path style=" stroke:none;fill-rule:nonzero;fill:url(#linear0);" d="M 54.445313 65.527344 C 53.683594 63.300781 54.558594 60.847656 56.554688 59.601563 C 58.550781 58.359375 61.140625 58.65625 62.804688 60.320313 C 64.464844 61.980469 64.761719 64.570313 63.519531 66.566406 C 62.277344 68.5625 59.820313 69.4375 57.59375 68.679688 C 55.570313 52.539063 46.394531 39.394531 28.816406 39.394531 C 11.238281 39.394531 3.890625 41.648438 1.984375 59.851563 C 4.421875 49.519531 14.773438 43.121094 25.101563 45.558594 C 35.433594 47.996094 41.832031 58.347656 39.394531 68.679688 L 54.445313 68.679688 Z M 54.445313 65.527344 "/>
<path style=" stroke:none;fill-rule:nonzero;fill:rgb(100%,100%,100%);fill-opacity:1;" d="M 31.109375 34.339844 C 21.628906 35.046875 13.367188 27.933594 12.660156 18.453125 C 11.949219 8.96875 19.0625 0.707031 28.542969 0 L 30.800781 54.445313 L 39.433594 31.929688 C 30.617188 34.933594 21.03125 30.226563 18.023438 21.410156 C 15.019531 12.589844 19.726563 3.007813 28.542969 0 Z M 31.109375 34.339844 "/>
<path style=" stroke:none;fill-rule:nonzero;fill:url(#linear1);" d="M 47.132813 18.160156 C 47.132813 27.117188 39.871094 34.378906 30.917969 34.378906 C 21.960938 34.378906 14.699219 27.117188 14.699219 18.160156 C 14.699219 9.203125 21.960938 1.945313 30.917969 1.945313 C 39.871094 1.945313 47.132813 9.203125 47.132813 18.160156 Z M 47.132813 18.160156 "/>
<path style=" stroke:none;fill-rule:nonzero;fill:rgb(19.607843%,74.509804%,86.666667%);fill-opacity:1;" d="M 68.015625 43.285156 L 68.015625 59.773438 L 53.859375 68.054688 L 53.859375 51.566406 Z M 68.015625 43.285156 "/>
<path style=" stroke:none;fill-rule:nonzero;fill:rgb(61.176471%,92.156863%,100%);fill-opacity:1;" d="M 68.015625 43.285156 L 53.859375 51.566406 L 39.707031 43.285156 L 53.859375 35 Z M 68.015625 43.285156 "/>
<path style=" stroke:none;fill-rule:nonzero;fill:rgb(31.372549%,90.196078%,100%);fill-opacity:1;" d="M 53.859375 51.566406 L 53.859375 68.054688 L 39.707031 59.773438 L 39.707031 43.285156 Z M 53.859375 51.566406 "/>
<path style=" stroke:none;fill-rule:nonzero;fill:rgb(61.176471%,92.156863%,100%);fill-opacity:1;" d="M 39.707031 59.773438 L 53.859375 51.566406 L 53.859375 68.054688 Z M 39.707031 59.773438 "/>
<path style=" stroke:none;fill-rule:nonzero;fill:rgb(31.372549%,90.196078%,100%);fill-opacity:1;" d="M 68.015625 59.773438 L 53.859375 51.566406 L 53.859375 68.054688 Z M 68.015625 59.773438 "/>
</g>
</svg>
