<?xml version="1.0" encoding="UTF-8"?>
<svg xmlns="http://www.w3.org/2000/svg" xmlns:xlink="http://www.w3.org/1999/xlink" width="70pt" height="70pt" viewBox="0 0 70 70" version="1.1">
<defs>
<linearGradient id="linear0" gradientUnits="userSpaceOnUse" x1="9" y1="13.83" x2="9" y2="1.07" gradientTransform="matrix(3.888889,0,0,3.888889,0,0)">
<stop offset="0" style="stop-color:rgb(0%,47.058824%,83.137255%);stop-opacity:1;"/>
<stop offset="0.82" style="stop-color:rgb(36.862745%,62.745098%,93.72549%);stop-opacity:1;"/>
</linearGradient>
</defs>
<g id="surface1">
<path style=" stroke:none;fill-rule:nonzero;fill:url(#linear0);" d="M 70 38.226563 C 59.445313 57.558594 35.214844 64.671875 15.886719 54.113281 C -3.445313 43.558594 -10.554688 19.328125 0 0 C 0.285156 10.894531 -8.277344 19.980469 -19.171875 20.339844 L 14.464844 20.339844 C 10.074219 24.730469 10.074219 31.851563 14.464844 36.246094 C 18.859375 40.636719 25.980469 40.636719 30.371094 36.246094 Z M 70 38.226563 "/>
<path style=" stroke:none;fill-rule:nonzero;fill:rgb(94.901961%,94.901961%,94.901961%);fill-opacity:1;" d="M 25.785156 26.523438 L 45.460938 26.523438 L 45.460938 53.746094 L 25.785156 53.746094 Z M 25.785156 26.523438 "/>
<path style=" stroke:none;fill-rule:nonzero;fill:rgb(31.372549%,90.196078%,100%);fill-opacity:1;" d="M 49.039063 24.773438 L 35.464844 16.996094 C 30.773438 16.832031 27.101563 12.898438 27.261719 8.207031 C 27.421875 3.511719 31.355469 -0.160156 36.050781 0 L 36.050781 47.289063 C 22.992188 47.289063 12.40625 36.703125 12.40625 23.644531 C 12.40625 10.585938 22.992188 0 36.050781 0 L 36.359375 0 L 49.933594 -8.011719 C 52.144531 -4.175781 50.832031 0.722656 46.996094 2.9375 C 43.164063 5.148438 38.261719 3.832031 36.050781 0 L 36.050781 -31.109375 C 44.640625 -30.820313 51.371094 -23.621094 51.082031 -15.03125 C 50.789063 -6.441406 43.589844 0.289063 35 0 Z M 49.039063 24.773438 "/>
</g>
</svg>
