<?xml version="1.0" encoding="UTF-8"?>
<svg xmlns="http://www.w3.org/2000/svg" xmlns:xlink="http://www.w3.org/1999/xlink" width="70pt" height="70pt" viewBox="0 0 70 70" version="1.1">
<defs>
<radialGradient id="radial0" gradientUnits="userSpaceOnUse" cx="-36.63" cy="17.12" fx="-36.63" fy="17.12" r="11.18" gradientTransform="matrix(3.655556,0,0,3.655556,162.866667,-28.777778)">
<stop offset="0.27" style="stop-color:rgb(100%,84.313725%,5.882353%);stop-opacity:1;"/>
<stop offset="0.49" style="stop-color:rgb(100%,79.607843%,7.058824%);stop-opacity:1;"/>
<stop offset="0.88" style="stop-color:rgb(99.607843%,67.45098%,9.803922%);stop-opacity:1;"/>
<stop offset="1" style="stop-color:rgb(99.607843%,63.137255%,10.588235%);stop-opacity:1;"/>
</radialGradient>
<filter id="alpha" filterUnits="objectBoundingBox" x="0%" y="0%" width="100%" height="100%">
  <feColorMatrix type="matrix" in="SourceGraphic" values="0 0 0 0 1 0 0 0 0 1 0 0 0 0 1 0 0 0 1 0"/>
</filter>
<mask id="mask0">
  <g filter="url(#alpha)">
<rect x="0" y="0" width="70" height="70" style="fill:rgb(0%,0%,0%);fill-opacity:0.74902;stroke:none;"/>
  </g>
</mask>
<clipPath id="clip1">
  <rect x="0" y="0" width="70" height="70"/>
</clipPath>
<g id="surface5" clip-path="url(#clip1)">
<path style=" stroke:none;fill-rule:nonzero;fill:rgb(100%,57.647059%,0%);fill-opacity:1;" d="M 29.632813 63.039063 C 12.226563 71.222656 -8.519531 63.742188 -16.703125 46.335938 C -24.886719 28.929688 -17.40625 8.183594 0 0 L 0 -17.304688 C -0.0273438 -16.824219 -0.378906 -16.421875 -0.855469 -16.332031 L -0.855469 62.222656 C -22.546875 62.222656 -40.132813 44.636719 -40.132813 22.945313 C -40.132813 1.25 -22.546875 -16.332031 -0.855469 -16.332031 Z M 29.632813 63.039063 "/>
</g>
<mask id="mask1">
  <g filter="url(#alpha)">
<rect x="0" y="0" width="70" height="70" style="fill:rgb(0%,0%,0%);fill-opacity:0.74902;stroke:none;"/>
  </g>
</mask>
<clipPath id="clip2">
  <rect x="0" y="0" width="70" height="70"/>
</clipPath>
<g id="surface8" clip-path="url(#clip2)">
<path style=" stroke:none;fill-rule:nonzero;fill:rgb(100%,57.647059%,0%);fill-opacity:1;" d="M 23.371094 21.195313 L 43.671875 21.195313 C 44.359375 21.195313 44.917969 21.75 44.917969 22.4375 L 44.917969 22.632813 C 44.917969 23.320313 44.359375 23.878906 43.671875 23.878906 L 23.371094 23.878906 C 22.683594 23.878906 22.128906 23.320313 22.128906 22.632813 L 22.128906 22.4375 C 22.128906 21.75 22.683594 21.195313 23.371094 21.195313 Z M 23.371094 21.195313 "/>
</g>
<mask id="mask2">
  <g filter="url(#alpha)">
<rect x="0" y="0" width="70" height="70" style="fill:rgb(0%,0%,0%);fill-opacity:0.74902;stroke:none;"/>
  </g>
</mask>
<clipPath id="clip3">
  <rect x="0" y="0" width="70" height="70"/>
</clipPath>
<g id="surface11" clip-path="url(#clip3)">
<path style=" stroke:none;fill-rule:nonzero;fill:rgb(100%,57.647059%,0%);fill-opacity:1;" d="M 23.371094 25.550781 L 43.671875 25.550781 C 44.359375 25.550781 44.917969 26.105469 44.917969 26.792969 L 44.917969 26.988281 C 44.917969 27.675781 44.359375 28.234375 43.671875 28.234375 L 23.371094 28.234375 C 22.683594 28.234375 22.128906 27.675781 22.128906 26.988281 L 22.128906 26.792969 C 22.128906 26.105469 22.683594 25.550781 23.371094 25.550781 Z M 23.371094 25.550781 "/>
</g>
</defs>
<g id="surface1">
<path style=" stroke:none;fill-rule:nonzero;fill:url(#radial0);" d="M 52.734375 27.960938 C 45.011719 42.523438 26.949219 48.070313 12.386719 40.347656 C -2.175781 32.625 -7.722656 14.5625 0 0 L 38.890625 2.683594 C 38.738281 1.796875 38.738281 0.886719 38.890625 0 L 13.6875 16.566406 C 9.113281 9.609375 11.046875 0.257813 18.003906 -4.316406 C 24.964844 -8.890625 34.3125 -6.957031 38.890625 0 L 50.554688 11.667969 C 47.332031 14.886719 42.109375 14.886719 38.890625 11.667969 C 35.667969 8.445313 35.667969 3.222656 38.890625 0 L 38.890625 21.464844 C 32.960938 21.464844 28.15625 16.660156 28.15625 10.734375 C 28.15625 4.804688 32.960938 0 38.890625 0 L 44.140625 5.25 C 45.589844 3.800781 45.589844 1.449219 44.140625 0 C 42.6875 -1.449219 40.339844 -1.449219 38.890625 0 L 43.984375 -5.09375 L 46.976563 -8.089844 C 49.210938 -5.855469 49.210938 -2.234375 46.976563 0 C 44.742188 2.234375 41.121094 2.234375 38.890625 0 L 36.75 -2.179688 C 37.351563 -2.769531 38.316406 -2.757813 38.910156 -2.160156 C 39.5 -1.558594 39.492188 -0.589844 38.890625 0 L 41.027344 -2.179688 C 41.628906 -1.585938 41.636719 -0.621094 41.046875 -0.0195313 C 40.457031 0.582031 39.492188 0.589844 38.890625 0 L 40.445313 50.554688 C 26.484375 50.984375 14.820313 40.015625 14.390625 26.054688 C 13.960938 12.09375 24.929688 0.429688 38.890625 0 L 42.777344 46.667969 C 29.890625 47.742188 18.574219 38.164063 17.5 25.277344 C 16.425781 12.390625 26.003906 1.074219 38.890625 0 L 35.894531 -3.035156 L 35.894531 -4.121094 Z M 33.289063 6.027344 C 33.273438 4.167969 34.382813 2.484375 36.09375 1.761719 C 37.808594 1.039063 39.789063 1.421875 41.109375 2.730469 C 42.429688 4.039063 42.828125 6.015625 42.121094 7.734375 C 41.414063 9.457031 39.738281 10.578125 37.878906 10.578125 Z M 33.289063 6.027344 "/>
<use xlink:href="#surface5" mask="url(#mask0)"/>
<use xlink:href="#surface8" mask="url(#mask1)"/>
<use xlink:href="#surface11" mask="url(#mask2)"/>
</g>
</svg>
