<?xml version="1.0" encoding="UTF-8"?>
<svg xmlns="http://www.w3.org/2000/svg" xmlns:xlink="http://www.w3.org/1999/xlink" width="70pt" height="61pt" viewBox="0 0 70 61" version="1.1">
<g id="surface1">
<path style=" stroke:none;fill-rule:nonzero;fill:rgb(0%,0%,0%);fill-opacity:1;" d="M 63.4375 21.785156 L 66.0625 21.785156 L 68.25 23.09375 L 69.5625 25.269531 C 68.863281 22.792969 69.933594 20.152344 72.164063 18.851563 C 74.398438 17.550781 77.230469 17.914063 79.058594 19.734375 C 80.890625 21.554688 81.253906 24.378906 79.945313 26.601563 C 78.640625 28.824219 75.992188 29.890625 73.5 29.191406 L 64.75 55.335938 C 57.5 54.855469 52.015625 48.613281 52.5 41.394531 C 52.984375 34.171875 59.25 28.710938 66.5 29.191406 L 65.1875 30.5 L 63.4375 31.371094 L 37.1875 31.371094 C 51.058594 46.375 50.339844 69.667969 35.5625 83.792969 C 20.789063 97.914063 -2.613281 97.671875 -17.09375 83.253906 C -31.574219 68.832031 -31.8125 45.523438 -17.636719 30.808594 C -3.457031 16.09375 19.9375 15.375 35 29.191406 L 30.1875 27.449219 L 0 27.449219 L 0 26.144531 L 14.4375 26.144531 L 18.375 25.269531 L 21.875 23.09375 L 43.3125 1.742188 L 45.0625 0.4375 L 49 0.4375 L 50.75 1.742188 L 52.0625 3.484375 C 57.980469 -2.410156 67.582031 -2.410156 73.5 3.484375 C 79.417969 9.382813 79.417969 18.941406 73.5 24.835938 L 71.3125 29.628906 C 72.167969 27.929688 73.191406 26.324219 74.375 24.835938 C 73.9375 25.707031 73.9375 27.015625 73.5 27.886719 Z M 54.6875 56.644531 L 56 56.644531 L 56.875 55.769531 C 48.296875 63.710938 34.878906 63.226563 26.90625 54.683594 C 18.933594 46.140625 19.421875 32.777344 28 24.835938 L 29.3125 21.785156 L 30.625 17.429688 C 38.40625 1.710938 57.140625 -5.246094 73.355469 1.558594 C 89.570313 8.363281 97.65625 26.570313 91.800781 43.097656 C 85.945313 59.621094 68.171875 68.742188 51.261719 63.902344 C 34.351563 59.0625 24.152344 41.9375 28 24.835938 L 29.3125 20.480469 L 30.625 16.558594 C 34.027344 12.664063 39.703125 11.679688 44.226563 14.203125 C 48.746094 16.726563 50.867188 22.0625 49.308594 26.984375 C 47.746094 31.90625 42.933594 35.0625 37.777344 34.542969 C 32.621094 34.023438 28.539063 29.96875 28 24.835938 L 28 23.09375 C 27.746094 23.929688 27.089844 24.582031 26.25 24.835938 L 43.75 24.835938 L 43.75 20.914063 C 43.75 20.042969 44.1875 19.171875 44.1875 17.863281 C 43.3125 15.183594 44.402344 12.253906 46.816406 10.78125 C 49.230469 9.308594 52.34375 9.675781 54.34375 11.667969 C 56.347656 13.664063 56.714844 16.765625 55.238281 19.167969 C 53.757813 21.574219 50.816406 22.65625 48.125 21.785156 L 49.4375 17.429688 C 52.351563 11.839844 59.054688 9.378906 64.910156 11.746094 C 70.769531 14.109375 73.859375 20.527344 72.042969 26.558594 C 70.226563 32.585938 64.101563 36.25 57.902344 35.015625 C 51.703125 33.777344 47.46875 28.046875 48.125 21.785156 C 48.125 21.351563 48.125 20.914063 47.6875 20.914063 C 47.929688 21.035156 48.027344 21.328125 47.90625 21.566406 C 47.785156 21.808594 47.492188 21.90625 47.25 21.785156 L 46.375 21.785156 L 24.9375 26.144531 L 22.75 27.886719 L 20.125 29.191406 C 17.144531 35.230469 10.160156 38.164063 3.742188 36.074219 C -2.679688 33.984375 -6.578125 27.511719 -5.402344 20.886719 C -4.230469 14.265625 1.660156 9.507813 8.410156 9.734375 C 15.160156 9.960938 20.714844 15.097656 21.4375 21.785156 L 4.375 21.785156 L 4.375 43.570313 L 15.3125 43.570313 C 10.589844 27.152344 17.617188 9.632813 32.394531 0.964844 C 47.171875 -7.699219 65.960938 -5.316406 78.089844 6.757813 C 90.214844 18.835938 92.605469 37.550781 83.90625 52.269531 C 75.203125 66.984375 57.613281 73.980469 41.125 69.277344 Z M 54.6875 56.644531 "/>
</g>
</svg>
